<svg id="レイヤー_1" data-name="レイヤー 1" xmlns="http://www.w3.org/2000/svg" viewBox="0 0 595.28 595.28"><defs><style>.cls-1{fill:#666560;}</style></defs><path class="cls-1" d="M421.73,383.53,307.94,447.76a3.89,3.89,0,0,1-5.8-3.39V305.84a3.89,3.89,0,0,1,2-3.39l113.8-64.22a3.89,3.89,0,0,1,5.8,3.38V380.15A3.89,3.89,0,0,1,421.73,383.53Z"/><path class="cls-1" d="M172.55,383.53l113.79,64.23a3.89,3.89,0,0,0,5.8-3.39V305.84a3.88,3.88,0,0,0-2-3.39L176.37,238.23a3.89,3.89,0,0,0-5.8,3.38V380.15A3.87,3.87,0,0,0,172.55,383.53Z"/><path class="cls-1" d="M294.93,294.53,177.36,227.92a3.89,3.89,0,0,1,0-6.76l117.57-66.61a3.85,3.85,0,0,1,3.83,0l117.57,66.61a3.89,3.89,0,0,1,0,6.76L298.76,294.53A3.85,3.85,0,0,1,294.93,294.53Z"/></svg>