<svg id="レイヤー_1" data-name="レイヤー 1" xmlns="http://www.w3.org/2000/svg" viewBox="0 0 595.28 595.28"><defs><style>.cls-1{fill:#666560;}</style></defs><path class="cls-1" d="M181.26,395.83a8.5,8.5,0,0,1-7.91-11.62c22.66-57.52,43.47-83.61,65.45-82.16,15.71,1.05,24.36,15.86,32,28.93,6.2,10.62,12.61,21.59,21.08,23.23,9.07,1.74,20.09-7,27.74-14.74,16.21-16.3,35.2-45.14,56.44-85.73a8.5,8.5,0,1,1,15.06,7.88c-41.84,80-74.39,114.7-102.46,109.28-16-3.09-24.81-18.1-32.54-31.34-6-10.34-11.74-20.1-18.44-20.55-6-.4-22.64,5.77-48.5,71.43A8.51,8.51,0,0,1,181.26,395.83Z"/><path class="cls-1" d="M401.89,214.27l-44.38,25.62a4.52,4.52,0,0,0,0,7.83l44.38,25.63a4.53,4.53,0,0,0,6.79-3.92V218.18A4.52,4.52,0,0,0,401.89,214.27Z"/></svg>