<?xml version="1.0" encoding="utf-8"?>
<!-- Generator: Adobe Illustrator 25.2.0, SVG Export Plug-In . SVG Version: 6.00 Build 0)  -->
<svg version="1.1" id="レイヤー_1" xmlns="http://www.w3.org/2000/svg" xmlns:xlink="http://www.w3.org/1999/xlink" x="0px"
	 y="0px" viewBox="0 0 595.3 595.3" style="enable-background:new 0 0 595.3 595.3;" xml:space="preserve">
<style type="text/css">
	.st0{opacity:0.2;enable-background:new    ;}
	.st1{fill:#FFFFFF;}
	.st2{fill:#262626;}
	.st3{fill:#CC291F;}
	.st4{fill:#FBD7C7;}
	.st5{fill:#FFCC00;}
	.st6{opacity:0.2;fill:#262626;enable-background:new    ;}
	.st7{fill:#825012;}
	.st8{fill:#06547A;}
	.st9{fill:#E5E5E5;}
	.st10{fill:#FF9900;}
	.st11{fill:#99CC33;}
</style>
<g>
	<path class="st0" d="M212.4,276.4c7.3-0.3,9.2-3.5,10.9-9.8c1.9-6.3-0.6-7.6,3.9-10.8c4.4-3.2,7.9-6.4,6.7-11.2
		c-2.3-9.2-12-20.2-21.2-20.2s-26.5,13.6-27,15c-0.6,1.3-4.6,3.1-0.6,8.6C191.6,256.6,196.4,276.8,212.4,276.4L212.4,276.4z"/>
	<path class="st1" d="M192.4,232.2c0,0-3.2,3.1-5.7,4.9c-2.5,1.9-2.7,5.5-2.6,6.7c0.1,1.2,2.8,4.4,7.3,3.6c4.5-0.8,8-5.7,11.1-8.6
		c3.1-2.9,3.1-2.7,5.3-3.1c2.3-0.4,0-5.6-3.1-5.7c-3.1-0.1-9.1-3.1-9.1-3.1S193.8,230.7,192.4,232.2L192.4,232.2z"/>
	<path class="st1" d="M192.4,232.2c0,0-3.2,3.1-5.7,4.9c-2.5,1.9-2.7,5.5-2.6,6.7c0.1,1.2,2.8,4.4,7.3,3.6c4.5-0.8,8-5.7,11.1-8.6
		c3.1-2.9,3.1-2.7,5.3-3.1c2.3-0.4,0-5.6-3.1-5.7c-3.1-0.1-9.1-3.1-9.1-3.1S193.8,230.7,192.4,232.2L192.4,232.2z"/>
	<path class="st2" d="M202.5,239.1c3.1-2.9,3.1-2.7,5.3-3.1c0.3,0,0.6-0.1,0.7-0.4l-8.8-1.7c0,0,0.4,3.5-2.4,6.6
		c-2.7,3.1-4.3,4.8-7.6,4.8c-2.4,0-4.2-0.6-5.5-2.1v0.9c0.1,1.3,2.8,4.4,7.3,3.6C196.1,246.8,199.5,242,202.5,239.1L202.5,239.1z"/>
	<path class="st3" d="M189.2,118.7c0,0-4.6,12.6-4.2,27.3c0.4,15.4,2.1,25,3.2,29c1.4,6,4.6,7.9,5.2,21c0.7,13.1,0.8,26.5-0.3,30.3
		s-3.6,5.3-3.2,6.3c0.4,0.9,5.1-0.6,7.3,1.6c2.3,2.1,6,3.6,7.9,3.6c1.9,0.1,2.7,0,2.7,0l-4.9-104.5L189.2,118.7z"/>
	<path class="st0" d="M189.2,118.7c0,0-4.6,12.6-4.2,27.3c0.4,15.4,2.1,25,3.2,29c1.4,6,4.6,7.9,5.2,21c0.7,13.1,0.8,26.5-0.3,30.3
		s-3.6,5.3-3.2,6.3c0.4,0.9,5.1-0.6,7.3,1.6c2.3,2.1,6,3.6,7.9,3.6c1.9,0.1,2.7,0,2.7,0l-4.9-104.5L189.2,118.7z"/>
	<path class="st1" d="M211,260.4c0,0-2.3,6-2.3,7.2s-0.3,5.2,0.6,6.2c0.7,0.8,4.3,2,7.1,1.6c2.9-0.4,5.7-3.2,6-4.3
		c0.3-1.2-0.1-8.4-0.3-9.5c-0.1-1.1-0.7-3.5-0.7-3.5L211,260.4z"/>
	<path class="st2" d="M221.5,258l-1.9,0.4c0.6,2.6,1.2,8.4,0.4,10.8c-1.1,2.8-4,3.6-6.6,3.6c-1.4,0-4-0.8-4.7-2.7
		c0,1.4,0.1,3.1,0.6,3.6c0.7,0.8,4.3,2,7.1,1.6c2.9-0.4,5.7-3.2,6-4.3c0.3-1.2-0.1-8.4-0.3-9.5C222.1,260.6,221.5,258,221.5,258z"/>
	<path class="st3" d="M200.4,134.5c0,0-4,9.5-4.7,23.1c-0.7,13.6,0.9,22.7,1.2,25.8c0.1,3.1,0.7,12.6,2.4,16.2
		c1.7,3.6,4.9,10.6,6.2,19.2c1.2,8.7,1.7,24.6,1.9,28.6c0.1,5.3-0.7,9.8,0.3,12.3c0.9,2.6,4-0.6,7.3,0.4c3.3,0.8,8.6,1.9,9.5,1.3
		s-0.7-10-0.6-15.5c0.1-5.5-0.3-26.5-1.4-35.3c-1.1-8.8-7.5-17.1-6.4-26.1c1.1-8.9,7.2-27.8,8.7-33.4c1.4-5.5,1.9-13.6,1.1-21
		C225.2,122.7,200.4,134.5,200.4,134.5z"/>
	<path class="st4" d="M189.2,111.9c0,0-5.7,4.2-7.9,6.8s-3.2,3.9-3.2,6.3c0,2.4,1.1,3.9,2.1,3.6c1.1-0.3,0-3.6,0-3.6l1.1-2.1
		c0,0-1.1,1.9-0.6,2.7c0.6,0.7,2.9,3.2,3.6,2.7c0.8-0.6,0.6-1.6,0.6-1.6s-2-1.3-1.6-2.1c0.4-0.8,1.1-1.1,1.1-1.1s-0.4,2.4,0,3.2
		c0.4,0.7,2.1,0.6,2.1,0.6l3.2-7.3L189.2,111.9z"/>
	<path class="st5" d="M215.1,54.3c-6.2-1.2-17.8-2.1-22.1,3.2s-3.2,6.8-3.2,9.5c0,2.7-2,7.1-3.2,10s-3.1,7.9-1.1,10.9
		c2,3.2,5.7,4.7,5.7,4.7s-1.1,12.5-2.3,17.2c-1.2,4.7-2.7,13.1-3.2,15.8c-0.6,2.7,2.1,10.6,7.3,12.6c5.2,2.1,17.1,3.1,24.2-2.1
		c7.1-5.2,8.4-8.4,8.4-8.4s-2.6-10.3-2.1-14.2c0.4-3.9,6.9-23.5,6.9-23.5l4.8-15.8l1.6-1.1c0,0,0.4-3.5-1.6-6.8
		c-2-3.5-5.3-6.9-10-8.4C220.7,56.4,220.5,55.4,215.1,54.3z"/>
	<path class="st4" d="M201,56.9c0,0-9.2,7.3-3.2,13.6c6,6.3,17.8-5.6,19.9-10.6C219.9,55.3,208.1,49.8,201,56.9z"/>
	<path class="st6" d="M185,83.2c0,0-0.1,5.7,14.7,8.7c22.1,4.4,26.5-3.9,26.5-3.9s-4.2,11.5-25.7,7.3C181.9,91.7,185,83.2,185,83.2z
		"/>
	<path class="st7" d="M212.6,19.3c-10.8-0.7-16.1,4-18.1,11.5c-2,7.2,5.3,20.5-2.4,23.9c0.1,2.9,6.8,6,9.8,2.8
		c2.9-3.1,3.9-3.2,3.9-3.2L212.6,19.3z"/>
	<path class="st4" d="M198.4,32.8c-2,4.2-2.6,20.8,0.8,23.5s10.2-1.7,16.7-4.7c6.6-2.9,7.3-25.4-2.6-25.7
		C203.5,25.7,200.5,28.4,198.4,32.8z"/>
	<path class="st7" d="M210.6,19.6c-4.4,1.1-9.5,6.9-8.6,13.3c1.3,8.3,17.6,24.5,6.2,29.7c1.9,6.2,12.7,5.7,18.7,2.7
		c5.7-3.1,6.3-6,6.2-7.1s-5.1-6.6-5.1-14.6C227.8,35.5,227.4,15.4,210.6,19.6z"/>
	<path class="st4" d="M222.9,77.3c0,0,3.7,0,6.4-0.4c2.7-0.4,6.3-2.7,6.3-2.7s0.3,6.2,1.1,9.8c0.8,3.6,2.1,13.9,2.7,15.4
		c0.6,1.5,2.6,2.7,0,7.9c-2.6,5.2-13,21.2-14.8,25.5c-1.9,4.3-1.7,8.3-2.7,9.5c-0.9,1.2-3.3,2.3-3.6,2.1c-0.4-0.1-0.9-0.1-0.9-0.1
		s-0.6,0.6-1.4,0.6s-1.2-0.6-1.2-0.6s-0.7,1.1-2.1,0.9c-1.4-0.1-1.3-1.1-1.3-1.1s-2.1,1.1-3.2,0.8c-1.1-0.3-1.6-1.3-0.9-1.7
		c0.7-0.4,2.1-0.3,3.2-1.2c1.1-0.9,2.8-3.7,2.8-3.7s-0.4-0.3-0.3-1.9c0-1.6-0.1-4.2,1.3-4.9c1.6-0.8,3.5-0.8,4.6-2.1
		c3.3-4,4.3-10.9,7.2-17c2.8-6,4.8-8.3,4.8-8.8s-3.7-8.9-5.1-13.6C224.1,84.8,222.9,77.3,222.9,77.3L222.9,77.3z"/>
</g>
<g>
	<path class="st0" d="M381.7,324.7c11.9,6.2,26.6,1.8,33.5-1.8s11.2-0.4,12.8,2.6s4.5,13.5,12.3,16.6c7.8,3.1,16.6,3.1,26.6-6.8
		c10.1-9.9,19.6-7.4,25.1-4.7c5.5,2.7,10.8,11.1,13.1,12.3c2.4,1.2,1.5-3.8,4.6-2.4c3.2,1.5,11.5,6.9,16.2,3.6
		c4.6-3.4-6.3-10.1-13.2-13.2c-33.2-14.9-12.2-20-27.4-30.5s-27.4,3.6-38.2-3.5c-10.8-7.2-23-4.6-33.4,1.9
		C403.4,305.2,363.9,315.4,381.7,324.7L381.7,324.7z"/>
	<path class="st2" d="M427,315.8c-4.9,2.8-16.6,9.3-21.9,9.9c-6.5,0.7-10-2.2-11.2-6.9c-1.9-7,24.6-18.2,24.6-18.2L427,315.8z"/>
	<path class="st1" d="M424.6,314c-6.1,2.7-16.6,10.1-22.8,8.1c-6.1-2.2-6.2-5.9-4.6-9.1c3.2-6.2,23.5-9.7,23.5-9.7L424.6,314z"/>
	<path class="st2" d="M416.7,306.1c2.3-0.3,1.8,3.9,0.5,5.3c-1.2,1.4-10.3,6.1-15.5,8.2s-13.9,4.1-18.2,3.4c-4.3-0.7-4.6-5-2.6-6.6
		c2.2-1.6,8.6-3.2,12.4-7.7c2.7-3.2,6.2-8.8,6.2-8.8L416.7,306.1z"/>
	<path class="st1" d="M414.2,307.8c-2.8,1.4-10.3,6.2-16.8,8.2s-13,3-15.7,1.2c-1.8-1.2,5.1-2.3,8.8-5.4c5.1-4.2,6.9-8.9,6.9-8.9
		L414.2,307.8z"/>
	<path class="st8" d="M432.3,291.6c-4.1-0.4-10.9,1.5-13.4,8.4c-2.4,6.9-1.6,13.1,1.4,14.3c3,1.2,4.7,0.1,5.9,2
		c1.2,1.9,4.5,9.5,6.1,13.6s4.3,8.6,7.4,10.8c3.1,2.2,8.4,3.6,13.8,0.5c5.4-3.2,10.8-8.8,15.7-11.9c6.3-4.1,20.1-17,23.2-22
		c3.1-5,2.8-8.4,2.8-8.4l-33-14.6c0,0-12.8,12.3-13.1,13.8s3,4.5,2.6,6.2c-0.4,1.8-0.8,2.7-0.8,2.7S440.5,292.4,432.3,291.6
		L432.3,291.6z"/>
	<path class="st8" d="M461.7,287.7l-12.2,10.9c0,0-3.1-1.6-5-4.1c-2.2-2.8-7.7-17-7.7-17s-4.9,9.5-6.3,13.2S420.2,302.7,420,305
		c-0.3,2.3-0.1,4.6-2.6,4.9c-2.4,0.3-19-0.3-22.4-2.4c-2.6-1.6-0.9-6.9,3.4-9.6c2.7-1.8,3.8-4.5,5.1-8.4c1.4-3.8,5-6.6,7.4-11.6
		c2.4-5,9.9-27.3,12.6-33c2.7-5.4,8.8-12.4,17.6-6.6c9.2,6.1,10.7,7.7,15.7,13.8c4.7,5.7,9.9,12.4,9.9,12.4L461.7,287.7z"/>
	<path class="st0" d="M461.7,287.7l-12.2,10.9c0,0-3.1-1.6-5-4.1c-2.2-2.8-7.7-17-7.7-17s-4.9,9.5-6.3,13.2S420.2,302.7,420,305
		c-0.3,2.3-0.1,4.6-2.6,4.9c-2.4,0.3-19-0.3-22.4-2.4c-2.6-1.6-0.9-6.9,3.4-9.6c2.7-1.8,3.8-4.5,5.1-8.4c1.4-3.8,5-6.6,7.4-11.6
		c2.4-5,9.9-27.3,12.6-33c2.7-5.4,8.8-12.4,17.6-6.6c9.2,6.1,10.7,7.7,15.7,13.8c4.7,5.7,9.9,12.4,9.9,12.4L461.7,287.7z"/>
	<path class="st4" d="M472,221.5c-6.8,0.1-18.1-2.2-23.9-3.5c-5.8-1.4-10.3-2.3-12.8,3.5c-2.6,5.8-8.9,26.9-9.5,29
		c-0.5,2.2-2.6,11.2-2.8,14.2c-0.1,1.8,1.1,6.8,2,7.7c0.9,0.9,1.9,0,2,0.5c0.3,0.4,1.2,4.2,2.3,4.7c1.1,0.4,1.8-0.5,2.2-0.3
		s1.1,3,2.7,2.8c1.4-0.1,1.1-1.1,1.1-1.1s1.2,2,2.4,1.6c1.6-0.5-0.1-4.2-0.4-7.6c-0.3-4.3,0.1-5.9,0.1-5.9s1.5-0.4,1.8-1.8
		c0.3-1.4,0.7-7.4-0.3-9.1c-0.9-1.6-3.5-3.9-3.5-5.3s1.5-6.2,5-10.8c3.5-4.6,4.7-8.8,4.7-8.8s5.1,2.8,12.3,5.1
		c7.2,2.2,14.2,3.5,14.2,3.5L472,221.5z"/>
	<path class="st9" d="M482.8,223.5c-4.5-1.1-5.5-2.6-10.1-3c-4.6-0.4-5.7-0.3-6.6,1.2c-0.9,1.5-2,6.8-1.4,11.5
		c0.7,4.7,2.4,7,2.7,9.7c0.3,2.7,0.3,6.8,1.2,11.1c0.8,4.3,1.8,6.6,1.8,6.6s-2.7,1.2-4.5,2.2c-1.9,0.9-3.4,9.5-5.3,14.1
		c-1.9,4.6-4.7,7.7,0.8,15.1c6.1,8,13.1,16.8,21.9,17.4c5.4,0.4,8.6,0.1,10.3-2.6c1.8-2.7,3-7.2,4.3-8.6s16.3-15,17.8-18.4
		s0.4-3.6,2.6-6.1c2.2-2.4,4.7-10,3.5-15.1c-1.2-5.1-9.1-16.8-13.9-22.7C497,223,482.8,223.5,482.8,223.5z"/>
	<path class="st4" d="M500.2,228.8c0,0,0.1,1.8,2,3s6.2,5.1,6.3,8.4c0.1,3.2-8.5,13.1-15.7,12.6c-7.2-0.5-10.1-9.9-10-11.6
		c0.1-1.8,7.3-13,7.3-13L500.2,228.8z"/>
	<path class="st4" d="M503.7,223.4c0,0,2.2,1.4-1.4,5.3c-3.5,3.8-4.5,2.6-4.5,2.6s-0.9,5.1-6.1,7.6c-5.1,2.4-13.4,6.6-16.6,3.2
		c-3-3.1-2.3-15.4-1.6-22.6c0.7-7.2,5.8-16.5,13.5-18.6c7-1.9,17.6,1.2,18.8,9.7C507.1,219,503.7,223.4,503.7,223.4z"/>
	<path class="st7" d="M503.7,223.4c0,0,3.4-4.3,2.2-12.8c-1.2-8.5-11.8-11.6-18.8-9.7c-3.4,0.9-6.2,3.2-8.4,6.1
		c0.4,1.6-0.9,4.9,1.9,6.6c3.2,1.9,7-0.9,11.1,1.1c4.1,2,2.7,12.6,2.7,12.6l3-0.1c0,0,0.8-2.7,3-3.5
		C501.8,222.8,502.9,223,503.7,223.4z"/>
	<path class="st4" d="M500.4,271.3c0,0,4.9,3.8,9.1,4.2c4.2,0.4,8.4-1.1,8.4-1.1s-1.6,8-1.9,11.9s0,10.1-1.9,15.4
		c-1.9,5.3-7.6,23.2-7,24.2c0.4,0.9,11.9,5.7,13.9,6.8c2,1.1,5.5,3.6,5.7,4.3c0,0.1,0,0.5-0.7,0.9c1.4,1.1,3.8,2.8,3,3.8
		c-0.7,0.8-1.5,0.8-2,0.5c0.1,0.1,1.6,1.2,1.1,2c-0.9,1.1-3.4-0.1-4.6-0.9c0.4,0.4,0.4,0.9-0.3,1.6c-0.8,0.8-3.8-0.4-5.5-1.5
		c-1.8-1.1-9.9-5.5-9.9-5.5s0.9,2.2,0.7,3.8c-0.3,1.6-1.9,1.8-2.6,1.1c-0.7-0.7-3-4.9-3.6-5.3s-1.8-2.2-1.6-3.1
		c0.1-0.9-0.1-2-0.9-3.9c-0.8-1.9-1.2-2.7-0.7-8.8c0.7-6.1,0.3-14.5,1.8-20.7c0.9-4.3,2.2-7,1.9-8.4c-0.1-1.4-2.3-7.8-2.4-13.2
		C499.9,275.3,500.4,271.3,500.4,271.3z"/>
</g>
<g>
	<path class="st0" d="M91,300.3c-11.8,8.2-12.6,14.8,0,21.6c13.9,7.4,24.1,4.1,34.9-2.1c10.8-6.1,10.9-14.5-4.8-20.7
		C108.2,294,97.7,295.8,91,300.3L91,300.3z"/>
	<path class="st2" d="M86.6,309c-1,1-1.1,3.3,1,5c2.1,1.7,9.2-0.3,11.8-0.9c3.7-0.9,12.1-1.4,14.1-5c0.9-1.6,0.9-6.4-5.1-6.4
		C103.2,301.6,86.6,309,86.6,309z"/>
	<path class="st10" d="M93.7,311.3c0,0,5-1,8.5-1.6c3.4-0.6,9.7-1.6,10.4-3.1c0.9-1.7,0.6-5.5-4.8-5.7c-4.4,0-5.1-0.6-8.1-0.7
		c0,0.9,2.7,1.1,1,4C98.8,307,93.7,311.3,93.7,311.3z"/>
	<path class="st2" d="M101,315.7c-1,1-2.3,3.8-0.1,5.5c2.1,1.7,9.9,0.4,14.6-1.3c2.6-1,9.1-1.6,10.8-4.4c1-1.6,1.6-6-3.5-6.4
		C111.9,308.3,101,315.7,101,315.7z"/>
	<path class="st4" d="M85.2,130c-3,1.7-5.1,4.4-4.7,11.6c0.4,7.1-1,11.4-2.6,17.6s-2.6,11.5-1.3,15c1.4,3.7,6.7,13.3,7.9,17.6
		c1.3,4.3,2.3,10.1,2.3,10.1l5.4-5.7c0,0-1.6-13.1-2.8-17.5c-1.3-4.4-3.3-9.5-3.3-9.5s2.4-5.8,3.3-10.5
		C90.5,154.1,85.2,130,85.2,130z"/>
	<path class="st4" d="M94.9,114.4c0,0,2,7.7,0.4,9.2s-6.5,5.3-8.4,5.7c-1.8,0.4-5.3,3.8-5,7.1c0.3,3.3,2.3,8.1,2.8,11.9
		c0.6,3.7,2.6,7.1,4.5,13.3s5.7,11.5,2.8,16.5c-2.8,5-9.8,13.6-8.4,23.3c1.4,9.7,5.5,22.3,6.1,34.4c0.6,12.1,1.6,12.6-0.9,20.2
		c-2.6,7.5-2.8,15.3-1.6,27s3.3,17.5,1.1,20.4c-2.1,3-3,6.4-0.9,7.8c1.3,0.9,3.4,1,6.1,0.3c3-3.1,9.7-7.9,6.2-10.8
		c-0.7-0.6-0.9-0.6-1.4-2c-0.9-2.3-1.3-8.8-0.3-13.3c1-4.5,1.8-8.9,2.4-16.6c0.6-7.7,0.9-9.1,1.4-10.4c0.6-1.3,2.3-9.2,2.3-9.2
		s-0.6,7.5-0.1,10.4c0.3,3,0.6,4.5-0.4,8.8c-0.9,4.3-3.4,10.2-3,14.9c0.6,4.7,3.3,18.7,3,22.1c-0.3,3.4-3,7.5-3.4,9.1
		s-1.1,5.3,3.4,5.3s19.4-2.7,20-5.7c0.6-3-7.7-3.7-9.5-4.3c-1.8-0.6-3.5-1.8-2.8-7.4c0.7-5.5,5.8-25.6,6.2-27.5
		c0.4-2,0.9-8.4,0.9-12.4c0-4,6.4-30.4,7.2-35.9c0.9-5.5,0.4-19.9,0.1-26.8c-0.1-7-2.8-15.8-2.8-18.9s4.4-25.6,3.7-30
		c-0.7-4.4-1-9.9-5-12.4c-4-2.6-10.4-7.1-11.1-10.2c-0.7-3.1-0.3-10.2,0.7-11.5s5.7-0.6,6.5-3.5s4-14.3-1.8-24.1
		c-5.8-9.8-23.8-7.4-27.4,2.6C85.6,101.6,90,112.4,94.9,114.4z"/>
	<path class="st7" d="M122.8,114.4c-3,4.4-14.1,6.5-22.9,5.7s-19.4-9.5-15.5-26.5s22.9-15.3,29.4-11.2c5.4,3.4,10.6,8.5,8.5,15.8
		C120.1,105.7,116.9,112.8,122.8,114.4z"/>
	<path class="st10" d="M107.3,319.4c0,0,4-0.4,8.2-1.4c3.7-0.9,9.2-2,10.1-4.7c1.1-3.3-3.1-4.5-6.5-4.7c-2.7,0-5.1-0.1-6.7-0.3
		c0,0.4,2.1,0.4-0.1,4.8C110.5,317.5,107.3,319.4,107.3,319.4L107.3,319.4z"/>
	<path class="st3" d="M125.5,180c0.1,6.2,15.8,37.3,12.6,45.4c-0.9,2.3-3.8,4.4-12.5,6.8c-8.7,2.4-19.2,2.8-24.8-3
		s-19.6-7.2-22.4-8.8s-0.9-15.5,1.4-23.6c2.1-7.9,10.9-19.7,10.9-19.7c1.4-3.8-0.6-12.2-2.7-17s-4.8-16.3-5.1-17.5
		c-0.3-1.1-2.3-6.4-1-9.2c1.3-2.7,4.7-4.7,6.1-5.3c1.4-0.6,4.7-3,4.7-3s0.4,4.3,6.8,5.7c6.4,1.6,12.5-1.7,12.5-1.7s4.7,5.4,7.5,7
		s8.1,6.1,7.8,15.9C127.2,162.1,125.4,173.7,125.5,180z"/>
	<g>
		<path class="st4" d="M112.6,147.9c-0.7-5.4,6.8-12.4,10.8-8.7c4,3.7,4,7.1,3.4,10.5c-0.6,3.4-1.8,5-1.3,7.9
			c0.6,3,1.3,12.8,1.3,17.5c0,4.7-0.3,7.2,0.7,8.5c1,1.3,4.5,9.8,5.4,14.2c0.9,4.4,3.3,9.9,5,12.6c1.6,2.6,2.7,3.5,2.4,7.1
			s-1.8,8.4-5,9.4c-3.5,1.1-4.7-0.7-4.7-1.3s1.8-1.4,1.4-3.4c-0.4-2-2.3-4.3-2.1-6.7c0.1-2.4,0.6-3,0.6-3s-7.5-14.5-9.9-18.2
			c-2.4-3.7-4-8.1-4-10.9c0-2.8-0.6-15.3-1.6-21.6S113.2,153,112.6,147.9L112.6,147.9z"/>
		<path class="st4" d="M115.2,309.1c0,0.3,0.4,1.4,0,3.1c-0.4,1.8-2,3.5-2,3.5s8.1-0.1,7.5-5C120.6,309.1,116.3,309.1,115.2,309.1z"
			/>
		<path class="st4" d="M102.5,301.2c0.3,0.4,0.7,0.6,0.1,2.8c-0.4,1.8-1.8,3.1-1.8,3.1s7.2-0.4,7.2-3.3
			C107.9,301.8,103.5,301.2,102.5,301.2z"/>
	</g>
</g>
<g>
	<path class="st0" d="M359.9,570.9c-14.2,6.8-34.8-5.1-61.9-15.8c-20.1-7.9-75.6-32-67.9-38.2c7.4-5.9,50.9,12.4,79.1,22.6
		C338.5,550,371.8,565.3,359.9,570.9z"/>
	<path class="st4" d="M293.1,389c1.8-1,6.1-4.9,5.9-7.6c-0.2-2.8-0.8-4.8-2.1-5.3c-1.3-0.3-3.1,0-4.3-0.5c-1.6-0.7-8.1-8.1-8.2-17.3
		c-0.2-9.2-0.8-19.6,11.4-21.9c12.2-2.3,20.3,3,22.1,12.2c2,10.2-2.5,14.3-3.5,18.1c-1.3,5.3-0.3,9.7,2.8,11.2
		c3,1.3,8.4,0.8,8.4,0.8s-6.6,7.9-12.7,9.6C306.4,390.1,293.1,389,293.1,389z"/>
	<path class="st7" d="M291.1,366.9c0,0-2.5-6.3,0.5-6.3s7.6,10,12.9,11.2c5.3,1.2,9.7-0.5,11.5-4.4c1.3-3,6.1-16,1.6-24.2
		c-8.1-15-27.3-9.6-32.8-1.8c-4,5.6-3.8,14.5-2.1,15.2c1.6,0.7,1.2-3.6,2.8-2.5S288,367.1,291.1,366.9z"/>
	<path class="st4" d="M346.4,390c0,0,1.3-6.1,2.5-9.2c1.2-3.1,2.8-7.9,1.8-10.5c-1-2.6-3.3-5.1-3.3-6.4c0-1.3-3.3-7.7,0.8-8.6
		s5.6-0.2,7.1,4s1.6,11.7,1.5,16.5c-0.2,4.8,2.5,12.4,0.2,19.1c-2.3,6.8-4,8.7-5.9,9.1c-2,0.3-6.1-3-10.7-6.8
		C335.9,393.4,346.4,390,346.4,390z"/>
	<path class="st2" d="M249.2,448c-1.8,0.3-2.8,1.2-5.3-0.8c-2.5-2-3.6-4.8-7.1-8.1c-3.5-3.5-8.9-9.1-8.9-14.5
		c0.2-6.8,6.4-9.9,10.5-6.8c3.6,2.8,2.8,6.4,5.9,9.6c4.8,4.8,7.4,5.4,7.4,5.4L249.2,448z"/>
	<path class="st1" d="M248.2,444c0,0-2.6-0.8-8.2-6.1c-5.6-5.3-9.4-8.1-9.9-14.7s6.8-7.7,9.4-4c2.6,3.8,2,5.3,6.1,9.1
		C249.4,432.2,248.2,444,248.2,444z"/>
	<path class="st8" d="M303.3,446.7c0,0-17.6-9.6-18.9-9.7c-1.3-0.2-8.9,3.5-15.5,6.6c-6.6,3.1-18.3,6.1-20.9,4.9
		c-2.5-1.2-7.1-8.1-5.8-16.5s5.9-7.1,10-7.7c4.1-0.7,13.3-4,17.8-5.9c4.3-2,10.7-5.9,15.2-4.9c4.4,1,26.4,9.1,26.4,9.1L303.3,446.7z
		"/>
	<path class="st0" d="M303.3,446.7c0,0-17.6-9.6-18.9-9.7c-1.3-0.2-8.9,3.5-15.5,6.6c-6.6,3.1-18.3,6.1-20.9,4.9
		c-2.5-1.2-7.1-8.1-5.8-16.5s5.9-7.1,10-7.7c4.1-0.7,13.3-4,17.8-5.9c4.3-2,10.7-5.9,15.2-4.9c4.4,1,26.4,9.1,26.4,9.1L303.3,446.7z
		"/>
	<path class="st8" d="M354.2,538.6c1,4.6,1.5,16.1-4.3,18.9c-5.8,2.8-9.7-0.3-13-5.4c-3.3-5.1-21.7-25.2-24.7-29
		c-3-3.8-10-8.9-11.7-14.3c-1.8-5.4-4.1-19.4-3.6-33.6c0.5-14.2,2.8-32.6,2.8-32.6l38.1,7.2c0,0,0.7,2.6-4,7.9
		c-4.6,5.1-10.5,15.8-11.4,23.1c-0.8,7.2-1.8,18.1-1.3,20.1c0.3,2,15.3,13.7,21.4,21.4C348.6,529.9,353,532.5,354.2,538.6z"/>
	<path class="st11" d="M264.1,391.8C264.2,391.8,264.2,391.8,264.1,391.8c0,0,15.8-2.8,21.1-4c5.3-1.2,6.4-0.7,9.9-0.7
		c3.5-0.2,10-1.3,15.5-3c5.3-1.6,9.7-5.6,9.7-5.6c2,0,3.8-3.3,9.7-2.8c5.9,0.3,15.7,10.4,17,11.7c1.3,1.3,2.5,4.3,1,8.1
		c-1.5,3.8-5.9,6.4-8.1,6.4c-2.1,0-4.4-2.5-4.4-2.5s0,6.4,0.3,14.8c0.3,8.2,2.6,26.7,3.1,31s0.5,10.2-12.7,16.1
		c-13.7,6.1-25.4-2.6-27.7-6.9c-2.3-4.3-0.5-8.7,0.3-10.4c0.8-1.6-1.3-7.4-2.8-12.2c-1.5-4.8-6.1-21.1-8.6-22.7
		c-2.5-1.6-21.6-1.2-21.6-1.3c-1.8-0.2-2.5-2.5-3.1-7.9C262.3,394.6,264.1,391.8,264.1,391.8L264.1,391.8z"/>
	<path class="st1" d="M355,539.2c0,0-1.2-1.3-4.1-1.8s-5.3,4.1-5.6,7.2c-0.7,4.4-0.8,8.4-0.3,10.9c0.8,4,2.5,9.7,3.6,11.4
		c1.3,1.6,4,0.5,4,0.5L355,539.2z"/>
	<path class="st2" d="M353.2,538.3c-3.5,0.2-5.1,3-5.6,7.7c-0.5,4.8-1.3,17.5,1.2,21.6s11.9,1.8,10.2-6.1c-1-5.3-1.5-7.1-1.5-11.9
		C357.5,545.8,357.6,538.1,353.2,538.3L353.2,538.3z"/>
	<path class="st4" d="M212.5,375.3c2.3-1.3,10.5,1.3,12.5,2.1c2,0.8,3.3,2.8,5.1,5.1c1.8,2.3,7.9,4.1,13.8,5.6
		c5.9,1.6,9.9,6.1,10.2,6.3c0.3,0,8.9-0.5,11.9-0.8c1,1.2,1.8,3,1.8,5.3c0,2.1-0.5,4.3-0.8,5.9c-1.2,0-2.5,0.2-3.8,0.2
		c-5.8,0.3-12.9-0.2-14.2-0.2c-1.3-0.2-6.9-4.3-10.2-6.1c-3.5-2-13.7-8.6-13.7-8.6s-9.6-0.7-13.3-4S210.2,376.8,212.5,375.3
		L212.5,375.3z"/>
</g>
</svg>
