<svg id="レイヤー_1" data-name="レイヤー 1" xmlns="http://www.w3.org/2000/svg" viewBox="0 0 595.28 595.28"><defs><style>.cls-1{fill:#666560;}.cls-2{fill:#fafaf8;}.cls-3{fill:#73b06d;}</style></defs><path class="cls-1" d="M365.38,424.27H185.13A16.19,16.19,0,0,1,169,408.1V187.18A16.2,16.2,0,0,1,185.13,171H365.38a16.19,16.19,0,0,1,16.17,16.18V408.1A16.18,16.18,0,0,1,365.38,424.27ZM185.13,175A12.19,12.19,0,0,0,173,187.18V408.1a12.18,12.18,0,0,0,12.17,12.17H365.38a12.18,12.18,0,0,0,12.17-12.17V187.18A12.19,12.19,0,0,0,365.38,175Z"/><path class="cls-2" d="M351.82,378.1l5.47-6.51,77.55-92.22a8.53,8.53,0,0,0-1-12l-27.24-22.91a8.53,8.53,0,0,0-12,1L317,337.74l-5.48,6.5-1.93,8.29-8.47,36.27A6.26,6.26,0,0,0,309.7,396L344,381.42Z"/><path class="cls-1" d="M307.25,398.49a8.27,8.27,0,0,1-8-10.14l10.5-45,5.78-6.87,77.56-92.22a10.52,10.52,0,0,1,14.8-1.28l27.23,22.91a10.51,10.51,0,0,1,1.28,14.8L353,379.75l-42.56,18.07A8.13,8.13,0,0,1,307.25,398.49Zm6.15-53.32-10.29,44.08a4.26,4.26,0,0,0,5.81,4.89l41.67-17.7,82.72-98.36a6.51,6.51,0,0,0-.79-9.16L405.28,246a6.51,6.51,0,0,0-9.16.8Z"/><path class="cls-3" d="M309.11,394.4,322.58,390,305,374.65l-2.55,14A5.14,5.14,0,0,0,309.11,394.4Z"/><path class="cls-3" d="M304.84,213.59H201.46a2,2,0,0,1,0-4H304.84a2,2,0,0,1,0,4Z"/><path class="cls-3" d="M287.06,243.86h-85.6a2,2,0,0,1,0-4h85.6a2,2,0,1,1,0,4Z"/><path class="cls-3" d="M299.71,274.12H201.46a2,2,0,0,1,0-4h98.25a2,2,0,0,1,0,4Z"/><path class="cls-3" d="M299.71,304.39H201.46a2,2,0,0,1,0-4h98.25a2,2,0,0,1,0,4Z"/><path class="cls-1" d="M350.15,379.2l-5.9-9a5.56,5.56,0,0,0-2.27-2l-9.31-4.42a9.59,9.59,0,0,1-3.78-3.22l-5.47-7.94a5.66,5.66,0,0,0-2.29-1.91l-10.39-4.71,1.65-3.65,10.39,4.71a9.66,9.66,0,0,1,3.93,3.29l5.47,7.94a5.71,5.71,0,0,0,2.2,1.88l9.32,4.42a9.57,9.57,0,0,1,3.89,3.38l5.9,9Z"/><path class="cls-1" d="M306.57,398.49a8.28,8.28,0,0,1-8-10.14l10.51-45,5.78-6.87,77.55-92.22a10.54,10.54,0,0,1,14.8-1.28l27.24,22.91a10.53,10.53,0,0,1,1.28,14.8l-83.34,99.09-42.55,18.07A8.21,8.21,0,0,1,306.57,398.49Zm6.16-53.32-10.29,44.08a4.25,4.25,0,0,0,5.81,4.89l41.67-17.7,82.72-98.36a6.51,6.51,0,0,0-.8-9.16L404.61,246a6.53,6.53,0,0,0-4.75-1.49,6.45,6.45,0,0,0-4.42,2.29Z"/></svg>