<svg id="レイヤー_1" data-name="レイヤー 1" xmlns="http://www.w3.org/2000/svg" viewBox="0 0 595.28 595.28"><defs><style>.cls-1{fill:none;}.cls-2{fill:#666560;}.cls-3{fill:#73b06d;}</style></defs><rect class="cls-1" x="150.32" y="167.81" width="294.64" height="214.58" rx="14.17"/><path class="cls-2" d="M430.78,165.81H164.49A16.18,16.18,0,0,0,148.32,182V368.22a16.18,16.18,0,0,0,16.17,16.17h95.78v15.88h-29A17.08,17.08,0,0,0,217.15,409l-5.05,10c-1.32,2.63-1.37,5.29-.12,7.32s3.64,3.18,6.58,3.18H376.72c2.93,0,5.33-1.16,6.58-3.18s1.2-4.69-.12-7.32l-5.05-10A17.09,17.09,0,0,0,364,400.27H335V384.39h95.77A16.19,16.19,0,0,0,447,368.22V182A16.19,16.19,0,0,0,430.78,165.81Zm-56.22,245,5,10a2.88,2.88,0,0,1-2.88,4.7H218.56a2.89,2.89,0,0,1-2.89-4.7l5.05-10a13.13,13.13,0,0,1,10.54-6.49H364A13.16,13.16,0,0,1,374.56,410.76ZM331,385v15.22H264.27V385ZM164.49,169.81H430.78A12.19,12.19,0,0,1,443,182V348.86H152.32V182A12.18,12.18,0,0,1,164.49,169.81ZM430.78,380.39H164.49a12.18,12.18,0,0,1-12.17-12.17V352.86H443v15.36A12.19,12.19,0,0,1,430.78,380.39Z"/><path class="cls-3" d="M314,222.54H277.74l-3.67-17h43.61Zm-33.05-4h29.82l1.94-9H279Z"/><path class="cls-3" d="M303.36,293.06h-15l-18-52L283,218.62h25.67l12.68,22.45Zm-12.12-4h9.27L317,241.46l-10.65-18.84h-21l-10.65,18.84Z"/><path class="cls-3" d="M295.87,250.79a8.64,8.64,0,1,1,8.64-8.64A8.65,8.65,0,0,1,295.87,250.79Zm0-13.28a4.64,4.64,0,1,0,4.64,4.64A4.64,4.64,0,0,0,295.87,237.51Z"/><rect class="cls-3" x="293.87" y="248.77" width="4" height="42.29"/><path class="cls-3" d="M295.87,312.44a49.23,49.23,0,0,1-49.17-49.17h3a46.17,46.17,0,0,0,92.34,0h3A49.23,49.23,0,0,1,295.87,312.44Z"/><path class="cls-3" d="M248.68,265.49a6.94,6.94,0,1,1,6.94-6.93A6.95,6.95,0,0,1,248.68,265.49Zm0-9.87a2.94,2.94,0,1,0,2.94,2.94A2.94,2.94,0,0,0,248.68,255.62Z"/><path class="cls-3" d="M348.38,317.88a6.94,6.94,0,1,1,6.93-6.94A7,7,0,0,1,348.38,317.88Zm0-9.88a2.94,2.94,0,1,0,2.93,2.94A2.94,2.94,0,0,0,348.38,308Z"/><path class="cls-3" d="M243.74,317.88a6.94,6.94,0,1,1,6.94-6.94A6.95,6.95,0,0,1,243.74,317.88Zm0-9.88a2.94,2.94,0,1,0,2.94,2.94A2.94,2.94,0,0,0,243.74,308Z"/><path class="cls-3" d="M343.44,265.49a6.94,6.94,0,1,1,6.94-6.93A6.94,6.94,0,0,1,343.44,265.49Zm0-9.87a2.94,2.94,0,1,0,2.94,2.94A2.94,2.94,0,0,0,343.44,255.62Z"/><rect class="cls-3" x="248.39" y="309.44" width="94.97" height="3"/><circle class="cls-3" cx="295.87" cy="310.94" r="4.94"/><path class="cls-3" d="M295.87,317.88a6.94,6.94,0,1,1,6.94-6.94A7,7,0,0,1,295.87,317.88Zm0-9.88a2.94,2.94,0,1,0,2.94,2.94A2.94,2.94,0,0,0,295.87,308Z"/></svg>