<svg id="レイヤー_1" data-name="レイヤー 1" xmlns="http://www.w3.org/2000/svg" viewBox="0 0 595.28 595.28"><defs><style>.cls-1{fill:#666560;}.cls-2{fill:#73b06d;}</style></defs><path class="cls-1" d="M430.78,165.81H164.49A16.18,16.18,0,0,0,148.32,182V368.22a16.18,16.18,0,0,0,16.17,16.17h95.78v15.88h-29A17.08,17.08,0,0,0,217.15,409l-5.05,10c-1.32,2.63-1.37,5.29-.12,7.32s3.64,3.18,6.58,3.18H376.72c2.93,0,5.34-1.16,6.58-3.18s1.2-4.69-.12-7.32l-5.05-10A17.09,17.09,0,0,0,364,400.27H335V384.39h95.77A16.19,16.19,0,0,0,447,368.22V182A16.19,16.19,0,0,0,430.78,165.81Zm-56.22,245,5.05,10a2.89,2.89,0,0,1-2.89,4.7H218.56a2.89,2.89,0,0,1-2.89-4.7l5.05-10a13.13,13.13,0,0,1,10.54-6.49H364A13.16,13.16,0,0,1,374.56,410.76ZM331,385v15.22H264.27V385ZM164.49,169.81H430.78A12.19,12.19,0,0,1,443,182V348.86H152.32V182A12.18,12.18,0,0,1,164.49,169.81ZM430.78,380.39H164.49a12.18,12.18,0,0,1-12.17-12.17V352.86H443v15.36A12.19,12.19,0,0,1,430.78,380.39Z"/><path class="cls-2" d="M253.58,292.8a3,3,0,0,1-2.46-1.27L232.44,265l18.68-26.57a3,3,0,0,1,4.91,3.45L239.77,265,256,288.08a3,3,0,0,1-.73,4.18A2.94,2.94,0,0,1,253.58,292.8Z"/><path class="cls-2" d="M343.59,292.8a3,3,0,0,1-2.45-4.72L357.4,265l-16.26-23.12a3,3,0,0,1,4.91-3.45L364.74,265l-18.69,26.58A3,3,0,0,1,343.59,292.8Z"/><path class="cls-2" d="M282.11,305.87a3.15,3.15,0,0,1-1.16-.23,3,3,0,0,1-1.61-3.93l33-78.61a3,3,0,0,1,5.53,2.32L284.88,304A3,3,0,0,1,282.11,305.87Z"/></svg>