<svg id="レイヤー_1" data-name="レイヤー 1" xmlns="http://www.w3.org/2000/svg" viewBox="0 0 595.28 595.28"><defs><style>.cls-1{fill:#6b6b6b;}.cls-2{fill:#828282;}.cls-3{fill:#bababa;}</style></defs><path class="cls-1" d="M224.16,235c-6-2.37-12.28-4.35-18.11-7.17-26.81-12.94-41.05-42.89-34.66-72.4,6.25-28.85,32.61-50.51,62.32-50.77,22.14-.19,44.28.1,66.43.17q-.06,64.88-.13,129.76c-4.06,0-8.12.13-12.19.15Q256,234.89,224.16,235Z"/><path class="cls-2" d="M224.16,235q31.83-.13,63.66-.26c4.07,0,8.13-.1,12.19-.15l.25.47c0,14.95-.08,29.9,0,44.85,0,2.54-1.07,5.35,1,7.66-2,7.71-.84,15.54-.9,23.33q-.2,27-.4,54l-73.57.12c-11.81-3.17-23.42-6.75-32.88-15.07-20.11-17.7-28.11-39.83-21.61-65.74s23.82-41.83,49.9-48.11A13.42,13.42,0,0,0,224.16,235Z"/><path class="cls-2" d="M300,234.59q.08-64.89.13-129.76c23.26,0,46.54-.7,69.78,0,31,1,57.9,27.76,60.49,59.06a65.63,65.63,0,0,1-51,69.42c-1.73.38-3.42,1-5.12,1.47l-17.69.18-56.3.09Z"/><path class="cls-1" d="M226.44,365l73.57-.12c.05,23,.63,46.07,0,69.08-.75,27.58-21.19,51.73-48.71,59-26.9,7.14-56.38-4.49-71.38-28.15a65.46,65.46,0,0,1,4.5-75.91C195.41,375.5,209.83,368.42,226.44,365Z"/><path class="cls-3" d="M356.56,235l17.69-.18c15.71,3.6,29.73,10,40.53,22.62,16.75,19.52,20.63,47.22,9.42,70.23-11.95,24.54-36,38.69-63.14,37.18-25.14-1.39-48.29-18.74-56.81-42.6-1.34-3.75-2.56-7.55-3.84-11.32.06-7.79-1.07-15.62.9-23.33,1.35-4.3,2.34-8.75,4.1-12.87C315.09,252.06,332.88,239.7,356.56,235Z"/></svg>