<svg id="レイヤー_1" data-name="レイヤー 1" xmlns="http://www.w3.org/2000/svg" viewBox="0 0 595.28 595.28"><defs><style>.cls-1{fill:#bababa;}.cls-2{fill:#828282;}.cls-3{fill:#6b6b6b;}.cls-4{fill:#ecedec;}</style></defs><circle class="cls-1" cx="294.01" cy="302.14" r="187.91" transform="translate(-127.53 296.39) rotate(-45)"/><circle class="cls-2" cx="320.78" cy="286.44" r="150.12" transform="translate(-108.59 310.72) rotate(-45)"/><circle class="cls-3" cx="341.79" cy="259.8" r="106.35" transform="translate(-83.6 317.78) rotate(-45)"/><path class="cls-4" d="M484.59,236.21c-9.34-21.05-50.68-59.31-54.31,15.93C425.16,358.47,367.45,459.9,291.55,459.9c-82.51,0-155.45-57.08-148.39-134.45C158.93,152.75,379.34,182,379.34,152.32c0-40.12-73.89-49.68-80.53-49.68a193.76,193.76,0,0,0-89.24,21.62,146.6,146.6,0,0,0-32.67,21.28A194.75,194.75,0,0,0,128.65,392a167.5,167.5,0,0,0,66.09,69.9A193.87,193.87,0,0,0,298.81,492c107.53,0,194.7-87.17,194.7-194.7C493.51,291.84,493.51,256.32,484.59,236.21ZM235.34,479.14A93.12,93.12,0,0,1,207,468.4,185.35,185.35,0,0,0,235.34,479.14Z"/></svg>