<svg id="レイヤー_1" data-name="レイヤー 1" xmlns="http://www.w3.org/2000/svg" viewBox="0 0 595.28 595.28"><defs><style>.cls-1{fill:#6b6b6b;}.cls-2{fill:#bababa;}.cls-3{fill:#fff;}.cls-4{fill:#fdfefd;}.cls-5{fill:#ecedec;}</style></defs><path class="cls-1" d="M299.78,114.92q81,0,161.93-.07c4.08,0,5.77.23,5.29,5.4-5.3,57-10.2,114-15.29,171C447,344.52,442.07,397.76,437.42,451c-.3,3.52-1.69,4.62-4.73,5.46Q369,474,305.36,491.8a20.43,20.43,0,0,1-11.52,0Q230.47,474,167,456.51c-3-.82-4.51-1.82-4.81-5.39-3-36.11-6.33-72.21-9.57-108.3Q147.43,285,142.21,227.18q-4.16-46.56-8.23-93.12c-.45-5.06-.54-10.19-1.42-15.18-.65-3.7.79-4,3.81-4,12.79.11,25.59,0,38.39,0Zm-.59,195.57c.88,22.71-.83,45.46,1.06,68.16l-.86.55c-13.82-3.45-27.6-7.05-41.48-10.27-4.08-.95-5.93-2.44-6-7-.2-8.33-1.33-16.64-1.86-25-.17-2.71-1.06-3.64-3.83-3.61-12.29.13-24.58.1-36.87,0-2.64,0-3.32.74-3,3.42.72,6,1,12.08,1.53,18.12q1.65,20.08,3.33,40.16c.2,2.26.33,4.28,3.33,5.15,28.31,8.14,56.58,16.44,84.86,24.69l.88.49c0,12.79.19,25.59-.09,38.39-.09,4.18,1.31,4.58,4.75,3.58,9.26-2.69,18.56-5.24,27.85-7.81,25.67-7.1,51.33-14.24,77-21.22,4.09-1.11,5.75-3,5.86-7.46.22-9.13,1.21-18.24,2-27.35,1.17-12.83,2.55-25.64,3.7-38.47s2-25.38,3.15-38.06c1.2-13.81,2.54-27.61,3.79-41.42,1.06-11.87,2-23.74,3.12-35.6,1.22-13.49,2.52-27,3.75-40.44.83-9.1,1.56-18.21,2.37-27.31,1.17-13.16,2.33-26.33,3.58-39.48.3-3.22-.88-4.25-4.13-4.24q-66.19.13-132.38,0c-3.5,0-4.47,1.13-4.43,4.52.16,13.12.07,26.25.07,39.37l-.92.53c-35.08-.07-70.17-.08-105.25-.26-3.93,0-3.15,2.23-2.88,4.46,1.33,11.07,2.86,22.11,4,33.2.38,3.83,1.89,4.7,5.52,4.68,31.48-.14,63-.09,94.44,0,1.82,0,4-.9,5.4,1.24l-1.37,1.56a5.83,5.83,0,0,0-1,.21q-47.85,19.86-95.71,39.69c-2.61,1.07-2.76,2.72-2.57,5,1,11.42,2,22.84,2.8,34.27.19,2.68,1.27,3.21,3.64,3.19,8.84-.08,17.69,0,26.53,0q33.17,0,66.32-.06Z"/><path class="cls-2" d="M300.26,182.37c0-13.12.09-26.25-.07-39.37,0-3.39.93-4.53,4.43-4.52q66.19.15,132.38,0c3.25,0,4.43,1,4.13,4.24-1.25,13.15-2.41,26.32-3.58,39.48-.81,9.1-1.54,18.21-2.37,27.31C434,223,432.65,236.47,431.43,250c-1.08,11.86-2.06,23.73-3.12,35.6-1.25,13.81-2.59,27.61-3.79,41.42-1.11,12.68-2,25.38-3.15,38.06s-2.53,25.64-3.7,38.47c-.82,9.11-1.81,18.22-2,27.35-.11,4.5-1.77,6.35-5.86,7.46-25.7,7-51.36,14.12-77,21.22-9.29,2.57-18.59,5.12-27.85,7.81-3.44,1-4.84.6-4.75-3.58.28-12.8.09-25.6.09-38.39,27.49-8.06,54.95-16.18,82.48-24.1,3.7-1.06,5.1-2.58,5.37-6.64,1.06-16.17,2.65-32.32,4.08-48.47,2.14-24.31,4.23-48.62,6.54-72.91.37-3.92-.95-4.72-4.53-4.61-7.53.25-15.07.09-22.61.07l-70.28-.2a1.67,1.67,0,0,0,.33-.8,8.27,8.27,0,0,0,1.43-.33q48.36-20.64,96.74-41.25c2.37-1,2.94-2.54,3.16-4.84,1.11-11.4,2.29-22.8,3.61-34.18.39-3.33-.35-4.58-4-4.55-22,.16-43.93.11-65.9.07C324.51,182.61,312.39,182.46,300.26,182.37Z"/><path class="cls-3" d="M301.29,268.52l70.28.2c7.54,0,15.08.18,22.61-.07,3.58-.11,4.9.69,4.53,4.61-2.31,24.29-4.4,48.6-6.54,72.91-1.43,16.15-3,32.3-4.08,48.47-.27,4.06-1.67,5.58-5.37,6.64-27.53,7.92-55,16-82.48,24.1l-.88-.49,0-45.69.86-.55c15.12-4.16,30.23-8.35,45.37-12.45a3.22,3.22,0,0,0,2.72-3.43q1.4-24.5,2.91-49c.14-2.35-.64-3.17-3-3.17-16.35,0-32.7-.08-49.06-.13l0-.45c.05-12,.12-23.89.11-35.84C299.32,272,299.28,269.94,301.29,268.52Z"/><path class="cls-4" d="M300.26,182.37c12.13.09,24.25.24,36.37.27,22,0,43.94.09,65.9-.07,3.68,0,4.42,1.22,4,4.55-1.32,11.38-2.5,22.78-3.61,34.18-.22,2.3-.79,3.83-3.16,4.84q-48.41,20.54-96.74,41.25a8.27,8.27,0,0,1-1.43.33c-2.87-.51-2.24-2.78-2.26-4.64q-.14-17.67-.2-35.34l1.37-1.56c1.13-.21,2.64.64,3.52-1.87-6,1.16-4.67-3-4.68-6.08-.05-11.78,0-23.56,0-35.33Z"/><path class="cls-5" d="M299.16,227.74q.09,17.67.2,35.34c0,1.86-.61,4.13,2.26,4.64a1.67,1.67,0,0,1-.33.8c-2,1.42-2,3.5-2,5.68,0,11.95-.06,23.89-.11,35.84q-33.15,0-66.32.06c-8.84,0-17.69-.09-26.53,0-2.37,0-3.45-.51-3.64-3.19-.79-11.43-1.81-22.85-2.8-34.27-.19-2.27,0-3.92,2.57-5Q250.39,247.9,298.2,228A5.83,5.83,0,0,1,299.16,227.74Z"/><path class="cls-5" d="M299.39,379.2l0,45.69c-28.28-8.25-56.55-16.55-84.86-24.69-3-.87-3.13-2.89-3.33-5.15q-1.69-20.08-3.33-40.16c-.5-6-.81-12.1-1.53-18.12-.32-2.68.36-3.44,3-3.42,12.29.1,24.58.13,36.87,0,2.77,0,3.66.9,3.83,3.61.53,8.34,1.66,16.65,1.86,25,.11,4.55,2,6,6,7C271.79,372.15,285.57,375.75,299.39,379.2Z"/><path class="cls-5" d="M299.34,182.9c0,11.77,0,23.55,0,35.33,0,3.12-1.33,7.24,4.68,6.08-.88,2.51-2.39,1.66-3.52,1.87-1.4-2.14-3.58-1.23-5.4-1.24-31.48-.05-63-.1-94.44,0-3.63,0-5.14-.85-5.52-4.68-1.1-11.09-2.63-22.13-4-33.2-.27-2.23-1.05-4.47,2.88-4.46C229.17,182.82,264.26,182.83,299.34,182.9Z"/><path class="cls-2" d="M299.19,310.49c16.36.05,32.71.14,49.06.13,2.36,0,3.14.82,3,3.17q-1.54,24.49-2.91,49a3.22,3.22,0,0,1-2.72,3.43c-15.14,4.1-30.25,8.29-45.37,12.45C298.36,356,300.07,333.2,299.19,310.49Z"/></svg>