<svg id="レイヤー_1" data-name="レイヤー 1" xmlns="http://www.w3.org/2000/svg" viewBox="0 0 595.28 595.28"><defs><style>.cls-1{fill:#6b6b6b;}.cls-2{fill:#fff;}</style></defs><circle class="cls-1" cx="297.44" cy="298.34" r="195.28"/><path class="cls-2" d="M297.28,484.33c-103.23,0-185.69-83.57-185.67-188.19,0-100.22,84.55-184.28,185.7-183.8,107.6.52,187.45,89.58,186,190.18C481.8,401.16,397.94,484.34,297.28,484.33Zm-42.61-85.2,2.05-.27Q274.11,346.92,291.5,295c1.16-3.45.09-6.41-1.06-9.56-6.39-17.44-13.36-34.72-18.74-52.48-3.17-10.42-8.06-15.68-19.3-14.56-4.64.46-9.63-.87-9.32-7.06.33-6.68,5.21-6.64,10.49-6.33,18.56,1.09,37.1,2.89,55.74,1.32,9.26-.78,18.57-1,27.85-1.57,4.66-.29,7.82,1.78,8.28,6.27.43,4.23-2.61,6.52-6.59,7.1a60.48,60.48,0,0,1-9.87.73c-7-.14-9.08,1.7-6.47,9.29,18.8,54.68,37.13,109.52,55.61,164.32.7,2.06.5,4.7,3.49,5.63,7.52-25.05,14.24-50.28,22.7-74.9C415,292.1,411,263.71,392.6,236.83c-5.24-7.68-9.54-16-11.65-25.15-4-17.67,7.38-34.05,25.36-36.52,1-.13,2.55.43,2.49-1.49C326,98.29,201.24,130.37,158.74,206.93c2.41,0,4.45.08,6.48,0,15.28-.68,30.56-1.33,45.83-2.13,4.47-.24,7.95.94,8.57,5.75s-2.43,7.15-6.85,7.7a64.2,64.2,0,0,1-9.88.63c-6.5-.17-8.83,1.22-6.19,8.6,9.79,27.37,18.89,55,28.16,82.55Q239.84,354.54,254.67,399.13Zm45.53-86.92c-16.77,48.83-32.62,95.3-48.78,141.66-1.86,5.34.55,6.06,4.52,7a171.66,171.66,0,0,0,90.62-2.12c5.54-1.64,6.07-3.58,4.13-8.66-7.59-19.87-14.71-39.91-22-59.88Zm-155-80.94c-33.31,61.68-15.42,171.37,79.45,218C198,376.13,171.77,304.23,145.18,231.27Zm299.07-9.73c2.61,22.88-1.5,44-8.66,64.67Q410.15,359.62,384.65,433c-1,2.81-3.19,5.58-1.93,9.13C472.78,390,481.05,277,444.25,221.54Z"/></svg>