<svg id="レイヤー_1" data-name="レイヤー 1" xmlns="http://www.w3.org/2000/svg" viewBox="0 0 595.28 595.28"><defs><style>.cls-1{fill:#6b6b6b;}.cls-2{fill:#bababa;}</style></defs><rect class="cls-1" x="107.59" y="108.69" width="379.29" height="379.29" rx="90.43"/><path class="cls-2" d="M269.82,205.91c22.29,0,22.33,0,29.64,20.62,16.67,47.07,33.21,94.18,50,141.19,2.37,6.64,2.38,9.83-6.12,9.11-7.91-.66-15.94-.32-23.9-.07-4.11.14-6.1-1.38-7.33-5.3-3.16-10-6.95-19.8-10.05-29.82-1.33-4.3-3.5-5.66-7.92-5.59-15.94.25-31.89.28-47.83,0-4.91-.09-7,1.62-8.25,6.27-2.68,9.55-6.33,18.83-9.05,28.37-1.35,4.75-3.78,6.36-8.52,6.09-5.68-.33-11.39-.08-17.08-.08-12.12,0-12.11,0-8.28-11.05Q219,296.88,242.74,228.13c1.2-3.48,3.06-7,3-10.57-.05-10.53,5.2-13.33,14.66-11.73C263.48,206.34,266.69,205.91,269.82,205.91Zm0,31.81c-6.86,22.23-13,42-19.08,61.88-.75,2.46.12,3.7,2.84,3.68,12,0,24,0,36.72,0C283.47,281.39,277,260.78,269.82,237.72Z"/><path class="cls-2" d="M404.68,312.08c0,19.06-.23,38.12.13,57.16.11,6-1.77,8-7.72,7.59-7.66-.48-15.37-.26-23-.06-4,.1-5.53-1.34-5.52-5.41q.14-59.73,0-119.46c0-3.77,1.48-5,5.06-4.87,8,.15,16,.35,23.91-.07,5.51-.28,7.4,1.39,7.31,7.1C404.48,273.4,404.68,292.74,404.68,312.08Z"/><path class="cls-2" d="M366.84,212.83a20.28,20.28,0,1,1,40.56.54c-.34,11.83-9,20.18-20.76,20.08C374.68,233.35,366.79,225.13,366.84,212.83Z"/></svg>