<svg id="レイヤー_1" data-name="レイヤー 1" xmlns="http://www.w3.org/2000/svg" viewBox="0 0 595.28 595.28"><defs><style>.cls-1{fill:#6b6b6b;}.cls-2{fill:#bababa;}.cls-3{fill:#ebe5e3;}.cls-4{fill:#fefcfc;}.cls-5{fill:#eae8e8;}.cls-6{fill:#fefdfd;}.cls-7{fill:#f0652a;}</style></defs><path class="cls-1" d="M296.3,492.57c-33.46-11.26-68-18.88-101.74-29.09-10.48-3.17-24.79-2.12-30.39-10.66-5.21-7.94-2.88-20.83-3.84-31.54q-8-88.21-15.92-176.42c-3.64-40.47-7.06-81-11-121.39-.73-7.47,2-8.52,8.47-8.51q157.59.24,315.19-.07c8,0,8.92,2.81,8.28,9.67Q455,235,445.1,345.54c-3.06,33.9-6.16,67.79-8.58,101.74-.49,6.92-3.73,8.4-9.2,9.89C387.17,468.12,347.1,479.31,307,490.4c-1.63.45-3.49.33-4.42,2.17Zm4.31-116.67-.1,1c-6.71-1.7-13.42-3.35-20.12-5.09-8.7-2.27-19.71-2.16-25.46-7.59-6.19-5.84-3.43-17.5-4.33-26.62-.51-5.27-2.66-6.2-7.17-6.09-9.37.22-18.76.36-28.11,0-5.56-.24-7.32,1.6-6.79,7.09,1.68,17.58,3.09,35.2,4.46,52.81.28,3.6,1.7,5.79,5.22,6.73q40.08,10.74,80.15,21.56l2.11.9c0,10.43.59,20.9-.18,31.27-.7,9.32,2,11,10.84,8.49,25.21-7.28,50.71-13.51,75.94-20.69,23.51-6.7,23.05-7,24.24-31,.86-17.23,2.82-34.41,4.42-51.6q3.9-42.25,8-84.49c1.86-19.58,3.9-39.14,5.59-58.73,1.78-20.64,3.2-41.32,4.88-62,.48-5.83-1.86-7.95-7.76-7.93q-59,.26-117.93,0c-6.69,0-8.3,2.72-8.11,8.73.32,10.42.1,20.86.11,31.29l-2,1.12q-49-.35-98.07-.7c-3.59,0-6,.55-5.56,5.18q5.31,57.06,10.34,114.15c.43,4.8,2,7.26,7.64,7.18,28.53-.41,57.06-.37,85.59-.49,13.54.16,27.08.13,40.6.6,3.73.13,8.18-2.21,11.23,2.06-13.45,0-26.9.36-40.34-.05-7-.22-9.85,1.71-9.64,9.22C300.83,340.05,300.56,358,300.61,375.9Z"/><path class="cls-2" d="M300.49,183.87c0-10.43.21-20.87-.11-31.29-.19-6,1.42-8.77,8.11-8.73q59,.36,117.93,0c5.9,0,8.24,2.1,7.76,7.93-1.68,20.66-3.1,41.34-4.88,62-1.69,19.59-3.73,39.15-5.59,58.73q-4,42.24-8,84.49c-1.6,17.19-3.56,34.37-4.42,51.6-1.19,24-.73,24.33-24.24,31-25.23,7.18-50.73,13.41-75.94,20.69-8.79,2.53-11.54.83-10.84-8.49.77-10.37.18-20.84.18-31.28,25.36-7.17,50.62-14.65,76.11-21.29,6.77-1.76,8.72-4.91,9.25-11.34q4.64-56.06,10-112.06c.45-4.76-.14-7-5.64-6.93-30.6.32-61.21.36-91.81.5l.2-.88c.82-13.82-2.51-27.83,2-41.47,5.85-.16,11.7-.36,17.54-.49,26.85-.6,53.74,1.25,80.56-1.1,1.37-.14,1.71-.95,1.43-2.17.89-9.28,1.25-18.65,2.82-27.81,1.68-9.73-2.46-11.41-11.15-11.33C361.35,184.48,330.92,184,300.49,183.87Z"/><path class="cls-3" d="M298.46,310.31c-28.53.12-57.06.08-85.59.49-5.65.08-7.21-2.38-7.64-7.18q-5.08-57.09-10.34-114.15c-.43-4.63,2-5.21,5.56-5.18q49,.38,98.07.7,0,20.7-.07,41.41c-16.57.1-33.14.39-49.71.18-5.85-.07-8,1.67-7.3,7.7,1.31,10.94,2.09,22,3.09,32.93-.12,1.16.28,1.75,1.54,1.4l52.48-.05-.2.88Q298.41,289.87,298.46,310.31Z"/><path class="cls-4" d="M298.46,310.31q0-20.43-.11-40.87c30.6-.14,61.21-.18,91.81-.5,5.5-.06,6.09,2.17,5.64,6.93q-5.25,56-10,112.06c-.53,6.43-2.48,9.58-9.25,11.34-25.49,6.64-50.75,14.12-76.11,21.29l-2.11-.89c0-3.78-.27-7.59.1-11.34,1-10.45-2.57-21.21,2.05-31.41l.1-1c13.81-1.84,26.85-6.74,40.3-10,4.23-1,5.3-3.35,5.58-7.32,1.09-15.23,2.51-30.44,3.8-45.65-3.05-4.27-7.5-1.93-11.23-2.06C325.54,310.44,312,310.47,298.46,310.31Z"/><path class="cls-5" d="M300.51,376.92c-4.62,10.2-1,21-2.05,31.41-.37,3.75-.08,7.56-.1,11.34q-40.08-10.79-80.15-21.56c-3.52-.94-4.94-3.13-5.22-6.73-1.37-17.61-2.78-35.23-4.46-52.81-.53-5.49,1.23-7.33,6.79-7.09,9.35.41,18.74.27,28.11,0,4.51-.11,6.66.82,7.17,6.09.9,9.12-1.86,20.78,4.33,26.62,5.75,5.43,16.76,5.32,25.46,7.59C287.09,373.57,293.8,375.22,300.51,376.92Z"/><path class="cls-6" d="M298.45,226.4q0-20.72.07-41.41l2-1.12c30.43.16,60.86.61,91.29.32,8.69-.08,12.83,1.6,11.15,11.33-1.57,9.16-1.93,18.53-2.82,27.81l-1.43,2.17c-26.82,2.35-53.71.5-80.56,1.1-5.84.13-11.69.33-17.54.49Z"/><path class="cls-2" d="M350.29,313c-1.29,15.21-2.71,30.42-3.8,45.65-.28,4-1.35,6.3-5.58,7.32-13.45,3.22-26.49,8.12-40.3,10-.05-17.92.22-35.85-.3-53.76-.21-7.51,2.64-9.44,9.64-9.22C323.39,313.33,336.84,313,350.29,313Z"/><path class="cls-1" d="M298.45,226.4l2.13.69c-4.54,13.64-1.21,27.65-2,41.47l-52.48.05c-.51-.47-1-.94-1.54-1.4-1-11-1.78-22-3.09-32.93-.72-6,1.45-7.77,7.3-7.7C265.31,226.79,281.88,226.5,298.45,226.4Z"/><path class="cls-3" d="M398.68,225.5l1.43-2.17C400.39,224.55,400.05,225.36,398.68,225.5Z"/><path class="cls-7" d="M244.53,267.21c.52.46,1,.93,1.54,1.4C244.81,269,244.41,268.37,244.53,267.21Z"/></svg>