<svg id="レイヤー_1" data-name="レイヤー 1" xmlns="http://www.w3.org/2000/svg" viewBox="0 0 595.28 595.28"><defs><style>.cls-1{fill:#6b6b6b;}.cls-2{fill:#bababa;}.cls-3{fill:#fff;}</style></defs><path class="cls-1" d="M302.26,115.23c52.52,0,105,.13,157.57-.16,6.92,0,9.05,1.71,8.39,8.7-3.8,40.41-7.24,80.86-10.84,121.29s-7.27,80.85-10.84,121.28q-3.65,41.27-7.07,82.53c-.34,4-1.84,6.29-6.06,7.46Q370,474,306.64,492a18.59,18.59,0,0,1-10.56-.36c-40.91-11.57-81.79-23.26-122.79-34.5-5.89-1.62-7.82-4.63-8.28-10.11q-3.47-41.28-7.22-82.52-6.3-70.53-12.67-141.06c-3.08-34.37-6-68.77-9.37-103.11-.75-7.58,4.25-5,7.28-5q75.47-.21,150.93-.09Zm-.07,189.67V348c0,36.49.08,73-.09,109.47,0,5.92.57,8.95,7.71,6.49,8.27-2.84,16.92-4.59,25.38-6.9,24.15-6.59,48.26-13.35,72.47-19.72,3.93-1,5.42-2.62,5.76-6.58,2.05-24.08,4.34-48.14,6.51-72.21q4.17-46.36,8.29-92.73c3.32-37.21,6.54-74.43,10.06-111.61.69-7.3-1.59-9.41-9-9.34q-58.87.57-117.77,0c-8-.09-9.47,2.66-9.43,9.91C302.32,204.83,302.19,254.86,302.19,304.9ZM288.76,410.45v-9.89q0-95.34-.06-190.66c0-6.85,3-15.76-1.22-20-4.57-4.62-13.66-.74-20.68-1.68-8.13-1.08-10,2.15-10,10,.35,51.39.17,102.79.15,154.19,0,10.4,0,10.39-10.42,7.5-16-4.43-31.94-8.76-47.86-13.33-4.55-1.3-6.61-.66-6.42,4.69.32,8.83.26,17.69,0,26.52-.14,4.37,1.43,6.47,5.67,7.53,9.37,2.33,18.64,5,28,7.62Z"/><path class="cls-2" d="M302.19,304.9c0-50,.13-100.07-.15-150.11,0-7.25,1.39-10,9.43-9.91q58.88.66,117.77,0c7.45-.07,9.73,2,9,9.34-3.52,37.18-6.74,74.4-10.06,111.61q-4.16,46.36-8.29,92.73c-2.17,24.07-4.46,48.13-6.51,72.21-.34,4-1.83,5.55-5.76,6.58-24.21,6.37-48.32,13.13-72.47,19.72-8.46,2.31-17.11,4.06-25.38,6.9-7.14,2.46-7.74-.57-7.71-6.49.17-36.49.09-73,.09-109.47Zm13.43-45c0,22.12.13,44.24-.09,66.36,0,5.27,1.19,6.58,6.66,5.49,17.58-3.52,35.36-6.06,52.91-9.73,6.42-1.34,7.06,1,6.61,6.07-.58,6.6-1.23,13.22-1.22,19.83,0,5-1.75,7.15-6.77,8.38-17.43,4.27-34.67,9.31-52.08,13.68-4.57,1.14-6.38,2.91-6.15,7.78.41,8.55.32,17.14,0,25.7-.18,5.27.52,7.38,6.81,5.63,25.53-7.07,51.21-13.61,76.87-20.22,4.5-1.16,7-3,7.32-8.28,2.09-31.13,4.21-62.27,7.16-93.33.79-8.21-2.22-8.51-8.43-7.65-16.13,2.24-32.33,4-48.44,6.39-6.41.94-8.94-.59-8.71-7.57.48-14.36.44-28.76,0-43.12-.18-6.37,2.07-8,8.13-7.85,18.52.35,37.06-.05,55.58.22,5,.08,7-1.56,7.28-6.41.58-8.82,1.39-17.62,2.38-26.4.56-4.94-.88-6.78-6.2-6.74q-46.44.33-92.9,0c-5.52,0-7,1.76-6.91,7.09C315.76,216.74,315.61,238.31,315.62,259.87Z"/><path class="cls-3" d="M288.76,410.45,225.87,393c-9.31-2.58-18.58-5.29-28-7.62-4.24-1.06-5.81-3.16-5.67-7.53.28-8.83.34-17.69,0-26.52-.19-5.35,1.87-6,6.42-4.69,15.92,4.57,31.9,8.9,47.86,13.33,10.39,2.89,10.42,2.9,10.42-7.5,0-51.4.2-102.8-.15-154.19-.05-7.88,1.85-11.11,10-10,7,.94,16.11-2.94,20.68,1.68,4.2,4.24,1.21,13.15,1.22,20q.14,95.32.06,190.66Z"/><path class="cls-3" d="M315.61,259.87c0-21.56.15-43.13-.12-64.69-.06-5.33,1.39-7.13,6.91-7.09q46.46.36,92.9,0c5.32,0,6.76,1.8,6.2,6.74-1,8.78-1.8,17.58-2.38,26.4-.32,4.85-2.32,6.49-7.28,6.41-18.52-.27-37.06.13-55.58-.22-6.06-.12-8.31,1.48-8.13,7.85.42,14.36.46,28.76,0,43.12-.23,7,2.3,8.51,8.71,7.57,16.11-2.36,32.31-4.15,48.44-6.39,6.21-.86,9.22-.56,8.43,7.65-2.95,31.06-5.07,62.2-7.16,93.33-.35,5.26-2.82,7.12-7.32,8.28-25.66,6.61-51.34,13.15-76.87,20.22-6.29,1.75-7-.36-6.81-5.63.28-8.56.37-17.15,0-25.7-.23-4.87,1.58-6.64,6.15-7.78,17.41-4.37,34.65-9.41,52.08-13.68,5-1.23,6.79-3.36,6.77-8.38,0-6.61.64-13.23,1.22-19.83.45-5.1-.19-7.41-6.61-6.07-17.55,3.67-35.33,6.21-52.91,9.73-5.47,1.09-6.71-.22-6.66-5.49C315.75,304.11,315.62,282,315.61,259.87Z"/></svg>