<svg id="レイヤー_1" data-name="レイヤー 1" xmlns="http://www.w3.org/2000/svg" viewBox="0 0 595.28 595.28"><defs><style>.cls-1{fill:#6b6b6b;}.cls-2{fill:#bababa;}</style></defs><rect class="cls-1" x="106.77" y="108.69" width="379.29" height="379.29" rx="90.43"/><path class="cls-2" d="M184.61,293.45v-82.3c0-3.25.14-3.38,3.38-3.43,15-.25,30-.55,45-.73,13-.17,25.95.6,38.3,5.27,21.34,8.06,33.94,23.18,36.39,46.08,1.42,13.22-.21,26.09-7.09,37.75-7.83,13.24-19.72,21.17-34.4,25.19-10.41,2.85-21,3.64-31.79,3.54-4.09,0-8.18-.05-12.26-.21-1.61-.06-2.07.4-2.06,2,.06,16.47,0,33,0,49.42,0,2.73-.45,3.19-3.13,3.2H188c-3,0-3.34-.29-3.34-3.32Zm35.47-26.93c0,8.55,0,17.11,0,25.66,0,1.32.35,1.85,1.73,1.84q5.83,0,11.67.08a59.3,59.3,0,0,0,21-3.19c8.71-3.05,15.12-8.42,17.17-17.89a34.07,34.07,0,0,0,.5-11,23.31,23.31,0,0,0-8.31-16c-5.19-4.33-11.42-6.06-17.9-6.83-8.14-1-16.31-.43-24.48-.1-1.53.06-1.38.95-1.38,1.93Q220.09,253.79,220.08,266.52Z"/><path class="cls-2" d="M325.06,358.33q0-6.7,0-13.42c0-2.73.6-3.09,2.94-1.77,12.52,7,26.06,10,40.31,10a25.58,25.58,0,0,0,11.54-2.25c5-2.47,6-7.9,2.16-11.92a23.31,23.31,0,0,0-8.15-5.2c-6-2.52-12-4.78-18-7.37a75.45,75.45,0,0,1-17.63-10.56c-20.22-16.48-16.91-48.58,6.82-61.54a57.45,57.45,0,0,1,24.53-6.78,114.78,114.78,0,0,1,34,2.58c2.13.51,4.17,1.41,6.28,2a3.54,3.54,0,0,1,2.75,3.92c0,.32,0,.64,0,1q0,12.06,0,24.13c0,3.09-1.09,3.81-3.81,2.51-11.53-5.56-23.77-7.52-36.46-7.15a27.72,27.72,0,0,0-6.88,1.19,7.67,7.67,0,0,0-5.87,5.86c-.72,3.1.56,5.45,2.79,7.39,4,3.46,8.84,5.42,13.63,7.35,6.91,2.77,13.92,5.29,20.47,8.92,5.93,3.28,11.64,6.79,16,12.19,11,13.77,9.62,35.58-3.12,48.66-6.91,7.08-15.46,11.11-25,12.91-18.67,3.53-37,2.34-54.92-4.38-.67-.25-1.31-.56-2-.82a3.62,3.62,0,0,1-2.43-3.79C325.1,367.41,325.06,362.87,325.06,358.33Z"/></svg>