<svg id="レイヤー_1" data-name="レイヤー 1" xmlns="http://www.w3.org/2000/svg" viewBox="0 0 595.28 595.28"><defs><style>.cls-1{fill:#344c79;}</style></defs><polygon class="cls-1" points="210.9 388.01 272.43 388.01 272.43 343.21 333.94 343.21 333.94 298.39 395.47 298.39 395.47 253.58 447.87 253.58 447.87 271.84 413.73 271.84 413.73 316.66 352.2 316.66 352.2 361.47 290.69 361.47 290.69 406.28 229.16 406.28 229.16 451.09 150.54 451.09 150.54 432.83 210.9 432.83 210.9 388.01"/><path class="cls-1" d="M281.37,182.84A20.83,20.83,0,1,1,302.19,162,20.84,20.84,0,0,1,281.37,182.84Z"/><path class="cls-1" d="M196.83,230.3c.32-.93,15.18-25.18,15.18-25.18a12.61,12.61,0,0,1,6.72-5.29l26.14-12.19a30.37,30.37,0,0,1,29,1.83l40.19,25.3,23.51-11a7.76,7.76,0,0,1,10.44,2.74l.3.48a7.77,7.77,0,0,1-2.66,10.71l-28,16.73a13.32,13.32,0,0,1-11.54,1l-16.6-8.94-7.87,31.75,26.17-.13a14.73,14.73,0,0,1,14.51,17.54L313.53,321a9.54,9.54,0,0,1-10.79,7.62l-.37-.05a9.55,9.55,0,0,1-8.1-10.31l3-32.47-39.48.92A18.72,18.72,0,0,1,239,264.34l1-5.13,8.12-45.83-20.93,3.09-15.3,17.75c-2.09,2.62-6.09,6.39-10,5C196.16,237.2,196,232.63,196.83,230.3Z"/><path class="cls-1" d="M221.9,355.73a9.4,9.4,0,0,1-13.07.49l-.26-.24a9.4,9.4,0,0,1-.94-13L229.21,314l6-30.66c.47.67.95,1.34,1.48,2a26.91,26.91,0,0,0,20.62,9.59l3.67-.08-7.2,23.29a44.1,44.1,0,0,1-7.18,10.58Z"/></svg>