<svg id="レイヤー_1" data-name="レイヤー 1" xmlns="http://www.w3.org/2000/svg" viewBox="0 0 595.28 595.28"><defs><style>.cls-1{fill:#344c79;}</style></defs><path class="cls-1" d="M184.64,309.17c-10,38.12-3,73.18,18.72,106.42C172.75,397.82,149.05,352.26,152,312.8c6.11-80.88,53.59-120.35,131.47-128.81-38.61-9.78-74-2.59-107.09,20.37C198.13,167.6,254,144.49,299.27,152.9c63.32,11.75,95.88,50.94,108.63,130.74,13.26-20.89,5.83-66.36-17.37-106.2C422,196,449.6,247.93,440,300.4c-5.72,31.38-21.08,57.37-45.93,77.37-22,17.69-28.74,19.78-84.81,30.37,20,10.8,50.77,7,99.19-12.32-2.77,17.71-45.81,42.07-81.54,45.35-38.59,3.54-72.19-8.32-100.27-35C199.11,379.9,186.55,347,184.64,309.17Zm176.16-4.66c4.55-35.8-20.21-68.26-55.54-72.79-35.7-4.58-68.82,21-73.48,56.72-4.54,34.75,20.76,67.84,55.23,72.26C325,365.57,356,342,360.8,304.51Z"/><path class="cls-1" d="M339.54,302.1c-3,24-25.28,40.56-50.17,37.31-22.06-2.87-38.7-25.56-36.24-49.42,2.2-21.32,26.71-39.91,48.88-37.09C325.48,255.9,342.54,278.26,339.54,302.1Zm-21.14-2c1.83-12.38-6.82-24.4-18.59-25.82-12.05-1.45-23.56,7-25,18.34-1.56,12.5,6.92,24.23,18.72,25.91C304.87,320.15,316.72,311.36,318.4,300.11Z"/></svg>