<?xml version="1.0" encoding="utf-8"?>
<!-- Generator: Adobe Illustrator 25.0.1, SVG Export Plug-In . SVG Version: 6.00 Build 0)  -->
<svg version="1.1" id="レイヤー_1" xmlns="http://www.w3.org/2000/svg" xmlns:xlink="http://www.w3.org/1999/xlink" x="0px"
	 y="0px" viewBox="0 0 365 432.9" style="enable-background:new 0 0 365 432.9;" xml:space="preserve">
<style type="text/css">
	.st0{fill:#727171;}
	.st1{fill:#FFFFFF;}
	.st2{clip-path:url(#SVGID_2_);fill:#727171;}
	.st3{clip-path:url(#SVGID_4_);fill:#727171;}
	.st4{clip-path:url(#SVGID_6_);fill:#727171;}
	.st5{clip-path:url(#SVGID_8_);fill:#727171;}
	.st6{clip-path:url(#SVGID_10_);fill:#727171;}
	.st7{clip-path:url(#SVGID_12_);fill:#FFFFFF;}
	.st8{clip-path:url(#SVGID_14_);fill:#727171;}
	.st9{clip-path:url(#SVGID_16_);fill:#FFFFFF;}
	.st10{clip-path:url(#SVGID_18_);fill:#727171;}
	.st11{clip-path:url(#SVGID_20_);fill:#FFFFFF;}
	.st12{clip-path:url(#SVGID_22_);fill:#727171;}
	.st13{clip-path:url(#SVGID_24_);fill:#FFFFFF;}
	.st14{clip-path:url(#SVGID_26_);fill:#727171;}
	.st15{clip-path:url(#SVGID_28_);fill:#FFFFFF;}
	.st16{clip-path:url(#SVGID_30_);fill:#727171;}
	.st17{clip-path:url(#SVGID_32_);fill:#FFFFFF;}
	.st18{clip-path:url(#SVGID_34_);fill:#727171;}
	.st19{clip-path:url(#SVGID_36_);fill:#FFFFFF;}
	.st20{clip-path:url(#SVGID_38_);fill:#727171;}
	.st21{clip-path:url(#SVGID_40_);fill:#FFFFFF;}
	.st22{clip-path:url(#SVGID_42_);fill:#727171;}
</style>
<g>
	
		<image style="overflow:visible;opacity:0.75;enable-background:new    ;" width="1321" height="5354" xlink:href="FBAD7E95.png"  transform="matrix(0.2385 0 0 0.2385 -134.08 1515.6582)">
	</image>
	<g>
		
			<image style="overflow:visible;enable-background:new    ;" width="1280" height="5628" xlink:href="FBAD7E97.png"  transform="matrix(1 0 0 1 -126 1519.5272)">
		</image>
	</g>
</g>
<g>
	
		<image style="overflow:visible;opacity:0.75;enable-background:new    ;" width="1321" height="2100" xlink:href="FBAD7E92.png"  transform="matrix(0.2385 0 0 0.2385 159.92 1994.3734)">
	</image>
	<g>
		
			<image style="overflow:visible;enable-background:new    ;" width="1280" height="2124" xlink:href="FBAD7E93.png"  transform="matrix(1 0 0 1 -126 1519.5272)">
		</image>
	</g>
</g>
<g>
	
		<image style="overflow:visible;opacity:0.75;enable-background:new    ;" width="1321" height="2100" xlink:href="FBAD7E9D.png"  transform="matrix(0.2385 0 0 0.2385 159.96 1513.4135)">
	</image>
	<g>
		
			<image style="overflow:visible;enable-background:new    ;" width="1280" height="2124" xlink:href="FBAD7E9F.png"  transform="matrix(1 0 0 1 -126 1519.5272)">
		</image>
	</g>
</g>
<rect x="130.5" y="16.6" class="st0" width="1" height="387.5"/>
<rect x="168.3" y="237.5" class="st0" width="27.7" height="1"/>
<rect x="196" y="223.5" class="st1" width="84.8" height="29.2"/>
<g>
	<g>
		<defs>
			<rect id="SVGID_1_" x="88.4" y="3.5" width="193" height="425.9"/>
		</defs>
		<clipPath id="SVGID_2_">
			<use xlink:href="#SVGID_1_"  style="overflow:visible;"/>
		</clipPath>
		<path class="st2" d="M281.3,253.2h-85.8V223h85.8V253.2z M196.5,252.2h83.8V224h-83.8V252.2z"/>
	</g>
</g>
<g>
	<path d="M223.1,230.9l0,0.3c-0.3,0-0.6,0.1-0.9,0.4c-0.2,0.2-0.4,0.6-0.5,1v2.5h-0.3V231h0.3v1.1c0.2-0.4,0.4-0.7,0.7-0.9
		C222.6,230.9,222.9,230.9,223.1,230.9z"/>
	<path d="M227.5,233h-3c0,0.6,0.1,1.1,0.5,1.5c0.2,0.3,0.5,0.4,0.9,0.4c0.4,0,0.6-0.1,0.8-0.2c0.2-0.1,0.3-0.4,0.4-0.7l0.3,0.1
		c-0.3,0.7-0.8,1-1.6,1c-0.5,0-1-0.2-1.3-0.6c-0.3-0.4-0.4-0.9-0.4-1.5c0-0.7,0.2-1.2,0.5-1.6c0.3-0.3,0.7-0.5,1.1-0.5
		c0.5,0,0.9,0.2,1.2,0.6C227.4,231.9,227.5,232.3,227.5,233L227.5,233L227.5,233z M227.2,232.7c0-0.5-0.2-0.9-0.5-1.2
		c-0.2-0.2-0.5-0.3-0.8-0.3c-0.4,0-0.7,0.1-0.9,0.5c-0.2,0.3-0.4,0.6-0.4,1.1L227.2,232.7L227.2,232.7z"/>
	<path d="M231.8,231.8l-0.3,0.1c-0.2-0.5-0.5-0.8-1.1-0.8c-0.4,0-0.6,0.1-0.8,0.2c-0.2,0.1-0.2,0.3-0.2,0.5c0,0.2,0.1,0.4,0.2,0.6
		c0.1,0.1,0.4,0.2,0.7,0.3l0.3,0.1c0.5,0.1,0.8,0.2,1,0.4c0.2,0.2,0.2,0.4,0.2,0.7c0,0.4-0.1,0.6-0.4,0.9c-0.3,0.2-0.6,0.3-1.1,0.3
		c-0.4,0-0.7-0.1-1-0.3c-0.2-0.2-0.4-0.4-0.5-0.7l0.3-0.1c0.2,0.6,0.6,0.8,1.2,0.8c0.4,0,0.7-0.1,0.9-0.3c0.1-0.1,0.2-0.3,0.2-0.6
		c0-0.3-0.1-0.5-0.2-0.6c-0.1-0.1-0.4-0.2-0.8-0.3l-0.3-0.1c-0.5-0.1-0.8-0.2-1-0.4c-0.1-0.2-0.2-0.4-0.2-0.6c0-0.3,0.1-0.6,0.4-0.8
		c0.2-0.2,0.6-0.3,1-0.3C231,230.9,231.5,231.2,231.8,231.8z"/>
	<path d="M236.6,233h-3c0,0.6,0.1,1.1,0.5,1.5c0.2,0.3,0.5,0.4,0.9,0.4c0.4,0,0.6-0.1,0.8-0.2c0.2-0.1,0.3-0.4,0.4-0.7l0.3,0.1
		c-0.3,0.7-0.8,1-1.6,1c-0.5,0-1-0.2-1.3-0.6c-0.3-0.4-0.4-0.9-0.4-1.5c0-0.7,0.2-1.2,0.5-1.6c0.3-0.3,0.7-0.5,1.1-0.5
		c0.5,0,0.9,0.2,1.2,0.6C236.4,231.9,236.6,232.3,236.6,233L236.6,233L236.6,233z M236.3,232.7c0-0.5-0.2-0.9-0.5-1.2
		c-0.2-0.2-0.5-0.3-0.8-0.3c-0.4,0-0.7,0.1-0.9,0.5c-0.2,0.3-0.4,0.6-0.4,1.1L236.3,232.7L236.3,232.7z"/>
	<path d="M238.2,231.9c0.3-0.7,0.8-1,1.5-1c0.5,0,0.8,0.1,1,0.4c0.2,0.2,0.3,0.6,0.3,1v1.3c0,0.6,0,1.1,0.1,1.5h-0.3
		c0-0.2-0.1-0.4-0.1-0.8c-0.4,0.6-0.9,0.9-1.5,0.9c-0.4,0-0.8-0.1-1-0.4c-0.2-0.2-0.3-0.5-0.3-0.8c0-0.7,0.5-1.2,1.4-1.3
		c0.4-0.1,0.8-0.1,1.4-0.1v-0.2c0-0.4-0.1-0.8-0.3-0.9c-0.2-0.1-0.4-0.2-0.8-0.2c-0.6,0-1,0.3-1.2,0.9L238.2,231.9z M240.7,232.8
		c-0.5,0-0.9,0.1-1.3,0.1c-0.7,0.1-1.1,0.5-1.1,1.1c0,0.3,0.1,0.5,0.3,0.7c0.2,0.1,0.4,0.2,0.7,0.2c0.6,0,1.1-0.3,1.5-1L240.7,232.8
		L240.7,232.8z"/>
	<path d="M244.7,230.9l0,0.3c-0.3,0-0.6,0.1-0.9,0.4c-0.2,0.2-0.4,0.6-0.5,1v2.5H243V231h0.3v1.1c0.2-0.4,0.4-0.7,0.7-0.9
		C244.2,230.9,244.5,230.9,244.7,230.9z"/>
	<path d="M249,232l-0.3,0.1c-0.2-0.6-0.6-1-1.1-1c-0.4,0-0.8,0.2-1,0.6c-0.2,0.3-0.3,0.8-0.3,1.3c0,0.6,0.1,1.1,0.4,1.4
		c0.2,0.3,0.5,0.4,0.9,0.4c0.6,0,1-0.3,1.2-1l0.3,0.1c-0.3,0.7-0.8,1.1-1.5,1.1c-0.5,0-0.9-0.2-1.2-0.6c-0.3-0.4-0.4-0.9-0.4-1.5
		c0-0.7,0.2-1.2,0.5-1.6c0.3-0.3,0.7-0.5,1.1-0.5c0.4,0,0.7,0.1,0.9,0.3C248.7,231.4,248.9,231.6,249,232z"/>
	<path d="M250.9,228.9v2.8c0.5-0.6,1-0.9,1.5-0.9c0.4,0,0.6,0.1,0.8,0.3c0.2,0.2,0.3,0.4,0.3,0.8v3.1h-0.3v-2.9c0-0.7-0.3-1-0.8-1
		c-0.5,0-1,0.3-1.5,0.9v2.9h-0.3v-6.1L250.9,228.9L250.9,228.9z"/>
</g>
<g>
	<path d="M229,242.6c-0.1,0.7-0.2,1.4-0.5,2.1c-0.2,0.6-0.4,1.1-0.7,1.5c-0.2,0.3-0.4,0.5-0.6,0.6c-0.1,0.1-0.3,0.1-0.5,0.1
		c-0.3,0-0.6-0.2-0.8-0.5c-0.2-0.3-0.3-0.7-0.3-1.2c0-0.4,0.1-0.8,0.3-1.2c0.2-0.4,0.4-0.7,0.7-0.9c0.6-0.6,1.4-0.8,2.3-0.8
		c1,0,1.7,0.3,2.2,0.8c0.4,0.4,0.7,1,0.7,1.8c0,0.7-0.2,1.3-0.8,1.8c-0.5,0.5-1.2,0.8-2,1c0,0,0,0,0,0c0,0-0.1,0-0.1-0.1
		c0-0.1-0.1-0.1-0.1-0.2c0.9-0.2,1.6-0.5,2.1-1.1c0.4-0.5,0.6-1,0.6-1.6c0-0.7-0.3-1.3-0.8-1.7c-0.4-0.3-1-0.5-1.6-0.5L229,242.6z
		 M228.7,242.7c-0.7,0.1-1.3,0.3-1.8,0.7c-0.3,0.3-0.6,0.7-0.7,1.1c-0.1,0.3-0.2,0.6-0.2,0.9c0,0.5,0.1,0.9,0.3,1.1
		c0.1,0.2,0.3,0.3,0.5,0.3c0.3,0,0.6-0.2,0.9-0.7c0.3-0.5,0.5-1,0.7-1.7C228.5,243.8,228.7,243.2,228.7,242.7z"/>
	<path d="M239.7,244.6h-4.6l-1.1,0c0,0,0,0,0-0.1v-0.2c0,0,0-0.1,0-0.1l1.1,0h2.2v-1.5h-1.8c-0.2,0.4-0.5,0.7-0.8,1
		c0,0-0.1,0.1-0.1,0.1s0,0-0.1-0.1c0,0-0.1-0.1-0.2-0.1c0.5-0.4,0.9-1,1.2-1.7c0.1-0.2,0.1-0.4,0.2-0.5c0.1,0,0.2,0.1,0.3,0.1
		c0,0,0.1,0.1,0.1,0.1c0,0,0,0.1-0.1,0.1c-0.1,0.1-0.1,0.1-0.1,0.2c-0.1,0.2-0.2,0.4-0.3,0.6h1.7v-0.5c0-0.4,0-0.8-0.1-1
		c0.1,0,0.2,0,0.3,0c0,0,0.1,0,0.1,0.1c0,0,0,0.1,0,0.1c0,0.1,0,0.4,0,0.7v0.5h1.3l1.1,0c0,0,0,0,0,0.1v0.2c0,0,0,0.1,0,0.1l-1.1,0
		h-1.3v1.5h2.1l1.1,0c0,0,0,0,0,0.1v0.2c0,0,0,0.1,0,0.1L239.7,244.6z M239.5,248.4C239.5,248.4,239.5,248.4,239.5,248.4l0-0.5h-3.9
		v0.5c0,0,0,0.1,0,0.1h-0.2c0,0,0,0,0-0.1l0-1.3v-0.6l0-0.8c0,0,0-0.1,0-0.1l1.1,0h2.1l1.1,0c0,0,0,0,0,0.1l0,0.7v0.7l0,1.3
		c0,0,0,0.1,0,0.1H239.5z M235.5,245.9v1.8h3.9v-1.8H235.5z"/>
	<path d="M245.1,244.7h-0.5c0,0.2,0,0.3-0.1,0.4c0.2,0.5,0.5,0.9,0.7,1.2c0.2,0.3,0.5,0.6,0.8,0.8c-0.1,0-0.1,0.1-0.1,0.1
		c0,0,0,0.1,0,0.1s0,0-0.1-0.1c-0.6-0.6-1-1.2-1.4-1.9l-0.1,0.2c-0.3,0.9-0.8,1.7-1.6,2.4c0,0-0.1,0.1-0.1,0.1c0,0,0,0-0.1-0.1
		c0,0-0.1-0.1-0.2-0.1c0.5-0.4,0.9-0.8,1.2-1.2c0.2-0.3,0.4-0.7,0.5-1.2c0.1-0.2,0.1-0.5,0.2-0.8h-0.7l-1,0c0,0,0,0,0-0.1v-0.2
		c0,0,0-0.1,0-0.1l1,0h0.7c0-0.4,0.1-1,0.1-1.7h-0.9c-0.2,0.4-0.4,0.7-0.7,1c0,0,0,0.1-0.1,0.1c0,0,0,0-0.1-0.1c0,0-0.1-0.1-0.1-0.1
		c0.5-0.6,0.9-1.3,1.1-2.1c0-0.1,0.1-0.3,0.1-0.4c0.1,0,0.2,0.1,0.3,0.1c0,0,0,0,0,0.1s0,0.1,0,0.1c0,0.1-0.1,0.1-0.1,0.2
		c-0.1,0.3-0.2,0.6-0.3,0.8h1.5l0.8,0c0,0,0,0,0,0.1v0.2c0,0,0,0.1,0,0.1l-0.8,0h-0.5c0,0.7,0,1.3-0.1,1.7h0.5l1,0c0,0,0,0,0,0.1
		v0.2c0,0,0,0.1,0,0.1L245.1,244.7z M249.1,248.1C249.1,248.1,249.1,248.1,249.1,248.1l0-0.7h-2.3v0.7c0,0,0,0.1,0,0.1h-0.2
		c0,0,0,0,0-0.1l0-2v-2.3l0-1.6c0,0,0-0.1,0-0.1l0.9,0h1l0.9,0c0,0,0,0,0,0.1l0,1.4v2.5l0,2c0,0,0,0.1,0,0.1L249.1,248.1
		L249.1,248.1z M246.8,242.4v4.8h2.3v-4.8H246.8z"/>
</g>
<rect x="168.3" y="282.5" class="st0" width="27.7" height="1"/>
<rect x="196" y="266.8" class="st1" width="84.8" height="29.2"/>
<g>
	<g>
		<defs>
			<rect id="SVGID_3_" x="88.4" y="3.5" width="193" height="425.9"/>
		</defs>
		<clipPath id="SVGID_4_">
			<use xlink:href="#SVGID_3_"  style="overflow:visible;"/>
		</clipPath>
		<path class="st3" d="M281.3,296.5h-85.8v-30.2h85.8V296.5z M196.5,295.5h83.8v-28.2h-83.8V295.5z"/>
	</g>
</g>
<g>
	<path d="M230,274.2l-1.3,4.1h-0.4l-0.8-2.8c-0.1-0.3-0.2-0.6-0.2-1h0c-0.1,0.4-0.2,0.7-0.2,1l-0.8,2.8h-0.4l-1.2-4.1h0.4l0.8,2.9
		c0.1,0.3,0.2,0.6,0.2,1h0c0.1-0.4,0.1-0.7,0.2-1l0.8-2.9h0.4l0.8,2.8c0.1,0.3,0.2,0.6,0.2,1h0c0.1-0.3,0.1-0.6,0.3-1l0.8-2.8H230z"
		/>
	<path d="M234.5,276.3h-3c0,0.6,0.1,1.1,0.5,1.5c0.2,0.3,0.5,0.4,0.9,0.4c0.4,0,0.6-0.1,0.8-0.2c0.2-0.1,0.3-0.4,0.4-0.7l0.3,0.1
		c-0.3,0.7-0.8,1-1.6,1c-0.5,0-1-0.2-1.3-0.6c-0.3-0.4-0.4-0.9-0.4-1.5c0-0.7,0.2-1.2,0.5-1.6c0.3-0.3,0.7-0.5,1.1-0.5
		c0.5,0,0.9,0.2,1.2,0.6C234.3,275.2,234.5,275.6,234.5,276.3L234.5,276.3L234.5,276.3z M234.2,276c0-0.5-0.2-0.9-0.5-1.2
		c-0.2-0.2-0.5-0.3-0.8-0.3c-0.4,0-0.7,0.1-0.9,0.5c-0.2,0.3-0.4,0.6-0.4,1.1L234.2,276L234.2,276z"/>
	<path d="M236.5,272.2v2.7c0.2-0.3,0.4-0.5,0.6-0.6c0.2-0.1,0.4-0.2,0.6-0.2c0.5,0,0.9,0.2,1.2,0.6c0.3,0.4,0.4,0.9,0.4,1.5
		c0,0.7-0.2,1.2-0.5,1.6c-0.3,0.3-0.7,0.5-1.1,0.5c-0.5,0-0.9-0.3-1.2-0.8l0,0.7h-0.3v-6.1L236.5,272.2L236.5,272.2z M236.5,275.3v2
		c0.2,0.3,0.4,0.5,0.6,0.7c0.2,0.1,0.4,0.2,0.6,0.2c0.4,0,0.7-0.2,1-0.5c0.2-0.3,0.3-0.8,0.3-1.3c0-0.6-0.1-1.1-0.4-1.4
		c-0.2-0.3-0.5-0.4-0.9-0.4C237.2,274.5,236.8,274.8,236.5,275.3z"/>
	<path d="M246.6,273.2c-0.1,0.7-0.2,1.4-0.5,2.1c-0.2,0.6-0.4,1.1-0.7,1.5c-0.2,0.3-0.4,0.5-0.6,0.6c-0.1,0.1-0.3,0.1-0.5,0.1
		c-0.3,0-0.6-0.2-0.8-0.5c-0.2-0.3-0.3-0.7-0.3-1.2c0-0.4,0.1-0.8,0.3-1.2c0.2-0.4,0.4-0.7,0.7-0.9c0.6-0.6,1.4-0.8,2.3-0.8
		c1,0,1.7,0.3,2.2,0.8c0.4,0.4,0.7,1,0.7,1.8c0,0.7-0.2,1.3-0.8,1.8c-0.5,0.5-1.2,0.8-2,1c0,0,0,0,0,0c0,0-0.1,0-0.1,0
		c0-0.1-0.1-0.1-0.1-0.2c0.9-0.2,1.6-0.5,2.1-1.1c0.4-0.5,0.6-1,0.6-1.6c0-0.7-0.3-1.3-0.8-1.7c-0.4-0.3-1-0.5-1.6-0.5L246.6,273.2z
		 M246.3,273.2c-0.7,0.1-1.3,0.3-1.8,0.7c-0.3,0.3-0.6,0.7-0.7,1.1c-0.1,0.3-0.2,0.6-0.2,0.9c0,0.5,0.1,0.9,0.3,1.1
		c0.1,0.2,0.3,0.3,0.5,0.3c0.3,0,0.6-0.2,0.9-0.7c0.3-0.5,0.5-1,0.7-1.7C246.2,274.4,246.3,273.8,246.3,273.2z"/>
</g>
<g>
	<path d="M201.5,287.2h-1.5v2.8l0,1.6c0,0,0,0,0,0h-0.2c0,0,0,0,0,0l0-1.6v-3.5l0-1.7c0,0,0,0,0,0l0.9,0h0.9l0.8,0c0,0,0,0,0,0
		l0,0.8v0.8l0,0.8c0,0,0,0,0,0L201.5,287.2z M202.1,285h-2.1v0.8h2.1V285z M199.9,287h2.1v-0.9h-2.1V287z M203.9,290.7
		C203.8,290.7,203.8,290.7,203.9,290.7l0-0.5h-2v0.6c0,0,0,0,0,0h-0.2c0,0,0,0,0,0l0-1.3v-0.5l0-0.8c0,0,0,0,0,0l0.8,0h0.8l0.8,0
		c0,0,0,0,0,0l0,0.6v0.6l0,1.2c0,0,0,0,0,0L203.9,290.7L203.9,290.7z M201.8,288.3v1.6h2v-1.6H201.8z M206,286v3.9l0,1
		c0,0.2,0,0.3,0,0.4c0,0.1-0.1,0.1-0.1,0.2c-0.1,0.1-0.3,0.1-0.7,0.1c-0.1,0-0.2,0-0.2,0c0,0-0.1,0-0.1,0c0,0,0,0,0-0.1
		c0,0,0-0.1-0.1-0.2c0.2,0,0.4,0,0.6,0c0.2,0,0.4,0,0.4-0.1c0-0.1,0.1-0.2,0.1-0.4v-3.7h-1.6l-0.9,0c0,0,0,0,0,0l0-0.7v-0.9l0-0.7
		c0,0,0,0,0,0l0.9,0h0.9l0.9,0c0,0,0,0,0,0L206,286z M203.5,285v0.8h2.2V285H203.5z M203.5,286.1v0.9h2.2v-0.9H203.5z"/>
	<path d="M208.5,285.8c0.1,0,0.2,0,0.4,0.1c0,0,0,0,0,0.1c0,0,0,0,0,0.1c0,0.1-0.1,0.3-0.1,0.7c0,0.6,0,1.3,0.1,1.9
		c0.1,0.6,0.2,1.2,0.4,1.5c0.2,0.3,0.4,0.5,0.6,0.5c0.2,0,0.4-0.2,0.6-0.5c0.1-0.3,0.3-0.6,0.4-0.9c0.1,0.1,0.1,0.2,0.2,0.3
		c0,0,0,0,0,0.1s0,0,0,0.1c-0.1,0.4-0.3,0.7-0.5,0.9c-0.2,0.3-0.4,0.4-0.6,0.4c-0.4,0-0.7-0.3-0.9-0.8c-0.2-0.4-0.3-0.9-0.4-1.5
		c-0.1-0.5-0.1-1.2-0.1-2C208.6,286.2,208.6,285.9,208.5,285.8z M212.8,286.7c0.1,0,0.1-0.1,0.2-0.1c0,0,0,0,0,0c0,0,0,0,0,0
		c0.8,0.6,1.4,1.6,1.6,2.9c0,0,0,0,0,0.1c-0.1,0-0.1,0.1-0.2,0.1c0,0,0,0,0,0c0,0,0,0,0,0C214.2,288.4,213.7,287.4,212.8,286.7z"/>
	<path d="M216.3,287.7c0.8-0.4,1.6-0.9,2.3-1.5c0.5-0.5,1-1,1.3-1.5c0.1-0.1,0.1-0.3,0.2-0.4c0.1,0,0.2,0,0.3,0.1
		c0.1,0,0.1,0,0.1,0.1c0,0,0,0,0,0.1c0,0-0.1,0-0.1,0.1c1,1.4,2.2,2.4,3.8,3c-0.1,0-0.1,0.1-0.2,0.1c0,0-0.1,0.1-0.1,0.1
		c0,0,0,0-0.1,0c-0.8-0.3-1.5-0.8-2.1-1.3c-0.6-0.5-1.1-1-1.5-1.7c-0.5,0.7-1,1.4-1.7,1.9c-0.5,0.4-1.1,0.8-1.8,1.2c0,0-0.1,0-0.1,0
		c0,0,0,0-0.1-0.1C216.4,287.8,216.4,287.8,216.3,287.7z M222.1,291.7C222.1,291.7,222.1,291.7,222.1,291.7l0-0.4h-3.9v0.4
		c0,0,0,0,0,0H218c0,0,0,0,0,0l0-1.4v-0.6l0-0.9c0,0,0,0,0,0l1.1,0h2.1l1.1,0c0,0,0,0,0,0l0,0.8v0.7l0,1.4c0,0,0,0,0,0H222.1z
		 M218.2,289v2.1h3.9V289H218.2z M220.8,287.5h-1.4l-1,0c0,0,0,0,0,0v-0.2c0,0,0,0,0,0l1,0h1.4l1,0c0,0,0,0,0,0v0.2c0,0,0,0,0,0
		L220.8,287.5z"/>
	<path d="M227.3,284.7c0.2,0,0.4,0,0.4,0.1c0,0,0,0,0,0.1c0,0,0,0,0,0.1c0,0,0,0.1-0.1,0.3c0,0.6-0.1,1-0.1,1.3
		c0.1,0,0.1-0.1,0.2-0.1c0,0,0,0,0.1,0c0,0,0.1,0,0.1,0c0.1,0,0.1,0.1,0.1,0.1s0,0.1-0.1,0.1c-0.1,0.1-0.2,0.3-0.4,0.6
		c0,0.2,0,0.4,0,0.6c0.9-0.8,1.8-1.1,2.6-1.1c0.6,0,1.1,0.2,1.5,0.6c0.3,0.3,0.4,0.8,0.4,1.2c0,0.5-0.2,1-0.6,1.5
		c-0.4,0.5-0.9,0.8-1.6,0.9c0,0,0,0-0.1,0c0,0-0.1,0-0.1,0c-0.1-0.1-0.1-0.1-0.2-0.1c0.8-0.2,1.4-0.5,1.8-1c0.3-0.4,0.5-0.8,0.5-1.3
		c0-0.5-0.2-0.9-0.5-1.2c-0.3-0.2-0.7-0.4-1.1-0.4c-0.9,0-1.7,0.4-2.6,1.2c0,0.4,0,0.8,0,1.2c0,0.6,0,1.2,0,2c0,0,0,0.1,0,0.1
		c0,0-0.1,0-0.2,0c0,0,0,0,0,0c0-0.5,0-1,0-1.7c0-0.8,0-1.3,0-1.6c-0.6,0.8-1.1,1.6-1.6,2.3c0,0,0,0-0.1,0c0,0,0,0,0,0
		c-0.1-0.1-0.1-0.1-0.2-0.2c0,0,0,0,0,0c0,0,0,0,0-0.1c0.6-0.8,1.2-1.6,1.9-2.5c0,0,0-0.2,0-0.5c0-0.1,0-0.3,0-0.4
		c-0.4,0.1-0.8,0.2-1,0.3c-0.1,0-0.3,0.1-0.4,0.2c0,0,0,0-0.1,0c0,0-0.1,0-0.1,0c0-0.1-0.1-0.1-0.2-0.3c0.2,0,0.4,0,0.5-0.1
		c0.5-0.1,0.9-0.2,1.2-0.3c0-0.3,0-0.7,0-1.1c0-0.1,0-0.1,0-0.2C227.4,285,227.3,284.8,227.3,284.7z"/>
	<path d="M238.7,287c0-0.6,0-1.2,0-1.6c0-0.2,0-0.4,0-0.5c0.2,0,0.3,0.1,0.4,0.1c0,0,0.1,0,0.1,0.1c0,0,0,0,0,0.1c0,0,0,0.1,0,0.2
		c0,0.6,0,1.1-0.1,1.6c0.7-0.1,1.3-0.1,1.8-0.1c0,0,0.1,0,0.1,0.1v0.1c0,0,0,0.1-0.1,0.1c-0.6,0-1.2,0-1.8,0.1
		c0,0.6-0.1,1.1-0.1,1.4c-0.1,0.5-0.3,0.8-0.7,0.8c-0.3,0-0.6,0-0.8-0.1c0,0,0,0,0-0.1c0-0.1,0-0.1,0-0.2c0.3,0.1,0.6,0.2,0.9,0.2
		c0.1,0,0.2-0.1,0.3-0.2c0-0.1,0.1-0.2,0.1-0.4c0-0.4,0.1-0.8,0.1-1.3c-0.6,0-1.5,0.2-2.6,0.3c0,0.4,0,0.8,0,1.2c0,0.5,0,0.9,0,1.1
		c0,0.4,0.2,0.6,0.4,0.8c0.2,0.1,0.6,0.2,1.3,0.2c0.7,0,1.3,0,1.9-0.1c0,0,0,0,0,0c0,0,0.1,0,0.1,0.1c0,0.1,0,0.1,0,0.2
		c0,0,0,0.1-0.1,0.1c-0.6,0.1-1.3,0.1-2,0.1c-0.8,0-1.3-0.1-1.6-0.3c-0.2-0.2-0.3-0.4-0.4-0.9c0-0.2,0-0.6,0-1.3c0-0.2,0-0.6,0-1
		c-0.6,0.1-1,0.2-1.3,0.2c-0.2,0-0.3,0.1-0.4,0.1c0,0,0,0,0,0c0,0-0.1,0-0.1,0c0-0.1,0-0.2-0.1-0.3c0.2,0,0.3,0,0.6,0
		c0.4-0.1,0.9-0.1,1.3-0.2c0-0.2,0-0.6,0-1c0-0.3,0-0.6-0.1-0.8c0.1,0,0.3,0,0.4,0.1c0,0,0.1,0,0.1,0.1c0,0,0,0,0,0.1
		c0,0,0,0.1,0,0.1c0,0.1,0,0.2,0,0.4s0,0.4,0,0.6c0,0.2,0,0.4,0,0.4C237.4,287.1,238.2,287,238.7,287z"/>
	<path d="M243.5,285.9c0.5,0,1,0,1.6,0h2.9c0.2,0,0.3,0,0.4-0.1c0,0,0,0,0.1,0c0,0,0.1,0,0.1,0c0.1,0.1,0.2,0.1,0.2,0.2
		c0,0,0,0.1,0,0.1c0,0,0,0.1,0,0.1c-0.1,0.1-0.1,0.1-0.2,0.2c-0.4,1-0.9,2-1.6,2.7c-0.8,0.8-1.6,1.5-2.6,2c0,0,0,0-0.1,0
		c0,0-0.1,0-0.1,0c-0.1-0.1-0.1-0.1-0.2-0.2c0.6-0.3,1.2-0.7,1.7-1.1c0.3-0.3,0.7-0.6,1-1c0.4-0.4,0.7-0.9,1-1.4
		c0.3-0.5,0.5-1,0.7-1.5h-3.3c-0.5,0-1,0-1.4,0c0,0,0,0,0,0c-0.1,0-0.1,0-0.1-0.1C243.5,286,243.5,286,243.5,285.9z"/>
	<path d="M254.9,288.3c-0.3,0.5-0.7,0.9-1.1,1.3c-0.5,0.4-0.9,0.7-1.4,1c0,0,0,0-0.1,0s0,0,0,0c0,0-0.1-0.1-0.2-0.1
		c0.6-0.3,1.1-0.6,1.5-1c0.4-0.4,0.8-0.8,1.1-1.3h-1.5c-0.3,0-0.6,0-0.9,0c-0.1,0-0.1,0-0.1-0.1s0-0.1,0-0.2c0.2,0,0.6,0,1,0h1.6
		l0-0.8c0-0.3,0-0.5-0.1-0.6c0.1,0,0.3,0,0.4,0.1c0,0,0,0,0,0.1c0,0,0,0,0,0.1c0,0,0,0.1,0,0.3c0,0.1,0,0.2,0,0.3l0,0.6h0.9
		c0.3,0,0.7,0,1.1,0c0,0,0.1,0,0.1,0.1v0.1c0,0,0,0.1-0.1,0.1c-0.3,0-0.6,0-1.1,0h-0.9l0.1,2.4c0,0.1,0,0.1,0,0.2
		c0,0.2,0,0.3-0.1,0.4c0,0.1-0.1,0.1-0.2,0.1c-0.2,0.1-0.5,0.1-0.8,0.1c-0.1,0-0.1,0-0.1,0c0-0.1-0.1-0.1-0.1-0.2
		c0.3,0,0.6,0,0.8-0.1c0.1,0,0.1-0.1,0.2-0.1c0,0,0-0.1,0-0.2c0,0,0-0.1,0-0.1L254.9,288.3z"/>
	<path d="M260.3,288c0.4,0,0.9,0,1.6,0h2.8c0.7,0,1.3,0,1.8,0c0.1,0,0.1,0,0.1,0.1v0.2c0,0.1,0,0.1-0.1,0.1c-0.3,0-0.7,0-1.1,0h-0.6
		h-3.4l-0.8,0c0,0-0.1,0-0.1-0.1C260.3,288.2,260.3,288.1,260.3,288z"/>
	<path d="M271.7,285.1c0.2,0,0.3,0.1,0.4,0.2c0,0,0,0,0,0.1c0,0,0,0.1-0.1,0.1c-0.1,0.1-0.2,0.3-0.3,0.6c-0.5,1.6-1,3-1.6,4.2
		c1.8-0.1,3.1-0.3,4-0.4c-0.4-0.6-0.7-1.1-1.1-1.5l0.2-0.1c0,0,0,0,0.1,0c0,0,0,0,0.1,0.1c0.6,0.7,1.1,1.5,1.6,2.5c0,0,0,0,0,0
		c0,0,0,0,0,0.1c0,0-0.1,0.1-0.2,0.1c0,0,0,0,0,0c0,0,0,0-0.1-0.1c-0.1-0.3-0.2-0.5-0.4-0.7c-1.1,0.2-2.5,0.3-4.2,0.5
		c-0.5,0-0.8,0.1-0.9,0.1c0,0,0,0-0.1,0s-0.1,0-0.1,0c0-0.1-0.1-0.2-0.1-0.4c0.1,0,0.1,0,0.2,0c0.2,0,0.4,0,0.7,0
		c0.6-1.3,1.2-2.8,1.6-4.4C271.6,285.6,271.7,285.3,271.7,285.1z"/>
</g>
<rect x="168.6" y="192.7" class="st0" width="27.7" height="1"/>
<rect x="195.8" y="178.6" class="st1" width="84.8" height="29.2"/>
<g>
	<g>
		<defs>
			<rect id="SVGID_5_" x="88.4" y="3.5" width="193" height="425.9"/>
		</defs>
		<clipPath id="SVGID_6_">
			<use xlink:href="#SVGID_5_"  style="overflow:visible;"/>
		</clipPath>
		<path class="st4" d="M281,208.3h-85.8v-30.2H281V208.3z M196.3,207.3H280v-28.2h-83.8V207.3z"/>
	</g>
</g>
<g>
	<path d="M222.9,188.3h-3c0,0.6,0.1,1.1,0.5,1.5c0.2,0.3,0.5,0.4,0.9,0.4c0.4,0,0.6-0.1,0.8-0.2c0.2-0.1,0.3-0.4,0.4-0.7l0.3,0.1
		c-0.3,0.7-0.8,1-1.6,1c-0.5,0-1-0.2-1.3-0.6c-0.3-0.4-0.4-0.9-0.4-1.5c0-0.7,0.2-1.2,0.5-1.6c0.3-0.3,0.7-0.5,1.1-0.5
		c0.5,0,0.9,0.2,1.2,0.6C222.8,187.2,222.9,187.7,222.9,188.3L222.9,188.3L222.9,188.3z M222.6,188c0-0.5-0.2-0.9-0.5-1.2
		c-0.2-0.2-0.5-0.3-0.8-0.3c-0.4,0-0.7,0.1-0.9,0.5c-0.2,0.3-0.4,0.6-0.4,1.1L222.6,188L222.6,188z"/>
	<path d="M227.5,184.3v6.1h-0.3v-0.7c-0.3,0.5-0.7,0.8-1.2,0.8c-0.5,0-0.9-0.2-1.2-0.6c-0.3-0.4-0.4-0.9-0.4-1.5
		c0-0.7,0.2-1.2,0.5-1.6c0.3-0.3,0.6-0.5,1.1-0.5c0.5,0,0.9,0.2,1.3,0.8v-2.7H227.5z M227.2,187.4c-0.3-0.6-0.8-0.9-1.3-0.9
		c-0.4,0-0.7,0.2-1,0.6c-0.2,0.3-0.3,0.8-0.3,1.3c0,0.6,0.1,1.1,0.4,1.4c0.2,0.3,0.5,0.4,0.9,0.4c0.5,0,0.9-0.3,1.2-0.8L227.2,187.4
		L227.2,187.4z"/>
	<path d="M232.4,186.3v4.1h-0.3v-0.8c-0.2,0.3-0.5,0.5-0.8,0.7c-0.3,0.1-0.5,0.2-0.8,0.2c-0.4,0-0.6-0.1-0.8-0.3
		c-0.2-0.2-0.3-0.5-0.3-0.8v-3.1h0.3v2.9c0,0.6,0.3,0.9,0.8,0.9c0.3,0,0.5-0.1,0.8-0.3c0.2-0.2,0.5-0.4,0.6-0.6v-2.9L232.4,186.3
		L232.4,186.3z"/>
	<path d="M237.2,187.3l-0.3,0.1c-0.2-0.6-0.6-1-1.1-1c-0.4,0-0.8,0.2-1,0.6c-0.2,0.3-0.3,0.8-0.3,1.3c0,0.6,0.1,1.1,0.4,1.4
		c0.2,0.3,0.5,0.4,0.9,0.4c0.6,0,1-0.3,1.2-1l0.3,0.1c-0.3,0.7-0.8,1.1-1.5,1.1c-0.5,0-0.9-0.2-1.2-0.6c-0.3-0.4-0.4-0.9-0.4-1.5
		c0-0.7,0.2-1.2,0.5-1.6c0.3-0.3,0.7-0.5,1.1-0.5c0.4,0,0.7,0.1,0.9,0.3C236.9,186.7,237.1,187,237.2,187.3z"/>
	<path d="M238.7,187.2c0.3-0.7,0.8-1,1.5-1c0.5,0,0.8,0.1,1,0.4c0.2,0.2,0.3,0.6,0.3,1v1.3c0,0.6,0,1.1,0.1,1.5h-0.3
		c0-0.2-0.1-0.4-0.1-0.8c-0.4,0.6-0.9,0.9-1.5,0.9c-0.4,0-0.8-0.1-1-0.4c-0.2-0.2-0.3-0.5-0.3-0.8c0-0.7,0.5-1.2,1.4-1.3
		c0.4-0.1,0.8-0.1,1.4-0.1v-0.2c0-0.4-0.1-0.8-0.3-0.9c-0.2-0.1-0.4-0.2-0.8-0.2c-0.6,0-1,0.3-1.2,0.9L238.7,187.2z M241.2,188.1
		c-0.5,0-0.9,0.1-1.3,0.1c-0.7,0.1-1.1,0.5-1.1,1.1c0,0.3,0.1,0.5,0.3,0.7c0.2,0.1,0.4,0.2,0.7,0.2c0.6,0,1.1-0.3,1.5-1L241.2,188.1
		L241.2,188.1z"/>
	<path d="M244,184.8v1.5h1v0.3h-1v2.9c0,0.5,0.2,0.8,0.6,0.8c0.2,0,0.4,0,0.5-0.1l0,0.3c-0.2,0-0.3,0.1-0.5,0.1
		c-0.3,0-0.6-0.1-0.7-0.3c-0.1-0.2-0.2-0.4-0.2-0.7v-2.9h-0.7v-0.3h0.7v-1.4L244,184.8z"/>
	<path d="M246.8,184.9v0.6h-0.5v-0.6H246.8z M246.7,186.3v4.1h-0.3v-4.1H246.7z"/>
	<path d="M250.1,186.2c0.5,0,0.9,0.2,1.2,0.6c0.3,0.4,0.4,0.9,0.4,1.5c0,0.7-0.2,1.2-0.5,1.6c-0.3,0.3-0.7,0.5-1.1,0.5
		c-0.5,0-0.9-0.2-1.2-0.6c-0.3-0.4-0.4-0.9-0.4-1.5c0-0.7,0.2-1.2,0.5-1.6C249.3,186.4,249.6,186.2,250.1,186.2z M250.1,186.5
		c-0.4,0-0.8,0.2-1,0.6c-0.2,0.3-0.3,0.8-0.3,1.3c0,0.6,0.1,1.1,0.4,1.4c0.2,0.3,0.5,0.4,0.9,0.4c0.4,0,0.8-0.2,1-0.6
		c0.2-0.3,0.3-0.8,0.3-1.3c0-0.6-0.1-1.1-0.4-1.4C250.8,186.6,250.5,186.5,250.1,186.5z"/>
	<path d="M253.8,186.3v0.8c0.5-0.6,1-0.9,1.5-0.9c0.4,0,0.6,0.1,0.8,0.3c0.2,0.2,0.3,0.4,0.3,0.8v3.1H256v-2.9c0-0.7-0.3-1-0.8-1
		c-0.5,0-1,0.3-1.5,0.9v2.9h-0.3v-4.1L253.8,186.3L253.8,186.3z"/>
</g>
<g>
	<path d="M229.7,198c-0.1,0.7-0.2,1.4-0.5,2.1c-0.2,0.6-0.4,1.1-0.7,1.5c-0.2,0.3-0.4,0.5-0.6,0.6c-0.1,0.1-0.3,0.1-0.5,0.1
		c-0.3,0-0.6-0.2-0.8-0.5c-0.2-0.3-0.3-0.7-0.3-1.2c0-0.4,0.1-0.8,0.3-1.2c0.2-0.4,0.4-0.7,0.7-0.9c0.6-0.6,1.4-0.8,2.3-0.8
		c1,0,1.7,0.3,2.2,0.8c0.4,0.4,0.7,1,0.7,1.8c0,0.7-0.2,1.3-0.8,1.8c-0.5,0.5-1.2,0.8-2,1c0,0,0,0,0,0c0,0-0.1,0-0.1-0.1
		c0-0.1-0.1-0.1-0.1-0.2c0.9-0.2,1.6-0.5,2.1-1.1c0.4-0.5,0.6-1,0.6-1.6c0-0.7-0.3-1.3-0.8-1.7c-0.4-0.3-1-0.5-1.6-0.5L229.7,198z
		 M229.4,198c-0.7,0.1-1.3,0.3-1.8,0.7c-0.3,0.3-0.6,0.7-0.7,1.1c-0.1,0.3-0.2,0.6-0.2,0.9c0,0.5,0.1,0.9,0.3,1.1
		c0.1,0.2,0.3,0.3,0.5,0.3c0.3,0,0.6-0.2,0.9-0.7c0.3-0.5,0.5-1,0.7-1.7C229.2,199.2,229.4,198.6,229.4,198z"/>
	<path d="M240.4,200h-4.6l-1.1,0c0,0,0,0,0-0.1v-0.2c0,0,0-0.1,0-0.1l1.1,0h2.2v-1.5h-1.8c-0.2,0.4-0.5,0.7-0.8,1
		c0,0-0.1,0.1-0.1,0.1s0,0-0.1-0.1c0,0-0.1-0.1-0.2-0.1c0.5-0.4,0.9-1,1.2-1.7c0.1-0.2,0.1-0.4,0.2-0.5c0.1,0,0.2,0.1,0.3,0.1
		c0,0,0.1,0.1,0.1,0.1c0,0,0,0.1-0.1,0.1c-0.1,0.1-0.1,0.1-0.1,0.2c-0.1,0.2-0.2,0.4-0.3,0.6h1.7v-0.5c0-0.4,0-0.8-0.1-1
		c0.1,0,0.2,0,0.3,0c0,0,0.1,0,0.1,0.1c0,0,0,0.1,0,0.1c0,0.1,0,0.4,0,0.7v0.5h1.3l1.1,0c0,0,0,0,0,0.1v0.2c0,0,0,0.1,0,0.1l-1.1,0
		h-1.3v1.5h2.1l1.1,0c0,0,0,0,0,0.1v0.2c0,0,0,0.1,0,0.1L240.4,200z M240.2,203.8C240.2,203.8,240.2,203.8,240.2,203.8l0-0.5h-3.9
		v0.5c0,0,0,0.1,0,0.1H236c0,0,0,0,0-0.1l0-1.3v-0.6l0-0.8c0,0,0-0.1,0-0.1l1.1,0h2.1l1.1,0c0,0,0,0,0,0.1l0,0.7v0.7l0,1.3
		c0,0,0,0.1,0,0.1H240.2z M236.2,201.2v1.8h3.9v-1.8H236.2z"/>
	<path d="M245.8,200.1h-0.5c0,0.2,0,0.3-0.1,0.4c0.2,0.5,0.5,0.9,0.7,1.2c0.2,0.3,0.5,0.6,0.8,0.8c-0.1,0-0.1,0.1-0.1,0.1
		c0,0,0,0.1,0,0.1s0,0-0.1-0.1c-0.6-0.6-1-1.2-1.4-1.9L245,201c-0.3,0.9-0.8,1.7-1.6,2.4c0,0-0.1,0.1-0.1,0.1c0,0,0,0-0.1-0.1
		c0,0-0.1-0.1-0.2-0.1c0.5-0.4,0.9-0.8,1.2-1.2c0.2-0.3,0.4-0.7,0.5-1.2c0.1-0.2,0.1-0.5,0.2-0.8h-0.7l-1,0c0,0,0,0,0-0.1v-0.2
		c0,0,0-0.1,0-0.1l1,0h0.7c0-0.4,0.1-1,0.1-1.7h-0.9c-0.2,0.4-0.4,0.7-0.7,1c0,0,0,0.1-0.1,0.1c0,0,0,0-0.1-0.1c0,0-0.1-0.1-0.1-0.1
		c0.5-0.6,0.9-1.3,1.1-2.1c0-0.1,0.1-0.3,0.1-0.4c0.1,0,0.2,0.1,0.3,0.1c0,0,0,0,0,0.1s0,0.1,0,0.1c0,0.1-0.1,0.1-0.1,0.2
		c-0.1,0.3-0.2,0.6-0.3,0.8h1.5l0.8,0c0,0,0,0,0,0.1v0.2c0,0,0,0.1,0,0.1l-0.8,0h-0.5c0,0.7,0,1.3-0.1,1.7h0.5l1,0c0,0,0,0,0,0.1
		v0.2c0,0,0,0.1,0,0.1L245.8,200.1z M249.8,203.4C249.8,203.4,249.8,203.4,249.8,203.4l0-0.7h-2.3v0.7c0,0,0,0.1,0,0.1h-0.2
		c0,0,0,0,0-0.1l0-2v-2.3l0-1.6c0,0,0-0.1,0-0.1l0.9,0h1l0.9,0c0,0,0,0,0,0.1l0,1.4v2.5l0,2c0,0,0,0.1,0,0.1L249.8,203.4
		L249.8,203.4z M247.5,197.7v4.8h2.3v-4.8H247.5z"/>
</g>
<rect x="88.9" y="311.7" class="st1" width="84.8" height="29.2"/>
<g>
	<g>
		<defs>
			<rect id="SVGID_7_" x="88.4" y="3.5" width="193" height="425.9"/>
		</defs>
		<clipPath id="SVGID_8_">
			<use xlink:href="#SVGID_7_"  style="overflow:visible;"/>
		</clipPath>
		<path class="st5" d="M174.2,341.4H88.4v-30.2h85.8V341.4z M89.4,340.4h83.8v-28.2H89.4V340.4z"/>
	</g>
</g>
<g>
	<path d="M122.7,325.7v0.8c0.5-0.6,1-0.9,1.5-0.9c0.4,0,0.6,0.1,0.8,0.3c0.2,0.2,0.3,0.5,0.3,0.8v3.1H125v-2.9c0-0.7-0.3-1-0.8-1
		c-0.5,0-1,0.3-1.5,0.9v3h-0.3v-4.1L122.7,325.7L122.7,325.7z"/>
	<path d="M130.3,327.7h-3c0,0.6,0.1,1.1,0.5,1.5c0.2,0.3,0.6,0.4,0.9,0.4c0.4,0,0.6-0.1,0.8-0.2c0.2-0.1,0.3-0.4,0.4-0.7l0.3,0.1
		c-0.3,0.7-0.8,1-1.6,1c-0.5,0-0.9-0.2-1.3-0.6c-0.3-0.4-0.4-0.9-0.4-1.5c0-0.7,0.2-1.2,0.5-1.6c0.3-0.3,0.7-0.5,1.1-0.5
		c0.5,0,0.9,0.2,1.2,0.6C130.1,326.6,130.2,327,130.3,327.7L130.3,327.7L130.3,327.7z M129.9,327.4c-0.1-0.5-0.2-0.9-0.5-1.2
		c-0.2-0.2-0.5-0.3-0.8-0.3c-0.4,0-0.7,0.1-0.9,0.5c-0.2,0.3-0.4,0.6-0.4,1.1L129.9,327.4L129.9,327.4z"/>
	<path d="M136.9,325.7l-1.3,4.1h-0.4l-0.8-2.8c-0.1-0.3-0.2-0.6-0.2-1h0c-0.1,0.4-0.2,0.7-0.2,1l-0.8,2.8h-0.4l-1.2-4.1h0.4l0.8,2.9
		c0.1,0.3,0.2,0.6,0.2,1h0c0.1-0.4,0.1-0.7,0.2-1l0.8-2.9h0.4l0.8,2.8c0.1,0.3,0.2,0.6,0.2,1h0c0.1-0.3,0.1-0.6,0.3-1l0.8-2.8H136.9
		z"/>
	<path d="M140.8,326.5l-0.3,0.1c-0.2-0.5-0.5-0.8-1.1-0.8c-0.4,0-0.6,0.1-0.8,0.2c-0.2,0.1-0.2,0.3-0.2,0.5c0,0.2,0.1,0.4,0.2,0.6
		c0.1,0.1,0.4,0.2,0.7,0.3l0.3,0.1c0.5,0.1,0.8,0.2,1,0.4c0.2,0.2,0.3,0.4,0.3,0.7c0,0.4-0.1,0.6-0.4,0.9c-0.3,0.2-0.6,0.3-1.1,0.3
		c-0.4,0-0.7-0.1-1-0.3c-0.2-0.2-0.4-0.4-0.5-0.7l0.3-0.1c0.2,0.6,0.6,0.8,1.2,0.8c0.4,0,0.7-0.1,0.9-0.3c0.1-0.1,0.2-0.3,0.2-0.6
		c0-0.3-0.1-0.5-0.2-0.6c-0.1-0.1-0.4-0.2-0.8-0.3l-0.3-0.1c-0.5-0.1-0.8-0.2-1-0.5c-0.1-0.2-0.2-0.4-0.2-0.6c0-0.3,0.1-0.6,0.4-0.8
		c0.2-0.2,0.6-0.3,1-0.3C140.1,325.6,140.6,325.9,140.8,326.5z"/>
</g>
<rect x="88.9" y="355.7" class="st1" width="84.8" height="29.2"/>
<g>
	<g>
		<defs>
			<rect id="SVGID_9_" x="88.4" y="3.5" width="193" height="425.9"/>
		</defs>
		<clipPath id="SVGID_10_">
			<use xlink:href="#SVGID_9_"  style="overflow:visible;"/>
		</clipPath>
		<path class="st6" d="M174.2,385.4H88.4v-30.1h85.8V385.4z M89.4,384.4h83.8v-28.1H89.4V384.4z"/>
	</g>
</g>
<g>
	<path d="M122.6,367.6l-0.1,0.3c-0.2,0-0.3,0-0.4,0c-0.3,0-0.4,0.1-0.6,0.2c-0.1,0.1-0.1,0.3-0.1,0.5v1h1v0.3h-1v3.8h-0.3v-3.8h-0.8
		v-0.3h0.8v-1c0-0.7,0.3-1,1-1C122.2,367.6,122.4,367.6,122.6,367.6z"/>
	<path d="M125.2,369.5c0.5,0,0.9,0.2,1.2,0.6c0.3,0.4,0.4,0.9,0.4,1.5c0,0.7-0.2,1.2-0.5,1.6c-0.3,0.3-0.7,0.5-1.1,0.5
		c-0.5,0-0.9-0.2-1.2-0.6c-0.3-0.4-0.4-0.9-0.4-1.5c0-0.7,0.2-1.2,0.5-1.6C124.4,369.7,124.8,369.5,125.2,369.5z M125.2,369.8
		c-0.4,0-0.8,0.2-1,0.5c-0.2,0.3-0.3,0.8-0.3,1.3c0,0.6,0.1,1.1,0.4,1.4c0.2,0.3,0.5,0.4,0.9,0.4c0.4,0,0.8-0.2,1-0.5
		c0.2-0.3,0.3-0.8,0.3-1.3c0-0.6-0.1-1.1-0.4-1.4C125.9,370,125.6,369.8,125.2,369.8z"/>
	<path d="M130,369.5c0.5,0,0.9,0.2,1.2,0.6c0.3,0.4,0.4,0.9,0.4,1.5c0,0.7-0.2,1.2-0.5,1.6c-0.3,0.3-0.7,0.5-1.1,0.5
		c-0.5,0-0.9-0.2-1.2-0.6c-0.3-0.4-0.4-0.9-0.4-1.5c0-0.7,0.2-1.2,0.5-1.6C129.1,369.7,129.5,369.5,130,369.5z M130,369.8
		c-0.4,0-0.8,0.2-1,0.5c-0.2,0.3-0.3,0.8-0.3,1.3c0,0.6,0.1,1.1,0.4,1.4c0.2,0.3,0.5,0.4,0.9,0.4c0.4,0,0.8-0.2,1-0.5
		c0.2-0.3,0.3-0.8,0.3-1.3c0-0.6-0.1-1.1-0.4-1.4C130.6,370,130.3,369.8,130,369.8z"/>
	<path d="M133.8,368.1v1.5h1v0.3h-1v2.9c0,0.5,0.2,0.8,0.6,0.8c0.2,0,0.4,0,0.5-0.1l0,0.3c-0.2,0-0.3,0-0.5,0
		c-0.3,0-0.6-0.1-0.7-0.3c-0.1-0.2-0.2-0.4-0.2-0.7v-2.9h-0.7v-0.3h0.7v-1.4L133.8,368.1z"/>
	<path d="M139.2,371.6h-3c0,0.6,0.1,1.1,0.5,1.5c0.2,0.3,0.5,0.4,0.9,0.4c0.4,0,0.6-0.1,0.8-0.2c0.2-0.1,0.3-0.4,0.4-0.7l0.3,0.1
		c-0.3,0.7-0.8,1-1.6,1c-0.5,0-1-0.2-1.3-0.6c-0.3-0.4-0.4-0.9-0.4-1.5c0-0.7,0.2-1.2,0.5-1.6c0.3-0.3,0.7-0.5,1.1-0.5
		c0.5,0,0.9,0.2,1.2,0.6C139.1,370.5,139.2,371,139.2,371.6L139.2,371.6L139.2,371.6z M138.9,371.4c0-0.5-0.2-0.9-0.5-1.2
		c-0.2-0.2-0.5-0.3-0.8-0.3c-0.4,0-0.7,0.1-0.9,0.5c-0.2,0.3-0.4,0.6-0.4,1.1L138.9,371.4L138.9,371.4z"/>
	<path d="M142.6,369.5l0,0.3c-0.3,0-0.6,0.1-0.9,0.4c-0.2,0.2-0.4,0.6-0.5,1v2.5h-0.3v-4.1h0.3v1.1c0.2-0.4,0.4-0.7,0.7-0.9
		C142.1,369.6,142.4,369.5,142.6,369.5z"/>
</g>
<g>
	<g>
		<defs>
			<rect id="SVGID_11_" x="88.4" y="3.5" width="193" height="425.9"/>
		</defs>
		<clipPath id="SVGID_12_">
			<use xlink:href="#SVGID_11_"  style="overflow:visible;"/>
		</clipPath>
		<path class="st7" d="M150.2,33.2h-37.5c-6.3,0-11.4-5.1-11.4-11.4v-6.4c0-6.3,5.1-11.4,11.4-11.4h37.5c6.3,0,11.4,5.1,11.4,11.4
			v6.4C161.6,28.1,156.5,33.2,150.2,33.2"/>
	</g>
	<g>
		<defs>
			<rect id="SVGID_13_" x="88.4" y="3.5" width="193" height="425.9"/>
		</defs>
		<clipPath id="SVGID_14_">
			<use xlink:href="#SVGID_13_"  style="overflow:visible;"/>
		</clipPath>
		<path class="st8" d="M150.2,33.7h-37.5c-6.6,0-11.9-5.3-11.9-11.9v-6.4c0-6.6,5.3-11.9,11.9-11.9h37.5c6.5,0,11.9,5.3,11.9,11.9
			v6.4C162.1,28.4,156.7,33.7,150.2,33.7z M112.7,4.6c-6,0-10.9,4.9-10.9,10.9v6.4c0,6,4.9,10.9,10.9,10.9h37.5
			c6,0,10.9-4.9,10.9-10.9v-6.4c0-6-4.9-10.9-10.9-10.9C150.2,4.6,112.7,4.6,112.7,4.6z"/>
	</g>
</g>
<g>
	<path d="M117.1,15.4c0.1,0,0.2,0.1,0.3,0.1c0,0,0.1,0.1,0.1,0.1c0,0,0,0,0,0.1c0,0.1-0.1,0.2-0.1,0.4c-0.3,1.4-0.4,2.4-0.4,3.1
		c0,0.6,0,1.2,0.1,1.7c0.1-0.2,0.2-0.5,0.3-0.8c0.1-0.3,0.2-0.6,0.3-0.7c0,0,0.1,0.1,0.1,0.2c0,0,0,0,0,0.1c0,0,0,0,0,0.1
		c-0.3,0.7-0.5,1.2-0.5,1.4c0,0.1,0,0.1,0,0.2c0,0,0,0.1,0,0.1c0,0,0,0,0,0.1s0,0,0,0c-0.1,0-0.1,0.1-0.2,0.1c0,0,0,0,0,0
		c0,0,0,0-0.1,0c-0.1-0.4-0.2-0.8-0.3-1.3c0-0.2,0-0.6,0-1c0-0.6,0.1-1.6,0.4-3.1c0-0.2,0-0.4,0-0.5
		C117.1,15.6,117.1,15.5,117.1,15.4z M120.9,20c-0.1-1.1-0.1-2-0.1-2.6c-0.4,0-0.8,0-1.1,0c-0.3,0-0.5,0-0.8,0c0,0-0.1,0-0.1,0
		c0-0.1,0-0.2,0-0.2c0.3,0,0.6,0,0.8,0c0.4,0,0.8,0,1.2-0.1c0-0.5,0-0.8,0-1c0-0.3,0-0.5-0.1-0.7c0.1,0,0.3,0.1,0.4,0.1
		c0,0,0.1,0,0.1,0.1s0,0.1,0,0.1c0,0.1,0,0.2-0.1,0.5c0,0.2,0,0.5,0,1c0.4,0,0.9-0.1,1.4-0.2c0,0,0,0,0,0c0,0,0,0,0,0
		c0,0,0,0.1,0,0.2c0,0,0,0.1,0,0.1c-0.4,0.1-0.9,0.2-1.4,0.2c0,0.9,0,1.8,0.1,2.7c0.6,0.2,1.1,0.5,1.5,0.9c0,0,0,0,0,0c0,0,0,0,0,0
		c0,0.1-0.1,0.1-0.1,0.2c0,0,0,0,0,0s0,0,0,0c-0.5-0.4-0.9-0.6-1.4-0.8c0,0.4-0.1,0.7-0.4,0.9c-0.2,0.2-0.5,0.2-0.9,0.2
		c-0.4,0-0.6-0.1-0.9-0.2c-0.2-0.1-0.3-0.3-0.3-0.6c0-0.3,0.1-0.5,0.4-0.7c0.2-0.1,0.5-0.2,0.8-0.2C120.2,19.8,120.5,19.9,120.9,20z
		 M120.9,20.2c-0.4-0.1-0.7-0.2-1-0.2c-0.3,0-0.5,0.1-0.7,0.2c-0.1,0.1-0.2,0.2-0.2,0.4c0,0.2,0.1,0.3,0.3,0.4
		c0.2,0.1,0.4,0.1,0.6,0.1c0.7,0,1-0.3,1-0.8V20.2z"/>
	<path d="M126.5,15.3c0.2,0,0.3,0.1,0.4,0.1c0.1,0,0.1,0.1,0.1,0.1c0,0,0,0.1-0.1,0.2c0,0.1-0.1,0.3-0.1,0.7
		c-0.1,1.6-0.1,2.8-0.1,3.6c0,0.5,0.1,0.9,0.3,1.1c0.2,0.2,0.5,0.3,0.8,0.3c1.1,0,2.1-0.5,3-1.6c0,0.1,0.1,0.2,0.1,0.3c0,0,0,0,0,0
		c0,0,0,0,0,0.1c-1,1-2.1,1.5-3.2,1.5c-0.9,0-1.4-0.5-1.4-1.7c0-0.4,0-1,0.1-1.9c0-1,0.1-1.5,0.1-1.8c0-0.2,0-0.4,0-0.5
		C126.5,15.6,126.5,15.4,126.5,15.3z M129.4,16.1l0.2-0.1c0,0,0,0,0,0s0,0,0,0c0.3,0.2,0.6,0.5,0.8,0.9c0,0,0,0,0,0c0,0,0,0,0,0
		l-0.1,0.1c0,0,0,0,0,0s0,0,0,0C130,16.7,129.7,16.3,129.4,16.1z M130,15.6l0.2-0.1c0,0,0,0,0,0s0,0,0,0c0.4,0.3,0.6,0.6,0.9,1
		c0,0,0,0,0,0c0,0,0,0,0,0l-0.1,0.1c0,0,0,0,0,0c0,0,0,0,0,0C130.6,16.2,130.3,15.9,130,15.6z"/>
	<path d="M136.7,20.1c0-0.6,0-1.1-0.1-1.5c-0.3,0-0.6,0-1,0c-0.4,0-0.8,0-1.1,0c0,0-0.1,0-0.1-0.1c0,0,0-0.1,0-0.2
		c0.4,0,0.8,0.1,1.3,0.1c0.3,0,0.6,0,0.9,0c0-0.3,0-0.8,0-1.4c-0.3,0-0.6,0-0.9,0c-0.5,0-1,0-1.4-0.1c0,0,0,0,0-0.1
		c0-0.1,0-0.2,0-0.2c0.5,0.1,1,0.1,1.5,0.1c0.3,0,0.6,0,0.9,0v-0.9c0-0.2,0-0.4-0.1-0.5c0.2,0,0.3,0,0.4,0.1c0,0,0.1,0.1,0.1,0.1
		c0,0,0,0,0,0.1c0,0.1-0.1,0.2-0.1,0.4c0,0.3,0,0.6,0,0.9c0.6,0,1.4-0.1,2.2-0.3c0,0,0,0,0,0c0,0,0,0,0,0c0,0.1,0,0.2,0,0.2
		c0,0,0,0,0,0c-0.7,0.1-1.4,0.2-2.2,0.2c0,0.6,0,1.1,0,1.4c0.7,0,1.4-0.1,2-0.3c0,0,0,0,0,0c0,0,0,0,0,0v0.2c0,0,0,0.1,0,0.1
		c-0.6,0.1-1.3,0.2-2,0.2c0,0.3,0,0.8,0.1,1.6c0.6,0.2,1.4,0.5,2.2,1.1c0,0,0,0,0,0.1c0,0,0,0,0,0c0,0-0.1,0.1-0.1,0.2c0,0,0,0,0,0
		s0,0,0,0c-0.7-0.6-1.4-0.9-2.1-1.1c0,0.5-0.1,0.9-0.4,1.1c-0.2,0.2-0.5,0.2-1,0.2c-0.9,0-1.3-0.3-1.3-0.9c0-0.3,0.1-0.5,0.4-0.6
		c0.3-0.2,0.6-0.2,1-0.2C136,20,136.3,20.1,136.7,20.1z M136.7,20.4c-0.4-0.1-0.7-0.1-1-0.1c-0.4,0-0.7,0.1-0.9,0.2
		c-0.2,0.1-0.2,0.2-0.2,0.4c0,0.4,0.3,0.6,1,0.6c0.5,0,0.8-0.1,0.9-0.3c0.1-0.2,0.2-0.4,0.2-0.7C136.7,20.5,136.7,20.5,136.7,20.4z"
		/>
	<path d="M144,15.2c0.1,0,0.2,0.1,0.3,0.1c0,0,0.1,0.1,0.1,0.1c0,0,0,0.1,0,0.1c0,0.1-0.1,0.2-0.1,0.3c-0.2,0.9-0.3,1.6-0.3,2.2
		c0,0.4,0,0.7,0.1,1c0.1-0.3,0.3-0.7,0.6-1.3c0,0.1,0.1,0.1,0.1,0.2c0,0,0,0.1,0,0.1s0,0,0,0.1c-0.2,0.3-0.4,0.7-0.5,1.1
		c0,0.1-0.1,0.2-0.1,0.2c0,0,0,0,0,0c0,0,0,0,0,0c0,0,0,0,0,0.1c0,0-0.1,0-0.2,0c0,0,0,0-0.1-0.1c-0.1-0.3-0.2-0.8-0.2-1.5
		c0-0.5,0.1-1.1,0.2-1.9c0.1-0.3,0.1-0.6,0.1-0.7C144,15.4,144,15.3,144,15.2z M146.5,15.3c0.1,0,0.2,0,0.3,0c0.1,0,0.1,0,0.1,0.1
		c0,0,0,0,0,0c0,0,0,0.1,0,0.2c0,0,0,0.1,0,0.2c0,1,0.1,1.7,0.1,2.2c0,1.1-0.2,2-0.7,2.6c-0.4,0.5-0.8,0.8-1.4,1.1c0,0,0,0-0.1,0
		s0,0-0.1,0c-0.1,0-0.1-0.1-0.2-0.1c0.7-0.3,1.2-0.7,1.5-1.2c0.5-0.6,0.7-1.4,0.7-2.4c0-0.5,0-1.1-0.1-2
		C146.7,15.8,146.6,15.5,146.5,15.3z"/>
</g>
<g>
	<g>
		<defs>
			<rect id="SVGID_15_" x="88.4" y="3.5" width="193" height="425.9"/>
		</defs>
		<clipPath id="SVGID_16_">
			<use xlink:href="#SVGID_15_"  style="overflow:visible;"/>
		</clipPath>
		<path class="st9" d="M150.2,428.8h-37.5c-6.3,0-11.4-5.1-11.4-11.4V411c0-6.3,5.1-11.4,11.4-11.4h37.5c6.3,0,11.4,5.1,11.4,11.4
			v6.4C161.6,423.7,156.5,428.8,150.2,428.8"/>
	</g>
	<g>
		<defs>
			<rect id="SVGID_17_" x="88.4" y="3.5" width="193" height="425.9"/>
		</defs>
		<clipPath id="SVGID_18_">
			<use xlink:href="#SVGID_17_"  style="overflow:visible;"/>
		</clipPath>
		<path class="st10" d="M150.2,429.3h-37.5c-6.6,0-11.9-5.3-11.9-11.9V411c0-6.5,5.3-11.9,11.9-11.9h37.5c6.5,0,11.9,5.3,11.9,11.9
			v6.4C162.1,424,156.7,429.3,150.2,429.3z M112.7,400.1c-6,0-10.9,4.9-10.9,10.9v6.4c0,6,4.9,10.9,10.9,10.9h37.5
			c6,0,10.9-4.9,10.9-10.9V411c0-6-4.9-10.9-10.9-10.9H112.7z"/>
	</g>
</g>
<g>
	<path d="M121.6,412.5v-0.7c0-0.4,0-0.6-0.1-0.9c0.2,0,0.3,0,0.4,0.1c0,0,0.1,0,0.1,0.1c0,0,0,0.1,0,0.1c0,0.1-0.1,0.2-0.1,0.5
		c0,0.3,0,0.5,0,0.8c0.5-0.1,0.9-0.2,1.4-0.4c0,0,0,0,0,0c0,0,0,0,0,0c0,0.1,0,0.1,0,0.2c0,0,0,0.1-0.1,0.1
		c-0.4,0.1-0.9,0.3-1.4,0.4v1.9c0.6-0.3,0.9-0.5,1.2-0.6c0.4-0.1,0.7-0.2,1.1-0.2c0.5,0,0.9,0.1,1.2,0.5c0.2,0.2,0.3,0.5,0.3,0.9
		c0,0.5-0.2,0.9-0.5,1.1c-0.3,0.2-0.7,0.3-1.1,0.3c-0.2,0-0.4,0-0.7-0.1c0,0-0.1,0-0.1-0.1c0-0.1,0-0.2-0.1-0.3
		c0.3,0.1,0.5,0.2,0.8,0.2c0.4,0,0.8-0.1,1-0.3c0.2-0.2,0.3-0.5,0.3-0.8c0-0.4-0.1-0.7-0.4-0.9c-0.2-0.2-0.5-0.3-0.9-0.3
		c-0.5,0-1.2,0.3-2.2,0.8v0.8l0,1.2c0,0.1,0,0.2-0.1,0.2s-0.1,0-0.1,0c0,0,0,0,0,0s0,0-0.1-0.1c-0.1-0.1-0.1-0.2-0.3-0.3
		c-0.1-0.1-0.4-0.2-0.6-0.4c-0.3-0.2-0.5-0.4-0.6-0.4c-0.1,0.1-0.2,0.1-0.3,0.2c0,0-0.1,0-0.1,0s-0.1,0-0.1,0
		c-0.1-0.1-0.1-0.2-0.1-0.3c0.2,0,0.5-0.1,0.8-0.3c0.2-0.1,0.7-0.3,1.3-0.7v-2c-0.5,0.1-1,0.1-1.4,0.1c-0.1,0-0.1,0-0.2,0
		c-0.1,0-0.1,0-0.1-0.1v-0.2c0.1,0,0.3,0,0.4,0C120.6,412.6,121,412.6,121.6,412.5z M121.6,415.1l-1.3,0.7c0.5,0.3,0.9,0.6,1.2,0.7
		c0,0,0,0,0.1,0c0,0,0,0,0-0.1c0-0.2,0-0.4,0-0.7S121.6,415.2,121.6,415.1z M124.4,412.1c0-0.1,0-0.1,0.1-0.2c0,0,0,0,0.1,0
		c0,0,0,0,0,0c0.3,0,0.6,0.1,0.9,0.3c0.3,0.1,0.5,0.3,0.6,0.5c0,0,0,0,0,0s0,0,0,0l-0.1,0.1c0,0,0,0,0,0s0,0,0,0
		C125.6,412.5,125.1,412.2,124.4,412.1z"/>
	<path d="M129.9,410.6c0.2,0,0.4,0,0.4,0.1c0,0,0,0,0,0.1c0,0,0,0,0,0.1c0,0,0,0.1-0.1,0.3c0,0.6-0.1,1-0.1,1.3
		c0.1,0,0.1-0.1,0.2-0.1c0,0,0,0,0.1,0c0,0,0.1,0,0.1,0c0.1,0,0.1,0.1,0.1,0.1s0,0.1-0.1,0.1c-0.1,0.1-0.2,0.3-0.4,0.6
		c0,0.2,0,0.4,0,0.6c0.9-0.8,1.8-1.1,2.6-1.1c0.6,0,1.1,0.2,1.5,0.6c0.3,0.3,0.4,0.8,0.4,1.2c0,0.5-0.2,1-0.6,1.5
		c-0.4,0.5-0.9,0.8-1.6,0.9c0,0,0,0-0.1,0c0,0-0.1,0-0.1,0c-0.1-0.1-0.1-0.1-0.2-0.1c0.8-0.2,1.4-0.5,1.8-1c0.3-0.4,0.5-0.8,0.5-1.3
		c0-0.5-0.2-0.9-0.5-1.2c-0.3-0.2-0.7-0.4-1.1-0.4c-0.9,0-1.7,0.4-2.6,1.2c0,0.4,0,0.8,0,1.2c0,0.6,0,1.2,0,2c0,0,0,0.1,0,0.1
		c0,0-0.1,0-0.2,0c0,0,0,0,0,0c0-0.5,0-1,0-1.7c0-0.8,0-1.3,0-1.6c-0.6,0.8-1.1,1.6-1.6,2.3c0,0,0,0-0.1,0c0,0,0,0,0,0
		c-0.1-0.1-0.1-0.1-0.2-0.2c0,0,0,0,0,0c0,0,0,0,0-0.1c0.6-0.8,1.2-1.6,1.9-2.5c0,0,0-0.2,0-0.5c0-0.1,0-0.3,0-0.4
		c-0.4,0.1-0.8,0.2-1,0.3c-0.1,0-0.3,0.1-0.4,0.2c0,0,0,0-0.1,0c0,0-0.1,0-0.1,0c-0.1-0.1-0.1-0.1-0.2-0.3c0.2,0,0.4,0,0.5-0.1
		c0.5-0.1,0.9-0.2,1.2-0.3c0-0.3,0-0.7,0-1.1c0-0.1,0-0.1,0-0.2C130,411,130,410.8,129.9,410.6z"/>
	<path d="M138.6,410.8c0.1,0,0.2,0.1,0.3,0.1c0,0,0.1,0.1,0.1,0.1c0,0,0,0,0,0.1c0,0.1-0.1,0.2-0.1,0.3c-0.2,0.9-0.3,1.6-0.3,2.1
		c0,0.4,0,0.7,0.1,1c0.1-0.3,0.3-0.7,0.6-1.3c0,0.1,0.1,0.1,0.1,0.2c0,0,0,0.1,0,0.1s0,0,0,0.1c-0.2,0.3-0.4,0.7-0.5,1.1
		c0,0.1-0.1,0.2-0.1,0.2c0,0,0,0,0,0s0,0,0,0c0,0,0,0,0,0.1c0,0-0.1,0-0.2,0c0,0,0,0-0.1-0.1c-0.1-0.3-0.2-0.8-0.2-1.5
		c0-0.5,0.1-1.1,0.2-1.9c0.1-0.3,0.1-0.6,0.1-0.7C138.6,411,138.6,410.9,138.6,410.8z M141.2,410.9c0.1,0,0.2,0,0.3,0
		c0.1,0,0.1,0,0.1,0.1c0,0,0,0,0,0c0,0,0,0.1,0,0.2c0,0,0,0.1,0,0.2c0,1,0.1,1.7,0.1,2.2c0,1.1-0.2,2-0.7,2.6
		c-0.4,0.5-0.8,0.8-1.4,1.1c0,0,0,0-0.1,0s0,0-0.1,0c-0.1,0-0.1-0.1-0.2-0.1c0.7-0.3,1.2-0.7,1.5-1.2c0.5-0.6,0.7-1.4,0.7-2.4
		c0-0.5,0-1.1-0.1-2C141.3,411.4,141.3,411.1,141.2,410.9z"/>
</g>
<g>
	<g>
		<defs>
			<rect id="SVGID_19_" x="88.4" y="3.5" width="193" height="425.9"/>
		</defs>
		<clipPath id="SVGID_20_">
			<use xlink:href="#SVGID_19_"  style="overflow:visible;"/>
		</clipPath>
		<rect x="89" y="92" class="st11" width="84.8" height="29.2"/>
	</g>
	<g>
		<defs>
			<rect id="SVGID_21_" x="88.4" y="3.5" width="193" height="425.9"/>
		</defs>
		<clipPath id="SVGID_22_">
			<use xlink:href="#SVGID_21_"  style="overflow:visible;"/>
		</clipPath>
		<path class="st12" d="M174.3,121.6H88.5V91.5h85.8V121.6z M89.5,120.6h83.8V92.5H89.5L89.5,120.6L89.5,120.6z"/>
	</g>
</g>
<g>
	<path d="M121.2,106.2c0.3-0.7,0.8-1,1.5-1c0.5,0,0.8,0.1,1.1,0.4c0.2,0.2,0.3,0.6,0.3,1v1.3c0,0.7,0,1.1,0.1,1.5h-0.3
		c-0.1-0.2-0.1-0.4-0.1-0.8c-0.4,0.6-0.9,0.9-1.5,0.9c-0.4,0-0.8-0.1-1-0.4c-0.2-0.2-0.3-0.5-0.3-0.8c0-0.7,0.4-1.2,1.4-1.3
		c0.4-0.1,0.8-0.1,1.4-0.1v-0.2c0-0.4-0.1-0.8-0.3-0.9c-0.2-0.2-0.4-0.2-0.8-0.2c-0.6,0-1.1,0.3-1.2,0.9L121.2,106.2z M123.8,107
		c-0.5,0-0.9,0.1-1.3,0.1c-0.7,0.1-1.1,0.5-1.1,1.1c0,0.3,0.1,0.5,0.3,0.7c0.2,0.1,0.4,0.2,0.7,0.2c0.6,0,1.1-0.3,1.5-1L123.8,107
		L123.8,107z"/>
	<path d="M126.4,103.2v2.7c0.2-0.3,0.4-0.5,0.6-0.6c0.2-0.1,0.4-0.2,0.6-0.2c0.5,0,0.9,0.2,1.2,0.7c0.3,0.4,0.4,0.9,0.4,1.5
		c0,0.7-0.2,1.2-0.5,1.6c-0.3,0.3-0.7,0.5-1.1,0.5c-0.5,0-0.9-0.3-1.2-0.8l-0.1,0.7h-0.3v-6.1L126.4,103.2L126.4,103.2z
		 M126.4,106.3v2c0.2,0.3,0.4,0.6,0.6,0.7c0.2,0.1,0.4,0.2,0.6,0.2c0.4,0,0.7-0.2,1-0.6c0.2-0.3,0.3-0.8,0.3-1.3
		c0-0.6-0.1-1.1-0.4-1.4c-0.2-0.3-0.5-0.4-0.9-0.4C127.1,105.4,126.7,105.7,126.4,106.3z"/>
	<path d="M132.3,105.1c0.5,0,0.9,0.2,1.2,0.7c0.3,0.4,0.4,0.9,0.4,1.5c0,0.7-0.2,1.2-0.5,1.6c-0.3,0.3-0.7,0.5-1.1,0.5
		c-0.5,0-0.9-0.2-1.2-0.7c-0.3-0.4-0.4-0.9-0.4-1.5c0-0.7,0.2-1.2,0.5-1.6C131.5,105.3,131.9,105.1,132.3,105.1z M132.3,105.4
		c-0.4,0-0.8,0.2-1,0.6c-0.2,0.3-0.3,0.8-0.3,1.3c0,0.6,0.1,1.1,0.4,1.4c0.2,0.3,0.5,0.4,0.9,0.4c0.4,0,0.8-0.2,1-0.6
		c0.2-0.3,0.3-0.8,0.3-1.3c0-0.6-0.1-1.1-0.4-1.4C133,105.6,132.7,105.4,132.3,105.4z"/>
	<path d="M138.6,105.2v4.1h-0.3v-0.8c-0.2,0.3-0.5,0.5-0.8,0.7c-0.3,0.2-0.5,0.2-0.8,0.2c-0.4,0-0.6-0.1-0.8-0.3
		c-0.2-0.2-0.3-0.5-0.3-0.8v-3.1h0.3v2.9c0,0.6,0.3,0.9,0.8,0.9c0.3,0,0.5-0.1,0.8-0.3c0.2-0.2,0.5-0.4,0.6-0.7v-2.9L138.6,105.2
		L138.6,105.2z"/>
	<path d="M141,103.7v1.5h1v0.3h-1v2.9c0,0.5,0.2,0.8,0.6,0.8c0.2,0,0.4,0,0.5-0.1l0,0.3c-0.2,0-0.3,0.1-0.5,0.1
		c-0.3,0-0.6-0.1-0.7-0.3c-0.1-0.2-0.2-0.4-0.2-0.7v-2.9H140v-0.3h0.7v-1.4L141,103.7z"/>
</g>
<g>
	<g>
		<defs>
			<rect id="SVGID_23_" x="88.4" y="3.5" width="193" height="425.9"/>
		</defs>
		<clipPath id="SVGID_24_">
			<use xlink:href="#SVGID_23_"  style="overflow:visible;"/>
		</clipPath>
		<rect x="88.9" y="135.9" class="st13" width="84.8" height="29.2"/>
	</g>
	<g>
		<defs>
			<rect id="SVGID_25_" x="88.4" y="3.5" width="193" height="425.9"/>
		</defs>
		<clipPath id="SVGID_26_">
			<use xlink:href="#SVGID_25_"  style="overflow:visible;"/>
		</clipPath>
		<path class="st14" d="M174.2,165.6H88.4v-30.2h85.8V165.6z M89.4,164.6h83.8v-28.2H89.4V164.6z"/>
	</g>
</g>
<g>
	<path d="M119.1,149.2v0.7c0.2-0.3,0.4-0.5,0.6-0.6c0.2-0.1,0.4-0.2,0.6-0.2c0.5,0,0.9,0.2,1.2,0.6c0.3,0.4,0.4,0.9,0.4,1.5
		c0,0.7-0.2,1.2-0.5,1.6c-0.3,0.3-0.7,0.5-1.1,0.5c-0.5,0-0.9-0.3-1.2-0.8v2.1h-0.3v-5.5L119.1,149.2L119.1,149.2z M119.1,150.3v2
		c0.2,0.3,0.4,0.6,0.6,0.7c0.2,0.1,0.4,0.2,0.6,0.2c0.4,0,0.7-0.2,1-0.6c0.2-0.3,0.3-0.8,0.3-1.3c0-0.6-0.1-1.1-0.4-1.4
		c-0.2-0.3-0.5-0.4-0.9-0.4C119.9,149.4,119.5,149.7,119.1,150.3z"/>
	<path d="M125.4,149.1l0,0.3c-0.3,0-0.6,0.1-0.9,0.4c-0.2,0.2-0.4,0.6-0.5,1v2.5h-0.3v-4.1h0.3v1.1c0.2-0.4,0.4-0.7,0.7-0.9
		C124.9,149.2,125.2,149.1,125.4,149.1z"/>
	<path d="M128.2,149.1c0.5,0,0.9,0.2,1.2,0.6c0.3,0.4,0.4,0.9,0.4,1.5c0,0.7-0.2,1.2-0.5,1.6c-0.3,0.3-0.7,0.5-1.1,0.5
		c-0.5,0-0.9-0.2-1.2-0.6c-0.3-0.4-0.4-0.9-0.4-1.5c0-0.7,0.2-1.2,0.5-1.6C127.4,149.3,127.8,149.1,128.2,149.1z M128.2,149.4
		c-0.4,0-0.8,0.2-1,0.6c-0.2,0.3-0.3,0.8-0.3,1.3c0,0.6,0.1,1.1,0.4,1.4c0.2,0.3,0.5,0.4,0.9,0.4c0.4,0,0.8-0.2,1-0.6
		c0.2-0.3,0.3-0.8,0.3-1.3c0-0.6-0.1-1.1-0.4-1.4C128.9,149.5,128.6,149.4,128.2,149.4z"/>
	<path d="M132.1,149.2v4.4c0,0.4-0.1,0.6-0.3,0.8c-0.2,0.2-0.4,0.3-0.7,0.3c0,0-0.1,0-0.2,0l0-0.3c0.1,0,0.2,0,0.2,0
		c0.5,0,0.8-0.3,0.8-0.9v-4.4L132.1,149.2L132.1,149.2z M132.2,147.7v0.6h-0.5v-0.6H132.2z"/>
	<path d="M137.2,151.2h-3c0,0.6,0.1,1.1,0.5,1.5c0.2,0.3,0.5,0.4,0.9,0.4c0.4,0,0.6-0.1,0.8-0.2c0.2-0.1,0.3-0.4,0.4-0.7l0.3,0.1
		c-0.3,0.7-0.8,1-1.6,1c-0.5,0-1-0.2-1.3-0.6c-0.3-0.4-0.4-0.9-0.4-1.5c0-0.7,0.2-1.2,0.5-1.6c0.3-0.3,0.7-0.5,1.1-0.5
		c0.5,0,0.9,0.2,1.2,0.6C137,150.1,137.2,150.6,137.2,151.2L137.2,151.2L137.2,151.2z M136.9,150.9c0-0.5-0.2-0.9-0.5-1.2
		c-0.2-0.2-0.5-0.3-0.8-0.3c-0.4,0-0.7,0.1-0.9,0.5c-0.2,0.3-0.4,0.6-0.4,1.1L136.9,150.9L136.9,150.9z"/>
	<path d="M141.7,150.2l-0.3,0.1c-0.2-0.6-0.6-1-1.1-1c-0.4,0-0.8,0.2-1,0.6c-0.2,0.3-0.3,0.8-0.3,1.3c0,0.6,0.1,1.1,0.4,1.4
		c0.2,0.3,0.5,0.4,0.9,0.4c0.6,0,1-0.3,1.2-1l0.3,0.1c-0.3,0.7-0.8,1.1-1.5,1.1c-0.5,0-0.9-0.2-1.2-0.6c-0.3-0.4-0.4-0.9-0.4-1.5
		c0-0.7,0.2-1.2,0.5-1.6c0.3-0.3,0.7-0.5,1.1-0.5c0.4,0,0.7,0.1,0.9,0.3C141.4,149.6,141.6,149.9,141.7,150.2z"/>
	<path d="M143.7,147.7v1.5h1v0.3h-1v2.9c0,0.5,0.2,0.8,0.6,0.8c0.2,0,0.4,0,0.5-0.1l0,0.3c-0.2,0-0.3,0.1-0.5,0.1
		c-0.3,0-0.6-0.1-0.7-0.3c-0.1-0.2-0.2-0.4-0.2-0.7v-2.9h-0.7v-0.3h0.7v-1.4L143.7,147.7z"/>
</g>
<g>
	<g>
		<defs>
			<rect id="SVGID_27_" x="88.4" y="3.5" width="193" height="425.9"/>
		</defs>
		<clipPath id="SVGID_28_">
			<use xlink:href="#SVGID_27_"  style="overflow:visible;"/>
		</clipPath>
		<rect x="89.5" y="179.9" class="st15" width="84.8" height="29.2"/>
	</g>
	<g>
		<defs>
			<rect id="SVGID_29_" x="88.4" y="3.5" width="193" height="425.9"/>
		</defs>
		<clipPath id="SVGID_30_">
			<use xlink:href="#SVGID_29_"  style="overflow:visible;"/>
		</clipPath>
		<path class="st16" d="M174.8,209.5H89v-30.2h85.8V209.5z M90,208.5h83.8v-28.2H90L90,208.5L90,208.5z"/>
	</g>
</g>
<g>
	<path d="M115.7,189.3h-3c0,0.6,0.1,1.1,0.5,1.5c0.2,0.3,0.6,0.4,0.9,0.4c0.4,0,0.6-0.1,0.8-0.2c0.2-0.1,0.3-0.4,0.4-0.7l0.3,0.1
		c-0.3,0.7-0.8,1-1.6,1c-0.5,0-0.9-0.2-1.3-0.6c-0.3-0.4-0.4-0.9-0.4-1.5c0-0.7,0.2-1.2,0.5-1.6c0.3-0.3,0.7-0.5,1.1-0.5
		c0.5,0,0.9,0.2,1.2,0.6C115.6,188.2,115.7,188.7,115.7,189.3L115.7,189.3L115.7,189.3z M115.4,189.1c-0.1-0.5-0.2-0.9-0.5-1.2
		c-0.2-0.2-0.5-0.3-0.8-0.3c-0.4,0-0.7,0.1-0.9,0.5c-0.2,0.3-0.4,0.6-0.4,1.1L115.4,189.1L115.4,189.1z"/>
	<path d="M120.3,185.3v6.1H120v-0.7c-0.3,0.5-0.7,0.8-1.2,0.8c-0.5,0-0.9-0.2-1.2-0.6c-0.3-0.4-0.4-0.9-0.4-1.5
		c0-0.7,0.2-1.2,0.5-1.6c0.3-0.3,0.6-0.5,1.1-0.5c0.5,0,0.9,0.2,1.3,0.8v-2.7H120.3z M120,188.4c-0.3-0.6-0.8-0.9-1.3-0.9
		c-0.4,0-0.7,0.2-1,0.6c-0.2,0.3-0.3,0.8-0.3,1.3c0,0.6,0.1,1.1,0.4,1.4c0.2,0.3,0.5,0.4,0.9,0.4c0.5,0,0.9-0.3,1.2-0.8L120,188.4
		L120,188.4z"/>
	<path d="M125.2,187.3v4.1h-0.3v-0.8c-0.2,0.3-0.4,0.5-0.8,0.7c-0.3,0.1-0.5,0.2-0.8,0.2c-0.4,0-0.6-0.1-0.8-0.3
		c-0.2-0.2-0.3-0.5-0.3-0.8v-3.1h0.3v2.9c0,0.6,0.3,0.9,0.8,0.9c0.3,0,0.5-0.1,0.8-0.3c0.2-0.2,0.5-0.4,0.6-0.6v-2.9L125.2,187.3
		L125.2,187.3z"/>
	<path d="M130,188.4l-0.3,0.1c-0.2-0.6-0.6-1-1.1-1c-0.4,0-0.8,0.2-1,0.6c-0.2,0.3-0.3,0.8-0.3,1.3c0,0.6,0.1,1.1,0.4,1.4
		c0.2,0.3,0.5,0.4,0.9,0.4c0.6,0,1-0.3,1.2-1l0.3,0.1c-0.3,0.7-0.8,1.1-1.5,1.1c-0.5,0-0.9-0.2-1.2-0.6c-0.3-0.4-0.4-0.9-0.4-1.5
		c0-0.7,0.2-1.2,0.5-1.6c0.3-0.3,0.7-0.5,1.1-0.5c0.4,0,0.7,0.1,0.9,0.3C129.7,187.7,129.9,188,130,188.4z"/>
	<path d="M131.5,188.2c0.3-0.7,0.8-1,1.5-1c0.5,0,0.8,0.1,1,0.4c0.2,0.2,0.3,0.6,0.3,1v1.3c0,0.6,0,1.1,0.1,1.5h-0.3
		c0-0.2-0.1-0.4-0.1-0.8c-0.4,0.6-0.9,0.9-1.5,0.9c-0.4,0-0.8-0.1-1-0.4c-0.2-0.2-0.3-0.5-0.3-0.8c0-0.7,0.5-1.2,1.4-1.3
		c0.4-0.1,0.8-0.1,1.4-0.1v-0.2c0-0.4-0.1-0.8-0.3-0.9c-0.2-0.1-0.4-0.2-0.8-0.2c-0.6,0-1,0.3-1.2,0.9L131.5,188.2z M134,189.1
		c-0.5,0-0.9,0.1-1.3,0.1c-0.7,0.1-1.1,0.5-1.1,1.1c0,0.3,0.1,0.5,0.3,0.7c0.2,0.1,0.4,0.2,0.7,0.2c0.6,0,1.1-0.3,1.5-1L134,189.1
		L134,189.1z"/>
	<path d="M136.8,185.8v1.5h1v0.3h-1v2.9c0,0.5,0.2,0.8,0.6,0.8c0.2,0,0.4,0,0.5-0.1l0,0.3c-0.2,0-0.3,0.1-0.5,0.1
		c-0.3,0-0.6-0.1-0.7-0.3c-0.1-0.2-0.2-0.4-0.2-0.7v-2.9h-0.7v-0.3h0.7v-1.4L136.8,185.8z"/>
	<path d="M139.6,185.9v0.6h-0.5v-0.6H139.6z M139.5,187.3v4.1h-0.3v-4.1H139.5z"/>
	<path d="M142.9,187.2c0.5,0,0.9,0.2,1.2,0.6c0.3,0.4,0.4,0.9,0.4,1.5c0,0.7-0.2,1.2-0.5,1.6c-0.3,0.3-0.7,0.5-1.1,0.5
		c-0.5,0-0.9-0.2-1.2-0.6c-0.3-0.4-0.4-0.9-0.4-1.5c0-0.7,0.2-1.2,0.5-1.6C142.1,187.4,142.5,187.2,142.9,187.2z M142.9,187.5
		c-0.4,0-0.8,0.2-1,0.6c-0.2,0.3-0.3,0.8-0.3,1.3c0,0.6,0.1,1.1,0.4,1.4c0.2,0.3,0.5,0.4,0.9,0.4c0.4,0,0.8-0.2,1-0.6
		c0.2-0.3,0.3-0.8,0.3-1.3c0-0.6-0.1-1.1-0.4-1.4C143.6,187.7,143.3,187.5,142.9,187.5z"/>
	<path d="M146.5,187.3v0.8c0.5-0.6,1-0.9,1.5-0.9c0.4,0,0.6,0.1,0.8,0.3c0.2,0.2,0.3,0.4,0.3,0.8v3.1h-0.3v-2.9c0-0.7-0.3-1-0.8-1
		c-0.5,0-1,0.3-1.5,0.9v2.9h-0.3v-4.1L146.5,187.3L146.5,187.3z"/>
</g>
<g>
	<path d="M113.9,199c-0.1,0.7-0.2,1.4-0.4,2.1c-0.2,0.6-0.4,1.1-0.7,1.5c-0.2,0.3-0.4,0.5-0.6,0.6c-0.1,0.1-0.3,0.1-0.5,0.1
		c-0.3,0-0.6-0.2-0.8-0.5c-0.2-0.3-0.3-0.7-0.3-1.2c0-0.4,0.1-0.8,0.3-1.2c0.2-0.4,0.4-0.7,0.7-0.9c0.6-0.6,1.4-0.8,2.3-0.8
		c1,0,1.7,0.3,2.2,0.8c0.4,0.4,0.7,1,0.7,1.8c0,0.7-0.2,1.3-0.8,1.8c-0.5,0.5-1.2,0.8-2,1c0,0,0,0,0,0c0,0-0.1,0-0.1-0.1
		c0-0.1-0.1-0.1-0.1-0.2c0.9-0.2,1.6-0.5,2.1-1.1c0.4-0.5,0.6-1,0.6-1.6c0-0.7-0.3-1.3-0.8-1.7c-0.4-0.3-0.9-0.5-1.6-0.5L113.9,199z
		 M113.6,199c-0.7,0.1-1.3,0.3-1.8,0.7c-0.3,0.3-0.6,0.7-0.7,1.1c-0.1,0.3-0.2,0.6-0.2,0.9c0,0.5,0.1,0.9,0.3,1.1
		c0.1,0.2,0.3,0.3,0.5,0.3c0.3,0,0.6-0.2,0.9-0.7c0.3-0.5,0.5-1,0.7-1.7C113.4,200.2,113.5,199.6,113.6,199z"/>
	<path d="M120.6,203.4c0.8-0.3,1.6-0.6,2.4-1.1c0.9-0.5,1.6-1.1,2.2-1.6c0,0.2,0,0.3,0,0.3c0,0,0,0,0,0c0,0,0,0,0,0.1
		c-0.6,0.5-1.2,1-2.1,1.5c-0.6,0.4-1.3,0.7-2,1c-0.2,0.1-0.4,0.2-0.4,0.2c0,0-0.1,0.1-0.1,0.1c0,0-0.1,0-0.1,0
		c-0.1-0.1-0.1-0.1-0.2-0.2c0,0,0,0,0-0.1c0,0,0,0,0-0.1c0-0.1,0-0.2,0-0.4l0-3.3c0-0.1,0-0.3,0-0.4c0-0.4,0-0.6-0.1-0.9
		c0.1,0,0.3,0,0.4,0.1c0.1,0,0.1,0.1,0.1,0.1s0,0.1,0,0.1c0,0-0.1,0.4-0.1,1L120.6,203.4z"/>
	<path d="M128.8,201.3c0.2,0.1,0.3,0.1,0.3,0.2c0,0,0,0.1,0,0.1c0,0,0,0.1-0.1,0.1c0,0-0.1,0.1-0.2,0.2c-0.2,0.5-0.5,0.9-0.9,1.3
		c0,0.1-0.1,0.1-0.1,0.1c0,0-0.1,0-0.1,0c-0.1,0-0.2-0.1-0.2-0.1c0.4-0.4,0.7-0.8,0.9-1.3C128.7,201.7,128.7,201.5,128.8,201.3z
		 M130.8,199.8V199c0-0.4,0-0.7-0.1-0.9c0.2,0,0.3,0,0.4,0.1c0,0,0.1,0,0.1,0.1c0,0,0,0.1,0,0.1c0,0.1-0.1,0.3-0.1,0.6v0.9h1.1
		c0.8,0,1.3,0,1.7,0c0,0,0,0,0,0c0,0,0.1,0,0.1,0.1v0.2c0,0.1,0,0.1-0.1,0.1c-0.4,0-1,0-1.7,0h-1.1l0,3.3c0,0.4-0.1,0.6-0.3,0.7
		c-0.2,0.1-0.5,0.2-0.9,0.2c0,0,0,0,0,0c0,0-0.1,0-0.1-0.1c0-0.1-0.1-0.2-0.2-0.2c0.4,0,0.8-0.1,1-0.1c0.2-0.1,0.2-0.2,0.2-0.5v-3.3
		h-1.4c-0.6,0-1.1,0-1.4,0c0,0,0,0,0,0c-0.1,0-0.1,0-0.1-0.1s0-0.1,0-0.3c0.4,0,0.9,0,1.5,0L130.8,199.8L130.8,199.8z M132.6,201.5
		c0,0,0,0,0.1-0.1c0,0,0.1-0.1,0.1-0.1s0,0,0,0s0,0,0.1,0c0.5,0.4,0.8,0.9,1.1,1.5c0,0,0,0.1,0,0.1c0,0,0,0,0,0.1
		c0,0-0.1,0.1-0.2,0.1c0,0,0,0,0,0s0,0-0.1-0.1C133.5,202.5,133.2,202,132.6,201.5z M133.5,197.9c0.2,0,0.4,0.1,0.5,0.2
		c0.1,0.1,0.2,0.3,0.2,0.5c0,0.2-0.1,0.4-0.2,0.5c-0.1,0.1-0.3,0.2-0.5,0.2c-0.2,0-0.4-0.1-0.5-0.2c-0.1-0.1-0.2-0.3-0.2-0.5
		c0-0.2,0.1-0.4,0.2-0.5C133.2,198,133.4,197.9,133.5,197.9z M133.5,198.1c-0.1,0-0.3,0.1-0.4,0.2c-0.1,0.1-0.1,0.2-0.1,0.3
		c0,0.1,0.1,0.3,0.2,0.4c0.1,0.1,0.2,0.1,0.3,0.1c0.1,0,0.3-0.1,0.4-0.2c0.1-0.1,0.1-0.2,0.1-0.3c0-0.1-0.1-0.3-0.2-0.4
		C133.8,198.2,133.7,198.1,133.5,198.1z"/>
	<path d="M136.5,201.1c0.4,0,0.9,0,1.6,0h2.8c0.7,0,1.3,0,1.8,0c0.1,0,0.1,0,0.1,0.1v0.2c0,0.1,0,0.1-0.1,0.1c-0.3,0-0.7,0-1.1,0
		h-0.6h-3.4l-0.8,0.1c0,0-0.1,0-0.1-0.1C136.5,201.3,136.5,201.2,136.5,201.1z"/>
	<path d="M147.9,200.4c0.9,0.2,1.8,0.6,2.8,1.2c0,0,0,0,0,0.1c0,0,0,0,0,0c0,0.1-0.1,0.1-0.1,0.2c0,0,0,0-0.1,0c0,0,0,0-0.1,0
		c-0.7-0.5-1.6-0.9-2.6-1.1v2.3c0,0.5,0,1,0,1.5c0,0.1,0,0.1-0.1,0.1h-0.2c0,0-0.1,0-0.1-0.1c0-0.5,0-1,0-1.4v-4.2
		c0-0.4,0-0.7,0-0.9c0.2,0,0.3,0,0.4,0.1c0,0,0.1,0,0.1,0.1c0,0,0,0.1,0,0.1c0,0.1-0.1,0.3-0.1,0.6V200.4z"/>
</g>
<g>
	<g>
		<defs>
			<rect id="SVGID_31_" x="88.4" y="3.5" width="193" height="425.9"/>
		</defs>
		<clipPath id="SVGID_32_">
			<use xlink:href="#SVGID_31_"  style="overflow:visible;"/>
		</clipPath>
		<rect x="89.5" y="223.8" class="st17" width="84.8" height="29.2"/>
	</g>
	<g>
		<defs>
			<rect id="SVGID_33_" x="88.4" y="3.5" width="193" height="425.9"/>
		</defs>
		<clipPath id="SVGID_34_">
			<use xlink:href="#SVGID_33_"  style="overflow:visible;"/>
		</clipPath>
		<path class="st18" d="M174.8,253.5H89v-30.2h85.8V253.5z M90,252.5h83.8v-28.2H90L90,252.5L90,252.5z"/>
	</g>
</g>
<g>
	<path d="M116.6,231.2l0,0.3c-0.3,0-0.6,0.1-0.9,0.4c-0.2,0.2-0.4,0.6-0.5,1v2.5h-0.3v-4.1h0.3v1.1c0.2-0.4,0.4-0.7,0.7-0.9
		C116.1,231.3,116.4,231.2,116.6,231.2z"/>
	<path d="M121.1,233.3h-3c0,0.6,0.1,1.1,0.5,1.5c0.2,0.3,0.6,0.4,0.9,0.4c0.4,0,0.6-0.1,0.8-0.2c0.2-0.1,0.3-0.4,0.4-0.7l0.3,0.1
		c-0.3,0.7-0.8,1-1.6,1c-0.5,0-0.9-0.2-1.3-0.6c-0.3-0.4-0.4-0.9-0.4-1.5c0-0.7,0.2-1.2,0.5-1.6c0.3-0.3,0.7-0.5,1.1-0.5
		c0.5,0,0.9,0.2,1.2,0.6C120.9,232.2,121,232.6,121.1,233.3L121.1,233.3L121.1,233.3z M120.7,233c-0.1-0.5-0.2-0.9-0.5-1.2
		c-0.2-0.2-0.5-0.3-0.8-0.3c-0.4,0-0.7,0.1-0.9,0.5c-0.2,0.3-0.4,0.6-0.4,1.1L120.7,233L120.7,233z"/>
	<path d="M125.3,232.1l-0.3,0.1c-0.2-0.5-0.6-0.8-1.1-0.8c-0.4,0-0.6,0.1-0.8,0.2c-0.2,0.1-0.2,0.3-0.2,0.5c0,0.2,0.1,0.4,0.2,0.6
		c0.1,0.1,0.4,0.2,0.7,0.3l0.3,0.1c0.5,0.1,0.8,0.2,1,0.4c0.2,0.2,0.3,0.4,0.3,0.7c0,0.4-0.1,0.6-0.4,0.9c-0.3,0.2-0.6,0.3-1.1,0.3
		c-0.4,0-0.7-0.1-1-0.3c-0.2-0.2-0.4-0.4-0.5-0.7l0.3-0.1c0.2,0.6,0.6,0.8,1.2,0.8c0.4,0,0.7-0.1,0.9-0.3c0.1-0.1,0.2-0.3,0.2-0.6
		c0-0.3-0.1-0.5-0.2-0.6c-0.1-0.1-0.4-0.2-0.8-0.3l-0.3-0.1c-0.5-0.1-0.8-0.2-1-0.4c-0.1-0.2-0.2-0.4-0.2-0.6c0-0.3,0.1-0.6,0.4-0.8
		c0.2-0.2,0.6-0.3,1-0.3C124.6,231.2,125,231.5,125.3,232.1z"/>
	<path d="M130.1,233.3h-3c0,0.6,0.1,1.1,0.5,1.5c0.2,0.3,0.6,0.4,0.9,0.4c0.4,0,0.6-0.1,0.8-0.2c0.2-0.1,0.3-0.4,0.4-0.7l0.3,0.1
		c-0.3,0.7-0.8,1-1.6,1c-0.5,0-0.9-0.2-1.3-0.6c-0.3-0.4-0.4-0.9-0.4-1.5c0-0.7,0.2-1.2,0.5-1.6c0.3-0.3,0.7-0.5,1.1-0.5
		c0.5,0,0.9,0.2,1.2,0.6C129.9,232.2,130.1,232.6,130.1,233.3L130.1,233.3L130.1,233.3z M129.8,233c-0.1-0.5-0.2-0.9-0.5-1.2
		c-0.2-0.2-0.5-0.3-0.8-0.3c-0.4,0-0.7,0.1-0.9,0.5c-0.2,0.3-0.4,0.6-0.4,1.1L129.8,233L129.8,233z"/>
	<path d="M131.7,232.2c0.3-0.7,0.8-1,1.5-1c0.5,0,0.8,0.1,1,0.4c0.2,0.2,0.3,0.6,0.3,1v1.3c0,0.6,0,1.1,0.1,1.5h-0.3
		c0-0.2-0.1-0.4-0.1-0.8c-0.4,0.6-0.9,0.9-1.5,0.9c-0.4,0-0.8-0.1-1-0.4c-0.2-0.2-0.3-0.5-0.3-0.8c0-0.7,0.5-1.2,1.4-1.3
		c0.4-0.1,0.8-0.1,1.4-0.1v-0.2c0-0.4-0.1-0.8-0.3-0.9c-0.2-0.1-0.4-0.2-0.8-0.2c-0.6,0-1,0.3-1.2,0.9L131.7,232.2z M134.2,233.1
		c-0.5,0-0.9,0.1-1.3,0.1c-0.7,0.1-1.1,0.5-1.1,1.1c0,0.3,0.1,0.5,0.3,0.7c0.2,0.1,0.4,0.2,0.7,0.2c0.6,0,1.1-0.3,1.5-1L134.2,233.1
		L134.2,233.1z"/>
	<path d="M138.2,231.2l0,0.3c-0.3,0-0.6,0.1-0.9,0.4c-0.2,0.2-0.4,0.6-0.5,1v2.5h-0.3v-4.1h0.3v1.1c0.2-0.4,0.4-0.7,0.7-0.9
		C137.7,231.3,138,231.2,138.2,231.2z"/>
	<path d="M142.5,232.3l-0.3,0.1c-0.2-0.6-0.6-1-1.1-1c-0.4,0-0.8,0.2-1,0.6c-0.2,0.3-0.3,0.8-0.3,1.3c0,0.6,0.1,1.1,0.4,1.4
		c0.2,0.3,0.5,0.4,0.9,0.4c0.6,0,1-0.3,1.2-1l0.3,0.1c-0.3,0.7-0.8,1.1-1.5,1.1c-0.5,0-0.9-0.2-1.2-0.6c-0.3-0.4-0.4-0.9-0.4-1.5
		c0-0.7,0.2-1.2,0.5-1.6c0.3-0.3,0.7-0.5,1.1-0.5c0.4,0,0.7,0.1,0.9,0.3C142.2,231.7,142.4,232,142.5,232.3z"/>
	<path d="M144.4,229.3v2.8c0.5-0.6,1-0.9,1.5-0.9c0.4,0,0.6,0.1,0.8,0.3c0.2,0.2,0.3,0.4,0.3,0.8v3.1h-0.3v-2.9c0-0.7-0.3-1-0.8-1
		c-0.5,0-1,0.3-1.5,0.9v2.9H144v-6.1L144.4,229.3L144.4,229.3z"/>
</g>
<g>
	<path d="M113.9,243c-0.1,0.7-0.2,1.4-0.4,2.1c-0.2,0.6-0.4,1.1-0.7,1.5c-0.2,0.3-0.4,0.5-0.6,0.6c-0.1,0.1-0.3,0.1-0.5,0.1
		c-0.3,0-0.6-0.2-0.8-0.5c-0.2-0.3-0.3-0.7-0.3-1.2c0-0.4,0.1-0.8,0.3-1.2c0.2-0.4,0.4-0.7,0.7-0.9c0.6-0.6,1.4-0.8,2.3-0.8
		c1,0,1.7,0.3,2.2,0.8c0.4,0.4,0.7,1,0.7,1.8c0,0.7-0.2,1.3-0.8,1.8c-0.5,0.5-1.2,0.8-2,1c0,0,0,0,0,0c0,0-0.1,0-0.1-0.1
		c0-0.1-0.1-0.1-0.1-0.2c0.9-0.2,1.6-0.5,2.1-1.1c0.4-0.5,0.6-1,0.6-1.6c0-0.7-0.3-1.3-0.8-1.7c-0.4-0.3-0.9-0.5-1.6-0.5L113.9,243z
		 M113.6,243c-0.7,0.1-1.3,0.3-1.8,0.7c-0.3,0.3-0.6,0.7-0.7,1.1c-0.1,0.3-0.2,0.6-0.2,0.9c0,0.5,0.1,0.9,0.3,1.1
		c0.1,0.2,0.3,0.3,0.5,0.3c0.3,0,0.6-0.2,0.9-0.7c0.3-0.5,0.5-1,0.7-1.7C113.4,244.1,113.5,243.6,113.6,243z"/>
	<path d="M120.6,247.4c0.8-0.3,1.6-0.6,2.4-1.1c0.9-0.5,1.6-1.1,2.2-1.6c0,0.2,0,0.3,0,0.3c0,0,0,0,0,0c0,0,0,0,0,0.1
		c-0.6,0.5-1.2,1-2.1,1.5c-0.6,0.4-1.3,0.7-2,1c-0.2,0.1-0.4,0.2-0.4,0.2c0,0-0.1,0.1-0.1,0.1c0,0-0.1,0-0.1,0
		c-0.1-0.1-0.1-0.1-0.2-0.2c0,0,0,0,0-0.1c0,0,0,0,0-0.1c0-0.1,0-0.2,0-0.4l0-3.3c0-0.1,0-0.3,0-0.4c0-0.4,0-0.6-0.1-0.9
		c0.1,0,0.3,0,0.4,0.1c0.1,0,0.1,0.1,0.1,0.1s0,0.1,0,0.1c0,0-0.1,0.4-0.1,1L120.6,247.4z"/>
	<path d="M128.8,245.2c0.2,0.1,0.3,0.1,0.3,0.2c0,0,0,0.1,0,0.1c0,0,0,0.1-0.1,0.1c0,0-0.1,0.1-0.2,0.2c-0.2,0.5-0.5,0.9-0.9,1.3
		c0,0.1-0.1,0.1-0.1,0.1c0,0-0.1,0-0.1,0c-0.1,0-0.2-0.1-0.2-0.1c0.4-0.4,0.7-0.8,0.9-1.3C128.7,245.6,128.7,245.4,128.8,245.2z
		 M130.8,243.8v-0.9c0-0.4,0-0.7-0.1-0.9c0.2,0,0.3,0,0.4,0.1c0,0,0.1,0,0.1,0.1c0,0,0,0.1,0,0.1c0,0.1-0.1,0.3-0.1,0.6v0.9h1.1
		c0.8,0,1.3,0,1.7,0c0,0,0,0,0,0c0,0,0.1,0,0.1,0.1v0.2c0,0.1,0,0.1-0.1,0.1c-0.4,0-1,0-1.7,0h-1.1l0,3.3c0,0.4-0.1,0.6-0.3,0.7
		c-0.2,0.1-0.5,0.2-0.9,0.2c0,0,0,0,0,0c0,0-0.1,0-0.1-0.1c0-0.1-0.1-0.2-0.2-0.2c0.4,0,0.8-0.1,1-0.1c0.2-0.1,0.2-0.2,0.2-0.5v-3.3
		h-1.4c-0.6,0-1.1,0-1.4,0c0,0,0,0,0,0c-0.1,0-0.1,0-0.1-0.1s0-0.1,0-0.3c0.4,0,0.9,0,1.5,0L130.8,243.8L130.8,243.8z M132.6,245.5
		c0,0,0,0,0.1-0.1c0,0,0.1-0.1,0.1-0.1s0,0,0,0s0,0,0.1,0c0.5,0.4,0.8,0.9,1.1,1.5c0,0,0,0.1,0,0.1c0,0,0,0,0,0.1
		c0,0-0.1,0.1-0.2,0.1c0,0,0,0,0,0s0,0-0.1-0.1C133.5,246.5,133.2,246,132.6,245.5z M133.5,241.9c0.2,0,0.4,0.1,0.5,0.2
		c0.1,0.1,0.2,0.3,0.2,0.5c0,0.2-0.1,0.4-0.2,0.5c-0.1,0.1-0.3,0.2-0.5,0.2c-0.2,0-0.4-0.1-0.5-0.2c-0.1-0.1-0.2-0.3-0.2-0.5
		c0-0.2,0.1-0.4,0.2-0.5C133.2,241.9,133.4,241.9,133.5,241.9z M133.5,242.1c-0.1,0-0.3,0.1-0.4,0.2c-0.1,0.1-0.1,0.2-0.1,0.3
		c0,0.1,0.1,0.3,0.2,0.4c0.1,0.1,0.2,0.1,0.3,0.1c0.1,0,0.3-0.1,0.4-0.2c0.1-0.1,0.1-0.2,0.1-0.3c0-0.1-0.1-0.3-0.2-0.4
		C133.8,242.1,133.7,242.1,133.5,242.1z"/>
	<path d="M136.5,245c0.4,0,0.9,0,1.6,0h2.8c0.7,0,1.3,0,1.8,0c0.1,0,0.1,0,0.1,0.1v0.2c0,0.1,0,0.1-0.1,0.1c-0.3,0-0.7,0-1.1,0h-0.6
		h-3.4l-0.8,0.1c0,0-0.1,0-0.1-0.1C136.5,245.2,136.5,245.1,136.5,245z"/>
	<path d="M147.9,244.3c0.9,0.2,1.8,0.6,2.8,1.2c0,0,0,0,0,0.1c0,0,0,0,0,0c0,0.1-0.1,0.1-0.1,0.2c0,0,0,0-0.1,0c0,0,0,0-0.1,0
		c-0.7-0.5-1.6-0.9-2.6-1.1v2.3c0,0.5,0,1,0,1.5c0,0.1,0,0.1-0.1,0.1h-0.2c0,0-0.1,0-0.1-0.1c0-0.5,0-1,0-1.4v-4.2
		c0-0.4,0-0.7,0-0.9c0.2,0,0.3,0,0.4,0.1c0,0,0.1,0,0.1,0.1c0,0,0,0.1,0,0.1c0,0.1-0.1,0.3-0.1,0.6V244.3z"/>
</g>
<g>
	<g>
		<defs>
			<rect id="SVGID_35_" x="88.4" y="3.5" width="193" height="425.9"/>
		</defs>
		<clipPath id="SVGID_36_">
			<use xlink:href="#SVGID_35_"  style="overflow:visible;"/>
		</clipPath>
		<rect x="89.5" y="267.8" class="st19" width="84.8" height="29.2"/>
	</g>
	<g>
		<defs>
			<rect id="SVGID_37_" x="88.4" y="3.5" width="193" height="425.9"/>
		</defs>
		<clipPath id="SVGID_38_">
			<use xlink:href="#SVGID_37_"  style="overflow:visible;"/>
		</clipPath>
		<path class="st20" d="M174.8,297.5H89v-30.2h85.8V297.5z M90,296.5h83.8v-28.2H90L90,296.5L90,296.5z"/>
	</g>
</g>
<g>
	<path d="M120.3,282.6l-0.3,0.1c-0.2-0.6-0.6-1-1.1-1c-0.4,0-0.8,0.2-1,0.5c-0.2,0.3-0.3,0.8-0.3,1.3c0,0.6,0.1,1.1,0.4,1.4
		c0.2,0.3,0.5,0.4,0.9,0.4c0.6,0,1-0.3,1.2-1l0.3,0.1c-0.3,0.7-0.8,1.1-1.5,1.1c-0.5,0-0.9-0.2-1.2-0.6c-0.3-0.4-0.4-0.9-0.4-1.5
		c0-0.7,0.2-1.2,0.5-1.6c0.3-0.3,0.7-0.5,1.1-0.5c0.4,0,0.7,0.1,0.9,0.3C120,282,120.2,282.3,120.3,282.6z"/>
	<path d="M123.2,281.5c0.5,0,0.9,0.2,1.2,0.6c0.3,0.4,0.4,0.9,0.4,1.5c0,0.7-0.2,1.2-0.5,1.6c-0.3,0.3-0.7,0.5-1.1,0.5
		c-0.5,0-0.9-0.2-1.2-0.6c-0.3-0.4-0.4-0.9-0.4-1.5c0-0.7,0.2-1.2,0.5-1.6C122.4,281.7,122.8,281.5,123.2,281.5z M123.2,281.8
		c-0.4,0-0.8,0.2-1,0.5c-0.2,0.3-0.3,0.8-0.3,1.3c0,0.6,0.1,1.1,0.4,1.4c0.2,0.3,0.5,0.4,0.9,0.4c0.4,0,0.8-0.2,1-0.5
		c0.2-0.3,0.3-0.8,0.3-1.3c0-0.6-0.1-1.1-0.4-1.4C123.9,281.9,123.6,281.8,123.2,281.8z"/>
	<path d="M126.9,281.6v0.8c0.5-0.6,1-0.9,1.5-0.9c0.4,0,0.6,0.1,0.8,0.3c0.2,0.2,0.3,0.5,0.3,0.8v3.1h-0.3v-2.9c0-0.7-0.3-1-0.8-1
		c-0.5,0-1,0.3-1.5,0.9v3h-0.3v-4.1L126.9,281.6L126.9,281.6z"/>
	<path d="M131.9,280.1v1.5h1v0.3h-1v2.9c0,0.5,0.2,0.8,0.6,0.8c0.2,0,0.4,0,0.5-0.1l0,0.3c-0.2,0-0.3,0-0.5,0
		c-0.3,0-0.6-0.1-0.7-0.3c-0.1-0.2-0.2-0.4-0.2-0.7v-2.9h-0.7v-0.3h0.7v-1.4L131.9,280.1z"/>
	<path d="M134.3,282.5c0.3-0.7,0.8-1,1.5-1c0.5,0,0.8,0.1,1,0.4c0.2,0.2,0.3,0.6,0.3,1v1.3c0,0.6,0,1.1,0.1,1.5h-0.3
		c0-0.2-0.1-0.5-0.1-0.8c-0.4,0.6-0.9,0.9-1.5,0.9c-0.4,0-0.8-0.1-1-0.4c-0.2-0.2-0.3-0.5-0.3-0.8c0-0.7,0.5-1.2,1.4-1.3
		c0.4-0.1,0.8-0.1,1.4-0.1v-0.2c0-0.5-0.1-0.8-0.3-0.9c-0.2-0.1-0.4-0.2-0.8-0.2c-0.6,0-1,0.3-1.2,0.9L134.3,282.5z M136.8,283.4
		c-0.5,0-0.9,0.1-1.3,0.1c-0.7,0.1-1.1,0.5-1.1,1.1c0,0.3,0.1,0.5,0.3,0.7c0.2,0.1,0.4,0.2,0.7,0.2c0.6,0,1.1-0.3,1.5-1L136.8,283.4
		L136.8,283.4z"/>
	<path d="M141.9,282.6l-0.3,0.1c-0.2-0.6-0.6-1-1.1-1c-0.4,0-0.8,0.2-1,0.5c-0.2,0.3-0.3,0.8-0.3,1.3c0,0.6,0.1,1.1,0.4,1.4
		c0.2,0.3,0.5,0.4,0.9,0.4c0.6,0,1-0.3,1.2-1l0.3,0.1c-0.3,0.7-0.8,1.1-1.5,1.1c-0.5,0-0.9-0.2-1.2-0.6c-0.3-0.4-0.4-0.9-0.4-1.5
		c0-0.7,0.2-1.2,0.5-1.6c0.3-0.3,0.7-0.5,1.1-0.5c0.4,0,0.7,0.1,0.9,0.3C141.6,282,141.8,282.3,141.9,282.6z"/>
	<path d="M143.9,280.1v1.5h1v0.3h-1v2.9c0,0.5,0.2,0.8,0.6,0.8c0.2,0,0.4,0,0.5-0.1l0,0.3c-0.2,0-0.3,0-0.5,0
		c-0.3,0-0.6-0.1-0.7-0.3c-0.1-0.2-0.2-0.4-0.2-0.7v-2.9h-0.7v-0.3h0.7v-1.4L143.9,280.1z"/>
</g>
<g>
	<g>
		<defs>
			<rect id="SVGID_39_" x="88.4" y="3.5" width="193" height="425.9"/>
		</defs>
		<clipPath id="SVGID_40_">
			<use xlink:href="#SVGID_39_"  style="overflow:visible;"/>
		</clipPath>
		<rect x="89" y="48" class="st21" width="84.8" height="29.2"/>
	</g>
	<g>
		<defs>
			<rect id="SVGID_41_" x="88.4" y="3.5" width="193" height="425.9"/>
		</defs>
		<clipPath id="SVGID_42_">
			<use xlink:href="#SVGID_41_"  style="overflow:visible;"/>
		</clipPath>
		<path class="st22" d="M174.3,77.7H88.5V47.5h85.8V77.7z M89.5,76.7h83.8V48.5H89.5L89.5,76.7L89.5,76.7z"/>
	</g>
</g>
<g>
	<path d="M126.6,59.8v1.5h1v0.3h-1v2.9c0,0.5,0.2,0.8,0.6,0.8c0.2,0,0.4,0,0.5-0.1l0,0.3c-0.2,0-0.3,0.1-0.5,0.1
		c-0.3,0-0.6-0.1-0.7-0.3c-0.1-0.2-0.2-0.4-0.2-0.7v-2.9h-0.7v-0.3h0.7v-1.4L126.6,59.8z"/>
	<path d="M130.4,61.2c0.5,0,0.9,0.2,1.2,0.7c0.3,0.4,0.4,0.9,0.4,1.5c0,0.7-0.2,1.2-0.5,1.6c-0.3,0.3-0.7,0.5-1.1,0.5
		c-0.5,0-0.9-0.2-1.2-0.7c-0.3-0.4-0.4-0.9-0.4-1.5c0-0.7,0.2-1.2,0.5-1.6C129.6,61.3,130,61.2,130.4,61.2z M130.4,61.5
		c-0.4,0-0.8,0.2-1,0.5c-0.2,0.3-0.3,0.8-0.3,1.3c0,0.6,0.1,1.1,0.4,1.4c0.2,0.3,0.5,0.4,0.9,0.4c0.4,0,0.8-0.2,1-0.6
		c0.2-0.3,0.3-0.8,0.3-1.3c0-0.6-0.1-1.1-0.4-1.4C131.1,61.6,130.8,61.5,130.4,61.5z"/>
	<path d="M134.1,61.3V62c0.2-0.3,0.4-0.5,0.6-0.6c0.2-0.1,0.4-0.2,0.6-0.2c0.5,0,0.9,0.2,1.2,0.7c0.3,0.4,0.4,0.9,0.4,1.5
		c0,0.7-0.2,1.2-0.5,1.6c-0.3,0.3-0.7,0.5-1.1,0.5c-0.5,0-0.9-0.3-1.2-0.8v2.1h-0.3v-5.5C133.8,61.3,134.1,61.3,134.1,61.3z
		 M134.1,62.3v2c0.2,0.3,0.4,0.6,0.6,0.7c0.2,0.1,0.4,0.2,0.6,0.2c0.4,0,0.7-0.2,1-0.6c0.2-0.3,0.3-0.8,0.3-1.3
		c0-0.6-0.1-1.1-0.4-1.4c-0.2-0.3-0.5-0.4-0.9-0.4C134.9,61.5,134.4,61.8,134.1,62.3z"/>
</g>
</svg>
