<?xml version="1.0" encoding="utf-8"?>
<!-- Generator: Adobe Illustrator 25.0.1, SVG Export Plug-In . SVG Version: 6.00 Build 0)  -->
<svg version="1.1" id="レイヤー_1" xmlns="http://www.w3.org/2000/svg" xmlns:xlink="http://www.w3.org/1999/xlink" x="0px"
	 y="0px" viewBox="0 0 841.9 595.3" style="enable-background:new 0 0 841.9 595.3;" xml:space="preserve">
<style type="text/css">
	.st0{fill:#656561;}
	.st1{font-family:'KozGoPr6N-Regular-90ms-RKSJ-H';}
	.st2{font-size:27.6221px;}
	.st3{letter-spacing:5;}
	.st4{opacity:0.2;fill:#7B7B7B;enable-background:new    ;}
	.st5{fill:none;}
	.st6{fill:none;stroke:#656561;stroke-width:4;stroke-miterlimit:10;}
</style>
<text transform="matrix(1 0 0 1 366.6123 350.3264)" class="st0 st1 st2 st3">恩恵・利益</text>
<polygon class="st4" points="-60.7,335.1 -217.9,505.4 -389.7,333.6 -360.2,333.6 -356.7,318.5 -202.2,317.3 -199.9,209.2 "/>
<path class="st5" d="M366.6,587.6"/>
<path class="st5" d="M226.2,447.2"/>
<path class="st5" d="M758.8,251.5"/>
<path class="st6" d="M661.2,170.4"/>
<circle class="st4" cx="164.7" cy="298.5" r="114.4"/>
<circle class="st4" cx="713.9" cy="295.3" r="114.4"/>
<line class="st6" x1="314.3" y1="265.8" x2="557.6" y2="265.8"/>
<line class="st6" x1="320.6" y1="320.1" x2="569.3" y2="320.1"/>
<polygon class="st0" points="303.9,319.1 328.9,310.8 328.9,327.4 "/>
<polygon class="st0" points="577.1,264.8 552.1,256.5 552.1,273.2 "/>
<text transform="matrix(1 0 0 1 366.6123 259.0397)" class="st0 st1 st2 st3">感謝・追悼</text>
<g>
	<circle class="st0" cx="165.9" cy="248.5" r="13.6"/>
	<path class="st0" d="M175.9,351.5c-0.9,0.1-1.8,0.1-2.7,0.1c-7.7,0-15.4,0.6-23-0.2c-8.1-0.8-14.1,1.6-18.7,8.1
		c-0.4,0.6-1.6,1-1.2,1.9c0.3,0.7,1.4,0.4,2.1,0.4c9.5,0,19,0,28.5,0l0,0c9.6,0,19.1,0.1,28.7,0c5-0.1,9.7-3.8,11.2-8.7
		c1.5-4.8,0.2-9-4.2-12.4c-1.8-1.4-3.6-2.6-5.5-3.7c-7.3-4.2-14.5-8.4-21.9-12.5c-1.7-0.9-2.1-1.9-1.5-3.7
		c2.3-6.8,4.6-13.6,6.3-20.5c1.8-7.4,1.1-14.5-3.7-20.9c-4-5.2-9.8-7.7-15.7-9.7c-3.6-1.2-5.4-0.1-6.1,3.7c-3,16.7-6,33.3-8.8,50
		c-2.1,12.1,4.3,21.1,16.5,23.2c5.3,0.9,10.7,0.3,16,0.4c1.2,0,2.5,0,3.7,0.1c1.3,0.1,2.2,0.8,2.2,2.2S177.2,351.3,175.9,351.5z"/>
</g>
<path class="st0" d="M761.9,248.6c5.7,2.8,10,6.6,11.7,12.8c0.5,2,1.3,2.8,3.6,3c6.2,0.3,11.7,3,17.3,6.3c-3.3,5.3-7.9,7.9-13.6,8.8
	c-1.9,0.3-3.8,0.5-5.7,0.8c-6.9,1-11.9,4.7-16.1,10.3c-5.3,7-11.1,13.6-16.9,20.2c-1.9,2.1-4.4,3.6-6.8,5.6
	c-4.9-5.4-10.7-9.3-17.2-11.8c-0.2,0.3-0.4,0.5-0.6,0.8c0.8,0.6,1.6,1.3,2.4,1.9c8.2,6.4,14,14.2,14.5,25c0.1,2.4-0.4,4.8-1,7.2
	c-0.6,2.2-2,2.8-4.4,1.8c-7.5-3.3-14.4-7.5-20.6-13c-1.1-1-2.9-1.6-4.4-1.6c-16.9,0.3-32.1-3.7-44-16.6c-4.1-4.4-7.1-9.4-8.1-15.5
	c-0.8-4.7,0.8-6.6,5.4-6.6c21.5,0,43,0,64.5,0c8.4,0,16.7-1.1,24.5-4.5c6.2-2.6,11.7-6.2,13.5-13.3c0.3-1.4,0.3-2.9,0.2-4.4
	C759.4,259.9,760.2,254.4,761.9,248.6z"/>
</svg>
