<?xml version="1.0" encoding="utf-8"?>
<!-- Generator: Adobe Illustrator 25.0.1, SVG Export Plug-In . SVG Version: 6.00 Build 0)  -->
<svg version="1.1" id="レイヤー_1" xmlns="http://www.w3.org/2000/svg" xmlns:xlink="http://www.w3.org/1999/xlink" x="0px"
	 y="0px" viewBox="0 0 595.3 595.3" style="enable-background:new 0 0 595.3 595.3;" xml:space="preserve">
<style type="text/css">
	.st0{opacity:0.2;enable-background:new    ;}
	.st1{fill:#FFFFFF;}
	.st2{fill:#262626;}
	.st3{fill:#CC291F;}
	.st4{fill:#519174;}
	.st5{fill:#62AF8C;}
	.st6{fill:#FBD7C7;}
	.st7{fill:#C8E6DD;}
	.st8{opacity:0.2;fill:#262626;enable-background:new    ;}
	.st9{fill:#825012;}
</style>
<path class="st0" d="M292.5,526.6c-13.2-0.5-16.6-6.3-19.7-17.6c-3.4-11.3,1-13.7-7-19.5c-7.9-5.8-14.2-11.5-12-20.2
	c4.1-16.6,21.6-36.3,38.2-36.3s47.6,24.5,48.6,26.9s8.2,5.5,1,15.4C330,491,321.3,527.3,292.5,526.6L292.5,526.6z"/>
<path class="st1" d="M328.5,447.2c0,0,5.8,5.5,10.3,8.9s4.8,9.9,4.6,12s-5.1,7.9-13.2,6.5s-14.4-10.3-20-15.4
	c-5.5-5.3-5.5-4.8-9.6-5.5s0-10.1,5.5-10.3s16.4-5.5,16.4-5.5S326.1,444.5,328.5,447.2L328.5,447.2z"/>
<path class="st1" d="M328.5,447.2c0,0,5.8,5.5,10.3,8.9s4.8,9.9,4.6,12s-5.1,7.9-13.2,6.5s-14.4-10.3-20-15.4
	c-5.5-5.3-5.5-4.8-9.6-5.5s0-10.1,5.5-10.3s16.4-5.5,16.4-5.5S326.1,444.5,328.5,447.2L328.5,447.2z"/>
<path class="st2" d="M310.3,459.5c-5.5-5.3-5.5-4.8-9.6-5.5c-0.5,0-1-0.2-1.2-0.7l15.9-3.1c0,0-0.7,6.3,4.3,11.8
	c4.8,5.5,7.7,8.7,13.7,8.7c4.3,0,7.5-1,9.9-3.8v1.7c-0.2,2.4-5.1,7.9-13.2,6.5C321.8,473.4,315.8,464.7,310.3,459.5L310.3,459.5z"/>
<path class="st3" d="M334.3,243c0,0,8.2,22.6,7.5,49.1c-0.7,27.7-3.8,45-5.8,52.2c-2.6,10.8-8.2,14.2-9.4,37.8s-1.4,47.6,0.5,54.6
	s6.5,9.6,5.8,11.3c-0.7,1.7-9.1-1-13.2,2.9c-4.1,3.8-10.8,6.5-14.2,6.5c-3.4,0.2-4.8,0-4.8,0l8.9-188.1L334.3,243z"/>
<path class="st4" d="M334.3,243c0,0,8.2,22.6,7.5,49.1c-0.7,27.7-3.8,45-5.8,52.2c-2.6,10.8-8.2,14.2-9.4,37.8s-1.4,47.6,0.5,54.6
	s6.5,9.6,5.8,11.3c-0.7,1.7-9.1-1-13.2,2.9c-4.1,3.8-10.8,6.5-14.2,6.5c-3.4,0.2-4.8,0-4.8,0l8.9-188.1L334.3,243z"/>
<path class="st1" d="M295.1,497.9c0,0,4.1,10.8,4.1,13c0,2.2,0.5,9.4-1,11.1c-1.2,1.4-7.7,3.6-12.7,2.9c-5.3-0.7-10.3-5.8-10.8-7.7
	c-0.5-2.2,0.2-15.2,0.5-17.1c0.2-1.9,1.2-6.3,1.2-6.3L295.1,497.9z"/>
<path class="st2" d="M276.1,493.6l3.4,0.7c-1,4.6-2.2,15.2-0.7,19.5c1.9,5.1,7.2,6.5,11.8,6.5c2.6,0,7.2-1.4,8.4-4.8
	c0,2.6-0.2,5.5-1,6.5c-1.2,1.4-7.7,3.6-12.7,2.9c-5.3-0.7-10.3-5.8-10.8-7.7c-0.5-2.2,0.2-15.2,0.5-17.1
	C275.1,498.2,276.1,493.6,276.1,493.6z"/>
<path class="st5" d="M314.1,271.4c0,0,7.2,17.1,8.4,41.6c1.2,24.5-1.7,40.9-2.2,46.4c-0.2,5.5-1.2,22.6-4.3,29.1
	c-3.1,6.5-8.9,19-11.1,34.6s-3.1,44.3-3.4,51.5c-0.2,9.6,1.2,17.6-0.5,22.1c-1.7,4.6-7.2-1-13.2,0.7c-6,1.4-15.4,3.4-17.1,2.4
	s1.2-18,1-27.9s0.5-47.6,2.6-63.5c1.9-15.9,13.5-30.8,11.5-46.9c-1.9-16.1-13-50-15.6-60.1c-2.6-9.9-3.4-24.5-1.9-37.8
	C269.6,250.2,314.1,271.4,314.1,271.4z"/>
<path class="st6" d="M334.3,230.7c0,0,10.3,7.5,14.2,12.3s5.8,7,5.8,11.3s-1.9,7-3.8,6.5s0-6.5,0-6.5l-1.9-3.8c0,0,1.9,3.4,1,4.8
	c-1,1.2-5.3,5.8-6.5,4.8c-1.4-1-1-2.9-1-2.9s3.6-2.4,2.9-3.8c-0.7-1.4-1.9-1.9-1.9-1.9s0.7,4.3,0,5.8c-0.7,1.2-3.8,1-3.8,1
	l-5.8-13.2L334.3,230.7z"/>
<path class="st7" d="M287.7,127.1c11.1-2.2,32-3.8,39.7,5.8s5.8,12.3,5.8,17.1s3.6,12.7,5.8,18c2.2,5.3,5.5,14.2,1.9,19.7
	c-3.6,5.8-10.3,8.4-10.3,8.4s1.9,22.4,4.1,31c2.2,8.4,4.8,23.6,5.8,28.4c1,4.8-3.8,19-13.2,22.6c-9.4,3.8-30.8,5.5-43.5-3.8
	c-12.7-9.4-15.2-15.2-15.2-15.2s4.6-18.5,3.8-25.5c-0.7-7-12.5-42.3-12.5-42.3l-8.7-28.4l-2.9-1.9c0,0-0.7-6.3,2.9-12.3
	c3.6-6.3,9.6-12.5,18-15.2C277.6,130.9,278,129,287.7,127.1z"/>
<path class="st6" d="M313.1,131.7c0,0,16.6,13.2,5.8,24.5c-10.8,11.3-32-10.1-35.8-19C279,128.8,300.2,118.9,313.1,131.7z"/>
<path class="st8" d="M341.8,179c0,0,0.2,10.3-26.5,15.6c-39.7,7.9-47.6-7-47.6-7s7.5,20.7,46.2,13.2
	C347.5,194.4,341.8,179,341.8,179z"/>
<path class="st9" d="M292.2,64.1c19.5-1.2,28.9,7.2,32.5,20.7c3.6,13-9.6,36.8,4.3,43c-0.2,5.3-12.3,10.8-17.6,5.1
	c-5.3-5.5-7-5.8-7-5.8L292.2,64.1z"/>
<path class="st6" d="M317.7,88.4c3.6,7.5,4.6,37.5-1.4,42.3c-6,4.8-18.3-3.1-30.1-8.4s-13.2-45.7,4.6-46.2
	C308.6,75.6,313.9,80.4,317.7,88.4z"/>
<path class="st9" d="M295.8,64.6c7.9,1.9,17.1,12.5,15.4,24c-2.4,14.9-31.7,44-11.1,53.4c-3.4,11.1-22.8,10.3-33.7,4.8
	c-10.3-5.5-11.3-10.8-11.1-12.7s9.1-11.8,9.1-26.2C264.8,93.2,265.5,57.1,295.8,64.6z"/>
<path class="st6" d="M273.7,168.5c0,0-6.7,0-11.5-0.7s-11.3-4.8-11.3-4.8s-0.5,11.1-1.9,17.6s-3.8,25-4.8,27.7s-4.6,4.8,0,14.2
	s23.3,38.2,26.7,45.9c3.4,7.7,3.1,14.9,4.8,17.1s6,4.1,6.5,3.8c0.7-0.2,1.7-0.2,1.7-0.2s1,1,2.6,1s2.2-1,2.2-1s1.2,1.9,3.8,1.7
	s2.4-1.9,2.4-1.9s3.8,1.9,5.8,1.4s2.9-2.4,1.7-3.1c-1.2-0.7-3.8-0.5-5.8-2.2s-5.1-6.7-5.1-6.7s0.7-0.5,0.5-3.4
	c0-2.9,0.2-7.5-2.4-8.9c-2.9-1.4-6.3-1.4-8.2-3.8c-6-7.2-7.7-19.7-13-30.5c-5.1-10.8-8.7-14.9-8.7-15.9s6.7-16.1,9.1-24.5
	C271.5,181.9,273.7,168.5,273.7,168.5L273.7,168.5z"/>
<image style="overflow:visible;" width="6000" height="4000" xlink:href="../../../../../../design/work_mainpic/kuziraemaki_C.png"  transform="matrix(7.856214e-02 0 0 7.856214e-02 1471.4259 155.1291)">
</image>
</svg>
