<?xml version="1.0" encoding="utf-8"?>
<!-- Generator: Adobe Illustrator 25.0.1, SVG Export Plug-In . SVG Version: 6.00 Build 0)  -->
<svg version="1.1" id="レイヤー_1" xmlns="http://www.w3.org/2000/svg" xmlns:xlink="http://www.w3.org/1999/xlink" x="0px"
	 y="0px" viewBox="0 0 723.9 231.1" style="enable-background:new 0 0 723.9 231.1;" xml:space="preserve">
<style type="text/css">
	.st0{fill:#DCDDDD;}
	.st1{fill:#595757;}
	.st2{fill:#74B16D;}
	.st3{fill:#585857;}
</style>
<g>
	<g>
		<path class="st0" d="M178,163.4h-14.8V133c0-8.8-3.3-13.3-9.7-13.3c-7.8,0-12.3,6-12.3,16.5v27.2h-14.8v-26.7
			c0-12.1-2.9-17-10.1-17c-7.7,0-12.2,6.2-12.2,16.7v27H89.4v-57.5h14.8v8.4c4.9-4.9,11.1-7.5,17.9-7.5c7.4,0,13.4,3.4,16.9,9.7
			c4.9-5.8,10.1-9.7,19.3-9.7c6.4,0,12.2,2.4,15.6,6.5c3.9,4.7,4.3,11.1,4.3,17.9L178,163.4L178,163.4z"/>
		<g>
			<polygon class="st1" points="178.3,163.7 177,163.7 177,163.2 177.8,163.2 177.8,162.4 178.3,162.4 			"/>
			<path class="st1" d="M176.1,163.7h-2v-0.5h2V163.7z M173.1,163.7h-2v-0.5h2V163.7z M170.2,163.7h-2v-0.5h2V163.7z M167.2,163.7
				h-2v-0.5h2V163.7z"/>
			<polygon class="st1" points="164.3,163.7 163,163.7 163,162.4 163.5,162.4 163.5,163.2 164.3,163.2 			"/>
			<path class="st1" d="M163.5,161.4H163v-2h0.5V161.4z M141.5,161.4H141v-2h0.5V161.4z M163.5,158.4H163v-2h0.5V158.4z
				 M141.5,158.4H141v-2h0.5V158.4z M163.5,155.4H163v-2h0.5V155.4z M141.5,155.3H141v-2h0.5V155.3z M163.5,152.4H163v-2h0.5V152.4z
				 M141.5,152.3H141v-2h0.5V152.3z M163.5,149.3H163v-2h0.5V149.3z M141.5,149.3H141v-2h0.5V149.3z M163.5,146.3H163v-2h0.5V146.3z
				 M141.5,146.3H141v-2h0.5V146.3z M163.5,143.3H163v-2h0.5V143.3z M141.5,143.2H141v-2h0.5V143.2z M163.5,140.3H163v-2h0.5V140.3z
				 M141.5,140.2H141v-2h0.5V140.2z M163.5,137.3H163v-2h0.5V137.3z M141.5,137.2H141v-1c0-0.3,0-0.7,0-1l0.5,0c0,0.3,0,0.7,0,1
				V137.2z M163.5,134.2H163V133c0-0.3,0-0.5,0-0.8l0.5,0c0,0.3,0,0.5,0,0.8V134.2z M141.5,134.2l-0.5,0c0-0.7,0.1-1.4,0.2-2
				l0.5,0.1C141.6,132.9,141.6,133.5,141.5,134.2z M163,131.2c0-0.7-0.1-1.4-0.2-2l0.5-0.1c0.1,0.6,0.1,1.3,0.2,2L163,131.2z
				 M141.9,131.2l-0.5-0.1c0.1-0.7,0.3-1.4,0.4-2l0.5,0.1C142.1,129.9,142,130.6,141.9,131.2z M142.6,128.3l-0.5-0.1
				c0.2-0.7,0.5-1.3,0.7-1.9l0.4,0.2C143,127.1,142.8,127.7,142.6,128.3z M162.6,128.3c-0.1-0.7-0.3-1.3-0.5-1.9l0.5-0.2
				c0.2,0.6,0.4,1.3,0.5,2L162.6,128.3z M143.7,125.6l-0.4-0.2c0.3-0.6,0.7-1.2,1.1-1.7l0.4,0.3C144.4,124.5,144,125,143.7,125.6z
				 M161.8,125.4c-0.2-0.6-0.6-1.2-0.9-1.8l0.4-0.3c0.4,0.6,0.7,1.2,0.9,1.8L161.8,125.4z M145.4,123.2l-0.4-0.3
				c0.5-0.5,1-1,1.6-1.3l0.3,0.4C146.4,122.3,145.9,122.7,145.4,123.2z M160.4,122.9c-0.4-0.5-0.9-1-1.4-1.3l0.3-0.4
				c0.6,0.4,1.1,0.9,1.5,1.4L160.4,122.9z M147.7,121.4l-0.2-0.4c0.6-0.3,1.2-0.6,1.9-0.8l0.2,0.5
				C148.9,120.8,148.3,121.1,147.7,121.4z M158.1,121c-0.6-0.3-1.2-0.5-1.8-0.7l0.1-0.5c0.7,0.2,1.3,0.4,1.9,0.8L158.1,121z
				 M150.5,120.3l-0.1-0.5c0.6-0.2,1.3-0.3,2-0.3l0,0.5C151.8,120.1,151.1,120.2,150.5,120.3z M155.4,120.1
				c-0.6-0.1-1.2-0.1-1.8-0.1h-0.1l0-0.5h0.1c0.7,0,1.3,0.1,1.9,0.1L155.4,120.1z"/>
			<polygon class="st1" points="141.5,163.7 140.2,163.7 140.2,163.2 141,163.2 141,162.4 141.5,162.4 			"/>
			<path class="st1" d="M139.2,163.7h-2v-0.5h2V163.7z M136.3,163.7h-2v-0.5h2V163.7z M133.3,163.7h-2v-0.5h2V163.7z M130.4,163.7
				h-2v-0.5h2V163.7z"/>
			<polygon class="st1" points="127.4,163.7 126.2,163.7 126.2,162.4 126.7,162.4 126.7,163.2 127.4,163.2 			"/>
			<path class="st1" d="M126.7,161.4h-0.5v-2h0.5V161.4z M104.4,161.4h-0.5v-2h0.5V161.4z M126.7,158.4h-0.5v-2h0.5V158.4z
				 M104.4,158.4h-0.5v-2h0.5V158.4z M126.7,155.4h-0.5v-2h0.5V155.4z M104.4,155.3h-0.5v-2h0.5V155.3z M126.7,152.4h-0.5v-2h0.5
				V152.4z M104.4,152.3h-0.5v-2h0.5V152.3z M126.7,149.4h-0.5v-2h0.5V149.4z M104.4,149.3h-0.5v-2h0.5V149.3z M126.7,146.3h-0.5v-2
				h0.5V146.3z M104.4,146.3h-0.5v-2h0.5V146.3z M126.7,143.3h-0.5v-2h0.5V143.3z M104.4,143.3h-0.5v-2h0.5V143.3z M126.7,140.3
				h-0.5v-2h0.5V140.3z M104.4,140.2h-0.5v-2h0.5V140.2z M126.7,137.3h-0.5v-0.6c0-0.5,0-1,0-1.4l0.5,0c0,0.5,0,0.9,0,1.4V137.3z
				 M104.4,137.2h-0.5v-0.8c0-0.4,0-0.8,0-1.2l0.5,0c0,0.4,0,0.8,0,1.2V137.2z M126.1,134.3c0-0.7-0.1-1.4-0.1-2l0.5,0
				c0.1,0.6,0.1,1.3,0.1,2L126.1,134.3z M104.5,134.2l-0.5,0c0.1-0.7,0.1-1.4,0.2-2l0.5,0.1C104.6,132.9,104.5,133.6,104.5,134.2z
				 M125.9,131.3c-0.1-0.7-0.2-1.4-0.3-2l0.5-0.1c0.1,0.6,0.2,1.3,0.3,2L125.9,131.3z M104.8,131.3l-0.5-0.1c0.1-0.7,0.3-1.4,0.4-2
				l0.5,0.1C105.1,129.9,105,130.6,104.8,131.3z M105.6,128.4l-0.5-0.2c0.2-0.7,0.5-1.3,0.8-1.9l0.4,0.2
				C106,127.1,105.8,127.7,105.6,128.4z M125.5,128.3c-0.1-0.7-0.3-1.3-0.5-1.9l0.5-0.2c0.2,0.6,0.4,1.3,0.5,2L125.5,128.3z
				 M106.7,125.7l-0.4-0.2c0.3-0.6,0.7-1.2,1.1-1.7l0.4,0.3C107.4,124.5,107.1,125.1,106.7,125.7z M124.7,125.5
				c-0.2-0.7-0.5-1.2-0.9-1.8l0.4-0.3c0.3,0.6,0.6,1.2,0.9,1.8L124.7,125.5z M108.5,123.3l-0.4-0.3c0.5-0.5,1-1,1.5-1.4l0.3,0.4
				C109.4,122.3,108.9,122.8,108.5,123.3z M123.3,122.9c-0.4-0.5-0.9-1-1.4-1.4l0.3-0.4c0.5,0.4,1,0.9,1.5,1.5L123.3,122.9z
				 M110.7,121.4l-0.2-0.4c0.6-0.3,1.2-0.6,1.9-0.9l0.2,0.5C111.9,120.8,111.3,121.1,110.7,121.4z M121.1,121
				c-0.5-0.3-1.2-0.5-1.8-0.7l0.1-0.5c0.7,0.2,1.3,0.4,1.9,0.8L121.1,121z M113.4,120.3l-0.1-0.5c0.7-0.2,1.3-0.3,2-0.3l0,0.5
				C114.7,120.1,114.1,120.2,113.4,120.3z M118.3,120.1c-0.6-0.1-1.2-0.1-1.9-0.1l0-0.5c0.7,0,1.4,0.1,2,0.2L118.3,120.1z"/>
			<polygon class="st1" points="104.4,163.7 103.2,163.7 103.2,163.2 103.9,163.2 103.9,162.4 104.4,162.4 			"/>
			<path class="st1" d="M102.2,163.7h-2v-0.5h2V163.7z M99.2,163.7h-2v-0.5h2V163.7z M96.3,163.7h-2v-0.5h2V163.7z M93.3,163.7h-2
				v-0.5h2V163.7z"/>
			<polygon class="st1" points="90.4,163.7 89.2,163.7 89.2,162.4 89.7,162.4 89.7,163.2 90.4,163.2 			"/>
			<path class="st1" d="M89.7,161.4h-0.5v-2h0.5V161.4z M89.7,158.4h-0.5v-2h0.5V158.4z M89.7,155.4h-0.5v-2h0.5V155.4z M89.7,152.3
				h-0.5v-2h0.5V152.3z M89.7,149.3h-0.5v-2h0.5V149.3z M89.7,146.3h-0.5v-2h0.5V146.3z M89.7,143.3h-0.5v-2h0.5V143.3z M89.7,140.2
				h-0.5v-2h0.5V140.2z M89.7,137.2h-0.5v-2h0.5V137.2z M89.7,134.2h-0.5v-2h0.5V134.2z M89.7,131.1h-0.5v-2h0.5V131.1z M89.7,128.1
				h-0.5v-2h0.5V128.1z M89.7,125.1h-0.5v-2h0.5V125.1z M89.7,122.1h-0.5v-2h0.5V122.1z M89.7,119h-0.5v-2h0.5V119z M89.7,116h-0.5
				v-2h0.5V116z M89.7,113h-0.5v-2h0.5V113z M89.7,110h-0.5v-2h0.5V110z"/>
			<polygon class="st1" points="89.7,106.9 89.2,106.9 89.2,105.7 90.4,105.7 90.4,106.2 89.7,106.2 			"/>
			<path class="st1" d="M102.2,106.2h-2v-0.5h2V106.2z M99.2,106.2h-2v-0.5h2V106.2z M96.3,106.2h-2v-0.5h2V106.2z M93.3,106.2h-2
				v-0.5h2V106.2z"/>
			<polygon class="st1" points="104.4,106.9 103.9,106.9 103.9,106.2 103.2,106.2 103.2,105.7 104.4,105.7 			"/>
			<path class="st1" d="M104.4,112.4h-0.5v-1.8h0.5V112.4z M104.4,109.7h-0.5v-1.8h0.5V109.7z"/>
			<path class="st1" d="M103.9,114.9v-1.6h0.5v0.4c0.1-0.1,0.2-0.2,0.3-0.3l0.3,0.4c-0.2,0.2-0.5,0.4-0.7,0.7L103.9,114.9z"/>
			<path class="st1" d="M137.6,114.9c-0.4-0.6-0.8-1.1-1.3-1.6l0.4-0.3c0.4,0.5,0.9,1.1,1.3,1.7L137.6,114.9z M105.8,113.1l-0.3-0.4
				c0.5-0.5,1.1-0.9,1.6-1.3l0.3,0.4C106.9,112.2,106.3,112.7,105.8,113.1z M135.7,112.5c-0.5-0.5-1-0.9-1.5-1.4l0.3-0.4
				c0.5,0.4,1.1,0.9,1.6,1.4L135.7,112.5z M108.3,111.2l-0.3-0.4c0.6-0.4,1.2-0.8,1.8-1.1l0.2,0.4
				C109.4,110.5,108.8,110.9,108.3,111.2z M133.4,110.5c-0.6-0.4-1.1-0.8-1.7-1.1l0.2-0.4c0.6,0.3,1.2,0.7,1.8,1.1L133.4,110.5z
				 M110.9,109.7l-0.2-0.4c0.6-0.3,1.3-0.6,1.9-0.9l0.2,0.5C112.2,109.1,111.5,109.4,110.9,109.7z M130.7,109
				c-0.6-0.3-1.2-0.6-1.9-0.8l0.2-0.5c0.7,0.2,1.3,0.5,1.9,0.8L130.7,109z M113.7,108.5l-0.2-0.5c0.7-0.2,1.3-0.4,2-0.6l0.1,0.5
				C115,108,114.4,108.2,113.7,108.5z M127.9,107.9c-0.6-0.2-1.3-0.3-2-0.5l0.1-0.5c0.7,0.1,1.4,0.3,2,0.5L127.9,107.9z
				 M116.7,107.6l-0.1-0.5c0.7-0.2,1.4-0.3,2.1-0.4l0.1,0.5C118,107.4,117.4,107.5,116.7,107.6z M124.8,107.2
				c-0.7-0.1-1.3-0.1-2-0.2l0-0.5c0.7,0,1.4,0.1,2.1,0.2L124.8,107.2z M119.7,107.2l0-0.5c0.7-0.1,1.4-0.1,2.1-0.1v0.5
				C121.1,107.1,120.4,107.1,119.7,107.2z"/>
			<path class="st1" d="M138.9,116.9l-0.2-0.3c-0.2-0.3-0.3-0.6-0.5-0.8l0.4-0.3c0.1,0.2,0.2,0.4,0.3,0.6c0.1-0.2,0.3-0.3,0.4-0.5
				l0.4,0.3c-0.2,0.2-0.4,0.5-0.6,0.8L138.9,116.9z"/>
			<path class="st1" d="M178.3,161.4h-0.5v-2h0.5V161.4z M178.3,158.4h-0.5v-2h0.5V158.4z M178.3,155.3h-0.5v-2h0.5V155.3z
				 M178.3,152.3h-0.5v-2h0.5V152.3z M178.3,149.3h-0.5v-2h0.5V149.3z M178.3,146.2h-0.5v-2h0.5V146.2z M178.3,143.2h-0.5v-2h0.5
				V143.2z M178.3,140.2h-0.5v-2h0.5V140.2z M178.3,137.1h-0.5v-2h0.5V137.1z M178.3,134.1h-0.5v-2h0.5V134.1z M177.8,131.1
				c0-0.7,0-1.4,0-2l0.5,0c0,0.7,0,1.3,0,2L177.8,131.1L177.8,131.1z M177.8,128.1c0-0.7,0-1.3-0.1-2l0.5,0c0,0.7,0.1,1.3,0.1,2
				L177.8,128.1z M177.6,125.1c-0.1-0.7-0.1-1.4-0.2-2l0.5-0.1c0.1,0.6,0.2,1.3,0.2,2L177.6,125.1z M177.2,122.1
				c-0.1-0.7-0.2-1.3-0.4-2l0.5-0.1c0.2,0.6,0.3,1.3,0.4,2L177.2,122.1z M176.6,119.2c-0.2-0.7-0.4-1.3-0.7-1.9l0.5-0.2
				c0.3,0.6,0.5,1.2,0.7,1.9L176.6,119.2z M175.5,116.4c-0.3-0.6-0.6-1.2-1-1.7l0.4-0.3c0.4,0.6,0.7,1.2,1,1.8L175.5,116.4z
				 M140.4,115.2l-0.4-0.3c0.5-0.5,0.9-1,1.4-1.5l0.4,0.4C141.3,114.2,140.9,114.7,140.4,115.2z M173.9,113.8
				c-0.1-0.1-0.2-0.3-0.3-0.4c-0.3-0.4-0.6-0.7-1-1.1l0.4-0.4c0.4,0.4,0.7,0.7,1,1.1c0.1,0.1,0.2,0.3,0.3,0.4L173.9,113.8z
				 M142.5,113l-0.3-0.4c0.5-0.5,1-0.9,1.5-1.3l0.3,0.4C143.5,112.1,143,112.6,142.5,113z M171.9,111.7c-0.5-0.4-1-0.8-1.6-1.2
				l0.3-0.4c0.6,0.4,1.1,0.8,1.6,1.2L171.9,111.7z M144.8,111.1l-0.3-0.4c0.6-0.4,1.1-0.8,1.7-1.1l0.3,0.4
				C145.9,110.3,145.4,110.7,144.8,111.1z M169.4,110c-0.6-0.3-1.2-0.6-1.8-0.9l0.2-0.5c0.6,0.3,1.2,0.6,1.8,0.9L169.4,110z
				 M147.4,109.5l-0.2-0.4c0.6-0.3,1.2-0.6,1.9-0.9l0.2,0.5C148.6,108.9,147.9,109.2,147.4,109.5z M166.8,108.7
				c-0.6-0.2-1.2-0.5-1.9-0.7l0.1-0.5c0.7,0.2,1.3,0.4,1.9,0.7L166.8,108.7z M150.1,108.3l-0.2-0.5c0.6-0.2,1.3-0.4,2-0.6l0.1,0.5
				C151.4,107.9,150.7,108.1,150.1,108.3z M163.9,107.8c-0.6-0.2-1.3-0.3-2-0.4l0.1-0.5c0.7,0.1,1.4,0.2,2,0.4L163.9,107.8z
				 M153,107.6l-0.1-0.5c0.6-0.1,1.3-0.2,2-0.3l0.1,0.5C154.3,107.3,153.6,107.4,153,107.6z M160.9,107.2c-0.7-0.1-1.3-0.1-2-0.1
				l0-0.5c0.7,0,1.4,0.1,2,0.1L160.9,107.2z M156,107.2l0-0.5c0.6-0.1,1.3-0.1,2-0.1v0.5C157.3,107.1,156.6,107.1,156,107.2z"/>
		</g>
	</g>
	<g>
		<path class="st0" d="M225.9,117.9h16.2v45.5h-16.2V117.9z"/>
		<g>
			<polygon class="st1" points="226.2,118.9 225.7,118.9 225.7,117.7 226.9,117.7 226.9,118.2 226.2,118.2 			"/>
			<path class="st1" d="M240,118.2h-2.2v-0.5h2.2V118.2z M236.7,118.2h-2.2v-0.5h2.2V118.2z M233.4,118.2h-2.2v-0.5h2.2V118.2z
				 M230.2,118.2H228v-0.5h2.2L230.2,118.2L230.2,118.2z"/>
			<polygon class="st1" points="242.3,118.9 241.8,118.9 241.8,118.2 241.1,118.2 241.1,117.7 242.3,117.7 			"/>
			<path class="st1" d="M242.3,161.4h-0.5v-2h0.5V161.4z M242.3,158.4h-0.5v-2h0.5V158.4z M242.3,155.4h-0.5v-2h0.5V155.4z
				 M242.3,152.3h-0.5v-2h0.5V152.3z M242.3,149.3h-0.5v-2h0.5V149.3z M242.3,146.2h-0.5v-2h0.5V146.2z M242.3,143.2h-0.5v-2h0.5
				V143.2z M242.3,140.2h-0.5v-2h0.5V140.2z M242.3,137.1h-0.5v-2h0.5V137.1z M242.3,134.1h-0.5v-2h0.5V134.1z M242.3,131.1h-0.5v-2
				h0.5V131.1z M242.3,128h-0.5v-2h0.5V128z M242.3,125h-0.5v-2h0.5V125z M242.3,122h-0.5v-2h0.5V122z"/>
			<polygon class="st1" points="242.3,163.7 241.1,163.7 241.1,163.2 241.8,163.2 241.8,162.4 242.3,162.4 			"/>
			<path class="st1" d="M240,163.7h-2.2v-0.5h2.2V163.7z M236.7,163.7h-2.2v-0.5h2.2V163.7z M233.4,163.7h-2.2v-0.5h2.2V163.7z
				 M230.2,163.7H228v-0.5h2.2L230.2,163.7L230.2,163.7z"/>
			<polygon class="st1" points="226.9,163.7 225.7,163.7 225.7,162.4 226.2,162.4 226.2,163.2 226.9,163.2 			"/>
			<path class="st1" d="M226.2,161.4h-0.5v-2h0.5V161.4z M226.2,158.4h-0.5v-2h0.5V158.4z M226.2,155.4h-0.5v-2h0.5V155.4z
				 M226.2,152.3h-0.5v-2h0.5V152.3z M226.2,149.3h-0.5v-2h0.5V149.3z M226.2,146.2h-0.5v-2h0.5V146.2z M226.2,143.2h-0.5v-2h0.5
				V143.2z M226.2,140.2h-0.5v-2h0.5V140.2z M226.2,137.1h-0.5v-2h0.5V137.1z M226.2,134.1h-0.5v-2h0.5V134.1z M226.2,131.1h-0.5v-2
				h0.5V131.1z M226.2,128h-0.5v-2h0.5V128z M226.2,125h-0.5v-2h0.5V125z M226.2,122h-0.5v-2h0.5V122z"/>
		</g>
	</g>
	<g>
		<path class="st0" d="M512.3,90.4h16.2v18.7h14v13.4h-14v40.9h-16.2v-40.9h-12.6v-13.4h12.6V90.4z"/>
		<g>
			<polygon class="st1" points="512.5,91.4 512,91.4 512,90.1 513.3,90.1 513.3,90.6 512.5,90.6 			"/>
			<path class="st1" d="M526.3,90.6h-2.2v-0.5h2.2V90.6z M523.1,90.6h-2.2v-0.5h2.2V90.6z M519.8,90.6h-2.2v-0.5h2.2V90.6z
				 M516.5,90.6h-2.2v-0.5h2.2V90.6z"/>
			<polygon class="st1" points="528.7,91.4 528.2,91.4 528.2,90.6 527.4,90.6 527.4,90.1 528.7,90.1 			"/>
			<path class="st1" d="M528.7,107h-0.5V105h0.5V107z M528.7,103.9h-0.5v-2.1h0.5V103.9z M528.7,100.8h-0.5v-2.1h0.5V100.8z
				 M528.7,97.7h-0.5v-2.1h0.5V97.7z M528.7,94.5h-0.5v-2.1h0.5V94.5z"/>
			<polygon class="st1" points="529.4,109.3 528.2,109.3 528.2,108.1 528.7,108.1 528.7,108.8 529.4,108.8 			"/>
			<path class="st1" d="M540.5,109.3h-1.8v-0.5h1.8V109.3z M537.7,109.3h-1.8v-0.5h1.8V109.3z M534.9,109.3h-1.8v-0.5h1.8V109.3z
				 M532.2,109.3h-1.8v-0.5h1.8V109.3z"/>
			<polygon class="st1" points="542.6,110.1 542.1,110.1 542.1,109.3 541.4,109.3 541.4,108.8 542.6,108.8 			"/>
			<path class="st1" d="M542.6,120.7h-0.5v-1.8h0.5V120.7z M542.6,118h-0.5v-1.8h0.5V118z M542.6,115.4h-0.5v-1.8h0.5V115.4z
				 M542.6,112.7h-0.5V111h0.5V112.7z"/>
			<polygon class="st1" points="542.6,122.8 541.4,122.8 541.4,122.3 542.1,122.3 542.1,121.5 542.6,121.5 			"/>
			<path class="st1" d="M540.5,122.8h-1.8v-0.5h1.8V122.8z M537.7,122.8h-1.8v-0.5h1.8V122.8z M534.9,122.8h-1.8v-0.5h1.8V122.8z
				 M532.2,122.8h-1.8v-0.5h1.8V122.8z"/>
			<polygon class="st1" points="528.7,123.5 528.2,123.5 528.2,122.3 529.4,122.3 529.4,122.8 528.7,122.8 			"/>
			<path class="st1" d="M528.7,161.5h-0.5v-1.9h0.5V161.5z M528.7,158.5h-0.5v-1.9h0.5V158.5z M528.7,155.6h-0.5v-1.9h0.5V155.6z
				 M528.7,152.7h-0.5v-1.9h0.5V152.7z M528.7,149.8h-0.5v-1.9h0.5V149.8z M528.7,146.9h-0.5v-1.9h0.5V146.9z M528.7,143.9h-0.5V142
				h0.5V143.9z M528.7,141h-0.5v-1.9h0.5V141z M528.7,138.1h-0.5v-1.9h0.5V138.1z M528.7,135.2h-0.5v-1.9h0.5V135.2z M528.7,132.3
				h-0.5v-1.9h0.5V132.3z M528.7,129.4h-0.5v-1.9h0.5V129.4z M528.7,126.4h-0.5v-1.9h0.5V126.4z"/>
			<polygon class="st1" points="528.7,163.7 527.4,163.7 527.4,163.2 528.2,163.2 528.2,162.4 528.7,162.4 			"/>
			<path class="st1" d="M526.3,163.7h-2.2v-0.5h2.2V163.7z M523.1,163.7h-2.2v-0.5h2.2V163.7z M519.8,163.7h-2.2v-0.5h2.2V163.7z
				 M516.5,163.7h-2.2v-0.5h2.2V163.7z"/>
			<polygon class="st1" points="513.3,163.7 512,163.7 512,162.4 512.5,162.4 512.5,163.2 513.3,163.2 			"/>
			<path class="st1" d="M512.5,161.4H512v-1.9h0.5V161.4z M512.5,158.5H512v-1.9h0.5V158.5z M512.5,155.6H512v-1.9h0.5V155.6z
				 M512.5,152.7H512v-1.9h0.5V152.7z M512.5,149.8H512v-1.9h0.5V149.8z M512.5,146.9H512v-1.9h0.5V146.9z M512.5,143.9H512V142h0.5
				V143.9z M512.5,141H512v-1.9h0.5V141z M512.5,138.1H512v-1.9h0.5V138.1z M512.5,135.2H512v-1.9h0.5V135.2z M512.5,132.3H512v-1.9
				h0.5V132.3z M512.5,129.4H512v-1.9h0.5V129.4z M512.5,126.4H512v-1.9h0.5V126.4z"/>
			<polygon class="st1" points="512.5,123.5 512,123.5 512,122.8 511.3,122.8 511.3,122.3 512.5,122.3 			"/>
			<path class="st1" d="M510.2,122.8h-2.1v-0.5h2.1V122.8z M507,122.8h-2.1v-0.5h2.1V122.8z M503.8,122.8h-2.1v-0.5h2.1V122.8z"/>
			<polygon class="st1" points="500.6,122.8 499.4,122.8 499.4,121.5 499.9,121.5 499.9,122.3 500.6,122.3 			"/>
			<path class="st1" d="M499.9,120.7h-0.5v-1.8h0.5V120.7z M499.9,118h-0.5v-1.8h0.5V118z M499.9,115.4h-0.5v-1.8h0.5V115.4z
				 M499.9,112.7h-0.5V111h0.5V112.7z"/>
			<polygon class="st1" points="499.9,110.1 499.4,110.1 499.4,108.8 500.6,108.8 500.6,109.3 499.9,109.3 			"/>
			<path class="st1" d="M510.2,109.3h-2.1v-0.5h2.1V109.3z M507,109.3h-2.1v-0.5h2.1V109.3z M503.8,109.3h-2.1v-0.5h2.1V109.3z"/>
			<polygon class="st1" points="512.5,109.3 511.3,109.3 511.3,108.8 512,108.8 512,108.1 512.5,108.1 			"/>
			<path class="st1" d="M512.5,107H512V105h0.5V107z M512.5,103.9H512v-2.1h0.5V103.9z M512.5,100.8H512v-2.1h0.5V100.8z
				 M512.5,97.7H512v-2.1h0.5V97.7z M512.5,94.5H512v-2.1h0.5V94.5z"/>
		</g>
	</g>
	<g>
		<circle class="st0" cx="267" cy="57.7" r="10.3"/>
		<path class="st1" d="M267,68.3c-0.2,0-0.3,0-0.5,0l0-0.5c0.6,0,1.3,0,1.9-0.1l0.1,0.5C268.1,68.3,267.5,68.3,267,68.3z
			 M265.5,68.2c-0.7-0.1-1.3-0.2-2-0.5l0.2-0.5c0.6,0.2,1.2,0.4,1.9,0.4L265.5,68.2z M269.5,68l-0.1-0.5c0.6-0.2,1.2-0.4,1.8-0.6
			l0.2,0.4C270.8,67.6,270.2,67.8,269.5,68z M262.7,67.3c-0.6-0.3-1.2-0.6-1.7-1l0.3-0.4c0.5,0.4,1.1,0.7,1.7,1L262.7,67.3z
			 M272.3,66.9l-0.2-0.4c0.5-0.3,1.1-0.7,1.6-1.1l0.3,0.4C273.5,66.2,272.9,66.6,272.3,66.9z M260.1,65.7c-0.5-0.4-1-0.9-1.4-1.4
			l0.4-0.3c0.4,0.5,0.8,1,1.3,1.4L260.1,65.7z M274.7,65l-0.4-0.3c0.4-0.5,0.8-1,1.2-1.5l0.4,0.3C275.6,64,275.2,64.5,274.7,65z
			 M258.1,63.5c-0.4-0.6-0.7-1.2-0.9-1.8l0.5-0.2c0.2,0.6,0.5,1.2,0.9,1.7L258.1,63.5z M276.4,62.6l-0.4-0.2
			c0.3-0.6,0.5-1.2,0.7-1.8l0.5,0.1C277,61.3,276.8,62,276.4,62.6z M256.9,60.7c-0.2-0.6-0.3-1.3-0.4-2l0.5,0
			c0.1,0.6,0.2,1.3,0.4,1.9L256.9,60.7z M277.4,59.7l-0.5-0.1c0.1-0.6,0.2-1.3,0.2-1.9l0.5,0v0C277.6,58.4,277.5,59.1,277.4,59.7z
			 M256.5,57.7L256.5,57.7c0-0.7,0.1-1.4,0.2-2l0.5,0.1c-0.1,0.6-0.2,1.2-0.2,1.9L256.5,57.7z M277.1,56.7c-0.1-0.6-0.2-1.3-0.4-1.9
			l0.5-0.1c0.2,0.6,0.3,1.3,0.4,2L277.1,56.7z M257.4,54.9l-0.5-0.1c0.2-0.6,0.4-1.3,0.7-1.9l0.4,0.2
			C257.8,53.7,257.5,54.3,257.4,54.9z M276.4,53.9c-0.2-0.6-0.5-1.2-0.9-1.7l0.4-0.3c0.4,0.6,0.7,1.2,0.9,1.8L276.4,53.9z
			 M258.5,52.3l-0.4-0.3c0.4-0.6,0.8-1.1,1.2-1.6l0.4,0.3C259.3,51.2,258.9,51.8,258.5,52.3z M274.9,51.5c-0.4-0.5-0.8-1-1.3-1.4
			l0.3-0.4c0.5,0.4,1,0.9,1.4,1.5L274.9,51.5z M260.4,50.1l-0.3-0.4c0.5-0.4,1.1-0.8,1.6-1.2L262,49
			C261.4,49.3,260.9,49.7,260.4,50.1z M272.9,49.5c-0.5-0.4-1.1-0.7-1.7-1l0.2-0.5c0.6,0.3,1.2,0.6,1.7,1L272.9,49.5z M262.8,48.6
			l-0.2-0.5c0.6-0.3,1.2-0.5,1.9-0.7l0.1,0.5C264,48.1,263.4,48.3,262.8,48.6z M270.3,48.2c-0.6-0.2-1.2-0.4-1.9-0.4l0.1-0.5
			c0.7,0.1,1.3,0.2,2,0.5L270.3,48.2z M265.6,47.8l-0.1-0.5c0.7-0.1,1.3-0.1,2-0.1l0,0.5C266.9,47.6,266.2,47.7,265.6,47.8z"/>
	</g>
	<g>
		<path class="st0" d="M605,105.9c-15.9,0-28.7,12.9-28.7,28.7s12.9,28.7,28.7,28.7s28.7-12.9,28.7-28.7
			C633.7,118.8,620.9,105.9,605,105.9z M605,149.2c-8,0-14.6-6.5-14.6-14.6s6.5-14.6,14.6-14.6c8,0,14.6,6.5,14.6,14.6
			S613.1,149.2,605,149.2z"/>
		<g>
			<path class="st1" d="M605,163.6l-0.1-0.5h0.1c0.6,0,1.3,0,1.9-0.1l0,0.5C606.3,163.6,605.7,163.6,605,163.6z M603.9,163.6
				c-0.7,0-1.3-0.1-2-0.1l0-0.5c0.7,0.1,1.3,0.1,2,0.1L603.9,163.6z M608,163.5l0-0.5c0.7-0.1,1.3-0.2,2-0.3l0.1,0.5
				C609.3,163.3,608.7,163.4,608,163.5z M600.9,163.4c-0.7-0.1-1.3-0.2-2-0.4l0.1-0.5c0.6,0.1,1.3,0.2,2,0.4L600.9,163.4z M611,163
				l-0.1-0.5c0.7-0.1,1.3-0.3,1.9-0.5l0.1,0.5C612.3,162.7,611.6,162.9,611,163z M598,162.8c-0.7-0.2-1.3-0.4-1.9-0.6l0.2-0.5
				c0.6,0.2,1.3,0.4,1.9,0.6L598,162.8z M613.9,162.2l-0.2-0.5c0.6-0.2,1.3-0.4,1.9-0.7l0.2,0.5C615.2,161.8,614.5,162,613.9,162.2z
				 M595,161.9c-0.6-0.2-1.3-0.5-1.9-0.8l0.2-0.5c0.6,0.3,1.2,0.5,1.8,0.8L595,161.9z M616.8,161.2l-0.2-0.5
				c0.6-0.3,1.2-0.6,1.8-0.9l0.2,0.4C618,160.6,617.4,160.9,616.8,161.2z M592.3,160.7c-0.6-0.3-1.2-0.6-1.8-0.9l0.2-0.4
				c0.6,0.3,1.2,0.6,1.8,0.9L592.3,160.7z M619.5,159.8l-0.2-0.4c0.6-0.3,1.1-0.7,1.7-1.1l0.3,0.4
				C620.6,159.1,620,159.5,619.5,159.8z M589.6,159.2c-0.6-0.4-1.1-0.7-1.7-1.1l0.3-0.4c0.5,0.4,1.1,0.8,1.6,1.1L589.6,159.2z
				 M622,158.1l-0.3-0.4c0.5-0.4,1.1-0.8,1.6-1.2l0.3,0.4C623.1,157.3,622.5,157.8,622,158.1z M587.2,157.5c-0.5-0.4-1-0.9-1.5-1.3
				l0.3-0.4c0.5,0.4,1,0.9,1.5,1.3L587.2,157.5z M624.4,156.2l-0.3-0.4c0.5-0.4,1-0.9,1.4-1.4l0.4,0.4
				C625.3,155.3,624.8,155.8,624.4,156.2z M584.9,155.5c-0.5-0.5-1-1-1.4-1.5l0.4-0.3c0.4,0.5,0.9,1,1.4,1.4L584.9,155.5z
				 M626.5,154.1l-0.4-0.3c0.4-0.5,0.9-1,1.3-1.5l0.4,0.3C627.4,153.1,627,153.6,626.5,154.1z M582.8,153.3
				c-0.4-0.5-0.8-1.1-1.2-1.6l0.4-0.3c0.4,0.5,0.8,1.1,1.2,1.6L582.8,153.3z M628.4,151.8l-0.4-0.3c0.4-0.5,0.8-1.1,1.1-1.6l0.4,0.3
				C629.2,150.6,628.8,151.2,628.4,151.8z M581,150.8c-0.4-0.6-0.7-1.1-1.1-1.7l0.4-0.2c0.3,0.6,0.7,1.1,1,1.7L581,150.8z
				 M630.1,149.2l-0.4-0.2c0.3-0.6,0.7-1.2,0.9-1.8l0.5,0.2C630.7,148,630.4,148.6,630.1,149.2z M579.4,148.2
				c-0.3-0.6-0.6-1.2-0.9-1.8l0.5-0.2c0.3,0.6,0.6,1.2,0.9,1.8L579.4,148.2z M631.5,146.5l-0.5-0.2c0.3-0.6,0.5-1.2,0.8-1.8l0.5,0.2
				C632,145.3,631.7,145.9,631.5,146.5z M578.1,145.5c-0.2-0.6-0.5-1.3-0.7-1.9l0.5-0.1c0.2,0.6,0.4,1.2,0.7,1.9L578.1,145.5z
				 M632.5,143.7l-0.5-0.2c0.2-0.6,0.4-1.3,0.5-1.9l0.5,0.1C633,142.4,632.8,143.1,632.5,143.7z M577.2,142.6
				c-0.2-0.6-0.3-1.3-0.5-2l0.5-0.1c0.1,0.6,0.3,1.3,0.5,1.9L577.2,142.6z M633.3,140.8l-0.5-0.1c0.1-0.6,0.2-1.3,0.3-1.9l0.5,0.1
				C633.6,139.4,633.5,140.1,633.3,140.8z M576.5,139.7c-0.1-0.7-0.2-1.3-0.3-2l0.5-0.1c0.1,0.6,0.2,1.3,0.3,2L576.5,139.7z
				 M633.8,137.8l-0.5-0.1c0.1-0.6,0.1-1.3,0.1-2l0.5,0C634,136.4,633.9,137.1,633.8,137.8z M576.1,136.6c0-0.7-0.1-1.3-0.1-2l0.5,0
				v0c0,0.6,0,1.3,0.1,2L576.1,136.6z M634,134.8h-0.5v-0.1c0-0.6,0-1.3-0.1-1.9l0.5,0C634,133.4,634,134,634,134.8L634,134.8z
				 M576.6,133.6l-0.5,0c0-0.7,0.1-1.4,0.1-2l0.5,0.1C576.6,132.3,576.6,133,576.6,133.6z M633.3,131.8c-0.1-0.7-0.2-1.3-0.3-2
				l0.5-0.1c0.1,0.7,0.2,1.3,0.3,2L633.3,131.8z M576.8,130.7l-0.5-0.1c0.1-0.7,0.2-1.3,0.3-2l0.5,0.1
				C577,129.4,576.9,130,576.8,130.7z M632.9,128.8c-0.1-0.6-0.3-1.3-0.5-1.9l0.5-0.1c0.2,0.7,0.3,1.3,0.5,2L632.9,128.8z
				 M577.4,127.8l-0.5-0.1c0.2-0.7,0.3-1.3,0.6-1.9l0.5,0.2C577.7,126.5,577.5,127.1,577.4,127.8z M632.1,125.9
				c-0.2-0.6-0.4-1.3-0.7-1.9l0.5-0.2c0.2,0.6,0.5,1.3,0.7,1.9L632.1,125.9z M578.3,124.9l-0.5-0.2c0.2-0.6,0.5-1.3,0.8-1.9l0.5,0.2
				C578.7,123.7,578.5,124.3,578.3,124.9z M631.1,123.2c-0.3-0.6-0.6-1.2-0.9-1.8l0.4-0.2c0.3,0.6,0.6,1.2,0.9,1.8L631.1,123.2z
				 M579.4,122.2l-0.5-0.2c0.3-0.6,0.6-1.2,1-1.8l0.4,0.2C580,121,579.7,121.6,579.4,122.2z M629.7,120.5c-0.3-0.6-0.7-1.1-1-1.7
				l0.4-0.3c0.4,0.6,0.7,1.1,1.1,1.7L629.7,120.5z M580.9,119.6l-0.4-0.3c0.3-0.6,0.7-1.1,1.1-1.7l0.4,0.3
				C581.6,118.4,581.2,119,580.9,119.6z M628.1,118c-0.4-0.5-0.8-1.1-1.2-1.6l0.4-0.3c0.4,0.5,0.8,1.1,1.2,1.6L628.1,118z
				 M582.6,117.1l-0.4-0.3c0.4-0.5,0.8-1.1,1.3-1.6l0.4,0.3C583.4,116.1,583,116.6,582.6,117.1z M626.2,115.7
				c-0.4-0.5-0.9-1-1.4-1.4l0.3-0.4c0.5,0.5,1,1,1.4,1.5L626.2,115.7z M584.5,114.9l-0.4-0.3c0.5-0.5,1-1,1.5-1.4l0.3,0.4
				C585.5,113.9,585,114.4,584.5,114.9z M624.1,113.6c-0.5-0.4-1-0.9-1.5-1.3l0.3-0.4c0.5,0.4,1,0.9,1.5,1.3L624.1,113.6z
				 M586.7,112.8l-0.3-0.4c0.5-0.4,1-0.8,1.6-1.2l0.3,0.4C587.8,112,587.2,112.4,586.7,112.8z M621.8,111.7
				c-0.5-0.4-1.1-0.8-1.6-1.1l0.3-0.4c0.6,0.4,1.1,0.7,1.7,1.1L621.8,111.7z M589.1,111.1l-0.3-0.4c0.6-0.4,1.1-0.7,1.7-1.1l0.2,0.4
				C590.2,110.3,589.6,110.7,589.1,111.1z M619.3,110.1c-0.6-0.3-1.2-0.7-1.8-0.9l0.2-0.4c0.6,0.3,1.2,0.6,1.8,1L619.3,110.1z
				 M591.7,109.5l-0.2-0.4c0.6-0.3,1.2-0.6,1.8-0.9l0.2,0.5C592.8,108.9,592.2,109.2,591.7,109.5z M616.7,108.7
				c-0.6-0.3-1.2-0.5-1.8-0.8l0.2-0.5c0.6,0.2,1.3,0.5,1.9,0.8L616.7,108.7z M594.3,108.2l-0.2-0.5c0.6-0.2,1.3-0.5,1.9-0.7l0.2,0.5
				C595.6,107.8,595,108,594.3,108.2z M613.9,107.6c-0.6-0.2-1.3-0.4-1.9-0.6l0.1-0.5c0.7,0.2,1.3,0.3,1.9,0.6L613.9,107.6z
				 M597.2,107.3l-0.1-0.5c0.6-0.2,1.3-0.3,2-0.5l0.1,0.5C598.5,106.9,597.8,107.1,597.2,107.3z M611,106.8c-0.6-0.1-1.3-0.3-2-0.3
				l0.1-0.5c0.7,0.1,1.3,0.2,2,0.4L611,106.8z M600.1,106.6l-0.1-0.5c0.7-0.1,1.3-0.2,2-0.3l0,0.5
				C601.4,106.4,600.7,106.5,600.1,106.6z M608.1,106.3c-0.7-0.1-1.3-0.1-2-0.1l0-0.5c0.7,0,1.3,0.1,2,0.2L608.1,106.3z M603,106.2
				l0-0.5c0.7-0.1,1.3-0.1,2-0.1h0.1v0.5H605C604.3,106.2,603.7,106.2,603,106.2z"/>
			<path class="st1" d="M605.1,149.5L605.1,149.5c-0.7,0-1.4,0-2.1-0.1l0.1-0.5c0.6,0.1,1.3,0.1,1.9,0.1L605.1,149.5z M606.1,149.5
				l0-0.5c0.6-0.1,1.3-0.1,1.9-0.3l0.1,0.5C607.4,149.3,606.7,149.4,606.1,149.5z M602,149.2c-0.7-0.1-1.3-0.3-1.9-0.5l0.2-0.5
				c0.6,0.2,1.2,0.4,1.9,0.5L602,149.2z M609,148.9l-0.1-0.5c0.6-0.2,1.2-0.4,1.8-0.6l0.2,0.5C610.3,148.5,609.7,148.8,609,148.9z
				 M599.2,148.3c-0.6-0.3-1.2-0.6-1.8-0.9l0.3-0.4c0.5,0.3,1.1,0.6,1.7,0.9L599.2,148.3z M611.8,147.8l-0.2-0.4
				c0.6-0.3,1.1-0.6,1.7-1l0.3,0.4C613,147.2,612.4,147.5,611.8,147.8z M596.5,146.8c-0.5-0.4-1.1-0.8-1.6-1.2l0.3-0.4
				c0.5,0.4,1,0.8,1.5,1.2L596.5,146.8z M614.3,146.2l-0.3-0.4c0.5-0.4,1-0.9,1.4-1.3l0.4,0.3C615.3,145.3,614.8,145.8,614.3,146.2z
				 M594.3,144.9c-0.5-0.5-0.9-1-1.3-1.5l0.4-0.3c0.4,0.5,0.8,1,1.2,1.5L594.3,144.9z M616.5,144.1l-0.4-0.3c0.4-0.5,0.8-1,1.1-1.6
				l0.4,0.3C617.3,143,616.9,143.6,616.5,144.1z M592.4,142.5c-0.3-0.6-0.7-1.2-0.9-1.8l0.5-0.2c0.3,0.6,0.6,1.2,0.9,1.7
				L592.4,142.5z M618.1,141.6l-0.4-0.2c0.3-0.6,0.6-1.2,0.8-1.8l0.5,0.2C618.7,140.4,618.4,141,618.1,141.6z M591.1,139.8
				c-0.2-0.6-0.4-1.3-0.6-1.9l0.5-0.1c0.1,0.6,0.3,1.2,0.5,1.9L591.1,139.8z M619.3,138.8l-0.5-0.1c0.2-0.6,0.3-1.2,0.4-1.9l0.5,0.1
				C619.6,137.5,619.5,138.2,619.3,138.8z M590.3,136.9c-0.1-0.7-0.2-1.3-0.2-2l0.5,0c0,0.6,0.1,1.3,0.2,1.9L590.3,136.9z
				 M619.8,135.9l-0.5,0c0-0.4,0-0.8,0-1.2c0-0.3,0-0.5,0-0.8l0.5,0c0,0.3,0,0.5,0,0.8C619.8,135.1,619.8,135.5,619.8,135.9z
				 M590.7,133.9l-0.5,0c0-0.7,0.1-1.3,0.2-2l0.5,0.1C590.8,132.7,590.7,133.3,590.7,133.9z M619.2,132.9c-0.1-0.6-0.2-1.3-0.4-1.9
				l0.5-0.1c0.2,0.6,0.3,1.3,0.4,2L619.2,132.9z M591.1,131.1l-0.5-0.1c0.2-0.6,0.4-1.3,0.6-1.9l0.5,0.2
				C591.5,129.8,591.3,130.5,591.1,131.1z M618.6,130.1c-0.2-0.6-0.5-1.2-0.7-1.8l0.5-0.2c0.3,0.6,0.5,1.2,0.8,1.9L618.6,130.1z
				 M592.1,128.4l-0.5-0.2c0.3-0.6,0.6-1.2,1-1.7l0.4,0.3C592.8,127.2,592.4,127.8,592.1,128.4z M617.4,127.5
				c-0.3-0.6-0.7-1.1-1.1-1.6l0.4-0.3c0.4,0.5,0.8,1.1,1.1,1.7L617.4,127.5z M593.7,125.9l-0.4-0.3c0.4-0.5,0.8-1,1.3-1.5l0.3,0.4
				C594.5,124.9,594.1,125.4,593.7,125.9z M615.7,125.1c-0.4-0.5-0.9-0.9-1.4-1.3l0.3-0.4c0.5,0.4,1,0.9,1.4,1.4L615.7,125.1z
				 M595.7,123.8l-0.3-0.4c0.5-0.4,1-0.8,1.6-1.2l0.3,0.4C596.7,123,596.2,123.4,595.7,123.8z M613.6,123.2
				c-0.5-0.4-1.1-0.7-1.6-1.1l0.2-0.4c0.6,0.3,1.2,0.7,1.7,1.1L613.6,123.2z M598,122.1l-0.2-0.4c0.6-0.3,1.2-0.6,1.8-0.9l0.2,0.5
				C599.2,121.6,598.6,121.8,598,122.1z M611.1,121.7c-0.6-0.3-1.2-0.5-1.8-0.7l0.2-0.5c0.6,0.2,1.3,0.4,1.9,0.7L611.1,121.7z
				 M600.7,121l-0.2-0.5c0.6-0.2,1.3-0.4,1.9-0.5l0.1,0.5C602,120.6,601.3,120.8,600.7,121z M608.3,120.7c-0.6-0.2-1.3-0.3-1.9-0.3
				l0-0.5c0.7,0.1,1.3,0.2,2,0.3L608.3,120.7z M603.5,120.4l0-0.5c0.7-0.1,1.3-0.1,2-0.1l0,0.5C604.8,120.3,604.2,120.3,603.5,120.4
				z"/>
		</g>
	</g>
	<g>
		<path class="st0" d="M463.7,154.9l-27-57c-0.9-2.5-3.4-4.3-6.2-4.3c-2.8,0-5.1,1.7-6.1,4.1l-1.5,3.2l-25.3,54
			c-0.3,0.7-0.4,1.5-0.4,2.3c0,1.9,1.2,3.7,1.2,3.7c4.6,6.4,12.1,10.7,20.7,10.7c7.9,0,12.6-2,19.6-9c1.4-1.4,3.7-2.9,7.1-2.9
			c2.5,0,4.7,0.4,6.5,1.8c0,0,3,2.2,5,2.2c3.6,0,6.6-2.9,6.6-6.6C464.1,156.3,464,155.5,463.7,154.9z M429.7,153.3
			c-5.3,5.3-6.9,5.3-10.5,5.3c-2.9,0-5.6-1-7.8-2.7l19.1-40.9l15,31.8C439.5,146.8,433.9,149.1,429.7,153.3z"/>
		<g>
			<path class="st1" d="M419.2,171.7c-0.6,0-1.2,0-1.7-0.1l0-0.5c0.6,0,1.1,0.1,1.7,0.1h0.3v0.5H419.2z M420.5,171.7l0-0.5
				c0.7,0,1.4-0.1,2-0.1l0,0.5C421.9,171.6,421.2,171.6,420.5,171.7z M416.5,171.5c-0.7-0.1-1.3-0.2-2-0.3l0.1-0.5
				c0.6,0.1,1.3,0.2,2,0.3L416.5,171.5z M423.5,171.4l-0.1-0.5c0.7-0.1,1.3-0.2,1.9-0.3l0.1,0.5
				C424.9,171.2,424.2,171.3,423.5,171.4z M413.5,171.1c-0.6-0.1-1.3-0.3-1.9-0.5l0.1-0.5c0.6,0.2,1.3,0.4,1.9,0.5L413.5,171.1z
				 M426.5,170.9l-0.1-0.5c0.6-0.2,1.3-0.4,1.9-0.6l0.2,0.5C427.8,170.5,427.1,170.7,426.5,170.9z M410.6,170.2
				c-0.6-0.2-1.3-0.5-1.9-0.8l0.2-0.5c0.6,0.3,1.2,0.5,1.8,0.7L410.6,170.2z M429.3,169.8l-0.2-0.5c0.6-0.3,1.2-0.6,1.8-0.9l0.2,0.4
				C430.5,169.2,429.9,169.6,429.3,169.8z M407.8,169c-0.6-0.3-1.2-0.6-1.8-1l0.3-0.4c0.6,0.3,1.1,0.7,1.7,0.9L407.8,169z
				 M432,168.4l-0.3-0.4c0.5-0.3,1.1-0.7,1.6-1.1l0.3,0.4C433.1,167.7,432.5,168.1,432,168.4z M405.2,167.5
				c-0.6-0.4-1.1-0.8-1.6-1.2l0.3-0.4c0.5,0.4,1.1,0.8,1.6,1.1L405.2,167.5z M434.4,166.7l-0.3-0.4c0.5-0.4,1-0.8,1.5-1.3l0.3,0.4
				C435.5,165.8,435,166.3,434.4,166.7z M402.8,165.7c-0.5-0.4-1-0.9-1.5-1.4l0.4-0.4c0.5,0.5,1,0.9,1.5,1.3L402.8,165.7z
				 M436.7,164.7l-0.3-0.4c0.5-0.4,1-0.9,1.5-1.4l0.4,0.4C437.7,163.8,437.2,164.3,436.7,164.7z M458,163.9l0-0.5
				c0.6-0.1,1.3-0.2,1.9-0.4l0.2,0.5C459.4,163.6,458.7,163.8,458,163.9z M457,163.8c-0.6-0.1-1.2-0.3-2-0.6l0.2-0.4
				c0.7,0.3,1.3,0.5,1.8,0.6L457,163.8z M400.6,163.6c-0.5-0.5-0.9-1-1.3-1.5l0.4-0.3c0.4,0.5,0.9,1,1.3,1.5L400.6,163.6z
				 M461,162.9l-0.2-0.4c0.5-0.3,1-0.7,1.5-1.2l0.4,0.3C462.1,162.1,461.6,162.6,461,162.9z M454.1,162.7c-0.8-0.5-1.5-0.9-1.7-1.1
				l0.3-0.4c0.2,0.1,0.8,0.6,1.7,1.1L454.1,162.7z M438.9,162.6l-0.4-0.4l0-0.1c0.5-0.5,1-0.9,1.5-1.2l0.3,0.4
				C439.9,161.7,439.4,162.1,438.9,162.6L438.9,162.6z M398.6,161.3c-0.1-0.1-0.2-0.3-0.3-0.4c0,0-0.4-0.6-0.7-1.4l0.5-0.2
				c0.3,0.8,0.7,1.3,0.7,1.3c0.1,0.1,0.2,0.2,0.3,0.4L398.6,161.3z M451.6,161.1c-0.5-0.3-1.1-0.6-1.8-0.8l0.1-0.5
				c0.7,0.2,1.3,0.5,1.9,0.8L451.6,161.1z M441.2,160.9l-0.2-0.4c0.6-0.3,1.2-0.6,1.9-0.8l0.1,0.5
				C442.4,160.4,441.8,160.6,441.2,160.9z M463.2,160.8l-0.4-0.3c0.4-0.5,0.6-1.1,0.8-1.7l0.5,0.1
				C463.9,159.6,463.6,160.2,463.2,160.8z M448.9,160.1c-0.6-0.1-1.2-0.2-1.9-0.2l0-0.5c0.7,0,1.4,0.1,2,0.2L448.9,160.1z M444,160
				l-0.1-0.5c0.6-0.1,1.3-0.2,2-0.2l0,0.5C445.3,159.8,444.6,159.9,444,160z M397.3,158.6c-0.1-0.5-0.2-1-0.2-1.5c0-0.2,0-0.4,0-0.6
				l0.5,0c0,0.2,0,0.3,0,0.5c0,0.4,0.1,0.9,0.2,1.4L397.3,158.6z M464.3,157.9l-0.5-0.1c0-0.3,0-0.6,0-0.8c0-0.4,0-0.7-0.1-1.1
				l0.5-0.1c0.1,0.4,0.1,0.8,0.1,1.2C464.3,157.3,464.3,157.6,464.3,157.9z M397.7,155.6l-0.5-0.1c0.1-0.3,0.1-0.5,0.2-0.8l0.5-1.1
				l0.5,0.2l-0.5,1.1C397.9,155.1,397.8,155.3,397.7,155.6z M463.5,155L463.5,155l-0.9-1.9l0.5-0.2l0.9,1.9L463.5,155z M398.9,152.9
				l-0.5-0.2l0.9-1.8l0.5,0.2L398.9,152.9z M462.2,152.2l-0.9-1.8l0.5-0.2l0.9,1.8L462.2,152.2z M400.1,150.2l-0.5-0.2l0.9-1.8
				l0.5,0.2L400.1,150.2z M460.9,149.5l-0.9-1.8l0.5-0.2l0.9,1.8L460.9,149.5z M401.4,147.4l-0.5-0.2l0.9-1.8l0.5,0.2L401.4,147.4z
				 M459.6,146.8l-0.9-1.8l0.5-0.2l0.9,1.8L459.6,146.8z M402.7,144.7l-0.5-0.2l0.9-1.8l0.5,0.2L402.7,144.7z M458.4,144.1l-0.9-1.8
				l0.5-0.2l0.9,1.8L458.4,144.1z M404,142l-0.5-0.2l0.9-1.8l0.5,0.2L404,142z M457.1,141.4l-0.9-1.8l0.5-0.2l0.9,1.8L457.1,141.4z
				 M405.2,139.3l-0.5-0.2l0.9-1.8l0.5,0.2L405.2,139.3z M455.8,138.7l-0.9-1.8l0.5-0.2l0.9,1.8L455.8,138.7z M406.5,136.6l-0.5-0.2
				l0.9-1.8l0.5,0.2L406.5,136.6z M454.5,136l-0.9-1.8l0.5-0.2l0.9,1.8L454.5,136z M407.8,133.9l-0.5-0.2l0.9-1.8l0.5,0.2
				L407.8,133.9z M453.2,133.3l-0.9-1.8l0.5-0.2l0.9,1.8L453.2,133.3z M409,131.2l-0.5-0.2l0.9-1.8l0.5,0.2L409,131.2z M452,130.6
				l-0.9-1.8l0.5-0.2l0.9,1.8L452,130.6z M410.3,128.5l-0.5-0.2l0.9-1.8l0.5,0.2L410.3,128.5z M450.7,127.9l-0.9-1.8l0.5-0.2
				l0.9,1.8L450.7,127.9z M411.6,125.8l-0.5-0.2l0.9-1.8l0.5,0.2L411.6,125.8z M449.4,125.2l-0.9-1.8l0.5-0.2l0.9,1.8L449.4,125.2z
				 M412.9,123l-0.5-0.2l0.9-1.8l0.5,0.2L412.9,123z M448.1,122.5l-0.9-1.8l0.5-0.2l0.9,1.8L448.1,122.5z M414.1,120.3l-0.5-0.2
				l0.9-1.8l0.5,0.2L414.1,120.3z M446.8,119.8L446,118l0.5-0.2l0.9,1.8L446.8,119.8z M415.4,117.6l-0.5-0.2l0.9-1.8l0.5,0.2
				L415.4,117.6z M445.6,117.1l-0.9-1.8l0.5-0.2l0.9,1.8L445.6,117.1z M416.7,114.9l-0.5-0.2l0.9-1.8l0.5,0.2L416.7,114.9z
				 M444.3,114.3l-0.9-1.8l0.5-0.2l0.9,1.8L444.3,114.3z M417.9,112.2l-0.5-0.2l0.9-1.8l0.5,0.2L417.9,112.2z M443,111.6l-0.9-1.8
				l0.5-0.2l0.9,1.8L443,111.6z M419.2,109.5l-0.5-0.2l0.9-1.8l0.5,0.2L419.2,109.5z M441.7,108.9l-0.9-1.8l0.5-0.2l0.9,1.8
				L441.7,108.9z M420.5,106.8l-0.5-0.2l0.9-1.8l0.5,0.2L420.5,106.8z M440.4,106.2l-0.9-1.8l0.5-0.2l0.9,1.8L440.4,106.2z
				 M421.7,104.1l-0.5-0.2l0.9-1.8l0.5,0.2L421.7,104.1z M439.2,103.5l-0.9-1.8l0.5-0.2l0.9,1.8L439.2,103.5z M423,101.3l-0.5-0.2
				l0.8-1.8l0.5,0.2L423,101.3z M437.9,100.8L437,99l0.5-0.2l0.9,1.8L437.9,100.8z M424.3,98.6l-0.5-0.2l0.4-0.9
				c0.1-0.3,0.3-0.6,0.5-0.9l0.4,0.3c-0.2,0.3-0.3,0.6-0.4,0.8L424.3,98.6z M436.6,98.1l-0.1-0.2c-0.2-0.6-0.5-1.1-0.8-1.6l0.4-0.3
				c0.4,0.5,0.7,1.1,0.9,1.7l0.1,0.1L436.6,98.1z M425.7,96.1l-0.4-0.3c0.4-0.5,1-1,1.5-1.4l0.3,0.4
				C426.6,95.2,426.1,95.6,425.7,96.1z M435.1,95.7c-0.5-0.5-1-0.8-1.5-1.1l0.2-0.4c0.6,0.3,1.2,0.7,1.7,1.2L435.1,95.7z M428,94.3
				l-0.2-0.5c0.6-0.3,1.3-0.5,2-0.6l0.1,0.5C429.2,93.9,428.5,94.1,428,94.3z M432.6,94.1c-0.6-0.2-1.2-0.3-1.9-0.3l0-0.5
				c0.7,0,1.4,0.2,2,0.4L432.6,94.1z"/>
			<g>
				<path class="st1" d="M412.1,156.6c-0.3-0.2-0.6-0.4-0.8-0.6l-0.1-0.1l0.5-1.1l0.5,0.2l-0.3,0.7c0.2,0.2,0.4,0.3,0.6,0.5
					L412.1,156.6z"/>
				<path class="st1" d="M412.5,154.1l-0.5-0.2l0.9-1.8l0.5,0.2L412.5,154.1z M413.8,151.4l-0.5-0.2l0.9-1.8l0.5,0.2L413.8,151.4z
					 M415.1,148.7l-0.5-0.2l0.9-1.8l0.5,0.2L415.1,148.7z M416.3,145.9l-0.5-0.2l0.9-1.8l0.5,0.2L416.3,145.9z M417.6,143.2
					l-0.5-0.2l0.9-1.8l0.5,0.2L417.6,143.2z M418.9,140.5l-0.5-0.2l0.9-1.8l0.5,0.2L418.9,140.5z M420.2,137.8l-0.5-0.2l0.9-1.8
					l0.5,0.2L420.2,137.8z M421.5,135l-0.5-0.2l0.9-1.8l0.5,0.2L421.5,135z M422.7,132.3l-0.5-0.2l0.9-1.8l0.5,0.2L422.7,132.3z
					 M424,129.6l-0.5-0.2l0.9-1.8l0.5,0.2L424,129.6z M425.3,126.8l-0.5-0.2l0.9-1.8l0.5,0.2L425.3,126.8z M426.6,124.1l-0.5-0.2
					l0.9-1.8l0.5,0.2L426.6,124.1z M427.8,121.4l-0.5-0.2l0.9-1.8l0.5,0.2L427.8,121.4z M429.1,118.7l-0.5-0.2l0.9-1.8l0.5,0.2
					L429.1,118.7z"/>
				<polygon class="st1" points="430.4,115.9 429.9,115.7 430.6,114.3 431.2,115.7 430.8,115.9 430.6,115.5 				"/>
				<path class="st1" d="M444.5,145l-0.8-1.8l0.5-0.2l0.8,1.8L444.5,145z M443.3,142.4l-0.8-1.8l0.5-0.2l0.8,1.8L443.3,142.4z
					 M442,139.7l-0.8-1.8l0.5-0.2l0.8,1.8L442,139.7z M440.8,137.1l-0.8-1.8l0.5-0.2l0.8,1.8L440.8,137.1z M439.5,134.4l-0.8-1.8
					l0.5-0.2l0.8,1.8L439.5,134.4z M438.3,131.8l-0.8-1.8l0.5-0.2l0.8,1.8L438.3,131.8z M437,129.1l-0.8-1.8l0.5-0.2l0.8,1.8
					L437,129.1z M435.8,126.5l-0.8-1.8l0.5-0.2l0.8,1.8L435.8,126.5z M434.5,123.9l-0.8-1.8l0.5-0.2l0.8,1.8L434.5,123.9z
					 M433.3,121.2l-0.8-1.8l0.5-0.2l0.8,1.8L433.3,121.2z M432,118.6l-0.8-1.8l0.5-0.2l0.8,1.8L432,118.6z"/>
				<path class="st1" d="M444.6,147l0-0.5c0.2,0,0.4,0,0.6,0l-0.3-0.6l0.5-0.2l0.6,1.3l-0.4,0C445.3,146.9,444.9,146.9,444.6,147z"
					/>
				<path class="st1" d="M419.2,158.8c-0.2,0-0.3,0-0.5,0l0-0.5c0.2,0,0.3,0,0.5,0c0.5,0,1,0,1.4,0l0,0.5
					C420.2,158.8,419.7,158.8,419.2,158.8z M421.7,158.7l-0.1-0.5c0.7-0.1,1.2-0.2,1.8-0.4l0.2,0.5
					C423,158.5,422.4,158.6,421.7,158.7z M417.7,158.7c-0.7-0.1-1.3-0.2-2-0.4l0.1-0.5c0.6,0.2,1.2,0.3,1.9,0.4L417.7,158.7z
					 M414.8,158c-0.6-0.2-1.2-0.5-1.8-0.8l0.2-0.4c0.6,0.3,1.1,0.6,1.7,0.8L414.8,158z M424.5,157.8l-0.2-0.4c0.5-0.3,1-0.6,1.6-1
					l0.3,0.4C425.6,157.2,425.1,157.5,424.5,157.8z M427,156.1l-0.3-0.4c0.5-0.4,0.9-0.8,1.5-1.3l0.3,0.4
					C427.9,155.3,427.5,155.8,427,156.1z M429.2,154.1l-0.4-0.4c0.2-0.2,0.4-0.4,0.7-0.7s0.5-0.5,0.7-0.7l0.3,0.4
					c-0.2,0.2-0.5,0.4-0.7,0.7C429.6,153.7,429.4,153.9,429.2,154.1z M431.3,152.1l-0.3-0.4c0.5-0.4,1-0.8,1.6-1.2l0.3,0.4
					C432.3,151.3,431.8,151.7,431.3,152.1z M433.6,150.4l-0.3-0.4c0.5-0.4,1.1-0.7,1.7-1l0.2,0.4
					C434.8,149.8,434.2,150.1,433.6,150.4z M436.2,149l-0.2-0.4c0.6-0.3,1.2-0.5,1.8-0.8l0.2,0.5C437.4,148.5,436.8,148.8,436.2,149
					z M438.9,148l-0.1-0.5c0.6-0.2,1.3-0.4,1.9-0.5l0.1,0.5C440.1,147.6,439.5,147.8,438.9,148z M441.7,147.3l-0.1-0.5
					c0.6-0.1,1.3-0.2,2-0.3l0,0.5C443,147.1,442.4,147.2,441.7,147.3z"/>
			</g>
		</g>
	</g>
	<g>
		<path class="st0" d="M308.6,113.4c6.2-4.5,11.9-7.1,19.1-7.1c12,0,22.1,7.1,22.1,19.1v38.1h-16.2v-26.4c0-11-1.1-18.1-10.9-18.1
			c-4.5,0-8.4,1.9-10.9,5.3c-3.3,4.5-3.2,9.5-3.2,15.3v23.7h-16.2v-57.2h16.2V113.4z"/>
		<g>
			<path class="st1" d="M308.3,113.8v-1.5h0.5v0.5c0.1-0.1,0.3-0.2,0.4-0.3l0.3,0.4c-0.3,0.2-0.5,0.4-0.8,0.6L308.3,113.8z"/>
			<path class="st1" d="M350,161.4h-0.5v-2h0.5V161.4z M350,158.4h-0.5v-2h0.5V158.4z M350,155.5h-0.5v-2h0.5V155.5z M350,152.6
				h-0.5v-2h0.5V152.6z M350,149.6h-0.5v-2h0.5V149.6z M350,146.6h-0.5v-2h0.5V146.6z M350,143.7h-0.5v-2h0.5V143.7z M350,140.7
				h-0.5v-2h0.5V140.7z M350,137.8h-0.5v-2h0.5V137.8z M350,134.8h-0.5v-2h0.5V134.8z M350,131.9h-0.5v-2h0.5V131.9z M350,128.9
				h-0.5v-2h0.5V128.9z M350,126h-0.5v-0.7c0-0.4,0-0.9,0-1.3l0.5,0c0,0.4,0,0.9,0,1.3V126z M349.4,123.1c-0.1-0.7-0.2-1.3-0.3-1.9
				l0.5-0.1c0.1,0.6,0.2,1.3,0.3,2L349.4,123.1z M348.8,120.2c-0.2-0.6-0.4-1.2-0.6-1.8l0.5-0.2c0.2,0.6,0.5,1.2,0.6,1.9
				L348.8,120.2z M347.8,117.5c-0.3-0.6-0.6-1.2-0.9-1.7l0.4-0.3c0.4,0.6,0.7,1.2,1,1.8L347.8,117.5z M346.3,115
				c-0.4-0.5-0.8-1-1.2-1.5l0.4-0.3c0.4,0.5,0.9,1,1.2,1.6L346.3,115z M344.5,112.8c-0.5-0.4-0.9-0.9-1.4-1.3l0.3-0.4
				c0.5,0.4,1,0.9,1.5,1.3L344.5,112.8z M310.3,112.4L310,112c0.5-0.4,1.1-0.7,1.6-1.1l0.3,0.4C311.4,111.7,310.9,112.1,310.3,112.4
				z M342.3,110.9c-0.5-0.4-1.1-0.7-1.6-1.1l0.2-0.4c0.6,0.3,1.1,0.7,1.7,1.1L342.3,110.9z M312.8,110.8l-0.3-0.4
				c0.6-0.3,1.2-0.7,1.7-1l0.2,0.4C313.9,110.2,313.4,110.5,312.8,110.8z M315.4,109.4l-0.2-0.4c0.6-0.3,1.2-0.6,1.8-0.8l0.2,0.5
				C316.5,108.9,316,109.1,315.4,109.4z M339.8,109.3c-0.6-0.3-1.1-0.6-1.8-0.8l0.2-0.5c0.6,0.3,1.2,0.6,1.8,0.9L339.8,109.3z
				 M318,108.2l-0.2-0.5c0.6-0.2,1.2-0.5,1.9-0.7l0.1,0.5C319.3,107.8,318.7,108,318,108.2z M337.1,108.1c-0.6-0.2-1.2-0.4-1.9-0.6
				l0.1-0.5c0.6,0.2,1.3,0.4,1.9,0.6L337.1,108.1z M320.8,107.3l-0.1-0.5c0.6-0.2,1.3-0.3,1.9-0.4l0.1,0.5
				C322.1,107,321.5,107.2,320.8,107.3z M334.3,107.3c-0.6-0.2-1.3-0.3-1.9-0.4l0.1-0.5c0.6,0.1,1.3,0.2,2,0.4L334.3,107.3z
				 M323.7,106.8l-0.1-0.5c0.6-0.1,1.3-0.2,2-0.2l0,0.5C325,106.6,324.3,106.7,323.7,106.8z M331.5,106.7c-0.6-0.1-1.3-0.2-1.9-0.2
				l0-0.5c0.7,0,1.3,0.1,2,0.2L331.5,106.7z M326.6,106.5l0-0.5c0.6,0,1.3,0,2,0l0,0.5C327.9,106.5,327.2,106.5,326.6,106.5z"/>
			<polygon class="st1" points="350,163.7 348.8,163.7 348.8,163.2 349.5,163.2 349.5,162.4 350,162.4 			"/>
			<path class="st1" d="M347.7,163.7h-2.2v-0.5h2.2V163.7z M344.4,163.7h-2.2v-0.5h2.2V163.7z M341.1,163.7H339v-0.5h2.2V163.7z
				 M337.9,163.7h-2.2v-0.5h2.2V163.7z"/>
			<polygon class="st1" points="334.6,163.7 333.3,163.7 333.3,162.4 333.8,162.4 333.8,163.2 334.6,163.2 			"/>
			<path class="st1" d="M333.8,161.4h-0.5v-2h0.5V161.4z M308.8,161.4h-0.5v-2h0.5V161.4z M333.8,158.4h-0.5v-2h0.5V158.4z
				 M308.8,158.3h-0.5v-2h0.5V158.3z M333.8,155.4h-0.5v-2h0.5V155.4z M308.8,155.3h-0.5v-2h0.5V155.3z M333.8,152.3h-0.5v-2h0.5
				V152.3z M308.8,152.3h-0.5v-2h0.5V152.3z M333.8,149.3h-0.5v-2h0.5V149.3z M308.8,149.2h-0.5v-2h0.5V149.2z M333.8,146.3h-0.5v-2
				h0.5V146.3z M308.8,146.2h-0.5v-2h0.5V146.2z M333.8,143.2h-0.5v-2h0.5V143.2z M308.8,143.2h-0.5v-2h0.5V143.2z M333.8,140.2
				h-0.5v-2h0.5V140.2z M308.8,140.1h-0.5v-2h0.5V140.1z M333.8,137.2h-0.5v-0.1c0-0.7,0-1.3,0-1.9l0.5,0
				C333.8,135.8,333.8,136.4,333.8,137.2L333.8,137.2z M308.8,137.1h-0.5c0-0.7,0-1.4,0-2l0.5,0
				C308.8,135.8,308.8,136.4,308.8,137.1z M333.3,134.1c0-0.7,0-1.4-0.1-2l0.5,0c0,0.7,0.1,1.3,0.1,2L333.3,134.1z M308.9,134.1
				l-0.5,0c0-0.7,0.1-1.4,0.2-2l0.5,0.1C309,132.7,309,133.4,308.9,134.1z M333.2,131.1c0-0.7-0.1-1.4-0.2-2l0.5-0.1
				c0.1,0.6,0.1,1.3,0.2,2L333.2,131.1z M309.2,131.1l-0.5-0.1c0.1-0.7,0.3-1.4,0.5-2l0.5,0.1C309.5,129.8,309.4,130.4,309.2,131.1z
				 M310,128.2l-0.5-0.2c0.2-0.7,0.5-1.3,0.8-1.9l0.4,0.2C310.5,127,310.2,127.6,310,128.2z M332.8,128.1c-0.1-0.7-0.3-1.3-0.4-1.9
				l0.5-0.1c0.2,0.6,0.3,1.3,0.4,2L332.8,128.1z M311.3,125.5l-0.4-0.3c0.2-0.3,0.4-0.7,0.7-1c0.2-0.2,0.3-0.4,0.5-0.6l0.4,0.3
				c-0.2,0.2-0.3,0.4-0.5,0.6C311.7,124.8,311.5,125.2,311.3,125.5z M332.1,125.2c-0.2-0.7-0.5-1.3-0.8-1.8l0.4-0.2
				c0.3,0.6,0.6,1.2,0.8,1.9L332.1,125.2z M313.1,123.2l-0.4-0.3c0.5-0.5,1-0.9,1.5-1.4l0.3,0.4C314,122.3,313.5,122.7,313.1,123.2z
				 M330.8,122.6c-0.4-0.5-0.8-1-1.3-1.4l0.3-0.4c0.5,0.4,1,0.9,1.4,1.5L330.8,122.6z M315.4,121.3l-0.3-0.4c0.6-0.4,1.2-0.7,1.8-1
				l0.2,0.5C316.5,120.6,315.9,120.9,315.4,121.3z M328.6,120.7c-0.5-0.3-1.1-0.6-1.8-0.8l0.1-0.5c0.7,0.2,1.3,0.5,1.9,0.8
				L328.6,120.7z M318,120l-0.2-0.5c0.6-0.2,1.3-0.4,2-0.5l0.1,0.5C319.3,119.6,318.7,119.8,318,120z M325.9,119.6
				c-0.6-0.1-1.3-0.2-2-0.3l0-0.5c0.7,0.1,1.4,0.2,2,0.3L325.9,119.6z M320.9,119.4l-0.1-0.5c0.6-0.1,1.2-0.1,1.8-0.1h0.3l0,0.5
				h-0.3C322.1,119.3,321.5,119.3,320.9,119.4z"/>
			<polygon class="st1" points="308.8,163.7 307.6,163.7 307.6,163.2 308.3,163.2 308.3,162.4 308.8,162.4 			"/>
			<path class="st1" d="M306.5,163.7h-2.2v-0.5h2.2V163.7z M303.2,163.7H301v-0.5h2.2V163.7z M299.9,163.7h-2.2v-0.5h2.2V163.7z
				 M296.7,163.7h-2.2v-0.5h2.2V163.7z"/>
			<polygon class="st1" points="293.4,163.7 292.1,163.7 292.1,162.4 292.6,162.4 292.6,163.2 293.4,163.2 			"/>
			<path class="st1" d="M292.6,161.4h-0.5v-2h0.5V161.4z M292.6,158.4h-0.5v-2h0.5V158.4z M292.6,155.4h-0.5v-2h0.5V155.4z
				 M292.6,152.4h-0.5v-2h0.5V152.4z M292.6,149.4h-0.5v-2h0.5V149.4z M292.6,146.4h-0.5v-2h0.5V146.4z M292.6,143.4h-0.5v-2h0.5
				V143.4z M292.6,140.4h-0.5v-2h0.5V140.4z M292.6,137.3h-0.5v-2h0.5V137.3z M292.6,134.3h-0.5v-2h0.5V134.3z M292.6,131.3h-0.5v-2
				h0.5V131.3z M292.6,128.3h-0.5v-2h0.5V128.3z M292.6,125.3h-0.5v-2h0.5V125.3z M292.6,122.3h-0.5v-2h0.5V122.3z M292.6,119.3
				h-0.5v-2h0.5V119.3z M292.6,116.3h-0.5v-2h0.5V116.3z M292.6,113.2h-0.5v-2h0.5V113.2z M292.6,110.2h-0.5v-2h0.5V110.2z"/>
			<polygon class="st1" points="292.6,107.2 292.1,107.2 292.1,106 293.4,106 293.4,106.5 292.6,106.5 			"/>
			<path class="st1" d="M306.5,106.5h-2.2V106h2.2V106.5z M303.2,106.5H301V106h2.2V106.5z M299.9,106.5h-2.2V106h2.2V106.5z
				 M296.7,106.5h-2.2V106h2.2V106.5z"/>
			<polygon class="st1" points="308.8,107.2 308.3,107.2 308.3,106.5 307.6,106.5 307.6,106 308.8,106 			"/>
			<rect x="308.3" y="108.5" class="st1" width="0.5" height="2.6"/>
		</g>
	</g>
</g>
<g>
	<rect x="177.5" y="82.2" class="st2" width="1" height="1"/>
	<path class="st2" d="M178.5,177.1h-1v-2h1V177.1z M178.5,174.1h-1v-2h1V174.1z M178.5,171.1h-1v-2h1V171.1z M178.5,168h-1v-2h1V168
		z M178.5,165h-1v-2h1V165z M178.5,162h-1v-2h1V162z M178.5,158.9h-1v-2h1V158.9z M178.5,155.9h-1v-2h1V155.9z M178.5,152.9h-1v-2h1
		V152.9z M178.5,149.8h-1v-2h1V149.8z M178.5,146.8h-1v-2h1V146.8z M178.5,143.8h-1v-2h1V143.8z M178.5,140.8h-1v-2h1V140.8z
		 M178.5,137.7h-1v-2h1V137.7z M178.5,134.7h-1v-2h1V134.7z M178.5,131.7h-1v-2h1V131.7z M178.5,128.6h-1v-2h1V128.6z M178.5,125.6
		h-1v-2h1V125.6z M178.5,122.6h-1v-2h1V122.6z M178.5,119.5h-1v-2h1V119.5z M178.5,116.5h-1v-2h1V116.5z M178.5,113.5h-1v-2h1V113.5
		z M178.5,110.4h-1v-2h1V110.4z M178.5,107.4h-1v-2h1V107.4z M178.5,104.4h-1v-2h1V104.4z M178.5,101.4h-1v-2h1V101.4z M178.5,98.3
		h-1v-2h1V98.3z M178.5,95.3h-1v-2h1V95.3z M178.5,92.3h-1v-2h1V92.3z M178.5,89.2h-1v-2h1V89.2z M178.5,86.2h-1v-2h1V86.2z"/>
	<rect x="177.5" y="178.1" class="st2" width="1" height="1"/>
</g>
<g>
	<rect x="225.4" y="82.2" class="st2" width="1" height="1"/>
	<path class="st2" d="M226.4,177.1h-1v-2h1V177.1z M226.4,174.1h-1v-2h1V174.1z M226.4,171.1h-1v-2h1V171.1z M226.4,168h-1v-2h1V168
		z M226.4,165h-1v-2h1V165z M226.4,162h-1v-2h1V162z M226.4,158.9h-1v-2h1V158.9z M226.4,155.9h-1v-2h1V155.9z M226.4,152.9h-1v-2h1
		V152.9z M226.4,149.8h-1v-2h1V149.8z M226.4,146.8h-1v-2h1V146.8z M226.4,143.8h-1v-2h1V143.8z M226.4,140.8h-1v-2h1V140.8z
		 M226.4,137.7h-1v-2h1V137.7z M226.4,134.7h-1v-2h1V134.7z M226.4,131.7h-1v-2h1V131.7z M226.4,128.6h-1v-2h1V128.6z M226.4,125.6
		h-1v-2h1V125.6z M226.4,122.6h-1v-2h1V122.6z M226.4,119.5h-1v-2h1V119.5z M226.4,116.5h-1v-2h1V116.5z M226.4,113.5h-1v-2h1V113.5
		z M226.4,110.4h-1v-2h1V110.4z M226.4,107.4h-1v-2h1V107.4z M226.4,104.4h-1v-2h1V104.4z M226.4,101.4h-1v-2h1V101.4z M226.4,98.3
		h-1v-2h1V98.3z M226.4,95.3h-1v-2h1V95.3z M226.4,92.3h-1v-2h1V92.3z M226.4,89.2h-1v-2h1V89.2z M226.4,86.2h-1v-2h1V86.2z"/>
	<rect x="225.4" y="178.1" class="st2" width="1" height="1"/>
</g>
<g>
	<rect x="241.5" y="82.2" class="st2" width="1" height="1"/>
	<path class="st2" d="M242.5,177.1h-1v-2h1V177.1z M242.5,174.1h-1v-2h1V174.1z M242.5,171.1h-1v-2h1V171.1z M242.5,168h-1v-2h1V168
		z M242.5,165h-1v-2h1V165z M242.5,162h-1v-2h1V162z M242.5,158.9h-1v-2h1V158.9z M242.5,155.9h-1v-2h1V155.9z M242.5,152.9h-1v-2h1
		V152.9z M242.5,149.8h-1v-2h1V149.8z M242.5,146.8h-1v-2h1V146.8z M242.5,143.8h-1v-2h1V143.8z M242.5,140.8h-1v-2h1V140.8z
		 M242.5,137.7h-1v-2h1V137.7z M242.5,134.7h-1v-2h1V134.7z M242.5,131.7h-1v-2h1V131.7z M242.5,128.6h-1v-2h1V128.6z M242.5,125.6
		h-1v-2h1V125.6z M242.5,122.6h-1v-2h1V122.6z M242.5,119.5h-1v-2h1V119.5z M242.5,116.5h-1v-2h1V116.5z M242.5,113.5h-1v-2h1V113.5
		z M242.5,110.4h-1v-2h1V110.4z M242.5,107.4h-1v-2h1V107.4z M242.5,104.4h-1v-2h1V104.4z M242.5,101.4h-1v-2h1V101.4z M242.5,98.3
		h-1v-2h1V98.3z M242.5,95.3h-1v-2h1V95.3z M242.5,92.3h-1v-2h1V92.3z M242.5,89.2h-1v-2h1V89.2z M242.5,86.2h-1v-2h1V86.2z"/>
	<rect x="241.5" y="178.1" class="st2" width="1" height="1"/>
</g>
<g>
	<rect x="266.5" y="43.4" class="st2" width="1" height="1"/>
	<path class="st2" d="M267.5,172.8h-1v-2h1V172.8z M267.5,169.8h-1v-2h1V169.8z M267.5,166.8h-1v-2h1V166.8z M267.5,163.8h-1v-2h1
		V163.8z M267.5,160.8h-1v-2h1V160.8z M267.5,157.8h-1v-2h1V157.8z M267.5,154.9h-1v-2h1V154.9z M267.5,151.9h-1v-2h1V151.9z
		 M267.5,148.9h-1v-2h1V148.9z M267.5,145.9h-1v-2h1V145.9z M267.5,142.9h-1v-2h1V142.9z M267.5,139.9h-1v-2h1V139.9z M267.5,136.9
		h-1v-2h1V136.9z M267.5,134h-1v-2h1V134z M267.5,131h-1v-2h1V131z M267.5,128h-1v-2h1V128z M267.5,125h-1v-2h1V125z M267.5,122h-1
		v-2h1V122z M267.5,119h-1v-2h1V119z M267.5,116.1h-1v-2h1V116.1z M267.5,113.1h-1v-2h1V113.1z M267.5,110.1h-1v-2h1V110.1z
		 M267.5,107.1h-1v-2h1V107.1z M267.5,104.1h-1v-2h1V104.1z M267.5,101.1h-1v-2h1V101.1z M267.5,98.2h-1v-2h1V98.2z M267.5,95.2h-1
		v-2h1V95.2z M267.5,92.2h-1v-2h1V92.2z M267.5,89.2h-1v-2h1V89.2z M267.5,86.2h-1v-2h1V86.2z M267.5,83.2h-1v-2h1V83.2z
		 M267.5,80.2h-1v-2h1V80.2z M267.5,77.2h-1v-2h1V77.2z M267.5,74.3h-1v-2h1V74.3z M267.5,71.3h-1v-2h1V71.3z M267.5,68.3h-1v-2h1
		V68.3z M267.5,65.3h-1v-2h1V65.3z M267.5,62.3h-1v-2h1V62.3z M267.5,59.3h-1v-2h1V59.3z M267.5,56.4h-1v-2h1V56.4z M267.5,53.4h-1
		v-2h1V53.4z M267.5,50.4h-1v-2h1V50.4z M267.5,47.4h-1v-2h1V47.4z"/>
	<rect x="266.5" y="173.8" class="st2" width="1" height="1"/>
</g>
<g>
	<rect x="201.3" y="82.1" class="st2" width="1" height="1"/>
	<path class="st2" d="M202.3,177.2h-1v-2h1V177.2z M202.3,174.1h-1v-2h1V174.1z M202.3,171.1h-1v-2h1V171.1z M202.3,168.1h-1v-2h1
		V168.1z M202.3,165h-1v-2h1V165z M202.3,162h-1v-2h1V162z M202.3,159h-1v-2h1V159z M202.3,155.9h-1v-2h1V155.9z M202.3,152.9h-1v-2
		h1V152.9z M202.3,149.9h-1v-2h1V149.9z M202.3,146.8h-1v-2h1V146.8z M202.3,143.8h-1v-2h1V143.8z M202.3,140.8h-1v-2h1V140.8z
		 M202.3,137.7h-1v-2h1V137.7z M202.3,134.7h-1v-2h1V134.7z M202.3,131.7h-1v-2h1V131.7z M202.3,128.6h-1v-2h1V128.6z M202.3,125.6
		h-1v-2h1V125.6z M202.3,122.6h-1v-2h1V122.6z M202.3,119.5h-1v-2h1V119.5z M202.3,116.5h-1v-2h1V116.5z M202.3,113.4h-1v-2h1V113.4
		z M202.3,110.4h-1v-2h1V110.4z M202.3,107.4h-1v-2h1V107.4z M202.3,104.3h-1v-2h1V104.3z M202.3,101.3h-1v-2h1V101.3z M202.3,98.3
		h-1v-2h1V98.3z M202.3,95.2h-1v-2h1V95.2z M202.3,92.2h-1v-2h1V92.2z M202.3,89.2h-1v-2h1V89.2z M202.3,86.1h-1v-2h1V86.1z"/>
	<rect x="201.3" y="178.2" class="st2" width="1" height="1"/>
</g>
<g>
	<rect x="373" y="82.5" class="st2" width="1" height="1"/>
	<path class="st2" d="M374,177.5h-1v-2h1V177.5z M374,174.5h-1v-2h1V174.5z M374,171.5h-1v-2h1V171.5z M374,168.4h-1v-2h1V168.4z
		 M374,165.4h-1v-2h1V165.4z M374,162.4h-1v-2h1V162.4z M374,159.3h-1v-2h1V159.3z M374,156.3h-1v-2h1V156.3z M374,153.3h-1v-2h1
		V153.3z M374,150.2h-1v-2h1V150.2z M374,147.2h-1v-2h1V147.2z M374,144.2h-1v-2h1V144.2z M374,141.1h-1v-2h1V141.1z M374,138.1h-1
		v-2h1V138.1z M374,135.1h-1v-2h1V135.1z M374,132h-1v-2h1V132z M374,129h-1v-2h1V129z M374,125.9h-1v-2h1V125.9z M374,122.9h-1v-2
		h1V122.9z M374,119.9h-1v-2h1V119.9z M374,116.8h-1v-2h1V116.8z M374,113.8h-1v-2h1V113.8z M374,110.8h-1v-2h1V110.8z M374,107.8
		h-1v-2h1V107.8z M374,104.7h-1v-2h1V104.7z M374,101.7h-1v-2h1V101.7z M374,98.6h-1v-2h1V98.6z M374,95.6h-1v-2h1V95.6z M374,92.6
		h-1v-2h1V92.6z M374,89.5h-1v-2h1V89.5z M374,86.5h-1v-2h1V86.5z"/>
	<rect x="373" y="178.6" class="st2" width="1" height="1"/>
</g>
<g>
	<rect x="487.6" y="82.2" class="st2" width="1" height="1"/>
	<path class="st2" d="M488.6,177.2h-1v-2h1V177.2z M488.6,174.2h-1v-2h1V174.2z M488.6,171.2h-1v-2h1V171.2z M488.6,168.1h-1v-2h1
		V168.1z M488.6,165.1h-1v-2h1V165.1z M488.6,162.1h-1v-2h1V162.1z M488.6,159h-1v-2h1V159z M488.6,156h-1v-2h1V156z M488.6,153h-1
		v-2h1V153z M488.6,149.9h-1v-2h1V149.9z M488.6,146.9h-1v-2h1V146.9z M488.6,143.9h-1v-2h1V143.9z M488.6,140.8h-1v-2h1V140.8z
		 M488.6,137.8h-1v-2h1V137.8z M488.6,134.8h-1v-2h1V134.8z M488.6,131.7h-1v-2h1V131.7z M488.6,128.7h-1v-2h1V128.7z M488.6,125.7
		h-1v-2h1V125.7z M488.6,122.6h-1v-2h1V122.6z M488.6,119.6h-1v-2h1V119.6z M488.6,116.6h-1v-2h1V116.6z M488.6,113.5h-1v-2h1V113.5
		z M488.6,110.5h-1v-2h1V110.5z M488.6,107.5h-1v-2h1V107.5z M488.6,104.4h-1v-2h1V104.4z M488.6,101.4h-1v-2h1V101.4z M488.6,98.3
		h-1v-2h1V98.3z M488.6,95.3h-1v-2h1V95.3z M488.6,92.3h-1v-2h1V92.3z M488.6,89.2h-1v-2h1V89.2z M488.6,86.2h-1v-2h1V86.2z"/>
	<rect x="487.6" y="178.3" class="st2" width="1" height="1"/>
</g>
<g>
	<rect x="551.7" y="82.5" class="st2" width="1" height="1"/>
	<path class="st2" d="M552.7,177.5h-1v-2h1V177.5z M552.7,174.5h-1v-2h1V174.5z M552.7,171.5h-1v-2h1V171.5z M552.7,168.4h-1v-2h1
		V168.4z M552.7,165.4h-1v-2h1V165.4z M552.7,162.4h-1v-2h1V162.4z M552.7,159.3h-1v-2h1V159.3z M552.7,156.3h-1v-2h1V156.3z
		 M552.7,153.3h-1v-2h1V153.3z M552.7,150.2h-1v-2h1V150.2z M552.7,147.2h-1v-2h1V147.2z M552.7,144.2h-1v-2h1V144.2z M552.7,141.1
		h-1v-2h1V141.1z M552.7,138.1h-1v-2h1V138.1z M552.7,135.1h-1v-2h1V135.1z M552.7,132h-1v-2h1V132z M552.7,129h-1v-2h1V129z
		 M552.7,125.9h-1v-2h1V125.9z M552.7,122.9h-1v-2h1V122.9z M552.7,119.9h-1v-2h1V119.9z M552.7,116.8h-1v-2h1V116.8z M552.7,113.8
		h-1v-2h1V113.8z M552.7,110.8h-1v-2h1V110.8z M552.7,107.8h-1v-2h1V107.8z M552.7,104.7h-1v-2h1V104.7z M552.7,101.7h-1v-2h1V101.7
		z M552.7,98.6h-1v-2h1V98.6z M552.7,95.6h-1v-2h1V95.6z M552.7,92.6h-1v-2h1V92.6z M552.7,89.5h-1v-2h1V89.5z M552.7,86.5h-1v-2h1
		V86.5z"/>
	<rect x="551.7" y="178.6" class="st2" width="1" height="1"/>
</g>
<g>
	<rect x="291.9" y="82.2" class="st2" width="1" height="1"/>
	<path class="st2" d="M292.9,177.1h-1v-2h1V177.1z M292.9,174.1h-1v-2h1V174.1z M292.9,171.1h-1v-2h1V171.1z M292.9,168h-1v-2h1V168
		z M292.9,165h-1v-2h1V165z M292.9,162h-1v-2h1V162z M292.9,158.9h-1v-2h1V158.9z M292.9,155.9h-1v-2h1V155.9z M292.9,152.9h-1v-2h1
		V152.9z M292.9,149.8h-1v-2h1V149.8z M292.9,146.8h-1v-2h1V146.8z M292.9,143.8h-1v-2h1V143.8z M292.9,140.8h-1v-2h1V140.8z
		 M292.9,137.7h-1v-2h1V137.7z M292.9,134.7h-1v-2h1V134.7z M292.9,131.7h-1v-2h1V131.7z M292.9,128.6h-1v-2h1V128.6z M292.9,125.6
		h-1v-2h1V125.6z M292.9,122.6h-1v-2h1V122.6z M292.9,119.5h-1v-2h1V119.5z M292.9,116.5h-1v-2h1V116.5z M292.9,113.5h-1v-2h1V113.5
		z M292.9,110.4h-1v-2h1V110.4z M292.9,107.4h-1v-2h1V107.4z M292.9,104.4h-1v-2h1V104.4z M292.9,101.4h-1v-2h1V101.4z M292.9,98.3
		h-1v-2h1V98.3z M292.9,95.3h-1v-2h1V95.3z M292.9,92.3h-1v-2h1V92.3z M292.9,89.2h-1v-2h1V89.2z M292.9,86.2h-1v-2h1V86.2z"/>
	<rect x="291.9" y="178.1" class="st2" width="1" height="1"/>
</g>
<g>
	<rect x="349.2" y="82.2" class="st2" width="1" height="1"/>
	<path class="st2" d="M350.2,177.1h-1v-2h1V177.1z M350.2,174.1h-1v-2h1V174.1z M350.2,171.1h-1v-2h1V171.1z M350.2,168h-1v-2h1V168
		z M350.2,165h-1v-2h1V165z M350.2,162h-1v-2h1V162z M350.2,158.9h-1v-2h1V158.9z M350.2,155.9h-1v-2h1V155.9z M350.2,152.9h-1v-2h1
		V152.9z M350.2,149.8h-1v-2h1V149.8z M350.2,146.8h-1v-2h1V146.8z M350.2,143.8h-1v-2h1V143.8z M350.2,140.8h-1v-2h1V140.8z
		 M350.2,137.7h-1v-2h1V137.7z M350.2,134.7h-1v-2h1V134.7z M350.2,131.7h-1v-2h1V131.7z M350.2,128.6h-1v-2h1V128.6z M350.2,125.6
		h-1v-2h1V125.6z M350.2,122.6h-1v-2h1V122.6z M350.2,119.5h-1v-2h1V119.5z M350.2,116.5h-1v-2h1V116.5z M350.2,113.5h-1v-2h1V113.5
		z M350.2,110.4h-1v-2h1V110.4z M350.2,107.4h-1v-2h1V107.4z M350.2,104.4h-1v-2h1V104.4z M350.2,101.4h-1v-2h1V101.4z M350.2,98.3
		h-1v-2h1V98.3z M350.2,95.3h-1v-2h1V95.3z M350.2,92.3h-1v-2h1V92.3z M350.2,89.2h-1v-2h1V89.2z M350.2,86.2h-1v-2h1V86.2z"/>
	<rect x="349.2" y="178.1" class="st2" width="1" height="1"/>
</g>
<g>
	<rect x="396.8" y="82.2" class="st2" width="1" height="1"/>
	<path class="st2" d="M397.8,177.1h-1v-2h1V177.1z M397.8,174.1h-1v-2h1V174.1z M397.8,171.1h-1v-2h1V171.1z M397.8,168h-1v-2h1V168
		z M397.8,165h-1v-2h1V165z M397.8,162h-1v-2h1V162z M397.8,158.9h-1v-2h1V158.9z M397.8,155.9h-1v-2h1V155.9z M397.8,152.9h-1v-2h1
		V152.9z M397.8,149.8h-1v-2h1V149.8z M397.8,146.8h-1v-2h1V146.8z M397.8,143.8h-1v-2h1V143.8z M397.8,140.8h-1v-2h1V140.8z
		 M397.8,137.7h-1v-2h1V137.7z M397.8,134.7h-1v-2h1V134.7z M397.8,131.7h-1v-2h1V131.7z M397.8,128.6h-1v-2h1V128.6z M397.8,125.6
		h-1v-2h1V125.6z M397.8,122.6h-1v-2h1V122.6z M397.8,119.5h-1v-2h1V119.5z M397.8,116.5h-1v-2h1V116.5z M397.8,113.5h-1v-2h1V113.5
		z M397.8,110.4h-1v-2h1V110.4z M397.8,107.4h-1v-2h1V107.4z M397.8,104.4h-1v-2h1V104.4z M397.8,101.4h-1v-2h1V101.4z M397.8,98.3
		h-1v-2h1V98.3z M397.8,95.3h-1v-2h1V95.3z M397.8,92.3h-1v-2h1V92.3z M397.8,89.2h-1v-2h1V89.2z M397.8,86.2h-1v-2h1V86.2z"/>
	<rect x="396.8" y="178.1" class="st2" width="1" height="1"/>
</g>
<g>
	<rect x="463.6" y="82.2" class="st2" width="1" height="1"/>
	<path class="st2" d="M464.6,177.1h-1v-2h1V177.1z M464.6,174.1h-1v-2h1V174.1z M464.6,171.1h-1v-2h1V171.1z M464.6,168h-1v-2h1V168
		z M464.6,165h-1v-2h1V165z M464.6,162h-1v-2h1V162z M464.6,158.9h-1v-2h1V158.9z M464.6,155.9h-1v-2h1V155.9z M464.6,152.9h-1v-2h1
		V152.9z M464.6,149.8h-1v-2h1V149.8z M464.6,146.8h-1v-2h1V146.8z M464.6,143.8h-1v-2h1V143.8z M464.6,140.8h-1v-2h1V140.8z
		 M464.6,137.7h-1v-2h1V137.7z M464.6,134.7h-1v-2h1V134.7z M464.6,131.7h-1v-2h1V131.7z M464.6,128.6h-1v-2h1V128.6z M464.6,125.6
		h-1v-2h1V125.6z M464.6,122.6h-1v-2h1V122.6z M464.6,119.5h-1v-2h1V119.5z M464.6,116.5h-1v-2h1V116.5z M464.6,113.5h-1v-2h1V113.5
		z M464.6,110.4h-1v-2h1V110.4z M464.6,107.4h-1v-2h1V107.4z M464.6,104.4h-1v-2h1V104.4z M464.6,101.4h-1v-2h1V101.4z M464.6,98.3
		h-1v-2h1V98.3z M464.6,95.3h-1v-2h1V95.3z M464.6,92.3h-1v-2h1V92.3z M464.6,89.2h-1v-2h1V89.2z M464.6,86.2h-1v-2h1V86.2z"/>
	<rect x="463.6" y="178.1" class="st2" width="1" height="1"/>
</g>
<g>
	<rect x="511.5" y="82.2" class="st2" width="1" height="1"/>
	<path class="st2" d="M512.5,177.1h-1v-2h1V177.1z M512.5,174.1h-1v-2h1V174.1z M512.5,171.1h-1v-2h1V171.1z M512.5,168h-1v-2h1V168
		z M512.5,165h-1v-2h1V165z M512.5,162h-1v-2h1V162z M512.5,158.9h-1v-2h1V158.9z M512.5,155.9h-1v-2h1V155.9z M512.5,152.9h-1v-2h1
		V152.9z M512.5,149.8h-1v-2h1V149.8z M512.5,146.8h-1v-2h1V146.8z M512.5,143.8h-1v-2h1V143.8z M512.5,140.8h-1v-2h1V140.8z
		 M512.5,137.7h-1v-2h1V137.7z M512.5,134.7h-1v-2h1V134.7z M512.5,131.7h-1v-2h1V131.7z M512.5,128.6h-1v-2h1V128.6z M512.5,125.6
		h-1v-2h1V125.6z M512.5,122.6h-1v-2h1V122.6z M512.5,119.5h-1v-2h1V119.5z M512.5,116.5h-1v-2h1V116.5z M512.5,113.5h-1v-2h1V113.5
		z M512.5,110.4h-1v-2h1V110.4z M512.5,107.4h-1v-2h1V107.4z M512.5,104.4h-1v-2h1V104.4z M512.5,101.4h-1v-2h1V101.4z M512.5,98.3
		h-1v-2h1V98.3z M512.5,95.3h-1v-2h1V95.3z M512.5,92.3h-1v-2h1V92.3z M512.5,89.2h-1v-2h1V89.2z M512.5,86.2h-1v-2h1V86.2z"/>
	<rect x="511.5" y="178.1" class="st2" width="1" height="1"/>
</g>
<g>
	<rect x="527.9" y="82.2" class="st2" width="1" height="1"/>
	<path class="st2" d="M528.9,177.1h-1v-2h1V177.1z M528.9,174.1h-1v-2h1V174.1z M528.9,171.1h-1v-2h1V171.1z M528.9,168h-1v-2h1V168
		z M528.9,165h-1v-2h1V165z M528.9,162h-1v-2h1V162z M528.9,158.9h-1v-2h1V158.9z M528.9,155.9h-1v-2h1V155.9z M528.9,152.9h-1v-2h1
		V152.9z M528.9,149.8h-1v-2h1V149.8z M528.9,146.8h-1v-2h1V146.8z M528.9,143.8h-1v-2h1V143.8z M528.9,140.8h-1v-2h1V140.8z
		 M528.9,137.7h-1v-2h1V137.7z M528.9,134.7h-1v-2h1V134.7z M528.9,131.7h-1v-2h1V131.7z M528.9,128.6h-1v-2h1V128.6z M528.9,125.6
		h-1v-2h1V125.6z M528.9,122.6h-1v-2h1V122.6z M528.9,119.5h-1v-2h1V119.5z M528.9,116.5h-1v-2h1V116.5z M528.9,113.5h-1v-2h1V113.5
		z M528.9,110.4h-1v-2h1V110.4z M528.9,107.4h-1v-2h1V107.4z M528.9,104.4h-1v-2h1V104.4z M528.9,101.4h-1v-2h1V101.4z M528.9,98.3
		h-1v-2h1V98.3z M528.9,95.3h-1v-2h1V95.3z M528.9,92.3h-1v-2h1V92.3z M528.9,89.2h-1v-2h1V89.2z M528.9,86.2h-1v-2h1V86.2z"/>
	<rect x="527.9" y="178.1" class="st2" width="1" height="1"/>
</g>
<g>
	<rect x="575.8" y="82.2" class="st2" width="1" height="1"/>
	<path class="st2" d="M576.8,177.1h-1v-2h1V177.1z M576.8,174.1h-1v-2h1V174.1z M576.8,171.1h-1v-2h1V171.1z M576.8,168h-1v-2h1V168
		z M576.8,165h-1v-2h1V165z M576.8,162h-1v-2h1V162z M576.8,158.9h-1v-2h1V158.9z M576.8,155.9h-1v-2h1V155.9z M576.8,152.9h-1v-2h1
		V152.9z M576.8,149.8h-1v-2h1V149.8z M576.8,146.8h-1v-2h1V146.8z M576.8,143.8h-1v-2h1V143.8z M576.8,140.8h-1v-2h1V140.8z
		 M576.8,137.7h-1v-2h1V137.7z M576.8,134.7h-1v-2h1V134.7z M576.8,131.7h-1v-2h1V131.7z M576.8,128.6h-1v-2h1V128.6z M576.8,125.6
		h-1v-2h1V125.6z M576.8,122.6h-1v-2h1V122.6z M576.8,119.5h-1v-2h1V119.5z M576.8,116.5h-1v-2h1V116.5z M576.8,113.5h-1v-2h1V113.5
		z M576.8,110.4h-1v-2h1V110.4z M576.8,107.4h-1v-2h1V107.4z M576.8,104.4h-1v-2h1V104.4z M576.8,101.4h-1v-2h1V101.4z M576.8,98.3
		h-1v-2h1V98.3z M576.8,95.3h-1v-2h1V95.3z M576.8,92.3h-1v-2h1V92.3z M576.8,89.2h-1v-2h1V89.2z M576.8,86.2h-1v-2h1V86.2z"/>
	<rect x="575.8" y="178.1" class="st2" width="1" height="1"/>
</g>
<g>
	<rect x="633.3" y="47.4" class="st2" width="1" height="1"/>
	<path class="st2" d="M634.3,184.8h-1v-2h1V184.8z M634.3,181.8h-1v-2h1V181.8z M634.3,178.7h-1v-2h1V178.7z M634.3,175.7h-1v-2h1
		V175.7z M634.3,172.7h-1v-2h1V172.7z M634.3,169.6h-1v-2h1V169.6z M634.3,166.6h-1v-2h1V166.6z M634.3,163.6h-1v-2h1V163.6z
		 M634.3,160.5h-1v-2h1V160.5z M634.3,157.5h-1v-2h1V157.5z M634.3,154.5h-1v-2h1V154.5z M634.3,151.4h-1v-2h1V151.4z M634.3,148.4
		h-1v-2h1V148.4z M634.3,145.4h-1v-2h1V145.4z M634.3,142.4h-1v-2h1V142.4z M634.3,139.3h-1v-2h1V139.3z M634.3,136.3h-1v-2h1V136.3
		z M634.3,133.3h-1v-2h1V133.3z M634.3,130.2h-1v-2h1V130.2z M634.3,127.2h-1v-2h1V127.2z M634.3,124.2h-1v-2h1V124.2z M634.3,121.1
		h-1v-2h1V121.1z M634.3,118.1h-1v-2h1V118.1z M634.3,115.1h-1v-2h1V115.1z M634.3,112h-1v-2h1V112z M634.3,109h-1v-2h1V109z
		 M634.3,106h-1v-2h1V106z M634.3,102.9h-1v-2h1V102.9z M634.3,99.9h-1v-2h1V99.9z M634.3,96.9h-1v-2h1V96.9z M634.3,93.9h-1v-2h1
		V93.9z M634.3,90.8h-1v-2h1V90.8z M634.3,87.8h-1v-2h1V87.8z M634.3,84.8h-1v-2h1V84.8z M634.3,81.7h-1v-2h1V81.7z M634.3,78.7h-1
		v-2h1V78.7z M634.3,75.7h-1v-2h1V75.7z M634.3,72.6h-1v-2h1V72.6z M634.3,69.6h-1v-2h1V69.6z M634.3,66.6h-1v-2h1V66.6z
		 M634.3,63.5h-1v-2h1V63.5z M634.3,60.5h-1v-2h1V60.5z M634.3,57.5h-1v-2h1V57.5z M634.3,54.5h-1v-2h1V54.5z M634.3,51.4h-1v-2h1
		V51.4z"/>
	<rect x="633.3" y="185.8" class="st2" width="1" height="1"/>
</g>
<g>
	<rect x="88.9" y="47.4" class="st2" width="1" height="1"/>
	<path class="st2" d="M89.9,184.8h-1v-2h1V184.8z M89.9,181.8h-1v-2h1V181.8z M89.9,178.7h-1v-2h1V178.7z M89.9,175.7h-1v-2h1V175.7
		z M89.9,172.7h-1v-2h1V172.7z M89.9,169.6h-1v-2h1V169.6z M89.9,166.6h-1v-2h1V166.6z M89.9,163.6h-1v-2h1V163.6z M89.9,160.5h-1
		v-2h1V160.5z M89.9,157.5h-1v-2h1V157.5z M89.9,154.5h-1v-2h1V154.5z M89.9,151.4h-1v-2h1V151.4z M89.9,148.4h-1v-2h1V148.4z
		 M89.9,145.4h-1v-2h1V145.4z M89.9,142.4h-1v-2h1V142.4z M89.9,139.3h-1v-2h1V139.3z M89.9,136.3h-1v-2h1V136.3z M89.9,133.3h-1v-2
		h1V133.3z M89.9,130.2h-1v-2h1V130.2z M89.9,127.2h-1v-2h1V127.2z M89.9,124.2h-1v-2h1V124.2z M89.9,121.1h-1v-2h1V121.1z
		 M89.9,118.1h-1v-2h1V118.1z M89.9,115.1h-1v-2h1V115.1z M89.9,112h-1v-2h1V112z M89.9,109h-1v-2h1V109z M89.9,106h-1v-2h1V106z
		 M89.9,102.9h-1v-2h1V102.9z M89.9,99.9h-1v-2h1V99.9z M89.9,96.9h-1v-2h1V96.9z M89.9,93.9h-1v-2h1V93.9z M89.9,90.8h-1v-2h1V90.8
		z M89.9,87.8h-1v-2h1V87.8z M89.9,84.8h-1v-2h1V84.8z M89.9,81.7h-1v-2h1V81.7z M89.9,78.7h-1v-2h1V78.7z M89.9,75.7h-1v-2h1V75.7z
		 M89.9,72.6h-1v-2h1V72.6z M89.9,69.6h-1v-2h1V69.6z M89.9,66.6h-1v-2h1V66.6z M89.9,63.5h-1v-2h1V63.5z M89.9,60.5h-1v-2h1V60.5z
		 M89.9,57.5h-1v-2h1V57.5z M89.9,54.5h-1v-2h1V54.5z M89.9,51.4h-1v-2h1V51.4z"/>
	<rect x="88.9" y="185.8" class="st2" width="1" height="1"/>
</g>
<g>
	<rect x="499.6" y="89.9" class="st2" width="1" height="1"/>
	<path class="st2" d="M540.4,90.9h-2v-1h2V90.9z M537.3,90.9h-2v-1h2V90.9z M534.2,90.9h-2v-1h2V90.9z M531.2,90.9h-2v-1h2V90.9z
		 M528.1,90.9h-2v-1h2V90.9z M525.1,90.9h-2v-1h2V90.9z M522,90.9h-2v-1h2V90.9z M519,90.9h-2v-1h2V90.9z M515.9,90.9h-2v-1h2V90.9z
		 M512.9,90.9h-2v-1h2V90.9z M509.8,90.9h-2v-1h2V90.9z M506.8,90.9h-2v-1h2V90.9z M503.7,90.9h-2v-1h2V90.9z"/>
	<rect x="541.4" y="89.9" class="st2" width="1" height="1"/>
</g>
<g>
	<rect x="84.6" y="105.4" class="st2" width="1" height="1"/>
	<path class="st2" d="M638.8,106.4h-2v-1h2V106.4z M635.8,106.4h-2v-1h2V106.4z M632.8,106.4h-2v-1h2V106.4z M629.8,106.4h-2v-1h2
		V106.4z M626.8,106.4h-2v-1h2V106.4z M623.8,106.4h-2v-1h2V106.4z M620.8,106.4h-2v-1h2V106.4z M617.8,106.4h-2v-1h2V106.4z
		 M614.8,106.4h-2v-1h2V106.4z M611.8,106.4h-2v-1h2V106.4z M608.8,106.4h-2v-1h2V106.4z M605.8,106.4h-2v-1h2V106.4z M602.7,106.4
		h-2v-1h2V106.4z M599.7,106.4h-2v-1h2V106.4z M596.7,106.4h-2v-1h2V106.4z M593.7,106.4h-2v-1h2V106.4z M590.7,106.4h-2v-1h2V106.4
		z M587.7,106.4h-2v-1h2V106.4z M584.7,106.4h-2v-1h2V106.4z M581.7,106.4h-2v-1h2V106.4z M578.7,106.4h-2v-1h2V106.4z M575.7,106.4
		h-2v-1h2V106.4z M572.7,106.4h-2v-1h2V106.4z M569.7,106.4h-2v-1h2V106.4z M566.7,106.4h-2v-1h2V106.4z M563.7,106.4h-2v-1h2V106.4
		z M560.7,106.4h-2v-1h2V106.4z M557.6,106.4h-2v-1h2V106.4z M554.6,106.4h-2v-1h2V106.4z M551.6,106.4h-2v-1h2V106.4z M548.6,106.4
		h-2v-1h2V106.4z M545.6,106.4h-2v-1h2V106.4z M542.6,106.4h-2v-1h2V106.4z M539.6,106.4h-2v-1h2V106.4z M536.6,106.4h-2v-1h2V106.4
		z M533.6,106.4h-2v-1h2V106.4z M530.6,106.4h-2v-1h2V106.4z M527.6,106.4h-2v-1h2V106.4z M524.6,106.4h-2v-1h2V106.4z M521.6,106.4
		h-2v-1h2V106.4z M518.6,106.4h-2v-1h2V106.4z M515.5,106.4h-2v-1h2V106.4z M512.5,106.4h-2v-1h2V106.4z M509.5,106.4h-2v-1h2V106.4
		z M506.5,106.4h-2v-1h2V106.4z M503.5,106.4h-2v-1h2V106.4z M500.5,106.4h-2v-1h2V106.4z M497.5,106.4h-2v-1h2V106.4z M494.5,106.4
		h-2v-1h2V106.4z M491.5,106.4h-2v-1h2V106.4z M488.5,106.4h-2v-1h2V106.4z M485.5,106.4h-2v-1h2V106.4z M482.5,106.4h-2v-1h2V106.4
		z M479.5,106.4h-2v-1h2V106.4z M476.5,106.4h-2v-1h2V106.4z M473.5,106.4h-2v-1h2V106.4z M470.5,106.4h-2v-1h2V106.4z M467.5,106.4
		h-2v-1h2V106.4z M464.4,106.4h-2v-1h2V106.4z M461.4,106.4h-2v-1h2V106.4z M458.4,106.4h-2v-1h2V106.4z M455.4,106.4h-2v-1h2V106.4
		z M452.4,106.4h-2v-1h2V106.4z M449.4,106.4h-2v-1h2V106.4z M446.4,106.4h-2v-1h2V106.4z M443.4,106.4h-2v-1h2V106.4z M440.4,106.4
		h-2v-1h2V106.4z M437.4,106.4h-2v-1h2V106.4z M434.4,106.4h-2v-1h2V106.4z M431.4,106.4h-2v-1h2V106.4z M428.4,106.4h-2v-1h2V106.4
		z M425.4,106.4h-2v-1h2V106.4z M422.4,106.4h-2v-1h2V106.4z M419.4,106.4h-2v-1h2V106.4z M416.3,106.4h-2v-1h2V106.4z M413.3,106.4
		h-2v-1h2V106.4z M410.3,106.4h-2v-1h2V106.4z M407.3,106.4h-2v-1h2V106.4z M404.3,106.4h-2v-1h2V106.4z M401.3,106.4h-2v-1h2V106.4
		z M398.3,106.4h-2v-1h2V106.4z M395.3,106.4h-2v-1h2V106.4z M392.3,106.4h-2v-1h2V106.4z M389.3,106.4h-2v-1h2V106.4z M386.3,106.4
		h-2v-1h2V106.4z M383.3,106.4h-2v-1h2V106.4z M380.3,106.4h-2v-1h2V106.4z M377.3,106.4h-2v-1h2V106.4z M374.2,106.4h-2v-1h2V106.4
		z M371.2,106.4h-2v-1h2V106.4z M368.2,106.4h-2v-1h2V106.4z M365.2,106.4h-2v-1h2V106.4z M362.2,106.4h-2v-1h2V106.4z M359.2,106.4
		h-2v-1h2V106.4z M356.2,106.4h-2v-1h2V106.4z M353.2,106.4h-2v-1h2V106.4z M350.2,106.4h-2v-1h2V106.4z M347.2,106.4h-2v-1h2V106.4
		z M344.2,106.4h-2v-1h2V106.4z M341.2,106.4h-2v-1h2V106.4z M338.2,106.4h-2v-1h2V106.4z M335.2,106.4h-2v-1h2V106.4z M332.2,106.4
		h-2v-1h2V106.4z M329.2,106.4h-2v-1h2V106.4z M326.1,106.4h-2v-1h2V106.4z M323.1,106.4h-2v-1h2V106.4z M320.1,106.4h-2v-1h2V106.4
		z M317.1,106.4h-2v-1h2V106.4z M314.1,106.4h-2v-1h2V106.4z M311.1,106.4h-2v-1h2V106.4z M308.1,106.4h-2v-1h2V106.4z M305.1,106.4
		h-2v-1h2V106.4z M302.1,106.4h-2v-1h2V106.4z M299.1,106.4h-2v-1h2V106.4z M296.1,106.4h-2v-1h2V106.4z M293.1,106.4h-2v-1h2V106.4
		z M290.1,106.4h-2v-1h2V106.4z M287.1,106.4h-2v-1h2V106.4z M284.1,106.4h-2v-1h2V106.4z M281,106.4h-2v-1h2V106.4z M278,106.4h-2
		v-1h2V106.4z M275,106.4h-2v-1h2V106.4z M272,106.4h-2v-1h2V106.4z M269,106.4h-2v-1h2V106.4z M266,106.4h-2v-1h2V106.4z
		 M263,106.4h-2v-1h2V106.4z M260,106.4h-2v-1h2V106.4z M257,106.4h-2v-1h2V106.4z M254,106.4h-2v-1h2V106.4z M251,106.4h-2v-1h2
		V106.4z M248,106.4h-2v-1h2V106.4z M245,106.4h-2v-1h2V106.4z M242,106.4h-2v-1h2V106.4z M239,106.4h-2v-1h2V106.4z M236,106.4h-2
		v-1h2V106.4z M232.9,106.4h-2v-1h2V106.4z M229.9,106.4h-2v-1h2V106.4z M226.9,106.4h-2v-1h2V106.4z M223.9,106.4h-2v-1h2V106.4z
		 M220.9,106.4h-2v-1h2V106.4z M217.9,106.4h-2v-1h2V106.4z M214.9,106.4h-2v-1h2V106.4z M211.9,106.4h-2v-1h2V106.4z M208.9,106.4
		h-2v-1h2V106.4z M205.9,106.4h-2v-1h2V106.4z M202.9,106.4h-2v-1h2V106.4z M199.9,106.4h-2v-1h2V106.4z M196.9,106.4h-2v-1h2V106.4
		z M193.9,106.4h-2v-1h2V106.4z M190.9,106.4h-2v-1h2V106.4z M187.9,106.4h-2v-1h2V106.4z M184.9,106.4h-2v-1h2V106.4z M181.8,106.4
		h-2v-1h2V106.4z M178.8,106.4h-2v-1h2V106.4z M175.8,106.4h-2v-1h2V106.4z M172.8,106.4h-2v-1h2V106.4z M169.8,106.4h-2v-1h2V106.4
		z M166.8,106.4h-2v-1h2V106.4z M163.8,106.4h-2v-1h2V106.4z M160.8,106.4h-2v-1h2V106.4z M157.8,106.4h-2v-1h2V106.4z M154.8,106.4
		h-2v-1h2V106.4z M151.8,106.4h-2v-1h2V106.4z M148.8,106.4h-2v-1h2V106.4z M145.8,106.4h-2v-1h2V106.4z M142.8,106.4h-2v-1h2V106.4
		z M139.8,106.4h-2v-1h2V106.4z M136.8,106.4h-2v-1h2V106.4z M133.7,106.4h-2v-1h2V106.4z M130.7,106.4h-2v-1h2V106.4z M127.7,106.4
		h-2v-1h2V106.4z M124.7,106.4h-2v-1h2V106.4z M121.7,106.4h-2v-1h2V106.4z M118.7,106.4h-2v-1h2V106.4z M115.7,106.4h-2v-1h2V106.4
		z M112.7,106.4h-2v-1h2V106.4z M109.7,106.4h-2v-1h2V106.4z M106.7,106.4h-2v-1h2V106.4z M103.7,106.4h-2v-1h2V106.4z M100.7,106.4
		h-2v-1h2V106.4z M97.7,106.4h-2v-1h2V106.4z M94.7,106.4h-2v-1h2V106.4z M91.7,106.4h-2v-1h2V106.4z M88.7,106.4h-2v-1h2V106.4z"/>
	<rect x="639.8" y="105.4" class="st2" width="1" height="1"/>
</g>
<g>
	<rect x="83.1" y="162.9" class="st2" width="1" height="1"/>
	<path class="st2" d="M637.2,163.9h-2v-1h2V163.9z M634.2,163.9h-2v-1h2V163.9z M631.2,163.9h-2v-1h2V163.9z M628.2,163.9h-2v-1h2
		V163.9z M625.2,163.9h-2v-1h2V163.9z M622.2,163.9h-2v-1h2V163.9z M619.2,163.9h-2v-1h2V163.9z M616.2,163.9h-2v-1h2V163.9z
		 M613.2,163.9h-2v-1h2V163.9z M610.2,163.9h-2v-1h2V163.9z M607.2,163.9h-2v-1h2V163.9z M604.2,163.9h-2v-1h2V163.9z M601.2,163.9
		h-2v-1h2V163.9z M598.2,163.9h-2v-1h2V163.9z M595.2,163.9h-2v-1h2V163.9z M592.2,163.9h-2v-1h2V163.9z M589.2,163.9h-2v-1h2V163.9
		z M586.1,163.9h-2v-1h2V163.9z M583.1,163.9h-2v-1h2V163.9z M580.1,163.9h-2v-1h2V163.9z M577.1,163.9h-2v-1h2V163.9z M574.1,163.9
		h-2v-1h2V163.9z M571.1,163.9h-2v-1h2V163.9z M568.1,163.9h-2v-1h2V163.9z M565.1,163.9h-2v-1h2V163.9z M562.1,163.9h-2v-1h2V163.9
		z M559.1,163.9h-2v-1h2V163.9z M556.1,163.9h-2v-1h2V163.9z M553.1,163.9h-2v-1h2V163.9z M550.1,163.9h-2v-1h2V163.9z M547.1,163.9
		h-2v-1h2V163.9z M544,163.9h-2v-1h2V163.9z M541,163.9h-2v-1h2V163.9z M538,163.9h-2v-1h2V163.9z M535,163.9h-2v-1h2V163.9z
		 M532,163.9h-2v-1h2V163.9z M529,163.9h-2v-1h2V163.9z M526,163.9h-2v-1h2V163.9z M523,163.9h-2v-1h2V163.9z M520,163.9h-2v-1h2
		V163.9z M517,163.9h-2v-1h2V163.9z M514,163.9h-2v-1h2V163.9z M511,163.9h-2v-1h2V163.9z M508,163.9h-2v-1h2V163.9z M505,163.9h-2
		v-1h2V163.9z M502,163.9h-2v-1h2V163.9z M499,163.9h-2v-1h2V163.9z M496,163.9h-2v-1h2V163.9z M492.9,163.9h-2v-1h2V163.9z
		 M489.9,163.9h-2v-1h2V163.9z M486.9,163.9h-2v-1h2V163.9z M483.9,163.9h-2v-1h2V163.9z M480.9,163.9h-2v-1h2V163.9z M477.9,163.9
		h-2v-1h2V163.9z M474.9,163.9h-2v-1h2V163.9z M471.9,163.9h-2v-1h2V163.9z M468.9,163.9h-2v-1h2V163.9z M465.9,163.9h-2v-1h2V163.9
		z M462.9,163.9h-2v-1h2V163.9z M459.9,163.9h-2v-1h2V163.9z M456.9,163.9h-2v-1h2V163.9z M453.9,163.9h-2v-1h2V163.9z M450.9,163.9
		h-2v-1h2V163.9z M447.9,163.9h-2v-1h2V163.9z M444.8,163.9h-2v-1h2V163.9z M441.8,163.9h-2v-1h2V163.9z M438.8,163.9h-2v-1h2V163.9
		z M435.8,163.9h-2v-1h2V163.9z M432.8,163.9h-2v-1h2V163.9z M429.8,163.9h-2v-1h2V163.9z M426.8,163.9h-2v-1h2V163.9z M423.8,163.9
		h-2v-1h2V163.9z M420.8,163.9h-2v-1h2V163.9z M417.8,163.9h-2v-1h2V163.9z M414.8,163.9h-2v-1h2V163.9z M411.8,163.9h-2v-1h2V163.9
		z M408.8,163.9h-2v-1h2V163.9z M405.8,163.9h-2v-1h2V163.9z M402.8,163.9h-2v-1h2V163.9z M399.7,163.9h-2v-1h2V163.9z M396.7,163.9
		h-2v-1h2V163.9z M393.7,163.9h-2v-1h2V163.9z M390.7,163.9h-2v-1h2V163.9z M387.7,163.9h-2v-1h2V163.9z M384.7,163.9h-2v-1h2V163.9
		z M381.7,163.9h-2v-1h2V163.9z M378.7,163.9h-2v-1h2V163.9z M375.7,163.9h-2v-1h2V163.9z M372.7,163.9h-2v-1h2V163.9z M369.7,163.9
		h-2v-1h2V163.9z M366.7,163.9h-2v-1h2V163.9z M363.7,163.9h-2v-1h2V163.9z M360.7,163.9h-2v-1h2V163.9z M357.6,163.9h-2v-1h2V163.9
		z M354.6,163.9h-2v-1h2V163.9z M351.6,163.9h-2v-1h2V163.9z M348.6,163.9h-2v-1h2V163.9z M345.6,163.9h-2v-1h2V163.9z M342.6,163.9
		h-2v-1h2V163.9z M339.6,163.9h-2v-1h2V163.9z M336.6,163.9h-2v-1h2V163.9z M333.6,163.9h-2v-1h2V163.9z M330.6,163.9h-2v-1h2V163.9
		z M327.6,163.9h-2v-1h2V163.9z M324.6,163.9h-2v-1h2V163.9z M321.6,163.9h-2v-1h2V163.9z M318.6,163.9h-2v-1h2V163.9z M315.6,163.9
		h-2v-1h2V163.9z M312.6,163.9h-2v-1h2V163.9z M309.5,163.9h-2v-1h2V163.9z M306.5,163.9h-2v-1h2V163.9z M303.5,163.9h-2v-1h2V163.9
		z M300.5,163.9h-2v-1h2V163.9z M297.5,163.9h-2v-1h2V163.9z M294.5,163.9h-2v-1h2V163.9z M291.5,163.9h-2v-1h2V163.9z M288.5,163.9
		h-2v-1h2V163.9z M285.5,163.9h-2v-1h2V163.9z M282.5,163.9h-2v-1h2V163.9z M279.5,163.9h-2v-1h2V163.9z M276.5,163.9h-2v-1h2V163.9
		z M273.5,163.9h-2v-1h2V163.9z M270.5,163.9h-2v-1h2V163.9z M267.5,163.9h-2v-1h2V163.9z M264.5,163.9h-2v-1h2V163.9z M261.5,163.9
		h-2v-1h2V163.9z M258.4,163.9h-2v-1h2V163.9z M255.4,163.9h-2v-1h2V163.9z M252.4,163.9h-2v-1h2V163.9z M249.4,163.9h-2v-1h2V163.9
		z M246.4,163.9h-2v-1h2V163.9z M243.4,163.9h-2v-1h2V163.9z M240.4,163.9h-2v-1h2V163.9z M237.4,163.9h-2v-1h2V163.9z M234.4,163.9
		h-2v-1h2V163.9z M231.4,163.9h-2v-1h2V163.9z M228.4,163.9h-2v-1h2V163.9z M225.4,163.9h-2v-1h2V163.9z M222.4,163.9h-2v-1h2V163.9
		z M219.4,163.9h-2v-1h2V163.9z M216.4,163.9h-2v-1h2V163.9z M213.4,163.9h-2v-1h2V163.9z M210.3,163.9h-2v-1h2V163.9z M207.3,163.9
		h-2v-1h2V163.9z M204.3,163.9h-2v-1h2V163.9z M201.3,163.9h-2v-1h2V163.9z M198.3,163.9h-2v-1h2V163.9z M195.3,163.9h-2v-1h2V163.9
		z M192.3,163.9h-2v-1h2V163.9z M189.3,163.9h-2v-1h2V163.9z M186.3,163.9h-2v-1h2V163.9z M183.3,163.9h-2v-1h2V163.9z M180.3,163.9
		h-2v-1h2V163.9z M177.3,163.9h-2v-1h2V163.9z M174.3,163.9h-2v-1h2V163.9z M171.3,163.9h-2v-1h2V163.9z M168.2,163.9h-2v-1h2V163.9
		z M165.2,163.9h-2v-1h2V163.9z M162.2,163.9h-2v-1h2V163.9z M159.2,163.9h-2v-1h2V163.9z M156.2,163.9h-2v-1h2V163.9z M153.2,163.9
		h-2v-1h2V163.9z M150.2,163.9h-2v-1h2V163.9z M147.2,163.9h-2v-1h2V163.9z M144.2,163.9h-2v-1h2V163.9z M141.2,163.9h-2v-1h2V163.9
		z M138.2,163.9h-2v-1h2V163.9z M135.2,163.9h-2v-1h2V163.9z M132.2,163.9h-2v-1h2V163.9z M129.2,163.9h-2v-1h2V163.9z M126.2,163.9
		h-2v-1h2V163.9z M123.2,163.9h-2v-1h2V163.9z M120.2,163.9h-2v-1h2V163.9z M117.1,163.9h-2v-1h2V163.9z M114.1,163.9h-2v-1h2V163.9
		z M111.1,163.9h-2v-1h2V163.9z M108.1,163.9h-2v-1h2V163.9z M105.1,163.9h-2v-1h2V163.9z M102.1,163.9h-2v-1h2V163.9z M99.1,163.9
		h-2v-1h2V163.9z M96.1,163.9h-2v-1h2V163.9z M93.1,163.9h-2v-1h2V163.9z M90.1,163.9h-2v-1h2V163.9z M87.1,163.9h-2v-1h2V163.9z"/>
	<rect x="638.2" y="162.9" class="st2" width="1" height="1"/>
</g>
<g>
	<polygon class="st3" points="713.3,218.3 711.8,218.3 711.8,217.3 712.3,217.3 712.3,216.8 713.3,216.8 	"/>
	<path class="st3" d="M710.8,218.3h-2v-1h2V218.3z M707.8,218.3h-2v-1h2V218.3z M704.8,218.3h-2v-1h2V218.3z M701.8,218.3h-2v-1h2
		V218.3z M698.8,218.3h-2v-1h2V218.3z M695.8,218.3h-2v-1h2V218.3z M692.8,218.3h-2v-1h2V218.3z M689.8,218.3h-2v-1h2V218.3z
		 M686.8,218.3h-2v-1h2V218.3z M683.8,218.3h-2v-1h2V218.3z M680.8,218.3h-2v-1h2V218.3z M677.8,218.3h-2v-1h2V218.3z M674.8,218.3
		h-2v-1h2V218.3z M671.8,218.3h-2v-1h2V218.3z M668.8,218.3h-2v-1h2V218.3z M665.8,218.3h-2v-1h2V218.3z M662.8,218.3h-2v-1h2V218.3
		z M659.8,218.3h-2v-1h2V218.3z M656.8,218.3h-2v-1h2V218.3z M653.8,218.3h-2v-1h2V218.3z M650.8,218.3h-2v-1h2V218.3z M647.8,218.3
		h-2v-1h2V218.3z M644.8,218.3h-2v-1h2V218.3z M641.8,218.3h-2v-1h2V218.3z M638.8,218.3h-2v-1h2V218.3z M635.8,218.3h-2v-1h2V218.3
		z M632.8,218.3h-2v-1h2V218.3z M629.8,218.3h-2v-1h2V218.3z M626.8,218.3h-2v-1h2V218.3z M623.8,218.3h-2v-1h2V218.3z M620.8,218.3
		h-2v-1h2V218.3z M617.8,218.3h-2v-1h2V218.3z M614.8,218.3h-2v-1h2V218.3z M611.8,218.3h-2v-1h2V218.3z M608.8,218.3h-2v-1h2V218.3
		z M605.8,218.3h-2v-1h2V218.3z M602.8,218.3h-2v-1h2V218.3z M599.8,218.3h-2v-1h2V218.3z M596.8,218.3h-2v-1h2V218.3z M593.8,218.3
		h-2v-1h2V218.3z M590.8,218.3h-2v-1h2V218.3z M587.8,218.3h-2v-1h2V218.3z M584.8,218.3h-2v-1h2V218.3z M581.8,218.3h-2v-1h2V218.3
		z M578.8,218.3h-2v-1h2V218.3z M575.8,218.3h-2v-1h2V218.3z M572.8,218.3h-2v-1h2V218.3z M569.8,218.3h-2v-1h2V218.3z M566.8,218.3
		h-2v-1h2V218.3z M563.8,218.3h-2v-1h2V218.3z M560.8,218.3h-2v-1h2V218.3z M557.8,218.3h-2v-1h2V218.3z M554.8,218.3h-2v-1h2V218.3
		z M551.9,218.3h-2v-1h2V218.3z M548.9,218.3h-2v-1h2V218.3z M545.9,218.3h-2v-1h2V218.3z M542.9,218.3h-2v-1h2V218.3z M539.9,218.3
		h-2v-1h2V218.3z M536.9,218.3h-2v-1h2V218.3z M533.9,218.3h-2v-1h2V218.3z M530.9,218.3h-2v-1h2V218.3z M527.9,218.3h-2v-1h2V218.3
		z M524.9,218.3h-2v-1h2V218.3z M521.9,218.3h-2v-1h2V218.3z M518.9,218.3h-2v-1h2V218.3z M515.9,218.3h-2v-1h2V218.3z M512.9,218.3
		h-2v-1h2V218.3z M509.9,218.3h-2v-1h2V218.3z M506.9,218.3h-2v-1h2V218.3z M503.9,218.3h-2v-1h2V218.3z M500.9,218.3h-2v-1h2V218.3
		z M497.9,218.3h-2v-1h2V218.3z M494.9,218.3h-2v-1h2V218.3z M491.9,218.3h-2v-1h2V218.3z M488.9,218.3h-2v-1h2V218.3z M485.9,218.3
		h-2v-1h2V218.3z M482.9,218.3h-2v-1h2V218.3z M479.9,218.3h-2v-1h2V218.3z M476.9,218.3h-2v-1h2V218.3z M473.9,218.3h-2v-1h2V218.3
		z M470.9,218.3h-2v-1h2V218.3z M467.9,218.3h-2v-1h2V218.3z M464.9,218.3h-2v-1h2V218.3z M461.9,218.3h-2v-1h2V218.3z M458.9,218.3
		h-2v-1h2V218.3z M455.9,218.3h-2v-1h2V218.3z M452.9,218.3h-2v-1h2V218.3z M449.9,218.3h-2v-1h2V218.3z M446.9,218.3h-2v-1h2V218.3
		z M443.9,218.3h-2v-1h2V218.3z M440.9,218.3h-2v-1h2V218.3z M437.9,218.3h-2v-1h2V218.3z M434.9,218.3h-2v-1h2V218.3z M431.9,218.3
		h-2v-1h2V218.3z M428.9,218.3h-2v-1h2V218.3z M425.9,218.3h-2v-1h2V218.3z M422.9,218.3h-2v-1h2V218.3z M419.9,218.3h-2v-1h2V218.3
		z M416.9,218.3h-2v-1h2V218.3z M413.9,218.3h-2v-1h2V218.3z M410.9,218.3h-2v-1h2V218.3z M407.9,218.3h-2v-1h2V218.3z M404.9,218.3
		h-2v-1h2V218.3z M401.9,218.3h-2v-1h2V218.3z M398.9,218.3h-2v-1h2V218.3z M395.9,218.3h-2v-1h2V218.3z M392.9,218.3h-2v-1h2V218.3
		z M389.9,218.3h-2v-1h2V218.3z M386.9,218.3h-2v-1h2V218.3z M383.9,218.3h-2v-1h2V218.3z M380.9,218.3h-2v-1h2V218.3z M377.9,218.3
		h-2v-1h2V218.3z M374.9,218.3h-2v-1h2V218.3z M371.9,218.3h-2v-1h2V218.3z M368.9,218.3h-2v-1h2V218.3z M365.9,218.3h-2v-1h2V218.3
		z M362.9,218.3h-2v-1h2V218.3z M360,218.3h-2v-1h2V218.3z M357,218.3h-2v-1h2V218.3z M354,218.3h-2v-1h2V218.3z M351,218.3h-2v-1h2
		V218.3z M348,218.3h-2v-1h2V218.3z M345,218.3h-2v-1h2V218.3z M342,218.3h-2v-1h2V218.3z M339,218.3h-2v-1h2V218.3z M336,218.3h-2
		v-1h2V218.3z M333,218.3h-2v-1h2V218.3z M330,218.3h-2v-1h2V218.3z M327,218.3h-2v-1h2V218.3z M324,218.3h-2v-1h2V218.3z
		 M321,218.3h-2v-1h2V218.3z M318,218.3h-2v-1h2V218.3z M315,218.3h-2v-1h2V218.3z M312,218.3h-2v-1h2V218.3z M309,218.3h-2v-1h2
		V218.3z M306,218.3h-2v-1h2V218.3z M303,218.3h-2v-1h2V218.3z M300,218.3h-2v-1h2V218.3z M297,218.3h-2v-1h2V218.3z M294,218.3h-2
		v-1h2V218.3z M291,218.3h-2v-1h2V218.3z M288,218.3h-2v-1h2V218.3z M285,218.3h-2v-1h2V218.3z M282,218.3h-2v-1h2V218.3z
		 M279,218.3h-2v-1h2V218.3z M276,218.3h-2v-1h2V218.3z M273,218.3h-2v-1h2V218.3z M270,218.3h-2v-1h2V218.3z M267,218.3h-2v-1h2
		V218.3z M264,218.3h-2v-1h2V218.3z M261,218.3h-2v-1h2V218.3z M258,218.3h-2v-1h2V218.3z M255,218.3h-2v-1h2V218.3z M252,218.3h-2
		v-1h2V218.3z M249,218.3h-2v-1h2V218.3z M246,218.3h-2v-1h2V218.3z M243,218.3h-2v-1h2V218.3z M240,218.3h-2v-1h2V218.3z
		 M237,218.3h-2v-1h2V218.3z M234,218.3h-2v-1h2V218.3z M231,218.3h-2v-1h2V218.3z M228,218.3h-2v-1h2V218.3z M225,218.3h-2v-1h2
		V218.3z M222,218.3h-2v-1h2V218.3z M219,218.3h-2v-1h2V218.3z M216,218.3h-2v-1h2V218.3z M213,218.3h-2v-1h2V218.3z M210,218.3h-2
		v-1h2V218.3z M207,218.3h-2v-1h2V218.3z M204,218.3h-2v-1h2V218.3z M201,218.3h-2v-1h2V218.3z M198,218.3h-2v-1h2V218.3z
		 M195,218.3h-2v-1h2V218.3z M192,218.3h-2v-1h2V218.3z M189,218.3h-2v-1h2V218.3z M186,218.3h-2v-1h2V218.3z M183,218.3h-2v-1h2
		V218.3z M180,218.3h-2v-1h2V218.3z M177,218.3h-2v-1h2V218.3z M174,218.3h-2v-1h2V218.3z M171,218.3h-2v-1h2V218.3z M168,218.3h-2
		v-1h2V218.3z M165,218.3h-2v-1h2V218.3z M162,218.3h-2v-1h2V218.3z M159,218.3h-2v-1h2V218.3z M156,218.3h-2v-1h2V218.3z
		 M153,218.3h-2v-1h2V218.3z M150,218.3h-2v-1h2V218.3z M147,218.3h-2v-1h2V218.3z M144.1,218.3h-2v-1h2V218.3z M141.1,218.3h-2v-1
		h2V218.3z M138.1,218.3h-2v-1h2V218.3z M135.1,218.3h-2v-1h2V218.3z M132.1,218.3h-2v-1h2V218.3z M129.1,218.3h-2v-1h2V218.3z
		 M126.1,218.3h-2v-1h2V218.3z M123.1,218.3h-2v-1h2V218.3z M120.1,218.3h-2v-1h2V218.3z M117.1,218.3h-2v-1h2V218.3z M114.1,218.3
		h-2v-1h2V218.3z M111.1,218.3h-2v-1h2V218.3z M108.1,218.3h-2v-1h2V218.3z M105.1,218.3h-2v-1h2V218.3z M102.1,218.3h-2v-1h2V218.3
		z M99.1,218.3h-2v-1h2V218.3z M96.1,218.3h-2v-1h2V218.3z M93.1,218.3h-2v-1h2V218.3z M90.1,218.3h-2v-1h2V218.3z M87.1,218.3h-2
		v-1h2V218.3z M84.1,218.3h-2v-1h2V218.3z M81.1,218.3h-2v-1h2V218.3z M78.1,218.3h-2v-1h2V218.3z M75.1,218.3h-2v-1h2V218.3z
		 M72.1,218.3h-2v-1h2V218.3z M69.1,218.3h-2v-1h2V218.3z M66.1,218.3h-2v-1h2V218.3z M63.1,218.3h-2v-1h2V218.3z M60.1,218.3h-2v-1
		h2V218.3z M57.1,218.3h-2v-1h2V218.3z M54.1,218.3h-2v-1h2V218.3z M51.1,218.3h-2v-1h2V218.3z M48.1,218.3h-2v-1h2V218.3z
		 M45.1,218.3h-2v-1h2V218.3z M42.1,218.3h-2v-1h2V218.3z M39.1,218.3h-2v-1h2V218.3z M36.1,218.3h-2v-1h2V218.3z M33.1,218.3h-2v-1
		h2V218.3z M30.1,218.3h-2v-1h2V218.3z M27.1,218.3h-2v-1h2V218.3z M24.1,218.3h-2v-1h2V218.3z M21.1,218.3h-2v-1h2V218.3z
		 M18.1,218.3h-2v-1h2V218.3z M15.1,218.3h-2v-1h2V218.3z"/>
	<polygon class="st3" points="12.1,218.3 10.6,218.3 10.6,216.8 11.6,216.8 11.6,217.3 12.1,217.3 	"/>
	<path class="st3" d="M11.6,215.8h-1v-2h1V215.8z M11.6,212.8h-1v-2h1V212.8z M11.6,209.8h-1v-2h1V209.8z M11.6,206.8h-1v-2h1V206.8
		z M11.6,203.8h-1v-2h1V203.8z M11.6,200.8h-1v-2h1V200.8z M11.6,197.7h-1v-2h1V197.7z M11.6,194.7h-1v-2h1V194.7z M11.6,191.7h-1
		v-2h1V191.7z M11.6,188.7h-1v-2h1V188.7z M11.6,185.7h-1v-2h1V185.7z M11.6,182.7h-1v-2h1V182.7z M11.6,179.7h-1v-2h1V179.7z
		 M11.6,176.7h-1v-2h1V176.7z M11.6,173.7h-1v-2h1V173.7z M11.6,170.7h-1v-2h1V170.7z M11.6,167.7h-1v-2h1V167.7z M11.6,164.7h-1v-2
		h1V164.7z M11.6,161.7h-1v-2h1V161.7z M11.6,158.7h-1v-2h1V158.7z M11.6,155.6h-1v-2h1V155.6z M11.6,152.6h-1v-2h1V152.6z
		 M11.6,149.6h-1v-2h1V149.6z M11.6,146.6h-1v-2h1V146.6z M11.6,143.6h-1v-2h1V143.6z M11.6,140.6h-1v-2h1V140.6z M11.6,137.6h-1v-2
		h1V137.6z M11.6,134.6h-1v-2h1V134.6z M11.6,131.6h-1v-2h1V131.6z M11.6,128.6h-1v-2h1V128.6z M11.6,125.6h-1v-2h1V125.6z
		 M11.6,122.6h-1v-2h1V122.6z M11.6,119.6h-1v-2h1V119.6z M11.6,116.6h-1v-2h1V116.6z M11.6,113.6h-1v-2h1V113.6z M11.6,110.6h-1v-2
		h1V110.6z M11.6,107.6h-1v-2h1V107.6z M11.6,104.5h-1v-2h1V104.5z M11.6,101.5h-1v-2h1V101.5z M11.6,98.5h-1v-2h1V98.5z M11.6,95.5
		h-1v-2h1V95.5z M11.6,92.5h-1v-2h1V92.5z M11.6,89.5h-1v-2h1V89.5z M11.6,86.5h-1v-2h1V86.5z M11.6,83.5h-1v-2h1V83.5z M11.6,80.5
		h-1v-2h1V80.5z M11.6,77.5h-1v-2h1V77.5z M11.6,74.5h-1v-2h1V74.5z M11.6,71.5h-1v-2h1V71.5z M11.6,68.5h-1v-2h1V68.5z M11.6,65.4
		h-1v-2h1V65.4z M11.6,62.5h-1v-2h1V62.5z M11.6,59.4h-1v-2h1V59.4z M11.6,56.4h-1v-2h1V56.4z M11.6,53.4h-1v-2h1V53.4z M11.6,50.4
		h-1v-2h1V50.4z M11.6,47.4h-1v-2h1V47.4z M11.6,44.4h-1v-2h1V44.4z M11.6,41.4h-1v-2h1V41.4z M11.6,38.4h-1v-2h1V38.4z M11.6,35.4
		h-1v-2h1V35.4z M11.6,32.4h-1v-2h1V32.4z M11.6,29.4h-1v-2h1V29.4z M11.6,26.4h-1v-2h1V26.4z M11.6,23.4h-1v-2h1V23.4z M11.6,20.4
		h-1v-2h1V20.4z M11.6,17.4h-1v-2h1V17.4z"/>
	<polygon class="st3" points="11.6,14.3 10.6,14.3 10.6,12.8 12.1,12.8 12.1,13.8 11.6,13.8 	"/>
	<path class="st3" d="M710.8,13.8h-2v-1h2V13.8z M707.8,13.8h-2v-1h2V13.8z M704.8,13.8h-2v-1h2V13.8z M701.8,13.8h-2v-1h2V13.8z
		 M698.8,13.8h-2v-1h2V13.8z M695.8,13.8h-2v-1h2V13.8z M692.8,13.8h-2v-1h2V13.8z M689.8,13.8h-2v-1h2V13.8z M686.8,13.8h-2v-1h2
		V13.8z M683.8,13.8h-2v-1h2V13.8z M680.8,13.8h-2v-1h2V13.8z M677.8,13.8h-2v-1h2V13.8z M674.8,13.8h-2v-1h2V13.8z M671.8,13.8h-2
		v-1h2V13.8z M668.8,13.8h-2v-1h2V13.8z M665.8,13.8h-2v-1h2V13.8z M662.8,13.8h-2v-1h2V13.8z M659.8,13.8h-2v-1h2V13.8z
		 M656.8,13.8h-2v-1h2V13.8z M653.8,13.8h-2v-1h2V13.8z M650.8,13.8h-2v-1h2V13.8z M647.8,13.8h-2v-1h2V13.8z M644.8,13.8h-2v-1h2
		V13.8z M641.8,13.8h-2v-1h2V13.8z M638.8,13.8h-2v-1h2V13.8z M635.8,13.8h-2v-1h2V13.8z M632.8,13.8h-2v-1h2V13.8z M629.8,13.8h-2
		v-1h2V13.8z M626.8,13.8h-2v-1h2V13.8z M623.8,13.8h-2v-1h2V13.8z M620.8,13.8h-2v-1h2V13.8z M617.8,13.8h-2v-1h2V13.8z
		 M614.8,13.8h-2v-1h2V13.8z M611.8,13.8h-2v-1h2V13.8z M608.8,13.8h-2v-1h2V13.8z M605.8,13.8h-2v-1h2V13.8z M602.8,13.8h-2v-1h2
		V13.8z M599.8,13.8h-2v-1h2V13.8z M596.8,13.8h-2v-1h2V13.8z M593.8,13.8h-2v-1h2V13.8z M590.8,13.8h-2v-1h2V13.8z M587.8,13.8h-2
		v-1h2V13.8z M584.8,13.8h-2v-1h2V13.8z M581.8,13.8h-2v-1h2V13.8z M578.8,13.8h-2v-1h2V13.8z M575.8,13.8h-2v-1h2V13.8z
		 M572.8,13.8h-2v-1h2V13.8z M569.8,13.8h-2v-1h2V13.8z M566.8,13.8h-2v-1h2V13.8z M563.8,13.8h-2v-1h2V13.8z M560.8,13.8h-2v-1h2
		V13.8z M557.8,13.8h-2v-1h2V13.8z M554.9,13.8h-2v-1h2V13.8z M551.9,13.8h-2v-1h2V13.8z M548.9,13.8h-2v-1h2V13.8z M545.9,13.8h-2
		v-1h2V13.8z M542.9,13.8h-2v-1h2V13.8z M539.9,13.8h-2v-1h2V13.8z M536.9,13.8h-2v-1h2V13.8z M533.9,13.8h-2v-1h2V13.8z
		 M530.9,13.8h-2v-1h2V13.8z M527.9,13.8h-2v-1h2V13.8z M524.9,13.8h-2v-1h2V13.8z M521.9,13.8h-2v-1h2V13.8z M518.9,13.8h-2v-1h2
		V13.8z M515.9,13.8h-2v-1h2V13.8z M512.9,13.8h-2v-1h2V13.8z M509.9,13.8h-2v-1h2V13.8z M506.9,13.8h-2v-1h2V13.8z M503.9,13.8h-2
		v-1h2V13.8z M500.9,13.8h-2v-1h2V13.8z M497.9,13.8h-2v-1h2V13.8z M494.9,13.8h-2v-1h2V13.8z M491.9,13.8h-2v-1h2V13.8z
		 M488.9,13.8h-2v-1h2V13.8z M485.9,13.8h-2v-1h2V13.8z M482.9,13.8h-2v-1h2V13.8z M479.9,13.8h-2v-1h2V13.8z M476.9,13.8h-2v-1h2
		V13.8z M473.9,13.8h-2v-1h2V13.8z M470.9,13.8h-2v-1h2V13.8z M467.9,13.8h-2v-1h2V13.8z M464.9,13.8h-2v-1h2V13.8z M461.9,13.8h-2
		v-1h2V13.8z M458.9,13.8h-2v-1h2V13.8z M455.9,13.8h-2v-1h2V13.8z M452.9,13.8h-2v-1h2V13.8z M449.9,13.8h-2v-1h2V13.8z
		 M446.9,13.8h-2v-1h2V13.8z M443.9,13.8h-2v-1h2V13.8z M440.9,13.8h-2v-1h2V13.8z M437.9,13.8h-2v-1h2V13.8z M434.9,13.8h-2v-1h2
		V13.8z M431.9,13.8h-2v-1h2V13.8z M428.9,13.8h-2v-1h2V13.8z M425.9,13.8h-2v-1h2V13.8z M422.9,13.8h-2v-1h2V13.8z M419.9,13.8h-2
		v-1h2V13.8z M416.9,13.8h-2v-1h2V13.8z M413.9,13.8h-2v-1h2V13.8z M410.9,13.8h-2v-1h2V13.8z M407.9,13.8h-2v-1h2V13.8z
		 M404.9,13.8h-2v-1h2V13.8z M401.9,13.8h-2v-1h2V13.8z M398.9,13.8h-2v-1h2V13.8z M395.9,13.8h-2v-1h2V13.8z M392.9,13.8h-2v-1h2
		V13.8z M389.9,13.8h-2v-1h2V13.8z M386.9,13.8h-2v-1h2V13.8z M383.9,13.8h-2v-1h2V13.8z M380.9,13.8h-2v-1h2V13.8z M377.9,13.8h-2
		v-1h2V13.8z M374.9,13.8h-2v-1h2V13.8z M371.9,13.8h-2v-1h2V13.8z M368.9,13.8h-2v-1h2V13.8z M365.9,13.8h-2v-1h2V13.8z M363,13.8
		h-2v-1h2V13.8z M360,13.8h-2v-1h2V13.8z M357,13.8h-2v-1h2V13.8z M354,13.8h-2v-1h2V13.8z M351,13.8h-2v-1h2V13.8z M348,13.8h-2v-1
		h2V13.8z M345,13.8h-2v-1h2V13.8z M342,13.8h-2v-1h2V13.8z M339,13.8h-2v-1h2V13.8z M336,13.8h-2v-1h2V13.8z M333,13.8h-2v-1h2
		V13.8z M330,13.8h-2v-1h2V13.8z M327,13.8h-2v-1h2V13.8z M324,13.8h-2v-1h2V13.8z M321,13.8h-2v-1h2V13.8z M318,13.8h-2v-1h2V13.8z
		 M315,13.8h-2v-1h2V13.8z M312,13.8h-2v-1h2V13.8z M309,13.8h-2v-1h2V13.8z M306,13.8h-2v-1h2V13.8z M303,13.8h-2v-1h2V13.8z
		 M300,13.8h-2v-1h2V13.8z M297,13.8h-2v-1h2V13.8z M294,13.8h-2v-1h2V13.8z M291,13.8h-2v-1h2V13.8z M288,13.8h-2v-1h2V13.8z
		 M285,13.8h-2v-1h2V13.8z M282,13.8h-2v-1h2V13.8z M279,13.8h-2v-1h2V13.8z M276,13.8h-2v-1h2V13.8z M273,13.8h-2v-1h2V13.8z
		 M270,13.8h-2v-1h2V13.8z M267,13.8h-2v-1h2V13.8z M264,13.8h-2v-1h2V13.8z M261,13.8h-2v-1h2V13.8z M258,13.8h-2v-1h2V13.8z
		 M255,13.8h-2v-1h2V13.8z M252,13.8h-2v-1h2V13.8z M249,13.8h-2v-1h2V13.8z M246,13.8h-2v-1h2V13.8z M243,13.8h-2v-1h2V13.8z
		 M240,13.8h-2v-1h2V13.8z M237,13.8h-2v-1h2V13.8z M234,13.8h-2v-1h2V13.8z M231,13.8h-2v-1h2V13.8z M228,13.8h-2v-1h2V13.8z
		 M225,13.8h-2v-1h2V13.8z M222,13.8h-2v-1h2V13.8z M219,13.8h-2v-1h2V13.8z M216,13.8h-2v-1h2V13.8z M213,13.8h-2v-1h2V13.8z
		 M210,13.8h-2v-1h2V13.8z M207,13.8h-2v-1h2V13.8z M204,13.8h-2v-1h2V13.8z M201,13.8h-2v-1h2V13.8z M198,13.8h-2v-1h2V13.8z
		 M195,13.8h-2v-1h2V13.8z M192,13.8h-2v-1h2V13.8z M189,13.8h-2v-1h2V13.8z M186,13.8h-2v-1h2V13.8z M183,13.8h-2v-1h2V13.8z
		 M180,13.8h-2v-1h2V13.8z M177,13.8h-2v-1h2V13.8z M174,13.8h-2v-1h2V13.8z M171,13.8h-2v-1h2V13.8z M168,13.8h-2v-1h2V13.8z
		 M165,13.8h-2v-1h2V13.8z M162,13.8h-2v-1h2V13.8z M159,13.8h-2v-1h2V13.8z M156,13.8h-2v-1h2V13.8z M153,13.8h-2v-1h2V13.8z
		 M150,13.8h-2v-1h2V13.8z M147.1,13.8h-2v-1h2V13.8z M144.1,13.8h-2v-1h2V13.8z M141.1,13.8h-2v-1h2V13.8z M138.1,13.8h-2v-1h2
		V13.8z M135.1,13.8h-2v-1h2V13.8z M132.1,13.8h-2v-1h2V13.8z M129.1,13.8h-2v-1h2V13.8z M126.1,13.8h-2v-1h2V13.8z M123.1,13.8h-2
		v-1h2V13.8z M120.1,13.8h-2v-1h2V13.8z M117.1,13.8h-2v-1h2V13.8z M114.1,13.8h-2v-1h2V13.8z M111.1,13.8h-2v-1h2V13.8z
		 M108.1,13.8h-2v-1h2V13.8z M105.1,13.8h-2v-1h2V13.8z M102.1,13.8h-2v-1h2V13.8z M99.1,13.8h-2v-1h2V13.8z M96.1,13.8h-2v-1h2
		V13.8z M93.1,13.8h-2v-1h2V13.8z M90.1,13.8h-2v-1h2V13.8z M87.1,13.8h-2v-1h2V13.8z M84.1,13.8h-2v-1h2V13.8z M81.1,13.8h-2v-1h2
		V13.8z M78.1,13.8h-2v-1h2V13.8z M75.1,13.8h-2v-1h2V13.8z M72.1,13.8h-2v-1h2V13.8z M69.1,13.8h-2v-1h2V13.8z M66.1,13.8h-2v-1h2
		V13.8z M63.1,13.8h-2v-1h2V13.8z M60.1,13.8h-2v-1h2V13.8z M57.1,13.8h-2v-1h2V13.8z M54.1,13.8h-2v-1h2V13.8z M51.1,13.8h-2v-1h2
		V13.8z M48.1,13.8h-2v-1h2V13.8z M45.1,13.8h-2v-1h2V13.8z M42.1,13.8h-2v-1h2V13.8z M39.1,13.8h-2v-1h2V13.8z M36.1,13.8h-2v-1h2
		V13.8z M33.1,13.8h-2v-1h2V13.8z M30.1,13.8h-2v-1h2V13.8z M27.1,13.8h-2v-1h2V13.8z M24.1,13.8h-2v-1h2V13.8z M21.1,13.8h-2v-1h2
		V13.8z M18.1,13.8h-2v-1h2V13.8z M15.1,13.8h-2v-1h2V13.8z"/>
	<polygon class="st3" points="713.3,14.3 712.3,14.3 712.3,13.8 711.8,13.8 711.8,12.8 713.3,12.8 	"/>
	<path class="st3" d="M713.3,215.8h-1v-2h1V215.8z M713.3,212.8h-1v-2h1V212.8z M713.3,209.8h-1v-2h1V209.8z M713.3,206.8h-1v-2h1
		V206.8z M713.3,203.8h-1v-2h1V203.8z M713.3,200.8h-1v-2h1V200.8z M713.3,197.7h-1v-2h1V197.7z M713.3,194.7h-1v-2h1V194.7z
		 M713.3,191.7h-1v-2h1V191.7z M713.3,188.7h-1v-2h1V188.7z M713.3,185.7h-1v-2h1V185.7z M713.3,182.7h-1v-2h1V182.7z M713.3,179.7
		h-1v-2h1V179.7z M713.3,176.7h-1v-2h1V176.7z M713.3,173.7h-1v-2h1V173.7z M713.3,170.7h-1v-2h1V170.7z M713.3,167.7h-1v-2h1V167.7
		z M713.3,164.7h-1v-2h1V164.7z M713.3,161.7h-1v-2h1V161.7z M713.3,158.7h-1v-2h1V158.7z M713.3,155.6h-1v-2h1V155.6z M713.3,152.6
		h-1v-2h1V152.6z M713.3,149.6h-1v-2h1V149.6z M713.3,146.6h-1v-2h1V146.6z M713.3,143.6h-1v-2h1V143.6z M713.3,140.6h-1v-2h1V140.6
		z M713.3,137.6h-1v-2h1V137.6z M713.3,134.6h-1v-2h1V134.6z M713.3,131.6h-1v-2h1V131.6z M713.3,128.6h-1v-2h1V128.6z M713.3,125.6
		h-1v-2h1V125.6z M713.3,122.6h-1v-2h1V122.6z M713.3,119.6h-1v-2h1V119.6z M713.3,116.6h-1v-2h1V116.6z M713.3,113.6h-1v-2h1V113.6
		z M713.3,110.6h-1v-2h1V110.6z M713.3,107.6h-1v-2h1V107.6z M713.3,104.5h-1v-2h1V104.5z M713.3,101.5h-1v-2h1V101.5z M713.3,98.5
		h-1v-2h1V98.5z M713.3,95.5h-1v-2h1V95.5z M713.3,92.5h-1v-2h1V92.5z M713.3,89.5h-1v-2h1V89.5z M713.3,86.5h-1v-2h1V86.5z
		 M713.3,83.5h-1v-2h1V83.5z M713.3,80.5h-1v-2h1V80.5z M713.3,77.5h-1v-2h1V77.5z M713.3,74.5h-1v-2h1V74.5z M713.3,71.5h-1v-2h1
		V71.5z M713.3,68.5h-1v-2h1V68.5z M713.3,65.4h-1v-2h1V65.4z M713.3,62.5h-1v-2h1V62.5z M713.3,59.4h-1v-2h1V59.4z M713.3,56.4h-1
		v-2h1V56.4z M713.3,53.4h-1v-2h1V53.4z M713.3,50.4h-1v-2h1V50.4z M713.3,47.4h-1v-2h1V47.4z M713.3,44.4h-1v-2h1V44.4z
		 M713.3,41.4h-1v-2h1V41.4z M713.3,38.4h-1v-2h1V38.4z M713.3,35.4h-1v-2h1V35.4z M713.3,32.4h-1v-2h1V32.4z M713.3,29.4h-1v-2h1
		V29.4z M713.3,26.4h-1v-2h1V26.4z M713.3,23.4h-1v-2h1V23.4z M713.3,20.4h-1v-2h1V20.4z M713.3,17.4h-1v-2h1V17.4z"/>
</g>
</svg>
