<?xml version="1.0" encoding="utf-8"?>
<!-- Generator: Adobe Illustrator 25.0.1, SVG Export Plug-In . SVG Version: 6.00 Build 0)  -->
<svg version="1.1" id="レイヤー_1" xmlns="http://www.w3.org/2000/svg" xmlns:xlink="http://www.w3.org/1999/xlink" x="0px"
	 y="0px" viewBox="0 0 723.89 231.13" style="enable-background:new 0 0 723.89 231.13;" xml:space="preserve">
<style type="text/css">
	.st0{fill:#656561;}
</style>
<g>
	<g>
		<path class="st0" d="M179.4,164.42h-14.72v-30.31c0-8.78-3.26-13.24-9.69-13.24c-7.81,0-12.28,5.99-12.28,16.43v27.12H128v-26.6
			c0-12.04-2.9-16.95-10.01-16.95c-7.62,0-12.17,6.22-12.17,16.64v26.91H91.09v-57.28h14.72v8.36c4.86-4.9,11.01-7.48,17.8-7.48
			c7.38,0,13.34,3.42,16.8,9.65c4.86-5.8,10.02-9.65,19.23-9.65c6.36,0,12.15,2.41,15.5,6.44c3.93,4.69,4.25,11.09,4.25,17.79
			V164.42z"/>
		<path class="st0" d="M227.09,119.09h16.1v45.33h-16.1V119.09z"/>
		<path class="st0" d="M309.43,114.54c6.17-4.5,11.86-7.11,19.01-7.11c11.98,0,22.03,7.11,22.03,19.03v37.96h-16.1v-26.25
			c0-10.98-1.09-17.98-10.9-17.98c-4.48,0-8.35,1.88-10.9,5.33c-3.27,4.5-3.15,9.51-3.15,15.27v23.63h-16.1v-56.99h16.1V114.54z"/>
		<path class="st0" d="M512.37,91.66h16.1v18.62h13.9v13.4h-13.9v40.74h-16.1v-40.74h-12.57v-13.4h12.57V91.66z"/>
		<circle class="st0" cx="268.07" cy="59.11" r="10.29"/>
		<path class="st0" d="M604.77,107.14c-15.81,0-28.62,12.81-28.62,28.62c0,15.81,12.81,28.62,28.62,28.62
			c15.81,0,28.62-12.81,28.62-28.62C633.39,119.95,620.58,107.14,604.77,107.14z M604.77,150.29c-8.01,0-14.53-6.52-14.53-14.53
			c0-8.01,6.52-14.53,14.53-14.53s14.53,6.52,14.53,14.53C619.3,143.77,612.78,150.29,604.77,150.29z"/>
		<path class="st0" d="M463.89,155.84l-26.86-56.81c-0.93-2.5-3.34-4.28-6.16-4.28c-2.74,0-5.08,1.67-6.07,4.05l-1.47,3.15
			l-25.19,53.79c-0.26,0.71-0.41,1.48-0.41,2.28c0,1.91,1.22,3.72,1.22,3.72c4.58,6.43,12.09,10.62,20.59,10.62
			c7.85,0,12.53-2.01,19.52-9c1.35-1.35,3.65-2.84,7.11-2.84c2.46,0,4.72,0.42,6.52,1.83c0,0,3.01,2.24,4.99,2.24
			c3.63,0,6.57-2.94,6.57-6.57C464.26,157.26,464.13,156.52,463.89,155.84z M429.99,154.29c-5.24,5.24-6.87,5.24-10.44,5.24
			c-2.84,0-5.56-0.98-7.74-2.71l19.08-40.76l14.95,31.63C439.79,147.78,434.17,150.11,429.99,154.29z"/>
	</g>
	<path class="st0" d="M702.89,22.1v187.11H21.01V22.1H702.89 M718.89,6.1H5.01v219.11h713.88V6.1L718.89,6.1z"/>
</g>
</svg>
