<?xml version="1.0" encoding="utf-8"?>
<!-- Generator: Adobe Illustrator 25.0.1, SVG Export Plug-In . SVG Version: 6.00 Build 0)  -->
<svg version="1.1" id="レイヤー_1" xmlns="http://www.w3.org/2000/svg" xmlns:xlink="http://www.w3.org/1999/xlink" x="0px"
	 y="0px" viewBox="0 0 595.3 595.3" style="enable-background:new 0 0 595.3 595.3;" xml:space="preserve">
<style type="text/css">
	.st0{fill:#A8A8A2;}
	.st1{fill:url(#SVGID_1_);}
	.st2{fill:#656561;}
	.st3{fill:#FACD30;}
	.st4{fill:#FFFFFF;}
</style>
<rect x="78.9" y="43.9" class="st0" width="438.1" height="437.4"/>
<linearGradient id="SVGID_1_" gradientUnits="userSpaceOnUse" x1="297.9699" y1="481.2756" x2="297.9699" y2="43.861">
	<stop  offset="3.995842e-07" style="stop-color:#656561;stop-opacity:0.4"/>
	<stop  offset="4.879113e-02" style="stop-color:#656561;stop-opacity:0.3805"/>
	<stop  offset="1" style="stop-color:#656561;stop-opacity:0"/>
</linearGradient>
<rect x="78.9" y="43.9" class="st1" width="438.1" height="437.4"/>
<g>
	<path class="st2" d="M31.9,539.4c0,0.2-0.1,0.5-0.5,0.5l-6.1-0.2h-1.4c2.1,3.7,4.4,7,7.1,10c-0.6,0.7-1,1.4-1.3,2.1
		c-0.2,0.5-0.3,0.6-0.5,0.6c-0.1,0-0.3-0.1-0.6-0.6c-2.2-3-4.1-6.3-5.7-10c0,5.9,0.1,12.1,0.2,18.6c0,1.5,0.1,3.3,0.1,5.5
		c0,1,0,1.6,0,1.6c0,0.2-0.1,0.5-0.5,0.5h-2.5c-0.2,0-0.5-0.1-0.5-0.5l0.1-4c0.2-7.8,0.3-14.9,0.3-21.6c-2.3,6.3-5.3,12-8.7,16.8
		c-0.2,0.3-0.5,0.6-0.6,0.6c-0.2,0-0.3-0.2-0.6-0.6c-0.3-0.8-0.8-1.6-1.4-2.1c3.8-4.4,7.1-10,10.1-16.8h-2.4l-6.1,0.1
		c-0.2,0-0.3-0.1-0.3-0.5v-2c0-0.2,0.1-0.5,0.3-0.5l6.1,0.1h3.3v-8c-2,0.6-4.1,1.1-6.7,1.6c-0.3,0-0.6,0.1-0.7,0.1
		c-0.2,0-0.6-0.2-0.8-0.8c-0.3-0.6-0.8-1.1-1.3-1.5c3-0.5,6.2-1.1,9.4-2.2c2.5-0.8,4.5-1.5,6.1-2.3c1-0.5,1.8-1,2.3-1.5
		c0.9,0.7,1.6,1.3,2.2,1.8c0.3,0.3,0.5,0.6,0.5,0.9c0,0.2-0.2,0.5-0.8,0.5c-0.5,0-1.3,0.2-2.2,0.7c-1.4,0.6-3,1.1-4.9,1.8v8.8h2.2
		l6.1-0.1c0.2,0,0.5,0.1,0.5,0.5L31.9,539.4L31.9,539.4z M56.2,564.5c0,0.1,0,0.2,0,0.2c0,0.1-0.1,0.3-0.6,0.5l-1.5,0.7
		c-0.3,0.2-0.6,0.2-0.7,0.2s-0.2-0.1-0.2-0.3l-1.8-4.7c-4.9,1-11.8,2.3-20.8,3.8c-0.9,0.1-1.5,0.3-1.8,0.7c-0.2,0.2-0.5,0.3-0.8,0.3
		c-0.2,0-0.5-0.2-0.6-0.7c-0.5-1-0.7-2.2-1-3.3c1.4,0,3-0.1,4.8-0.3c3.2-10.5,5.9-21.1,7.9-31.9c0.3-2.1,0.6-3.9,0.6-5.4
		c0-0.1,0-0.3,0-0.7c1.1,0.2,2.3,0.5,3.4,0.8c0.5,0.1,0.7,0.3,0.7,0.6s-0.1,0.6-0.2,0.8c-0.5,0.6-0.8,1.5-1,2.6
		c-2.2,11.4-4.9,22.3-8.2,32.8c5.7-0.7,11-1.6,15.7-2.6c-1.6-3.7-3.4-7.4-5.6-11.1c-0.1-0.1-0.1-0.2-0.1-0.2c0-0.1,0.1-0.2,0.5-0.5
		l1.4-0.7c0.3-0.1,0.6-0.2,0.6-0.2c0.1,0,0.1,0.1,0.2,0.2C50.7,551.4,53.7,557.6,56.2,564.5z"/>
	<path class="st2" d="M93.6,525.5c1.5,0.3,2.8,0.7,3.7,1.4c0.3,0.2,0.6,0.5,0.6,0.8c0,0.1-0.1,0.3-0.2,0.6c-0.3,0.5-0.6,1.4-0.8,2.5
		c-1.6,7.8-2.4,14.3-2.4,19.3c0,4,0.1,7,0.3,9c0.5-1.1,1.6-4,3.6-8.3c0.2,0.7,0.6,1.4,1.1,2.1c0.1,0.2,0.2,0.5,0.2,0.6
		s-0.1,0.3-0.1,0.6c-1.8,4.1-2.9,6.8-3,8c-0.1,0.7-0.1,1.1-0.1,1.5c0,0.2,0,0.6,0,0.8c0,0.1,0,0.2,0,0.2c0,0.1-0.1,0.3-0.3,0.5
		c-0.6,0.2-1.4,0.5-2.3,0.7c-0.1,0-0.1,0-0.2,0c-0.2,0-0.3-0.1-0.5-0.5c-1.3-3.3-2-8.3-2-15.1c0-4.5,0.7-11,2.2-19.5
		c0.2-1.4,0.3-2.6,0.3-3.8C93.7,526.3,93.6,525.9,93.6,525.5z M117,552.9c-0.2-4.9-0.3-9.7-0.3-14.1c-2.4,0.1-4.6,0.2-6.4,0.2
		c-1.7,0-3.3,0-4.9-0.1c-0.3,0-0.5-0.1-0.6-0.5c-0.1-0.9-0.2-1.8-0.2-2.8c2,0.1,3.9,0.2,5.9,0.2c2.1,0,4.1-0.1,6.1-0.2v-5.9
		c0-1.6-0.1-3.1-0.5-4.5c1.6,0.1,2.9,0.3,3.9,0.7c0.3,0.1,0.6,0.3,0.6,0.6s-0.1,0.5-0.2,0.7c-0.2,0.3-0.3,1.1-0.5,2.4
		c-0.1,1.1-0.1,3.1-0.1,5.6c2.5-0.2,5.3-0.6,8-1.1c0.1,0,0.2,0,0.2,0c0.1,0,0.2,0.1,0.2,0.3c0.1,0.8,0.2,1.4,0.2,2
		c0,0.3-0.1,0.6-0.3,0.6c-2.1,0.5-4.8,0.9-8.4,1.3c0,5.6,0.2,10.7,0.5,15.4c3.3,1.4,6.3,3.2,9,5.3c0.1,0.1,0.2,0.2,0.2,0.3
		s0,0.2-0.1,0.3c-0.3,0.8-0.8,1.6-1.4,2.3c-0.1,0.1-0.2,0.2-0.3,0.2s-0.2-0.1-0.3-0.1c-2.3-2-4.7-3.6-7.1-4.7
		c-0.2,4.6-3.1,6.9-8.5,6.9c-2.5,0-4.6-0.6-6-1.7c-1.3-1-2-2.4-2-4.1c0-2,0.8-3.6,2.5-4.7c1.5-0.9,3.2-1.4,5.3-1.4
		C113.6,552.3,115.3,552.5,117,552.9z M117,556c-2-0.6-3.8-0.8-5.5-0.8c-1.5,0-2.8,0.3-3.6,0.9c-0.8,0.6-1.1,1.4-1.1,2.3
		c0,1,0.5,1.8,1.5,2.3c0.8,0.5,2,0.7,3.4,0.7c3.6,0,5.4-1.5,5.4-4.4L117,556L117,556z"/>
	<path class="st2" d="M171.5,548.6c0.6,0.2,1.3,0.7,2.3,1.3c0.2,0.1,0.2,0.2,0.2,0.3s0,0.2-0.1,0.3c-0.9,1.5-1.4,2.9-1.4,4
		c0,4.1,4.4,6.2,13,6.2c5.6,0,10.6-0.5,14.6-1.5c0.1,0,0.2,0,0.3,0c0.2,0,0.3,0.1,0.5,0.5c0.1,0.6,0.3,1.5,0.5,2.6v0.1
		c0,0.2-0.2,0.5-0.7,0.6c-4.4,0.9-9.4,1.3-15.4,1.3c-5.4,0-9.5-0.9-12.2-2.6c-2.4-1.6-3.7-3.9-3.7-6.9
		C169.4,552.7,170.1,550.7,171.5,548.6z M172.9,529.6c3.4,0.8,7.7,1.1,12.8,1.1c4,0,7.7-0.1,11.3-0.5c0.1,0,0.1,0,0.1,0
		c0.3,0,0.5,0.1,0.6,0.5c0.1,0.7,0.1,1.4,0.1,2.3c0,0.5-0.2,0.7-0.7,0.8c-3.9,0.6-8.3,2.5-13.2,5.7c-0.2,0.2-0.6,0.3-0.8,0.3
		c-0.2,0-0.5-0.1-0.7-0.2c-0.7-0.5-1.4-0.8-2.1-1c2.9-2,5.9-3.7,8.7-5.1c-1.5,0.1-3.3,0.2-5.5,0.2c-4,0-7.5-0.3-10.3-0.9
		c-0.3,0-0.5-0.2-0.5-0.7C172.9,531.6,172.9,530.7,172.9,529.6z"/>
	<path class="st2" d="M247,539.4c1.5-0.1,3.4-0.6,5.7-1.4c3.1-0.9,5.2-1.6,6.4-1.8c1.6-0.3,3.2-0.6,4.7-0.6c2.9,0,5.3,1,6.9,3.1
		c1.6,2,2.5,4.8,2.5,8.3c0,4.4-1.4,8.3-4.1,11.5c-2.3,2.5-5.3,4.8-9.1,6.7c-0.5,0.2-0.8,0.3-1,0.3s-0.5-0.1-0.7-0.3
		c-0.5-0.6-1.4-1.1-2.5-1.7c4.8-2.1,8.4-4.6,10.8-7.8c2-2.5,2.9-5.5,2.9-9.1c0-3-0.8-5.2-2.3-6.4c-1-0.9-2.4-1.4-4-1.4
		s-4.1,0.6-7.5,1.8c-2.3,0.9-3.8,1.6-4.6,2.1c-0.9,0.5-1.5,0.8-1.6,0.8c-0.3,0-0.6-0.2-0.9-0.8C248.1,542,247.6,540.8,247,539.4z
		 M255.8,523.7c4.3,1.7,8.8,2.9,13.9,3.6c0.3,0,0.6,0.2,0.6,0.6c0,0.1,0,0.1,0,0.1c-0.1,0.9-0.3,1.7-0.6,2.4
		c-0.1,0.3-0.3,0.6-0.5,0.6c0,0,0,0-0.1,0c-5.3-0.9-9.9-2.2-13.9-3.7c-0.1,0-0.1-0.1-0.1-0.5c0-0.1,0-0.1,0-0.3
		C255.2,525.8,255.4,524.8,255.8,523.7z"/>
	<path class="st2" d="M331.1,523.7c1.8,0.2,3.2,0.6,4,0.9c0.3,0.1,0.5,0.3,0.5,0.6s-0.1,0.5-0.3,0.7c-0.3,0.5-0.6,1.1-0.7,2.1
		c-0.2,1.1-0.3,2.3-0.6,3.3c4.1-0.3,8.8-1,14.1-2.2c0.1,0,0.1,0,0.2,0c0.2,0,0.3,0.1,0.5,0.3c0.1,0.6,0.2,1.3,0.2,2
		c0,0.3-0.2,0.6-0.6,0.6c-5.3,1.1-10.3,1.8-14.9,2.3c-0.3,3.2-0.5,5.6-0.6,7.2c3.1-0.9,6.1-1.4,9.3-1.5c0.6-1.6,0.9-3,0.9-4.3
		c1.4,0.5,2.3,1,2.9,1.4c0.5,0.3,0.6,0.6,0.6,0.8c0,0-0.2,0.3-0.6,1c-0.1,0.2-0.2,0.5-0.5,0.8c-0.1,0.2-0.2,0.5-0.3,0.7
		c3.8,0.6,6.8,2.1,8.7,4.5c1.7,2.1,2.5,4.5,2.5,7.2c0,3.8-1.7,7-5.1,9.4c-2.5,1.7-5.7,3.1-9.7,3.9c-0.1,0-0.3,0-0.5,0
		c-0.3,0-0.6-0.2-0.8-0.6c-0.3-0.8-1-1.4-1.8-2c3.9-0.7,7.2-1.8,10-3.6c2.9-2,4.4-4.6,4.4-7.8c0-2.8-1-4.9-3-6.6
		c-1.6-1.3-3.4-2.1-5.7-2.3c-2.9,5.5-6.1,10.2-9.9,13.9c0.1,0.5,0.5,1.4,1,2.9c0,0.1,0.1,0.2,0.1,0.3s-0.1,0.3-0.3,0.5
		c-0.5,0.3-1.1,0.7-1.8,1c-0.1,0-0.2,0-0.3,0c-0.1,0-0.3-0.1-0.3-0.3c-0.3-0.8-0.7-1.6-0.9-2.4c-3.8,2.9-7,4.4-9.5,4.4
		c-1.7,0-2.9-0.6-3.7-1.7c-0.6-0.9-0.9-2.1-0.9-3.4c0-2.9,1.1-5.7,3.4-8.6c2.2-2.6,5.1-4.8,8.5-6.6c0.1-2.2,0.2-4.9,0.5-8.2
		c-2.6,0.1-4.7,0.2-6.3,0.2c-1,0-1.8,0-2.4-0.1c-0.5,0-0.7-0.2-0.7-0.7c-0.1-0.5-0.1-1.3-0.2-2.3c1.5,0.1,3.1,0.1,4.8,0.1
		c1.4,0,3.1,0,5.1-0.1c0.2-2.2,0.5-3.7,0.5-4.5c0-0.5,0-0.9,0-1.4C331.4,525,331.2,524.3,331.1,523.7z M330.1,545.6
		c-3.1,1.7-5.4,3.8-7,6.2c-1.3,2-2,3.8-2,5.6c0,1.6,0.8,2.4,2.3,2.4c2,0,4.5-1.4,7.8-4C330.6,552.3,330.2,549,330.1,545.6z
		 M333.9,553.7c1.3-1.3,2.8-3.1,4.4-5.5c1.4-2.1,2.5-3.9,3.3-5.5c-2.8,0-5.6,0.6-8.6,1.6C333.1,547.6,333.3,550.7,333.9,553.7z"/>
	<path class="st2" d="M403.5,523.7c1.4,0.3,2.6,0.7,3.6,1.3c0.5,0.2,0.7,0.5,0.7,0.8c0,0.2-0.1,0.5-0.2,0.7c-0.5,0.6-0.8,1.3-0.9,2
		c-0.9,4.4-1.4,8.3-1.5,11.7c0,0.7,0,1.3,0,1.8c0,1.6,0.1,2.9,0.2,3.9c0.5-0.8,1-2.2,2-3.9c0.9-1.7,1.5-2.9,1.8-3.4
		c0.2,0.8,0.6,1.5,1,2.1c0.1,0.2,0.2,0.5,0.2,0.7s-0.1,0.5-0.2,0.8c-1.4,2.4-2.4,4.6-3.2,6.8c-0.2,0.7-0.3,1.1-0.3,1.6
		c0,0.1,0,0.1,0,0.2c0,0.2-0.1,0.5-0.3,0.6c-0.5,0.1-1.3,0.2-2.4,0.3c-0.2,0-0.5-0.1-0.6-0.6c-0.8-2.3-1.3-5.5-1.3-9.5
		c0-2.8,0.5-6.7,1.1-12c0.3-2.3,0.5-3.8,0.5-4.8C403.6,524.3,403.6,524,403.5,523.7z M419.5,523.9c1.7,0.1,3,0.2,3.7,0.5
		c0.6,0.1,0.8,0.3,0.8,0.7c0,0.1,0,0.1,0,0.3c-0.1,0.3-0.1,0.8-0.1,1.4c0,0.3,0,0.7,0,1c0.5,5.6,0.6,10.1,0.6,13.4
		c0,7.4-1.4,13-4.1,16.8c-2.2,3-4.9,5.4-8.4,7.4c-0.2,0.1-0.5,0.2-0.6,0.2c-0.2,0-0.5-0.1-0.7-0.3c-0.8-0.7-1.7-1.1-2.5-1.4
		c4-2.2,7-4.5,8.8-7c1.6-2.1,2.6-4.4,3.3-6.9c0.6-2.3,0.9-5.2,0.9-8.5c0-3.9-0.1-7.9-0.5-12.2C420.4,527.3,420.1,525.5,419.5,523.9z
		"/>
	<path class="st2" d="M485,534c2.3-0.3,4.9-1,8.2-2.1c0.1,0,0.1,0,0.2,0c0.2,0,0.3,0.1,0.3,0.5c0.1,0.7,0.2,1.4,0.2,2.1
		c0,0.1,0,0.1,0,0.2c0,0.3-0.1,0.5-0.6,0.6c-3.4,0.9-6.6,1.6-9.2,2.1c-3.1,10.8-6.3,20.1-9.8,27.8c-0.1,0.2-0.2,0.5-0.5,0.5
		c-0.1,0-0.2,0-0.3-0.1c-0.7-0.2-1.5-0.6-2.4-1.1c-0.1-0.1-0.2-0.2-0.2-0.5c0-0.1,0-0.1,0-0.2c3.9-8.3,7.1-16.9,9.5-25.9
		c-3.3,0.3-6.7,0.6-10.3,0.6c-0.5,0-0.7-0.1-0.8-0.6c-0.1-1.1-0.3-2.1-0.3-2.8c0.7,0.1,1.7,0.1,3.2,0.1c2.9,0,5.9-0.2,9.2-0.6
		c0.6-2.3,1.1-4.5,1.5-6.4c0.2-1.6,0.5-3,0.5-4c0-0.2,0-0.6,0-0.8c1.5,0.2,2.9,0.7,4.1,1.1c0.2,0.1,0.5,0.2,0.5,0.6
		c0,0.2-0.1,0.5-0.5,0.8c-0.3,0.5-0.6,1.1-0.8,2c-0.2,0.7-0.5,1.8-0.9,3.3C485.5,532.4,485.2,533.4,485,534z M488.2,555.9
		c0.9-0.2,1.7-0.2,2.4-0.2c0.3,0,0.6,0.1,0.6,0.5c0.2,2.4,1.1,4,2.9,4.9c1.5,0.8,3.7,1.1,6.8,1.1c2.1,0,4.5-0.2,7.6-0.7
		c0.1,0,0.2,0,0.2,0c0.2,0,0.3,0.1,0.3,0.3c0.1,0.8,0.2,1.6,0.2,2.4c0,0.3-0.2,0.6-0.6,0.7c-2.1,0.3-4.4,0.5-6.7,0.5
		c-5.4,0-9.2-0.9-11.3-2.8C489,561.4,488.2,559.1,488.2,555.9z M492,544.8c-0.1-0.9-0.1-1.7-0.1-2.8c0-0.3,0.2-0.7,0.7-0.8
		c3.2-0.7,6.2-1,9-1c1.5,0,3.7,0.1,6.3,0.5c0.5,0.1,0.7,0.2,0.8,0.6c0,0.5,0.1,1,0.1,1.6c0,0.2,0,0.5,0,0.7c0,0.5-0.1,0.7-0.5,0.7
		c-0.1,0-0.1,0-0.2,0c-2.3-0.3-4.5-0.6-6.6-0.6C498.6,543.7,495.5,544,492,544.8z"/>
	<path class="st2" d="M547.7,529.3c1.5,0.1,2.9,0.6,4,1c0.3,0.1,0.5,0.3,0.5,0.6c0,0.1-0.1,0.5-0.2,0.9c-0.2,0.8-0.5,2.3-0.5,4.7
		c0,4,0.2,7.8,0.7,11.6c0.5,3.2,1.1,5.9,2.3,7.8c0.9,1.7,2,2.5,3.1,2.5c2,0,3.8-2.6,5.4-7.9c0.5,1,1,2,1.6,2.5
		c0.3,0.2,0.5,0.6,0.5,0.9c0,0.1,0,0.2,0,0.3c-0.8,2.4-2,4.4-3.3,5.9c-1.4,1.4-2.8,2.2-4.3,2.2c-2.2,0-4.1-1.5-5.7-4.5
		c-1.4-2.5-2.3-5.6-2.9-9.4c-0.6-4.4-0.9-9.1-0.9-14.1C548,532.3,547.9,530.6,547.7,529.3z M573.7,535.7c0.9-0.6,1.6-1,2.3-1.4
		c0.1-0.1,0.3-0.1,0.5-0.1c0.1,0,0.2,0,0.3,0.1c5.3,4.6,8.6,10.5,10,17.6v0.1c0,0.2-0.1,0.3-0.3,0.6c-0.7,0.5-1.5,0.9-2.3,1.1
		c-0.1,0-0.1,0-0.2,0c-0.2,0-0.5-0.1-0.5-0.5C581.9,546.2,578.8,540.2,573.7,535.7z"/>
</g>
<g>
	<ellipse class="st3" cx="434.5" cy="113.2" rx="74.6" ry="52.7"/>
	<ellipse class="st3" cx="380.7" cy="172.7" rx="20.7" ry="14.7"/>
	<ellipse class="st3" cx="348.1" cy="188.7" rx="12.8" ry="9"/>
</g>
<g>
	<path class="st4" d="M301.9,356c-2.6,0-4.8,0-7.3,0c0,0.8,0,1.5,0,2.2c0,22,0,44.1,0,66.2c0,3.5-0.8,6.8-3.8,8.9
		c-3.4,2.4-7.1,2.5-10.7,0.7c-3.5-1.7-4.8-4.9-4.8-8.6c0-22.4,0-44.7,0-67.1c0-0.7,0-1.4,0-2.3c-3.6,0-7,0-10.8,0
		c5.8-33.2,11.6-66.3,17.4-99.6c-1.5,0-3-0.1-4.4,0.1c-0.4,0-0.9,0.9-1,1.4c-2.8,16.5-5.6,33-8.5,49.5c-0.4,2.3-0.8,4.5-1.2,6.9
		c-0.8,4.7-3.5,7-7.8,6.7c-4.2-0.3-7.2-3.5-7.1-7.8c0.1-3.7,0.9-7.2,1.4-10.8c3.1-18.5,6.3-37,9.5-55.5c1.4-8.5,7.5-13.6,16.2-13.6
		c12.7,0,25.3,0,38,0c8.8,0,14.8,5,16.3,13.7c3.7,21.2,7.2,42.5,10.8,63.7c1.1,6.1-2.5,10.4-8.4,10.3c-3,0-5.4-2-6.1-5.5
		c-1.3-6.2-2.2-12.5-3.3-18.7c-2.2-12.9-4.4-26-6.6-38.9c-0.2-1-0.5-1.4-1.5-1.4c-1.1,0.1-2,0-3.3,0c5.8,33.2,11.6,66.3,17.4,99.5
		c-3.7,0-7.1,0-10.7,0c0,0.9,0,1.6,0,2.3c0,22.2,0,44.3,0,66.5c0,3.8-1.2,7.1-4.6,9.2c-7,3.9-14.7-0.7-14.7-8.7
		c0-22.3,0-44.6,0-66.9C301.9,357.6,301.9,356.9,301.9,356z"/>
	<circle class="st4" cx="297.9" cy="207.1" r="19.8"/>
</g>
</svg>
