<?xml version="1.0" encoding="utf-8"?>
<!-- Generator: Adobe Illustrator 25.0.1, SVG Export Plug-In . SVG Version: 6.00 Build 0)  -->
<svg version="1.1" id="レイヤー_1" xmlns="http://www.w3.org/2000/svg" xmlns:xlink="http://www.w3.org/1999/xlink" x="0px"
	 y="0px" viewBox="0 0 170.1 595.3" style="enable-background:new 0 0 170.1 595.3;" xml:space="preserve">
<style type="text/css">
	.st0{fill:#8F8F89;}
</style>
<path class="st0" d="M124.6,298.3l-28.4-28.4l28.3-28.3c3.4-3.4,3.4-9,0-12.4s-9-3.4-12.4,0l-28.3,28.3l-28.3-28.3
	c-3.4-3.4-9-3.4-12.4,0c-3.4,3.4-3.4,9,0,12.4l28.3,28.3L43,298.2c-3.4,3.4-3.4,9,0,12.4c1.7,1.7,4,2.6,6.2,2.6s4.5-0.9,6.2-2.6
	l28.3-28.3l28.4,28.4c1.7,1.7,4,2.6,6.2,2.6s4.5-0.9,6.2-2.6C128,307.3,128,301.7,124.6,298.3z"/>
</svg>
