<?xml version="1.0" encoding="utf-8"?>
<!-- Generator: Adobe Illustrator 25.0.1, SVG Export Plug-In . SVG Version: 6.00 Build 0)  -->
<svg version="1.1" id="レイヤー_1" xmlns="http://www.w3.org/2000/svg" xmlns:xlink="http://www.w3.org/1999/xlink" x="0px"
	 y="0px" viewBox="0 0 595.3 595.3" style="enable-background:new 0 0 595.3 595.3;" xml:space="preserve">
<style type="text/css">
	.st0{fill:#A8A8A2;}
	.st1{fill:url(#SVGID_1_);}
	.st2{fill:#656561;}
	.st3{fill:#FACD30;}
	.st4{fill:#FFFFFF;}
	.st5{fill:#E6BD2C;}
</style>
<rect x="78.5" y="43.9" class="st0" width="438.1" height="437.4"/>
<linearGradient id="SVGID_1_" gradientUnits="userSpaceOnUse" x1="297.9699" y1="481.2756" x2="297.9699" y2="43.861">
	<stop  offset="3.995842e-07" style="stop-color:#656561;stop-opacity:0.4"/>
	<stop  offset="4.879113e-02" style="stop-color:#656561;stop-opacity:0.3805"/>
	<stop  offset="1" style="stop-color:#656561;stop-opacity:0"/>
</linearGradient>
<rect x="78.9" y="43.9" class="st1" width="438.1" height="437.4"/>
<g>
	<path class="st2" d="M260.8,536.2c0,0.1-0.1,0.3-0.5,0.5c-0.3,0.1-0.7,0.6-1.1,1c-1.8,2.3-4,4.5-6.6,6.7c-0.1,1.7-0.2,3.3-0.5,4.8
		c1.7,3.4,4.6,6.7,8.5,10c-0.6,0.5-1,0.9-1.6,1.6c-0.2,0.3-0.5,0.6-0.7,0.6c-0.1,0-0.3-0.1-0.7-0.5c-2.6-2.5-4.7-5.2-6.2-8
		c-0.1,0.2-0.1,0.5-0.2,0.8c-1.1,4.6-3.7,8.8-7.4,12.6c-0.3,0.2-0.5,0.5-0.7,0.5c-0.2,0-0.3-0.2-0.6-0.5c-0.6-0.6-1.1-1-1.6-1.4
		c3.8-3.3,6.3-7.4,7.6-12c0.9-3.4,1.4-8.7,1.4-16v-3.2c0-4.5-0.1-7.5-0.3-8.8c1.1,0,2.2,0.1,3,0.2c0.5,0,0.6,0.2,0.6,0.3
		s-0.1,0.5-0.2,0.9c-0.1,0.5-0.2,2.8-0.2,7.1v3.3c0,1.8,0,3.2,0,4.1c1.8-1.7,3.3-3.6,4.4-5.2c0.3-0.6,0.7-1.3,0.9-2
		c0.9,0.6,1.7,1.1,2.3,1.7C260.7,535.8,260.8,535.9,260.8,536.2z M246.4,535.5c-0.2,4.1-0.8,7.8-1.7,10.9c-0.1,0.2-0.1,0.3-0.2,0.3
		c-0.1,0-0.2,0-0.5-0.1l-1.4-0.6c-0.3-0.1-0.5-0.2-0.5-0.3s0-0.1,0-0.2c0.9-2.9,1.5-6.2,1.7-10.2c0-0.2,0.1-0.5,0.2-0.5
		c0.1,0,0.1,0,0.2,0l1.5,0.2C246.2,535.1,246.4,535.2,246.4,535.5z M284.9,531.1c0,0.2-0.1,0.3-0.3,0.3l-6.4-0.1h-1.6v24.5l0.1,6.6
		c0,1.1-0.1,2.1-0.3,2.5c-0.2,0.5-0.5,0.9-1,1.3c-0.5,0.3-1.3,0.6-2.3,0.8c-0.9,0.1-2.3,0.1-4.4,0.1c-0.5,0-0.8,0-0.9-0.1
		c-0.1-0.1-0.2-0.3-0.3-0.8c-0.2-0.9-0.6-1.7-0.9-2.3c1.5,0.1,3,0.2,4.5,0.2c1,0,1.7-0.2,2.1-0.6c0.3-0.3,0.5-0.9,0.5-1.8v-30.2h-7
		l-6.4,0.1c-0.2,0-0.3-0.1-0.3-0.3V529c0-0.2,0.1-0.3,0.3-0.3l6.4,0.1h11.7l6.4-0.1c0.2,0,0.3,0.1,0.3,0.3L284.9,531.1L284.9,531.1z
		"/>
	<path class="st2" d="M353.7,542.7c0.1,0.1,0.1,0.2,0.1,0.3s-0.1,0.2-0.5,0.6l-1.4,0.9c-0.3,0.2-0.5,0.3-0.6,0.3s-0.2-0.1-0.3-0.2
		c-0.9-1.3-2-2.6-3-3.9c-10.1,1.3-19.9,2.2-29.4,2.6c-1.3,0.1-2.1,0.2-2.3,0.3c-0.3,0.2-0.6,0.2-0.8,0.2c-0.2,0-0.5-0.2-0.6-0.6
		c-0.2-0.9-0.5-2-0.7-3.2c1,0,2.1,0.1,3.1,0.1c0.7,0,1.3,0,1.8,0l3.4-0.1c2.1-3.6,4.1-7.7,6.2-12.6c0.5-1.1,0.7-2.3,0.8-3.2
		c1.4,0.2,2.4,0.6,3.1,0.8c0.5,0.2,0.7,0.5,0.7,0.7s-0.1,0.5-0.3,0.7c-0.3,0.3-0.8,1-1.3,2.1c-2.3,4.9-4.3,8.7-5.9,11.5
		c7-0.5,13.8-0.9,20.1-1.6c-2-2.1-4-4-6.2-5.9c-0.1-0.1-0.2-0.2-0.2-0.2c0-0.1,0.1-0.2,0.5-0.5l0.9-1c0.2-0.2,0.5-0.3,0.6-0.3
		s0.2,0.1,0.3,0.1C346.2,534.2,350.1,538.2,353.7,542.7z M348.1,567c0,0.2-0.1,0.3-0.5,0.3h-2.3c-0.2,0-0.3-0.1-0.3-0.3v-2.3h-21.7
		v2.4c0,0.2-0.1,0.3-0.3,0.3h-2.3c-0.2,0-0.3-0.1-0.3-0.3l0.1-8.6v-4.3l-0.1-5.7c0-0.2,0.1-0.3,0.3-0.3l6.7,0.1h13.8l6.7-0.1
		c0.2,0,0.5,0.1,0.5,0.3l-0.1,5.1v4.7V567z M345,561.9V551h-21.7v10.9H345z"/>
</g>
<polygon class="st3" points="289.2,163.3 78.3,133.5 78.3,193.1 "/>
<g>
	<path class="st4" d="M325.8,174.6c2.2,0.3,4.1,0.7,6.2,1c0,4.9,0,9.4,0,14.5c-2.4,0.2-4.7,0.6-8,0.9c0.5,6.4,0.8,12.6,1.3,19.3
		c-18.2,0-36,0-54.1,0c0-6.1,0-12.2,0-18.8c-2.3-0.5-4.8-1-7.7-1.6c0-4.6,0-9.1,0-14c2-0.5,3.9-0.9,6.1-1.4c0-11.4,0-22.5,0-34.2
		c-7,0.2-6.9-4.7-6.6-10c-2.6-0.3-4.9-0.6-8.6-1c11.7-8.8,22.3-17.2,33.4-25.1c5.5-3.9,9-8,7.8-15.2c-0.2-1.6,0.3-3.4,0.6-5.2
		c0.8-0.2,1.5-0.5,2.3-0.6c0.7,2.4,2.2,5.1,2,7.4c-0.6,6,1.7,9.5,6.6,13c11.4,7.9,22.2,16.5,34.6,25.9c-3.9,0.2-6.1,0.3-8.8,0.5
		c-0.2,3-0.5,5.9-0.7,9.1c-2,0.5-3.9,0.8-6.2,1.4C325.8,151.4,325.8,162.6,325.8,174.6z"/>
	<path class="st4" d="M325.8,174.6c0-12.1,0-23.2,0-34.4c2.3-0.5,4.3-0.9,6.2-1.4c0.2-3.2,0.5-6.1,0.7-9.1c2.8-0.1,4.8-0.2,8.8-0.5
		c-12.4-9.4-23.2-17.9-34.6-25.9c-4.8-3.4-7.1-7-6.6-13c0.2-2.4-1.3-4.9-2-7.4c-0.8,0.2-1.5,0.5-2.3,0.6c-0.2,1.7-0.9,3.6-0.6,5.2
		c1.3,7.1-2.2,11.3-7.8,15.2c-11.1,7.8-21.8,16.3-33.4,25.1c3.6,0.5,6,0.7,8.6,1c-0.3,5.4-0.5,10.3,6.6,10c0,11.6,0,22.9,0,34.2
		c-2.2,0.5-4,0.9-6.1,1.4c0,4.8,0,9.4,0,14c2.9,0.6,5.5,1.1,7.7,1.6c0,6.7,0,12.8,0,18.8c18.2,0,36,0,54.1,0
		c-0.5-6.6-0.8-12.9-1.3-19.3c3.3-0.3,5.7-0.7,8-0.9c0-4.9,0-9.5,0-14.5C330,175.3,328,175,325.8,174.6z M191.4,429.7
		c-11.8,8.8-24.1,13.4-38.5,11.6c8.6,4.3,17.7,4.7,26.1,1.4c8-3.2,14-2.8,21.7,2.1c14.4,9.1,29.4,4.6,43.9-1.8c2.1-0.9,5.1-2,6.7-1
		c15.5,8,30.8,6.3,46.3-0.1c2.2-0.9,5.4-0.7,7.6,0.1c13.9,5.5,27.6,5.4,41.4-0.2c2.5-1,6.2-1,8.8,0c13.6,5.6,26.8,5.2,39.7-1.5
		c3.9-2.1,6.6-2.1,10.7-0.3c12.3,5.3,24.7,5.2,36.8-1.3c-14.4,4.3-27.5,1.8-39.7-6.9c-1.3-0.9-3.9-0.8-5.4,0
		c-14.6,7.6-28.8,7.6-42.9-1.4c-1.6-1-4.6-1.4-6.1-0.6c-16.1,8.6-31.6,7.7-46.5-2.2c-2.4,1-4.5,2-6.6,3c-14.6,7-29.1,8.7-43.8-0.5
		c-1.6-0.9-5.2,0-7.1,1.1C226.6,442.1,209.1,446,191.4,429.7z M151.4,416.6c10.7,4.6,21.5,4.7,31.9,0.3c5.1-2.1,8.8-2.6,13.4,1.3
		c3.1,2.8,7.6,4.3,11.6,5.5c12.1,3.7,23.4,0.3,34.5-4.5c2.6-1.1,6.6-2.5,8.7-1.5c15.6,7.7,30.9,6,46.3-0.5c2-0.8,4.9-0.7,6.9,0.1
		c13.8,5.6,27.5,5.3,41.4,0c2.8-1,6.7-1,9.4,0.1c13.6,5.4,26.9,4.9,39.7-2c3.7-2,6.4-1.8,10-0.2c13,5.7,25.7,5.5,38.3-1.7
		c-13.2,4.6-25.9,3.4-37.4-4.3c-4.5-3-7.8-2.6-12.3-0.6c-13.1,6.2-26.2,5.7-38.4-2.5c-3.4-2.3-5.7-2-9.1-0.2
		c-12.9,6.6-26,6.9-38.8,0.1c-4.4-2.3-7.6-2.4-12-0.3c-13.6,6.8-27.5,9.2-41.3,0.9c-4.1-2.4-6.9-2.1-10.9,0.5
		c-16.1,9.9-32.4,13.7-49.2,0.8c-1.4-1-4.9-0.9-6.6,0C176.4,415.1,164.8,419.8,151.4,416.6z M337.9,354.7c-0.6-5.9-1.6-11-1.4-16.2
		c0.3-5.7-2.2-7-7.2-6.9c-16.2,0.2-32.5,0-48.7,0.1c-6.6,0-15.6-2.1-19.2,1.4c-3.8,3.8-2.6,12.8-3.6,19.4c-0.1,0.6,0.2,1.3,0.3,2.3
		C284.6,354.7,310.8,354.7,337.9,354.7z M262,306.5c24.4,0,47.8,0,71.6,0c-0.5-5.9-1.3-11.3-1.1-16.8c0-4.9-2.1-6.2-6.6-6.1
		c-18.5,0.1-37.1,0.1-55.6,0.1c-2,0-4,0.3-6.4,0.5C263.2,291.8,262.6,298.8,262,306.5z M256.5,380.6c-5.3,15.7-1.7,19.9,15.4,20.9
		c7.8,0.5,16.3-3.6,24-6.7c4.9-2,8.4-2.5,13,0.7c10.5,7.2,21.6,7.2,32.8,1.8c-0.6-6-1.1-11.4-1.6-16.8
		C311.7,380.6,284,380.6,256.5,380.6z M327.7,236.2c-20.2,0-39.8,0-59.8,0c-0.6,7.6-1,14.6-1.5,22.1c21.5,0,42.2,0,63.1,0
		C328.8,250.7,328.2,243.7,327.7,236.2z"/>
	<path class="st4" d="M151.4,416.6c13.6,3.2,25.2-1.5,36.4-8.4c1.6-1,5.2-1.1,6.6,0c16.7,12.9,33.1,9.1,49.2-0.8
		c4-2.5,6.8-2.9,10.9-0.5c13.8,8.3,27.7,5.7,41.3-0.9c4.4-2.2,7.6-2.1,12,0.3c12.8,6.8,26,6.4,38.8-0.1c3.3-1.7,5.7-2.1,9.1,0.2
		c12.2,8.2,25.3,8.7,38.4,2.5c4.6-2.2,7.8-2.5,12.3,0.6c11.5,7.7,24.2,8.8,37.4,4.3c-12.4,7.4-25.3,7.5-38.3,1.7
		c-3.7-1.6-6.4-1.7-10,0.2c-12.8,6.9-26.1,7.4-39.7,2c-2.8-1.1-6.7-1.1-9.4-0.1c-13.9,5.3-27.6,5.6-41.4,0c-2.1-0.8-4.9-1-6.9-0.1
		c-15.4,6.4-30.7,8.2-46.3,0.5c-2.2-1-6.1,0.3-8.7,1.5c-11.1,4.8-22.4,8.3-34.5,4.5c-4.1-1.3-8.5-2.9-11.6-5.5
		c-4.6-3.9-8.4-3.3-13.4-1.3C172.9,421.3,162.1,421.2,151.4,416.6z"/>
	<path class="st4" d="M337.9,354.7c-27.1,0-53.3,0-79.6,0c-0.1-1-0.5-1.6-0.3-2.3c0.9-6.7-0.3-15.6,3.6-19.4
		c3.6-3.4,12.5-1.4,19.2-1.4c16.2-0.1,32.5,0.1,48.7-0.1c5.1,0,7.5,1.1,7.2,6.9C336.3,343.7,337.4,348.9,337.9,354.7z"/>
	<path class="st4" d="M262,306.5c0.6-7.7,1.1-14.7,1.8-22.2c2.4-0.2,4.5-0.5,6.4-0.5c18.5,0,37.1,0,55.6-0.1c4.5,0,6.6,1.3,6.6,6.1
		c0,5.4,0.7,10.9,1.1,16.8C309.9,306.5,286.4,306.5,262,306.5z"/>
	<path class="st4" d="M256.5,380.6c27.6,0,55.2,0,83.4,0c0.6,5.4,1,10.8,1.6,16.8c-11.1,5.5-22.3,5.4-32.8-1.8
		c-4.7-3.2-8-2.8-13-0.7c-7.7,3.1-16.1,7.1-24,6.7C254.8,400.5,251.2,396.3,256.5,380.6z"/>
	<path class="st4" d="M327.7,236.2c0.7,7.5,1.3,14.5,1.8,22.1c-21,0-41.6,0-63.1,0c0.6-7.5,1-14.4,1.5-22.1
		C287.9,236.2,307.4,236.2,327.7,236.2z"/>
</g>
<path class="st0" d="M288.3,175.1c-4.5,0-7.6,0-11.3,0c0-11.6,0-22.9,0-35.2c12.6,0,25.1-0.1,37.6,0.2c1.1,0,3.1,3.1,3.1,4.8
	c0.3,8.4,0,16.9,0.2,25.4c0.1,5.3-3.1,5.1-6.8,5.1c-3.8,0.1-6.1-0.8-5.7-5.3c0.3-3.9,0-7.8,0.1-11.6c0-5.4-2.5-8.7-8-9.1
	c-6-0.3-8.7,3.4-9.1,9C288.1,163.7,288.3,169.1,288.3,175.1z"/>
<rect x="-503.2" y="117.3" class="st0" width="381.2" height="380.6"/>
<circle class="st5" cx="-312.1" cy="307.6" r="190.1"/>
<path class="st0" d="M-312.1,117.1c-56.9,0-107.9,25-142.7,64.6l145.8,33.9l-179.3,20.1c-8.9,22.1-13.9,46.2-13.9,71.5
	c0,105,85.1,190.1,190.1,190.1S-122,412.2-122,307.2S-207.1,117.1-312.1,117.1z"/>
<g>
	<path class="st4" d="M-286.5,231.1c1.9,0.3,3.6,0.6,5.4,0.9c0,4.3,0,8.2,0,12.6c-2.1,0.2-4.1,0.5-7,0.8c0.4,5.6,0.7,11,1.1,16.8
		c-15.8,0-31.3,0-47.1,0c0-5.3,0-10.6,0-16.4c-2-0.4-4.2-0.9-6.7-1.4c0-4,0-7.9,0-12.2c1.7-0.4,3.4-0.8,5.3-1.2c0-9.9,0-19.6,0-29.8
		c-6.1,0.2-6-4.1-5.7-8.7c-2.3-0.3-4.3-0.5-7.5-0.9c10.2-7.7,19.4-15,29.1-21.8c4.8-3.4,7.8-7,6.8-13.2c-0.2-1.4,0.3-3,0.5-4.5
		c0.7-0.2,1.3-0.4,2-0.5c0.6,2.1,1.9,4.4,1.7,6.4c-0.5,5.2,1.5,8.3,5.7,11.3c9.9,6.9,19.3,14.4,30.1,22.5c-3.4,0.2-5.3,0.3-7.7,0.4
		c-0.2,2.6-0.4,5.1-0.6,7.9c-1.7,0.4-3.4,0.7-5.4,1.2C-286.5,210.9-286.5,220.6-286.5,231.1z"/>
	<path class="st4" d="M-286.5,231.1c0-10.5,0-20.2,0-29.9c2-0.4,3.7-0.8,5.4-1.2c0.2-2.8,0.4-5.3,0.6-7.9c2.4-0.1,4.2-0.2,7.7-0.4
		c-10.8-8.2-20.2-15.6-30.1-22.5c-4.2-3-6.2-6.1-5.7-11.3c0.2-2.1-1.1-4.3-1.7-6.4c-0.7,0.2-1.3,0.4-2,0.5c-0.2,1.5-0.8,3.1-0.5,4.5
		c1.1,6.2-1.9,9.8-6.8,13.2c-9.7,6.8-19,14.2-29.1,21.8c3.1,0.4,5.2,0.6,7.5,0.9c-0.3,4.7-0.4,9,5.7,8.7c0,10.1,0,19.9,0,29.8
		c-1.9,0.4-3.5,0.8-5.3,1.2c0,4.2,0,8.2,0,12.2c2.5,0.5,4.8,1,6.7,1.4c0,5.8,0,11.1,0,16.4c15.8,0,31.3,0,47.1,0
		c-0.4-5.7-0.7-11.2-1.1-16.8c2.9-0.3,5-0.6,7-0.8c0-4.3,0-8.3,0-12.6C-282.9,231.7-284.6,231.4-286.5,231.1z M-403.5,453
		c-10.3,7.7-21,11.7-33.5,10.1c7.5,3.7,15.4,4.1,22.7,1.2c7-2.8,12.2-2.4,18.9,1.8c12.5,7.9,25.6,4,38.2-1.6
		c1.8-0.8,4.4-1.7,5.8-0.9c13.5,7,26.8,5.5,40.3-0.1c1.9-0.8,4.7-0.6,6.6,0.1c12.1,4.8,24,4.7,36-0.2c2.2-0.9,5.4-0.9,7.7,0
		c11.8,4.9,23.3,4.5,34.5-1.3c3.4-1.8,5.7-1.8,9.3-0.3c10.7,4.6,21.5,4.5,32-1.1c-12.5,3.7-23.9,1.6-34.5-6c-1.1-0.8-3.4-0.7-4.7,0
		c-12.7,6.6-25.1,6.6-37.3-1.2c-1.4-0.9-4-1.2-5.3-0.5c-14,7.5-27.5,6.7-40.5-1.9c-2.1,0.9-3.9,1.7-5.7,2.6
		c-12.7,6.1-25.3,7.6-38.1-0.4c-1.4-0.8-4.5,0-6.2,1C-372.8,463.8-388.1,467.2-403.5,453z M-438.3,441.6c9.3,4,18.7,4.1,27.8,0.3
		c4.4-1.8,7.7-2.3,11.7,1.1c2.7,2.4,6.6,3.7,10.1,4.8c10.5,3.2,20.4,0.3,30-3.9c2.3-1,5.7-2.2,7.6-1.3c13.6,6.7,26.9,5.2,40.3-0.4
		c1.7-0.7,4.3-0.6,6,0.1c12,4.9,23.9,4.6,36,0c2.4-0.9,5.8-0.9,8.2,0.1c11.8,4.7,23.4,4.3,34.5-1.7c3.2-1.7,5.6-1.6,8.7-0.2
		c11.3,5,22.4,4.8,33.3-1.5c-11.5,4-22.5,3-32.5-3.7c-3.9-2.6-6.8-2.3-10.7-0.5c-11.4,5.4-22.8,5-33.4-2.2c-3-2-5-1.7-7.9-0.2
		c-11.2,5.7-22.6,6-33.8,0.1c-3.8-2-6.6-2.1-10.4-0.3c-11.8,5.9-23.9,8-35.9,0.8c-3.6-2.1-6-1.8-9.5,0.4c-14,8.6-28.2,11.9-42.8,0.7
		c-1.2-0.9-4.3-0.8-5.7,0C-416.5,440.3-426.6,444.4-438.3,441.6z M-276,387.8c-0.5-5.1-1.4-9.6-1.2-14.1c0.3-5-1.9-6.1-6.3-6
		c-14.1,0.2-28.3,0-42.4,0.1c-5.7,0-13.6-1.8-16.7,1.2c-3.3,3.3-2.3,11.1-3.1,16.9c-0.1,0.5,0.2,1.1,0.3,2
		C-322.4,387.8-299.6,387.8-276,387.8z M-342,345.8c21.2,0,41.6,0,62.3,0c-0.4-5.1-1.1-9.8-1-14.6c0-4.3-1.8-5.4-5.7-5.3
		c-16.1,0.1-32.3,0.1-48.4,0.1c-1.7,0-3.5,0.3-5.6,0.4C-341,333-341.5,339.1-342,345.8z M-346.8,410.3c-4.6,13.7-1.5,17.3,13.4,18.2
		c6.8,0.4,14.2-3.1,20.9-5.8c4.3-1.7,7.3-2.2,11.3,0.6c9.1,6.3,18.8,6.3,28.5,1.6c-0.5-5.2-1-9.9-1.4-14.6
		C-298.8,410.3-322.9,410.3-346.8,410.3z M-284.9,284.7c-17.6,0-34.6,0-52,0c-0.5,6.6-0.9,12.7-1.3,19.2c18.7,0,36.7,0,54.9,0
		C-283.9,297.3-284.4,291.2-284.9,284.7z"/>
	<path class="st4" d="M-438.3,441.6c11.8,2.8,21.9-1.3,31.7-7.3c1.4-0.9,4.5-1,5.7,0c14.5,11.2,28.8,7.9,42.8-0.7
		c3.5-2.2,5.9-2.5,9.5-0.4c12,7.2,24.1,5,35.9-0.8c3.8-1.9,6.6-1.8,10.4,0.3c11.1,5.9,22.6,5.6,33.8-0.1c2.9-1.5,5-1.8,7.9,0.2
		c10.6,7.1,22,7.6,33.4,2.2c4-1.9,6.8-2.2,10.7,0.5c10,6.7,21.1,7.7,32.5,3.7c-10.8,6.4-22,6.5-33.3,1.5c-3.2-1.4-5.6-1.5-8.7,0.2
		c-11.1,6-22.7,6.4-34.5,1.7c-2.4-1-5.8-1-8.2-0.1c-12.1,4.6-24,4.9-36,0c-1.8-0.7-4.3-0.9-6-0.1c-13.4,5.6-26.7,7.1-40.3,0.4
		c-1.9-0.9-5.3,0.3-7.6,1.3c-9.7,4.2-19.5,7.2-30,3.9c-3.6-1.1-7.4-2.5-10.1-4.8c-4-3.4-7.3-2.9-11.7-1.1
		C-419.6,445.7-429,445.6-438.3,441.6z"/>
	<path class="st4" d="M-276,387.8c-23.6,0-46.4,0-69.3,0c-0.1-0.9-0.4-1.4-0.3-2c0.8-5.8-0.3-13.6,3.1-16.9c3.1-3,10.9-1.2,16.7-1.2
		c14.1-0.1,28.3,0.1,42.4-0.1c4.4,0,6.5,1,6.3,6C-277.4,378.2-276.4,382.7-276,387.8z"/>
	<path class="st4" d="M-342,345.8c0.5-6.7,1-12.8,1.6-19.3c2.1-0.2,3.9-0.4,5.6-0.4c16.1,0,32.3,0,48.4-0.1c3.9,0,5.7,1.1,5.7,5.3
		c0,4.7,0.6,9.5,1,14.6C-300.4,345.8-320.8,345.8-342,345.8z"/>
	<path class="st4" d="M-346.8,410.3c24,0,48,0,72.6,0c0.5,4.7,0.9,9.4,1.4,14.6c-9.7,4.8-19.4,4.7-28.5-1.6c-4.1-2.8-7-2.4-11.3-0.6
		c-6.7,2.7-14,6.2-20.9,5.8C-348.3,427.6-351.4,424-346.8,410.3z"/>
	<path class="st4" d="M-284.9,284.7c0.6,6.5,1.1,12.6,1.6,19.2c-18.3,0-36.2,0-54.9,0c0.5-6.5,0.9-12.5,1.3-19.2
		C-319.5,284.7-302.5,284.7-284.9,284.7z"/>
</g>
<path class="st0" d="M-318.8,231.5c-3.9,0-6.6,0-9.8,0c0-10.1,0-19.9,0-30.6c11,0,21.8-0.1,32.7,0.2c1,0,2.7,2.7,2.7,4.2
	c0.3,7.3,0,14.7,0.2,22.1c0.1,4.6-2.7,4.4-5.9,4.4c-3.3,0.1-5.3-0.7-5-4.6c0.3-3.4,0-6.8,0.1-10.1c0-4.7-2.2-7.6-7-7.9
	c-5.2-0.3-7.6,3-7.9,7.8C-319,221.6-318.8,226.3-318.8,231.5z"/>
<polygon class="st5" points="-328.6,212.2 -502.2,186.3 -502.2,238.1 "/>
</svg>
