<?xml version="1.0" encoding="utf-8"?>
<!-- Generator: Adobe Illustrator 25.0.1, SVG Export Plug-In . SVG Version: 6.00 Build 0)  -->
<svg version="1.1" id="レイヤー_1" xmlns="http://www.w3.org/2000/svg" xmlns:xlink="http://www.w3.org/1999/xlink" x="0px"
	 y="0px" viewBox="0 0 870 535.4" style="enable-background:new 0 0 870 535.4;" xml:space="preserve">
<style type="text/css">
	.st0{fill:#727171;}
	.st1{fill:#FFFFFF;}
</style>
<rect x="434" y="32.4" class="st0" width="1" height="101.4"/>
<rect x="365.7" y="228.6" class="st0" width="1" height="230.4"/>
<rect x="269.5" y="228.6" class="st0" width="1" height="230.4"/>
<polygon class="st0" points="459.4,458.9 458.4,458.9 458.4,229.1 181,229.1 181,262.8 180,262.8 180,228.1 459.4,228.1 "/>
<polygon class="st0" points="685.9,262.8 684.9,262.8 684.9,134.3 323.9,134.3 323.9,228.2 322.9,228.2 322.9,133.3 685.9,133.3 "/>
<rect x="570" y="132.6" class="st0" width="1" height="266.1"/>
<polygon class="st0" points="571,459.4 180,459.4 180,292.4 181,292.4 181,458.4 570,458.4 570,426.6 571,426.6 "/>
<g>
	<g>
		<path class="st1" d="M451.7,35.5h-34.9c-6.3,0-11.5-5.1-11.5-11.5v-5c0-6.3,5.1-11.4,11.5-11.4h34.9c6.3,0,11.5,5.1,11.5,11.4v5
			C463.1,30.4,458,35.5,451.7,35.5z"/>
		<path class="st0" d="M451.7,36h-34.9c-6.6,0-12-5.4-12-12v-5c0-6.6,5.4-11.9,12-11.9h34.9c6.6,0,12,5.4,12,11.9v5
			C463.6,30.6,458.3,36,451.7,36z M416.8,8c-6,0-11,4.9-11,10.9v5c0,6,4.9,11,11,11h34.9c6,0,11-4.9,11-11v-5c0-6-4.9-10.9-11-10.9
			C451.7,8,416.8,8,416.8,8z"/>
	</g>
	<g>
		<path d="M420.5,18.4c0.1,0,0.2,0.1,0.3,0.1c0,0,0.1,0,0.1,0.1c0,0,0,0,0,0.1c0,0-0.1,0.2-0.1,0.4c-0.2,1.3-0.4,2.3-0.4,3
			c0,0.6,0,1.1,0.1,1.6c0.1-0.2,0.2-0.4,0.3-0.7c0.1-0.3,0.2-0.5,0.3-0.7c0,0,0.1,0.1,0.1,0.2c0,0,0,0,0,0.1c0,0,0,0,0,0.1
			c-0.3,0.7-0.5,1.1-0.5,1.3c0,0.1,0,0.1,0,0.2c0,0,0,0.1,0,0.1s0,0,0,0.1c0,0,0,0,0,0c0,0-0.1,0.1-0.2,0.1c0,0,0,0,0,0c0,0,0,0,0,0
			c-0.1-0.3-0.2-0.8-0.3-1.3c0-0.2,0-0.5,0-1c0-0.6,0.1-1.6,0.4-3c0-0.2,0-0.4,0-0.5C420.5,18.6,420.5,18.5,420.5,18.4z M424.1,22.8
			c0-1.1-0.1-1.9-0.1-2.5c-0.4,0-0.8,0-1.1,0c-0.3,0-0.5,0-0.8,0c0,0,0,0,0,0c0-0.1,0-0.2,0-0.2c0.3,0,0.5,0,0.8,0
			c0.3,0,0.7,0,1.1-0.1c0-0.4,0-0.8,0-1c0-0.3,0-0.5-0.1-0.7c0.1,0,0.3,0.1,0.4,0.1c0,0,0,0,0,0.1c0,0,0,0,0,0.1c0,0,0,0.2,0,0.5
			c0,0.2,0,0.5,0,0.9c0.4,0,0.9-0.1,1.4-0.2c0,0,0,0,0,0c0,0,0,0,0,0c0,0,0,0.1,0,0.2c0,0,0,0.1,0,0.1c-0.4,0.1-0.9,0.2-1.4,0.2
			c0,0.9,0,1.7,0.1,2.6c0.6,0.2,1,0.5,1.5,0.9c0,0,0,0,0,0s0,0,0,0c0,0.1-0.1,0.1-0.1,0.2c0,0,0,0,0,0s0,0,0,0
			c-0.5-0.4-0.9-0.6-1.3-0.8c0,0.4-0.1,0.7-0.4,0.9c-0.2,0.2-0.5,0.2-0.9,0.2c-0.4,0-0.6-0.1-0.8-0.2c-0.2-0.1-0.3-0.3-0.3-0.5
			c0-0.3,0.1-0.5,0.4-0.6c0.2-0.1,0.4-0.2,0.7-0.2C423.5,22.7,423.8,22.7,424.1,22.8z M424.1,23c-0.4-0.1-0.7-0.1-1-0.1
			c-0.3,0-0.5,0.1-0.6,0.2c-0.1,0.1-0.2,0.2-0.2,0.4c0,0.2,0.1,0.3,0.3,0.4c0.2,0.1,0.4,0.1,0.6,0.1c0.7,0,1-0.3,1-0.8L424.1,23
			L424.1,23z"/>
		<path d="M429.5,18.3c0.2,0,0.3,0.1,0.4,0.1c0,0,0.1,0.1,0.1,0.1c0,0,0,0.1,0,0.2c0,0.1,0,0.3-0.1,0.7c-0.1,1.5-0.1,2.6-0.1,3.4
			c0,0.5,0.1,0.9,0.3,1.1c0.2,0.2,0.4,0.3,0.8,0.3c1,0,2-0.5,2.9-1.6c0,0.1,0,0.2,0.1,0.3c0,0,0,0,0,0c0,0,0,0,0,0.1
			c-1,1-2,1.5-3.1,1.5c-0.9,0-1.3-0.5-1.3-1.6c0-0.4,0-1,0-1.8c0-0.9,0.1-1.5,0.1-1.7c0-0.2,0-0.4,0-0.5
			C429.6,18.6,429.5,18.4,429.5,18.3z M432.3,19l0.2-0.1c0,0,0,0,0,0s0,0,0,0c0.3,0.2,0.5,0.5,0.8,0.9c0,0,0,0,0,0c0,0,0,0,0,0
			l-0.1,0.1c0,0,0,0,0,0s0,0,0,0C432.9,19.6,432.6,19.3,432.3,19z M432.9,18.6l0.1-0.1c0,0,0,0,0,0s0,0,0,0c0.4,0.3,0.6,0.6,0.8,0.9
			c0,0,0,0,0,0c0,0,0,0,0,0l-0.1,0.1c0,0,0,0,0,0c0,0,0,0,0,0C433.5,19.2,433.2,18.9,432.9,18.6z"/>
		<path d="M439.3,22.9c0-0.6,0-1.1,0-1.5c-0.3,0-0.6,0-0.9,0c-0.4,0-0.7,0-1,0c0,0,0,0-0.1-0.1c0,0,0-0.1,0-0.2
			c0.4,0,0.8,0.1,1.2,0.1c0.3,0,0.5,0,0.8,0c0-0.3,0-0.8,0-1.4c-0.3,0-0.6,0-0.9,0c-0.5,0-0.9,0-1.4-0.1c0,0,0,0,0-0.1
			c0-0.1,0-0.1,0-0.2c0.5,0,0.9,0.1,1.4,0.1c0.3,0,0.6,0,0.9,0v-0.9c0-0.2,0-0.4,0-0.5c0.2,0,0.3,0,0.4,0.1c0,0,0.1,0,0.1,0.1
			c0,0,0,0,0,0c0,0-0.1,0.2-0.1,0.4c0,0.3,0,0.6,0,0.8c0.6,0,1.3-0.1,2.1-0.3c0,0,0,0,0,0c0,0,0,0,0,0c0,0.1,0,0.2,0,0.2
			c0,0,0,0,0,0c-0.7,0.1-1.4,0.2-2.1,0.2c0,0.6,0,1.1,0,1.4c0.7,0,1.3-0.1,1.9-0.2c0,0,0,0,0,0c0,0,0,0,0,0v0.2c0,0,0,0,0,0
			c-0.6,0.1-1.2,0.2-1.9,0.2c0,0.3,0,0.8,0,1.6c0.6,0.2,1.3,0.5,2.1,1.1c0,0,0,0,0,0.1c0,0,0,0,0,0c0,0-0.1,0.1-0.1,0.2c0,0,0,0,0,0
			s0,0,0,0c-0.7-0.5-1.4-0.9-2-1.1c0,0.5-0.1,0.8-0.4,1c-0.2,0.2-0.5,0.2-0.9,0.2c-0.8,0-1.3-0.3-1.3-0.8c0-0.2,0.1-0.5,0.4-0.6
			c0.2-0.1,0.6-0.2,1-0.2C438.6,22.9,438.9,22.9,439.3,22.9z M439.3,23.2c-0.4-0.1-0.7-0.1-0.9-0.1c-0.4,0-0.6,0.1-0.9,0.2
			c-0.2,0.1-0.2,0.2-0.2,0.4c0,0.4,0.3,0.6,1,0.6c0.4,0,0.7-0.1,0.9-0.3c0.1-0.1,0.2-0.4,0.2-0.6C439.4,23.3,439.3,23.3,439.3,23.2z
			"/>
		<path d="M446.3,18.3c0.1,0,0.2,0.1,0.3,0.1c0,0,0.1,0.1,0.1,0.1s0,0,0,0.1c0,0-0.1,0.2-0.1,0.3c-0.2,0.9-0.3,1.6-0.3,2.1
			c0,0.4,0,0.7,0.1,0.9c0.1-0.2,0.3-0.7,0.6-1.2c0,0.1,0.1,0.1,0.1,0.2c0,0,0,0,0,0.1s0,0,0,0.1c-0.2,0.3-0.4,0.6-0.5,1.1
			c0,0.1-0.1,0.2-0.1,0.2c0,0,0,0,0,0c0,0,0,0,0,0c0,0,0,0,0,0.1c0,0-0.1,0-0.2,0c0,0,0,0-0.1-0.1c-0.1-0.3-0.2-0.8-0.2-1.4
			c0-0.4,0.1-1,0.2-1.8c0.1-0.3,0.1-0.5,0.1-0.7C446.3,18.4,446.3,18.3,446.3,18.3z M448.8,18.3c0.1,0,0.2,0,0.3,0
			c0.1,0,0.1,0,0.1,0.1c0,0,0,0,0,0c0,0,0,0.1,0,0.2c0,0,0,0.1,0,0.2c0,0.9,0.1,1.7,0.1,2.1c0,1.1-0.2,1.9-0.7,2.5
			c-0.3,0.4-0.8,0.8-1.3,1.1c0,0,0,0-0.1,0s0,0-0.1,0c-0.1,0-0.1-0.1-0.2-0.1c0.6-0.3,1.1-0.7,1.4-1.1c0.4-0.6,0.6-1.4,0.6-2.3
			c0-0.5,0-1.1-0.1-1.9C448.9,18.8,448.8,18.5,448.8,18.3z"/>
	</g>
</g>
<g>
	<g>
		<rect x="139.9" y="264.8" class="st1" width="81.3" height="28"/>
		<path class="st0" d="M221.7,293.2h-82.3v-29h82.3V293.2z M140.4,292.2h80.3v-27h-80.3V292.2z"/>
	</g>
	<g>
		<g>
			<path d="M168.3,278.6c0.9-0.9,1.5-1.9,1.9-3.1c0.1-0.2,0.1-0.4,0.1-0.5c0.1,0,0.2,0.1,0.3,0.1c0,0,0.1,0,0.1,0.1
				c0,0,0,0.1-0.1,0.1c-0.1,0-0.1,0.1-0.2,0.3c-0.2,0.5-0.4,0.9-0.6,1.2v3.9l0,1.3c0,0,0,0-0.1,0h-0.2c0,0,0,0,0,0l0-1.3v-2.2
				c0-0.5,0-1,0-1.4c-0.3,0.5-0.7,1-1.1,1.4c0,0-0.1,0-0.1,0c0,0,0,0-0.1,0C168.4,278.6,168.4,278.6,168.3,278.6z M170.4,278.4
				c0.4-0.4,0.7-0.9,1-1.5c0.2-0.5,0.4-0.9,0.5-1.2c0.1-0.2,0.1-0.4,0.1-0.5c0.1,0,0.2,0.1,0.3,0.1c0,0,0.1,0,0.1,0.1s0,0.1,0,0.1
				s-0.1,0.1-0.1,0.3c-0.1,0.4-0.3,0.7-0.4,1h2.4l1,0c0,0,0,0,0,0v0.2c0,0,0,0,0,0l-1,0h-1.4v1.4h1.4l0.7,0c0,0,0,0,0,0v0.2
				c0,0,0,0,0,0l-0.7,0h-1.4v1.4h1.4l0.7,0c0,0,0,0,0,0v0.2c0,0,0,0,0,0l-0.7,0h-1.4v0.8l0,1.2c0,0,0,0-0.1,0h-0.2c0,0-0.1,0-0.1,0
				l0-1.2v-4h-0.9c-0.3,0.6-0.7,1.1-1,1.6c0,0-0.1,0.1-0.1,0.1s0,0-0.1,0C170.5,278.4,170.5,278.4,170.4,278.4z"/>
			<path d="M179.4,282C179.3,282,179.3,282,179.4,282l0-0.5h-2v0.5c0,0,0,0-0.1,0h-0.2c0,0-0.1,0-0.1,0l0-1.4v-0.7l0-0.9
				c0,0,0,0,0.1,0l0.8,0h0.8l0.8,0c0,0,0.1,0,0.1,0l0,0.8v0.8l0,1.4c0,0,0,0-0.1,0H179.4z M177.4,279.1v2.1h2v-2.1H177.4z
				 M181.1,277.9h-1.7l-1.1,0c0,0,0,0,0,0l0-0.7v-0.9l0-0.7c0,0,0,0,0,0l1.1,0h1.7l1.1,0c0,0,0,0,0,0l0,0.7v0.9l0,0.7c0,0,0,0,0,0
				L181.1,277.9z M181.9,277.6v-1.9h-3.4v1.9H181.9z M183.1,282C183.1,282,183,282,183.1,282l-0.1-0.5h-2.1v0.5c0,0,0,0-0.1,0h-0.2
				c0,0-0.1,0-0.1,0l0-1.4v-0.7l0-0.9c0,0,0,0,0.1,0l0.8,0h0.9l0.8,0c0,0,0.1,0,0.1,0l0,0.8v0.8l0,1.4c0,0,0,0-0.1,0H183.1z
				 M180.9,279.2v2.1h2.1v-2.1H180.9z"/>
			<path d="M189.1,275.7l2,5.8h-0.3l-0.7-2h-2.3l-0.7,2h-0.3l2-5.8H189.1z M190,279.2l-0.6-1.6c-0.1-0.4-0.3-1-0.5-1.6h-0.1
				c-0.1,0.5-0.3,1-0.5,1.6l-0.6,1.6L190,279.2L190,279.2z"/>
		</g>
	</g>
</g>
<g>
	<g>
		<rect x="393.2" y="72.5" class="st1" width="81.3" height="28"/>
		<path class="st0" d="M475,101h-82.3V72H475V101z M393.7,100H474V73h-80.3L393.7,100L393.7,100z"/>
	</g>
	<g>
		<path d="M429.2,83.8v1.4h1v0.3h-1v2.8c0,0.5,0.2,0.7,0.6,0.7c0.2,0,0.4,0,0.5-0.1l0,0.3c-0.2,0-0.3,0.1-0.5,0.1
			c-0.3,0-0.5-0.1-0.7-0.3c-0.1-0.2-0.2-0.4-0.2-0.7v-2.8h-0.7v-0.3h0.7v-1.4L429.2,83.8z"/>
		<path d="M432.9,85.1c0.5,0,0.9,0.2,1.2,0.6c0.3,0.4,0.4,0.8,0.4,1.4c0,0.7-0.2,1.2-0.5,1.6c-0.3,0.3-0.6,0.5-1.1,0.5
			c-0.5,0-0.9-0.2-1.2-0.6c-0.3-0.4-0.4-0.8-0.4-1.4c0-0.7,0.2-1.2,0.5-1.6C432.1,85.3,432.5,85.1,432.9,85.1z M432.9,85.4
			c-0.4,0-0.7,0.2-1,0.5c-0.2,0.3-0.3,0.7-0.3,1.2c0,0.6,0.1,1.1,0.4,1.4c0.2,0.3,0.5,0.4,0.9,0.4c0.4,0,0.7-0.2,1-0.5
			c0.2-0.3,0.3-0.7,0.3-1.2c0-0.6-0.1-1.1-0.4-1.4C433.5,85.5,433.3,85.4,432.9,85.4z"/>
		<path d="M436.4,85.2v0.7c0.2-0.3,0.4-0.4,0.6-0.6c0.2-0.1,0.4-0.2,0.6-0.2c0.5,0,0.9,0.2,1.1,0.6c0.2,0.4,0.4,0.8,0.4,1.4
			c0,0.7-0.2,1.2-0.5,1.6c-0.3,0.3-0.6,0.5-1.1,0.5c-0.5,0-0.9-0.2-1.2-0.8v2h-0.3v-5.3L436.4,85.2L436.4,85.2z M436.4,86.2v1.9
			c0.2,0.3,0.4,0.5,0.6,0.7c0.2,0.1,0.4,0.2,0.6,0.2c0.4,0,0.7-0.2,1-0.5c0.2-0.3,0.3-0.7,0.3-1.2c0-0.6-0.1-1-0.4-1.4
			c-0.2-0.3-0.5-0.4-0.8-0.4C437.1,85.4,436.8,85.7,436.4,86.2z"/>
	</g>
</g>
<g>
	<g>
		<rect x="232.6" y="264.8" class="st1" width="81.3" height="28"/>
		<path class="st0" d="M314.4,293.2h-82.3v-29h82.3L314.4,293.2L314.4,293.2z M233.1,292.2h80.3v-27h-80.3V292.2z"/>
	</g>
	<g>
		<g>
			<path d="M260.9,278.6c0.9-0.9,1.5-1.9,1.9-3.1c0.1-0.2,0.1-0.4,0.1-0.5c0.1,0,0.2,0.1,0.3,0.1c0,0,0.1,0,0.1,0.1c0,0,0,0.1,0,0.1
				c0,0-0.1,0.1-0.2,0.3c-0.2,0.5-0.4,0.9-0.6,1.2v3.9l0,1.3c0,0,0,0,0,0h-0.2c0,0-0.1,0-0.1,0l0-1.3v-2.2c0-0.5,0-1,0-1.4
				c-0.3,0.5-0.7,1-1.1,1.4c0,0,0,0-0.1,0s0,0-0.1,0C261,278.6,261,278.6,260.9,278.6z M263.1,278.4c0.4-0.4,0.7-0.9,1-1.5
				c0.2-0.5,0.4-0.9,0.5-1.2c0.1-0.2,0.1-0.4,0.1-0.5c0.1,0,0.2,0.1,0.3,0.1c0,0,0.1,0,0.1,0.1s0,0.1,0,0.1s-0.1,0.1-0.1,0.3
				c-0.1,0.4-0.3,0.7-0.4,1h2.5l1,0c0,0,0.1,0,0.1,0v0.2c0,0,0,0-0.1,0l-1,0h-1.4v1.4h1.4l0.7,0c0,0,0.1,0,0.1,0v0.2c0,0,0,0-0.1,0
				l-0.7,0h-1.4v1.4h1.4l0.7,0c0,0,0,0,0,0v0.2c0,0,0,0,0,0l-0.7,0h-1.4v0.8l0,1.2c0,0,0,0-0.1,0h-0.2c0,0,0,0,0,0l0-1.2v-4h-0.9
				c-0.3,0.6-0.7,1.1-1,1.6c0,0-0.1,0.1-0.1,0.1s0,0-0.1,0C263.1,278.4,263.1,278.4,263.1,278.4z"/>
			<path d="M272,282C271.9,282,271.9,282,272,282l-0.1-0.5h-2v0.5c0,0,0,0-0.1,0h-0.2c0,0,0,0,0,0l0-1.4v-0.7l0-0.9c0,0,0,0,0,0
				l0.8,0h0.8l0.8,0c0,0,0,0,0,0l0,0.8v0.8l0,1.4c0,0,0,0,0,0H272z M270,279.1v2.1h2v-2.1H270z M273.7,277.9h-1.7l-1.1,0
				c0,0,0,0,0,0l0-0.7v-0.9l0-0.7c0,0,0,0,0,0l1.1,0h1.7l1.1,0c0,0,0,0,0,0l0,0.7v0.9l0,0.7c0,0,0,0,0,0L273.7,277.9z M274.5,277.6
				v-1.9h-3.4v1.9H274.5z M275.7,282C275.7,282,275.6,282,275.7,282l0-0.5h-2.1v0.5c0,0,0,0-0.1,0h-0.2c0,0-0.1,0-0.1,0l0-1.4v-0.7
				l0-0.9c0,0,0,0,0.1,0l0.8,0h0.9l0.8,0c0,0,0.1,0,0.1,0l0,0.8v0.8l0,1.4c0,0,0,0-0.1,0H275.7z M273.5,279.2v2.1h2.1v-2.1H273.5z"
				/>
			<path d="M279.9,275.7h1.8c0.7,0,1.2,0.1,1.5,0.4c0.2,0.2,0.4,0.5,0.4,1c0,0.4-0.1,0.7-0.4,0.9c-0.2,0.2-0.6,0.3-1,0.4v0
				c0.5,0.1,0.9,0.2,1.2,0.5c0.2,0.2,0.3,0.5,0.3,0.9c0,0.5-0.2,1-0.6,1.2c-0.3,0.2-0.8,0.4-1.4,0.4h-1.9L279.9,275.7L279.9,275.7z
				 M280.3,276v2.3h1.2c0.6,0,1-0.1,1.4-0.4c0.3-0.2,0.4-0.5,0.4-0.8c0-0.4-0.1-0.7-0.4-0.9c-0.2-0.2-0.6-0.2-1.2-0.2L280.3,276
				L280.3,276z M280.3,278.5v2.6h1.5c1.1,0,1.6-0.4,1.6-1.3c0-0.4-0.2-0.8-0.5-1c-0.3-0.2-0.8-0.3-1.3-0.3L280.3,278.5L280.3,278.5z
				"/>
		</g>
	</g>
</g>
<g>
	<g>
		<rect x="325.4" y="264.8" class="st1" width="81.3" height="28"/>
		<path class="st0" d="M407.2,293.2h-82.3v-29h82.3V293.2z M325.9,292.2h80.3v-27h-80.3V292.2L325.9,292.2z"/>
	</g>
	<g>
		<g>
			<path d="M353.7,278.6c0.9-0.9,1.5-1.9,1.9-3.1c0.1-0.2,0.1-0.4,0.1-0.5c0.1,0,0.2,0.1,0.3,0.1c0,0,0.1,0,0.1,0.1c0,0,0,0.1,0,0.1
				c0,0-0.1,0.1-0.2,0.3c-0.2,0.5-0.4,0.9-0.6,1.2v3.9l0,1.3c0,0,0,0,0,0H355c0,0,0,0,0,0l0-1.3v-2.2c0-0.5,0-1,0-1.4
				c-0.3,0.5-0.6,1-1.1,1.4c0,0,0,0-0.1,0c0,0,0,0-0.1,0C353.8,278.6,353.7,278.6,353.7,278.6z M355.8,278.4c0.4-0.4,0.7-0.9,1-1.5
				c0.2-0.5,0.4-0.9,0.5-1.2c0-0.2,0.1-0.4,0.1-0.5c0.1,0,0.2,0.1,0.3,0.1c0,0,0.1,0,0.1,0.1s0,0.1-0.1,0.1c0,0-0.1,0.1-0.1,0.3
				c-0.1,0.4-0.3,0.7-0.4,1h2.5l1,0c0,0,0,0,0,0v0.2c0,0,0,0,0,0l-1,0h-1.4v1.4h1.4l0.7,0c0,0,0,0,0,0v0.2c0,0,0,0,0,0l-0.7,0h-1.4
				v1.4h1.4l0.7,0c0,0,0,0,0,0v0.2c0,0,0,0,0,0l-0.7,0h-1.4v0.8l0,1.2c0,0,0,0-0.1,0h-0.2c0,0-0.1,0-0.1,0l0-1.2v-4H357
				c-0.3,0.6-0.7,1.1-1,1.6c0,0-0.1,0.1-0.1,0.1s0,0-0.1,0C355.9,278.4,355.8,278.4,355.8,278.4z"/>
			<path d="M364.7,282C364.7,282,364.7,282,364.7,282l-0.1-0.5h-2v0.5c0,0,0,0,0,0h-0.2c0,0,0,0,0,0l0-1.4v-0.7l0-0.9c0,0,0,0,0,0
				l0.8,0h0.8l0.8,0c0,0,0,0,0,0l0,0.8v0.8l0,1.4c0,0,0,0,0,0H364.7z M362.7,279.1v2.1h2v-2.1H362.7z M366.4,277.9h-1.7l-1.1,0
				c0,0,0,0,0,0l0-0.7v-0.9l0-0.7c0,0,0,0,0,0l1.1,0h1.7l1,0c0,0,0,0,0,0l0,0.7v0.9l0,0.7c0,0,0,0,0,0L366.4,277.9z M367.2,277.6
				v-1.9h-3.4v1.9H367.2z M368.4,282C368.4,282,368.4,282,368.4,282l0-0.5h-2.1v0.5c0,0,0,0-0.1,0h-0.2c0,0-0.1,0-0.1,0l0-1.4v-0.7
				l0-0.9c0,0,0,0,0.1,0l0.8,0h0.9l0.8,0c0,0,0.1,0,0.1,0l0,0.8v0.8l0,1.4c0,0,0,0-0.1,0H368.4z M366.3,279.2v2.1h2.1v-2.1H366.3z"
				/>
			<path d="M376.6,277.1l-0.3,0.1c-0.2-0.9-0.8-1.4-1.6-1.4c-0.6,0-1.1,0.3-1.5,0.8c-0.3,0.5-0.5,1.1-0.5,1.9c0,0.9,0.2,1.6,0.6,2.1
				c0.4,0.4,0.8,0.6,1.3,0.6c0.9,0,1.5-0.5,1.7-1.4l0.3,0.1c-0.3,1-1,1.5-2,1.5c-0.7,0-1.3-0.3-1.7-0.9c-0.4-0.5-0.6-1.2-0.6-2.1
				c0-1,0.3-1.7,0.8-2.3c0.4-0.5,0.9-0.7,1.5-0.7c0.5,0,0.9,0.1,1.3,0.5C376.2,276.3,376.4,276.6,376.6,277.1z"/>
		</g>
	</g>
</g>
<g>
	<g>
		<rect x="418.1" y="264.8" class="st1" width="81.3" height="28"/>
		<path class="st0" d="M499.9,293.2h-82.3v-29h82.3V293.2z M418.6,292.2h80.3v-27h-80.3V292.2z"/>
	</g>
	<g>
		<g>
			<path d="M446.1,278.6c0.9-0.9,1.5-1.9,1.9-3.1c0.1-0.2,0.1-0.4,0.1-0.5c0.1,0,0.2,0.1,0.3,0.1c0,0,0.1,0,0.1,0.1c0,0,0,0.1,0,0.1
				c0,0-0.1,0.1-0.2,0.3c-0.2,0.5-0.4,0.9-0.6,1.2v3.9l0,1.3c0,0,0,0,0,0h-0.2c0,0,0,0,0,0l0-1.3v-2.2c0-0.5,0-1,0-1.4
				c-0.3,0.5-0.6,1-1.1,1.4c0,0,0,0-0.1,0s0,0-0.1,0C446.2,278.6,446.2,278.6,446.1,278.6z M448.3,278.4c0.4-0.4,0.7-0.9,1-1.5
				c0.2-0.5,0.4-0.9,0.5-1.2c0-0.2,0.1-0.4,0.1-0.5c0.1,0,0.2,0.1,0.3,0.1c0,0,0.1,0,0.1,0.1s0,0.1,0,0.1s-0.1,0.1-0.1,0.3
				c-0.1,0.4-0.3,0.7-0.4,1h2.5l1,0c0,0,0,0,0,0v0.2c0,0,0,0,0,0l-1,0h-1.4v1.4h1.4l0.7,0c0,0,0,0,0,0v0.2c0,0,0,0,0,0l-0.7,0h-1.4
				v1.4h1.4l0.7,0c0,0,0,0,0,0v0.2c0,0,0,0,0,0l-0.7,0h-1.4v0.8l0,1.2c0,0,0,0,0,0h-0.2c0,0,0,0,0,0l0-1.2v-4h-0.9
				c-0.3,0.6-0.7,1.1-1,1.6c0,0-0.1,0.1-0.1,0.1s0,0-0.1,0C448.4,278.4,448.3,278.4,448.3,278.4z"/>
			<path d="M457.2,282C457.1,282,457.1,282,457.2,282l0-0.5h-2v0.5c0,0,0,0,0,0H455c0,0,0,0,0,0l0-1.4v-0.7l0-0.9c0,0,0,0,0,0l0.8,0
				h0.8l0.8,0c0,0,0,0,0,0l0,0.8v0.8l0,1.4c0,0,0,0,0,0H457.2z M455.2,279.1v2.1h2v-2.1H455.2z M458.9,277.9h-1.7l-1.1,0
				c0,0,0,0,0,0l0-0.7v-0.9l0-0.7c0,0,0,0,0,0l1.1,0h1.7l1,0c0,0,0,0,0,0l0,0.7v0.9l0,0.7c0,0,0,0,0,0L458.9,277.9z M459.7,277.6
				v-1.9h-3.4v1.9H459.7z M460.9,282C460.9,282,460.9,282,460.9,282l0-0.5h-2.1v0.5c0,0,0,0,0,0h-0.2c0,0,0,0,0,0l0-1.4v-0.7l0-0.9
				c0,0,0,0,0,0l0.8,0h0.9l0.8,0c0,0,0,0,0,0l0,0.8v0.8l0,1.4c0,0,0,0,0,0H460.9z M458.8,279.2v2.1h2.1v-2.1H458.8z"/>
			<path d="M465.1,275.7h1.6c0.9,0,1.6,0.3,2.1,0.8c0.4,0.5,0.6,1.2,0.6,2c0,1-0.3,1.8-0.9,2.3c-0.5,0.4-1.1,0.6-1.9,0.6h-1.5
				L465.1,275.7L465.1,275.7z M465.5,276v5.2h1.2c0.8,0,1.5-0.2,1.9-0.7c0.4-0.5,0.6-1.1,0.6-1.9c0-1.7-0.8-2.6-2.4-2.6L465.5,276
				L465.5,276z"/>
		</g>
	</g>
</g>
<g>
	<g>
		<rect x="531.1" y="398.6" class="st1" width="81.3" height="28"/>
		<path class="st0" d="M612.9,427.1h-82.3v-29h82.3V427.1z M531.6,426.1h80.3v-27h-80.3V426.1z"/>
	</g>
	<g>
		<g>
			<path d="M567.6,412.1l-0.3,0.1c-0.2-0.5-0.5-0.8-1-0.8c-0.3,0-0.6,0.1-0.8,0.2c-0.2,0.1-0.2,0.3-0.2,0.5c0,0.2,0.1,0.4,0.2,0.5
				c0.1,0.1,0.4,0.2,0.7,0.3l0.3,0.1c0.5,0.1,0.8,0.2,1,0.4c0.2,0.2,0.2,0.4,0.2,0.7c0,0.3-0.1,0.6-0.4,0.8c-0.2,0.2-0.6,0.3-1,0.3
				c-0.4,0-0.7-0.1-0.9-0.3c-0.2-0.2-0.4-0.4-0.5-0.7l0.3-0.1c0.2,0.5,0.6,0.8,1.2,0.8c0.4,0,0.7-0.1,0.9-0.3
				c0.1-0.1,0.2-0.3,0.2-0.5c0-0.3-0.1-0.5-0.2-0.6c-0.1-0.1-0.4-0.2-0.8-0.3l-0.3-0.1c-0.5-0.1-0.8-0.2-0.9-0.4
				c-0.1-0.1-0.2-0.4-0.2-0.6c0-0.3,0.1-0.6,0.4-0.8c0.2-0.2,0.5-0.3,0.9-0.3C566.9,411.2,567.3,411.5,567.6,412.1z"/>
			<path d="M572.1,411.3l-1.4,1.5l1.5,2.4h-0.4l-1.4-2.2l-0.8,0.9v1.3h-0.3v-5.9h0.3v4.2l2.1-2.3H572.1z"/>
			<path d="M574,410v0.5h-0.5V410H574z M573.9,411.3v3.9h-0.3v-3.9H573.9z"/>
			<path d="M576.1,409.4v5.9h-0.3v-5.9H576.1z"/>
			<path d="M578.3,409.4v5.9H578v-5.9H578.3z"/>
		</g>
	</g>
</g>
<g>
	<g>
		<rect x="531.1" y="264.1" class="st1" width="81.3" height="28"/>
		<path class="st0" d="M612.9,292.5h-82.3v-28.9h82.3V292.5z M531.6,291.5h80.3v-26.9h-80.3V291.5z"/>
	</g>
	<g>
		<g>
			<path d="M562.1,276.8v0.7c0.2-0.3,0.4-0.5,0.6-0.6c0.2-0.1,0.4-0.2,0.6-0.2c0.5,0,0.9,0.2,1.2,0.6c0.2,0.4,0.4,0.8,0.4,1.4
				c0,0.7-0.2,1.2-0.5,1.6c-0.3,0.3-0.6,0.5-1.1,0.5c-0.5,0-0.9-0.2-1.2-0.8v2h-0.3v-5.3L562.1,276.8L562.1,276.8z M562.1,277.8v1.9
				c0.2,0.3,0.4,0.5,0.6,0.6c0.2,0.1,0.4,0.2,0.6,0.2c0.4,0,0.7-0.2,1-0.5c0.2-0.3,0.3-0.7,0.3-1.2c0-0.6-0.1-1-0.4-1.4
				c-0.2-0.3-0.5-0.4-0.8-0.4C562.8,277,562.4,277.3,562.1,277.8z"/>
			<path d="M567.8,276.7c0.5,0,0.9,0.2,1.2,0.6c0.3,0.4,0.4,0.8,0.4,1.4c0,0.7-0.2,1.2-0.5,1.6c-0.3,0.3-0.6,0.5-1.1,0.5
				c-0.5,0-0.9-0.2-1.2-0.6c-0.3-0.4-0.4-0.8-0.4-1.4c0-0.7,0.2-1.2,0.5-1.6C567,276.9,567.4,276.7,567.8,276.7z M567.8,277
				c-0.4,0-0.7,0.2-1,0.5c-0.2,0.3-0.3,0.7-0.3,1.2c0,0.6,0.1,1,0.4,1.4c0.2,0.3,0.5,0.4,0.9,0.4c0.4,0,0.7-0.2,1-0.5
				c0.2-0.3,0.3-0.7,0.3-1.2c0-0.6-0.1-1-0.4-1.4C568.5,277.1,568.2,277,567.8,277z"/>
			<path d="M571.3,274.9v5.9H571v-5.9H571.3z"/>
			<path d="M573.7,275.4v0.5h-0.5v-0.5H573.7z M573.6,276.8v3.9h-0.3v-3.9H573.6z"/>
			<path d="M578.2,277.8l-0.3,0.1c-0.2-0.6-0.5-0.9-1.1-0.9c-0.4,0-0.7,0.2-1,0.5c-0.2,0.3-0.3,0.7-0.3,1.2c0,0.6,0.1,1,0.4,1.4
				c0.2,0.3,0.5,0.4,0.9,0.4c0.6,0,1-0.3,1.1-0.9l0.3,0.1c-0.3,0.7-0.7,1.1-1.4,1.1c-0.5,0-0.9-0.2-1.2-0.6
				c-0.3-0.4-0.4-0.8-0.4-1.4c0-0.7,0.2-1.2,0.5-1.6c0.3-0.3,0.6-0.5,1.1-0.5c0.3,0,0.6,0.1,0.9,0.3
				C577.9,277.2,578.1,277.5,578.2,277.8z"/>
			<path d="M582.2,276.8l-1.5,4.1c-0.2,0.5-0.4,0.8-0.6,0.9c-0.2,0.1-0.4,0.2-0.7,0.2c-0.1,0-0.2,0-0.3,0l0-0.3c0.1,0,0.2,0,0.3,0
				c0.3,0,0.5-0.1,0.6-0.2c0.1-0.1,0.3-0.4,0.4-0.8l0.1-0.2l-1.4-3.8h0.3l1,2.9c0,0.1,0.1,0.3,0.2,0.6h0c0.1-0.3,0.1-0.5,0.2-0.6
				l1-2.9L582.2,276.8L582.2,276.8z"/>
		</g>
	</g>
</g>
<g>
	<g>
		<rect x="645.3" y="263.4" class="st1" width="81.3" height="28"/>
		<path class="st0" d="M727,291.9h-82.3v-29H727V291.9z M645.8,290.9H726v-27h-80.3V290.9z"/>
	</g>
	<g>
		<g>
			<path d="M661.3,277c0.4-0.6,0.7-1.2,0.9-1.6c0.2-0.4,0.3-0.7,0.3-0.9c0.2,0.1,0.3,0.1,0.4,0.2c0,0,0,0,0,0.1c0,0,0,0.1,0,0.1
				c0,0-0.2,0.2-0.3,0.6c-0.3,0.6-0.6,1.2-1,1.7c0.4,0.3,0.9,0.7,1.3,1.1c0,0,0,0,0,0c0,0,0,0,0,0l-0.1,0.1c0,0,0,0,0,0s0,0,0,0
				c-0.4-0.4-0.8-0.8-1.2-1.1c-0.9,1.2-1.9,2.1-2.9,2.8c0,0-0.1,0-0.1,0c0,0,0,0-0.1,0c0,0-0.1-0.1-0.3-0.1c1.2-0.6,2.2-1.6,3.1-2.8
				c-0.6-0.4-1.1-0.8-1.6-1c0.1-0.1,0.1-0.2,0.1-0.2c0,0,0,0,0,0c0,0,0,0,0.1,0C660.5,276.4,661,276.7,661.3,277z"/>
			<path d="M666.3,277.1c0.4,0,0.9,0,1.5,0h2.7c0.7,0,1.3,0,1.7,0c0.1,0,0.1,0,0.1,0.1v0.2c0,0.1,0,0.1-0.1,0.1c-0.3,0-0.6,0-1,0
				h-0.6h-3.3l-0.8,0c0,0-0.1,0-0.1-0.1C666.4,277.3,666.3,277.2,666.3,277.1z"/>
			<path d="M676,275.2c0.2,0,0.3,0,0.4,0.1c0,0,0,0,0,0.1c0,0,0,0,0,0.1c0,0-0.1,0.2-0.1,0.4c0,0.9-0.2,1.7-0.5,2.4
				c-0.2,0.5-0.6,1-1.2,1.4c0,0-0.1,0-0.1,0s0,0,0,0c0,0-0.1-0.1-0.2-0.1c0.6-0.4,1-0.9,1.2-1.4c0.3-0.7,0.5-1.4,0.5-2.2
				C676,275.6,676,275.4,676,275.2z M677.9,279.1c0.5-0.3,1-0.6,1.5-0.9c0.5-0.3,0.9-0.8,1.4-1.3c0,0.1,0,0.2,0,0.3c0,0,0,0,0,0
				c0,0,0,0,0,0.1c-0.5,0.5-0.9,0.9-1.3,1.2c-0.5,0.4-1,0.6-1.3,0.8c-0.2,0.1-0.2,0.1-0.3,0.2c0,0-0.1,0-0.1,0c0,0,0,0,0,0
				c-0.1-0.1-0.2-0.2-0.2-0.2c0,0,0,0,0,0c0,0,0-0.1,0-0.1c0,0,0-0.2,0-0.5v-2.9c0-0.5,0-0.8,0-1c0.2,0,0.3,0,0.4,0.1c0,0,0,0,0,0.1
				s0,0.1,0,0.1c0,0,0,0.3,0,0.8L677.9,279.1L677.9,279.1z"/>
			<path d="M686.1,275.1c-0.1,0.7-0.2,1.4-0.4,2.1c-0.2,0.6-0.4,1-0.7,1.4c-0.2,0.3-0.4,0.5-0.5,0.6c-0.2,0.1-0.3,0.1-0.5,0.1
				c-0.3,0-0.5-0.2-0.7-0.5c-0.2-0.3-0.3-0.7-0.3-1.2c0-0.4,0.1-0.8,0.3-1.2c0.2-0.4,0.4-0.6,0.7-0.9c0.6-0.5,1.3-0.8,2.2-0.8
				c0.9,0,1.6,0.2,2.1,0.8c0.4,0.4,0.6,1,0.6,1.7s-0.2,1.3-0.7,1.8c-0.5,0.5-1.1,0.8-2,0.9c0,0,0,0,0,0c0,0-0.1,0-0.1,0
				c0,0-0.1-0.1-0.1-0.2c0.9-0.1,1.6-0.5,2-1c0.4-0.4,0.6-1,0.6-1.5c0-0.7-0.2-1.2-0.8-1.6c-0.4-0.3-0.9-0.5-1.5-0.5L686.1,275.1z
				 M685.8,275.1c-0.7,0-1.2,0.3-1.7,0.7c-0.3,0.3-0.5,0.6-0.7,1c-0.1,0.3-0.2,0.6-0.2,0.9c0,0.5,0.1,0.8,0.3,1.1
				c0.1,0.2,0.3,0.3,0.5,0.3c0.3,0,0.6-0.2,0.8-0.6c0.3-0.5,0.5-1,0.7-1.6C685.7,276.2,685.8,275.7,685.8,275.1z"/>
			<path d="M692.6,274.4c0.2,0,0.3,0,0.4,0.1c0,0,0,0,0,0.1c0,0,0,0,0,0.1c0,0.1-0.1,0.3-0.1,0.8v1.3c0,0.3,0,0.7,0,1.1
				c0,0.1,0,0.1-0.1,0.1h-0.2c0,0-0.1,0-0.1-0.1c0-0.3,0-0.6,0-1.1v-1.3C692.7,274.9,692.6,274.6,692.6,274.4z M692.9,280.2
				c0.4-0.1,0.8-0.3,1.1-0.5c0.3-0.2,0.5-0.4,0.7-0.6c0.5-0.6,0.7-1.3,0.7-2.2v-1.6c0-0.5,0-0.9-0.1-1.1c0.2,0,0.3,0,0.4,0.1
				c0,0,0,0,0,0.1c0,0,0,0,0,0.1c0,0.1-0.1,0.4-0.1,0.9v1.6c0,1-0.2,1.8-0.7,2.4c-0.4,0.5-1,0.9-1.7,1.1c0,0,0,0,0,0
				c0,0-0.1,0-0.1,0C693.1,280.3,693,280.3,692.9,280.2z"/>
			<path d="M700.3,275c0.5,0.3,1,0.6,1.4,1c0,0,0,0,0,0.1c0,0,0,0,0,0c0,0.1-0.1,0.1-0.1,0.1c0,0,0,0,0,0c0,0,0,0,0,0
				c-0.5-0.4-0.9-0.8-1.4-1.1c0.1-0.1,0.1-0.2,0.1-0.2C700.2,275,700.2,275,700.3,275C700.3,275,700.3,275,700.3,275z M700.3,279.5
				c0.2-0.1,0.4-0.1,0.7-0.3c0.9-0.5,1.6-0.9,2.3-1.5c0.9-0.7,1.6-1.4,2.2-2.1c0,0.1,0,0.2,0.1,0.2c0,0,0,0,0,0.1c0,0,0,0.1,0,0.1
				c-0.5,0.6-1.1,1.2-2,1.9c-0.6,0.5-1.4,1-2.4,1.5c-0.2,0.1-0.3,0.2-0.4,0.3c0,0,0,0-0.1,0s0,0-0.1,0
				C700.4,279.7,700.3,279.6,700.3,279.5z"/>
			<path d="M710.4,275.3l2.1,0c0.2,0,0.3,0,0.3,0c0,0,0,0,0,0c0,0,0,0,0.1,0c0,0,0.1,0.1,0.2,0.1c0,0,0,0.1,0,0.1c0,0,0,0,0,0
				c0,0-0.1,0.1-0.2,0.2c-0.5,1.1-1,1.9-1.5,2.5c-0.8,0.9-1.6,1.6-2.5,2.1c0,0,0,0,0,0c0,0,0,0,0,0c-0.1-0.1-0.2-0.1-0.3-0.1
				c1-0.6,1.9-1.3,2.7-2.1c0.6-0.7,1.1-1.6,1.5-2.6l-2.5,0.1c-0.6,0.7-1.1,1.3-1.7,1.8c0,0,0,0-0.1,0c0,0,0,0,0,0
				c-0.1,0-0.2-0.1-0.3-0.1c0.9-0.7,1.6-1.5,2.1-2.3c0.2-0.4,0.3-0.7,0.4-0.9c0.1,0,0.2,0.1,0.3,0.2c0,0,0,0.1,0,0.1s0,0,0,0.1
				c-0.1,0-0.1,0.1-0.2,0.3C710.6,275.1,710.5,275.3,710.4,275.3z"/>
		</g>
	</g>
</g>
<g>
	<g>
		<rect x="531.1" y="331.3" class="st1" width="81.3" height="28"/>
		<path class="st0" d="M612.9,359.8h-82.3v-29h82.3V359.8z M531.6,358.8h80.3v-27h-80.3V358.8z"/>
	</g>
	<g>
		<g>
			<path d="M561.2,344v0.7c0.2-0.3,0.4-0.5,0.6-0.6c0.2-0.1,0.4-0.2,0.6-0.2c0.5,0,0.9,0.2,1.2,0.6c0.2,0.4,0.4,0.8,0.4,1.4
				c0,0.7-0.2,1.2-0.5,1.6c-0.3,0.3-0.6,0.5-1.1,0.5c-0.5,0-0.9-0.2-1.2-0.8v2h-0.3V344L561.2,344L561.2,344z M561.3,345.1v1.9
				c0.2,0.3,0.4,0.5,0.6,0.6c0.2,0.1,0.4,0.2,0.6,0.2c0.4,0,0.7-0.2,1-0.5c0.2-0.3,0.3-0.7,0.3-1.2c0-0.6-0.1-1-0.4-1.4
				c-0.2-0.3-0.5-0.4-0.8-0.4C562,344.2,561.6,344.5,561.3,345.1z"/>
			<path d="M567.3,344l0,0.3c-0.3,0-0.6,0.1-0.8,0.4c-0.2,0.2-0.4,0.6-0.5,1v2.4h-0.3V344h0.3v1c0.1-0.4,0.4-0.7,0.6-0.9
				C566.8,344,567,344,567.3,344z"/>
			<path d="M570,344c0.5,0,0.9,0.2,1.2,0.6c0.3,0.4,0.4,0.8,0.4,1.4c0,0.7-0.2,1.2-0.5,1.6c-0.3,0.3-0.6,0.5-1.1,0.5
				c-0.5,0-0.9-0.2-1.2-0.6c-0.3-0.4-0.4-0.8-0.4-1.4c0-0.7,0.2-1.2,0.5-1.6C569.2,344.1,569.5,344,570,344z M570,344.2
				c-0.4,0-0.7,0.2-0.9,0.5c-0.2,0.3-0.3,0.7-0.3,1.2c0,0.6,0.1,1,0.4,1.4c0.2,0.3,0.5,0.4,0.9,0.4c0.4,0,0.7-0.2,1-0.5
				c0.2-0.3,0.3-0.7,0.3-1.2c0-0.6-0.1-1-0.4-1.4C570.6,344.4,570.3,344.2,570,344.2z"/>
			<path d="M574.8,342.1l-0.1,0.3c-0.1,0-0.3,0-0.4,0c-0.2,0-0.4,0.1-0.5,0.2c-0.1,0.1-0.1,0.3-0.1,0.5v0.9h0.9v0.3h-0.9v3.6h-0.3
				v-3.6h-0.7V344h0.7v-0.9c0-0.7,0.3-1,1-1C574.4,342.1,574.5,342.1,574.8,342.1z M575.9,342.7v0.5h-0.5v-0.5H575.9z M575.8,344
				v3.9h-0.3V344H575.8z"/>
			<path d="M578,342.1v5.9h-0.3v-5.9H578z"/>
			<path d="M582.8,346H580c0,0.6,0.2,1.1,0.4,1.4c0.2,0.3,0.5,0.4,0.9,0.4c0.3,0,0.6-0.1,0.8-0.2c0.2-0.1,0.3-0.4,0.4-0.6l0.3,0.1
				c-0.3,0.7-0.8,1-1.5,1c-0.5,0-0.9-0.2-1.2-0.6c-0.3-0.4-0.4-0.8-0.4-1.4c0-0.7,0.2-1.2,0.5-1.6c0.3-0.3,0.6-0.5,1.1-0.5
				c0.5,0,0.9,0.2,1.2,0.6C582.7,344.9,582.8,345.3,582.8,346L582.8,346L582.8,346z M582.5,345.7c0-0.5-0.2-0.9-0.4-1.1
				c-0.2-0.2-0.5-0.3-0.8-0.3c-0.4,0-0.7,0.1-0.9,0.4c-0.2,0.3-0.3,0.6-0.4,1L582.5,345.7L582.5,345.7z"/>
		</g>
	</g>
</g>
<g>
	<g>
		<rect x="417.2" y="332.1" class="st1" width="81.3" height="28"/>
		<path class="st0" d="M499,360.6h-82.3v-29H499V360.6z M417.7,359.6H498v-27h-80.3V359.6z"/>
	</g>
	<g>
		<g>
			<path d="M444,348v-1.4h-1.3v1.3l0,0.9c0,0,0,0,0,0h-0.2c0,0,0,0,0,0l0-0.9v-0.8l0-0.7c0,0,0,0,0,0l1,0h0.5v-1h-0.9l-1.1,0
				c0,0,0,0,0,0v-0.2c0,0,0,0,0,0l1.1,0h0.9V344h-1.1c-0.1,0.3-0.3,0.5-0.5,0.8c0,0,0,0-0.1,0s0,0-0.1,0c0,0-0.1,0-0.1-0.1
				c0.4-0.5,0.7-1,0.8-1.6c0-0.1,0-0.1,0-0.2c0.1,0,0.2,0,0.3,0.1c0,0,0.1,0,0.1,0.1s0,0,0,0.1c0,0-0.1,0.1-0.1,0.2
				c-0.1,0.2-0.1,0.4-0.2,0.5h1v-0.5c0-0.3,0-0.5,0-0.7c0.1,0,0.2,0,0.3,0c0,0,0.1,0,0.1,0c0,0,0,0,0,0.1c0,0.1,0,0.2,0,0.5v0.5h0.5
				l0.9,0c0,0,0,0,0,0v0.2c0,0,0,0,0,0l-0.9,0h-0.5v1.1h0.8l1.1,0c0,0,0,0,0,0v0.2c0,0,0,0,0,0l-1.1,0h-0.8v1h0.5l1,0c0,0,0,0,0,0
				l0,0.8v0.3l0,0.9c0,0.2,0,0.4-0.2,0.4c-0.1,0.1-0.3,0.1-0.6,0.1c0,0-0.1,0-0.1,0c0,0,0,0,0-0.1c0-0.1-0.1-0.1-0.1-0.2
				c0.2,0,0.4,0,0.5,0c0.2,0,0.3-0.1,0.3-0.3v-1.7h-1.3v1.4l0,1.4c0,0,0,0,0,0H444c0,0,0,0,0,0L444,348z M446.7,346.3v-2.1
				c0-0.5,0-0.9,0-1c0.1,0,0.2,0,0.3,0c0,0,0.1,0,0.1,0.1l0,0.1c0,0.1,0,0.3,0,0.8v2.1l0,1c0,0,0,0,0,0h-0.2c0,0,0,0,0,0
				L446.7,346.3z M448.5,343.5v4.2l0,0.9c0,0.3-0.1,0.4-0.2,0.5c-0.1,0-0.2,0.1-0.3,0.1c-0.1,0-0.3,0-0.5,0c-0.1,0-0.1,0-0.2,0
				c0,0-0.1,0-0.1,0s0,0,0-0.1c0-0.1,0-0.1-0.1-0.2c0.2,0,0.4,0,0.7,0c0.2,0,0.3,0,0.4-0.1s0.1-0.2,0.1-0.3v-5.1
				c0-0.4,0-0.7-0.1-0.9c0.1,0,0.2,0,0.3,0c0,0,0.1,0,0.1,0s0,0.1,0,0.1C448.5,343,448.5,343.1,448.5,343.5z"/>
			<path d="M450.1,346c0.9-0.9,1.5-1.9,1.9-3.1c0.1-0.2,0.1-0.4,0.1-0.5c0.1,0,0.2,0.1,0.3,0.1c0,0,0.1,0,0.1,0.1c0,0,0,0.1,0,0.1
				c0,0-0.1,0.1-0.2,0.3c-0.2,0.5-0.4,0.9-0.6,1.2v3.9l0,1.3c0,0,0,0,0,0h-0.2c0,0,0,0,0,0l0-1.3v-2.2c0-0.5,0-1,0-1.4
				c-0.3,0.5-0.6,1-1.1,1.4c0,0,0,0-0.1,0s0,0-0.1,0C450.2,346,450.2,346,450.1,346z M452.3,345.7c0.4-0.4,0.7-0.9,1-1.5
				c0.2-0.5,0.4-0.9,0.5-1.2c0-0.2,0.1-0.4,0.1-0.5c0.1,0,0.2,0.1,0.3,0.1c0,0,0.1,0,0.1,0.1s0,0.1,0,0.1s-0.1,0.1-0.1,0.3
				c-0.1,0.4-0.3,0.7-0.4,1h2.5l1,0c0,0,0,0,0,0v0.2c0,0,0,0,0,0l-1,0h-1.4v1.4h1.4l0.7,0c0,0,0,0,0,0v0.2c0,0,0,0,0,0l-0.7,0h-1.4
				v1.4h1.4l0.7,0c0,0,0,0,0,0v0.2c0,0,0,0,0,0l-0.7,0h-1.4v0.8l0,1.2c0,0,0,0,0,0h-0.2c0,0,0,0,0,0l0-1.2v-4h-0.9
				c-0.3,0.6-0.7,1.1-1,1.6c0,0-0.1,0.1-0.1,0.1s0,0-0.1,0C452.4,345.7,452.3,345.7,452.3,345.7z"/>
			<path d="M459,344.7c0.7-0.1,1.4-0.2,2.1-0.4v-0.8h-1.5l-0.8,0c0,0,0,0,0,0v-0.2c0,0,0,0,0,0l0.8,0h1.5v0c0-0.4,0-0.7-0.1-0.9
				c0.1,0,0.2,0,0.3,0c0,0,0.1,0,0.1,0c0,0,0,0,0,0.1c0,0.1,0,0.3,0,0.6v1.1l0,0.8c0,0,0,0,0,0h-0.2c0,0,0,0,0,0c0,0,0,0,0-0.1
				c0-0.2,0-0.4,0-0.6c-0.6,0.1-1.3,0.3-2,0.4c-0.2,0-0.3,0.1-0.3,0.1c0,0-0.1,0-0.1,0c0,0-0.1,0-0.1-0.1c0-0.1-0.1-0.1-0.1-0.2
				C458.7,344.7,458.9,344.7,459,344.7z M464.1,346.7v1.2l0,0.9c0,0.2-0.1,0.4-0.2,0.5c-0.1,0.1-0.4,0.1-0.8,0.1c0,0-0.1,0-0.1,0
				c0,0-0.1,0-0.1,0c0,0,0,0,0-0.1c0-0.1-0.1-0.1-0.1-0.2c0.2,0,0.4,0,0.7,0c0.2,0,0.3-0.1,0.3-0.4v-0.8h-3.6v0.6l0,0.9c0,0,0,0,0,0
				H460c0,0,0,0,0,0l0-0.9v-1.9l0-0.9c0,0,0,0,0,0l1.1,0h1.9l1.1,0c0,0,0,0,0,0L464.1,346.7z M460.2,345.9v0.8h3.6v-0.8H460.2z
				 M460.2,346.9v0.8h3.6v-0.8H460.2z M462.7,343.3v0.5c0.7-0.2,1.2-0.4,1.6-0.6c0.2-0.1,0.3-0.2,0.4-0.3c0.1,0.1,0.2,0.1,0.2,0.2
				c0,0,0,0.1,0,0.1s0,0-0.1,0c-0.1,0-0.2,0-0.3,0.1c-0.5,0.2-1.1,0.4-1.9,0.6v0.5c0,0.1,0,0.2,0,0.3s0.1,0.1,0.1,0.1
				c0.2,0,0.5,0,0.9,0c0.6,0,1,0,1.1-0.1c0.1-0.1,0.2-0.2,0.2-0.3c0-0.1,0-0.3,0-0.5c0,0,0.1,0.1,0.2,0.1c0,0,0.1,0.1,0.1,0.1
				c0,0,0,0,0,0c0,0.4-0.2,0.6-0.3,0.7c-0.1,0.1-0.6,0.2-1.2,0.2c-0.4,0-0.8,0-1-0.1c-0.2,0-0.3-0.2-0.3-0.5v-1.4c0-0.4,0-0.7,0-0.8
				c0.1,0,0.2,0,0.3,0c0,0,0.1,0,0.1,0.1c0,0,0,0.1,0,0.1C462.7,342.7,462.7,342.9,462.7,343.3z"/>
			<path d="M471.5,342.8l1.1,0c0,0,0,0,0,0l0,0.6v0.6l0,0.6c0,0,0,0,0,0l-1.1,0h-1.1v0.7h2.3l1,0c0,0,0,0,0,0v0.2c0,0,0,0,0,0l-1,0
				h-4.7l-1,0c0,0,0,0,0,0v-0.2c0,0,0,0,0,0l1,0h2.1v-0.7h-1l-1.1,0c0,0,0,0,0,0l0-0.6v-0.6l0-0.6c0,0,0,0,0,0l1.1,0H471.5z
				 M467.1,349.1c0.5-0.2,1-0.5,1.3-0.8c0.1-0.1,0.2-0.2,0.3-0.4c0.1,0.1,0.2,0.1,0.2,0.1c0,0,0,0.1,0,0.1c0,0,0,0-0.1,0.1
				c0,0-0.1,0.1-0.2,0.1c-0.4,0.4-0.9,0.6-1.4,0.9c0,0-0.1,0-0.1,0c0,0,0,0-0.1-0.1C467.2,349.2,467.2,349.1,467.1,349.1z
				 M469.8,349.1c0.2,0,0.3-0.1,0.3-0.3v-1.2h-0.9l-1.1,0c0,0,0,0,0,0l0-0.5v-0.3l0-0.5c0,0,0,0,0,0l1.1,0h2l1.1,0c0,0,0,0,0,0
				l0,0.5v0.3l0,0.5c0,0,0,0,0,0l-1.1,0h-0.9v0.6l0,0.6c0,0.2-0.1,0.4-0.2,0.5c-0.1,0.1-0.3,0.1-0.6,0.1c-0.1,0-0.2,0-0.3,0
				c0,0-0.1,0-0.1,0c0,0,0,0,0-0.1c0,0-0.1-0.1-0.1-0.2C469.4,349.1,469.6,349.1,469.8,349.1z M472.4,343h-4.2v0.6h4.2V343z
				 M472.4,344.5v-0.7h-4.2v0.7H472.4z M472.1,347.4v-0.9h-3.7v0.9H472.1z M471.5,348.1C471.5,348.1,471.5,348.1,471.5,348.1
				c0,0,0-0.1,0.1-0.1c0,0,0.1-0.1,0.1-0.1s0,0,0,0c0.5,0.5,1.1,0.8,1.7,1c-0.1,0-0.1,0.1-0.1,0.1c0,0,0,0.1-0.1,0.1c0,0,0,0-0.1,0
				C472.5,348.9,472,348.6,471.5,348.1z"/>
		</g>
	</g>
</g>
<g>
	<g>
		<rect x="324.8" y="332.1" class="st1" width="81.3" height="28"/>
		<path class="st0" d="M406.6,360.6h-82.3v-29h82.3V360.6z M325.3,359.6h80.3v-27h-80.3V359.6z"/>
	</g>
	<g>
		<g>
			<path d="M351.6,348v-1.4h-1.3v1.3l0,0.9c0,0,0,0,0,0h-0.2c0,0-0.1,0-0.1,0l0-0.9v-0.8l0-0.7c0,0,0,0,0.1,0l1,0h0.5v-1h-0.9
				l-1.1,0c0,0,0,0,0,0v-0.2c0,0,0,0,0,0l1.1,0h0.9V344h-1.1c-0.1,0.3-0.3,0.5-0.5,0.8c0,0-0.1,0-0.1,0c0,0,0,0-0.1,0
				c0,0-0.1,0-0.1-0.1c0.4-0.5,0.7-1,0.8-1.6c0-0.1,0-0.1,0-0.2c0.1,0,0.2,0,0.3,0.1c0,0,0.1,0,0.1,0.1s0,0,0,0.1
				c0,0-0.1,0.1-0.1,0.2c-0.1,0.2-0.1,0.4-0.2,0.5h1v-0.5c0-0.3,0-0.5-0.1-0.7c0.1,0,0.2,0,0.3,0c0,0,0.1,0,0.1,0c0,0,0,0,0,0.1
				c0,0.1,0,0.2,0,0.5v0.5h0.5l0.9,0c0,0,0.1,0,0.1,0v0.2c0,0,0,0-0.1,0l-0.9,0h-0.5v1.1h0.8l1.1,0c0,0,0.1,0,0.1,0v0.2
				c0,0,0,0-0.1,0l-1.1,0h-0.8v1h0.5l1,0c0,0,0,0,0,0l0,0.8v0.3l0,0.9c0,0.2,0,0.4-0.2,0.4c-0.1,0.1-0.3,0.1-0.6,0.1
				c-0.1,0-0.1,0-0.1,0c0,0,0,0,0-0.1c0-0.1-0.1-0.1-0.1-0.2c0.2,0,0.4,0,0.5,0c0.2,0,0.3-0.1,0.3-0.3v-1.7h-1.3v1.4l0,1.4
				c0,0,0,0-0.1,0h-0.2c0,0-0.1,0-0.1,0L351.6,348z M354.3,346.3v-2.1c0-0.5,0-0.9-0.1-1c0.1,0,0.2,0,0.3,0c0,0,0.1,0,0.1,0.1l0,0.1
				c0,0.1,0,0.3,0,0.8v2.1l0,1c0,0,0,0-0.1,0h-0.2c0,0,0,0,0,0L354.3,346.3z M356.1,343.5v4.2l0,0.9c0,0.3-0.1,0.4-0.2,0.5
				c-0.1,0-0.2,0.1-0.3,0.1c-0.1,0-0.3,0-0.5,0c-0.1,0-0.1,0-0.2,0c0,0-0.1,0-0.1,0s0,0,0-0.1c0-0.1,0-0.1-0.1-0.2
				c0.2,0,0.4,0,0.7,0c0.2,0,0.3,0,0.4-0.1s0.1-0.2,0.1-0.3v-5.1c0-0.4,0-0.7-0.1-0.9c0.1,0,0.2,0,0.3,0c0.1,0,0.1,0,0.1,0
				s0,0.1,0,0.1C356.1,343,356.1,343.1,356.1,343.5z"/>
			<path d="M357.8,346c0.9-0.9,1.5-1.9,1.9-3.1c0.1-0.2,0.1-0.4,0.1-0.5c0.1,0,0.2,0.1,0.3,0.1c0,0,0.1,0,0.1,0.1c0,0,0,0.1-0.1,0.1
				c-0.1,0-0.1,0.1-0.2,0.3c-0.2,0.5-0.4,0.9-0.6,1.2v3.9l0,1.3c0,0,0,0-0.1,0h-0.2c0,0-0.1,0-0.1,0l0-1.3v-2.2c0-0.5,0-1,0-1.4
				c-0.3,0.5-0.7,1-1.1,1.4c0,0-0.1,0-0.1,0c0,0,0,0-0.1,0C357.9,346,357.8,346,357.8,346z M359.9,345.7c0.4-0.4,0.7-0.9,1-1.5
				c0.2-0.5,0.4-0.9,0.5-1.2c0-0.2,0.1-0.4,0.1-0.5c0.1,0,0.2,0.1,0.3,0.1c0,0,0.1,0,0.1,0.1s0,0.1-0.1,0.1s-0.1,0.1-0.1,0.3
				c-0.1,0.4-0.3,0.7-0.4,1h2.4l1,0c0,0,0,0,0,0v0.2c0,0,0,0,0,0l-1,0h-1.4v1.4h1.4l0.7,0c0,0,0,0,0,0v0.2c0,0,0,0,0,0l-0.7,0h-1.4
				v1.4h1.4l0.7,0c0,0,0.1,0,0.1,0v0.2c0,0,0,0-0.1,0l-0.7,0h-1.4v0.8l0,1.2c0,0,0,0,0,0h-0.2c0,0-0.1,0-0.1,0l0-1.2v-4h-0.9
				c-0.3,0.6-0.7,1.1-1,1.6c0,0-0.1,0.1-0.1,0.1s0,0-0.1,0C360,345.7,359.9,345.7,359.9,345.7z"/>
			<path d="M366.6,344.7c0.7-0.1,1.4-0.2,2.1-0.4v-0.8h-1.5l-0.8,0c0,0-0.1,0-0.1,0v-0.2c0,0,0,0,0.1,0l0.8,0h1.5v0
				c0-0.4,0-0.7-0.1-0.9c0.1,0,0.2,0,0.3,0c0.1,0,0.1,0,0.1,0c0,0,0,0,0,0.1c0,0.1,0,0.3,0,0.6v1.1l0,0.8c0,0,0,0-0.1,0h-0.2
				c0,0,0,0,0,0c0,0,0,0,0-0.1c0-0.2,0-0.4,0-0.6c-0.6,0.1-1.3,0.3-2,0.4c-0.2,0-0.3,0.1-0.3,0.1c0,0-0.1,0-0.1,0c0,0-0.1,0-0.1-0.1
				c0-0.1-0.1-0.1-0.1-0.2C366.3,344.7,366.5,344.7,366.6,344.7z M371.7,346.7v1.2l0,0.9c0,0.2-0.1,0.4-0.2,0.5
				c-0.1,0.1-0.4,0.1-0.8,0.1c0,0-0.1,0-0.1,0c-0.1,0-0.1,0-0.1,0c0,0,0,0,0-0.1c0-0.1-0.1-0.1-0.1-0.2c0.2,0,0.4,0,0.7,0
				c0.2,0,0.3-0.1,0.3-0.4v-0.8h-3.6v0.6l0,0.9c0,0,0,0,0,0h-0.2c0,0,0,0,0,0l0-0.9v-1.9l0-0.9c0,0,0,0,0,0l1.1,0h1.9l1.1,0
				c0,0,0,0,0,0L371.7,346.7z M367.8,345.9v0.8h3.6v-0.8H367.8z M367.8,346.9v0.8h3.6v-0.8H367.8z M370.3,343.3v0.5
				c0.7-0.2,1.2-0.4,1.6-0.6c0.2-0.1,0.3-0.2,0.4-0.3c0.1,0.1,0.2,0.1,0.2,0.2c0,0,0.1,0.1,0.1,0.1s0,0-0.1,0c-0.1,0-0.2,0-0.3,0.1
				c-0.5,0.2-1.1,0.4-1.9,0.6v0.5c0,0.1,0,0.2,0,0.3c0,0,0.1,0.1,0.2,0.1c0.2,0,0.5,0,0.9,0c0.6,0,1,0,1.1-0.1
				c0.1-0.1,0.2-0.2,0.2-0.3c0-0.1,0.1-0.3,0.1-0.5c0.1,0,0.1,0.1,0.2,0.1c0,0,0.1,0.1,0.1,0.1c0,0,0,0,0,0
				c-0.1,0.4-0.2,0.6-0.3,0.7c-0.1,0.1-0.6,0.2-1.2,0.2c-0.4,0-0.8,0-1-0.1c-0.2,0-0.3-0.2-0.3-0.5v-1.4c0-0.4,0-0.7-0.1-0.8
				c0.1,0,0.2,0,0.3,0c0,0,0.1,0,0.1,0.1c0,0,0,0.1-0.1,0.1C370.3,342.7,370.3,342.9,370.3,343.3z"/>
			<path d="M379.1,342.8l1.1,0c0,0,0,0,0,0l0,0.6v0.6l0,0.6c0,0,0,0,0,0l-1.1,0h-1.1v0.7h2.3l1,0c0,0,0,0,0,0v0.2c0,0,0,0,0,0l-1,0
				h-4.7l-1,0c0,0,0,0,0,0v-0.2c0,0,0,0,0,0l1,0h2.2v-0.7h-1l-1.1,0c0,0-0.1,0-0.1,0l0-0.6v-0.6l0-0.6c0,0,0,0,0.1,0l1.1,0H379.1z
				 M374.7,349.1c0.5-0.2,1-0.5,1.3-0.8c0.1-0.1,0.2-0.2,0.3-0.4c0.1,0.1,0.2,0.1,0.2,0.1c0,0,0.1,0.1,0.1,0.1c0,0,0,0-0.1,0.1
				c0,0-0.1,0.1-0.2,0.1c-0.4,0.4-0.9,0.6-1.4,0.9c0,0-0.1,0-0.1,0c0,0,0,0-0.1-0.1C374.8,349.2,374.8,349.1,374.7,349.1z
				 M377.4,349.1c0.2,0,0.3-0.1,0.3-0.3v-1.2h-0.9l-1.1,0c0,0,0,0,0,0l0-0.5v-0.3l0-0.5c0,0,0,0,0,0l1.1,0h2l1.1,0c0,0,0.1,0,0.1,0
				l0,0.5v0.3l0,0.5c0,0,0,0-0.1,0l-1.1,0H378v0.6l0,0.6c0,0.2-0.1,0.4-0.2,0.5c-0.1,0.1-0.3,0.1-0.6,0.1c-0.1,0-0.2,0-0.3,0
				c0,0-0.1,0-0.1,0c0,0,0,0,0-0.1c0,0-0.1-0.1-0.1-0.2C377,349.1,377.2,349.1,377.4,349.1z M380,343h-4.2v0.6h4.2V343z M380,344.5
				v-0.7h-4.2v0.7H380z M379.8,347.4v-0.9H376v0.9H379.8z M379.2,348.1C379.2,348.1,379.1,348.1,379.2,348.1c0,0,0-0.1,0.1-0.1
				s0.1-0.1,0.1-0.1s0,0,0,0c0.6,0.5,1.1,0.8,1.7,1c-0.1,0-0.1,0.1-0.1,0.1c0,0,0,0.1-0.1,0.1c0,0,0,0-0.1,0
				C380.2,348.9,379.6,348.6,379.2,348.1z"/>
		</g>
	</g>
</g>
<g>
	<g>
		<rect x="232.5" y="332.1" class="st1" width="81.3" height="28"/>
		<path class="st0" d="M314.2,360.6H232v-29h82.3V360.6z M233,359.6h80.3v-27H233V359.6z"/>
	</g>
	<g>
		<g>
			<path d="M259.2,348v-1.4h-1.3v1.3l0,0.9c0,0,0,0,0,0h-0.2c0,0-0.1,0-0.1,0l0-0.9v-0.8l0-0.7c0,0,0,0,0.1,0l1,0h0.5v-1h-0.9
				l-1.1,0c0,0,0,0,0,0v-0.2c0,0,0,0,0,0l1.1,0h0.9V344h-1.1c-0.1,0.3-0.3,0.5-0.5,0.8c0,0-0.1,0-0.1,0c0,0,0,0-0.1,0
				c0,0-0.1,0-0.1-0.1c0.4-0.5,0.7-1,0.8-1.6c0-0.1,0-0.1,0-0.2c0.1,0,0.2,0,0.3,0.1c0,0,0.1,0,0.1,0.1s0,0,0,0.1
				c0,0-0.1,0.1-0.1,0.2c-0.1,0.2-0.1,0.4-0.2,0.5h1v-0.5c0-0.3,0-0.5,0-0.7c0.1,0,0.2,0,0.3,0c0.1,0,0.1,0,0.1,0c0,0,0,0,0,0.1
				c0,0.1,0,0.2,0,0.5v0.5h0.5l0.9,0c0,0,0.1,0,0.1,0v0.2c0,0,0,0-0.1,0l-0.9,0h-0.5v1.1h0.8l1.1,0c0,0,0.1,0,0.1,0v0.2
				c0,0,0,0-0.1,0l-1.1,0h-0.8v1h0.5l1,0c0,0,0.1,0,0.1,0l0,0.8v0.3l0,0.9c0,0.2,0,0.4-0.2,0.4c-0.1,0.1-0.3,0.1-0.6,0.1
				c-0.1,0-0.1,0-0.1,0c0,0,0,0,0-0.1c0-0.1-0.1-0.1-0.1-0.2c0.2,0,0.4,0,0.5,0c0.2,0,0.3-0.1,0.3-0.3v-1.7h-1.3v1.4l0,1.4
				c0,0,0,0,0,0h-0.2c0,0,0,0,0,0L259.2,348z M261.9,346.3v-2.1c0-0.5,0-0.9-0.1-1c0.1,0,0.2,0,0.3,0c0,0,0.1,0,0.1,0.1l0,0.1
				c0,0.1,0,0.3,0,0.8v2.1l0,1c0,0,0,0,0,0h-0.2c0,0,0,0,0,0L261.9,346.3z M263.7,343.5v4.2l0,0.9c0,0.3-0.1,0.4-0.2,0.5
				c-0.1,0-0.2,0.1-0.3,0.1c-0.1,0-0.3,0-0.5,0c-0.1,0-0.1,0-0.2,0c-0.1,0-0.1,0-0.1,0c0,0,0,0,0-0.1c0-0.1,0-0.1-0.1-0.2
				c0.2,0,0.4,0,0.7,0c0.2,0,0.3,0,0.4-0.1s0.1-0.2,0.1-0.3v-5.1c0-0.4,0-0.7-0.1-0.9c0.1,0,0.2,0,0.3,0c0.1,0,0.1,0,0.1,0
				s0,0.1,0,0.1C263.7,343,263.7,343.1,263.7,343.5z"/>
			<path d="M265.4,346c0.9-0.9,1.5-1.9,1.9-3.1c0.1-0.2,0.1-0.4,0.1-0.5c0.1,0,0.2,0.1,0.3,0.1c0,0,0.1,0,0.1,0.1c0,0,0,0.1,0,0.1
				c-0.1,0-0.1,0.1-0.2,0.3c-0.2,0.5-0.4,0.9-0.6,1.2v3.9l0,1.3c0,0,0,0,0,0h-0.2c0,0-0.1,0-0.1,0l0-1.3v-2.2c0-0.5,0-1,0-1.4
				c-0.3,0.5-0.6,1-1.1,1.4c0,0,0,0-0.1,0s0,0-0.1,0C265.5,346,265.4,346,265.4,346z M267.5,345.7c0.4-0.4,0.7-0.9,1-1.5
				c0.2-0.5,0.4-0.9,0.5-1.2c0.1-0.2,0.1-0.4,0.1-0.5c0.1,0,0.2,0.1,0.3,0.1c0,0,0.1,0,0.1,0.1s0,0.1,0,0.1c0,0-0.1,0.1-0.1,0.3
				c-0.1,0.4-0.3,0.7-0.4,1h2.4l1,0c0,0,0.1,0,0.1,0v0.2c0,0,0,0-0.1,0l-1,0h-1.4v1.4h1.4l0.7,0c0,0,0.1,0,0.1,0v0.2c0,0,0,0-0.1,0
				l-0.7,0h-1.4v1.4h1.4l0.7,0c0,0,0.1,0,0.1,0v0.2c0,0,0,0-0.1,0l-0.7,0h-1.4v0.8l0,1.2c0,0,0,0,0,0h-0.2c0,0,0,0,0,0l0-1.2v-4
				h-0.9c-0.3,0.6-0.7,1.1-1,1.6c0,0-0.1,0.1-0.1,0.1s0,0-0.1,0C267.6,345.7,267.6,345.7,267.5,345.7z"/>
			<path d="M274.2,344.7c0.7-0.1,1.4-0.2,2.1-0.4v-0.8h-1.5l-0.8,0c0,0,0,0,0,0v-0.2c0,0,0,0,0,0l0.8,0h1.5v0c0-0.4,0-0.7-0.1-0.9
				c0.1,0,0.2,0,0.3,0c0,0,0.1,0,0.1,0c0,0,0,0,0,0.1c0,0.1,0,0.3,0,0.6v1.1l0,0.8c0,0,0,0-0.1,0h-0.2c0,0-0.1,0-0.1,0
				c0,0,0,0,0-0.1c0-0.2,0-0.4,0-0.6c-0.6,0.1-1.3,0.3-2,0.4c-0.2,0-0.3,0.1-0.3,0.1c0,0-0.1,0-0.1,0c0,0-0.1,0-0.1-0.1
				c0-0.1-0.1-0.1-0.1-0.2C273.9,344.7,274.1,344.7,274.2,344.7z M279.3,346.7v1.2l0,0.9c0,0.2-0.1,0.4-0.2,0.5
				c-0.1,0.1-0.4,0.1-0.8,0.1c0,0-0.1,0-0.1,0c-0.1,0-0.1,0-0.1,0c0,0,0,0,0-0.1c0-0.1-0.1-0.1-0.1-0.2c0.2,0,0.4,0,0.7,0
				c0.2,0,0.3-0.1,0.3-0.4v-0.8h-3.6v0.6l0,0.9c0,0,0,0,0,0h-0.2c0,0,0,0,0,0l0-0.9v-1.9l0-0.9c0,0,0,0,0,0l1.1,0h1.9l1.1,0
				c0,0,0,0,0,0L279.3,346.7z M275.4,345.9v0.8h3.6v-0.8H275.4z M275.4,346.9v0.8h3.6v-0.8H275.4z M277.9,343.3v0.5
				c0.7-0.2,1.2-0.4,1.6-0.6c0.2-0.1,0.3-0.2,0.4-0.3c0.1,0.1,0.2,0.1,0.2,0.2c0,0,0,0.1,0,0.1s0,0-0.1,0c-0.1,0-0.2,0-0.3,0.1
				c-0.5,0.2-1.1,0.4-1.9,0.6v0.5c0,0.1,0,0.2,0,0.3s0.1,0.1,0.1,0.1c0.2,0,0.5,0,0.9,0c0.6,0,1,0,1.1-0.1c0.1-0.1,0.2-0.2,0.2-0.3
				c0-0.1,0.1-0.3,0.1-0.5c0,0,0.1,0.1,0.2,0.1c0.1,0,0.1,0.1,0.1,0.1c0,0,0,0,0,0c0,0.4-0.2,0.6-0.3,0.7c-0.1,0.1-0.6,0.2-1.2,0.2
				c-0.4,0-0.8,0-1-0.1c-0.2,0-0.3-0.2-0.3-0.5v-1.4c0-0.4,0-0.7,0-0.8c0.1,0,0.2,0,0.3,0c0,0,0.1,0,0.1,0.1c0,0,0,0.1-0.1,0.1
				C277.9,342.7,277.9,342.9,277.9,343.3z"/>
			<path d="M286.7,342.8l1.1,0c0,0,0,0,0,0l0,0.6v0.6l0,0.6c0,0,0,0,0,0l-1.1,0h-1.1v0.7h2.3l1,0c0,0,0,0,0,0v0.2c0,0,0,0,0,0l-1,0
				h-4.7l-1,0c0,0,0,0,0,0v-0.2c0,0,0,0,0,0l1,0h2.2v-0.7h-1l-1.1,0c0,0-0.1,0-0.1,0l0-0.6v-0.6l0-0.6c0,0,0,0,0.1,0l1.1,0H286.7z
				 M282.4,349.1c0.5-0.2,1-0.5,1.3-0.8c0.1-0.1,0.2-0.2,0.3-0.4c0.1,0.1,0.2,0.1,0.2,0.1c0,0,0,0.1,0,0.1c0,0,0,0-0.1,0.1
				c0,0-0.1,0.1-0.2,0.1c-0.4,0.4-0.9,0.6-1.4,0.9c0,0-0.1,0-0.1,0c0,0,0,0-0.1-0.1C282.4,349.2,282.4,349.1,282.4,349.1z
				 M285.1,349.1c0.2,0,0.3-0.1,0.3-0.3v-1.2h-0.9l-1.1,0c0,0,0,0,0,0l0-0.5v-0.3l0-0.5c0,0,0,0,0,0l1.1,0h2l1.1,0c0,0,0.1,0,0.1,0
				l0,0.5v0.3l0,0.5c0,0,0,0-0.1,0l-1.1,0h-0.9v0.6l0,0.6c0,0.2-0.1,0.4-0.2,0.5c-0.1,0.1-0.3,0.1-0.6,0.1c-0.1,0-0.2,0-0.3,0
				c0,0-0.1,0-0.1,0c0,0,0,0,0-0.1c0,0-0.1-0.1-0.1-0.2C284.6,349.1,284.8,349.1,285.1,349.1z M287.6,343h-4.2v0.6h4.2V343z
				 M287.6,344.5v-0.7h-4.2v0.7H287.6z M287.4,347.4v-0.9h-3.7v0.9H287.4z M286.8,348.1C286.8,348.1,286.8,348.1,286.8,348.1
				c0,0,0-0.1,0.1-0.1c0,0,0.1-0.1,0.1-0.1c0,0,0,0,0,0c0.6,0.5,1.1,0.8,1.7,1c-0.1,0-0.1,0.1-0.1,0.1c0,0,0,0.1-0.1,0.1
				c0,0,0,0-0.1,0C287.8,348.9,287.2,348.6,286.8,348.1z"/>
		</g>
	</g>
</g>
<g>
	<g>
		<rect x="140.1" y="332.1" class="st1" width="81.3" height="28"/>
		<path class="st0" d="M221.9,360.6h-82.3v-29h82.3L221.9,360.6L221.9,360.6z M140.6,359.6h80.3v-27h-80.3V359.6z"/>
	</g>
	<g>
		<g>
			<path d="M166.8,348v-1.4h-1.3v1.3l0,0.9c0,0,0,0-0.1,0h-0.2c0,0,0,0,0,0l0-0.9v-0.8l0-0.7c0,0,0,0,0,0l1,0h0.5v-1h-0.9l-1.1,0
				c0,0-0.1,0-0.1,0v-0.2c0,0,0,0,0.1,0l1.1,0h0.9V344h-1.1c-0.1,0.3-0.3,0.5-0.5,0.8c0,0-0.1,0-0.1,0c0,0,0,0-0.1,0
				c0,0-0.1,0-0.1-0.1c0.4-0.5,0.7-1,0.8-1.6c0-0.1,0-0.1,0-0.2c0.1,0,0.2,0,0.3,0.1c0,0,0.1,0,0.1,0.1s0,0,0,0.1
				c0,0-0.1,0.1-0.1,0.2c-0.1,0.2-0.1,0.4-0.2,0.5h1v-0.5c0-0.3,0-0.5-0.1-0.7c0.1,0,0.2,0,0.3,0c0.1,0,0.1,0,0.1,0c0,0,0,0,0,0.1
				c0,0.1-0.1,0.2-0.1,0.5v0.5h0.5l0.9,0c0,0,0.1,0,0.1,0v0.2c0,0,0,0-0.1,0l-0.9,0h-0.5v1.1h0.8l1.1,0c0,0,0.1,0,0.1,0v0.2
				c0,0,0,0-0.1,0l-1.1,0h-0.8v1h0.5l1,0c0,0,0.1,0,0.1,0l0,0.8v0.3l0,0.9c0,0.2-0.1,0.4-0.2,0.4c-0.1,0.1-0.3,0.1-0.6,0.1
				c-0.1,0-0.1,0-0.1,0c0,0,0,0,0-0.1c0-0.1-0.1-0.1-0.1-0.2c0.2,0,0.3,0,0.5,0c0.2,0,0.3-0.1,0.3-0.3v-1.7H167v1.4l0,1.4
				c0,0,0,0,0,0h-0.2c0,0-0.1,0-0.1,0L166.8,348z M169.5,346.3v-2.1c0-0.5,0-0.9-0.1-1c0.1,0,0.2,0,0.3,0c0,0,0.1,0,0.1,0.1l0,0.1
				c0,0.1,0,0.3,0,0.8v2.1l0,1c0,0,0,0-0.1,0h-0.2c0,0-0.1,0-0.1,0L169.5,346.3z M171.3,343.5v4.2l0,0.9c0,0.3-0.1,0.4-0.2,0.5
				c-0.1,0-0.2,0.1-0.3,0.1c-0.1,0-0.3,0-0.5,0c-0.1,0-0.1,0-0.2,0c-0.1,0-0.1,0-0.1,0s0,0,0-0.1c0-0.1-0.1-0.1-0.1-0.2
				c0.2,0,0.4,0,0.7,0c0.2,0,0.3,0,0.4-0.1c0.1-0.1,0.1-0.2,0.1-0.3v-5.1c0-0.4,0-0.7-0.1-0.9c0.1,0,0.2,0,0.3,0c0.1,0,0.1,0,0.1,0
				s0,0.1-0.1,0.1C171.4,343,171.3,343.1,171.3,343.5z"/>
			<path d="M173,346c0.9-0.9,1.5-1.9,1.9-3.1c0.1-0.2,0.1-0.4,0.1-0.5c0.1,0,0.2,0.1,0.3,0.1c0,0,0.1,0,0.1,0.1c0,0,0,0.1-0.1,0.1
				c0,0-0.1,0.1-0.2,0.3c-0.2,0.5-0.4,0.9-0.6,1.2v3.9l0,1.3c0,0,0,0-0.1,0h-0.2c0,0-0.1,0-0.1,0l0-1.3v-2.2c0-0.5,0-1,0-1.4
				c-0.3,0.5-0.7,1-1.1,1.4c0,0-0.1,0-0.1,0c0,0,0,0-0.1,0C173.1,346,173.1,346,173,346z M175.1,345.7c0.4-0.4,0.7-0.9,1-1.5
				c0.2-0.5,0.4-0.9,0.5-1.2c0-0.2,0.1-0.4,0.1-0.5c0.1,0,0.2,0.1,0.3,0.1c0,0,0.1,0,0.1,0.1s0,0.1-0.1,0.1s-0.1,0.1-0.1,0.3
				c-0.1,0.4-0.3,0.7-0.4,1h2.5l1,0c0,0,0.1,0,0.1,0v0.2c0,0,0,0-0.1,0l-1,0h-1.4v1.4h1.4l0.7,0c0,0,0.1,0,0.1,0v0.2c0,0,0,0-0.1,0
				l-0.7,0h-1.4v1.4h1.4l0.7,0c0,0,0.1,0,0.1,0v0.2c0,0,0,0-0.1,0l-0.7,0h-1.4v0.8l0,1.2c0,0,0,0,0,0h-0.2c0,0-0.1,0-0.1,0l0-1.2v-4
				h-0.9c-0.3,0.6-0.7,1.1-1,1.6c0,0-0.1,0.1-0.1,0.1c0,0,0,0-0.1,0C175.2,345.7,175.2,345.7,175.1,345.7z"/>
			<path d="M181.8,344.7c0.7-0.1,1.4-0.2,2.1-0.4v-0.8h-1.5l-0.8,0c0,0-0.1,0-0.1,0v-0.2c0,0,0,0,0.1,0l0.8,0h1.5v0
				c0-0.4,0-0.7-0.1-0.9c0.1,0,0.2,0,0.3,0c0.1,0,0.1,0,0.1,0c0,0,0,0,0,0.1c0,0.1,0,0.3,0,0.6v1.1l0,0.8c0,0,0,0,0,0h-0.2
				c0,0-0.1,0-0.1,0c0,0,0,0,0-0.1c0-0.2,0-0.4,0-0.6c-0.6,0.1-1.3,0.3-2,0.4c-0.2,0-0.3,0.1-0.3,0.1c0,0-0.1,0-0.1,0
				c0,0-0.1,0-0.1-0.1c0-0.1-0.1-0.1-0.1-0.2C181.6,344.7,181.7,344.7,181.8,344.7z M186.9,346.7v1.2l0,0.9c0,0.2-0.1,0.4-0.2,0.5
				c-0.1,0.1-0.4,0.1-0.8,0.1c0,0-0.1,0-0.2,0c0,0-0.1,0-0.1,0c0,0,0,0,0-0.1c0-0.1-0.1-0.1-0.1-0.2c0.2,0,0.4,0,0.7,0
				c0.2,0,0.3-0.1,0.3-0.4v-0.8H183v0.6l0,0.9c0,0,0,0,0,0h-0.2c0,0-0.1,0-0.1,0l0-0.9v-1.9l0-0.9c0,0,0,0,0.1,0l1.1,0h1.9l1.1,0
				c0,0,0.1,0,0.1,0L186.9,346.7z M183,345.9v0.8h3.6v-0.8H183z M183,346.9v0.8h3.6v-0.8H183z M185.5,343.3v0.5
				c0.7-0.2,1.2-0.4,1.6-0.6c0.2-0.1,0.3-0.2,0.4-0.3c0.1,0.1,0.2,0.1,0.2,0.2c0,0,0.1,0.1,0.1,0.1s0,0-0.1,0c-0.1,0-0.2,0-0.3,0.1
				c-0.5,0.2-1.1,0.4-1.9,0.6v0.5c0,0.1,0,0.2,0,0.3c0,0,0.1,0.1,0.1,0.1c0.2,0,0.5,0,0.9,0c0.6,0,1,0,1.1-0.1
				c0.1-0.1,0.2-0.2,0.2-0.3c0-0.1,0.1-0.3,0.1-0.5c0,0,0.1,0.1,0.2,0.1c0,0,0.1,0.1,0.1,0.1c0,0,0,0,0,0c0,0.4-0.2,0.6-0.3,0.7
				c-0.2,0.1-0.6,0.2-1.2,0.2c-0.4,0-0.8,0-1-0.1c-0.2,0-0.3-0.2-0.3-0.5v-1.4c0-0.4,0-0.7-0.1-0.8c0.1,0,0.2,0,0.3,0
				c0.1,0,0.1,0,0.1,0.1c0,0,0,0.1-0.1,0.1C185.5,342.7,185.5,342.9,185.5,343.3z"/>
			<path d="M194.3,342.8l1.1,0c0,0,0.1,0,0.1,0l0,0.6v0.6l0,0.6c0,0,0,0-0.1,0l-1.1,0h-1.1v0.7h2.3l1.1,0c0,0,0.1,0,0.1,0v0.2
				c0,0,0,0-0.1,0l-1.1,0h-4.7l-1.1,0c0,0-0.1,0-0.1,0v-0.2c0,0,0,0,0.1,0l1.1,0h2.1v-0.7h-1l-1.1,0c0,0-0.1,0-0.1,0l0-0.6v-0.6
				l0-0.6c0,0,0,0,0.1,0l1.1,0H194.3z M190,349.1c0.5-0.2,1-0.5,1.3-0.8c0.1-0.1,0.2-0.2,0.3-0.4c0.1,0.1,0.2,0.1,0.2,0.1
				c0,0,0.1,0.1,0.1,0.1c0,0,0,0-0.1,0.1c0,0-0.1,0.1-0.2,0.1c-0.4,0.4-0.9,0.6-1.4,0.9c0,0-0.1,0-0.1,0c0,0,0,0-0.1-0.1
				C190.1,349.2,190,349.1,190,349.1z M192.7,349.1c0.2,0,0.3-0.1,0.3-0.3v-1.2h-0.9l-1.1,0c0,0-0.1,0-0.1,0l0-0.5v-0.3l0-0.5
				c0,0,0,0,0.1,0l1.1,0h2l1.1,0c0,0,0.1,0,0.1,0l0,0.5v0.3l0,0.5c0,0,0,0-0.1,0l-1.1,0h-0.9v0.6l0,0.6c0,0.2-0.1,0.4-0.2,0.5
				c-0.1,0.1-0.3,0.1-0.6,0.1c-0.1,0-0.2,0-0.3,0c-0.1,0-0.1,0-0.1,0c0,0,0,0,0-0.1c0,0-0.1-0.1-0.1-0.2
				C192.2,349.1,192.5,349.1,192.7,349.1z M195.2,343H191v0.6h4.2V343z M195.2,344.5v-0.7H191v0.7H195.2z M195,347.4v-0.9h-3.7v0.9
				H195z M194.4,348.1C194.4,348.1,194.4,348.1,194.4,348.1c0,0,0-0.1,0.1-0.1s0.1-0.1,0.1-0.1c0,0,0,0,0,0c0.6,0.5,1.1,0.8,1.7,1
				c-0.1,0-0.1,0.1-0.1,0.1c0,0,0,0.1-0.1,0.1c0,0,0,0-0.1,0C195.4,348.9,194.9,348.6,194.4,348.1z"/>
		</g>
	</g>
</g>
<g>
	<g>
		<rect x="416.8" y="395.5" class="st1" width="81.3" height="28"/>
		<path class="st0" d="M498.5,424h-82.3v-29h82.3V424z M417.3,423h80.3v-27h-80.3V423z"/>
	</g>
	<g>
		<g>
			<path d="M443.5,411.4v-1.4h-1.3v1.3l0,0.9c0,0,0,0,0,0H442c0,0,0,0,0,0l0-0.9v-0.8l0-0.7c0,0,0,0,0,0l1,0h0.5v-1h-0.9l-1.1,0
				c0,0,0,0,0,0v-0.2c0,0,0,0,0,0l1.1,0h0.9v-1.1h-1.1c-0.1,0.3-0.3,0.5-0.5,0.8c0,0,0,0-0.1,0s0,0-0.1,0c0,0-0.1,0-0.1-0.1
				c0.4-0.5,0.7-1,0.8-1.6c0-0.1,0-0.1,0-0.2c0.1,0,0.2,0,0.3,0.1c0,0,0.1,0,0.1,0.1s0,0,0,0.1c0,0-0.1,0.1-0.1,0.2
				c-0.1,0.2-0.1,0.4-0.2,0.5h1v-0.5c0-0.3,0-0.5,0-0.7c0.1,0,0.2,0,0.3,0c0,0,0.1,0,0.1,0c0,0,0,0,0,0.1c0,0.1,0,0.2,0,0.5v0.5h0.5
				l0.9,0c0,0,0,0,0,0v0.2c0,0,0,0,0,0l-0.9,0h-0.5v1.1h0.8l1.1,0c0,0,0,0,0,0v0.2c0,0,0,0,0,0l-1.1,0h-0.8v1h0.5l1,0c0,0,0,0,0,0
				l0,0.8v0.3l0,0.9c0,0.2,0,0.4-0.2,0.4c-0.1,0.1-0.3,0.1-0.6,0.1c0,0-0.1,0-0.1,0c0,0,0,0,0-0.1c0-0.1-0.1-0.1-0.1-0.2
				c0.2,0,0.4,0,0.5,0c0.2,0,0.3-0.1,0.3-0.3v-1.7h-1.3v1.4l0,1.4c0,0,0,0,0,0h-0.2c0,0,0,0,0,0L443.5,411.4z M446.2,409.7v-2.1
				c0-0.5,0-0.9,0-1c0.1,0,0.2,0,0.3,0c0,0,0.1,0,0.1,0.1l0,0.1c0,0.1,0,0.3,0,0.8v2.1l0,1c0,0,0,0,0,0h-0.2c0,0,0,0,0,0
				L446.2,409.7z M448,406.9v4.2l0,0.9c0,0.3-0.1,0.4-0.2,0.5c-0.1,0-0.2,0.1-0.3,0.1c-0.1,0-0.3,0-0.5,0c-0.1,0-0.1,0-0.2,0
				c0,0-0.1,0-0.1,0s0,0,0-0.1c0-0.1,0-0.1-0.1-0.2c0.2,0,0.4,0,0.7,0c0.2,0,0.3,0,0.4-0.1s0.1-0.2,0.1-0.3v-5.1
				c0-0.4,0-0.7-0.1-0.9c0.1,0,0.2,0,0.3,0c0,0,0.1,0,0.1,0s0,0.1,0,0.1C448.1,406.4,448,406.5,448,406.9z"/>
			<path d="M449.7,409.4c0.9-0.9,1.5-1.9,1.9-3.1c0.1-0.2,0.1-0.4,0.1-0.5c0.1,0,0.2,0.1,0.3,0.1c0,0,0.1,0,0.1,0.1c0,0,0,0.1,0,0.1
				c0,0-0.1,0.1-0.2,0.3c-0.2,0.5-0.4,0.9-0.6,1.2v3.9l0,1.3c0,0,0,0,0,0h-0.2c0,0,0,0,0,0l0-1.3v-2.2c0-0.5,0-1,0-1.4
				c-0.3,0.5-0.6,1-1.1,1.4c0,0,0,0-0.1,0s0,0-0.1,0C449.8,409.4,449.8,409.4,449.7,409.4z M451.8,409.1c0.4-0.4,0.7-0.9,1-1.5
				c0.2-0.5,0.4-0.9,0.5-1.2c0-0.2,0.1-0.4,0.1-0.5c0.1,0,0.2,0.1,0.3,0.1c0,0,0.1,0,0.1,0.1s0,0.1,0,0.1s-0.1,0.1-0.1,0.3
				c-0.1,0.4-0.3,0.7-0.4,1h2.5l1,0c0,0,0,0,0,0v0.2c0,0,0,0,0,0l-1,0h-1.4v1.4h1.4l0.7,0c0,0,0,0,0,0v0.2c0,0,0,0,0,0l-0.7,0h-1.4
				v1.4h1.4l0.7,0c0,0,0,0,0,0v0.2c0,0,0,0,0,0l-0.7,0h-1.4v0.8l0,1.2c0,0,0,0,0,0H454c0,0,0,0,0,0l0-1.2v-4h-0.9
				c-0.3,0.6-0.7,1.1-1,1.6c0,0-0.1,0.1-0.1,0.1s0,0-0.1,0C451.9,409.1,451.9,409.1,451.8,409.1z"/>
			<path d="M458.4,412.5C458.4,412.5,458.4,412.5,458.4,412.5c0,0-0.1,0-0.1-0.1c0,0-0.1-0.1-0.1-0.1c0,0,0,0,0,0
				c0.5-0.4,0.8-0.8,1-1.2c0,0,0,0,0,0s0,0,0.1,0c0.1,0,0.1,0.1,0.1,0.1c0,0,0,0,0,0C459.2,411.8,458.9,412.1,458.4,412.5z
				 M463.8,408.1h-4.4l-1.1,0c0,0,0,0,0,0v-0.2c0,0,0,0,0,0l1.1,0h1c-0.1-0.2-0.1-0.5-0.3-0.7c0,0,0,0,0,0s0,0,0.1,0
				c0,0,0.1,0,0.1,0c0,0,0,0,0,0c0.1,0.3,0.2,0.5,0.3,0.8h1.6c0.1-0.1,0.2-0.3,0.3-0.6c0-0.1,0.1-0.2,0.1-0.3c0.1,0,0.2,0.1,0.2,0.1
				c0,0,0.1,0,0.1,0.1c0,0,0,0-0.1,0.1c0,0-0.1,0.1-0.1,0.2c-0.1,0.2-0.2,0.3-0.3,0.5h1.2l1.1,0c0,0,0,0,0,0v0.2c0,0,0,0,0,0
				L463.8,408.1z M463.1,406.8h-3l-1.1,0c0,0,0,0,0,0v-0.2c0,0,0,0,0,0l1.1,0h1.3v-0.2c0-0.3,0-0.5,0-0.6c0.1,0,0.2,0,0.3,0
				c0,0,0.1,0,0.1,0s0,0.1,0,0.1s0,0.2,0,0.4v0.2h1.5l1.1,0c0,0,0,0,0,0v0.2c0,0,0,0,0,0L463.1,406.8z M462.6,408.6l1.1,0
				c0,0,0,0,0,0l0,0.6v0.7l0,0.6c0,0,0,0,0,0l-1.1,0h-2.2l-1.1,0c0,0,0,0,0,0l0-0.6v-0.7l0-0.6c0,0,0,0,0,0l1.1,0H462.6z
				 M463.5,408.8h-4v0.7h4V408.8z M463.5,410.5v-0.7h-4v0.7H463.5z M460.4,411.6v0.3c0,0.3,0.1,0.4,0.2,0.5c0.2,0,0.5,0.1,1,0.1
				c0.6,0,1.1,0,1.3-0.1c0.2-0.1,0.3-0.4,0.3-0.9c0,0,0.1,0.1,0.1,0.1c0,0,0.1,0,0.1,0.1c0,0,0,0,0,0.1c-0.1,0.4-0.2,0.7-0.4,0.8
				c-0.2,0.1-0.4,0.1-0.6,0.1c-0.2,0-0.4,0-0.8,0c-0.6,0-0.9,0-1.1-0.1c-0.2-0.1-0.4-0.3-0.4-0.6v-0.5c0-0.2,0-0.4,0-0.6
				c0.1,0,0.2,0,0.3,0c0,0,0.1,0,0.1,0c0,0,0,0,0,0.1C460.4,411.2,460.4,411.4,460.4,411.6z M461.3,411.1
				C461.2,411.1,461.2,411.1,461.3,411.1c0,0,0-0.1,0.1-0.1c0,0,0.1-0.1,0.1-0.1s0,0,0,0c0.3,0.2,0.5,0.4,0.8,0.8c0,0,0,0,0,0
				c0,0,0,0-0.1,0.1c-0.1,0-0.1,0.1-0.1,0.1c0,0,0,0,0,0C461.8,411.5,461.5,411.3,461.3,411.1z M463.7,411.2
				C463.7,411.2,463.7,411.2,463.7,411.2c0,0,0-0.1,0.1-0.1c0,0,0.1-0.1,0.1-0.1s0,0,0,0c0.5,0.4,0.9,0.8,1.1,1.1c0,0,0,0,0,0
				c0,0,0,0-0.1,0.1c-0.1,0-0.1,0.1-0.1,0.1c0,0,0,0,0,0C464.5,412,464.1,411.6,463.7,411.2z"/>
			<path d="M472.7,412.9C472.6,412.9,472.6,412.9,472.7,412.9l0-0.5h-5.5v0.5c0,0,0,0,0,0h-0.2c0,0,0,0,0,0l0-2.9v-1.6l0-2.1
				c0,0,0,0,0,0l1.1,0h3.7l1.1,0c0,0,0,0,0,0l0,1.9v1.8l0,2.9c0,0,0,0,0,0L472.7,412.9L472.7,412.9z M467.1,406.5v5.6h5.5v-5.6
				H467.1z M467.9,409.3C467.9,409.3,467.9,409.3,467.9,409.3C467.9,409.3,467.9,409.2,467.9,409.3c0.1-0.1,0.1-0.2,0.1-0.2
				c0,0,0,0,0,0c0.5,0.2,1.2,0.6,1.9,1c0.5-0.5,1-1.2,1.5-2.2c0.1-0.2,0.2-0.4,0.2-0.6c0.1,0,0.2,0.1,0.3,0.1c0.1,0,0.1,0,0.1,0.1
				c0,0,0,0.1,0,0.1c0,0-0.1,0.2-0.3,0.4c-0.3,0.5-0.5,1-0.7,1.2c-0.2,0.4-0.5,0.7-0.8,1c0.7,0.4,1.2,0.8,1.8,1.1c0,0,0,0,0,0
				s0,0-0.1,0.1c0,0.1-0.1,0.1-0.1,0.1c0,0,0,0,0,0c-0.5-0.4-1-0.8-1.8-1.2c-0.5,0.5-1.2,0.9-2,1.3c0,0-0.1,0-0.1,0s0,0-0.1-0.1
				c0,0-0.1-0.1-0.1-0.1c0.9-0.4,1.6-0.8,2.1-1.3C469.2,409.9,468.5,409.6,467.9,409.3z M468.2,407.6
				C468.2,407.6,468.2,407.6,468.2,407.6C468.2,407.6,468.2,407.5,468.2,407.6c0.1-0.1,0.1-0.1,0.2-0.1s0,0,0,0
				c0.3,0.4,0.5,0.7,0.8,1.1c0,0,0,0,0,0c0,0,0,0-0.1,0.1c-0.1,0-0.1,0-0.1,0s0,0,0,0C468.7,408.3,468.4,407.9,468.2,407.6z
				 M469.4,407.1C469.4,407.1,469.4,407.1,469.4,407.1c0,0,0-0.1,0.1-0.1c0,0,0.1,0,0.1,0s0,0,0,0c0.3,0.4,0.5,0.8,0.7,1.2
				c0,0,0,0,0,0c0,0,0,0-0.1,0.1c-0.1,0-0.1,0-0.1,0c0,0,0,0,0,0C469.9,407.8,469.6,407.4,469.4,407.1z"/>
		</g>
	</g>
</g>
<g>
	<g>
		<rect x="324.4" y="395.5" class="st1" width="81.3" height="28"/>
		<path class="st0" d="M406.2,424h-82.3v-29h82.3L406.2,424L406.2,424z M324.9,423h80.3v-27h-80.3V423z"/>
	</g>
	<g>
		<g>
			<path d="M351.1,411.4v-1.4h-1.3v1.3l0,0.9c0,0,0,0,0,0h-0.2c0,0-0.1,0-0.1,0l0-0.9v-0.8l0-0.7c0,0,0,0,0.1,0l1,0h0.5v-1h-0.9
				l-1.1,0c0,0,0,0,0,0v-0.2c0,0,0,0,0,0l1.1,0h0.9v-1.1H350c-0.1,0.3-0.3,0.5-0.5,0.8c0,0-0.1,0-0.1,0c0,0,0,0-0.1,0
				c0,0-0.1,0-0.1-0.1c0.4-0.5,0.7-1,0.8-1.6c0-0.1,0-0.1,0-0.2c0.1,0,0.2,0,0.3,0.1c0,0,0.1,0,0.1,0.1s0,0,0,0.1
				c0,0-0.1,0.1-0.1,0.2c-0.1,0.2-0.1,0.4-0.2,0.5h1v-0.5c0-0.3,0-0.5-0.1-0.7c0.1,0,0.2,0,0.3,0c0,0,0.1,0,0.1,0c0,0,0,0,0,0.1
				c0,0.1,0,0.2,0,0.5v0.5h0.5l0.9,0c0,0,0.1,0,0.1,0v0.2c0,0,0,0-0.1,0l-0.9,0h-0.5v1.1h0.8l1.1,0c0,0,0,0,0,0v0.2c0,0,0,0,0,0
				l-1.1,0h-0.8v1h0.5l1,0c0,0,0,0,0,0l0,0.8v0.3l0,0.9c0,0.2,0,0.4-0.2,0.4c-0.1,0.1-0.3,0.1-0.6,0.1c-0.1,0-0.1,0-0.1,0
				c0,0,0,0,0-0.1c0-0.1-0.1-0.1-0.1-0.2c0.2,0,0.3,0,0.5,0c0.2,0,0.3-0.1,0.3-0.3v-1.7h-1.3v1.4l0,1.4c0,0,0,0,0,0h-0.2
				c0,0-0.1,0-0.1,0L351.1,411.4z M353.8,409.7v-2.1c0-0.5,0-0.9-0.1-1c0.1,0,0.2,0,0.3,0c0,0,0.1,0,0.1,0.1l0,0.1
				c0,0.1,0,0.3,0,0.8v2.1l0,1c0,0,0,0-0.1,0h-0.2c0,0,0,0,0,0L353.8,409.7z M355.7,406.9v4.2l0,0.9c0,0.3-0.1,0.4-0.2,0.5
				c-0.1,0-0.2,0.1-0.3,0.1c-0.1,0-0.3,0-0.5,0c-0.1,0-0.1,0-0.2,0c0,0-0.1,0-0.1,0c0,0,0,0,0-0.1c0-0.1,0-0.1-0.1-0.2
				c0.2,0,0.4,0,0.7,0c0.2,0,0.3,0,0.4-0.1s0.1-0.2,0.1-0.3v-5.1c0-0.4,0-0.7-0.1-0.9c0.1,0,0.2,0,0.3,0c0.1,0,0.1,0,0.1,0
				s0,0.1,0,0.1C355.7,406.4,355.7,406.5,355.7,406.9z"/>
			<path d="M357.3,409.4c0.9-0.9,1.5-1.9,1.9-3.1c0.1-0.2,0.1-0.4,0.1-0.5c0.1,0,0.2,0.1,0.3,0.1c0,0,0.1,0,0.1,0.1c0,0,0,0.1,0,0.1
				c-0.1,0-0.1,0.1-0.2,0.3c-0.2,0.5-0.4,0.9-0.6,1.2v3.9l0,1.3c0,0,0,0,0,0h-0.2c0,0-0.1,0-0.1,0l0-1.3v-2.2c0-0.5,0-1,0-1.4
				c-0.3,0.5-0.6,1-1.1,1.4c0,0,0,0-0.1,0s0,0-0.1,0C357.4,409.4,357.4,409.4,357.3,409.4z M359.5,409.1c0.4-0.4,0.7-0.9,1-1.5
				c0.2-0.5,0.4-0.9,0.5-1.2c0.1-0.2,0.1-0.4,0.1-0.5c0.1,0,0.2,0.1,0.3,0.1c0,0,0.1,0,0.1,0.1s0,0.1,0,0.1c0,0-0.1,0.1-0.1,0.3
				c-0.1,0.4-0.3,0.7-0.4,1h2.4l1,0c0,0,0.1,0,0.1,0v0.2c0,0,0,0-0.1,0l-1,0h-1.4v1.4h1.4l0.7,0c0,0,0.1,0,0.1,0v0.2c0,0,0,0-0.1,0
				l-0.7,0h-1.4v1.4h1.4l0.7,0c0,0,0.1,0,0.1,0v0.2c0,0,0,0-0.1,0l-0.7,0h-1.4v0.8l0,1.2c0,0,0,0,0,0h-0.2c0,0,0,0,0,0l0-1.2v-4
				h-0.9c-0.3,0.6-0.7,1.1-1,1.6c0,0-0.1,0.1-0.1,0.1s0,0-0.1,0C359.5,409.1,359.5,409.1,359.5,409.1z"/>
			<path d="M366,412.5C366,412.5,366,412.5,366,412.5c0,0-0.1,0-0.1-0.1c0,0-0.1-0.1-0.1-0.1c0,0,0,0,0,0c0.5-0.4,0.8-0.8,1-1.2
				c0,0,0,0,0,0s0,0,0.1,0c0.1,0,0.1,0.1,0.1,0.1c0,0,0,0,0,0C366.9,411.8,366.5,412.1,366,412.5z M371.4,408.1H367l-1.1,0
				c0,0,0,0,0,0v-0.2c0,0,0,0,0,0l1.1,0h1.1c-0.1-0.2-0.1-0.5-0.3-0.7c0,0,0,0,0,0s0,0,0.1,0c0,0,0.1,0,0.1,0s0,0,0,0
				c0.1,0.3,0.2,0.5,0.3,0.8h1.6c0.1-0.1,0.2-0.3,0.3-0.6c0.1-0.1,0.1-0.2,0.1-0.3c0.1,0,0.2,0.1,0.2,0.1c0,0,0.1,0,0.1,0.1
				c0,0,0,0-0.1,0.1c0,0-0.1,0.1-0.1,0.2c-0.1,0.2-0.2,0.3-0.3,0.5h1.2l1.1,0c0,0,0.1,0,0.1,0v0.2c0,0,0,0-0.1,0L371.4,408.1z
				 M370.7,406.8h-3l-1.1,0c0,0,0,0,0,0v-0.2c0,0,0,0,0,0l1.1,0h1.3v-0.2c0-0.3,0-0.5,0-0.6c0.1,0,0.2,0,0.3,0c0.1,0,0.1,0,0.1,0
				s0,0.1,0,0.1c0,0.1,0,0.2,0,0.4v0.2h1.5l1.1,0c0,0,0.1,0,0.1,0v0.2c0,0,0,0-0.1,0L370.7,406.8z M370.3,408.6l1.1,0c0,0,0,0,0,0
				l0,0.6v0.7l0,0.6c0,0,0,0,0,0l-1.1,0h-2.2l-1.1,0c0,0-0.1,0-0.1,0l0-0.6v-0.7l0-0.6c0,0,0,0,0.1,0l1.1,0H370.3z M371.2,408.8h-4
				v0.7h4V408.8z M371.2,410.5v-0.7h-4v0.7H371.2z M368,411.6v0.3c0,0.3,0.1,0.4,0.2,0.5c0.2,0,0.5,0.1,1,0.1c0.6,0,1.1,0,1.3-0.1
				c0.2-0.1,0.3-0.4,0.3-0.9c0,0,0.1,0.1,0.2,0.1c0,0,0.1,0,0.1,0.1c0,0,0,0,0,0.1c-0.1,0.4-0.2,0.7-0.4,0.8
				c-0.2,0.1-0.4,0.1-0.6,0.1c-0.2,0-0.4,0-0.8,0c-0.6,0-0.9,0-1.1-0.1c-0.2-0.1-0.4-0.3-0.4-0.6v-0.5c0-0.2,0-0.4,0-0.6
				c0.1,0,0.2,0,0.3,0c0,0,0.1,0,0.1,0c0,0,0,0,0,0.1C368,411.2,368,411.4,368,411.6z M368.9,411.1
				C368.9,411.1,368.9,411.1,368.9,411.1c0,0,0-0.1,0-0.1c0.1,0,0.1-0.1,0.1-0.1c0,0,0,0,0,0c0.3,0.2,0.5,0.4,0.8,0.8c0,0,0,0,0,0
				c0,0,0,0-0.1,0.1c-0.1,0-0.1,0.1-0.1,0.1c0,0,0,0,0,0C369.4,411.5,369.1,411.3,368.9,411.1z M371.3,411.2
				C371.3,411.2,371.3,411.2,371.3,411.2c0,0,0-0.1,0.1-0.1c0.1,0,0.1-0.1,0.1-0.1c0,0,0,0,0,0c0.5,0.4,0.9,0.8,1.1,1.1c0,0,0,0,0,0
				c0,0,0,0-0.1,0.1c-0.1,0-0.1,0.1-0.1,0.1s0,0,0,0C372.1,412,371.7,411.6,371.3,411.2z"/>
			<path d="M380.3,412.9C380.2,412.9,380.2,412.9,380.3,412.9l-0.1-0.5h-5.5v0.5c0,0,0,0-0.1,0h-0.2c0,0-0.1,0-0.1,0l0-2.9v-1.6
				l0-2.1c0,0,0,0,0.1,0l1.1,0h3.7l1.1,0c0,0,0,0,0,0l0,1.9v1.8l0,2.9c0,0,0,0,0,0L380.3,412.9L380.3,412.9z M374.7,406.5v5.6h5.5
				v-5.6H374.7z M375.5,409.3C375.5,409.3,375.5,409.3,375.5,409.3C375.5,409.3,375.5,409.2,375.5,409.3c0.1-0.1,0.1-0.2,0.1-0.2
				c0,0,0,0,0,0c0.6,0.2,1.2,0.6,1.9,1c0.5-0.5,1-1.2,1.5-2.2c0.1-0.2,0.2-0.4,0.2-0.6c0.1,0,0.2,0.1,0.3,0.1c0.1,0,0.1,0,0.1,0.1
				c0,0,0,0.1,0,0.1c-0.1,0-0.1,0.2-0.3,0.4c-0.3,0.5-0.5,1-0.7,1.2c-0.2,0.4-0.5,0.7-0.8,1c0.7,0.4,1.2,0.8,1.8,1.1c0,0,0,0,0,0
				s0,0-0.1,0.1c0,0.1-0.1,0.1-0.1,0.1c0,0,0,0,0,0c-0.4-0.4-1-0.8-1.8-1.2c-0.5,0.5-1.2,0.9-2,1.3c0,0-0.1,0-0.1,0c0,0,0,0-0.1-0.1
				c-0.1,0-0.1-0.1-0.2-0.1c0.9-0.4,1.6-0.8,2.1-1.3C376.8,409.9,376.2,409.6,375.5,409.3z M375.8,407.6
				C375.8,407.6,375.8,407.6,375.8,407.6C375.8,407.6,375.8,407.5,375.8,407.6c0.1-0.1,0.2-0.1,0.2-0.1s0,0,0,0
				c0.3,0.4,0.6,0.7,0.8,1.1c0,0,0,0,0,0c0,0,0,0-0.1,0.1c-0.1,0-0.1,0-0.1,0s0,0,0,0C376.3,408.3,376,407.9,375.8,407.6z
				 M377,407.1C377,407.1,377,407.1,377,407.1c0,0,0-0.1,0.1-0.1c0.1,0,0.1,0,0.1,0s0,0,0,0c0.3,0.4,0.5,0.8,0.7,1.2c0,0,0,0,0,0
				c0,0,0,0-0.1,0.1c-0.1,0-0.1,0-0.1,0s0,0,0,0C377.5,407.8,377.2,407.4,377,407.1z"/>
		</g>
	</g>
</g>
<g>
	<g>
		<rect x="232" y="395.5" class="st1" width="81.3" height="28"/>
		<path class="st0" d="M313.8,424h-82.3v-29h82.3L313.8,424L313.8,424z M232.5,423h80.3v-27h-80.3V423z"/>
	</g>
	<g>
		<g>
			<path d="M258.8,411.4v-1.4h-1.3v1.3l0,0.9c0,0,0,0-0.1,0h-0.2c0,0,0,0,0,0l0-0.9v-0.8l0-0.7c0,0,0,0,0,0l1,0h0.5v-1h-0.9l-1.1,0
				c0,0,0,0,0,0v-0.2c0,0,0,0,0,0l1.1,0h0.9v-1.1h-1.1c-0.1,0.3-0.3,0.5-0.5,0.8c0,0,0,0-0.1,0c0,0,0,0-0.1,0s-0.1,0-0.1-0.1
				c0.4-0.5,0.7-1,0.8-1.6c0-0.1,0-0.1,0-0.2c0.1,0,0.2,0,0.3,0.1c0,0,0.1,0,0.1,0.1s0,0,0,0.1c0,0-0.1,0.1-0.1,0.2
				c-0.1,0.2-0.1,0.4-0.2,0.5h1v-0.5c0-0.3,0-0.5-0.1-0.7c0.1,0,0.2,0,0.3,0c0,0,0.1,0,0.1,0c0,0,0,0,0,0.1c0,0.1,0,0.2,0,0.5v0.5
				h0.5l0.9,0c0,0,0.1,0,0.1,0v0.2c0,0,0,0-0.1,0l-0.9,0H259v1.1h0.8l1.1,0c0,0,0,0,0,0v0.2c0,0,0,0,0,0l-1.1,0H259v1h0.5l1,0
				c0,0,0,0,0,0l0,0.8v0.3l0,0.9c0,0.2-0.1,0.4-0.2,0.4c-0.1,0.1-0.3,0.1-0.6,0.1c-0.1,0-0.1,0-0.1,0c0,0,0,0,0-0.1
				c0-0.1-0.1-0.1-0.1-0.2c0.2,0,0.4,0,0.5,0c0.2,0,0.3-0.1,0.3-0.3v-1.7H259v1.4l0,1.4c0,0,0,0-0.1,0h-0.2c0,0-0.1,0-0.1,0
				L258.8,411.4z M261.5,409.7v-2.1c0-0.5,0-0.9-0.1-1c0.1,0,0.2,0,0.3,0c0,0,0.1,0,0.1,0.1l0,0.1c0,0.1,0,0.3,0,0.8v2.1l0,1
				c0,0,0,0,0,0h-0.2c0,0,0,0,0,0L261.5,409.7z M263.3,406.9v4.2l0,0.9c0,0.3-0.1,0.4-0.2,0.5c-0.1,0-0.2,0.1-0.3,0.1
				c-0.1,0-0.3,0-0.5,0c-0.1,0-0.1,0-0.2,0c0,0-0.1,0-0.1,0s0,0,0-0.1c0-0.1,0-0.1-0.1-0.2c0.2,0,0.4,0,0.7,0c0.2,0,0.3,0,0.4-0.1
				s0.1-0.2,0.1-0.3v-5.1c0-0.4,0-0.7-0.1-0.9c0.1,0,0.2,0,0.3,0c0.1,0,0.1,0,0.1,0s0,0.1,0,0.1
				C263.3,406.4,263.3,406.5,263.3,406.9z"/>
			<path d="M264.9,409.4c0.9-0.9,1.5-1.9,1.9-3.1c0.1-0.2,0.1-0.4,0.1-0.5c0.1,0,0.2,0.1,0.3,0.1c0,0,0.1,0,0.1,0.1c0,0,0,0.1,0,0.1
				c-0.1,0-0.1,0.1-0.2,0.3c-0.2,0.5-0.4,0.9-0.6,1.2v3.9l0,1.3c0,0,0,0,0,0h-0.2c0,0-0.1,0-0.1,0l0-1.3v-2.2c0-0.5,0-1,0-1.4
				c-0.3,0.5-0.6,1-1.1,1.4c0,0,0,0-0.1,0s0,0-0.1,0C265,409.4,265,409.4,264.9,409.4z M267.1,409.1c0.4-0.4,0.7-0.9,1-1.5
				c0.2-0.5,0.4-0.9,0.5-1.2c0.1-0.2,0.1-0.4,0.1-0.5c0.1,0,0.2,0.1,0.3,0.1c0,0,0.1,0,0.1,0.1s0,0.1,0,0.1s-0.1,0.1-0.1,0.3
				c-0.1,0.4-0.3,0.7-0.4,1h2.5l1,0c0,0,0.1,0,0.1,0v0.2c0,0,0,0-0.1,0l-1,0h-1.4v1.4h1.4l0.7,0c0,0,0.1,0,0.1,0v0.2c0,0,0,0-0.1,0
				l-0.7,0h-1.4v1.4h1.4l0.7,0c0,0,0,0,0,0v0.2c0,0,0,0,0,0l-0.7,0h-1.4v0.8l0,1.2c0,0,0,0-0.1,0h-0.2c0,0,0,0,0,0l0-1.2v-4h-0.9
				c-0.3,0.6-0.7,1.1-1,1.6c0,0-0.1,0.1-0.1,0.1s0,0-0.1,0C267.2,409.1,267.1,409.1,267.1,409.1z"/>
			<path d="M273.7,412.5C273.6,412.5,273.6,412.5,273.7,412.5c0,0-0.1,0-0.1-0.1c0,0-0.1-0.1-0.1-0.1c0,0,0,0,0,0
				c0.5-0.4,0.8-0.8,1-1.2c0,0,0,0,0,0s0,0,0.1,0c0.1,0,0.1,0.1,0.1,0.1c0,0,0,0,0,0C274.5,411.8,274.1,412.1,273.7,412.5z
				 M279,408.1h-4.4l-1.1,0c0,0-0.1,0-0.1,0v-0.2c0,0,0,0,0.1,0l1.1,0h1.1c-0.1-0.2-0.2-0.5-0.3-0.7c0,0,0,0,0,0s0,0,0.1,0
				c0.1,0,0.1,0,0.1,0c0,0,0,0,0,0c0.1,0.3,0.2,0.5,0.3,0.8h1.6c0.1-0.1,0.2-0.3,0.3-0.6c0.1-0.1,0.1-0.2,0.1-0.3
				c0.1,0,0.2,0.1,0.2,0.1c0.1,0,0.1,0,0.1,0.1c0,0,0,0-0.1,0.1c0,0-0.1,0.1-0.1,0.2c-0.1,0.2-0.2,0.3-0.3,0.5h1.2l1.1,0
				c0,0,0,0,0,0v0.2c0,0,0,0,0,0L279,408.1z M278.3,406.8h-3l-1.1,0c0,0-0.1,0-0.1,0v-0.2c0,0,0,0,0.1,0l1.1,0h1.3v-0.2
				c0-0.3,0-0.5-0.1-0.6c0.1,0,0.2,0,0.3,0c0.1,0,0.1,0,0.1,0s0,0.1,0,0.1s0,0.2,0,0.4v0.2h1.5l1.1,0c0,0,0.1,0,0.1,0v0.2
				c0,0,0,0-0.1,0L278.3,406.8z M277.9,408.6l1.1,0c0,0,0.1,0,0.1,0l0,0.6v0.7l0,0.6c0,0,0,0-0.1,0l-1.1,0h-2.2l-1.1,0
				c0,0-0.1,0-0.1,0l0-0.6v-0.7l0-0.6c0,0,0,0,0.1,0l1.1,0H277.9z M278.8,408.8h-4v0.7h4V408.8z M278.8,410.5v-0.7h-4v0.7H278.8z
				 M275.6,411.6v0.3c0,0.3,0.1,0.4,0.2,0.5c0.2,0,0.5,0.1,1,0.1c0.6,0,1.1,0,1.3-0.1c0.2-0.1,0.3-0.4,0.3-0.9c0,0,0.1,0.1,0.2,0.1
				c0,0,0.1,0,0.1,0.1c0,0,0,0,0,0.1c-0.1,0.4-0.2,0.7-0.4,0.8c-0.2,0.1-0.4,0.1-0.6,0.1c-0.2,0-0.4,0-0.8,0c-0.6,0-0.9,0-1.1-0.1
				c-0.2-0.1-0.4-0.3-0.4-0.6v-0.5c0-0.2,0-0.4,0-0.6c0.1,0,0.2,0,0.3,0c0,0,0.1,0,0.1,0c0,0,0,0,0,0.1
				C275.7,411.2,275.6,411.4,275.6,411.6z M276.5,411.1C276.5,411.1,276.5,411.1,276.5,411.1c0,0,0-0.1,0.1-0.1s0.1-0.1,0.1-0.1
				s0,0,0,0c0.3,0.2,0.5,0.4,0.8,0.8c0,0,0,0,0,0c0,0,0,0-0.1,0.1c-0.1,0-0.1,0.1-0.1,0.1c0,0,0,0,0,0
				C277,411.5,276.8,411.3,276.5,411.1z M278.9,411.2C278.9,411.2,278.9,411.2,278.9,411.2c0,0,0-0.1,0.1-0.1c0.1,0,0.1-0.1,0.1-0.1
				s0,0,0,0c0.5,0.4,0.9,0.8,1.1,1.1c0,0,0,0,0,0c0,0,0,0-0.1,0.1c-0.1,0-0.1,0.1-0.1,0.1c0,0,0,0,0,0
				C279.7,412,279.3,411.6,278.9,411.2z"/>
			<path d="M287.9,412.9C287.9,412.9,287.8,412.9,287.9,412.9l-0.1-0.5h-5.5v0.5c0,0,0,0-0.1,0h-0.2c0,0-0.1,0-0.1,0l0-2.9v-1.6
				l0-2.1c0,0,0,0,0.1,0l1.1,0h3.7l1.1,0c0,0,0,0,0,0l0,1.9v1.8l0,2.9c0,0,0,0,0,0L287.9,412.9L287.9,412.9z M282.3,406.5v5.6h5.5
				v-5.6H282.3z M283.1,409.3C283.1,409.3,283.1,409.3,283.1,409.3C283.1,409.3,283.1,409.2,283.1,409.3c0.1-0.1,0.1-0.2,0.1-0.2
				c0,0,0,0,0,0c0.5,0.2,1.2,0.6,1.9,1c0.5-0.5,1-1.2,1.5-2.2c0.1-0.2,0.2-0.4,0.2-0.6c0.1,0,0.2,0.1,0.3,0.1c0.1,0,0.1,0,0.1,0.1
				c0,0,0,0.1,0,0.1c0,0-0.1,0.2-0.3,0.4c-0.3,0.5-0.5,1-0.7,1.2c-0.2,0.4-0.5,0.7-0.8,1c0.7,0.4,1.2,0.8,1.8,1.1c0,0,0,0,0,0
				s0,0-0.1,0.1c-0.1,0.1-0.1,0.1-0.1,0.1c0,0,0,0,0,0c-0.4-0.4-1-0.8-1.8-1.2c-0.5,0.5-1.2,0.9-2,1.3c0,0-0.1,0-0.1,0
				c0,0,0,0-0.1-0.1c0,0-0.1-0.1-0.1-0.1c0.9-0.4,1.6-0.8,2.1-1.3C284.4,409.9,283.8,409.6,283.1,409.3z M283.4,407.6
				C283.4,407.6,283.4,407.6,283.4,407.6C283.4,407.6,283.4,407.5,283.4,407.6c0.1-0.1,0.1-0.1,0.2-0.1s0,0,0,0
				c0.3,0.4,0.6,0.7,0.8,1.1c0,0,0,0,0,0c0,0,0,0-0.1,0.1c-0.1,0-0.1,0-0.1,0s0,0,0,0C283.9,408.3,283.7,407.9,283.4,407.6z
				 M284.6,407.1C284.6,407.1,284.6,407.1,284.6,407.1c0,0,0-0.1,0.1-0.1c0,0,0.1,0,0.1,0s0,0,0,0c0.3,0.4,0.5,0.8,0.7,1.2
				c0,0,0,0,0,0c0,0,0,0-0.1,0.1c-0.1,0-0.1,0-0.1,0c0,0,0,0,0,0C285.1,407.8,284.9,407.4,284.6,407.1z"/>
		</g>
	</g>
</g>
<g>
	<g>
		<rect x="139.6" y="395.5" class="st1" width="81.3" height="28"/>
		<path class="st0" d="M221.4,424h-82.3v-29h82.3V424z M140.1,423h80.3v-27h-80.3V423z"/>
	</g>
	<g>
		<g>
			<path d="M166.4,411.4v-1.4h-1.3v1.3l0,0.9c0,0,0,0,0,0h-0.2c0,0,0,0,0,0l0-0.9v-0.8l0-0.7c0,0,0,0,0,0l1,0h0.5v-1h-0.9l-1.1,0
				c0,0-0.1,0-0.1,0v-0.2c0,0,0,0,0.1,0l1.1,0h0.9v-1.1h-1.1c-0.1,0.3-0.3,0.5-0.5,0.8c0,0-0.1,0-0.1,0c0,0,0,0-0.1,0
				c0,0-0.1,0-0.1-0.1c0.4-0.5,0.7-1,0.8-1.6c0-0.1,0-0.1,0-0.2c0.1,0,0.2,0,0.3,0.1c0,0,0.1,0,0.1,0.1s0,0,0,0.1
				c0,0-0.1,0.1-0.1,0.2c-0.1,0.2-0.1,0.4-0.2,0.5h1v-0.5c0-0.3,0-0.5,0-0.7c0.1,0,0.2,0,0.3,0c0.1,0,0.1,0,0.1,0c0,0,0,0,0,0.1
				c0,0.1-0.1,0.2-0.1,0.5v0.5h0.5l0.9,0c0,0,0.1,0,0.1,0v0.2c0,0,0,0-0.1,0l-0.9,0h-0.5v1.1h0.8l1.1,0c0,0,0.1,0,0.1,0v0.2
				c0,0,0,0-0.1,0l-1.1,0h-0.8v1h0.5l1,0c0,0,0.1,0,0.1,0l0,0.8v0.3l0,0.9c0,0.2-0.1,0.4-0.2,0.4c-0.1,0.1-0.3,0.1-0.6,0.1
				c-0.1,0-0.1,0-0.1,0c0,0,0,0,0-0.1c0-0.1-0.1-0.1-0.1-0.2c0.2,0,0.4,0,0.5,0c0.2,0,0.3-0.1,0.3-0.3v-1.7h-1.3v1.4l0,1.4
				c0,0,0,0-0.1,0h-0.2c0,0,0,0,0,0L166.4,411.4z M169.1,409.7v-2.1c0-0.5,0-0.9-0.1-1c0.1,0,0.2,0,0.3,0c0,0,0.1,0,0.1,0.1l0,0.1
				c0,0.1,0,0.3,0,0.8v2.1l0,1c0,0,0,0-0.1,0h-0.2c0,0-0.1,0-0.1,0L169.1,409.7z M170.9,406.9v4.2l0,0.9c0,0.3-0.1,0.4-0.2,0.5
				c-0.1,0-0.2,0.1-0.3,0.1c-0.1,0-0.3,0-0.5,0c-0.1,0-0.2,0-0.2,0c-0.1,0-0.1,0-0.1,0s0,0,0-0.1c0-0.1-0.1-0.1-0.1-0.2
				c0.2,0,0.4,0,0.7,0c0.2,0,0.3,0,0.4-0.1s0.1-0.2,0.1-0.3v-5.1c0-0.4,0-0.7-0.1-0.9c0.1,0,0.2,0,0.3,0c0.1,0,0.1,0,0.1,0
				s0,0.1-0.1,0.1C170.9,406.4,170.9,406.5,170.9,406.9z"/>
			<path d="M172.6,409.4c0.9-0.9,1.5-1.9,1.9-3.1c0.1-0.2,0.1-0.4,0.1-0.5c0.1,0,0.2,0.1,0.3,0.1c0,0,0.1,0,0.1,0.1
				c0,0,0,0.1-0.1,0.1c-0.1,0-0.1,0.1-0.2,0.3c-0.2,0.5-0.4,0.9-0.6,1.2v3.9l0,1.3c0,0,0,0,0,0h-0.2c0,0-0.1,0-0.1,0l0-1.3v-2.2
				c0-0.5,0-1,0-1.4c-0.3,0.5-0.7,1-1.1,1.4c0,0,0,0-0.1,0c0,0,0,0-0.1,0C172.7,409.4,172.6,409.4,172.6,409.4z M174.7,409.1
				c0.4-0.4,0.7-0.9,1-1.5c0.2-0.5,0.4-0.9,0.5-1.2c0.1-0.2,0.1-0.4,0.1-0.5c0.1,0,0.2,0.1,0.3,0.1c0,0,0.1,0,0.1,0.1s0,0.1-0.1,0.1
				s-0.1,0.1-0.1,0.3c-0.1,0.4-0.3,0.7-0.4,1h2.4l1,0c0,0,0.1,0,0.1,0v0.2c0,0,0,0-0.1,0l-1,0h-1.4v1.4h1.4l0.7,0c0,0,0.1,0,0.1,0
				v0.2c0,0,0,0-0.1,0l-0.7,0h-1.4v1.4h1.4l0.7,0c0,0,0.1,0,0.1,0v0.2c0,0,0,0-0.1,0l-0.7,0h-1.4v0.8l0,1.2c0,0,0,0-0.1,0h-0.2
				c0,0-0.1,0-0.1,0l0-1.2v-4h-0.9c-0.3,0.6-0.7,1.1-1,1.6c0,0-0.1,0.1-0.1,0.1c0,0,0,0-0.1,0C174.8,409.1,174.7,409.1,174.7,409.1z
				"/>
			<path d="M181.3,412.5C181.3,412.5,181.2,412.5,181.3,412.5c0,0-0.1,0-0.1-0.1c0,0-0.1-0.1-0.1-0.1c0,0,0,0,0,0
				c0.5-0.4,0.8-0.8,1-1.2c0,0,0,0,0,0s0,0,0.1,0c0.1,0,0.1,0.1,0.1,0.1c0,0,0,0,0,0C182.1,411.8,181.8,412.1,181.3,412.5z
				 M186.6,408.1h-4.4l-1.1,0c0,0,0,0,0,0v-0.2c0,0,0,0,0,0l1.1,0h1c-0.1-0.2-0.1-0.5-0.3-0.7c0,0,0,0,0,0s0,0,0.1,0
				c0.1,0,0.1,0,0.1,0c0,0,0,0,0,0c0.1,0.3,0.2,0.5,0.3,0.8h1.6c0.1-0.1,0.2-0.3,0.3-0.6c0.1-0.1,0.1-0.2,0.1-0.3
				c0.1,0,0.2,0.1,0.2,0.1c0.1,0,0.1,0,0.1,0.1c0,0,0,0-0.1,0.1c0,0-0.1,0.1-0.1,0.2c-0.1,0.2-0.2,0.3-0.3,0.5h1.2l1.1,0
				c0,0,0,0,0,0v0.2c0,0,0,0,0,0L186.6,408.1z M185.9,406.8h-3l-1.1,0c0,0,0,0,0,0v-0.2c0,0,0,0,0,0l1.1,0h1.3v-0.2
				c0-0.3,0-0.5-0.1-0.6c0.1,0,0.2,0,0.3,0c0.1,0,0.1,0,0.1,0s0,0.1-0.1,0.1s0,0.2,0,0.4v0.2h1.5l1.1,0c0,0,0.1,0,0.1,0v0.2
				c0,0,0,0-0.1,0L185.9,406.8z M185.5,408.6l1.1,0c0,0,0,0,0,0l0,0.6v0.7l0,0.6c0,0,0,0,0,0l-1.1,0h-2.2l-1.1,0c0,0-0.1,0-0.1,0
				l0-0.6v-0.7l0-0.6c0,0,0,0,0.1,0l1.1,0H185.5z M186.4,408.8h-4v0.7h4V408.8z M186.4,410.5v-0.7h-4v0.7H186.4z M183.2,411.6v0.3
				c0,0.3,0.1,0.4,0.2,0.5c0.2,0,0.5,0.1,1,0.1c0.7,0,1.1,0,1.3-0.1c0.2-0.1,0.3-0.4,0.3-0.9c0,0,0.1,0.1,0.1,0.1
				c0.1,0,0.1,0,0.1,0.1c0,0,0,0,0,0.1c-0.1,0.4-0.2,0.7-0.4,0.8c-0.2,0.1-0.4,0.1-0.6,0.1c-0.2,0-0.4,0-0.8,0c-0.6,0-0.9,0-1.1-0.1
				c-0.2-0.1-0.4-0.3-0.4-0.6v-0.5c0-0.2,0-0.4-0.1-0.6c0.1,0,0.2,0,0.3,0c0.1,0,0.1,0,0.1,0c0,0,0,0,0,0.1
				C183.3,411.2,183.2,411.4,183.2,411.6z M184.1,411.1C184.1,411.1,184.1,411.1,184.1,411.1c0,0,0-0.1,0.1-0.1c0,0,0.1-0.1,0.1-0.1
				s0,0,0,0c0.3,0.2,0.5,0.4,0.8,0.8c0,0,0,0,0,0c0,0,0,0-0.1,0.1c-0.1,0-0.1,0.1-0.1,0.1c0,0,0,0,0,0
				C184.6,411.5,184.4,411.3,184.1,411.1z M186.5,411.2C186.5,411.2,186.5,411.2,186.5,411.2c0,0,0-0.1,0.1-0.1
				c0.1,0,0.1-0.1,0.1-0.1c0,0,0,0,0,0c0.5,0.4,0.9,0.8,1.1,1.1c0,0,0,0,0,0c0,0,0,0-0.1,0.1c-0.1,0-0.1,0.1-0.1,0.1s0,0,0,0
				C187.3,412,187,411.6,186.5,411.2z"/>
			<path d="M195.5,412.9C195.5,412.9,195.5,412.9,195.5,412.9l-0.1-0.5h-5.5v0.5c0,0,0,0-0.1,0h-0.2c0,0,0,0,0,0l0-2.9v-1.6l0-2.1
				c0,0,0,0,0,0l1.1,0h3.7l1.1,0c0,0,0.1,0,0.1,0l0,1.9v1.8l0,2.9c0,0,0,0-0.1,0L195.5,412.9L195.5,412.9z M189.9,406.5v5.6h5.5
				v-5.6H189.9z M190.7,409.3C190.7,409.3,190.7,409.3,190.7,409.3C190.7,409.3,190.7,409.2,190.7,409.3c0.1-0.1,0.1-0.2,0.1-0.2
				c0,0,0,0,0,0c0.6,0.2,1.2,0.6,1.9,1c0.5-0.5,1-1.2,1.5-2.2c0.1-0.2,0.2-0.4,0.2-0.6c0.1,0,0.2,0.1,0.3,0.1c0.1,0,0.1,0,0.1,0.1
				c0,0,0,0.1-0.1,0.1c-0.1,0-0.1,0.2-0.3,0.4c-0.3,0.5-0.5,1-0.7,1.2c-0.2,0.4-0.5,0.7-0.8,1c0.7,0.4,1.2,0.8,1.8,1.1c0,0,0,0,0,0
				s0,0-0.1,0.1c-0.1,0.1-0.1,0.1-0.1,0.1c0,0,0,0,0,0c-0.4-0.4-1-0.8-1.8-1.2c-0.5,0.5-1.2,0.9-2,1.3c0,0-0.1,0-0.1,0
				c0,0,0,0-0.1-0.1c0,0-0.1-0.1-0.1-0.1c0.9-0.4,1.6-0.8,2.1-1.3C192,409.9,191.4,409.6,190.7,409.3z M191,407.6
				C191,407.6,191,407.6,191,407.6C191,407.6,191,407.5,191,407.6c0.1-0.1,0.1-0.1,0.2-0.1c0,0,0,0,0,0c0.3,0.4,0.6,0.7,0.8,1.1
				c0,0,0,0,0,0c0,0,0,0-0.1,0.1c-0.1,0-0.1,0-0.1,0c0,0,0,0,0,0C191.5,408.3,191.3,407.9,191,407.6z M192.2,407.1
				C192.2,407.1,192.2,407.1,192.2,407.1c0,0,0-0.1,0.1-0.1c0.1,0,0.1,0,0.1,0c0,0,0,0,0,0c0.3,0.4,0.5,0.8,0.7,1.2c0,0,0,0,0,0
				c0,0,0,0-0.1,0.1c-0.1,0-0.1,0-0.1,0c0,0,0,0,0,0C192.7,407.8,192.5,407.4,192.2,407.1z"/>
		</g>
	</g>
</g>
<g>
	<g>
		<rect x="282.8" y="168.5" class="st1" width="81.3" height="27.9"/>
		<path class="st0" d="M364.5,197h-82.3V168h82.3L364.5,197L364.5,197z M283.2,196h80.3V169h-80.3V196z"/>
	</g>
	<g>
		<g>
			<path d="M318.2,181.2l-1.2,3.9h-0.4l-0.8-2.7c-0.1-0.2-0.2-0.6-0.2-1h0c-0.1,0.4-0.2,0.7-0.2,1l-0.8,2.7h-0.4l-1.2-3.9h0.3
				l0.8,2.8c0.1,0.3,0.2,0.6,0.2,0.9h0c0.1-0.3,0.1-0.6,0.2-0.9l0.8-2.8h0.4l0.8,2.7c0.1,0.3,0.2,0.6,0.2,1h0c0.1-0.3,0.1-0.6,0.2-1
				l0.8-2.7L318.2,181.2L318.2,181.2z"/>
			<path d="M320.9,181.1c0.5,0,0.9,0.2,1.2,0.6c0.3,0.4,0.4,0.8,0.4,1.4c0,0.7-0.2,1.2-0.5,1.6c-0.3,0.3-0.6,0.5-1.1,0.5
				c-0.5,0-0.9-0.2-1.2-0.6c-0.3-0.4-0.4-0.8-0.4-1.4c0-0.7,0.2-1.2,0.5-1.6C320.1,181.3,320.5,181.1,320.9,181.1z M320.9,181.4
				c-0.4,0-0.7,0.2-0.9,0.5c-0.2,0.3-0.3,0.7-0.3,1.2c0,0.6,0.1,1.1,0.4,1.4c0.2,0.3,0.5,0.4,0.9,0.4c0.4,0,0.7-0.2,0.9-0.5
				c0.2-0.3,0.3-0.7,0.3-1.2c0-0.6-0.1-1.1-0.4-1.4C321.5,181.5,321.3,181.4,320.9,181.4z"/>
			<path d="M325.8,181.1l0,0.3c-0.3,0-0.6,0.1-0.8,0.4c-0.2,0.2-0.4,0.6-0.5,0.9v2.4h-0.3v-3.9h0.3v1.1c0.2-0.4,0.4-0.7,0.6-0.9
				C325.3,181.2,325.5,181.1,325.8,181.1z"/>
			<path d="M329.9,181.2l-1.4,1.5l1.6,2.4h-0.4l-1.4-2.2l-0.8,0.9v1.3h-0.3v-5.9h0.3v4.2l2.1-2.3H329.9z"/>
			<path d="M333.8,182l-0.3,0.1c-0.2-0.5-0.5-0.8-1-0.8c-0.3,0-0.6,0.1-0.8,0.2c-0.1,0.1-0.2,0.3-0.2,0.5c0,0.2,0.1,0.4,0.2,0.5
				c0.1,0.1,0.4,0.2,0.7,0.3l0.3,0.1c0.5,0.1,0.8,0.2,1,0.4c0.2,0.2,0.2,0.4,0.2,0.7c0,0.3-0.1,0.6-0.4,0.8c-0.2,0.2-0.6,0.3-1,0.3
				c-0.4,0-0.7-0.1-0.9-0.3c-0.2-0.2-0.4-0.4-0.5-0.7l0.3-0.1c0.2,0.5,0.6,0.8,1.2,0.8c0.4,0,0.7-0.1,0.9-0.3
				c0.1-0.1,0.2-0.3,0.2-0.5c0-0.3-0.1-0.5-0.2-0.6c-0.1-0.1-0.4-0.2-0.8-0.3l-0.3-0.1c-0.5-0.1-0.8-0.2-0.9-0.4
				c-0.1-0.1-0.2-0.4-0.2-0.6c0-0.3,0.1-0.6,0.4-0.8c0.2-0.2,0.5-0.3,0.9-0.3C333.1,181.1,333.6,181.4,333.8,182z"/>
		</g>
	</g>
</g>
<g>
	<g>
		<rect x="531.1" y="167.8" class="st1" width="81.3" height="27.9"/>
		<path class="st0" d="M612.9,196.3h-82.3v-28.9h82.3V196.3z M531.6,195.3h80.3v-26.9h-80.3V195.3z"/>
	</g>
	<g>
		<g>
			<path d="M562,181.4c0.3-0.6,0.8-1,1.5-1c0.5,0,0.8,0.1,1,0.4c0.2,0.2,0.3,0.5,0.3,1v1.3c0,0.6,0,1.1,0.1,1.4h-0.3
				c0-0.2-0.1-0.4-0.1-0.8c-0.4,0.6-0.9,0.9-1.5,0.9c-0.4,0-0.7-0.1-0.9-0.4c-0.2-0.2-0.3-0.4-0.3-0.8c0-0.7,0.4-1.1,1.3-1.3
				c0.3-0.1,0.8-0.1,1.3-0.1v-0.2c0-0.4-0.1-0.7-0.3-0.9c-0.1-0.1-0.4-0.2-0.7-0.2c-0.6,0-1,0.3-1.2,0.9L562,181.4z M564.4,182.2
				c-0.5,0-0.9,0.1-1.3,0.1c-0.7,0.1-1,0.5-1,1c0,0.3,0.1,0.5,0.3,0.6c0.2,0.1,0.4,0.2,0.6,0.2c0.6,0,1-0.3,1.4-0.9L564.4,182.2
				L564.4,182.2z"/>
			<path d="M566.9,178.6v2.6c0.2-0.2,0.4-0.4,0.6-0.6c0.2-0.1,0.4-0.2,0.6-0.2c0.5,0,0.9,0.2,1.1,0.6c0.2,0.4,0.4,0.8,0.4,1.4
				c0,0.7-0.2,1.2-0.5,1.6c-0.3,0.3-0.6,0.5-1.1,0.5c-0.5,0-0.9-0.2-1.2-0.8l0,0.7h-0.2v-5.9H566.9z M566.9,181.5v1.9
				c0.2,0.3,0.4,0.5,0.6,0.6c0.2,0.1,0.4,0.2,0.6,0.2c0.4,0,0.7-0.2,1-0.5c0.2-0.3,0.3-0.7,0.3-1.2c0-0.6-0.1-1-0.4-1.4
				c-0.2-0.3-0.5-0.4-0.8-0.4C567.7,180.7,567.2,181,566.9,181.5z"/>
			<path d="M572.6,180.4c0.5,0,0.9,0.2,1.2,0.6c0.3,0.4,0.4,0.8,0.4,1.4c0,0.7-0.2,1.2-0.5,1.6c-0.3,0.3-0.6,0.5-1.1,0.5
				c-0.5,0-0.9-0.2-1.2-0.6c-0.3-0.4-0.4-0.8-0.4-1.4c0-0.7,0.2-1.2,0.5-1.6C571.8,180.6,572.2,180.4,572.6,180.4z M572.6,180.7
				c-0.4,0-0.7,0.2-1,0.5c-0.2,0.3-0.3,0.7-0.3,1.2c0,0.6,0.1,1.1,0.4,1.4c0.2,0.3,0.5,0.4,0.9,0.4c0.4,0,0.7-0.2,0.9-0.5
				c0.2-0.3,0.3-0.7,0.3-1.2c0-0.6-0.1-1.1-0.4-1.4C573.3,180.8,573,180.7,572.6,180.7z"/>
			<path d="M578.6,180.5v3.9h-0.3v-0.8c-0.2,0.3-0.4,0.5-0.7,0.7c-0.2,0.1-0.5,0.2-0.7,0.2c-0.3,0-0.6-0.1-0.8-0.3
				c-0.2-0.2-0.3-0.4-0.3-0.8v-2.9h0.3v2.8c0,0.6,0.3,0.9,0.8,0.9c0.2,0,0.5-0.1,0.8-0.3c0.2-0.2,0.4-0.4,0.6-0.6v-2.8L578.6,180.5
				L578.6,180.5z"/>
			<path d="M581,179.1v1.4h1v0.3h-1v2.8c0,0.5,0.2,0.7,0.6,0.7c0.2,0,0.4,0,0.5-0.1l0,0.3c-0.2,0-0.3,0.1-0.5,0.1
				c-0.3,0-0.5-0.1-0.7-0.3c-0.1-0.2-0.2-0.4-0.2-0.7v-2.8H580v-0.3h0.7v-1.4L581,179.1z"/>
		</g>
	</g>
</g>
<g>
	<g>
		<rect x="645.5" y="167.2" class="st1" width="81.3" height="27.9"/>
		<path class="st0" d="M727.3,195.7H645v-28.9h82.3V195.7z M646,194.7h80.3v-26.9H646V194.7L646,194.7z"/>
	</g>
	<g>
		<g>
			<path d="M675.7,180.9l-0.3,0.1c-0.2-0.6-0.5-0.9-1.1-0.9c-0.4,0-0.7,0.2-1,0.5c-0.2,0.3-0.3,0.7-0.3,1.2c0,0.6,0.1,1.1,0.4,1.4
				c0.2,0.3,0.5,0.4,0.9,0.4c0.6,0,1-0.3,1.1-0.9l0.3,0.1c-0.3,0.7-0.7,1.1-1.4,1.1c-0.5,0-0.9-0.2-1.2-0.6
				c-0.3-0.4-0.4-0.8-0.4-1.4c0-0.7,0.2-1.2,0.5-1.6c0.3-0.3,0.6-0.5,1.1-0.5c0.3,0,0.6,0.1,0.9,0.3
				C675.4,180.3,675.6,180.6,675.7,180.9z"/>
			<path d="M678.5,179.9c0.5,0,0.9,0.2,1.2,0.6c0.3,0.4,0.4,0.8,0.4,1.4c0,0.7-0.2,1.2-0.5,1.6c-0.3,0.3-0.6,0.5-1.1,0.5
				c-0.5,0-0.9-0.2-1.2-0.6c-0.3-0.4-0.4-0.8-0.4-1.4c0-0.7,0.2-1.2,0.5-1.6C677.7,180,678.1,179.9,678.5,179.9z M678.5,180.1
				c-0.4,0-0.7,0.2-1,0.5c-0.2,0.3-0.3,0.7-0.3,1.2c0,0.6,0.1,1.1,0.4,1.4c0.2,0.3,0.5,0.4,0.9,0.4c0.4,0,0.7-0.2,1-0.5
				c0.2-0.3,0.3-0.7,0.3-1.2c0-0.6-0.1-1.1-0.4-1.4C679.1,180.3,678.9,180.1,678.5,180.1z"/>
			<path d="M682,179.9v0.8c0.5-0.6,1-0.9,1.5-0.9c0.3,0,0.6,0.1,0.8,0.3c0.2,0.2,0.2,0.4,0.2,0.7v2.9h-0.3v-2.8c0-0.6-0.3-1-0.8-1
				c-0.5,0-0.9,0.3-1.4,0.9v2.8h-0.3V180L682,179.9L682,179.9z"/>
			<path d="M686.8,178.5v1.4h1v0.3h-1v2.8c0,0.5,0.2,0.7,0.6,0.7c0.2,0,0.3,0,0.5-0.1l0,0.3c-0.2,0-0.3,0.1-0.5,0.1
				c-0.3,0-0.5-0.1-0.7-0.3c-0.2-0.2-0.2-0.4-0.2-0.7v-2.8h-0.7v-0.3h0.7v-1.4L686.8,178.5z"/>
			<path d="M689.1,180.8c0.3-0.6,0.8-1,1.5-1c0.5,0,0.8,0.1,1,0.4c0.2,0.2,0.3,0.5,0.3,1v1.3c0,0.6,0,1.1,0.1,1.4h-0.3
				c0-0.2-0.1-0.4-0.1-0.8c-0.4,0.6-0.9,0.9-1.5,0.9c-0.4,0-0.7-0.1-0.9-0.4c-0.2-0.2-0.3-0.4-0.3-0.8c0-0.7,0.4-1.1,1.3-1.3
				c0.3-0.1,0.8-0.1,1.3-0.1v-0.2c0-0.4-0.1-0.7-0.3-0.9c-0.2-0.1-0.4-0.2-0.7-0.2c-0.6,0-1,0.3-1.2,0.9L689.1,180.8z M691.6,181.7
				c-0.5,0-0.9,0.1-1.3,0.1c-0.7,0.1-1,0.5-1,1c0,0.3,0.1,0.5,0.3,0.6c0.2,0.1,0.4,0.2,0.6,0.2c0.6,0,1-0.3,1.4-0.9L691.6,181.7
				L691.6,181.7z"/>
			<path d="M696.5,180.9l-0.3,0.1c-0.2-0.6-0.5-0.9-1.1-0.9c-0.4,0-0.7,0.2-1,0.5c-0.2,0.3-0.3,0.7-0.3,1.2c0,0.6,0.1,1.1,0.4,1.4
				c0.2,0.3,0.5,0.4,0.9,0.4c0.6,0,1-0.3,1.1-0.9l0.3,0.1c-0.3,0.7-0.7,1.1-1.4,1.1c-0.5,0-0.9-0.2-1.2-0.6
				c-0.3-0.4-0.4-0.8-0.4-1.4c0-0.7,0.2-1.2,0.5-1.6c0.3-0.3,0.6-0.5,1.1-0.5c0.3,0,0.6,0.1,0.9,0.3
				C696.2,180.3,696.3,180.6,696.5,180.9z"/>
			<path d="M698.4,178.5v1.4h1v0.3h-1v2.8c0,0.5,0.2,0.7,0.6,0.7c0.2,0,0.3,0,0.5-0.1l0,0.3c-0.2,0-0.3,0.1-0.5,0.1
				c-0.3,0-0.5-0.1-0.7-0.3c-0.2-0.2-0.2-0.4-0.2-0.7v-2.8h-0.7v-0.3h0.7v-1.4L698.4,178.5z"/>
		</g>
	</g>
</g>
<rect x="433.3" y="458.9" class="st0" width="1" height="63.5"/>
<g>
	<g>
		<path class="st1" d="M451.2,529.3h-34.9c-6.3,0-11.5-5.1-11.5-11.5v-5c0-6.3,5.1-11.5,11.5-11.5h34.9c6.3,0,11.5,5.1,11.5,11.5v5
			C462.6,524.1,457.5,529.3,451.2,529.3z"/>
		<path class="st0" d="M451.2,529.8h-34.9c-6.6,0-12-5.4-12-12v-5c0-6.6,5.4-12,12-12h34.9c6.6,0,12,5.4,12,12v5
			C463.1,524.4,457.8,529.8,451.2,529.8z M416.3,501.8c-6,0-11,4.9-11,11v5c0,6,4.9,11,11,11h34.9c6,0,11-4.9,11-11v-5
			c0-6-4.9-11-11-11H416.3z"/>
	</g>
	<g>
		<path d="M424.3,513.6V513c0-0.3,0-0.6,0-0.8c0.2,0,0.3,0,0.4,0.1c0,0,0,0,0,0.1c0,0,0,0.1,0,0.1c0,0.1-0.1,0.2-0.1,0.5
			c0,0.3,0,0.5,0,0.7c0.4-0.1,0.9-0.2,1.3-0.4c0,0,0,0,0,0c0,0,0,0,0,0c0,0.1,0,0.1,0,0.2c0,0,0,0.1-0.1,0.1
			c-0.4,0.2-0.9,0.3-1.3,0.3v1.8c0.5-0.3,0.9-0.5,1.2-0.5c0.4-0.1,0.7-0.2,1-0.2c0.5,0,0.9,0.2,1.1,0.4c0.2,0.2,0.3,0.5,0.3,0.9
			c0,0.5-0.2,0.8-0.5,1c-0.3,0.2-0.6,0.3-1.1,0.3c-0.2,0-0.4,0-0.6-0.1c0,0-0.1,0-0.1-0.1c0-0.1,0-0.2,0-0.2
			c0.2,0.1,0.5,0.2,0.8,0.2c0.4,0,0.8-0.1,1-0.3c0.2-0.2,0.3-0.4,0.3-0.8c0-0.3-0.1-0.6-0.4-0.8c-0.2-0.2-0.5-0.3-0.9-0.3
			c-0.5,0-1.2,0.3-2.1,0.8v0.7l0,1.2c0,0.1,0,0.2-0.1,0.2c0,0-0.1,0-0.1,0c0,0,0,0,0,0s0,0-0.1-0.1s-0.1-0.2-0.3-0.3
			c-0.1-0.1-0.3-0.2-0.6-0.4c-0.3-0.2-0.5-0.3-0.6-0.4c-0.1,0.1-0.2,0.1-0.3,0.2c0,0-0.1,0-0.1,0s0,0-0.1,0
			c-0.1-0.1-0.1-0.2-0.1-0.3c0.2,0,0.5-0.1,0.8-0.3c0.2-0.1,0.6-0.3,1.2-0.7v-1.9c-0.5,0.1-1,0.1-1.3,0.1c-0.1,0-0.1,0-0.2,0
			c-0.1,0-0.1,0-0.1-0.1v-0.2c0.1,0,0.3,0,0.4,0C423.4,513.7,423.8,513.7,424.3,513.6z M424.3,516.1l-1.2,0.7
			c0.5,0.3,0.9,0.5,1.2,0.7c0,0,0,0,0,0c0,0,0,0,0-0.1c0-0.2,0-0.4,0-0.7C424.3,516.4,424.3,516.2,424.3,516.1z M427,513.2
			c0-0.1,0-0.1,0-0.2c0,0,0,0,0,0c0,0,0,0,0,0c0.3,0,0.6,0.1,0.9,0.3c0.3,0.1,0.5,0.3,0.6,0.5c0,0,0,0,0,0c0,0,0,0,0,0l-0.1,0.1
			c0,0,0,0,0,0s0,0,0,0C428.2,513.6,427.7,513.3,427,513.2z"/>
		<path d="M432.3,511.9c0.2,0,0.4,0,0.4,0.1c0,0,0,0,0,0s0,0,0,0.1c0,0,0,0.1-0.1,0.3c0,0.6-0.1,1-0.1,1.2c0.1,0,0.1,0,0.2-0.1
			s0,0,0.1,0c0,0,0.1,0,0.1,0c0,0,0.1,0.1,0.1,0.1c0,0,0,0.1-0.1,0.1c-0.1,0.1-0.2,0.3-0.4,0.6c0,0.2,0,0.4,0,0.6
			c0.8-0.7,1.7-1.1,2.5-1.1c0.6,0,1.1,0.2,1.4,0.6c0.3,0.3,0.4,0.7,0.4,1.2c0,0.5-0.2,1-0.5,1.4c-0.4,0.4-0.9,0.7-1.5,0.9
			c0,0,0,0-0.1,0c0,0-0.1,0-0.1,0c-0.1-0.1-0.1-0.1-0.2-0.1c0.7-0.2,1.3-0.5,1.7-1c0.3-0.4,0.5-0.8,0.5-1.2c0-0.5-0.2-0.9-0.5-1.2
			c-0.3-0.2-0.6-0.4-1.1-0.4c-0.8,0-1.7,0.4-2.5,1.2c0,0.4,0,0.8,0,1.2c0,0.5,0,1.2,0,1.9c0,0,0,0,0,0c0,0-0.1,0-0.2,0c0,0,0,0,0,0
			c0-0.4,0-1,0-1.7c0-0.7,0-1.2,0-1.6c-0.5,0.8-1.1,1.5-1.6,2.2c0,0,0,0,0,0c0,0,0,0,0,0c-0.1-0.1-0.1-0.1-0.2-0.2c0,0,0,0,0,0
			c0,0,0,0,0-0.1c0.6-0.7,1.2-1.5,1.8-2.4c0,0,0-0.2,0-0.4c0-0.1,0-0.2,0-0.3c-0.4,0.1-0.7,0.2-1,0.3c-0.1,0-0.2,0.1-0.4,0.2
			c0,0,0,0-0.1,0c0,0,0,0-0.1,0c0-0.1-0.1-0.2-0.1-0.3c0.2,0,0.4,0,0.5-0.1c0.5-0.1,0.8-0.2,1.1-0.3c0-0.3,0-0.7,0-1.1
			c0-0.1,0-0.1,0-0.2C432.4,512.1,432.4,512,432.3,511.9z"/>
		<path d="M440.7,512c0.1,0,0.2,0.1,0.3,0.1c0,0,0.1,0.1,0.1,0.1s0,0,0,0.1c0,0-0.1,0.2-0.1,0.3c-0.2,0.9-0.3,1.6-0.3,2.1
			c0,0.4,0,0.7,0.1,0.9c0.1-0.2,0.3-0.7,0.6-1.2c0,0.1,0.1,0.2,0.1,0.2c0,0,0,0,0,0.1s0,0,0,0.1c-0.2,0.3-0.4,0.7-0.5,1.1
			c0,0.1-0.1,0.2-0.1,0.2c0,0,0,0,0,0c0,0,0,0,0,0c0,0,0,0,0,0.1c0,0-0.1,0-0.2,0c0,0,0,0-0.1-0.1c-0.1-0.3-0.2-0.8-0.2-1.4
			c0-0.4,0.1-1,0.2-1.8c0.1-0.3,0.1-0.5,0.1-0.7C440.7,512.2,440.7,512.1,440.7,512z M443.1,512.1c0.1,0,0.2,0,0.3,0
			c0.1,0,0.1,0,0.1,0.1c0,0,0,0,0,0c0,0,0,0.1,0,0.2c0,0,0,0.1,0,0.2c0,0.9,0.1,1.7,0.1,2.2c0,1.1-0.2,1.9-0.7,2.5
			c-0.3,0.4-0.8,0.8-1.3,1.1c0,0,0,0-0.1,0s0,0-0.1,0c-0.1,0-0.1-0.1-0.2-0.1c0.6-0.3,1.1-0.7,1.4-1.1c0.4-0.6,0.6-1.3,0.6-2.3
			c0-0.5,0-1.1-0.1-1.9C443.2,512.6,443.2,512.3,443.1,512.1z"/>
	</g>
</g>
</svg>
