<svg xmlns="http://www.w3.org/2000/svg" viewBox="0 0 628.04 111.29"><defs><style>.cls-1{fill:#a29a8a;}.cls-2{fill:#a19989;}</style></defs><g id="img"><path class="cls-1" d="M208.66,93.41a11.16,11.16,0,0,0-2.56-1.51l.86-1.23a11.81,11.81,0,0,1,2.61,1.38Zm1.62,1.87c-.69,1.45-1.51,3-2.31,4.35l-1.41-1.07a44.27,44.27,0,0,0,2.5-4.34Zm-.85-5.54a10,10,0,0,0-2.53-1.55l.9-1.22a10.48,10.48,0,0,1,2.6,1.43Zm8.65,3.53a8.64,8.64,0,0,1-2.34,3.88,11.29,11.29,0,0,0,3.42,1.16,6.79,6.79,0,0,0-1.06,1.5,11,11,0,0,1-3.77-1.58,13.38,13.38,0,0,1-4.11,1.58,5.58,5.58,0,0,0-.85-1.5,11.87,11.87,0,0,0,3.65-1.2,10.17,10.17,0,0,1-1.69-2.32l1.12-.37h-2V92.88h6.22l.3-.07Zm-5-4.31A4.17,4.17,0,0,1,211,92.87a6.07,6.07,0,0,0-1.16-1.16,2.81,2.81,0,0,0,1.67-2.8V87.36h5.26v3.12c0,.24,0,.39.05.43A.25.25,0,0,0,217,91h.33a.44.44,0,0,0,.22-.06c.07,0,.13-.12.15-.31a10.55,10.55,0,0,0,.06-1.25,4.47,4.47,0,0,0,1.31.71,6.91,6.91,0,0,1-.21,1.53,1.07,1.07,0,0,1-.55.61,2.15,2.15,0,0,1-.88.16h-.87a1.68,1.68,0,0,1-1.08-.36c-.25-.25-.39-.58-.39-1.49V88.88h-2Zm-.17,5.46a6.88,6.88,0,0,0,1.47,1.78,7.16,7.16,0,0,0,1.46-1.78Z"/><path class="cls-1" d="M227.43,87.69c0,2.61.37,7.65,5.45,10.65a8.65,8.65,0,0,0-1.32,1.43,11.63,11.63,0,0,1-5.08-6.8,12,12,0,0,1-5.1,6.82,11.6,11.6,0,0,0-1.5-1.34c2.87-1.45,4.51-4.12,5.27-7.75l.84.15c-.09-.52-.15-1-.19-1.49h-3.15V87.69Z"/><path class="cls-1" d="M236.36,90.3c0,1.7-.26,4.1-1.57,5.66a5.31,5.31,0,0,0-1.19-1,7.37,7.37,0,0,0,1.26-4.7V88.2h5.86c0-.42-.07-.85-.08-1.28h1.53c0,.43,0,.87.09,1.28h1.47a11.1,11.1,0,0,0-1.12-.51l.82-.89a6.33,6.33,0,0,1,1.92.91l-.42.49h1.27v1.3h-3.75a14.89,14.89,0,0,0,.56,2.17,8.63,8.63,0,0,0,.85-1.82l1.51.36a11,11,0,0,1-1.6,3c.38.55.76.87,1.15.87s.41-.47.48-1.66a3.79,3.79,0,0,0,1.25.72c-.24,2-.72,2.41-1.81,2.41a2.73,2.73,0,0,1-2.09-1.18,8.62,8.62,0,0,1-1.3,1.06,6.85,6.85,0,0,0-.81-.87v.25h-.88a8.08,8.08,0,0,1,2,1.5l-1.14,1a8.31,8.31,0,0,0-2.05-1.68l.94-.79h-2.74v-3h3.91v2.26a7.73,7.73,0,0,0,1.3-1.06,14,14,0,0,1-1-3.55h-4.54Zm-2.64,8.31A5,5,0,0,0,235.41,96l1.46.52a5.64,5.64,0,0,1-1.79,3Zm7-7.42h-4.06v-1h4.06Zm.77,7c.52,0,.62-.14.69-1.23a4.31,4.31,0,0,0,1.44.58c-.18,1.7-.64,2.11-2,2.11h-2.21c-1.78,0-2.19-.44-2.19-1.86V96h1.63v1.77c0,.37.11.41.74.41ZM239.3,92.9h-1.25v.87h1.25Zm5.12,2.87a9.12,9.12,0,0,1,2.21,2.87l-1.49.74a9.22,9.22,0,0,0-2.1-2.92Z"/><path class="cls-1" d="M318.16,57.38c-1.2-1.22-2.68-2.76-3.94-4a.29.29,0,0,0-.24-.1.25.25,0,0,0-.22.1c-1.26,1.28-2.74,2.82-3.92,4a.48.48,0,0,1-.35.16.66.66,0,0,1-.62-.65.47.47,0,0,1,.14-.34c1.21-1.18,2.74-2.64,4-3.92a.34.34,0,0,0,.09-.24.42.42,0,0,0-.09-.24c-1.19-1.18-2.82-2.74-4-3.92a.52.52,0,0,1-.15-.35.67.67,0,0,1,.63-.63.52.52,0,0,1,.35.15l3.92,4a.34.34,0,0,0,.24.11.42.42,0,0,0,.24-.11l3.92-4a.53.53,0,0,1,.36-.15.68.68,0,0,1,.63.63.53.53,0,0,1-.16.35c-1.2,1.18-2.84,2.74-4,3.92a.3.3,0,0,0-.08.22.39.39,0,0,0,.12.28l4,3.9a.47.47,0,0,1,.14.34.66.66,0,0,1-.61.65A.49.49,0,0,1,318.16,57.38Z"/><path class="cls-2" d="M318.52,58.52a1.49,1.49,0,0,1-1.06-.44h0c-.59-.59-1.24-1.27-1.9-2L314,54.51l-2.58,2.67-.86.89a1.48,1.48,0,0,1-1.06.45,1.64,1.64,0,0,1-1.6-1.63,1.46,1.46,0,0,1,.43-1l1.6-1.56,1.95-1.9L310,50.55l-1.66-1.62a1.48,1.48,0,0,1-.45-1,1.65,1.65,0,0,1,1.62-1.62,1.53,1.53,0,0,1,1.05.44l1.91,1.95L314,50.24l1.56-1.59,1.9-1.94a1.5,1.5,0,0,1,1.06-.45,1.65,1.65,0,0,1,1.61,1.62,1.51,1.51,0,0,1-.44,1L318,50.55l-1.88,1.83,1.72,1.69,1.82,1.78a1.46,1.46,0,0,1,.43,1A1.64,1.64,0,0,1,318.52,58.52Zm-6.18-5.67Zm3.33,0h0Zm-3.33-.92Z"/><path class="cls-1" d="M398.56,99.37h-5.31v1.84c0,.85-.18,1.28-.86,1.51a8.15,8.15,0,0,1-2.67.27,7.69,7.69,0,0,0-.68-1.6c.88,0,1.9,0,2.18,0s.36,0,.36-.25V99.37h-5.3v-1.5h5.3V97h.79a10.74,10.74,0,0,0,1.06-.75h-4.68V94.77H395l.36-.08,1,.8a13.56,13.56,0,0,1-3,2.38h5.21ZM388,95.62h-1.54V92.26h1.87a11.34,11.34,0,0,0-.95-1.42l1.4-.62A7.56,7.56,0,0,1,390,92l-.49.23h2.16a9.27,9.27,0,0,0-.87-1.72l1.45-.53a8.18,8.18,0,0,1,1.08,2l-.66.26h2.08a11.18,11.18,0,0,0,1.19-2.1l1.78.54c-.37.53-.79,1.08-1.16,1.56h1.84v3.36h-1.62V93.71H388Z"/><path class="cls-1" d="M403.66,95c-1.11.49-2.28,1-3.26,1.37L399.83,95c.9-.28,2.25-.74,3.58-1.2Zm3.43,1.23a9.51,9.51,0,0,1-.53,1h4.37V103h-1.71v-.5h-5.91v.5h-1.63V97.19h3.25c.11-.26.2-.55.29-.8h0a5.36,5.36,0,0,1-1.88.18,4.36,4.36,0,0,0-.42-1.16c.47,0,1,0,1.16,0s.21-.06.21-.2V92h-2.66a8.63,8.63,0,0,1,1.53,1L402.29,94a7.5,7.5,0,0,0-1.74-1.25l.69-.83h-1.05V90.69h5.54v4.57a1.76,1.76,0,0,1-.11.71Zm2.13,2.25h-5.91v.8h5.91Zm0,2.83v-.8h-5.91v.8Zm2.75-6c0,.66-.14,1-.61,1.2a5.11,5.11,0,0,1-2,.2,5.13,5.13,0,0,0-.45-1.24c.53,0,1.14,0,1.3,0s.24-.06.24-.21V92H407.8a8.47,8.47,0,0,1,1.53,1l-.74,1,1.27-.44.24,1.17c-1.18.46-2.45.93-3.47,1.3l-.56-1.23c.64-.19,1.48-.45,2.38-.76a9.15,9.15,0,0,0-1.74-1.2l.66-.81h-.9V90.69H412Z"/><path class="cls-2" d="M227.62,80.9a7.56,7.56,0,0,1-3.77-1L204.37,68.76a7.56,7.56,0,0,1-3.78-6.53V40a7.54,7.54,0,0,1,3.77-6.53l19.49-11.14a7.57,7.57,0,0,1,7.54,0l19.48,11.14A7.57,7.57,0,0,1,254.65,40V62.23h0a7.58,7.58,0,0,1-3.77,6.52l-19.5,11.14A7.52,7.52,0,0,1,227.62,80.9Zm0-55.67a3.56,3.56,0,0,0-1.79.48l-19.5,11.14A3.61,3.61,0,0,0,204.53,40V62.23a3.6,3.6,0,0,0,1.8,3.11l19.48,11.13a3.61,3.61,0,0,0,3.61,0l19.49-11.14a3.58,3.58,0,0,0,1.79-3.1V40a3.6,3.6,0,0,0-1.8-3.11L229.42,25.71A3.63,3.63,0,0,0,227.61,25.23Zm25.06,37h0Z"/><path class="cls-2" d="M227.62,53.09a2.06,2.06,0,0,1-1-.26L202.32,38.77a2,2,0,0,1,2-3.42l23.32,13.49,23.32-13.49a2,2,0,0,1,2,3.42L228.6,52.83A2,2,0,0,1,227.62,53.09Z"/><path class="cls-2" d="M227.62,81.13a2,2,0,0,1-2-2V51.09a2,2,0,0,1,3.94,0V79.16A2,2,0,0,1,227.62,81.13Z"/><path class="cls-2" d="M425.48,79.73H397.57a2,2,0,1,1,0-3.94h27.91a2,2,0,0,1,0,3.94Z"/><path class="cls-2" d="M369.65,79.73a1.93,1.93,0,0,1-1.39-.58,2,2,0,0,1-.52-1.87l3.1-12.41a2,2,0,0,1,.52-.91l38.77-38.77a8.55,8.55,0,1,1,12.09,12.09L383.45,76.05a2,2,0,0,1-.91.52l-12.41,3.1A2,2,0,0,1,369.65,79.73Zm4.88-13.37-2.17,8.69,8.69-2.17,38.39-38.39A4.61,4.61,0,0,0,412.92,28Zm37-39.78h0Z"/></g></svg>