<svg xmlns="http://www.w3.org/2000/svg" viewBox="0 0 628.04 110.36"><defs><style>.cls-1{fill:#a29a8a;}.cls-2{fill:#fff;}</style></defs><g id="img"><circle class="cls-1" cx="312.61" cy="55.61" r="37.47"/><path class="cls-1" d="M209.6,20.69a34.07,34.07,0,1,1-34.06,34.07A34.1,34.1,0,0,1,209.6,20.69m0-3.4a37.47,37.47,0,1,0,37.47,37.47A37.46,37.46,0,0,0,209.6,17.29Z"/><path class="cls-1" d="M418.44,20.69a34.07,34.07,0,1,1-34.07,34.07,34.1,34.1,0,0,1,34.07-34.07m0-3.4A37.47,37.47,0,1,0,455.9,54.76a37.47,37.47,0,0,0-37.46-37.47Z"/><path class="cls-1" d="M212.61,53.55c.36,5,1.39,8.89,2.63,8.89.36,0,.57-.9.65-3.06a5.63,5.63,0,0,0,1.77,1.19c-.31,3.21-1,4-2.6,4-2.91,0-4.18-5-4.59-11H202v-2h8.35c0-.92-.05-1.87-.05-2.8h2.17c0,.93,0,1.88,0,2.8h2.68a12,12,0,0,0-2-1.79l1.35-1.1a12.66,12.66,0,0,1,2.22,1.89l-1.15,1h1.6v2Zm-5.37,7.63c1-.18,2.12-.39,3.16-.59l.15,1.8c-2.78.61-5.78,1.22-8,1.7l-.56-2,3.21-.51v-4.1h-2.56V55.49H210v1.95h-2.72Z"/><path class="cls-2" d="M301.29,60.38l-6.17,1.81-.53-1.91c.7-.15,1.53-.37,2.45-.61V56.25h-1.89V54.4H297v-3h-2V49.57H301v1.87H299v3h1.76v1.85H299v2.91l2-.56Zm7.55,2.37c.29,0,.37-.28.41-2a5.11,5.11,0,0,0,1.68.75c-.17,2.33-.61,3-1.87,3h-1.28c-1.56,0-1.9-.58-1.9-2.29V58.85h-1c-.3,2.77-1.08,4.75-4.71,5.82A5.76,5.76,0,0,0,299,63c3.08-.76,3.62-2.16,3.84-4.15h-1.24V49.34h8.3v9.51h-2.09v3.34c0,.49,0,.56.32.56ZM303.5,52h4.44V51H303.5Zm0,2.58h4.44v-1H303.5Zm0,2.59h4.44V56.15H303.5Z"/><path class="cls-2" d="M330,57.61a30.49,30.49,0,0,1-3.58,2,8.57,8.57,0,0,0,3.94,2.76,8.56,8.56,0,0,0-1.29,1.7c-3.23-1.33-5.1-4-6.17-7.6-.44.27-.92.52-1.41.76C325,59.55,325,63,323.22,64.09a3.36,3.36,0,0,1-2,.56l-1.36,0a3.78,3.78,0,0,0-.58-1.81,23.08,23.08,0,0,1-3.45,1.28,10.46,10.46,0,0,0-1.16-1.46,20.6,20.6,0,0,0,7-2.93,4.58,4.58,0,0,0-.35-.45,19.81,19.81,0,0,1-5.29,2.15A8.23,8.23,0,0,0,315,60a19.82,19.82,0,0,0,5.31-1.73l-.55-.36A34.53,34.53,0,0,1,316,59.09a9.73,9.73,0,0,0-1-1.43,26.47,26.47,0,0,0,4.9-1.27h-3.21V53.76l-.58.37a6.78,6.78,0,0,0-1.35-1.43,12.37,12.37,0,0,0,4.61-4.08l2.11.41-.51.71h3l.31-.08,1.37.9a12.87,12.87,0,0,1-1.14,1.58h4.1v4.25h-3.86a12.59,12.59,0,0,0,.87,1.94,21,21,0,0,0,2.82-1.91Zm-11.47-2.68h2.91V53.62h-2.91Zm1.09-3.67c-.28.3-.58.59-.9.88h3.38a9.8,9.8,0,0,0,.68-.88Zm2.77,9.82a19.81,19.81,0,0,1-3.05,1.72,13,13,0,0,0,1.57.07,1.61,1.61,0,0,0,1-.26A1.4,1.4,0,0,0,322.39,61.08Zm4.18-7.46h-3.16v1.31h3.16Z"/><path class="cls-1" d="M258.3,53.43h5.62a13,13,0,0,1-1.15-1.82l1.49-.85a19,19,0,0,0,4.95,5.88,19.15,19.15,0,0,0-4.95,5.89l-1.49-.85a12.41,12.41,0,0,1,1.15-1.82H258.3a12.41,12.41,0,0,1,1.15,1.82l-1.49.85A19.28,19.28,0,0,0,253,56.64,19.12,19.12,0,0,0,258,50.76l1.49.85A13,13,0,0,1,258.3,53.43Zm-2.73,3.21a10.45,10.45,0,0,1,1.44,1.5h8.2a10.45,10.45,0,0,1,1.44-1.5,9.84,9.84,0,0,1-1.44-1.49H257A9.84,9.84,0,0,1,255.57,56.64Z"/><path class="cls-1" d="M362.71,53.43h5.63a12.1,12.1,0,0,1-1.15-1.82l1.49-.85a19,19,0,0,0,4.95,5.88,19.15,19.15,0,0,0-4.95,5.89l-1.49-.85a11.62,11.62,0,0,1,1.15-1.82h-5.63a11.72,11.72,0,0,1,1.16,1.82l-1.49.85a19.28,19.28,0,0,0-4.95-5.89,19.12,19.12,0,0,0,4.95-5.88l1.49.85A12.21,12.21,0,0,1,362.71,53.43ZM360,56.64a11,11,0,0,1,1.44,1.5h8.2a10.45,10.45,0,0,1,1.44-1.5,9.84,9.84,0,0,1-1.44-1.49h-8.2A10.34,10.34,0,0,1,360,56.64Z"/><path class="cls-1" d="M408.88,51.49l-1.26.53,1.45.89a6,6,0,0,0-.56,1.22,17.3,17.3,0,0,1-3,5.66,15.81,15.81,0,0,1-6.85,4.81l-2-1.8a13.63,13.63,0,0,0,6.85-4.22A12,12,0,0,0,405.94,54h-4.77a19.17,19.17,0,0,1-4.3,4.11L395,56.64a14.61,14.61,0,0,0,5.3-5.47A7.38,7.38,0,0,0,401,49.4l2.5.82a17.85,17.85,0,0,0-1,1.73l-.05.09h3.4a5.33,5.33,0,0,0,1.48-.21l.12.07a20.3,20.3,0,0,0-1.24-2.19l1.34-.54A22,22,0,0,1,408.88,51.49Zm2-.78-1.34.58A17.73,17.73,0,0,0,408.2,49l1.34-.55A22.29,22.29,0,0,1,410.92,50.71Z"/><path class="cls-1" d="M425,55.69a12.26,12.26,0,0,1-2.51,4.71,12.79,12.79,0,0,1-6.07,3.67l-1.69-1.92a11.59,11.59,0,0,0,5.89-3,7.56,7.56,0,0,0,1.75-2.94h-8.21c-.41,0-1.26,0-2,.08V54.11c.71,0,1.44.1,2,.1h8.41a3.42,3.42,0,0,0,1.24-.17l1.51.94A6.92,6.92,0,0,0,425,55.69Zm-9.48-5.56H422a15.69,15.69,0,0,0,1.84-.08v2.19c-.46,0-1.26-.05-1.87-.05H415.5c-.55,0-1.28,0-1.77.05V50.05A14,14,0,0,0,415.5,50.13Z"/><path class="cls-1" d="M440.31,53a17.39,17.39,0,0,1-2.54,6.18,13.56,13.56,0,0,1-6.84,4.69l-1.85-2a11.3,11.3,0,0,0,6.66-4,10.77,10.77,0,0,0,2-4.8h-7.92c-.76,0-1.58,0-2,.07V50.7c.51,0,1.48.13,2,.13h7.85A6.16,6.16,0,0,0,439,50.7l1.67,1.07A8.24,8.24,0,0,0,440.31,53Z"/></g></svg>