<?xml version="1.0" encoding="utf-8"?>
<!-- Generator: Adobe Illustrator 24.2.3, SVG Export Plug-In . SVG Version: 6.00 Build 0)  -->
<svg version="1.1" id="レイヤー_1" xmlns="http://www.w3.org/2000/svg" xmlns:xlink="http://www.w3.org/1999/xlink" x="0px"
	 y="0px" viewBox="0 0 595.3 595.3" style="enable-background:new 0 0 595.3 595.3;" xml:space="preserve">
<style type="text/css">
	.st0{fill:#FAF8F6;}
	.st1{fill:none;stroke:#FAF8F6;stroke-width:16;stroke-miterlimit:10;}
	.st2{fill:none;}
	.st3{opacity:0.2;fill:#7B7B7B;enable-background:new    ;}
</style>
<path class="st0" d="M482.4,407V180.4c0-1.3,0.2-2.3,0.3-2.3h21.7c0.2,0,0.3,1,0.3,2.3V407c0,1.3-0.2,2.3-0.3,2.3h-21.7
	C482.6,409.4,482.4,408.3,482.4,407z"/>
<path class="st1" d="M499.3,409.4h-342c-5.8,0-10.5-4.9-10.5-11.1V189.2c0-6.1,4.7-11.1,10.5-11.1h342c5.8,0,10.5,4.9,10.5,11.1
	v209.2C509.8,404.4,505.2,409.4,499.3,409.4z"/>
<path class="st0" d="M455.3,382.3h-252c-1.4,0-2.6-1.2-2.6-2.8v-172c0-1.5,1.1-2.8,2.6-2.8h252c1.4,0,2.6,1.2,2.6,2.8v172.1
	C457.9,381.1,456.8,382.3,455.3,382.3z"/>
<path class="st0" d="M167.1,425.4c0,0-1,2.3-32.6,2.3s-32.6-2.3-32.6-2.3c-7.6,0-13.8-5.2-13.8-11.6V171.2c0-6.4,6.1-11.6,13.8-11.6
	c0,0,0-2.3,32.6-2.3c31.6,0,32.6,2.3,32.6,2.3c7.6,0,13.8,5.2,13.8,11.6v242.6C180.7,420.2,174.6,425.4,167.1,425.4z"/>
<path class="st1" d="M159.3,441.9h-49.7c-3.7,0-6.7-2.4-6.7-5.3V148.5c0-2.9,3-5.3,6.7-5.3h49.7c3.7,0,6.7,2.4,6.7,5.3v288.1
	C166.1,439.5,163,441.9,159.3,441.9z"/>
<path class="st2" d="M243.3,587.6"/>
<path class="st2" d="M102.9,447.2"/>
<path class="st2" d="M603.5,256.8"/>
<path class="st2" d="M504.5,178.1"/>
<polygon class="st3" points="596.6,595.3 596.6,253.6 509.8,175.1 504.8,407 173.6,409.4 166.1,441.9 102.9,441.9 256.3,595.3 "/>
</svg>
