<?xml version="1.0" encoding="utf-8"?>
<!-- Generator: Adobe Illustrator 25.0.1, SVG Export Plug-In . SVG Version: 6.00 Build 0)  -->
<svg version="1.1" id="レイヤー_1" xmlns="http://www.w3.org/2000/svg" xmlns:xlink="http://www.w3.org/1999/xlink" x="0px"
	 y="0px" viewBox="0 0 595.3 317.3" style="enable-background:new 0 0 595.3 317.3;" xml:space="preserve">
<style type="text/css">
	.st0{fill:#666560;}
</style>
<g>
	<path class="st0" d="M497.7,23.5l16.8,222.4l-356.3,26.8L141.8,54.4L498,27.6L497.7,23.5L141.4,50.3v-0.2c-0.3-3.3-3-5.8-6.3-5.8
		c-1.5,0-3,0-4.4,0l-0.5-6.6c-0.3-2.8-3-4.9-6.4-4.6l-34.7,2.6c-3.3,0.3-5.8,2.8-5.6,5.5l0.5,6.5c-1.8,0.3-3.4,0.7-4.7,0.8
		c-3.3,0.4-5.6,3.4-5.4,6.6l16.9,225.6c0.3,3.2,2.8,5.7,6,5.8c1.4,0,3.3,0.3,5.4,0.4l0.7,9.2c0.3,2.8,3,4.9,6.4,4.6l34.7-2.6
		c3.3-0.3,5.8-2.8,5.6-5.5l-0.7-9.4c1.4-0.3,2.8-0.7,4.4-0.9c3.1-0.6,5.3-3.4,5-6.6l0.1,0.8l358.8-27c1.4,0.1,3.1-0.1,4.7-0.9
		L505,23C501.6,22.5,497.7,23.5,497.7,23.5z M87.6,41c0-0.4,0.7-1.2,1.8-1.3l34.8-2.6c1.2-0.1,2,0.5,2,0.9l0.5,6.2
		c-7-0.3-13.7-0.7-19.8-0.2c-7.2,0.6-13.6,1.8-18.8,2.9L87.6,41z M145.8,293.1c0,0.4-0.7,1.2-1.8,1.3l-34.7,2.6
		c-1.2,0.1-2-0.5-2-0.9l-0.7-8.5c5.8,0.6,12.7,1.3,19.4,0.8c6.6-0.4,12.5-2.3,19.2-4L145.8,293.1z"/>
	<g>
		<path class="st0" d="M280,113.7c-0.8,0.3-1.5,0.7-2.3,0.9l0.6,6.5l-1.1,0.1l-0.5-6.2c-1.1,0.4-2.1,0.8-2.9,1.2l-0.4-1.1
			c0.9-0.3,2-0.8,3.3-1.3l-0.3-4.1l-1.7,0.2c-0.2,1.1-0.3,2-0.6,2.8c-0.2-0.2-0.7-0.3-0.9-0.5c0.6-1.6,0.8-3.9,0.8-6.1l1.1,0.1
			c0,0.8-0.1,1.7-0.2,2.5l1.5-0.1l-0.3-3.7l1.1-0.1l0.3,3.7l1.9-0.2l0.1,1.2l-1.9,0.2l0.3,3.8l2.1-0.8L280,113.7z M289,107
			c0,0,0,0.5,0,0.7c0.3,8.2,0.1,11-0.6,11.9c-0.3,0.5-0.7,0.7-1.2,0.8c-0.5,0.1-1.3,0.2-2,0.2c-0.1-0.3-0.3-0.8-0.4-1.2
			c0.8,0,1.6-0.1,1.9-0.1s0.5-0.1,0.7-0.3c0.5-0.7,0.7-3.4,0.5-10.6l-1,0.1c-0.5,4.8-2.1,9.8-4.9,12.4c-0.3-0.3-0.7-0.5-1.1-0.7
			c2.8-2.4,4.4-7,4.9-11.6l-1.6,0.2c-0.6,3.2-1.9,6.7-3.8,8.5c-0.3-0.3-0.7-0.5-1-0.6c1.8-1.7,3.2-4.9,3.8-7.9l-1.7,0.2
			c-0.5,1.3-1.1,2.6-1.8,3.6c-0.3-0.2-0.7-0.5-1-0.6c1.3-1.8,2.2-4.4,2.6-7.2l1.1,0.1c-0.2,1-0.3,2-0.6,2.9L289,107z"/>
		<path class="st0" d="M292.5,106.6l6.4-0.5l0.1,1l-6.4,0.5L292.5,106.6z M298.2,104.8l-4.9,0.4l-0.1-1l4.9-0.4L298.2,104.8z
			 M298.6,109.6l-5,0.4l-0.1-1l5-0.4L298.6,109.6z M293.8,111.5l5-0.4l0.1,1l-5,0.4L293.8,111.5z M299.5,118.6l-4,0.3l0.1,0.8
			l-1,0.1l-0.5-5.9l5.1-0.4L299.5,118.6z M295,114.8l0.3,3.2l3-0.3l-0.3-3.2L295,114.8z M309.3,109.7l0.1,1.1l-9.9,0.8l-0.1-1.1
			l2.3-0.2c0.1-0.8,0.2-1.8,0.3-2.8l-2.1,0.2l-0.1-1l2.3-0.2c0.1-0.7,0.1-1.3,0.2-1.9l-2.8,0.3l-0.1-1.1l8.8-0.8l0.1,1.1l-4.8,0.4
			c0,0.6-0.1,1.3-0.2,1.9l4-0.3l0.3,3.8L309.3,109.7z M300.9,113l7.5-0.6l0.5,6.3l-1.2,0.1l-0.1-0.8l-5.2,0.4l0.1,0.8l-1,0
			L300.9,113z M302.2,113.9l0.3,3.4l5.2-0.4l-0.3-3.4L302.2,113.9z M303.2,107.5c-0.1,1-0.2,2-0.3,2.8l3.6-0.3l-0.3-2.8L303.2,107.5
			z"/>
		<path class="st0" d="M312.5,110c0.4-1.2,0.6-3.2,0.6-4.6l0.9,0.1c0,1.4-0.2,3.5-0.5,4.9L312.5,110z M314.4,101.8l1.2-0.1l1.3,16.2
			l-1.2,0.1L314.4,101.8z M316.9,104.4c0.6,0.9,1.3,2.2,1.5,2.9l-0.8,0.5c-0.3-0.8-0.9-2-1.5-3L316.9,104.4z M329.3,115.2l0.1,1.2
			l-10.9,0.9l-0.1-1.2l5.2-0.4l-0.4-4.6l-3.9,0.3l-0.1-1.1l3.9-0.3l-0.3-3.9l-2.8,0.3c-0.3,1.1-0.7,2.1-1,2.9
			c-0.3-0.1-0.8-0.3-1.1-0.4c0.9-1.7,1.5-4.1,1.7-6.6l1.2,0.1c-0.1,1-0.3,1.9-0.4,2.8l2.3-0.2l-0.3-3.8l1.2-0.1l0.3,3.8l4.1-0.3
			l0.1,1.1l-4.1,0.3l0.3,3.9l3.8-0.3l0.1,1.1l-3.8,0.3l0.4,4.6L329.3,115.2z"/>
	</g>
	<g>
		<path class="st0" d="M227.8,159.8l-3.9,0.3l0.1,1.4l-1.1,0.1l-1.1-13.1l5-0.4L227.8,159.8z M223,149.7l0.3,4.1l2.8-0.3l-0.3-4.1
			L223,149.7z M226.6,158.9l-0.3-4.3l-2.8,0.3l0.3,4.3L226.6,158.9z M235.7,153l0.2,2.1l2.2-0.2l0.1,1.1l-2.2,0.2l0.4,4.9
			c0.1,0.7-0.1,1.1-0.6,1.3c-0.5,0.3-1.4,0.3-2.8,0.4c-0.1-0.3-0.3-0.8-0.5-1.1c1.2-0.1,2.2-0.2,2.4-0.2c0.3,0,0.4-0.1,0.3-0.4
			l-0.4-4.9l-6.9,0.6l-0.1-1.1l6.9-0.6l-0.2-2.1l-7,0.6l-0.1-1.1l4.5-0.4l-0.2-2.3l-3.8,0.3L228,149l3.8-0.3l-0.2-2.2l1.2-0.1
			l0.2,2.2l3.9-0.3l0.1,1.1l-3.9,0.3l0.2,2.3l4.7-0.4l0.1,1.1L235.7,153z M230.1,157.4c1,0.8,2.1,2,2.6,2.8l-0.9,0.8
			c-0.5-0.8-1.6-2.1-2.5-3L230.1,157.4z"/>
		<path class="st0" d="M243.4,152.5l0.8,9.5l-1.2,0.1l-1.3-15.5l6.4-0.5l0.5,6L243.4,152.5z M242.9,147.4l0.2,1.6l4.1-0.3l-0.2-1.6
			L242.9,147.4z M247.5,151.3l-0.2-1.7l-4.1,0.3l0.2,1.7L247.5,151.3z M247.9,160.1l0.1,0.9l-1.1,0.1l-0.6-7.3l6.6-0.6l0.5,6.4
			L247.9,160.1z M247.5,154.5l0.2,1.8l4.4-0.3l-0.2-1.8L247.5,154.5z M252.2,158.7l-0.2-1.8l-4.4,0.3l0.2,1.8L252.2,158.7z
			 M257.5,159.2c0.1,0.8-0.1,1.3-0.7,1.5c-0.5,0.3-1.5,0.3-2.9,0.5c-0.1-0.3-0.3-0.8-0.5-1.2c1.2,0,2.3-0.2,2.5-0.2
			c0.3-0.1,0.4-0.2,0.4-0.5l-0.7-7.8l-5.4,0.4l-0.5-6l6.5-0.6L257.5,159.2z M251,146.7l0.2,1.6l4.2-0.3l-0.2-1.6L251,146.7z
			 M255.6,150.6l-0.2-1.7l-4.2,0.3l0.2,1.7L255.6,150.6z"/>
		<path class="st0" d="M265.3,144.1c-0.3,0.9-0.5,1.9-0.8,2.8l3-0.3l1,11.6l-5,0.4l0.1,1.4l-1.1,0.1l-1.1-13l2-0.2
			c0.3-0.8,0.4-2.1,0.5-2.9L265.3,144.1z M266.6,147.7l-3.9,0.3l0.3,3.9l3.9-0.3L266.6,147.7z M267.4,157.1l-0.3-4.4l-3.9,0.3
			l0.3,4.4L267.4,157.1z M276.4,146.4c0.4,8.2,0.4,11-0.3,11.9c-0.3,0.5-0.8,0.7-1.3,0.8c-0.6,0.1-1.6,0.2-2.6,0.2
			c-0.1-0.3-0.3-0.8-0.5-1.1c1.2,0,2.3-0.1,2.7-0.1c0.3,0,0.6-0.1,0.8-0.3c0.5-0.7,0.6-3.4,0.3-10.7l-4.7,0.4
			c-0.4,1.3-0.8,2.4-1.4,3.4c-0.3-0.2-0.8-0.4-1.1-0.6c1.1-1.7,1.8-4.3,2.2-6.8l1.2,0.2c-0.2,0.9-0.3,1.8-0.6,2.7l5.4-0.4
			L276.4,146.4z M273.3,154.8c-0.7-1-2-2.7-3.1-3.9l0.8-0.6c1.2,1.2,2.5,2.8,3.2,3.9L273.3,154.8z"/>
		<path class="st0" d="M290.8,149.9c0.1,1-0.7,1.9-1.7,2c-1,0.1-1.9-0.7-2-1.7c-0.1-1,0.7-1.9,1.7-2
			C289.8,148.2,290.7,148.9,290.8,149.9z"/>
		<path class="st0" d="M306.8,143.4c-0.1,3.3-1,5.2-5.1,6.4c-0.1-0.3-0.5-0.8-0.8-0.9c3.8-1.1,4.5-2.7,4.6-5.4l-3.7,0.3l0.2,2.4
			l-1.2,0.1l-0.3-3.5l6.8-0.6l-0.2-1.9l1.2-0.1l0.2,1.9l7-0.6l0.3,3.1l-1.2,0.1l-0.2-2l-3.9,0.3l0.3,3.7c0,0.4,0.2,0.5,0.8,0.4
			l2.4-0.2c0.6-0.1,0.6-0.3,0.6-1.5c0.3,0.2,0.8,0.3,1.1,0.3c0,1.7-0.3,2.1-1.4,2.2l-2.6,0.3c-1.5,0.1-1.9-0.2-2-1.4l-0.3-3.7
			L306.8,143.4z M317,154.3l0.1,1.1l-15.7,1.3l-0.1-1.1l7.2-0.6l-0.3-3.8l-5.3,0.4l-0.1-1.1l12.2-1l0.1,1.1l-5.7,0.5l0.3,3.8
			L317,154.3z"/>
		<path class="st0" d="M322.1,146l0.8,9.5l-1.2,0.1l-1.3-15.5l6.4-0.5l0.5,6L322.1,146z M321.7,140.9l0.2,1.6l4.1-0.3l-0.2-1.6
			L321.7,140.9z M326.1,144.7l-0.2-1.7l-4.1,0.3l0.2,1.7L326.1,144.7z M326.6,153.4l0.1,0.9l-1.1,0.1l-0.6-7.3l6.6-0.6l0.5,6.4
			L326.6,153.4z M326.2,148l0.2,1.8l4.4-0.3l-0.2-1.8L326.2,148z M331,152.2l-0.2-1.8l-4.4,0.3l0.2,1.8L331,152.2z M336.2,152.7
			c0.1,0.8-0.1,1.3-0.7,1.5c-0.5,0.3-1.5,0.3-2.9,0.5c-0.1-0.3-0.3-0.8-0.5-1.2c1.2,0,2.3-0.2,2.5-0.2c0.3-0.1,0.4-0.2,0.4-0.5
			l-0.7-7.8l-5.4,0.4l-0.5-6l6.5-0.6L336.2,152.7z M329.7,140.2l0.2,1.6l4.2-0.3l-0.2-1.6L329.7,140.2z M334.3,144.1l-0.2-1.7
			l-4.2,0.3l0.2,1.7L334.3,144.1z"/>
		<path class="st0" d="M344,137.4c-0.3,0.9-0.5,1.9-0.8,2.8l3-0.3l1,11.6l-5,0.4l0.1,1.4l-1.1,0.1l-1.1-13l2-0.2
			c0.3-0.8,0.4-2.1,0.5-2.9L344,137.4z M345.4,141.1l-3.9,0.3l0.3,3.9l3.9-0.3L345.4,141.1z M346.1,150.5l-0.3-4.4l-3.9,0.3l0.3,4.4
			L346.1,150.5z M355.2,139.8c0.4,8.2,0.3,11-0.3,11.9c-0.3,0.5-0.8,0.7-1.3,0.8c-0.6,0.1-1.6,0.2-2.6,0.2c-0.1-0.3-0.3-0.8-0.5-1.1
			c1.2,0,2.3-0.1,2.7-0.1c0.3,0,0.6-0.1,0.8-0.3c0.5-0.7,0.6-3.4,0.3-10.7l-4.7,0.4c-0.4,1.3-0.8,2.4-1.4,3.4
			c-0.3-0.2-0.8-0.4-1.1-0.6c1.1-1.7,1.8-4.3,2.2-6.8l1.2,0.2c-0.2,0.9-0.3,1.8-0.6,2.7l5.4-0.4L355.2,139.8z M352,148.2
			c-0.7-1-2-2.7-3.1-3.9l0.8-0.6c1.2,1.2,2.5,2.8,3.2,3.9L352,148.2z"/>
		<path class="st0" d="M365.6,139.1c0.9-0.3,1.9-0.5,2.8-0.9l0.2,1.2c-0.9,0.3-2.1,0.7-3.3,0.9c-0.7,2.6-2,5.9-3.3,7.9l-1.3-0.5
			c1.3-1.8,2.7-4.9,3.3-7.1c-0.6,0.1-1.1,0.2-1.7,0.3c-0.7,0.1-1.4,0.1-2.1,0.1l-0.2-1.2c0.7,0,1.4,0,2.2-0.1
			c0.7-0.1,1.3-0.2,2.1-0.3c0.3-1,0.3-2.2,0.3-3.2h1.4C366,136.9,365.8,138,365.6,139.1z M370.9,143.2c0.1,0.7,0.3,1.9,0.4,3
			c1.6,0.4,2.9,1.2,3.9,1.9l-0.6,1.2c-0.8-0.7-1.9-1.3-3.2-1.8c0.1,0.3,0.1,0.6,0.1,0.8c0.1,1.4-0.7,2.6-2.8,2.8
			c-1.9,0.2-3.6-0.4-3.7-2.2c-0.2-1.6,1.3-2.8,3.3-2.9c0.7-0.1,1.3,0,1.8,0.1c-0.2-1.5-0.4-3.3-0.6-4.5l1.3-0.1
			C370.8,142.1,370.8,142.6,370.9,143.2z M368.5,150c1.5-0.2,2-1,1.9-1.9c0-0.3-0.1-0.6-0.1-0.9c-0.6-0.2-1.3-0.2-1.9-0.2
			c-1.3,0.1-2.3,0.8-2.2,1.7C366.2,149.6,367,150.1,368.5,150z M370.2,139.4l0.6-1c1.3,0.4,3.4,1.4,4.4,2l-0.7,1.1
			C373.5,140.7,371.5,139.8,370.2,139.4z"/>
		<path class="st0" d="M394.6,144.8c-0.8,0.8-1.9,1.5-2.8,2.1c1.2,0.8,2.7,1.3,4.3,1.4c-0.3,0.3-0.5,0.8-0.7,1
			c-3.3-0.5-5.8-2.3-7.2-4.9l-2.3,0.2l0.3,3.6c1.3-0.3,2.5-0.6,3.9-1l0.2,1c-2.4,0.7-5,1.3-6.9,1.8l-0.3-1.1c0.6-0.2,1.3-0.3,2-0.5
			l-0.3-3.8l-2.3,0.2l-0.1-1l3.4-0.3l-0.2-1.9l-2.8,0.3l-0.1-1l2.8-0.3l-0.2-1.7l-3.4,0.3l0.1,0.9c0.3,3,0.3,7.4-1.3,10.4
			c-0.3-0.2-0.8-0.4-1.1-0.5c1.6-3,1.4-7,1.2-9.8l-0.4-5.2l13.3-1.1l0.3,4.3l-2.8,0.3l0.2,1.7l3.1-0.3l0.1,1l-3.1,0.3l0.2,1.9
			l3.9-0.3l0.1,1l-6.2,0.5c0.4,0.8,1,1.3,1.7,1.9c0.9-0.7,2-1.5,2.6-2.1L394.6,144.8z M381.8,138.3l10.9-0.9l-0.2-2.2l-10.9,0.9
			L381.8,138.3z M386.6,140.6l3.8-0.3l-0.2-1.7l-3.8,0.3L386.6,140.6z M386.8,143.6l3.8-0.3l-0.2-1.9l-3.8,0.3L386.8,143.6z"/>
		<path class="st0" d="M400.8,139.3l0.8,9.6l-1.2,0.1l-1.3-15.5l6.4-0.5l0.5,5.9L400.8,139.3z M400.4,134.3l0.2,1.5l4.1-0.3
			l-0.2-1.5L400.4,134.3z M404.8,138l-0.2-1.7l-4.1,0.3l0.2,1.7L404.8,138z M409.6,143.8l0.3,4l-1.1,0.1l-0.3-4l-2.7,0.3
			c0,1.2-0.4,3.2-2.1,4.5c-0.2-0.2-0.6-0.5-0.8-0.7c1.5-1.1,1.8-2.7,1.9-3.8l-2.3,0.2l-0.1-1l2.3-0.2l-0.2-2l-2,0.2l-0.1-1l8.9-0.8
			l0.1,1l-2.1,0.2l0.2,2l2.5-0.2l0.1,1L409.6,143.8z M408.5,142.9l-0.2-2l-2.7,0.3l0.2,2L408.5,142.9z M415,146.2
			c0.1,0.8-0.1,1.2-0.6,1.4c-0.5,0.3-1.3,0.3-2.8,0.4c-0.1-0.3-0.3-0.8-0.5-1.2c1-0.1,2-0.2,2.3-0.2c0.3-0.1,0.4-0.2,0.3-0.4l-0.7-8
			l-5.4,0.4l-0.5-5.9l6.6-0.6L415,146.2z M408.4,133.6l0.2,1.5l4.3-0.3l-0.2-1.5L408.4,133.6z M413,137.4l-0.2-1.7l-4.3,0.3l0.2,1.7
			L413,137.4z"/>
	</g>
	<g>
		<path class="st0" d="M231.2,200.8l-3.9,0.3l0.1,1.4l-1.1,0.1l-1.1-13.1l5-0.4L231.2,200.8z M226.4,190.6l0.3,4.1l2.8-0.3l-0.3-4.1
			L226.4,190.6z M230,199.8l-0.3-4.3l-2.8,0.3l0.3,4.3L230,199.8z M239.1,194.1l0.2,2.1l2.2-0.2l0.1,1.1l-2.2,0.2l0.4,4.9
			c0.1,0.7-0.1,1.1-0.6,1.3c-0.5,0.3-1.4,0.3-2.8,0.4c-0.1-0.3-0.3-0.8-0.5-1.1c1.2-0.1,2.2-0.2,2.4-0.2c0.3,0,0.4-0.1,0.3-0.4
			l-0.4-4.9l-6.9,0.6l-0.1-1.1l6.9-0.6l-0.2-2.1l-7,0.6l-0.1-1.1l4.5-0.4l-0.2-2.3l-3.8,0.3l-0.1-1.1l3.8-0.3l-0.2-2.2l1.2-0.1
			l0.2,2.2l3.9-0.3l0.1,1.1l-3.9,0.3l0.2,2.3l4.7-0.4l0.1,1.1L239.1,194.1z M233.6,198.4c1,0.8,2.1,2,2.6,2.8l-0.9,0.8
			c-0.5-0.8-1.6-2.1-2.5-3L233.6,198.4z"/>
		<path class="st0" d="M246.8,193.6l0.8,9.5l-1.2,0.1l-1.3-15.5l6.4-0.5l0.5,6L246.8,193.6z M246.4,188.4l0.2,1.6l4.1-0.3l-0.2-1.6
			L246.4,188.4z M250.8,192.2l-0.2-1.7l-4.1,0.3l0.2,1.7L250.8,192.2z M251.3,201l0.1,0.9l-1.1,0.1l-0.6-7.3l6.6-0.6l0.5,6.4
			L251.3,201z M250.9,195.6l0.2,1.8l4.4-0.3l-0.2-1.8L250.9,195.6z M255.7,199.7l-0.2-1.8l-4.4,0.3l0.2,1.8L255.7,199.7z
			 M260.9,200.3c0.1,0.8-0.1,1.3-0.7,1.5c-0.5,0.3-1.5,0.3-2.9,0.5c-0.1-0.3-0.3-0.8-0.5-1.2c1.2,0,2.3-0.2,2.5-0.2
			c0.3-0.1,0.4-0.2,0.4-0.5l-0.7-7.8l-5.4,0.3l-0.5-6l6.5-0.6L260.9,200.3z M254.4,187.8l0.2,1.6l4.2-0.3l-0.2-1.6L254.4,187.8z
			 M259,191.6l-0.2-1.7l-4.2,0.3l0.2,1.7L259,191.6z"/>
		<path class="st0" d="M268.7,185c-0.3,0.9-0.5,1.9-0.8,2.8l3-0.3l1,11.6l-5,0.4l0.1,1.4L266,201l-1.1-13l2-0.2
			c0.3-0.8,0.4-2.1,0.5-2.9L268.7,185z M270.1,188.7l-3.9,0.3l0.3,3.9l3.9-0.3L270.1,188.7z M270.8,198.1l-0.3-4.4l-3.9,0.3l0.3,4.4
			L270.8,198.1z M279.9,187.4c0.4,8.2,0.4,11-0.3,11.9c-0.3,0.5-0.8,0.7-1.3,0.8c-0.6,0.1-1.6,0.2-2.6,0.2c-0.1-0.3-0.3-0.8-0.5-1.1
			c1.2,0,2.3-0.1,2.7-0.1c0.3,0,0.6-0.1,0.8-0.3c0.5-0.7,0.6-3.4,0.3-10.7l-4.7,0.4c-0.4,1.3-0.8,2.4-1.4,3.4
			c-0.3-0.2-0.8-0.4-1.1-0.6c1.1-1.7,1.8-4.3,2.2-6.8l1.2,0.2c-0.2,0.9-0.3,1.8-0.6,2.7l5.4-0.4L279.9,187.4z M276.7,195.7
			c-0.7-1-2-2.7-3.1-3.9l0.8-0.6c1.2,1.2,2.5,2.8,3.2,3.9L276.7,195.7z"/>
		<path class="st0" d="M287.3,185.9c-0.3,1.8-0.5,4.9-0.3,7c0.1,0.9,0.3,1.8,0.4,2.8c0.3-0.8,0.6-2.1,0.8-2.8l0.8,0.5
			c-0.3,1.3-0.8,3.2-0.9,4c0,0.3,0,0.6,0,0.8c0,0.2,0.1,0.4,0.1,0.6l-1.2,0.2c-0.5-1.3-0.9-3.3-1.2-5.7c-0.3-2.6,0.2-5.8,0.3-7.3
			c0-0.4,0-0.8,0-1.2h1.4C287.5,185.1,287.3,185.6,287.3,185.9z M292.2,194.8c0.1,0.8,0.7,1.7,3.3,1.4c1.6-0.2,3-0.4,4.4-0.8
			l0.2,1.3c-1.1,0.3-2.6,0.6-4.4,0.8c-3,0.3-4.4-0.6-4.5-2.3c-0.1-0.6,0-1.2,0.1-2.1h1.2C292.2,193.8,292.2,194.3,292.2,194.8z
			 M298.5,185.3l0.1,1.3c-1.8,0.3-5.4,0.7-7.3,0.6l-0.1-1.3C293.1,186.1,296.7,185.7,298.5,185.3z"/>
		<path class="st0" d="M314.7,188.5l0.3,2.8l4.3-0.3l0.1,1.1l-4.3,0.3l0.3,3c0.1,0.6,0.2,0.7,0.8,0.6l2.2-0.2
			c0.6-0.1,0.7-0.4,0.5-2.3c0.3,0.2,0.8,0.3,1.1,0.4c0.1,2.3-0.2,2.9-1.5,3l-2.4,0.2c-1.4,0.1-1.8-0.2-1.9-1.6l-0.3-3l-3.4,0.3
			c-0.2,1.9-1,3.9-4.4,5.4c-0.2-0.3-0.6-0.7-0.8-0.8c3-1.3,3.9-2.8,4.1-4.4l-4.1,0.3L305,192l4.2-0.3v-0.3L309,189l-1.9,0.2
			l-0.1-0.7c-0.8,0.8-1.7,1.3-2.6,1.8c-0.2-0.3-0.6-0.7-0.8-0.8c1.3-0.6,2.5-1.6,3.5-2.7c-0.6-0.5-1.6-1.3-2.4-1.8l0.7-0.7
			c0.8,0.5,1.8,1.2,2.4,1.7c0.7-0.8,1.2-1.8,1.6-2.7l-4.6,0.4l-0.1-1.1l5.2-0.4l0.2-0.1l0.8,0.3c-0.6,2.2-1.9,4.1-3.4,5.6l8.8-0.8
			c-1.9-1.4-3.5-3.4-4.6-5.7l1-0.4c0.3,0.8,0.8,1.5,1.3,2.2c0.8-0.8,1.6-1.7,2.2-2.4l0.9,0.6c-0.8,0.8-1.7,1.8-2.5,2.5
			c0.4,0.5,0.8,0.9,1.3,1.3c0.8-0.8,1.8-1.8,2.4-2.6l0.9,0.6c-0.8,0.8-1.8,1.8-2.7,2.6c1.1,0.8,2.3,1.5,3.6,1.8
			c-0.3,0.3-0.6,0.8-0.8,1.1c-1-0.3-1.9-0.8-2.8-1.3l0.1,0.7L314.7,188.5z M313.5,188.6l-3.3,0.3l0.2,2.4v0.3l3.3-0.3L313.5,188.6z"
			/>
		<path class="st0" d="M339,190.7c-0.8,0.8-1.9,1.5-2.8,2.1c1.2,0.8,2.7,1.3,4.3,1.4c-0.3,0.3-0.5,0.8-0.7,1
			c-3.3-0.5-5.8-2.3-7.2-4.9l-2.3,0.2l0.3,3.6c1.3-0.3,2.5-0.6,3.9-1l0.2,1c-2.4,0.7-5,1.3-6.9,1.8l-0.3-1.1c0.6-0.2,1.3-0.3,2-0.5
			l-0.3-3.8l-2.3,0.2l-0.1-1l3.4-0.3l-0.2-1.9l-2.8,0.3l-0.1-1l2.8-0.3l-0.2-1.7l-3.4,0.3l0.1,0.9c0.3,3,0.3,7.4-1.3,10.4
			c-0.3-0.2-0.8-0.4-1.1-0.5c1.6-3,1.4-7,1.2-9.8l-0.4-5.2l13.3-1.1l0.3,4.3l-2.8,0.3l0.2,1.7l3.1-0.3l0.1,1l-3.1,0.3l0.2,1.9
			l3.9-0.3l0.1,1l-6.2,0.5c0.4,0.8,1,1.3,1.7,1.9c0.9-0.7,2-1.5,2.6-2.1L339,190.7z M326.2,184.2l10.9-0.9l-0.2-2.2L326,182
			L326.2,184.2z M331,186.5l3.8-0.3l-0.2-1.7l-3.8,0.3L331,186.5z M331.2,189.5l3.8-0.3l-0.2-1.9l-3.8,0.3L331.2,189.5z"/>
		<path class="st0" d="M353,179.7c0,0.3,0.1,0.8,0.1,1.3c0.2,0,0.3,0,0.3,0c2.3-0.2,4.4-0.3,5.2-0.4l0.1,1.2c-1,0-2.6,0.2-5.2,0.3
			c-0.1,0-0.3,0-0.3,0c0.1,1.1,0.2,2.2,0.3,3c0.4,0.6,0.7,1.3,0.8,2.2c0.2,2.4-0.8,5.2-4.8,6.8l-1.2-0.9c2.4-0.8,3.9-2,4.5-3.8
			c-0.4,0.4-1,0.7-1.6,0.8c-1.5,0.2-3-0.8-3.2-2.7c-0.2-1.8,1.2-3.2,2.8-3.4c0.5,0,0.9,0,1.3,0.2c-0.1-0.6-0.1-1.3-0.2-1.9
			c-2.8,0.3-5.8,0.7-8,1l-0.2-1.3c1.9-0.2,5.4-0.6,8-0.8c-0.1-0.6-0.1-1-0.2-1.3c-0.1-0.4-0.2-0.9-0.2-1.1l1.4-0.1
			C353,178.8,353,179.5,353,179.7z M351.3,188.9c1.1-0.1,1.7-1,1.4-2.7c-0.3-0.8-1-1.2-1.8-1.1c-1,0.1-1.8,0.9-1.7,2.2
			C349.3,188.4,350.2,189,351.3,188.9z"/>
		<path class="st0" d="M367.1,178.6c0.9-0.1,5.3-0.6,6.2-0.8c0.5-0.1,0.7-0.2,0.9-0.3l0.8,0.9c-0.3,0.3-0.6,0.5-0.9,0.8
			c-0.8,0.8-3.2,3.2-4.5,4.4c0.8-0.3,1.8-0.5,2.6-0.6c2.9-0.3,5.2,1.3,5.4,3.7c0.3,2.9-2,4.9-5.7,5.2c-2.4,0.2-3.9-0.8-4-2.2
			c-0.1-1.2,0.8-2.3,2.5-2.5c2.3-0.2,3.5,1.3,3.9,2.9c1.4-0.7,2.3-1.8,2.1-3.4c-0.2-1.8-1.9-3-4.4-2.8c-3,0.3-4.5,1.6-6.6,4.1
			l-1-0.8c1.4-1.3,3.6-3.5,4.5-4.5c0.9-0.9,3.1-3,3.9-3.9c-0.9,0.1-4.7,0.6-5.6,0.8c-0.4,0.1-0.8,0.1-1.2,0.2l-0.2-1.3
			C366.3,178.6,366.8,178.6,367.1,178.6z M371.7,190.9c0.5-0.1,1.1-0.1,1.5-0.3c-0.3-1.4-1.3-2.4-2.8-2.3c-0.8,0.1-1.4,0.7-1.4,1.3
			C369.1,190.5,370.2,191,371.7,190.9z"/>
		<path class="st0" d="M399.1,185.3l-1.8,0.2l0.3,3.2l-1.2,0.1l-0.1-0.8l-4.4,0.3l0.1,1.3c0.1,0.8-0.2,1.1-0.7,1.3
			c-0.5,0.3-1.5,0.3-2.9,0.4c-0.1-0.3-0.3-0.7-0.5-1c1.2-0.1,2.2-0.2,2.5-0.2c0.3-0.1,0.4-0.2,0.4-0.5l-0.1-1.3l-5.9,0.5l-0.1-0.9
			l5.9-0.5l-0.1-1.4l-7.4,0.6l-0.1-1l7.4-0.6l-0.1-1.3l-5.7,0.5l-0.1-0.9l5.7-0.5l-0.1-1.3l-5.2,0.4l-0.3-3.1l5.2-0.4l-0.1-1.1
			l-7,0.6l-0.1-1l7-0.6l-0.1-1.5l1.2-0.1l0.1,1.5l7.2-0.6l0.1,1l-7.2,0.6l0.1,1.1l5.4-0.4l0.3,3.1l-5.4,0.4l0.1,1.3l5.7-0.5l0.2,2.3
			l1.8-0.2L399.1,185.3z M389.9,180.6l-0.1-1.3l-4,0.3l0.1,1.3L389.9,180.6z M391,179.1l0.1,1.3l4.2-0.3l-0.1-1.3L391,179.1z
			 M391.5,184.9l4.4-0.3l-0.1-1.3l-4.4,0.3L391.5,184.9z M396,185.5l-4.4,0.3l0.1,1.4l4.4-0.3L396,185.5z"/>
		<path class="st0" d="M405.8,178.7c0.5,0.6,2.3,2.8,2.7,3.4l-0.7,0.9c-0.3-0.6-1.3-1.9-1.9-2.8l0.8,9.5l-1.1,0.1l-0.8-8.7
			c-0.4,2-1,3.9-1.7,5.2c-0.2-0.3-0.5-0.8-0.8-1.1c0.9-1.6,1.8-4.6,2.1-7.1l-2.3,0.2l-0.1-1.1l2.3-0.2l-0.3-3.4l1.1-0.1l0.3,3.4
			l1.9-0.2l0.1,1.1l-1.9,0.2L405.8,178.7z M413.5,174.9l0.2,2.5l4.1-0.3l0.8,10.2c0.1,0.8-0.1,1.1-0.5,1.3c-0.5,0.3-1.3,0.3-2.6,0.4
			c-0.1-0.3-0.3-0.8-0.4-1.1c1-0.1,1.8-0.1,2.1-0.2c0.3,0,0.3-0.1,0.3-0.4l-0.8-9.1l-3,0.3v0.5c0,0.3,0,0.6,0,1
			c1.2,1.4,2.6,3.3,3.3,4.4l-0.8,0.7c-0.6-0.9-1.6-2.3-2.6-3.7c-0.3,1.3-0.8,2.9-2.2,4.3c-0.3-0.3-0.7-0.5-0.9-0.7
			c2.2-2.1,2.3-4.7,2.2-5.9v-0.5l-2.8,0.3l0.9,10.6l-1.1,0.1l-1-11.7l3.9-0.3l-0.2-2.5l-4.4,0.3l-0.1-1.1l9.8-0.8l0.1,1.1
			L413.5,174.9z"/>
	</g>
</g>
</svg>
