<svg id="レイヤー_1" data-name="レイヤー 1" xmlns="http://www.w3.org/2000/svg" viewBox="0 0 1184.83 195.75"><defs><style>.cls-1{fill:#231815;}</style></defs><path class="cls-1" d="M71.8,90.1c4.84,7.3,6.92,14.3,6.92,24.35,0,12.65-5.51,16.08-9.9,16.08a2.77,2.77,0,0,1-2.75-1.64,4.68,4.68,0,0,0-2.83-2.24c-1.71-.74-1.49-2.68.37-2.38a33.4,33.4,0,0,0,4.84.37c3.2,0,5.58-2.38,5.58-11.16,0-1,0-2.09-.07-3a17.18,17.18,0,0,1-1.79-.45c-3.13,3.5-10,10.64-18.76,14.29-2,.82-3-1-1.34-2.31,7.89-5,14.14-11.09,17.27-16.89.45-.75.82-.9,1.49-.52a13.85,13.85,0,0,1,2.83,2A44.23,44.23,0,0,0,72.54,101c-.37.52-1.19.6-3.05,0-3.13,2.91-9,7.67-16.08,10-2,.67-2.9-1.12-1.19-2.31,6.48-3.57,11.76-8,14.89-12.51.37-.74.89-.89,1.64-.44a11.94,11.94,0,0,1,3,2.68A45.76,45.76,0,0,0,69,91.82a65,65,0,0,1-16,6.77c-2.15.52-2.9-1.64-.81-2.53,11.16-4.54,20.09-10.35,26-17.72.59-.74,1-.74,1.78-.29,2.31,1.34,4.69,3.72,4.32,4.91-.3.89-1.42,1-3.42.3A65.27,65.27,0,0,1,71.8,90.1ZM52.52,74.77C61,71.94,67,68.67,71.65,65c1.56-1.27,1.93-1.34,3.5-.37A17.28,17.28,0,0,1,79,68c1.12,1.49-.15,2.53-3.13,1.63a85.63,85.63,0,0,1-22.7,7.67C51.1,77.67,50.29,75.59,52.52,74.77Zm6.92,3.57c3.2,1.72,6,3.8,5.66,6.63a3,3,0,0,1-3.5,2.83c-1.79-.23-2.08-2.09-2.68-3.8-.45-1.12-1.12-2.38-1.71-3.5C56.46,78.86,57.51,77.38,59.44,78.34Zm8.49-4.16c3,1.11,6,2.75,5.88,5.58a3,3,0,0,1-3.28,2.9c-1.64-.15-2-1.86-2.68-3.35a25.25,25.25,0,0,0-1.78-3C65.25,74.84,66,73.5,67.93,74.18Zm43.47-5.74c1-1.41,2.38-2.83,3-2.83,1.64,0,6,3.21,6,4.47,0,.89-1.19,1.94-2.68,2.68-.15,6.63-1.19,14.07-3.06,17.42-1.63,3.13-4,5.14-8.33,5.14-2.09,0-2.46-.67-3-1.72a4.14,4.14,0,0,0-2.53-1.93c-1-.52-1.42-1-1.19-1.71a1.28,1.28,0,0,1,1.49-.82,37.26,37.26,0,0,0,5.21.44,4.16,4.16,0,0,0,3.94-2.45c1.71-2.46,2.61-10,2.46-15.71H102.17v.22c0,1-.89,1.57-2.9,1.79A33.2,33.2,0,0,1,94.8,86.68c-2.83,4.69-8,8.49-14.44,10.72-2,.82-3-1.19-1.12-2.38,5.29-3,8.79-6.18,10.94-9.9,2.39-3.72,3.21-7.82,3.65-13.7H82.15c-1,0-1.64-.3-1.64-1.49s.67-1.49,1.64-1.49Zm-3.13,32.91c1.19-1.49,2.61-3.06,3.43-3.06,1.63,0,6.32,3.5,6.32,5.21,0,1.19-1.56,1.86-3.12,2.46-.15,6,.07,18.39.15,21.29,0,2.31-1.27,2.83-3.35,2.83a2.23,2.23,0,0,1-2.31-2.53V123.9H91v4.32c0,1.64-1.11,2.38-3.35,2.38a1.88,1.88,0,0,1-2.08-2.08c.07-5.44.52-22-.22-29.26a.89.89,0,0,1,1-1,17.71,17.71,0,0,1,6.85,3.06Zm1.19,19.57c0-5.65.08-13.32.08-16.6H91.08c-.08,2.53-.15,9.08-.15,10.72v5.88Z"/><path class="cls-1" d="M138.94,108.34v6.93c0,1.71-1.11,2.53-3.49,2.53a1.88,1.88,0,0,1-2.16-2.09c0-7.67.74-38.41-.3-47.94a1,1,0,0,1,1-1,20,20,0,0,1,7.3,3h9.75c1.11-1.49,2.6-3.2,3.42-3.2,1.49,0,6,3.28,6,4.92,0,1-1.27,1.63-2.61,2.23-.37,8.26.22,32,.22,36.32,0,2.31-1.33,2.83-3.42,2.83a2.28,2.28,0,0,1-2.31-2.53v-2Zm.15-35.5c-.15,2.67-.22,9.6-.22,14.36h13.62c.08-6,.08-11.61.08-14.44h-13Zm13.33,32.52.07-15.18H138.87v1.71l.07,13.47ZM186.73,69c1.34-1.64,3.13-3.57,3.73-3.57,1.86,0,6.84,4.24,6.84,5.65,0,1-1.56,1.86-3.2,2.46-.37,12.43-.22,33.35-.29,49.5,0,4.84-4.47,6.7-7.3,6.7s-1.12-3.2-6.7-4.61a1.24,1.24,0,0,1,.15-2.46c.67,0,3.87.45,5.51.45,2.08,0,2.9-.67,3.05-3,.22-3.35.22-9.08.15-14.74H169.84c-2,9.83-7.22,19.06-21.44,24.86-1.86.75-3.05-1.26-1-2.45,12.13-7.3,17.87-15.93,18.31-33.13a260.31,260.31,0,0,0-.59-27c-.15-1,.22-1.42,1.19-1.27A23.2,23.2,0,0,1,172.07,69Zm1.94,33.42V88.24H171.18c-.08,3.13-.23,6.18-.38,8.94a41,41,0,0,1-.52,5.28ZM171.33,72.09c0,3.8,0,8.49-.08,13.18h17.42V72h-17Z"/><path class="cls-1" d="M229.32,116.75c.07,5.36.22,9.31.22,11.1,0,1.56-1,2.68-3.35,2.68-1.49,0-1.94-.82-1.94-2.24,0-2,.15-5.95.23-11.54H209.66c-1,0-1.63-.29-1.63-1.48s.67-1.49,1.63-1.49h14.82v-8.94h-5.73v2.09c0,1.64-1.12,2.31-3.21,2.31-1.26,0-1.86-.75-1.86-2,0-5.07.45-18.69-.29-25.46a.82.82,0,0,1,1-.9,16,16,0,0,1,6.1,2.68h3.8V76.26h-13c-1,0-1.64-.3-1.64-1.49s.67-1.49,1.64-1.49h12.87c-.07-3.5-.15-6.77-.37-8.63-.07-.67.37-1.05,1-1.05,1.27,0,8.27.23,8.27,2.16,0,1.49-1.57,2.09-3.87,2.61v4.91h5.21c1.41-2.08,3.05-4.24,3.94-4.24,1.34,0,5.66,4.17,5.66,5.66.07,1.11-1.27,1.56-3.2,1.56H229.32v7.29h5.58c1-1.41,2.31-2.82,3-2.82,1.49,0,5.73,3.2,5.73,4.83,0,1-1.19,1.57-2.45,2.09-.15,4.84,0,15,.07,17.34s-1.19,2.91-3.2,2.91c-1.71,0-2.23-1.34-2.23-2.54v-.52H231.4a.74.74,0,0,1,.07.38c0,.67-.81,1.26-2.15,1.56v7h5.28c1.27-1.94,2.83-4,3.8-4,1.26,0,5.58,4,5.58,5.51,0,1-1.19,1.48-3.28,1.48Zm-10.5-30.22c-.07,1.42-.15,4-.15,6.11H236V86.53Zm-.07,15.34h17.12l.07-6.26H218.67v.15Zm47.41-32.61c1.19-1.64,3.06-3.79,3.65-3.79,1.86,0,6.85,4.24,6.85,5.65,0,1-1.56,1.86-3.2,2.46-.37,12.65-.3,33.79-.3,50.17,0,4.84-4.47,6.7-7.37,6.7s-1.12-3.2-6.7-4.61c-1.64-.53-1.26-2.46.15-2.46.67,0,3.95.45,5.81.45s2.9-.75,3.05-3c.22-3.8.22-10.65.15-17H253.43c-1.34,10.34-5.58,20.32-19.8,26.35-1.86.74-3.12-1.19-1-2.53,11.31-7.08,16.07-15.49,16.3-31.94a239,239,0,0,0-1.12-28.21c-.15-1,.22-1.41,1.19-1.27a23.51,23.51,0,0,1,6.25,3Zm2.09,31.64V87.65H254.1c-.07,3.57-.07,7-.22,10-.07,1.12-.07,2.16-.15,3.28ZM254,72.24c.08,3.57.15,8,.15,12.43h14.15V72.24Z"/><path class="cls-1" d="M296.46,89.51a1.23,1.23,0,0,1,1.93-1,16.87,16.87,0,0,0,5.93,2.16c3.93.33,28.17-2.86,35.09-4,2.23-.36,4.67-1.11,5.66-1.11,3,0,7.14,2.06,7.14,3.73s-1,2.45-2.68,2.45c-1.39,0-7.84-.3-10.27-.3a107.39,107.39,0,0,0-11.85.71c2.1,1.16,4.17,3,4.17,4.68,0,1.25-2.31,2.78-3.31,4.86-3.55,7.38-12.43,19.32-26.13,25.77h0c-2.12,1-3.48-1.49-1.74-2.64,10.68-7.06,20.5-19.23,23.16-28,.65-2.17,0-3.1-1.3-3.92-8.42,1.47-16.41,4-19.47,4-2.61,0-6.33-4.13-6.33-7.44Zm39.67-12c-3,.64-8.15,1.64-11.64,2.24s-7.28,1.54-10.1,1.54-7.32-3.35-7.32-6.29c0-.76.71-1.22,1.75-.78a15.32,15.32,0,0,0,5.74,1.63,66.12,66.12,0,0,0,12.64-2c2.59-.68,4.38-1.79,6.11-1.79C336.25,72,339,73.23,339,75s-1.05,2.12-2.84,2.51Z"/><path class="cls-1" d="M380.15,72.57c0-1.07,2.27-2.22,4.79-2.22,2.15,0,6.3.79,6.88,2.51.35,1.07-.06,3.26.15,5.08.13,1.08.62,3.58,1.34,6.88,2.29-.79,4.16-1.45,5.08-1.74,3.67-1.16,5.3-2.29,8.05-2.29,1.31,0,3.91.4,3.91,2.42,0,1.46-.84,2.27-4.27,2.91a103.62,103.62,0,0,0-11.82,3c.69,3.06,1.49,6.46,2.32,9.89,4.6-1.3,8.66-2.44,11-3,3.17-.8,6.3-2.15,8.76-2.15,3.31,0,5.9,1.31,5.9,3.16,0,1.32-.78,2.35-3,2.5a107.86,107.86,0,0,0-21.65,3.63c1.46,5.84,2.92,11.38,4,15a24,24,0,0,1,1.16,5.14c.12,1.85-.68,3.07-2.42,3.32-2.16.3-3.59-1.11-4.26-3.69-.49-1.9-.63-4.77-1.27-8.65-.31-1.92-1.14-5.66-2.1-9.8a135.37,135.37,0,0,0-15.07,5.34c-1.91.82-3.73,1.89-5.18,1.89-2.36,0-6.34-2.19-7.15-5h0c-.36-1.22.23-2,1.36-1.79,2.92.61,4.68,1.15,7.83.34,4.18-1.07,10.79-3,17.25-4.9-.84-3.52-1.69-7-2.35-9.61-2.44.88-4.79,1.78-6.67,2.44a15.72,15.72,0,0,1-5.22,1.32c-3,0-6.54-2.91-7.29-4.84h0c-.52-1.34.09-2.37,1.78-1.79a21.66,21.66,0,0,0,5.82,1.18c2,0,6.3-1.23,10.51-2.58a102.1,102.1,0,0,0-3-10.33c-.46-1-.91-1.36-2.41-1.78s-2.79-.72-2.79-1.79Z"/><path class="cls-1" d="M445.42,81c-.4-1.93.82-2.53,2.23-1.63,2.46,1.56,3.65,2.23,5.44,2.23,4.24,0,13.63-1.72,17-2.52,2.09-.51,3.15-1.95,4.61-1.95,2.72,0,8.12,3.7,8.12,6,0,1.69-3.07,3.08-4.52,4.85s-5.25,6.75-8.54,10.45c9.7,3.52,19.38,9.78,19.38,16.26,0,2.3-1.3,3.85-3.33,3.94-1.46.07-2.41-.63-3.26-2.4-3.34-7-8.08-11.48-15.1-15.35A90.59,90.59,0,0,1,437,120.56c-2.35.88-3.31-1.82-1.28-2.82,13.5-6.64,30.71-20.78,37.19-33.47.51-1,.21-1.46-.93-1.31-2.62.34-10.83,2.75-14.23,3.77A21.86,21.86,0,0,1,452.19,88c-2.45,0-6-3.43-6.77-6.93Z"/><path class="cls-1" d="M515.15,70.47a11.69,11.69,0,0,1,3.58-.61c3.53,0,7.9,2.06,7.9,4.06,0,1.32-2,5.46-2.27,16.56,9.13,1.29,18.3,5.6,18.3,11.65,0,1.79-.95,3.38-3.19,3.38-1.89,0-3.2-1.93-4.6-4a20.41,20.41,0,0,0-10.54-7.84c0,15.29.74,26.81.74,29.47,0,2.84-1.29,4.1-3.13,4.1-2.22,0-3.87-2.18-3.87-6.18,0-2.19.56-7.36.75-10,.3-4.08.74-10.62.74-16.95s0-12-.29-16.28c-.14-2.33-1.16-3.46-4.22-4.81-1.54-.67-1.53-2.08.1-2.56Z"/></svg>