<svg id="レイヤー_1" data-name="レイヤー 1" xmlns="http://www.w3.org/2000/svg" viewBox="0 0 595.28 595.28"><defs><style>.cls-1{fill:#344c79;}</style></defs><path class="cls-1" d="M297.66,174.87a28.51,28.51,0,1,0-28.51-28.5A28.49,28.49,0,0,0,297.66,174.87Z"/><path class="cls-1" d="M298.23,239.52h38.52s9.25-20-.95-37.78c-5.76-10-19.25-16.15-37.57-16.15s-31.82,6.12-37.58,16.15c-10.19,17.75-.95,37.78-.95,37.78Z"/><path class="cls-1" d="M180,374.17a28.5,28.5,0,1,0-28.51-28.5A28.5,28.5,0,0,0,180,374.17Z"/><path class="cls-1" d="M180.54,384.9C162.22,384.9,148.73,391,143,401c-10.2,17.76-.94,37.79-.94,37.79h77s9.24-20-1-37.79C212.36,391,198.86,384.9,180.54,384.9Z"/><path class="cls-1" d="M412.53,374.17a28.5,28.5,0,1,0-28.5-28.5A28.5,28.5,0,0,0,412.53,374.17Z"/><path class="cls-1" d="M450.68,401c-5.75-10-19.25-16.14-37.57-16.14S381.3,391,375.54,401c-10.2,17.76-1,37.79-1,37.79h77.05S460.89,418.8,450.68,401Z"/><polygon class="cls-1" points="304.07 329.37 304.07 259.56 304.07 259.01 303.52 259.01 292.42 259.01 291.87 259.01 291.87 259.56 291.87 329.35 231.42 364.26 230.94 364.54 231.21 365.02 236.76 374.63 237.04 375.11 237.52 374.83 297.96 339.93 358.41 374.84 358.89 375.12 359.17 374.63 364.72 365.02 364.99 364.54 364.51 364.26 304.07 329.37"/></svg>