<?xml version="1.0" encoding="utf-8"?>
<!-- Generator: Adobe Illustrator 25.0.1, SVG Export Plug-In . SVG Version: 6.00 Build 0)  -->
<svg version="1.1" id="レイヤー_1" xmlns="http://www.w3.org/2000/svg" xmlns:xlink="http://www.w3.org/1999/xlink" x="0px"
	 y="0px" viewBox="0 0 593.2 351" style="enable-background:new 0 0 593.2 351;" xml:space="preserve">
<style type="text/css">
	.st0{clip-path:url(#SVGID_2_);}
	.st1{opacity:0.3;clip-path:url(#SVGID_4_);}
	.st2{clip-path:url(#SVGID_6_);fill:#967F7F;}
	.st3{clip-path:url(#SVGID_8_);fill:#967F7F;}
	.st4{clip-path:url(#SVGID_10_);fill:#00A0E9;}
	.st5{clip-path:url(#SVGID_12_);fill:#00A0E9;}
	.st6{clip-path:url(#SVGID_14_);fill:#00A0E9;}
	.st7{clip-path:url(#SVGID_16_);fill:#00A0E9;}
	.st8{clip-path:url(#SVGID_18_);fill:#00A0E9;}
	.st9{clip-path:url(#SVGID_20_);fill:#334C79;}
	.st10{clip-path:url(#SVGID_22_);fill:#334C79;}
	.st11{clip-path:url(#SVGID_24_);fill:#334C79;}
	.st12{clip-path:url(#SVGID_26_);fill:#334C79;}
	.st13{clip-path:url(#SVGID_28_);fill:#334C79;}
	.st14{clip-path:url(#SVGID_30_);fill:#334C79;}
	.st15{clip-path:url(#SVGID_32_);fill:#334C79;}
	.st16{clip-path:url(#SVGID_34_);fill:#334C79;}
</style>
<g>
	
		<image style="overflow:visible;opacity:0.75;enable-background:new    ;" width="1321" height="2100" xlink:href="EF4BD2FB.png"  transform="matrix(0.2385 0 0 0.2385 285.92 879.2978)">
	</image>
	<g>
		
			<image style="overflow:visible;enable-background:new    ;" width="1280" height="2124" xlink:href="EF4BD2F9.png"  transform="matrix(0.2228 0 0 0.2228 301.0486 890.3511)">
		</image>
	</g>
</g>
<g>
	<defs>
		<rect id="SVGID_1_" x="48.6" y="11.9" width="499.8" height="322.1"/>
	</defs>
	<clipPath id="SVGID_2_">
		<use xlink:href="#SVGID_1_"  style="overflow:visible;"/>
	</clipPath>
	<g class="st0">
		<defs>
			<polygon id="SVGID_3_" points="48.6,11.9 539.6,11.9 548.4,334 48.6,334 			"/>
		</defs>
		<clipPath id="SVGID_4_">
			<use xlink:href="#SVGID_3_"  style="overflow:visible;"/>
		</clipPath>
		<g class="st1">
			<g>
				<g>
					<defs>
						<rect id="SVGID_5_" x="59.5" y="51" width="219.3" height="219.7"/>
					</defs>
					<clipPath id="SVGID_6_">
						<use xlink:href="#SVGID_5_"  style="overflow:visible;"/>
					</clipPath>
					<path class="st2" d="M200.3,240.9c7.8-5.9,13.4-15.2,16.9-25.2c7.1-20.1-0.1-19.2-1-16.1c-8.9,28.5-38.7,43.4-67.3,34.5
						c-5.4-1.7-10.7-5.4-15.1-8.5c-31.1-24.5-39.5-67.2-11-102.6c17.8-22.1,48.6-29,75.7-20.8c29.9,9.1,66.3,1.8,76.5-29.7
						c2.6-8.1,3.3-11.2,3.8-15.8c0.6-5.9-8.5-8.1-10.7-2.6c-2.9,7.5,1-2.9,0,0c-9.9,29.2-35.1,31.7-50.3,24
						c-13.1-6.7-22.3-9.9-38.1-13.5C132.6,54,71.2,87.7,61,142.3c-10,53.6,29.2,103.5,82.9,112.7c12,2.1,24,1.9,34.9-2.1
						C185.1,250.5,186.8,251.2,200.3,240.9"/>
				</g>
				<g>
					<defs>
						<rect id="SVGID_7_" x="59.5" y="51" width="219.3" height="219.7"/>
					</defs>
					<clipPath id="SVGID_8_">
						<use xlink:href="#SVGID_7_"  style="overflow:visible;"/>
					</clipPath>
					<path class="st3" d="M126,253.9c-25.6-8.2-39.9-27.2-47.4-32.3c-1.8-1.2-4.2-0.3-3.3,1.6c3.1,6.8,17.4,31.6,55.5,42.9
						c55.2,16.3,108.2-11.5,123.8-61.3c6.3-23,0.3-46.3-7.9-60.7c-10.2-18.1-23.4-29.1-44.7-35.8c-48.7-15.3-75.2,19.5-81,38.1
						c-0.1,0.3-0.2,0.6-0.3,0.9c-3.1,10.2,8.8,15.5,14.5,4.7c10.5-19.9,34.2-34.7,58.8-27.4c32.5,9.7,47.6,43.4,39.9,68.9
						C214.3,258.5,165.4,266.6,126,253.9"/>
				</g>
			</g>
		</g>
	</g>
	<g class="st0">
		<defs>
			<polygon id="SVGID_9_" points="48.6,11.9 539.6,11.9 548.4,334 48.6,334 			"/>
		</defs>
		<clipPath id="SVGID_10_">
			<use xlink:href="#SVGID_9_"  style="overflow:visible;"/>
		</clipPath>
		<path class="st4" d="M181.7,226.9c-0.6,0-1.2,0-1.8,0l0-1.2c0.6,0,1.1,0,1.7,0c0.2,0,0.5,0,0.7,0l0,1.2
			C182.2,226.9,182,226.9,181.7,226.9 M185,226.8l-0.1-1.2c0.8-0.1,1.6-0.1,2.5-0.2l0.1,1.2C186.7,226.7,185.9,226.8,185,226.8
			 M177.4,226.8c-0.9-0.1-1.7-0.1-2.5-0.2l0.2-1.2c0.8,0.1,1.6,0.2,2.5,0.2L177.4,226.8z M190.1,226.2l-0.2-1.2
			c0.8-0.1,1.6-0.3,2.4-0.5l0.3,1.2C191.7,225.9,190.9,226.1,190.1,226.2 M172.4,226.2c-0.8-0.1-1.7-0.3-2.5-0.5l0.3-1.2
			c0.8,0.2,1.6,0.4,2.4,0.5L172.4,226.2z M195,225.2l-0.3-1.2c0.8-0.2,1.6-0.4,2.4-0.7l0.4,1.2C196.6,224.7,195.8,225,195,225.2
			 M167.5,225c-0.8-0.2-1.6-0.5-2.4-0.7l0.4-1.2c0.8,0.3,1.6,0.5,2.4,0.7L167.5,225z M199.8,223.6l-0.4-1.2c0.8-0.3,1.5-0.6,2.3-0.9
			l0.5,1.1C201.4,223,200.6,223.3,199.8,223.6 M162.6,223.4c-0.8-0.3-1.6-0.6-2.4-1l0.5-1.1c0.8,0.3,1.5,0.6,2.3,0.9L162.6,223.4z
			 M204.5,221.6l-0.6-1.1c0.7-0.4,1.5-0.7,2.2-1.1l0.6,1.1C206,220.9,205.2,221.3,204.5,221.6 M158,221.4c-0.8-0.4-1.5-0.8-2.2-1.2
			l0.6-1.1c0.7,0.4,1.4,0.8,2.2,1.2L158,221.4z M208.9,219.2l-0.7-1.1c0.7-0.4,1.4-0.9,2.1-1.4l0.7,1
			C210.4,218.3,209.6,218.7,208.9,219.2 M153.6,218.9c-0.7-0.4-1.4-0.9-2.1-1.4l0.7-1c0.7,0.5,1.4,0.9,2.1,1.4L153.6,218.9z
			 M213.1,216.3l-0.8-1c0.7-0.5,1.3-1,1.9-1.5l0.8,1C214.4,215.3,213.8,215.8,213.1,216.3 M149.4,216c-0.7-0.5-1.3-1.1-2-1.6
			l0.8-0.9c0.6,0.5,1.3,1.1,1.9,1.6L149.4,216z M217,213.1l-0.9-0.9c0.6-0.6,1.2-1.1,1.8-1.7l0.9,0.9
			C218.2,211.9,217.6,212.5,217,213.1 M145.6,212.7c-0.6-0.6-1.2-1.2-1.8-1.8l0.9-0.9c0.6,0.6,1.2,1.2,1.8,1.7L145.6,212.7z
			 M220.5,209.4l-0.9-0.8c0.6-0.6,1.1-1.2,1.6-1.9l1,0.8C221.6,208.2,221.1,208.8,220.5,209.4 M142.1,209c-0.6-0.6-1.1-1.3-1.6-1.9
			l1-0.8c0.5,0.6,1,1.3,1.6,1.9L142.1,209z M223.7,205.5l-1-0.7c0.5-0.7,1-1.3,1.4-2l1.1,0.7C224.7,204.1,224.2,204.8,223.7,205.5
			 M138.9,205c-0.5-0.7-1-1.4-1.4-2.1l1.1-0.7c0.4,0.7,0.9,1.4,1.4,2L138.9,205z M226.5,201.3l-1.1-0.6c0.4-0.7,0.8-1.4,1.2-2.2
			l1.1,0.6C227.4,199.8,226.9,200.5,226.5,201.3 M136.2,200.8c-0.4-0.7-0.8-1.5-1.2-2.2l1.1-0.6c0.4,0.7,0.8,1.4,1.2,2.2
			L136.2,200.8z M228.9,196.8l-1.1-0.5c0.4-0.8,0.7-1.5,1-2.3l1.2,0.5C229.6,195.2,229.2,196,228.9,196.8 M133.9,196.3
			c-0.4-0.8-0.7-1.5-1-2.3l1.2-0.5c0.3,0.8,0.6,1.5,1,2.3L133.9,196.3z M230.8,192.1l-1.2-0.4c0.3-0.8,0.5-1.6,0.8-2.4l1.2,0.4
			C231.3,190.5,231.1,191.3,230.8,192.1 M132,191.6c-0.3-0.8-0.5-1.6-0.8-2.4l1.2-0.3c0.2,0.8,0.5,1.6,0.7,2.4L132,191.6z
			 M232.2,187.2l-1.2-0.3c0.2-0.8,0.4-1.6,0.5-2.4l1.2,0.2C232.6,185.6,232.4,186.4,232.2,187.2 M130.6,186.7
			c-0.2-0.8-0.4-1.6-0.5-2.5l1.2-0.2c0.1,0.8,0.3,1.6,0.5,2.4L130.6,186.7z M233.2,182.3l-1.2-0.2c0.1-0.8,0.2-1.6,0.3-2.5l1.2,0.1
			C233.4,180.6,233.3,181.4,233.2,182.3 M129.7,181.7c-0.1-0.8-0.2-1.7-0.3-2.5l1.2-0.1c0.1,0.8,0.2,1.6,0.3,2.5L129.7,181.7z
			 M233.7,177.2l-1.2-0.1c0-0.8,0.1-1.6,0.1-2.5h1.2C233.8,175.5,233.7,176.4,233.7,177.2 M129.3,176.7c0-0.7,0-1.3,0-2v-0.5l1.2,0
			v0.5c0,0.7,0,1.3,0,2L129.3,176.7z M232.5,173.2c0-0.8-0.1-1.6-0.1-2.5l1.2-0.1c0.1,0.8,0.1,1.7,0.1,2.5L232.5,173.2z
			 M130.6,171.7l-1.2-0.1c0.1-0.9,0.1-1.7,0.2-2.5l1.2,0.1C130.7,170,130.6,170.9,130.6,171.7 M232.1,168.3
			c-0.1-0.8-0.2-1.6-0.4-2.4l1.2-0.2c0.1,0.8,0.3,1.7,0.4,2.5L232.1,168.3z M131.1,166.8l-1.2-0.2c0.1-0.8,0.3-1.7,0.4-2.5l1.2,0.2
			C131.4,165.1,131.2,166,131.1,166.8 M231.3,163.4c-0.2-0.8-0.4-1.6-0.6-2.4l1.2-0.3c0.2,0.8,0.4,1.6,0.6,2.5L231.3,163.4z
			 M132.1,161.9l-1.2-0.3c0.2-0.8,0.4-1.6,0.7-2.4l1.2,0.4C132.5,160.3,132.3,161.1,132.1,161.9 M229.9,158.7
			c-0.3-0.8-0.5-1.6-0.8-2.3l1.2-0.4c0.3,0.8,0.6,1.6,0.9,2.4L229.9,158.7z M133.6,157.2l-1.2-0.4c0.3-0.8,0.6-1.6,0.9-2.4l1.1,0.5
			C134.1,155.7,133.8,156.4,133.6,157.2 M228.2,154c-0.3-0.8-0.7-1.5-1.1-2.2l1.1-0.6c0.4,0.8,0.7,1.5,1.1,2.3L228.2,154z
			 M135.5,152.6l-1.1-0.5c0.4-0.8,0.8-1.5,1.2-2.3l1.1,0.6C136.2,151.2,135.8,151.9,135.5,152.6 M225.9,149.6
			c-0.4-0.7-0.8-1.4-1.3-2.1l1.1-0.7c0.4,0.7,0.9,1.4,1.3,2.2L225.9,149.6z M137.8,148.3l-1.1-0.6c0.4-0.7,0.9-1.4,1.4-2.1l1,0.7
			C138.7,146.9,138.3,147.6,137.8,148.3 M223.3,145.5c-0.5-0.7-1-1.3-1.5-2l1-0.8c0.5,0.7,1,1.4,1.5,2L223.3,145.5z M140.6,144.2
			l-1-0.8c0.5-0.7,1-1.4,1.6-2l1,0.8C141.6,142.9,141.1,143.5,140.6,144.2 M220.3,141.5c-0.5-0.6-1.1-1.2-1.6-1.8l0.9-0.9
			c0.6,0.6,1.1,1.2,1.7,1.9L220.3,141.5z M143.7,140.4l-0.9-0.9c0.6-0.6,1.1-1.2,1.8-1.8l0.9,0.9
			C144.9,139.2,144.3,139.7,143.7,140.4 M216.9,137.9c-0.6-0.6-1.2-1.1-1.8-1.7l0.8-0.9c0.6,0.6,1.2,1.1,1.9,1.7L216.9,137.9z
			 M147.2,136.9l-0.8-0.9c0.6-0.6,1.3-1.1,1.9-1.7l0.8,1C148.5,135.8,147.9,136.3,147.2,136.9 M213.2,134.7c-0.6-0.5-1.3-1-2-1.5
			l0.7-1c0.7,0.5,1.4,1,2,1.5L213.2,134.7z M151.1,133.7l-0.8-1c0.7-0.5,1.4-1,2.1-1.5l0.7,1C152.4,132.8,151.7,133.2,151.1,133.7
			 M209.1,131.8c-0.7-0.4-1.4-0.9-2.1-1.3l0.6-1.1c0.7,0.4,1.4,0.9,2.2,1.3L209.1,131.8z M155.2,131l-0.6-1.1
			c0.7-0.4,1.4-0.9,2.2-1.2l0.6,1.1C156.6,130.1,155.9,130.5,155.2,131 M204.9,129.3c-0.7-0.4-1.5-0.7-2.2-1.1l0.5-1.1
			c0.8,0.4,1.5,0.7,2.3,1.1L204.9,129.3z M159.5,128.6l-0.5-1.1c0.8-0.4,1.5-0.7,2.3-1l0.5,1.2C161,127.9,160.2,128.3,159.5,128.6
			 M200.4,127.3c-0.8-0.3-1.5-0.6-2.3-0.9l0.4-1.2c0.8,0.3,1.6,0.6,2.4,0.9L200.4,127.3z M164.1,126.7l-0.4-1.2
			c0.8-0.3,1.6-0.6,2.4-0.8l0.4,1.2C165.6,126.2,164.8,126.4,164.1,126.7 M195.7,125.7c-0.8-0.2-1.6-0.4-2.4-0.6l0.3-1.2
			c0.8,0.2,1.6,0.4,2.4,0.6L195.7,125.7z M168.8,125.3l-0.3-1.2c0.8-0.2,1.6-0.4,2.5-0.6l0.2,1.2
			C170.4,124.9,169.6,125.1,168.8,125.3 M190.9,124.5c-0.8-0.1-1.6-0.3-2.4-0.4l0.2-1.2c0.8,0.1,1.7,0.2,2.5,0.4L190.9,124.5z
			 M173.6,124.3l-0.2-1.2c0.8-0.1,1.7-0.2,2.5-0.3l0.1,1.2C175.3,124,174.4,124.1,173.6,124.3 M186,123.9c-0.8-0.1-1.6-0.1-2.5-0.2
			l0.1-1.2c0.9,0,1.7,0.1,2.5,0.2L186,123.9z M178.6,123.7l-0.1-1.2c0.8-0.1,1.7-0.1,2.5-0.1l0,1.2
			C180.2,123.7,179.4,123.7,178.6,123.7"/>
	</g>
	<g class="st0">
		<defs>
			<polygon id="SVGID_11_" points="48.6,11.9 539.6,11.9 548.4,334 48.6,334 			"/>
		</defs>
		<clipPath id="SVGID_12_">
			<use xlink:href="#SVGID_11_"  style="overflow:visible;"/>
		</clipPath>
		<path class="st5" d="M176.7,265.9h-0.2l-1.1,0l0-1.2l1.1,0c0.4,0,0.9,0,1.4,0l0,1.2C177.5,265.9,177.1,265.9,176.7,265.9
			 M172.8,265.8c-0.8,0-1.7-0.1-2.5-0.1l0.1-1.2c0.8,0.1,1.6,0.1,2.5,0.1L172.8,265.8z M180.4,265.8l-0.1-1.2c0.8,0,1.7-0.1,2.5-0.2
			l0.1,1.2C182.1,265.7,181.2,265.8,180.4,265.8 M167.8,265.4c-0.8-0.1-1.7-0.2-2.5-0.3l0.2-1.2c0.8,0.1,1.6,0.2,2.5,0.3
			L167.8,265.4z M185.4,265.4l-0.1-1.2c0.8-0.1,1.6-0.2,2.5-0.3l0.2,1.2C187.1,265.2,186.3,265.3,185.4,265.4 M162.8,264.7
			c-0.8-0.1-1.7-0.3-2.5-0.5l0.2-1.2c0.8,0.2,1.6,0.3,2.4,0.5L162.8,264.7z M190.4,264.7l-0.2-1.2c0.8-0.1,1.6-0.3,2.4-0.5l0.2,1.2
			C192.1,264.4,191.2,264.6,190.4,264.7 M157.8,263.8c-0.8-0.2-1.6-0.4-2.4-0.6l0.3-1.2c0.8,0.2,1.6,0.4,2.4,0.6L157.8,263.8z
			 M195.4,263.7l-0.3-1.2c0.8-0.2,1.6-0.4,2.4-0.6l0.3,1.2C197,263.3,196.2,263.5,195.4,263.7 M153,262.4c-0.8-0.2-1.6-0.5-2.4-0.8
			l0.4-1.2c0.8,0.3,1.6,0.5,2.4,0.8L153,262.4z M200.2,262.4l-0.4-1.2c0.8-0.2,1.6-0.5,2.4-0.8l0.4,1.2
			C201.8,261.9,201,262.1,200.2,262.4 M148.2,260.8c-0.8-0.3-1.6-0.6-2.4-0.9l0.5-1.2c0.8,0.3,1.5,0.6,2.3,0.9L148.2,260.8z
			 M205,260.7l-0.4-1.2c0.8-0.3,1.6-0.6,2.3-0.9l0.5,1.2C206.6,260.1,205.8,260.4,205,260.7 M143.5,258.9c-0.8-0.3-1.5-0.7-2.3-1.1
			l0.5-1.1c0.8,0.4,1.5,0.7,2.3,1L143.5,258.9z M209.7,258.8l-0.5-1.1c0.8-0.3,1.5-0.7,2.2-1l0.6,1.1
			C211.2,258.1,210.4,258.5,209.7,258.8 M138.9,256.7c-0.8-0.4-1.5-0.8-2.2-1.2l0.6-1.1c0.7,0.4,1.4,0.8,2.2,1.2L138.9,256.7z
			 M214.2,256.6l-0.6-1.1c0.7-0.4,1.5-0.8,2.2-1.2l0.6,1.1C215.7,255.8,214.9,256.2,214.2,256.6 M134.5,254.2
			c-0.7-0.4-1.4-0.9-2.1-1.3l0.7-1c0.7,0.5,1.4,0.9,2.1,1.3L134.5,254.2z M218.6,254.1l-0.6-1.1c0.7-0.4,1.4-0.9,2.1-1.3l0.7,1
			C220,253.3,219.3,253.7,218.6,254.1 M130.3,251.5c-0.7-0.5-1.4-1-2.1-1.5l0.7-1c0.7,0.5,1.3,1,2,1.5L130.3,251.5z M222.8,251.4
			l-0.7-1c0.7-0.5,1.4-1,2-1.5l0.7,1C224.2,250.4,223.5,250.9,222.8,251.4 M126.2,248.5c-0.7-0.5-1.3-1-2-1.6l0.8-1
			c0.6,0.5,1.3,1.1,1.9,1.6L126.2,248.5z M226.9,248.4l-0.8-1c0.6-0.5,1.3-1,1.9-1.6l0.8,1C228.2,247.3,227.5,247.9,226.9,248.4
			 M122.3,245.2c-0.6-0.6-1.2-1.1-1.9-1.7l0.9-0.9c0.6,0.6,1.2,1.1,1.8,1.7L122.3,245.2z M230.7,245.1l-0.8-0.9
			c0.6-0.5,1.2-1.1,1.8-1.7l0.9,0.9C231.9,244,231.3,244.6,230.7,245.1 M118.7,241.8c-0.6-0.6-1.2-1.2-1.8-1.8l0.9-0.9
			c0.6,0.6,1.1,1.2,1.7,1.8L118.7,241.8z M234.4,241.7l-0.9-0.9c0.6-0.6,1.1-1.2,1.7-1.8l0.9,0.9
			C235.5,240.4,234.9,241.1,234.4,241.7 M115.3,238.1c-0.6-0.6-1.1-1.3-1.6-1.9l1-0.8c0.5,0.6,1.1,1.3,1.6,1.9L115.3,238.1z
			 M237.8,238l-0.9-0.8c0.5-0.6,1.1-1.3,1.6-1.9l1,0.8C238.9,236.7,238.3,237.3,237.8,238 M112.1,234.2c-0.5-0.7-1-1.3-1.5-2l1-0.7
			c0.5,0.7,1,1.3,1.5,2L112.1,234.2z M241,234l-1-0.8c0.5-0.7,1-1.3,1.5-2l1,0.7C242,232.7,241.5,233.4,241,234 M109.1,230.1
			c-0.5-0.7-0.9-1.4-1.4-2.1l1.1-0.7c0.4,0.7,0.9,1.4,1.3,2.1L109.1,230.1z M243.9,229.9l-1-0.7c0.5-0.7,0.9-1.4,1.4-2.1l1.1,0.7
			C244.9,228.5,244.4,229.2,243.9,229.9 M106.4,225.8c-0.4-0.7-0.8-1.4-1.2-2.2l1.1-0.6c0.4,0.7,0.8,1.4,1.2,2.2L106.4,225.8z
			 M246.6,225.7l-1.1-0.6c0.4-0.7,0.8-1.4,1.2-2.2l1.1,0.6C247.4,224.2,247,224.9,246.6,225.7 M104,221.4c-0.4-0.8-0.8-1.5-1.1-2.3
			l1.1-0.5c0.3,0.8,0.7,1.5,1.1,2.2L104,221.4z M249,221.2l-1.1-0.6c0.4-0.7,0.7-1.5,1.1-2.2l1.1,0.5
			C249.8,219.7,249.4,220.5,249,221.2 M101.9,216.8c-0.3-0.8-0.7-1.5-1-2.3l1.2-0.5c0.3,0.8,0.6,1.5,0.9,2.3L101.9,216.8z
			 M251.2,216.6l-1.1-0.5c0.3-0.8,0.6-1.5,0.9-2.3l1.2,0.5C251.8,215.1,251.5,215.9,251.2,216.6 M100,212.2
			c-0.3-0.8-0.6-1.6-0.8-2.4l1.2-0.4c0.3,0.8,0.5,1.6,0.8,2.4L100,212.2z M253,211.9l-1.2-0.4c0.3-0.8,0.5-1.6,0.8-2.4l1.2,0.4
			C253.6,210.3,253.3,211.1,253,211.9 M98.5,207.4c-0.2-0.8-0.5-1.6-0.7-2.4l1.2-0.3c0.2,0.8,0.4,1.6,0.7,2.4L98.5,207.4z
			 M254.6,207.1l-1.2-0.4c0.2-0.8,0.4-1.6,0.6-2.4l1.2,0.3C255,205.5,254.8,206.3,254.6,207.1 M97.2,202.5c-0.2-0.8-0.3-1.6-0.5-2.5
			l1.2-0.2c0.2,0.8,0.3,1.6,0.5,2.4L97.2,202.5z M255.8,202.2l-1.2-0.3c0.2-0.8,0.3-1.6,0.5-2.4l1.2,0.2
			C256.1,200.6,256,201.4,255.8,202.2 M96.3,197.5c-0.1-0.8-0.2-1.7-0.4-2.5l1.2-0.2c0.1,0.8,0.2,1.6,0.3,2.5L96.3,197.5z
			 M256.7,197.3l-1.2-0.2c0.1-0.8,0.2-1.6,0.4-2.5l1.2,0.1C257,195.6,256.9,196.4,256.7,197.3 M95.6,192.5c-0.1-0.8-0.1-1.7-0.2-2.5
			l1.2-0.1c0.1,0.8,0.1,1.6,0.2,2.5L95.6,192.5z M257.3,192.2l-1.2-0.1c0.1-0.8,0.1-1.6,0.2-2.5l1.2,0.1
			C257.5,190.6,257.4,191.4,257.3,192.2 M95.3,187.5c0-0.8,0-1.7-0.1-2.5l1.2,0c0,0.8,0,1.7,0.1,2.5L95.3,187.5z M257.6,187.2
			l-1.2,0c0-0.8,0-1.6,0-2.5v-0.5h1.2v0.5C257.7,185.5,257.7,186.4,257.6,187.2 M96.5,182.5l-1.2,0c0-0.8,0.1-1.7,0.1-2.5l1.2,0.1
			C96.6,180.8,96.6,181.6,96.5,182.5 M256.4,181.7c0-0.8-0.1-1.7-0.1-2.5l1.2-0.1c0.1,0.8,0.1,1.7,0.1,2.5L256.4,181.7z M96.8,177.5
			l-1.2-0.1c0.1-0.8,0.2-1.7,0.3-2.5l1.2,0.1C97,175.8,96.9,176.7,96.8,177.5 M256,176.7c-0.1-0.8-0.2-1.6-0.3-2.5l1.2-0.2
			c0.1,0.8,0.2,1.7,0.3,2.5L256,176.7z M97.4,172.6l-1.2-0.2c0.1-0.8,0.3-1.7,0.4-2.5l1.2,0.2C97.7,170.9,97.6,171.7,97.4,172.6
			 M255.4,171.8c-0.1-0.8-0.3-1.6-0.4-2.4l1.2-0.2c0.2,0.8,0.3,1.6,0.5,2.5L255.4,171.8z M98.3,167.7l-1.2-0.3
			c0.2-0.8,0.4-1.6,0.6-2.5l1.2,0.3C98.7,166.1,98.5,166.9,98.3,167.7 M254.4,166.9c-0.2-0.8-0.4-1.6-0.6-2.4l1.2-0.3
			c0.2,0.8,0.4,1.6,0.6,2.4L254.4,166.9z M99.5,162.9l-1.2-0.3c0.2-0.8,0.5-1.6,0.7-2.4l1.2,0.4C100,161.3,99.8,162.1,99.5,162.9
			 M253.2,162.1c-0.2-0.8-0.5-1.6-0.7-2.4l1.2-0.4c0.3,0.8,0.5,1.6,0.8,2.4L253.2,162.1z M101,158.1l-1.2-0.4
			c0.3-0.8,0.6-1.6,0.9-2.4l1.2,0.5C101.6,156.5,101.3,157.3,101,158.1 M251.6,157.4c-0.3-0.8-0.6-1.6-0.9-2.3l1.2-0.5
			c0.3,0.8,0.6,1.6,0.9,2.4L251.6,157.4z M102.8,153.5l-1.2-0.5c0.3-0.8,0.7-1.6,1-2.3l1.1,0.5C103.5,151.9,103.2,152.7,102.8,153.5
			 M249.8,152.8c-0.3-0.8-0.7-1.5-1-2.3l1.1-0.5c0.4,0.8,0.7,1.5,1,2.3L249.8,152.8z M104.9,148.9l-1.1-0.6c0.4-0.8,0.8-1.5,1.2-2.2
			l1.1,0.6C105.7,147.5,105.3,148.2,104.9,148.9 M247.7,148.3c-0.4-0.7-0.8-1.5-1.2-2.2l1.1-0.6c0.4,0.7,0.8,1.5,1.2,2.2
			L247.7,148.3z M107.3,144.6l-1.1-0.6c0.4-0.7,0.9-1.4,1.3-2.2l1.1,0.7C108.1,143.1,107.7,143.8,107.3,144.6 M245.3,144
			c-0.4-0.7-0.9-1.4-1.3-2.1l1.1-0.7c0.4,0.7,0.9,1.4,1.3,2.1L245.3,144z M109.9,140.3l-1-0.7c0.5-0.7,0.9-1.4,1.4-2.1l1,0.7
			C110.9,139,110.4,139.6,109.9,140.3 M242.6,139.8c-0.5-0.7-0.9-1.4-1.4-2l1-0.7c0.5,0.7,1,1.4,1.4,2.1L242.6,139.8z M112.8,136.3
			l-1-0.8c0.5-0.7,1-1.3,1.6-2l1,0.8C113.8,135,113.3,135.6,112.8,136.3 M239.7,135.8c-0.5-0.7-1-1.3-1.6-1.9l1-0.8
			c0.5,0.6,1.1,1.3,1.6,2L239.7,135.8z M115.9,132.4l-0.9-0.8c0.6-0.6,1.1-1.3,1.7-1.9l0.9,0.9C117,131.2,116.5,131.8,115.9,132.4
			 M236.6,131.9c-0.6-0.6-1.1-1.2-1.7-1.8l0.9-0.9c0.6,0.6,1.1,1.2,1.7,1.9L236.6,131.9z M119.3,128.8l-0.9-0.9
			c0.6-0.6,1.2-1.2,1.8-1.8l0.9,0.9C120.5,127.6,119.9,128.2,119.3,128.8 M233.2,128.3c-0.6-0.6-1.2-1.2-1.8-1.7l0.9-0.9
			c0.6,0.6,1.2,1.2,1.8,1.8L233.2,128.3z M122.9,125.3l-0.8-0.9c0.6-0.6,1.3-1.1,1.9-1.7l0.8,0.9
			C124.1,124.2,123.5,124.8,122.9,125.3 M229.6,124.9c-0.6-0.6-1.2-1.1-1.9-1.6l0.8-1c0.6,0.5,1.3,1.1,1.9,1.6L229.6,124.9z
			 M126.7,122.1l-0.8-1c0.7-0.5,1.3-1,2-1.5l0.8,1C128,121.1,127.3,121.6,126.7,122.1 M225.7,121.7c-0.6-0.5-1.3-1-2-1.5l0.7-1
			c0.7,0.5,1.4,1,2,1.5L225.7,121.7z M130.6,119.1l-0.7-1c0.7-0.5,1.4-0.9,2.1-1.4l0.7,1.1C132,118.2,131.3,118.7,130.6,119.1
			 M221.7,118.8c-0.7-0.5-1.4-0.9-2.1-1.4l0.7-1.1c0.7,0.5,1.4,0.9,2.1,1.4L221.7,118.8z M134.8,116.4l-0.6-1.1
			c0.7-0.4,1.4-0.9,2.2-1.3l0.6,1.1C136.2,115.6,135.5,116,134.8,116.4 M217.6,116.1c-0.7-0.4-1.4-0.8-2.1-1.2l0.6-1.1
			c0.7,0.4,1.5,0.8,2.2,1.3L217.6,116.1z M139.1,114l-0.6-1.1c0.7-0.4,1.5-0.8,2.2-1.1l0.6,1.1C140.6,113.2,139.8,113.6,139.1,114
			 M213.2,113.6c-0.7-0.4-1.5-0.8-2.2-1.1l0.5-1.1c0.8,0.4,1.5,0.7,2.3,1.1L213.2,113.6z M143.6,111.8l-0.5-1.1
			c0.8-0.3,1.5-0.7,2.3-1l0.5,1.2C145.1,111.1,144.3,111.4,143.6,111.8 M208.7,111.5c-0.8-0.3-1.5-0.7-2.3-1l0.5-1.2
			c0.8,0.3,1.6,0.6,2.3,1L208.7,111.5z M148.1,109.9l-0.4-1.2c0.8-0.3,1.6-0.6,2.4-0.9l0.4,1.2C149.7,109.3,148.9,109.6,148.1,109.9
			 M204.1,109.6c-0.8-0.3-1.6-0.6-2.4-0.8l0.4-1.2c0.8,0.3,1.6,0.6,2.4,0.8L204.1,109.6z M152.8,108.3l-0.4-1.2
			c0.8-0.2,1.6-0.5,2.4-0.7l0.3,1.2C154.4,107.8,153.6,108,152.8,108.3 M199.4,108c-0.8-0.2-1.6-0.5-2.4-0.7l0.3-1.2
			c0.8,0.2,1.6,0.4,2.4,0.7L199.4,108z M157.6,107l-0.3-1.2c0.8-0.2,1.6-0.4,2.5-0.6l0.2,1.2C159.2,106.6,158.4,106.8,157.6,107
			 M194.6,106.8c-0.8-0.2-1.6-0.4-2.4-0.5l0.2-1.2c0.8,0.2,1.6,0.3,2.5,0.5L194.6,106.8z M162.5,105.9l-0.2-1.2
			c0.8-0.1,1.7-0.3,2.5-0.4l0.2,1.2C164.1,105.7,163.3,105.8,162.5,105.9 M189.7,105.8c-0.8-0.1-1.6-0.3-2.5-0.4l0.2-1.2
			c0.8,0.1,1.7,0.2,2.5,0.4L189.7,105.8z M167.4,105.2l-0.1-1.2c0.8-0.1,1.7-0.2,2.5-0.2l0.1,1.2
			C169.1,105.1,168.2,105.1,167.4,105.2 M184.8,105.1c-0.8-0.1-1.6-0.2-2.5-0.2l0.1-1.2c0.8,0.1,1.7,0.1,2.5,0.2L184.8,105.1z
			 M172.4,104.8l-0.1-1.2c0.8,0,1.7-0.1,2.5-0.1l0,1.2C174,104.8,173.2,104.8,172.4,104.8 M179.8,104.8c-0.8,0-1.6-0.1-2.5-0.1
			l0-1.2c0.8,0,1.7,0,2.5,0.1L179.8,104.8z"/>
	</g>
	<g class="st0">
		<defs>
			<polygon id="SVGID_13_" points="48.6,11.9 539.6,11.9 548.4,334 48.6,334 			"/>
		</defs>
		<clipPath id="SVGID_14_">
			<use xlink:href="#SVGID_13_"  style="overflow:visible;"/>
		</clipPath>
		<path class="st6" d="M162.2,271.4l0-1.2c0.8,0,1.7,0,2.5,0l0,1.2C163.9,271.4,163,271.4,162.2,271.4 M159.6,271.4
			c-0.8,0-1.7,0-2.5-0.1l0.1-1.2c0.8,0,1.7,0.1,2.5,0.1L159.6,271.4z M167.2,271.3l-0.1-1.2c0.8,0,1.7-0.1,2.5-0.1l0.1,1.2
			C168.9,271.2,168,271.2,167.2,271.3 M154.6,271.2c-0.8-0.1-1.7-0.1-2.5-0.2l0.1-1.2c0.8,0.1,1.6,0.1,2.5,0.2L154.6,271.2z
			 M172.2,270.9l-0.1-1.2c0.8-0.1,1.6-0.2,2.5-0.3l0.1,1.2C173.9,270.7,173.1,270.8,172.2,270.9 M149.6,270.7
			c-0.8-0.1-1.7-0.2-2.5-0.3l0.2-1.2c0.8,0.1,1.6,0.2,2.5,0.3L149.6,270.7z M177.2,270.3l-0.2-1.2c0.8-0.1,1.6-0.2,2.5-0.4l0.2,1.2
			C178.9,270,178.1,270.2,177.2,270.3 M144.6,270c-0.8-0.1-1.7-0.3-2.5-0.5l0.2-1.2c0.8,0.1,1.6,0.3,2.4,0.4L144.6,270z
			 M182.2,269.4l-0.2-1.2c0.8-0.2,1.6-0.3,2.4-0.5l0.3,1.2C183.8,269.1,183,269.3,182.2,269.4 M139.7,269c-0.8-0.2-1.6-0.4-2.5-0.6
			l0.3-1.2c0.8,0.2,1.6,0.4,2.4,0.6L139.7,269z M187.1,268.4l-0.3-1.2c0.8-0.2,1.6-0.4,2.4-0.6l0.3,1.2
			C188.7,267.9,187.9,268.1,187.1,268.4 M134.8,267.9c-0.8-0.2-1.6-0.5-2.4-0.7l0.4-1.2c0.8,0.2,1.6,0.5,2.4,0.7L134.8,267.9z
			 M192,267l-0.4-1.2c0.8-0.2,1.6-0.5,2.4-0.8l0.4,1.2C193.6,266.5,192.8,266.8,192,267 M129.9,266.4c-0.8-0.3-1.6-0.5-2.4-0.8
			l0.4-1.2c0.8,0.3,1.6,0.5,2.4,0.8L129.9,266.4z M196.8,265.5l-0.4-1.2c0.8-0.3,1.6-0.6,2.3-0.9l0.4,1.2
			C198.4,264.9,197.6,265.2,196.8,265.5 M125.2,264.8c-0.8-0.3-1.6-0.6-2.3-0.9l0.5-1.2c0.8,0.3,1.5,0.6,2.3,0.9L125.2,264.8z
			 M201.5,263.7l-0.5-1.2c0.8-0.3,1.5-0.6,2.3-1l0.5,1.1C203,263,202.2,263.3,201.5,263.7 M120.5,262.9c-0.8-0.3-1.5-0.7-2.3-1
			l0.5-1.1c0.8,0.4,1.5,0.7,2.3,1L120.5,262.9z M206.1,261.6l-0.5-1.1c0.8-0.4,1.5-0.7,2.2-1.1l0.6,1.1
			C207.6,260.9,206.8,261.3,206.1,261.6 M115.9,260.8c-0.8-0.4-1.5-0.8-2.2-1.1l0.6-1.1c0.7,0.4,1.5,0.8,2.2,1.1L115.9,260.8z
			 M210.6,259.4l-0.6-1.1c0.7-0.4,1.5-0.8,2.2-1.2l0.6,1.1C212,258.6,211.3,259,210.6,259.4 M111.4,258.4c-0.7-0.4-1.5-0.8-2.2-1.2
			l0.6-1.1c0.7,0.4,1.4,0.8,2.2,1.2L111.4,258.4z M215,256.9l-0.6-1.1c0.7-0.4,1.4-0.9,2.1-1.3l0.7,1.1
			C216.4,256.1,215.7,256.5,215,256.9 M107.1,255.9c-0.7-0.4-1.4-0.9-2.1-1.4l0.7-1c0.7,0.5,1.4,0.9,2.1,1.3L107.1,255.9z
			 M219.2,254.3l-0.7-1c0.7-0.5,1.4-0.9,2.1-1.4l0.7,1C220.6,253.4,219.9,253.8,219.2,254.3 M102.8,253.1c-0.7-0.5-1.4-1-2.1-1.5
			l0.7-1c0.7,0.5,1.3,1,2,1.4L102.8,253.1z M223.4,251.4l-0.7-1c0.7-0.5,1.3-1,2-1.5l0.8,1C224.7,250.4,224,250.9,223.4,251.4
			 M98.7,250.2c-0.7-0.5-1.3-1-2-1.5l0.8-1c0.7,0.5,1.3,1,2,1.5L98.7,250.2z M227.4,248.4l-0.8-1c0.6-0.5,1.3-1,1.9-1.6l0.8,1
			C228.6,247.3,228,247.8,227.4,248.4 M94.8,247c-0.7-0.5-1.3-1.1-1.9-1.6l0.8-0.9c0.6,0.5,1.2,1.1,1.9,1.6L94.8,247z M231.2,245.1
			l-0.8-0.9c0.6-0.5,1.2-1.1,1.8-1.7l0.9,0.9C232.4,244,231.8,244.5,231.2,245.1 M91,243.7c-0.6-0.6-1.2-1.1-1.8-1.7l0.9-0.9
			c0.6,0.6,1.2,1.1,1.8,1.7L91,243.7z M234.9,241.7l-0.9-0.9c0.6-0.6,1.2-1.2,1.8-1.8l0.9,0.9C236.1,240.5,235.5,241.1,234.9,241.7
			 M87.4,240.2c-0.6-0.6-1.2-1.2-1.7-1.8l0.9-0.9c0.6,0.6,1.1,1.2,1.7,1.8L87.4,240.2z M238.4,238.1l-0.9-0.9
			c0.6-0.6,1.1-1.2,1.7-1.8l0.9,0.8C239.5,236.8,239,237.4,238.4,238.1 M84,236.5c-0.6-0.6-1.1-1.3-1.7-1.9l0.9-0.8
			c0.5,0.6,1.1,1.3,1.6,1.9L84,236.5z M241.7,234.3l-1-0.8c0.5-0.6,1.1-1.3,1.6-1.9l1,0.8C242.8,233,242.3,233.6,241.7,234.3
			 M80.7,232.7c-0.5-0.6-1.1-1.3-1.6-2l1-0.8c0.5,0.7,1,1.3,1.6,2L80.7,232.7z M244.9,230.4l-1-0.8c0.5-0.7,1-1.3,1.5-2l1,0.7
			C245.9,229,245.4,229.7,244.9,230.4 M77.6,228.7c-0.5-0.7-1-1.4-1.5-2l1-0.7c0.5,0.7,0.9,1.4,1.4,2L77.6,228.7z M247.9,226.3
			l-1-0.7c0.5-0.7,0.9-1.4,1.4-2.1l1.1,0.7C248.8,224.9,248.3,225.6,247.9,226.3 M74.7,224.6c-0.5-0.7-0.9-1.4-1.4-2.1l1.1-0.7
			c0.4,0.7,0.9,1.4,1.3,2.1L74.7,224.6z M250.6,222.1l-1.1-0.7c0.4-0.7,0.9-1.4,1.3-2.1l1.1,0.6
			C251.5,220.6,251.1,221.3,250.6,222.1 M72.1,220.3c-0.4-0.7-0.8-1.4-1.3-2.2l1.1-0.6c0.4,0.7,0.8,1.4,1.2,2.1L72.1,220.3z
			 M253.2,217.7l-1.1-0.6c0.4-0.7,0.8-1.5,1.2-2.2l1.1,0.6C254,216.2,253.6,217,253.2,217.7 M69.6,215.9c-0.4-0.7-0.8-1.5-1.2-2.2
			l1.1-0.6c0.4,0.7,0.8,1.5,1.1,2.2L69.6,215.9z M255.5,213.2l-1.1-0.6c0.4-0.8,0.7-1.5,1.1-2.2l1.1,0.5
			C256.3,211.7,255.9,212.5,255.5,213.2 M67.3,211.4c-0.4-0.8-0.7-1.5-1-2.3l1.2-0.5c0.3,0.8,0.7,1.5,1,2.3L67.3,211.4z
			 M257.7,208.7l-1.1-0.5c0.3-0.8,0.7-1.5,1-2.3l1.2,0.5C258.3,207.1,258,207.9,257.7,208.7 M65.3,206.8c-0.3-0.8-0.6-1.6-0.9-2.3
			l1.2-0.4c0.3,0.8,0.6,1.6,0.9,2.3L65.3,206.8z M259.6,204l-1.2-0.4c0.3-0.8,0.6-1.6,0.9-2.3l1.2,0.4
			C260.2,202.4,259.9,203.2,259.6,204 M63.5,202.1c-0.3-0.8-0.6-1.6-0.8-2.4l1.2-0.4c0.3,0.8,0.5,1.6,0.8,2.4L63.5,202.1z
			 M261.2,199.2l-1.2-0.4c0.3-0.8,0.5-1.6,0.7-2.4l1.2,0.4C261.8,197.6,261.5,198.4,261.2,199.2 M61.9,197.4
			c-0.2-0.8-0.5-1.6-0.7-2.4l1.2-0.3c0.2,0.8,0.5,1.6,0.7,2.4L61.9,197.4z M262.7,194.4l-1.2-0.3c0.2-0.8,0.4-1.6,0.6-2.4l1.2,0.3
			C263.1,192.8,262.9,193.6,262.7,194.4 M60.6,192.5c-0.2-0.8-0.4-1.6-0.6-2.4l1.2-0.3c0.2,0.8,0.4,1.6,0.6,2.4L60.6,192.5z
			 M263.9,189.5l-1.2-0.3c0.2-0.8,0.4-1.6,0.5-2.4l1.2,0.2C264.2,187.8,264.1,188.7,263.9,189.5 M59.5,187.6
			c-0.2-0.8-0.3-1.6-0.5-2.5l1.2-0.2c0.1,0.8,0.3,1.6,0.5,2.4L59.5,187.6z M264.8,184.5l-1.2-0.2c0.1-0.8,0.3-1.6,0.4-2.5l1.2,0.2
			C265.1,182.9,265,183.7,264.8,184.5 M58.6,182.6c-0.1-0.8-0.2-1.7-0.3-2.5l1.2-0.1c0.1,0.8,0.2,1.6,0.3,2.5L58.6,182.6z
			 M265.6,179.6l-1.2-0.1c0.1-0.8,0.2-1.6,0.3-2.5l1.2,0.1C265.8,177.9,265.7,178.7,265.6,179.6 M58,177.6c-0.1-0.8-0.2-1.7-0.2-2.5
			L59,175c0.1,0.8,0.1,1.7,0.2,2.5L58,177.6z M266,174.5l-1.2-0.1c0.1-0.8,0.1-1.6,0.1-2.5l1.2,0.1
			C266.1,172.9,266.1,173.7,266,174.5 M57.6,172.6c0-0.8-0.1-1.7-0.1-2.5l1.2,0c0,0.8,0.1,1.7,0.1,2.5L57.6,172.6z M266.3,169.5
			l-1.2,0c0-0.8,0-1.7,0-2.5c0-0.4,0-0.8,0-1.2l1.2,0c0,0.4,0,0.8,0,1.2C266.3,167.8,266.3,168.7,266.3,169.5 M58.7,167.6h-1.2V167
			c0-0.6,0-1.3,0-1.9l1.2,0c0,0.6,0,1.3,0,1.9V167.6z M265,163.3c0-0.8-0.1-1.7-0.1-2.5l1.2-0.1c0,0.8,0.1,1.7,0.1,2.5L265,163.3z
			 M58.8,162.6l-1.2-0.1c0-0.8,0.1-1.7,0.1-2.5l1.2,0.1C58.9,160.9,58.8,161.8,58.8,162.6 M264.7,158.4c-0.1-0.8-0.1-1.7-0.2-2.5
			l1.2-0.1c0.1,0.8,0.2,1.7,0.2,2.5L264.7,158.4z M59.1,157.6l-1.2-0.1c0.1-0.8,0.2-1.7,0.3-2.5l1.2,0.1
			C59.3,156,59.2,156.8,59.1,157.6 M264.2,153.4c-0.1-0.8-0.2-1.6-0.4-2.5l1.2-0.2c0.1,0.8,0.2,1.7,0.4,2.5L264.2,153.4z
			 M59.7,152.7l-1.2-0.2c0.1-0.8,0.2-1.7,0.4-2.5l1.2,0.2C59.9,151,59.8,151.8,59.7,152.7 M263.4,148.5c-0.1-0.8-0.3-1.6-0.5-2.4
			l1.2-0.2c0.2,0.8,0.3,1.6,0.5,2.5L263.4,148.5z M60.5,147.8l-1.2-0.2c0.2-0.8,0.3-1.6,0.5-2.5l1.2,0.3
			C60.8,146.1,60.6,146.9,60.5,147.8 M262.4,143.6c-0.2-0.8-0.4-1.6-0.6-2.4l1.2-0.3c0.2,0.8,0.4,1.6,0.6,2.4L262.4,143.6z
			 M61.5,142.9l-1.2-0.3c0.2-0.8,0.4-1.6,0.6-2.4l1.2,0.3C61.9,141.3,61.7,142.1,61.5,142.9 M261.2,138.8c-0.2-0.8-0.5-1.6-0.7-2.4
			l1.2-0.4c0.2,0.8,0.5,1.6,0.7,2.4L261.2,138.8z M62.8,138.1l-1.2-0.4c0.2-0.8,0.5-1.6,0.7-2.4l1.2,0.4
			C63.3,136.5,63,137.3,62.8,138.1 M259.7,134c-0.3-0.8-0.5-1.6-0.8-2.4l1.2-0.4c0.3,0.8,0.6,1.6,0.8,2.4L259.7,134z M64.3,133.3
			l-1.2-0.4c0.3-0.8,0.6-1.6,0.8-2.4l1.2,0.4C64.9,131.8,64.6,132.5,64.3,133.3 M258,129.4c-0.3-0.8-0.6-1.5-0.9-2.3l1.2-0.5
			c0.3,0.8,0.6,1.6,0.9,2.3L258,129.4z M66.1,128.6l-1.2-0.5c0.3-0.8,0.6-1.6,1-2.3l1.2,0.5C66.7,127.1,66.4,127.9,66.1,128.6
			 M256.1,124.8c-0.3-0.8-0.7-1.5-1-2.2l1.1-0.5c0.4,0.8,0.7,1.5,1.1,2.3L256.1,124.8z M68,124.1l-1.1-0.5c0.3-0.8,0.7-1.5,1.1-2.3
			l1.1,0.6C68.7,122.5,68.4,123.3,68,124.1 M253.9,120.3c-0.4-0.7-0.8-1.5-1.1-2.2l1.1-0.6c0.4,0.7,0.8,1.5,1.2,2.2L253.9,120.3z
			 M70.2,119.6l-1.1-0.6c0.4-0.8,0.8-1.5,1.2-2.2l1.1,0.6C71,118.1,70.6,118.8,70.2,119.6 M251.6,115.9c-0.4-0.7-0.8-1.4-1.3-2.1
			l1.1-0.6c0.4,0.7,0.9,1.4,1.3,2.2L251.6,115.9z M72.6,115.2l-1.1-0.6c0.4-0.7,0.8-1.4,1.3-2.2l1.1,0.7
			C73.5,113.8,73,114.5,72.6,115.2 M249,111.7c-0.4-0.7-0.9-1.4-1.4-2.1l1-0.7c0.5,0.7,0.9,1.4,1.4,2.1L249,111.7z M75.2,111
			l-1.1-0.7c0.5-0.7,0.9-1.4,1.4-2.1l1,0.7C76.1,109.6,75.7,110.3,75.2,111 M246.2,107.6c-0.5-0.7-1-1.4-1.5-2l1-0.7
			c0.5,0.7,1,1.4,1.5,2L246.2,107.6z M78,106.8l-1-0.7c0.5-0.7,1-1.4,1.5-2l1,0.8C79,105.5,78.5,106.2,78,106.8 M243.3,103.6
			c-0.5-0.7-1-1.3-1.6-1.9l1-0.8c0.5,0.6,1.1,1.3,1.6,2L243.3,103.6z M81,102.9l-1-0.8c0.5-0.7,1.1-1.3,1.6-2l1,0.8
			C82.1,101.6,81.6,102.2,81,102.9 M240.1,99.7c-0.5-0.6-1.1-1.2-1.6-1.9l0.9-0.8c0.6,0.6,1.1,1.2,1.7,1.9L240.1,99.7z M84.2,99
			l-0.9-0.8c0.6-0.6,1.1-1.3,1.7-1.9l0.9,0.8C85.3,97.8,84.8,98.4,84.2,99 M236.8,96c-0.6-0.6-1.1-1.2-1.7-1.8l0.9-0.9
			c0.6,0.6,1.2,1.2,1.8,1.8L236.8,96z M87.6,95.4l-0.9-0.9c0.6-0.6,1.2-1.2,1.8-1.8l0.9,0.9C88.8,94.2,88.2,94.8,87.6,95.4
			 M233.3,92.5c-0.6-0.6-1.2-1.1-1.8-1.7l0.9-0.9c0.6,0.6,1.2,1.1,1.8,1.7L233.3,92.5z M91.1,91.9L90.3,91c0.6-0.6,1.2-1.2,1.8-1.7
			l0.8,0.9C92.3,90.7,91.7,91.3,91.1,91.9 M229.6,89.1c-0.6-0.6-1.3-1.1-1.9-1.6l0.8-1c0.6,0.5,1.3,1.1,1.9,1.6L229.6,89.1z
			 M94.8,88.5L94,87.6c0.6-0.6,1.3-1.1,1.9-1.6l0.8,1C96.1,87.5,95.5,88,94.8,88.5 M225.8,86c-0.6-0.5-1.3-1-2-1.5l0.8-1
			c0.7,0.5,1.3,1,2,1.5L225.8,86z M98.7,85.4l-0.8-1c0.7-0.5,1.3-1,2-1.5l0.7,1C100,84.4,99.3,84.9,98.7,85.4 M221.8,83
			c-0.7-0.5-1.4-1-2.1-1.4l0.7-1c0.7,0.5,1.4,0.9,2.1,1.4L221.8,83z M102.7,82.5l-0.7-1c0.7-0.5,1.4-1,2.1-1.4l0.7,1
			C104.1,81.5,103.4,82,102.7,82.5 M217.7,80.2c-0.7-0.4-1.4-0.9-2.1-1.3l0.6-1.1c0.7,0.4,1.4,0.9,2.1,1.3L217.7,80.2z M106.8,79.7
			l-0.7-1.1c0.7-0.4,1.4-0.9,2.1-1.3l0.7,1.1C108.2,78.8,107.5,79.3,106.8,79.7 M213.4,77.6c-0.7-0.4-1.4-0.8-2.2-1.2l0.6-1.1
			c0.7,0.4,1.5,0.8,2.2,1.2L213.4,77.6z M111.1,77.1l-0.6-1.1c0.7-0.4,1.5-0.8,2.2-1.2l0.6,1.1C112.5,76.3,111.8,76.7,111.1,77.1
			 M209,75.2c-0.7-0.4-1.5-0.8-2.2-1.1l0.5-1.1c0.8,0.4,1.5,0.7,2.3,1.1L209,75.2z M115.5,74.8l-0.6-1.1c0.8-0.4,1.5-0.8,2.3-1.1
			l0.5,1.1C116.9,74.1,116.2,74.4,115.5,74.8 M204.5,73c-0.8-0.3-1.5-0.7-2.3-1l0.5-1.2c0.8,0.3,1.6,0.7,2.3,1L204.5,73z
			 M119.9,72.7l-0.5-1.1c0.8-0.3,1.5-0.7,2.3-1l0.5,1.2C121.5,72,120.7,72.3,119.9,72.7 M199.9,71.1c-0.8-0.3-1.6-0.6-2.3-0.9
			l0.4-1.2c0.8,0.3,1.6,0.6,2.4,0.9L199.9,71.1z M124.5,70.8l-0.4-1.2c0.8-0.3,1.6-0.6,2.4-0.9l0.4,1.2
			C126.1,70.2,125.3,70.5,124.5,70.8 M195.3,69.3c-0.8-0.3-1.6-0.5-2.4-0.8l0.4-1.2c0.8,0.2,1.6,0.5,2.4,0.8L195.3,69.3z
			 M129.2,69.1l-0.4-1.2c0.8-0.3,1.6-0.5,2.4-0.8l0.4,1.2C130.8,68.6,130,68.8,129.2,69.1 M190.5,67.8c-0.8-0.2-1.6-0.4-2.4-0.7
			l0.3-1.2c0.8,0.2,1.6,0.4,2.4,0.7L190.5,67.8z M134,67.6l-0.3-1.2c0.8-0.2,1.6-0.4,2.4-0.7l0.3,1.2
			C135.6,67.2,134.8,67.4,134,67.6 M185.7,66.6c-0.8-0.2-1.6-0.4-2.4-0.5l0.2-1.2c0.8,0.2,1.6,0.3,2.5,0.6L185.7,66.6z M138.8,66.4
			l-0.3-1.2c0.8-0.2,1.6-0.4,2.5-0.5l0.2,1.2C140.4,66,139.6,66.2,138.8,66.4 M180.8,65.5c-0.8-0.2-1.6-0.3-2.4-0.4l0.2-1.2
			c0.8,0.1,1.7,0.3,2.5,0.4L180.8,65.5z M143.7,65.4l-0.2-1.2c0.8-0.2,1.6-0.3,2.5-0.4l0.2,1.2C145.3,65.1,144.5,65.3,143.7,65.4
			 M175.9,64.8c-0.8-0.1-1.6-0.2-2.5-0.3l0.1-1.2c0.8,0.1,1.7,0.2,2.5,0.3L175.9,64.8z M148.6,64.7l-0.2-1.2
			c0.8-0.1,1.7-0.2,2.5-0.3l0.1,1.2C150.2,64.5,149.4,64.5,148.6,64.7 M170.9,64.2c-0.8-0.1-1.6-0.1-2.5-0.2l0.1-1.2
			c0.8,0.1,1.7,0.1,2.5,0.2L170.9,64.2z M153.6,64.1l-0.1-1.2c0.8-0.1,1.7-0.1,2.5-0.2L156,64C155.2,64,154.4,64.1,153.6,64.1
			 M166,63.9c-0.8,0-1.6-0.1-2.5-0.1l0-1.2c0.8,0,1.7,0,2.5,0.1L166,63.9z M158.5,63.9l0-1.2c0.8,0,1.7,0,2.5-0.1l0,1.2
			C160.2,63.8,159.4,63.8,158.5,63.9"/>
	</g>
	<g class="st0">
		<defs>
			<polygon id="SVGID_15_" points="48.6,11.9 539.6,11.9 548.4,334 48.6,334 			"/>
		</defs>
		<clipPath id="SVGID_16_">
			<use xlink:href="#SVGID_15_"  style="overflow:visible;"/>
		</clipPath>
		<path class="st7" d="M175.4,240c-0.9,0-1.7,0-2.5,0l0.1-1.2c0.8,0,1.6,0,2.5,0V240z M177.9,240l0-1.2c0.8,0,1.7-0.1,2.5-0.1
			l0.1,1.2C179.6,239.9,178.8,240,177.9,240 M170.4,239.8c-0.8-0.1-1.7-0.1-2.5-0.2l0.1-1.2c0.8,0.1,1.6,0.2,2.5,0.2L170.4,239.8z
			 M183,239.6l-0.1-1.2c0.8-0.1,1.6-0.2,2.5-0.3l0.2,1.2C184.7,239.4,183.8,239.5,183,239.6 M165.4,239.3c-0.8-0.1-1.7-0.2-2.5-0.4
			l0.2-1.2c0.8,0.1,1.6,0.3,2.4,0.4L165.4,239.3z M188,238.9l-0.2-1.2c0.8-0.1,1.6-0.3,2.4-0.5l0.3,1.2
			C189.6,238.6,188.8,238.8,188,238.9 M160.4,238.4c-0.8-0.2-1.6-0.4-2.5-0.6l0.3-1.2c0.8,0.2,1.6,0.4,2.4,0.6L160.4,238.4z
			 M192.9,237.9l-0.3-1.2c0.8-0.2,1.6-0.4,2.4-0.7l0.4,1.2C194.6,237.4,193.8,237.7,192.9,237.9 M155.5,237.2
			c-0.8-0.2-1.6-0.5-2.4-0.8l0.4-1.2c0.8,0.3,1.6,0.5,2.4,0.7L155.5,237.2z M197.8,236.4l-0.4-1.2c0.8-0.3,1.6-0.5,2.3-0.8l0.4,1.2
			C199.4,235.9,198.6,236.2,197.8,236.4 M150.7,235.6c-0.8-0.3-1.6-0.6-2.4-0.9l0.5-1.1c0.8,0.3,1.5,0.6,2.3,0.9L150.7,235.6z
			 M202.5,234.7l-0.5-1.2c0.8-0.3,1.5-0.6,2.3-1l0.5,1.1C204.1,234,203.3,234.4,202.5,234.7 M146,233.6c-0.8-0.4-1.5-0.7-2.3-1.1
			l0.6-1.1c0.8,0.4,1.5,0.7,2.2,1.1L146,233.6z M207.1,232.6l-0.6-1.1c0.7-0.4,1.5-0.8,2.2-1.1l0.6,1.1
			C208.6,231.8,207.9,232.2,207.1,232.6 M141.5,231.4c-0.7-0.4-1.5-0.8-2.2-1.3l0.6-1.1c0.7,0.4,1.4,0.8,2.2,1.2L141.5,231.4z
			 M211.5,230.2l-0.6-1.1c0.7-0.4,1.4-0.9,2.1-1.3l0.7,1C213,229.3,212.2,229.7,211.5,230.2 M137.1,228.8c-0.7-0.5-1.4-0.9-2.1-1.4
			l0.7-1c0.7,0.5,1.4,0.9,2.1,1.4L137.1,228.8z M215.8,227.4l-0.7-1c0.7-0.5,1.4-1,2-1.5l0.8,1C217.1,226.5,216.5,227,215.8,227.4
			 M133,225.9c-0.7-0.5-1.3-1-2-1.6l0.8-1c0.6,0.5,1.3,1,2,1.5L133,225.9z M219.8,224.4l-0.8-1c0.6-0.5,1.3-1.1,1.9-1.6l0.8,0.9
			C221.1,223.3,220.5,223.9,219.8,224.4 M129.1,222.7c-0.6-0.6-1.3-1.1-1.9-1.7l0.9-0.9c0.6,0.6,1.2,1.1,1.8,1.7L129.1,222.7z
			 M223.6,221.1l-0.9-0.9c0.6-0.6,1.2-1.1,1.8-1.7l0.9,0.9C224.9,219.9,224.2,220.5,223.6,221.1 M125.4,219.2
			c-0.6-0.6-1.2-1.2-1.8-1.8l0.9-0.9c0.6,0.6,1.1,1.2,1.7,1.8L125.4,219.2z M227.2,217.5l-0.9-0.9c0.6-0.6,1.1-1.2,1.7-1.8l0.9,0.8
			C228.3,216.3,227.8,216.9,227.2,217.5 M121.9,215.5c-0.6-0.6-1.1-1.3-1.6-1.9l1-0.8c0.5,0.6,1.1,1.3,1.6,1.9L121.9,215.5z
			 M230.5,213.7l-1-0.8c0.5-0.6,1-1.3,1.5-2l1,0.8C231.6,212.4,231.1,213.1,230.5,213.7 M118.8,211.6c-0.5-0.7-1-1.4-1.5-2.1l1-0.7
			c0.5,0.7,1,1.4,1.4,2L118.8,211.6z M233.6,209.7l-1-0.7c0.5-0.7,0.9-1.4,1.4-2.1l1.1,0.7C234.5,208.3,234,209,233.6,209.7
			 M115.9,207.5c-0.5-0.7-0.9-1.4-1.3-2.1l1.1-0.6c0.4,0.7,0.9,1.4,1.3,2.1L115.9,207.5z M236.3,205.4l-1.1-0.6
			c0.4-0.7,0.8-1.4,1.2-2.2l1.1,0.6C237.1,204,236.7,204.7,236.3,205.4 M113.3,203.1c-0.4-0.7-0.8-1.5-1.2-2.2l1.1-0.6
			c0.4,0.7,0.8,1.5,1.2,2.2L113.3,203.1z M238.7,201l-1.1-0.6c0.4-0.7,0.7-1.5,1.1-2.2l1.1,0.5C239.5,199.5,239.1,200.2,238.7,201
			 M111.1,198.6c-0.3-0.8-0.7-1.5-1-2.3l1.2-0.5c0.3,0.8,0.6,1.5,1,2.3L111.1,198.6z M240.8,196.4l-1.2-0.5c0.3-0.8,0.6-1.5,0.9-2.3
			l1.2,0.4C241.5,194.8,241.2,195.6,240.8,196.4 M109.1,194c-0.3-0.8-0.6-1.6-0.8-2.4l1.2-0.4c0.3,0.8,0.5,1.6,0.8,2.3L109.1,194z
			 M242.6,191.6l-1.2-0.4c0.3-0.8,0.5-1.6,0.7-2.4l1.2,0.4C243.1,190,242.9,190.8,242.6,191.6 M107.6,189.2
			c-0.2-0.8-0.4-1.6-0.7-2.4l1.2-0.3c0.2,0.8,0.4,1.6,0.7,2.4L107.6,189.2z M244,186.8l-1.2-0.3c0.2-0.8,0.4-1.6,0.6-2.4l1.2,0.3
			C244.4,185.2,244.2,186,244,186.8 M106.3,184.3c-0.2-0.8-0.3-1.6-0.5-2.5l1.2-0.2c0.1,0.8,0.3,1.6,0.5,2.4L106.3,184.3z
			 M245.1,181.9l-1.2-0.2c0.1-0.8,0.3-1.6,0.4-2.4l1.2,0.2C245.4,180.2,245.2,181,245.1,181.9 M105.4,179.3
			c-0.1-0.8-0.2-1.7-0.3-2.5l1.2-0.1c0.1,0.8,0.2,1.6,0.3,2.5L105.4,179.3z M245.8,176.8l-1.2-0.1c0.1-0.8,0.2-1.6,0.2-2.5l1.2,0.1
			C246,175.2,245.9,176,245.8,176.8 M104.9,174.3c-0.1-0.8-0.1-1.7-0.1-2.5l1.2,0c0,0.8,0.1,1.6,0.1,2.5L104.9,174.3z M246.2,171.8
			l-1.2,0c0-0.8,0-1.6,0-2.5h1.2C246.2,170.1,246.2,171,246.2,171.8 M106,169.2h-1.2c0-0.9,0-1.7,0.1-2.5l1.2,0.1
			C106,167.6,106,168.4,106,169.2 M244.9,167c0-0.8-0.1-1.7-0.1-2.5l1.2-0.1c0.1,0.8,0.1,1.7,0.1,2.5L244.9,167z M106.2,164.3
			l-1.2-0.1c0.1-0.8,0.1-1.7,0.2-2.5l1.2,0.1C106.3,162.6,106.2,163.4,106.2,164.3 M244.6,162c-0.1-0.8-0.2-1.6-0.3-2.5l1.2-0.2
			c0.1,0.8,0.2,1.7,0.3,2.5L244.6,162z M106.7,159.3l-1.2-0.2c0.1-0.8,0.3-1.7,0.4-2.5l1.2,0.2C106.9,157.7,106.8,158.5,106.7,159.3
			 M243.9,157.1c-0.1-0.8-0.3-1.6-0.5-2.4l1.2-0.3c0.2,0.8,0.3,1.6,0.5,2.5L243.9,157.1z M107.6,154.4l-1.2-0.3
			c0.2-0.8,0.4-1.6,0.6-2.4l1.2,0.3C107.9,152.8,107.7,153.6,107.6,154.4 M242.9,152.2c-0.2-0.8-0.4-1.6-0.6-2.4l1.2-0.4
			c0.2,0.8,0.4,1.6,0.7,2.4L242.9,152.2z M108.8,149.6l-1.2-0.4c0.2-0.8,0.5-1.6,0.8-2.4l1.2,0.4C109.3,148,109,148.8,108.8,149.6
			 M241.5,147.5c-0.3-0.8-0.5-1.6-0.8-2.3l1.2-0.4c0.3,0.8,0.6,1.6,0.8,2.4L241.5,147.5z M110.4,144.9l-1.2-0.4
			c0.3-0.8,0.6-1.6,0.9-2.4l1.2,0.5C111,143.4,110.7,144.1,110.4,144.9 M239.7,142.8c-0.3-0.8-0.6-1.5-1-2.3l1.1-0.5
			c0.4,0.8,0.7,1.5,1,2.3L239.7,142.8z M112.3,140.3l-1.1-0.5c0.3-0.8,0.7-1.5,1.1-2.3l1.1,0.6C113,138.8,112.6,139.6,112.3,140.3
			 M237.7,138.3c-0.4-0.7-0.8-1.5-1.1-2.2l1.1-0.6c0.4,0.7,0.8,1.5,1.2,2.2L237.7,138.3z M114.5,135.9l-1.1-0.6
			c0.4-0.7,0.8-1.5,1.3-2.2l1.1,0.6C115.3,134.4,114.9,135.2,114.5,135.9 M235.3,134c-0.4-0.7-0.9-1.4-1.3-2.1l1.1-0.7
			c0.4,0.7,0.9,1.4,1.3,2.1L235.3,134z M117.1,131.6l-1.1-0.7c0.5-0.7,0.9-1.4,1.4-2.1l1,0.7C118,130.2,117.5,130.9,117.1,131.6
			 M232.6,129.8c-0.5-0.7-0.9-1.4-1.4-2l1-0.8c0.5,0.7,1,1.4,1.5,2.1L232.6,129.8z M119.9,127.5l-1-0.8c0.5-0.7,1-1.3,1.6-2l1,0.8
			C120.9,126.2,120.4,126.9,119.9,127.5 M229.7,125.8c-0.5-0.6-1.1-1.3-1.6-1.9l0.9-0.8c0.6,0.6,1.1,1.3,1.6,1.9L229.7,125.8z
			 M123,123.7l-0.9-0.8c0.6-0.6,1.1-1.3,1.7-1.9l0.9,0.9C124.1,122.4,123.6,123.1,123,123.7 M226.4,122.1c-0.6-0.6-1.1-1.2-1.7-1.8
			l0.9-0.9c0.6,0.6,1.2,1.2,1.8,1.8L226.4,122.1z M126.4,120.1l-0.9-0.9c0.6-0.6,1.2-1.2,1.8-1.8l0.8,0.9
			C127.6,118.9,127,119.5,126.4,120.1 M222.9,118.5c-0.6-0.6-1.2-1.1-1.8-1.7l0.8-0.9c0.6,0.6,1.3,1.1,1.9,1.7L222.9,118.5z
			 M130.1,116.7l-0.8-0.9c0.6-0.6,1.3-1.1,1.9-1.6l0.8,1C131.3,115.6,130.7,116.1,130.1,116.7 M219.2,115.3c-0.6-0.5-1.3-1-2-1.5
			l0.8-1c0.7,0.5,1.3,1,2,1.6L219.2,115.3z M133.9,113.6l-0.8-1c0.7-0.5,1.4-1,2.1-1.5l0.7,1C135.3,112.6,134.6,113.1,133.9,113.6
			 M215.2,112.3c-0.7-0.5-1.4-0.9-2.1-1.4l0.7-1.1c0.7,0.5,1.4,0.9,2.1,1.4L215.2,112.3z M138,110.8l-0.7-1.1
			c0.7-0.4,1.4-0.9,2.1-1.3l0.6,1.1C139.4,109.9,138.7,110.3,138,110.8 M211.1,109.6c-0.7-0.4-1.4-0.8-2.1-1.2l0.6-1.1
			c0.7,0.4,1.5,0.8,2.2,1.3L211.1,109.6z M142.3,108.2l-0.6-1.1c0.7-0.4,1.5-0.8,2.2-1.2l0.6,1.1C143.7,107.4,143,107.8,142.3,108.2
			 M206.7,107.2c-0.7-0.4-1.5-0.7-2.2-1.1l0.5-1.1c0.8,0.4,1.5,0.7,2.3,1.1L206.7,107.2z M146.7,106l-0.5-1.1c0.8-0.4,1.5-0.7,2.3-1
			l0.5,1.2C148.2,105.3,147.4,105.7,146.7,106 M202.2,105.1c-0.8-0.3-1.5-0.6-2.3-0.9l0.4-1.2c0.8,0.3,1.6,0.6,2.4,0.9L202.2,105.1z
			 M151.3,104.1l-0.4-1.2c0.8-0.3,1.6-0.6,2.4-0.8l0.4,1.2C152.8,103.6,152,103.8,151.3,104.1 M197.5,103.4
			c-0.8-0.3-1.6-0.5-2.4-0.8l0.4-1.2c0.8,0.2,1.6,0.5,2.4,0.8L197.5,103.4z M156,102.6l-0.4-1.2c0.8-0.2,1.6-0.5,2.4-0.7l0.3,1.2
			C157.6,102.1,156.8,102.3,156,102.6 M192.8,102c-0.8-0.2-1.6-0.4-2.4-0.6l0.3-1.2c0.8,0.2,1.6,0.4,2.5,0.6L192.8,102z
			 M160.8,101.3l-0.3-1.2c0.8-0.2,1.6-0.3,2.5-0.5l0.2,1.2C162.4,101,161.6,101.2,160.8,101.3 M187.9,100.9
			c-0.8-0.1-1.6-0.3-2.4-0.4l0.2-1.2c0.8,0.1,1.7,0.3,2.5,0.4L187.9,100.9z M165.7,100.5l-0.2-1.2c0.8-0.1,1.7-0.2,2.5-0.3l0.1,1.2
			C167.3,100.3,166.5,100.4,165.7,100.5 M183,100.2c-0.8-0.1-1.6-0.2-2.5-0.2l0.1-1.2c0.8,0.1,1.7,0.1,2.5,0.2L183,100.2z
			 M170.6,100l-0.1-1.2c0.8-0.1,1.7-0.1,2.5-0.1l0,1.2C172.3,99.9,171.4,99.9,170.6,100 M178.1,99.8c-0.8,0-1.6-0.1-2.5-0.1l0-1.2
			c0.9,0,1.7,0,2.5,0.1L178.1,99.8z"/>
	</g>
	<g class="st0">
		<defs>
			<polygon id="SVGID_17_" points="48.6,11.9 539.6,11.9 548.4,334 48.6,334 			"/>
		</defs>
		<clipPath id="SVGID_18_">
			<use xlink:href="#SVGID_17_"  style="overflow:visible;"/>
		</clipPath>
		<path class="st8" d="M232.9,82.7c-0.9,0-1.7-0.1-2.5-0.1l0.1-1.2c0.8,0.1,1.6,0.1,2.5,0.1L232.9,82.7z M235.4,82.7l-0.1-1.2
			c0.8-0.1,1.6-0.1,2.4-0.2l0.2,1.2C237.1,82.5,236.2,82.6,235.4,82.7 M227.8,82.3c-0.8-0.1-1.7-0.3-2.5-0.5l0.3-1.2
			c0.8,0.2,1.6,0.3,2.4,0.5L227.8,82.3z M240.4,82l-0.2-1.2c0.8-0.2,1.6-0.4,2.4-0.6l0.3,1.2C242.1,81.6,241.3,81.8,240.4,82
			 M222.8,81.2c-0.8-0.2-1.6-0.5-2.4-0.8l0.5-1.2c0.8,0.3,1.5,0.6,2.3,0.8L222.8,81.2z M245.3,80.6l-0.4-1.2
			c0.8-0.3,1.5-0.6,2.3-0.9l0.5,1.1C246.9,80,246.1,80.3,245.3,80.6 M218.1,79.3c-0.8-0.4-1.5-0.8-2.3-1.2l0.6-1.1
			c0.7,0.4,1.4,0.8,2.2,1.1L218.1,79.3z M250,78.5l-0.6-1.1c0.7-0.4,1.4-0.8,2.1-1.2l0.7,1.1C251.5,77.7,250.7,78.1,250,78.5
			 M213.6,76.8c-0.7-0.5-1.4-1-2.1-1.5l0.8-1c0.6,0.5,1.3,1,2,1.4L213.6,76.8z M254.3,75.8l-0.7-1c0.7-0.5,1.3-1,1.9-1.5l0.8,0.9
			C255.6,74.8,255,75.3,254.3,75.8 M209.6,73.7c-0.6-0.6-1.2-1.2-1.8-1.8l0.9-0.9c0.6,0.6,1.2,1.2,1.8,1.7L209.6,73.7z M258.2,72.5
			l-0.9-0.9c0.6-0.6,1.1-1.2,1.7-1.8l0.9,0.8C259.4,71.3,258.8,71.9,258.2,72.5 M206.1,70c-0.6-0.7-1.1-1.3-1.6-2l1-0.7
			c0.5,0.7,1,1.3,1.5,1.9L206.1,70z M261.5,68.7l-1-0.8c0.5-0.7,1-1.3,1.4-2l1,0.7C262.5,67.3,262,68,261.5,68.7 M203.1,65.9
			c-0.4-0.7-0.9-1.5-1.3-2.2l1.1-0.6c0.4,0.7,0.8,1.4,1.2,2.1L203.1,65.9z M264.3,64.4l-1.1-0.6c0.4-0.7,0.8-1.4,1.1-2.2l1.1,0.5
			C265.1,62.9,264.7,63.6,264.3,64.4 M200.7,61.4c-0.3-0.8-0.6-1.6-0.9-2.4l1.2-0.4c0.3,0.8,0.6,1.5,0.9,2.3L200.7,61.4z
			 M266.4,59.8l-1.2-0.4c0.3-0.8,0.5-1.5,0.8-2.3l1.2,0.3C267,58.2,266.7,59,266.4,59.8 M199,56.6c-0.2-0.8-0.4-1.6-0.6-2.5l1.2-0.2
			c0.2,0.8,0.4,1.6,0.6,2.4L199,56.6z M267.9,54.9l-1.2-0.3c0.2-0.8,0.3-1.6,0.4-2.4l1.2,0.2C268.2,53.2,268,54,267.9,54.9
			 M198,51.6c-0.1-0.8-0.2-1.7-0.2-2.5l1.2-0.1c0,0.8,0.1,1.6,0.2,2.4L198,51.6z M268.6,49.8l-1.2-0.1c0.1-0.8,0.1-1.6,0.1-2.5h1.2
			C268.7,48.1,268.7,49,268.6,49.8 M199,46.5l-1.2,0c0-0.9,0.1-1.7,0.1-2.6l1.2,0.1C199.1,44.9,199.1,45.7,199,46.5 M267.4,46.3
			c0-0.8-0.1-1.6-0.2-2.4l1.2-0.1c0.1,0.8,0.1,1.7,0.2,2.5L267.4,46.3z M199.5,41.6l-1.2-0.2c0.1-0.8,0.3-1.7,0.5-2.5l1.2,0.3
			C199.8,40,199.6,40.8,199.5,41.6 M266.9,41.4c-0.1-0.8-0.3-1.6-0.5-2.4l1.2-0.3c0.2,0.8,0.4,1.7,0.5,2.5L266.9,41.4z M200.6,36.9
			l-1.2-0.4c0.3-0.8,0.6-1.6,0.9-2.4l1.2,0.5C201.2,35.3,200.9,36.1,200.6,36.9 M265.8,36.7c-0.2-0.8-0.5-1.6-0.9-2.3l1.2-0.5
			c0.3,0.8,0.6,1.6,0.9,2.4L265.8,36.7z M202.5,32.3l-1.1-0.5c0.4-0.8,0.8-1.5,1.2-2.2l1.1,0.6C203.2,30.8,202.8,31.6,202.5,32.3
			 M263.9,32.1c-0.4-0.7-0.8-1.5-1.2-2.2l1.1-0.6c0.4,0.7,0.8,1.5,1.2,2.2L263.9,32.1z M205,28l-1-0.7c0.5-0.7,1-1.4,1.5-2l1,0.8
			C205.9,26.7,205.4,27.4,205,28 M261.4,27.9c-0.5-0.7-1-1.3-1.5-2l1-0.8c0.5,0.7,1,1.3,1.5,2L261.4,27.9z M208,24.2l-0.9-0.8
			c0.6-0.6,1.2-1.2,1.8-1.8l0.9,0.9C209.1,23,208.6,23.6,208,24.2 M258.3,24.1c-0.6-0.6-1.1-1.2-1.7-1.8l0.9-0.9
			c0.6,0.6,1.2,1.2,1.8,1.8L258.3,24.1z M211.6,20.8l-0.8-1c0.7-0.5,1.3-1,2-1.5l0.7,1C212.9,19.8,212.2,20.3,211.6,20.8
			 M254.8,20.7c-0.6-0.5-1.3-1-2-1.5l0.7-1c0.7,0.5,1.4,1,2,1.5L254.8,20.7z M215.6,18l-0.6-1.1c0.7-0.4,1.5-0.8,2.2-1.2l0.6,1.1
			C217,17.2,216.3,17.6,215.6,18 M250.7,17.9c-0.7-0.4-1.4-0.8-2.2-1.2l0.6-1.1c0.8,0.4,1.5,0.8,2.2,1.2L250.7,17.9z M220,15.8
			l-0.5-1.2c0.8-0.3,1.6-0.6,2.4-0.9l0.4,1.2C221.5,15.1,220.7,15.4,220,15.8 M246.3,15.7c-0.8-0.3-1.5-0.6-2.3-0.9l0.4-1.2
			c0.8,0.3,1.6,0.6,2.4,0.9L246.3,15.7z M224.6,14.2l-0.3-1.2c0.8-0.2,1.6-0.4,2.5-0.5l0.2,1.2C226.2,13.8,225.4,14,224.6,14.2
			 M241.6,14.1c-0.8-0.2-1.6-0.4-2.4-0.5l0.2-1.2c0.8,0.2,1.7,0.3,2.5,0.5L241.6,14.1z M229.4,13.3l-0.1-1.2
			c0.8-0.1,1.7-0.2,2.5-0.2l0.1,1.2C231.1,13.1,230.3,13.2,229.4,13.3 M236.8,13.3c-0.8-0.1-1.6-0.1-2.4-0.2l0-1.2
			c0.9,0,1.7,0.1,2.6,0.2L236.8,13.3z"/>
	</g>
	<g class="st0">
		<defs>
			<polygon id="SVGID_19_" points="48.6,11.9 539.6,11.9 548.4,334 48.6,334 			"/>
		</defs>
		<clipPath id="SVGID_20_">
			<use xlink:href="#SVGID_19_"  style="overflow:visible;"/>
		</clipPath>
		<path class="st9" d="M461.1,240.9c7.8-5.9,13.4-15.2,16.9-25.2c7.1-20.1-0.1-19.2-1-16.1c-8.9,28.5-38.7,43.4-67.3,34.5
			c-5.5-1.7-10.7-5.4-15.1-8.5c-31-24.5-39.5-67.2-11-102.6c17.8-22.1,48.6-29,75.7-20.8c29.9,9.1,66.3,1.8,76.5-29.7
			c2.6-8.1,3.3-11.2,3.8-15.8c0.6-5.9-8.5-8.1-10.7-2.6c-2.9,7.5,1-2.9,0,0c-9.9,29.2-35,31.7-50.3,24c-13.1-6.7-22.3-9.9-38.1-13.5
			C393.4,54,332,87.6,321.9,142.2c-10,53.6,29.2,103.5,82.9,112.7c12,2.1,24,1.9,34.9-2.1C446,250.5,447.6,251.2,461.1,240.9"/>
	</g>
	<g class="st0">
		<defs>
			<polygon id="SVGID_21_" points="48.6,11.9 539.6,11.9 548.4,334 48.6,334 			"/>
		</defs>
		<clipPath id="SVGID_22_">
			<use xlink:href="#SVGID_21_"  style="overflow:visible;"/>
		</clipPath>
		<path class="st10" d="M386.8,253.9c-25.5-8.2-39.9-27.2-47.4-32.3c-1.7-1.2-4.2-0.3-3.3,1.6c3.1,6.8,17.4,31.6,55.5,42.9
			c55.2,16.3,108.2-11.5,123.8-61.3c6.3-23,0.3-46.3-7.9-60.7c-10.2-18.1-23.4-29.1-44.7-35.8c-48.7-15.3-75.2,19.5-81,38.1
			c-0.1,0.3-0.2,0.6-0.3,0.9c-3.1,10.2,8.8,15.5,14.5,4.7c10.5-19.9,34.2-34.7,58.8-27.4c32.5,9.7,47.6,43.4,39.9,68.9
			C475.1,258.5,426.2,266.6,386.8,253.9"/>
	</g>
	<g class="st0">
		<defs>
			<polygon id="SVGID_23_" points="48.6,11.9 539.6,11.9 548.4,334 48.6,334 			"/>
		</defs>
		<clipPath id="SVGID_24_">
			<use xlink:href="#SVGID_23_"  style="overflow:visible;"/>
		</clipPath>
		<path class="st11" d="M222.7,316.5c-1.4,5.3-0.4,10.1,2.6,14.7c-4.2-2.5-7.5-8.8-7.1-14.2c0.8-11.2,7.4-16.7,18.2-17.8
			c-5.4-1.4-10.2-0.4-14.8,2.8c3-5.1,10.7-8.3,17-7.1c8.8,1.6,13.3,7.1,15.1,18.1c1.8-2.9,0.8-9.2-2.4-14.7c4.4,2.6,8.2,9.8,6.9,17
			c-0.8,4.4-2.9,8-6.4,10.7c-3,2.5-4,2.7-11.8,4.2c2.8,1.5,7,1,13.7-1.7c-0.4,2.5-6.3,5.8-11.3,6.3c-5.4,0.5-10-1.1-13.9-4.9
			C224.7,326.3,223,321.7,222.7,316.5 M247.1,315.8c0.6-5-2.8-9.5-7.7-10.1c-4.9-0.6-9.5,2.9-10.2,7.9c-0.6,4.8,2.9,9.4,7.6,10
			C242.2,324.3,246.5,321,247.1,315.8"/>
	</g>
	<g class="st0">
		<defs>
			<polygon id="SVGID_25_" points="48.6,11.9 539.6,11.9 548.4,334 48.6,334 			"/>
		</defs>
		<clipPath id="SVGID_26_">
			<use xlink:href="#SVGID_25_"  style="overflow:visible;"/>
		</clipPath>
		<path class="st12" d="M244.2,315.5c-0.4,3.3-3.5,5.6-6.9,5.2c-3.1-0.4-5.4-3.5-5-6.9c0.3-3,3.7-5.5,6.8-5.1
			C242.2,309.1,244.6,312.2,244.2,315.5 M241.3,315.2c0.3-1.7-0.9-3.4-2.6-3.6c-1.7-0.2-3.3,1-3.5,2.5c-0.2,1.7,1,3.4,2.6,3.6
			C239.4,318,241,316.8,241.3,315.2"/>
	</g>
	<g class="st0">
		<defs>
			<polygon id="SVGID_27_" points="48.6,11.9 539.6,11.9 548.4,334 48.6,334 			"/>
		</defs>
		<clipPath id="SVGID_28_">
			<use xlink:href="#SVGID_27_"  style="overflow:visible;"/>
		</clipPath>
		<path class="st13" d="M296,326.4c-1.9,0-3.3-1.5-3.3-3.3v-16.7c0-1.9,1.5-3.3,3.3-3.3c1.9,0,3.3,1.5,3.3,3.3v16.7
			C299.3,324.9,297.8,326.4,296,326.4"/>
	</g>
	<g class="st0">
		<defs>
			<polygon id="SVGID_29_" points="48.6,11.9 539.6,11.9 548.4,334 48.6,334 			"/>
		</defs>
		<clipPath id="SVGID_30_">
			<use xlink:href="#SVGID_29_"  style="overflow:visible;"/>
		</clipPath>
		<path class="st14" d="M304.3,318.1h-16.7c-1.9,0-3.3-1.5-3.3-3.3c0-1.9,1.5-3.3,3.3-3.3h16.7c1.9,0,3.3,1.5,3.3,3.3
			C307.7,316.6,306.2,318.1,304.3,318.1"/>
	</g>
	<g class="st0">
		<defs>
			<polygon id="SVGID_31_" points="48.6,11.9 539.6,11.9 548.4,334 48.6,334 			"/>
		</defs>
		<clipPath id="SVGID_32_">
			<use xlink:href="#SVGID_31_"  style="overflow:visible;"/>
		</clipPath>
		<path class="st15" d="M359.1,332.2c-1.3,0-2.3-0.4-3.1-3.5c0-0.2-0.1-0.3-0.2-0.3c0,0-0.2,0.1-0.3,0.2c-2.1,2.3-5.1,3.8-8.6,3.8
			c-7.5,0-13.3-5.5-13.3-13.7c0-8,5.8-13.7,13.3-13.7c3.1,0,5.6,1.1,7.7,3c0.1,0,0.2,0,0.2,0c0.1,0,0.2,0,0.2-0.2
			c0-6.4-0.1-11.9-0.2-14.2c-0.1-1.7,1.2-2.9,2.8-2.9c1.4,0,2.9,0.9,2.9,2.9v0.3c-0.1,1.9-0.2,5.7-0.2,10.3
			c0,20.3,0.1,20.5,1.6,23.5c0.3,0.5,0.4,1,0.4,1.5C362.3,331,360.7,332.2,359.1,332.2 M354.9,318.8c0-5.4-3.5-8.8-7.9-8.8
			s-7.9,3.3-7.9,8.8c0,5.4,3.5,8.6,7.9,8.6S354.9,324.1,354.9,318.8"/>
	</g>
	<g class="st0">
		<defs>
			<polygon id="SVGID_33_" points="48.6,11.9 539.6,11.9 548.4,334 48.6,334 			"/>
		</defs>
		<clipPath id="SVGID_34_">
			<use xlink:href="#SVGID_33_"  style="overflow:visible;"/>
		</clipPath>
		<path class="st16" d="M346.9,333.8c-8.4,0-14.5-6.3-14.5-15c0-8.5,6.3-15,14.5-15c2.4,0,4.8,0.7,6.8,2c0-5.5-0.1-10.1-0.2-12.1
			c0-1.1,0.4-2.1,1.1-2.9c2.1-2.2,7-1.3,7,2.9v0.3c-0.1,1.8-0.2,5.5-0.2,10.4c0,20.1,0.1,20.2,1.5,23c0.3,0.6,0.5,1.3,0.5,2.1
			c0,2.5-2.3,4.3-4.4,4.3c-1.8,0-3-0.9-3.8-2.9C352.9,332.7,350,333.8,346.9,333.8 M346.9,306.3c-7,0-12,5.2-12,12.5
			c0,7.4,5,12.5,12,12.5c3.8,0,6.3-1.9,7.7-3.4c0.3-0.3,0.6-0.6,1.2-0.6c0.3,0,1.1,0.1,1.4,1.3c0.6,2.5,1.2,2.5,1.9,2.5
			c0.9,0,1.9-0.7,1.9-1.8c0-0.3-0.1-0.6-0.2-0.9c-1.8-3.4-1.8-3.9-1.8-24.1c0-4.9,0.1-8.6,0.2-10.4v-0.2c0-1.5-1.3-1.6-1.6-1.6
			c-0.5,0-0.9,0.2-1.2,0.5c-0.3,0.3-0.4,0.7-0.4,1.1c0,2.3,0.2,7.9,0.2,14.3c0,0.8-0.6,1.5-1.4,1.5h-0.5l-0.6-0.4
			C351.8,307.2,349.5,306.3,346.9,306.3 M347,328.7c-5.3,0-9.1-4.2-9.1-9.9c0-5.8,3.8-10,9.1-10c5.3,0,9.1,4.2,9.1,10
			C356.1,324.5,352.3,328.7,347,328.7 M347,311.3c-3.9,0-6.6,3.1-6.6,7.5s2.7,7.4,6.6,7.4c4,0,6.6-3,6.6-7.4
			C353.6,314.3,350.9,311.3,347,311.3"/>
	</g>
</g>
</svg>
