<?xml version="1.0" encoding="utf-8"?>
<!-- Generator: Adobe Illustrator 25.0.1, SVG Export Plug-In . SVG Version: 6.00 Build 0)  -->
<svg version="1.1" id="レイヤー_1" xmlns="http://www.w3.org/2000/svg" xmlns:xlink="http://www.w3.org/1999/xlink" x="0px"
	 y="0px" viewBox="0 0 595.3 595.3" style="enable-background:new 0 0 595.3 595.3;" xml:space="preserve">
<style type="text/css">
	.st0{opacity:0.2;enable-background:new    ;}
	.st1{fill:#262626;}
	.st2{opacity:0.5;enable-background:new    ;}
	.st3{fill:#FBD7C7;}
	.st4{fill:#656565;}
	.st5{opacity:0.3;enable-background:new    ;}
	.st6{opacity:0.15;enable-background:new    ;}
	.st7{fill:#FFFFFF;}
	.st8{fill:#CC291F;}
	.st9{fill:#762C07;}
</style>
<path class="st0" d="M190.9,555.2c27.2,14.8,108-33.7,141.9-53.6c33.7-19.7,122.5-78.4,95.1-95.1c-27.4-16.7-93.9,30.6-130.3,52.4
	C261.3,480.7,152.3,534.4,190.9,555.2z"/>
<path class="st1" d="M380.9,412.6c-2.2,5.8-11.4,29.6-12.1,33.7c-0.7,3.9-1.5,12.9,8.2,12.4c9.7-0.2,23.8-13.1,26.9-23.3
	c3.2-10.4,6.8-22.1,6.8-22.1h2.4c0,0,5.3-10.7,4.6-16c-0.7-5.6-7.8-9.5-8.5-10.2C408.5,386.1,380.9,412.6,380.9,412.6L380.9,412.6z"
	/>
<path class="st2" d="M414.1,390.7c-0.5,5.1-1.2,7.5-2.9,13.6c-1.9,7.5-8,31.8-15,40c-7,8.2-19.2,15.5-26.9,9.5
	c-0.2-0.2-0.5-0.2-0.7-0.5c0.7,2.9,3.2,5.3,8.2,5.1c9.7-0.2,23.8-13.1,26.9-23.3c3.2-10.4,6.8-22.1,6.8-22.1h2.4
	c0,0,5.3-10.7,4.6-16C417.5,394.6,415.8,392.4,414.1,390.7L414.1,390.7z"/>
<path class="st3" d="M236.5,223.3h-3.2c0,0-3.6-3.6-13.8-4.9c-10.2-1.2-21.6,1-24.7,4.4c-3.4,3.2-1.5,12.1-0.7,14.1
	c0.7,1.7,2.4,5.3,7,4.6c4.6-0.5,16.5-1,21.8,0.5c5.3,1.7,8.2,1.5,12.4,0.2c4.1-1.2,7.8-3.2,7.8-3.2s-0.7-5.8-2.7-9.2
	C238.4,226.5,236.5,223.3,236.5,223.3z"/>
<path class="st1" d="M211.5,508.6c0,0-7,7.3-11.2,8.7c-4.1,1.5-16.5,0.5-19.4,2.2c-2.9,1.7-4.6,4.9-4.6,4.9s-2.7,1.2-2.2,2.7
	c1.2,3.4,9.5,7,20.4,9c10.7,2.2,20.1,2.2,20.1,2.2l0.7,3.2c0,0,25.2,5.3,27.2,4.1c1.9-1.2,1-7,1-7l-1-0.7c0,0,2.4-3.4,3.4-6.6
	c1-3.4,1-5.8,1-5.8L211.5,508.6z"/>
<path class="st2" d="M190.9,531c-6.1-1.5-12.1-4.9-14.8-6.6c-0.7,0.2-2.4,1.5-1.9,2.7c1.2,3.4,9.5,7,20.4,9
	c10.7,2.2,20.1,2.2,20.1,2.2l0.7,3.2c0,0,25.2,5.3,27.2,4.1c1.9-1.2,1-7,1-7l-1-0.7c-2.7-0.2-18.9-3.2-23.3-3.2
	S198.7,532.9,190.9,531z"/>
<path class="st4" d="M260.8,269.2c0,0-7,14.8-11.4,38.1c-4.4,23-15,70.1-18.2,96.3c-3.2,26-5.6,69.9-10.4,81.8
	c-4.9,11.6-12.9,26.2-14.3,26.9c-1.5,0.7,8.7,1.2,15,7.8s23,15.3,23,15.3s8.2-18.4,13.1-36.2c4.9-17.7,20.4-87.1,27.7-116.2
	c7.3-29.1,10.7-45.6,21.8-65.3c11.2-19.7,15.3-47.1,15.3-47.1L260.8,269.2z"/>
<path class="st5" d="M260.8,269.2c0,0-7,14.8-11.4,38.1c-4.4,23-15,70.1-18.2,96.3c-3.2,26-5.6,69.9-10.4,81.8
	c-4.9,11.6-12.9,26.2-14.3,26.9c-1.5,0.7,8.7,1.2,15,7.8s23,15.3,23,15.3s8.2-18.4,13.1-36.2c4.9-17.7,20.4-87.1,27.7-116.2
	c7.3-29.1,10.7-45.6,21.8-65.3c11.2-19.7,15.3-47.1,15.3-47.1L260.8,269.2z"/>
<path class="st4" d="M283.1,272.8c0.5,5.8,13.3,34.7,20.1,43.4c8,9.7,14.3,21.4,21.1,33.2c6.8,11.9,8.7,16.7,19.7,24.7
	c10.9,8,25.5,20.1,29.1,27.9c3.6,7.8,5.1,16,10.7,17.5c5.6,1.5,25-8.7,29.6-18.2c4.6-9.5,2.7-9.7-0.7-15.5
	c-3.4-6.1-11.2-23.8-22.3-35.2c-8-8-13.3-12.4-16.7-24.5c-3.4-11.9-1.5-28.1-6.8-35.9c-5.1-7.8-17.5-29.1-17.5-29.1L283.1,272.8z"/>
<path class="st6" d="M283.1,272.8c0.5,5.8,13.3,34.7,20.1,43.4c8,9.7,14.3,21.4,21.1,33.2c6.8,11.9,8.7,16.7,19.7,24.7
	c10.9,8,25.5,20.1,29.1,27.9c3.6,7.8,5.1,16,10.7,17.5c5.6,1.5,25-8.7,29.6-18.2c4.6-9.5,2.7-9.7-0.7-15.5
	c-3.4-6.1-11.2-23.8-22.3-35.2c-8-8-13.3-12.4-16.7-24.5c-3.4-11.9-1.5-28.1-6.8-35.9c-5.1-7.8-17.5-29.1-17.5-29.1L283.1,272.8z"/>
<path class="st7" d="M266.6,107.6c5.8,0.5,28.1-2.2,34,0.7c6.3,2.9,4.6,12.6,4.6,12.6s-33.2,32.8-34.9,54.6c-1.7,21.8,1,68.7,1,68.7
	s-19.4-37.1-18.7-62.4C253.7,139.1,266.6,107.6,266.6,107.6z"/>
<path class="st4" d="M274.4,113.6c-6.8,8-18.4,24.3-19.2,58.7c-0.7,34.5,14.1,57,18,63.6c3.9,6.6,11.2,63.6,10.7,68.2
	c-0.5,4.6-30.8-2.9-32.8-8c-2.2-5.1,4.6-23.5,4.9-51.4s-8.2-82-5.8-100.4c2.7-18.4-0.7-26.4,6.6-37.4S274.4,113.6,274.4,113.6
	L274.4,113.6z"/>
<path class="st6" d="M274.4,113.6c-6.8,8-18.4,24.3-19.2,58.7c-0.7,34.5,14.1,57,18,63.6c3.9,6.6,11.2,63.6,10.7,68.2
	c-0.5,4.6-30.8-2.9-32.8-8c-2.2-5.1,4.6-23.5,4.9-51.4s-8.2-82-5.8-100.4c2.7-18.4-0.7-26.4,6.6-37.4S274.4,113.6,274.4,113.6
	L274.4,113.6z"/>
<path class="st4" d="M300.8,108.3c0,0,4.6,5.6-3.9,14.3s-22.3,17.2-28.4,44.9c-6.1,27.7-0.5,61.4,3.2,73.3
	c3.6,11.9,14.8,56.5,17.5,63.3c2.7,6.8,9.5,14.6,25.5,13.6s52.9-14.8,56.5-23s-2.2-14.8-6.3-21.6c-4.1-6.8-18.7-50-19.2-55.8
	c-0.5-6.1,1.5-16.3,1.5-22.3c0-7-1-20.1-1.2-28.9c-0.2-8.7-0.7-18.9-7.8-28.1c-7-9.2-23-22.1-27.9-25.2
	C305.4,109.5,300.8,108.3,300.8,108.3z"/>
<path class="st0" d="M260,142.8l7-6.8l2.7,1.2l2.4,10.7l4.4-3.4l-5.1,6.3l-2.4-12.4l-1.5-0.7l-8.2,7.5L260,142.8z"/>
<path class="st0" d="M270.5,212.4c-0.5-6.8-1.9-22.3,2.7-36.9c5.3-17,12.1-22.6,12.1-22.6l-0.2-6.1l11.9-5.3c0,0,1.2-8.2,5.1-13.3
	c4.4-5.8,9-11.2,9-11.2s-3.9,5.6-8,12.1c-2.9,4.6-3.4,14.1-3.4,14.1l-13.3,4.4l2.4,6.1c0,0-11.2,9.9-15.8,29.1
	C269.7,196.6,270.5,212.4,270.5,212.4z"/>
<path class="st8" d="M265.4,145.4l0.2-8l1.7-1.2l2.4,0.2l1.7,7.8l-1.7,2.4c0,0-3.9,20.9-4.1,33.7s3.4,44.2,3.4,44.2l-2.7-0.2
	c0,0-12.4-25-9.9-44.9C258.8,159.5,265.4,145.4,265.4,145.4z"/>
<path class="st3" d="M262.7,60c-9.5,6.8-9.9,25.7-9.7,38.3c0.2,12.6,1.7,23,3.6,24s5.8,1.5,5.8,1.5s3.2,7.5,3.4,12.1
	c0.2,2.9,19.2-4.9,26.9-12.6s8-11.2,8-11.2s10.7-19.7,9-34.9S289.2,40.9,262.7,60z"/>
<path class="st9" d="M254.7,67.5c-1.5,2.7,3.9,2.2,11.2,13.3c7.5,11.4,16.5,6.3,18.9,6.3c0.7,6.1,5.8,5.1,10.7,10.7
	c0,0,1.7-6.3,5.1-6.3C304,91.3,303,102,303,102s0.5,4.4,2.9,4.9s11.6-21.8,6.8-36.6C305.7,47.4,271.7,39.2,254.7,67.5z"/>
<path class="st7" d="M233.8,221.4l51.4-12.4l19.9,26.9c0,0-58.2,9.2-62.6,9.5c-4.4,0.2-8-3.2-9.5-8.2
	C231.7,232.5,230,222.1,233.8,221.4z"/>
<path class="st4" d="M236.5,219.2l61.6-14.8l24,32.3c0,0-69.6,11.2-75.2,11.4c-5.6,0.2-9.7-3.6-11.4-9.9
	C233.8,232.5,231.9,220.2,236.5,219.2z"/>
</svg>
