<svg id="レイヤー_1" data-name="レイヤー 1" xmlns="http://www.w3.org/2000/svg" viewBox="0 0 1164.07 214.32"><defs><style>.cls-1{fill:#2c303c;}.cls-2{fill:#231815;}</style></defs><path class="cls-1" d="M38.38,33.64h7.75L62,61.77l5,10.16h.33c-.39-5-1-10.75-1-16V33.64h7.16V81.57H65.8L49.91,53.31l-5-10h-.32c.39,4.95,1,10.48,1,15.69v22.6H38.38Z"/><path class="cls-1" d="M83,63.72c0-12,8-18.88,16.86-18.88s16.87,6.9,16.87,18.88-8,18.69-16.87,18.69S83,75.58,83,63.72Zm26,0C109,56.11,105.52,51,99.85,51s-9.11,5.08-9.11,12.69,3.51,12.57,9.11,12.57S109,71.28,109,63.72Z"/><path class="cls-1" d="M126.68,69.84V51.74h-5.21v-5.6l5.54-.39.84-9.89h6.32v9.89h9.31v6h-9.31V69.91c0,4.3,1.5,6.51,5.21,6.51a10.76,10.76,0,0,0,3.84-.84l1.37,5.53a23,23,0,0,1-7,1.3C129.48,82.41,126.68,77.4,126.68,69.84Z"/><path class="cls-1" d="M148.76,63.72c0-12,8-18.88,16.86-18.88s16.87,6.9,16.87,18.88-8,18.69-16.87,18.69S148.76,75.58,148.76,63.72Zm26,0c0-7.61-3.51-12.69-9.18-12.69s-9.12,5.08-9.12,12.69,3.52,12.57,9.12,12.57S174.8,71.28,174.8,63.72Z"/><path class="cls-1" d="M203.19,75.38l4.43-5.21a18.59,18.59,0,0,0,12.76,5.67c5.8,0,9.06-2.74,9.06-6.78,0-4.36-3.26-5.73-7.69-7.68l-6.64-2.87c-4.62-1.95-9.77-5.59-9.77-12.56,0-7.56,6.65-13.22,15.76-13.22a20.48,20.48,0,0,1,14.52,6.06l-4,4.81a15.27,15.27,0,0,0-10.55-4.29c-4.88,0-8.07,2.34-8.07,6.18,0,4.1,3.84,5.67,7.75,7.23l6.57,2.8c5.67,2.41,9.77,5.93,9.77,13,0,7.68-6.38,13.93-16.87,13.93A23.92,23.92,0,0,1,203.19,75.38Z"/><path class="cls-1" d="M243.44,72.06c0-7.68,6.51-11.66,21.42-13.28C264.79,54.61,263.3,51,258,51c-3.77,0-7.29,1.69-10.35,3.65l-2.8-5.08c3.71-2.35,8.72-4.69,14.45-4.69,8.92,0,13,5.67,13,15.17V81.57h-6.12l-.65-4.11h-.2c-3.26,2.8-7.1,5-11.4,5C247.8,82.41,243.44,78.38,243.44,72.06Zm21.42.26V63.53c-10.61,1.3-14.2,4-14.2,8,0,3.51,2.41,4.95,5.6,4.95S261.93,75,264.86,72.32Z"/><path class="cls-1" d="M283,45.75h6.12l.59,5h.19c3.33-3.19,7-5.86,11.86-5.86,7.61,0,11,5.08,11,14.2V81.57h-7.49V60c0-6.19-1.82-8.66-6.05-8.66-3.32,0-5.6,1.69-8.79,4.88v25.4H283Z"/><path class="cls-1" d="M319.82,77.46l3.52-4.81c3.19,2.53,6.31,4.1,10.15,4.1,4.3,0,6.32-2.09,6.32-4.82,0-3.26-4-4.69-7.94-6.19-4.76-1.82-10.23-4.36-10.23-10.42s4.82-10.48,12.7-10.48A18.85,18.85,0,0,1,346,49.07l-3.52,4.63c-2.48-1.83-5-3.13-8-3.13-3.91,0-5.73,2-5.73,4.43,0,3.06,3.71,4.23,7.62,5.66,5,1.89,10.55,4.11,10.55,10.88,0,6-4.76,10.87-13.61,10.87A22,22,0,0,1,319.82,77.46Z"/><path class="cls-1" d="M367.55,57.73c0-15.62,9.51-25,21.62-25a18.44,18.44,0,0,1,13.61,6.06l-4.11,4.81a12.71,12.71,0,0,0-9.37-4.29c-8.27,0-14,6.9-14,18.16s5.34,18.37,13.8,18.37c4.37,0,7.75-2,10.62-5.08l4,4.75a18.9,18.9,0,0,1-14.91,6.9C376.8,82.41,367.55,73.43,367.55,57.73Z"/><path class="cls-1" d="M407.86,74.47l5.27-3.84c2,3.71,4.62,5.21,7.75,5.21,4.82,0,7.23-2.61,7.23-9.64V33.64h7.55V66.91c0,8.6-4.17,15.5-13.93,15.5C415.28,82.41,410.85,79.74,407.86,74.47Z"/><path class="cls-1" d="M448,33.64h7.56V56.3h.19L474,33.64h8.4L467.57,52.13l17.32,29.44h-8.4L463,58.12l-7.36,9V81.57H448Z"/><path class="cls-1" d="M501.5,74.47l5.27-3.84c2,3.71,4.62,5.21,7.75,5.21,4.82,0,7.23-2.61,7.23-9.64V33.64h7.55V66.91c0,8.6-4.17,15.5-13.93,15.5C508.92,82.41,504.49,79.74,501.5,74.47Z"/><path class="cls-1" d="M541.67,33.64h14.52c10.68,0,18.3,3.65,18.3,14.46,0,10.48-7.62,15.3-18,15.3h-7.22V81.57h-7.56Zm14.07,23.7c7.68,0,11.33-2.93,11.33-9.24s-4-8.4-11.59-8.4h-6.25V57.34Z"/><path class="cls-2" d="M38.38,33.64h7.75L62,61.77l5,10.16h.33c-.39-5-1-10.75-1-16V33.64h7.16V81.57H65.8L49.91,53.31l-5-10h-.32c.39,4.95,1,10.48,1,15.69v22.6H38.38Z"/><path class="cls-2" d="M83,63.72c0-12,8-18.88,16.86-18.88s16.87,6.9,16.87,18.88-8,18.69-16.87,18.69S83,75.58,83,63.72Zm26,0C109,56.11,105.52,51,99.85,51s-9.11,5.08-9.11,12.69,3.51,12.57,9.11,12.57S109,71.28,109,63.72Z"/><path class="cls-2" d="M126.68,69.84V51.74h-5.21v-5.6l5.54-.39.84-9.89h6.32v9.89h9.31v6h-9.31V69.91c0,4.3,1.5,6.51,5.21,6.51a10.76,10.76,0,0,0,3.84-.84l1.37,5.53a23,23,0,0,1-7,1.3C129.48,82.41,126.68,77.4,126.68,69.84Z"/><path class="cls-2" d="M148.76,63.72c0-12,8-18.88,16.86-18.88s16.87,6.9,16.87,18.88-8,18.69-16.87,18.69S148.76,75.58,148.76,63.72Zm26,0c0-7.61-3.51-12.69-9.18-12.69s-9.12,5.08-9.12,12.69,3.52,12.57,9.12,12.57S174.8,71.28,174.8,63.72Z"/><path class="cls-2" d="M203.19,75.38l4.43-5.21a18.59,18.59,0,0,0,12.76,5.67c5.8,0,9.06-2.74,9.06-6.78,0-4.36-3.26-5.73-7.69-7.68l-6.64-2.87c-4.62-1.95-9.77-5.59-9.77-12.56,0-7.56,6.65-13.22,15.76-13.22a20.48,20.48,0,0,1,14.52,6.06l-4,4.81a15.27,15.27,0,0,0-10.55-4.29c-4.88,0-8.07,2.34-8.07,6.18,0,4.1,3.84,5.67,7.75,7.23l6.57,2.8c5.67,2.41,9.77,5.93,9.77,13,0,7.68-6.38,13.93-16.87,13.93A23.92,23.92,0,0,1,203.19,75.38Z"/><path class="cls-2" d="M243.44,72.06c0-7.68,6.51-11.66,21.42-13.28C264.79,54.61,263.3,51,258,51c-3.77,0-7.29,1.69-10.35,3.65l-2.8-5.08c3.71-2.35,8.72-4.69,14.45-4.69,8.92,0,13,5.67,13,15.17V81.57h-6.12l-.65-4.11h-.2c-3.26,2.8-7.1,5-11.4,5C247.8,82.41,243.44,78.38,243.44,72.06Zm21.42.26V63.53c-10.61,1.3-14.2,4-14.2,8,0,3.51,2.41,4.95,5.6,4.95S261.93,75,264.86,72.32Z"/><path class="cls-2" d="M283,45.75h6.12l.59,5h.19c3.33-3.19,7-5.86,11.86-5.86,7.61,0,11,5.08,11,14.2V81.57h-7.49V60c0-6.19-1.82-8.66-6.05-8.66-3.32,0-5.6,1.69-8.79,4.88v25.4H283Z"/><path class="cls-2" d="M319.82,77.46l3.52-4.81c3.19,2.53,6.31,4.1,10.15,4.1,4.3,0,6.32-2.09,6.32-4.82,0-3.26-4-4.69-7.94-6.19-4.76-1.82-10.23-4.36-10.23-10.42s4.82-10.48,12.7-10.48A18.85,18.85,0,0,1,346,49.07l-3.52,4.63c-2.48-1.83-5-3.13-8-3.13-3.91,0-5.73,2-5.73,4.43,0,3.06,3.71,4.23,7.62,5.66,5,1.89,10.55,4.11,10.55,10.88,0,6-4.76,10.87-13.61,10.87A22,22,0,0,1,319.82,77.46Z"/><path class="cls-2" d="M367.55,57.73c0-15.62,9.51-25,21.62-25a18.44,18.44,0,0,1,13.61,6.06l-4.11,4.81a12.71,12.71,0,0,0-9.37-4.29c-8.27,0-14,6.9-14,18.16s5.34,18.37,13.8,18.37c4.37,0,7.75-2,10.62-5.08l4,4.75a18.9,18.9,0,0,1-14.91,6.9C376.8,82.41,367.55,73.43,367.55,57.73Z"/><path class="cls-2" d="M407.86,74.47l5.27-3.84c2,3.71,4.62,5.21,7.75,5.21,4.82,0,7.23-2.61,7.23-9.64V33.64h7.55V66.91c0,8.6-4.17,15.5-13.93,15.5C415.28,82.41,410.85,79.74,407.86,74.47Z"/><path class="cls-2" d="M448,33.64h7.56V56.3h.19L474,33.64h8.4L467.57,52.13l17.32,29.44h-8.4L463,58.12l-7.36,9V81.57H448Z"/><path class="cls-2" d="M501.5,74.47l5.27-3.84c2,3.71,4.62,5.21,7.75,5.21,4.82,0,7.23-2.61,7.23-9.64V33.64h7.55V66.91c0,8.6-4.17,15.5-13.93,15.5C508.92,82.41,504.49,79.74,501.5,74.47Z"/><path class="cls-2" d="M541.67,33.64h14.52c10.68,0,18.3,3.65,18.3,14.46,0,10.48-7.62,15.3-18,15.3h-7.22V81.57h-7.56Zm14.07,23.7c7.68,0,11.33-2.93,11.33-9.24s-4-8.4-11.59-8.4h-6.25V57.34Z"/><path class="cls-1" d="M79.26,159.6q0,11.35-5.68,17.65t-16.07,6.29q-10.53,0-16.17-6.25T35.7,159.54q0-11.52,5.67-17.68t16.2-6.17q10.37,0,16,6.26T79.26,159.6Zm-35.49,0q0,8.58,3.47,13t10.27,4.44q6.77,0,10.22-4.39t3.45-13.07q0-8.55-3.42-13t-10.19-4.42c-4.56,0-8,1.47-10.32,4.42S43.77,153.9,43.77,159.6Z"/><path class="cls-1" d="M106.28,183.54a12.31,12.31,0,0,1-10.36-4.8h-.45c.3,3,.45,4.77.45,5.41v14.4H88.45V147.74h6q.26,1,1.05,4.71h.38q3.49-5.35,10.49-5.35a12.21,12.21,0,0,1,10.26,4.77q3.66,4.77,3.67,13.39t-3.74,13.45A12.32,12.32,0,0,1,106.28,183.54Zm-1.81-30.33c-3,0-5.13.87-6.5,2.61s-2,4.51-2,8.33v1.11q0,6.42,2,9.3c1.36,1.92,3.57,2.88,6.65,2.88a6.76,6.76,0,0,0,6-3.18c1.4-2.12,2.09-5.14,2.09-9.06s-.69-6.93-2.08-8.95A6.94,6.94,0,0,0,104.47,153.21Z"/><path class="cls-1" d="M144.38,183.54q-8.2,0-12.83-4.78t-4.63-13.18q0-8.62,4.29-13.55T143,147.1q7,0,11,4.23t4,11.64v4H134.61c.11,3.41,1,6,2.77,7.87a9.65,9.65,0,0,0,7.34,2.75,27.29,27.29,0,0,0,5.81-.59,29.82,29.82,0,0,0,5.77-2v6.08a22.89,22.89,0,0,1-5.53,1.84A34,34,0,0,1,144.38,183.54ZM143,152.76A7.52,7.52,0,0,0,137.3,155a10.8,10.8,0,0,0-2.56,6.58h16q-.06-4.35-2.1-6.59A7.15,7.15,0,0,0,143,152.76Z"/><path class="cls-1" d="M197.47,182.91H190V161.29c0-2.72-.55-4.74-1.64-6.08s-2.82-2-5.2-2q-4.73,0-6.93,2.8T174,165.39v17.52h-7.47V147.74h5.85l1.05,4.61h.38a10.41,10.41,0,0,1,4.51-3.88,15.18,15.18,0,0,1,6.49-1.37q12.66,0,12.65,12.88Z"/><path class="cls-1" d="M252.39,170.28A11.69,11.69,0,0,1,247.9,180q-4.49,3.54-12.37,3.53t-12.91-2.45v-7.18a34.82,34.82,0,0,0,6.76,2.35,28.85,28.85,0,0,0,6.66.86q4.52,0,6.66-1.72a5.6,5.6,0,0,0,2.15-4.61,5.79,5.79,0,0,0-2-4.42q-2-1.81-8.14-4.29-6.36-2.58-9-5.88a12.45,12.45,0,0,1-2.6-7.95,11.13,11.13,0,0,1,4.13-9.16q4.13-3.33,11.1-3.34a32.62,32.62,0,0,1,13.29,2.93l-2.42,6.2a29,29,0,0,0-11.07-2.61,8.49,8.49,0,0,0-5.59,1.61,5.27,5.27,0,0,0-1.91,4.24,6.06,6.06,0,0,0,.76,3.1,7.75,7.75,0,0,0,2.52,2.43,41.38,41.38,0,0,0,6.29,3,35,35,0,0,1,7.51,4,11.7,11.7,0,0,1,3.49,4.16A12.6,12.6,0,0,1,252.39,170.28Z"/><path class="cls-1" d="M282.59,182.91,281.1,178h-.26a14.3,14.3,0,0,1-5.12,4.37,16.05,16.05,0,0,1-6.61,1.16q-5.17,0-8.09-2.8t-2.91-7.91a9.31,9.31,0,0,1,4-8.21q4-2.76,12.3-3l6.08-.19v-1.87a7.1,7.1,0,0,0-1.58-5c-1.05-1.12-2.67-1.67-4.88-1.67a16.85,16.85,0,0,0-5.18.79,38.45,38.45,0,0,0-4.77,1.88l-2.42-5.34a25.94,25.94,0,0,1,6.27-2.28,28.67,28.67,0,0,1,6.42-.78q6.71,0,10.13,2.93t3.41,9.19v23.69Zm-11.13-5.09a9.3,9.3,0,0,0,6.54-2.27,8.26,8.26,0,0,0,2.46-6.38v-3l-4.51.19c-3.52.13-6.08.71-7.68,1.76a5.37,5.37,0,0,0-2.4,4.82,4.67,4.67,0,0,0,1.4,3.64A6,6,0,0,0,271.46,177.82Z"/><path class="cls-1" d="M329.3,182.91h-7.5V161.29c0-2.72-.55-4.74-1.64-6.08s-2.83-2-5.2-2q-4.74,0-6.93,2.8c-1.46,1.86-2.2,5-2.2,9.38v17.52h-7.47V147.74h5.85l1.05,4.61h.38a10.44,10.44,0,0,1,4.52-3.88,15.15,15.15,0,0,1,6.49-1.37q12.64,0,12.65,12.88Z"/><path class="cls-1" d="M363.32,172.89a9.2,9.2,0,0,1-3.75,7.9q-3.75,2.76-10.75,2.75t-11.28-2.13V175a27.66,27.66,0,0,0,11.54,2.86q6.9,0,6.9-4.17a3.28,3.28,0,0,0-.77-2.22,9,9,0,0,0-2.51-1.85,45.26,45.26,0,0,0-4.86-2.16q-6.07-2.35-8.22-4.7a8.73,8.73,0,0,1-2.15-6.11,8,8,0,0,1,3.64-7q3.64-2.49,9.91-2.5a28,28,0,0,1,11.73,2.52l-2.42,5.62a26.22,26.22,0,0,0-9.57-2.35c-3.94,0-5.91,1.13-5.91,3.37a3.39,3.39,0,0,0,1.54,2.8,34.34,34.34,0,0,0,6.73,3.15,30.63,30.63,0,0,1,6.32,3.08,9.19,9.19,0,0,1,2.93,3.23A9.42,9.42,0,0,1,363.32,172.89Z"/><path class="cls-2" d="M79.26,159.6q0,11.35-5.68,17.65t-16.07,6.29q-10.53,0-16.17-6.25T35.7,159.54q0-11.52,5.67-17.68t16.2-6.17q10.37,0,16,6.26T79.26,159.6Zm-35.49,0q0,8.58,3.47,13t10.27,4.44q6.77,0,10.22-4.39t3.45-13.07q0-8.55-3.42-13t-10.19-4.42c-4.56,0-8,1.47-10.32,4.42S43.77,153.9,43.77,159.6Z"/><path class="cls-2" d="M106.28,183.54a12.31,12.31,0,0,1-10.36-4.8h-.45c.3,3,.45,4.77.45,5.41v14.4H88.45V147.74h6q.26,1,1.05,4.71h.38q3.49-5.35,10.49-5.35a12.21,12.21,0,0,1,10.26,4.77q3.66,4.77,3.67,13.39t-3.74,13.45A12.32,12.32,0,0,1,106.28,183.54Zm-1.81-30.33c-3,0-5.13.87-6.5,2.61s-2,4.51-2,8.33v1.11q0,6.42,2,9.3c1.36,1.92,3.57,2.88,6.65,2.88a6.76,6.76,0,0,0,6-3.18c1.4-2.12,2.09-5.14,2.09-9.06s-.69-6.93-2.08-8.95A6.94,6.94,0,0,0,104.47,153.21Z"/><path class="cls-2" d="M144.38,183.54q-8.2,0-12.83-4.78t-4.63-13.18q0-8.62,4.29-13.55T143,147.1q7,0,11,4.23t4,11.64v4H134.61c.11,3.41,1,6,2.77,7.87a9.65,9.65,0,0,0,7.34,2.75,27.29,27.29,0,0,0,5.81-.59,29.82,29.82,0,0,0,5.77-2v6.08a22.89,22.89,0,0,1-5.53,1.84A34,34,0,0,1,144.38,183.54ZM143,152.76A7.52,7.52,0,0,0,137.3,155a10.8,10.8,0,0,0-2.56,6.58h16q-.06-4.35-2.1-6.59A7.15,7.15,0,0,0,143,152.76Z"/><path class="cls-2" d="M197.47,182.91H190V161.29c0-2.72-.55-4.74-1.64-6.08s-2.82-2-5.2-2q-4.73,0-6.93,2.8T174,165.39v17.52h-7.47V147.74h5.85l1.05,4.61h.38a10.41,10.41,0,0,1,4.51-3.88,15.18,15.18,0,0,1,6.49-1.37q12.66,0,12.65,12.88Z"/><path class="cls-2" d="M252.39,170.28A11.69,11.69,0,0,1,247.9,180q-4.49,3.54-12.37,3.53t-12.91-2.45v-7.18a34.82,34.82,0,0,0,6.76,2.35,28.85,28.85,0,0,0,6.66.86q4.52,0,6.66-1.72a5.6,5.6,0,0,0,2.15-4.61,5.79,5.79,0,0,0-2-4.42q-2-1.81-8.14-4.29-6.36-2.58-9-5.88a12.45,12.45,0,0,1-2.6-7.95,11.13,11.13,0,0,1,4.13-9.16q4.13-3.33,11.1-3.34a32.62,32.62,0,0,1,13.29,2.93l-2.42,6.2a29,29,0,0,0-11.07-2.61,8.49,8.49,0,0,0-5.59,1.61,5.27,5.27,0,0,0-1.91,4.24,6.06,6.06,0,0,0,.76,3.1,7.75,7.75,0,0,0,2.52,2.43,41.38,41.38,0,0,0,6.29,3,35,35,0,0,1,7.51,4,11.7,11.7,0,0,1,3.49,4.16A12.6,12.6,0,0,1,252.39,170.28Z"/><path class="cls-2" d="M282.59,182.91,281.1,178h-.26a14.3,14.3,0,0,1-5.12,4.37,16.05,16.05,0,0,1-6.61,1.16q-5.17,0-8.09-2.8t-2.91-7.91a9.31,9.31,0,0,1,4-8.21q4-2.76,12.3-3l6.08-.19v-1.87a7.1,7.1,0,0,0-1.58-5c-1.05-1.12-2.67-1.67-4.88-1.67a16.85,16.85,0,0,0-5.18.79,38.45,38.45,0,0,0-4.77,1.88l-2.42-5.34a25.94,25.94,0,0,1,6.27-2.28,28.67,28.67,0,0,1,6.42-.78q6.71,0,10.13,2.93t3.41,9.19v23.69Zm-11.13-5.09a9.3,9.3,0,0,0,6.54-2.27,8.26,8.26,0,0,0,2.46-6.38v-3l-4.51.19c-3.52.13-6.08.71-7.68,1.76a5.37,5.37,0,0,0-2.4,4.82,4.67,4.67,0,0,0,1.4,3.64A6,6,0,0,0,271.46,177.82Z"/><path class="cls-2" d="M329.3,182.91h-7.5V161.29c0-2.72-.55-4.74-1.64-6.08s-2.83-2-5.2-2q-4.74,0-6.93,2.8c-1.46,1.86-2.2,5-2.2,9.38v17.52h-7.47V147.74h5.85l1.05,4.61h.38a10.44,10.44,0,0,1,4.52-3.88,15.15,15.15,0,0,1,6.49-1.37q12.64,0,12.65,12.88Z"/><path class="cls-2" d="M363.32,172.89a9.2,9.2,0,0,1-3.75,7.9q-3.75,2.76-10.75,2.75t-11.28-2.13V175a27.66,27.66,0,0,0,11.54,2.86q6.9,0,6.9-4.17a3.28,3.28,0,0,0-.77-2.22,9,9,0,0,0-2.51-1.85,45.26,45.26,0,0,0-4.86-2.16q-6.07-2.35-8.22-4.7a8.73,8.73,0,0,1-2.15-6.11,8,8,0,0,1,3.64-7q3.64-2.49,9.91-2.5a28,28,0,0,1,11.73,2.52l-2.42,5.62a26.22,26.22,0,0,0-9.57-2.35c-3.94,0-5.91,1.13-5.91,3.37a3.39,3.39,0,0,0,1.54,2.8,34.34,34.34,0,0,0,6.73,3.15,30.63,30.63,0,0,1,6.32,3.08,9.19,9.19,0,0,1,2.93,3.23A9.42,9.42,0,0,1,363.32,172.89Z"/></svg>