<?xml version="1.0" encoding="utf-8"?>
<!-- Generator: Adobe Illustrator 24.2.3, SVG Export Plug-In . SVG Version: 6.00 Build 0)  -->
<svg version="1.1" id="レイヤー_1" xmlns="http://www.w3.org/2000/svg" xmlns:xlink="http://www.w3.org/1999/xlink" x="0px"
	 y="0px" viewBox="0 0 595.3 595.3" style="enable-background:new 0 0 595.3 595.3;" xml:space="preserve">
<style type="text/css">
	.st0{fill:#656561;}
</style>
<path class="st0" d="M442.6,276.4H229.3l88.8-73.5c10.6-8.8,12.1-24.6,3.3-35.2c-8.8-10.6-24.6-12.1-35.2-3.3l-138.9,115
	c-2.1,1.4-4,3-5.6,5c-3.9,4.7-5.8,10.4-5.7,16c0,5.7,1.9,11.4,5.7,16c1.6,2,3.5,3.6,5.6,5l138.9,115.1c4.7,3.9,10.3,5.8,15.9,5.8
	c7.2,0,14.3-3.1,19.3-9.1c8.8-10.6,7.3-26.4-3.3-35.2l-86.6-71.7h211.1c13.8,0,25-11.2,25-25C467.6,287.6,456.4,276.4,442.6,276.4z"
	/>
</svg>
