<?xml version="1.0" encoding="utf-8"?>
<!-- Generator: Adobe Illustrator 25.0.1, SVG Export Plug-In . SVG Version: 6.00 Build 0)  -->
<svg version="1.1" id="レイヤー_1" xmlns="http://www.w3.org/2000/svg" xmlns:xlink="http://www.w3.org/1999/xlink" x="0px"
	 y="0px" viewBox="0 0 595.28 595.28" style="enable-background:new 0 0 595.28 595.28;" xml:space="preserve">
<style type="text/css">
	.st0{fill:#656561;}
	.st1{fill:#FBFAF8;stroke:#656460;stroke-miterlimit:10;}
	.st2{fill:#74B16D;}
	.st3{fill:#F2D96B;}
</style>
<path class="st0" d="M442.58,276.4H229.25L318,202.9c10.63-8.81,12.12-24.57,3.31-35.2c-8.81-10.63-24.57-12.12-35.2-3.31
	L147.22,279.42c-2.07,1.35-3.98,3.02-5.63,5.02c-3.89,4.7-5.77,10.4-5.74,16.05c-0.03,5.66,1.85,11.35,5.74,16.05
	c1.64,1.98,3.53,3.64,5.58,4.98l138.95,115.07c4.67,3.86,10.31,5.75,15.93,5.75c7.19,0,14.32-3.09,19.27-9.06
	c8.81-10.63,7.33-26.39-3.31-35.2l-86.56-71.68h211.14c13.81,0,25-11.19,25-25C467.58,287.59,456.39,276.4,442.58,276.4z"/>
<rect x="-69.86" y="-297.36" class="st1" width="240.08" height="229.16"/>
<rect x="170.22" y="-297.36" class="st0" width="251.41" height="229.16"/>
<rect x="421.63" y="-297.36" class="st2" width="125.24" height="229.16"/>
<rect x="546.86" y="-297.36" class="st3" width="103.4" height="229.16"/>
</svg>
