<?xml version="1.0" encoding="utf-8"?>
<!-- Generator: Adobe Illustrator 24.2.3, SVG Export Plug-In . SVG Version: 6.00 Build 0)  -->
<svg version="1.1" id="レイヤー_1" xmlns="http://www.w3.org/2000/svg" xmlns:xlink="http://www.w3.org/1999/xlink" x="0px"
	 y="0px" viewBox="0 0 595.3 595.3" style="enable-background:new 0 0 595.3 595.3;" xml:space="preserve">
<style type="text/css">
	.st0{fill:#656561;}
	.st1{fill:#74B16D;}
</style>
<g>
	<path class="st0" d="M103.4,168.9H87.7v-32.4c0-9.4-3.5-14.2-10.3-14.2c-8.3,0-13.1,6.4-13.1,17.6v29H48.5v-28.4
		c0-12.9-3.1-18.1-10.7-18.1c-8.1,0-13,6.6-13,17.8v28.8H9v-61.2h15.7v8.9c5.2-5.2,11.8-8,19-8c7.9,0,14.3,3.7,18,10.3
		c5.2-6.2,10.7-10.3,20.6-10.3c6.8,0,13,2.6,16.6,6.9c4.2,5,4.5,11.9,4.5,19L103.4,168.9L103.4,168.9z"/>
	<path class="st0" d="M154.4,120.4h17.2v48.4h-17.2V120.4z"/>
	<path class="st0" d="M242.4,115.6c6.6-4.8,12.7-7.6,20.3-7.6c12.8,0,23.5,7.6,23.5,20.3v40.6H269v-28.1c0-11.7-1.2-19.2-11.6-19.2
		c-4.8,0-8.9,2-11.6,5.7c-3.5,4.8-3.4,10.2-3.4,16.3v25.3h-17.2V108h17.2L242.4,115.6L242.4,115.6z"/>
	<path class="st0" d="M459.3,91.1h17.2V111h14.9v14.3h-14.9v43.5h-17.2v-43.5h-13.4V111h13.4V91.1z"/>
	<circle class="st1" cx="198.2" cy="56.3" r="11"/>
	<path class="st0" d="M558,107.7c-16.9,0-30.6,13.7-30.6,30.6s13.7,30.6,30.6,30.6s30.6-13.7,30.6-30.6S574.9,107.7,558,107.7z
		 M558,153.8c-8.6,0-15.5-7-15.5-15.5s7-15.5,15.5-15.5c8.6,0,15.5,7,15.5,15.5S566.6,153.8,558,153.8z"/>
	<path class="st0" d="M407.4,159.7L378.7,99c-1-2.7-3.6-4.6-6.6-4.6c-2.9,0-5.4,1.8-6.5,4.3l-1.6,3.4l-26.9,57.5
		c-0.3,0.8-0.4,1.6-0.4,2.4c0,2,1.3,4,1.3,4c4.9,6.9,12.9,11.3,22,11.3c8.4,0,13.4-2.1,20.9-9.6c1.5-1.4,3.9-3,7.6-3
		c2.6,0,5,0.4,7,1.9c0,0,3.2,2.4,5.3,2.4c3.9,0,7-3.1,7-7C407.8,161.2,407.7,160.4,407.4,159.7z M371.2,158.1
		c-5.6,5.6-7.3,5.6-11.2,5.6c-3,0-5.9-1-8.3-2.9l20.4-43.6l16,33.8C381.7,151.1,375.7,153.6,371.2,158.1z"/>
</g>
</svg>
