<?xml version="1.0" encoding="utf-8"?>
<!-- Generator: Adobe Illustrator 25.0.1, SVG Export Plug-In . SVG Version: 6.00 Build 0)  -->
<svg version="1.1" id="レイヤー_1" xmlns="http://www.w3.org/2000/svg" xmlns:xlink="http://www.w3.org/1999/xlink" x="0px"
	 y="0px" viewBox="0 0 595.3 595.3" style="enable-background:new 0 0 595.3 595.3;" xml:space="preserve">
<style type="text/css">
	.st0{fill:#898989;stroke:#898989;stroke-miterlimit:10;}
	.st1{fill:#595757;}
	.st2{fill:#898989;stroke:#898989;stroke-width:2;stroke-miterlimit:10;}
	.st3{fill:#898989;}
	.st4{fill:#FFFFFF;}
</style>
<path class="st0" d="M68,426.1c-11.1,0-20.8,8.8-20.8,19.8v30.2h10.7v-13.8c2.9,1.7,6.4,2.9,10.1,2.9c10.7,0,19.5-8.8,19.5-19.5
	S78.7,426.1,68,426.1"/>
<g>
	<path class="st1" d="M165.7,183.8H154v-24.2c0-7-2.6-10.6-7.7-10.6c-6.2,0-9.8,4.8-9.8,13.1v21.7h-11.8v-21.1
		c0-9.6-2.3-13.5-8-13.5c-6.1,0-9.7,4.9-9.7,13.3v21.5H95.2v-45.7h11.7v6.7c3.9-3.9,8.8-6,14.2-6c5.9,0,10.7,2.8,13.4,7.7
		c3.9-4.6,8-7.7,15.3-7.7c5,0,9.7,1.9,12.4,5.1c3.1,3.7,3.4,8.8,3.4,14.2V183.8L165.7,183.8z"/>
	<path class="st1" d="M203.7,147.6h12.8v36.1h-12.8V147.6L203.7,147.6z"/>
	<path class="st1" d="M269.3,144.1c4.9-3.6,9.4-5.6,15.2-5.6c9.5,0,17.6,5.6,17.6,15.2v30.2h-12.8v-21c0-8.8-0.9-14.4-8.7-14.4
		c-3.6,0-6.7,1.5-8.7,4.2c-2.6,3.6-2.5,7.6-2.5,12.2v18.9h-12.8v-45.5h12.8L269.3,144.1L269.3,144.1z"/>
	<path class="st1" d="M431.2,125.8h12.8v14.8h11.1v10.7h-11.1v32.5h-12.8v-32.5h-10.1v-10.7h10.1V125.8z"/>
	<circle class="st1" cx="236.4" cy="99.8" r="8.2"/>
	<path class="st1" d="M505,138.1c-12.6,0-22.8,10.2-22.8,22.8s10.2,22.8,22.8,22.8s22.8-10.2,22.8-22.8S517.6,138.1,505,138.1z
		 M505,172.5c-6.4,0-11.6-5.2-11.6-11.6s5.2-11.6,11.6-11.6s11.6,5.2,11.6,11.6C516.5,167.3,511.3,172.5,505,172.5z"/>
	<path class="st1" d="M392.6,177l-21.4-45.3c-0.8-2-2.7-3.4-4.9-3.4c-2.2,0-4.1,1.3-4.9,3.2l-1.1,2.5l-20.1,42.9
		c-0.2,0.5-0.3,1.2-0.3,1.8c0,1.6,1,2.9,1,2.9c3.6,5.1,9.6,8.5,16.5,8.5c6.2,0,10-1.6,15.6-7.2c1.1-1.1,2.9-2.3,5.6-2.3
		c2,0,3.8,0.3,5.2,1.5c0,0,2.4,1.8,4,1.8c2.9,0,5.2-2.3,5.2-5.2C392.8,178.2,392.8,177.5,392.6,177z M365.5,175.7
		c-4.2,4.2-5.5,4.2-8.3,4.2c-2.3,0-4.4-0.8-6.2-2.2l15.3-32.5l12,25.2C373.3,170.5,368.9,172.4,365.5,175.7z"/>
</g>
<g>
	<g>
		<path class="st2" d="M256.6,282.4h10.1v3.5c2.3-1.6,4.3-2.7,6.2-3.4s3.7-1,5.7-1c4,0,7.4,1.1,10.1,3.5c2.3,2,3.5,4.9,3.5,8.7v22.1
			h-10v-14.6c0-4-0.3-6.6-0.6-8c-0.4-1.3-1.2-2.3-2.3-3c-1-0.7-2.4-1-4-1c-2.1,0-3.8,0.5-5.2,1.7c-1.5,1.1-2.5,2.7-3,4.7
			c-0.3,1-0.4,3.3-0.4,6.8v13.4h-10.1L256.6,282.4L256.6,282.4z"/>
	</g>
</g>
<path class="st3" d="M332.4,278.8c-11.4,0-20.5,9.2-20.5,20.5s9.2,20.5,20.5,20.5s20.5-9.2,20.5-20.5S343.7,278.8,332.4,278.8z
	 M332.4,308.7c-5.1,0-9.4-4.2-9.4-9.4s4.2-9.4,9.4-9.4s9.4,4.2,9.4,9.4C341.7,304.5,337.6,308.7,332.4,308.7z"/>
<path class="st0" d="M181.6,426.7h9.1v4.3c1-1.7,2.3-3,4-3.9c1.6-0.9,3.5-1.3,5.4-1.3c1.4,0,2.9,0.3,4.3,0.9l-3.3,7.5
	c-1.2-0.5-2.3-0.8-3.1-0.8c-1.6,0-3,0.9-4.2,2.5c-1.1,1.6-1.7,4.9-1.7,9.8l0.1,1.7v14h-10.6V426.7L181.6,426.7z"/>
<path class="st0" d="M294.4,426.7h8.7c0-4.6,0.1-7.3,0.3-8.1c0.3-1.9,1.3-3.5,2.9-4.5c1.6-1.1,4.1-1.6,7.1-1.6
	c2.2,0,5.9,0.4,8.8,1.2v6.6c-1.6-0.3-5.2-0.5-6.2-0.5c-1.2,0-2.2,0.3-2.7,0.6c-0.4,0.3-0.6,1-0.6,2v4.3h9.2v7.4h-9.2v27.3h-9.5
	v-27.3h-8.7V426.7z"/>
<path class="st0" d="M428,413.4h10.7v48.1H428V413.4z"/>
<path class="st3" d="M132.4,425.9c-11.4,0-20.5,9.2-20.5,20.5s9.2,20.5,20.5,20.5s20.5-9.2,20.5-20.5S143.8,425.9,132.4,425.9z
	 M132.4,455.7c-5.1,0-9.4-4.2-9.4-9.4s4.2-9.4,9.4-9.4c5.2,0,9.4,4.2,9.4,9.4C141.7,451.5,137.5,455.7,132.4,455.7z"/>
<path class="st3" d="M373.9,421.3c-11.4,0-20.5,9.2-20.5,20.5s9.2,20.5,20.5,20.5s20.5-9.2,20.5-20.5S385.2,421.3,373.9,421.3z
	 M373.9,451.2c-5.1,0-9.4-4.2-9.4-9.4s4.2-9.4,9.4-9.4s9.4,4.2,9.4,9.4C383.2,446.9,379.1,451.2,373.9,451.2z"/>
<path class="st3" d="M537.5,421.3c-11.4,0-20.5,9.2-20.5,20.5s9.2,20.5,20.5,20.5s20.5-9.2,20.5-20.5S548.9,421.3,537.5,421.3z
	 M537.5,451.2c-5.1,0-9.4-4.2-9.4-9.4s4.2-9.4,9.4-9.4c5.2,0,9.4,4.2,9.4,9.4C546.9,446.9,542.7,451.2,537.5,451.2z"/>
<path class="st3" d="M244.2,413.3h10.7v12.3h9.2v8.8h-9.2v27h-10.7v-27h-8.3v-8.8h8.3L244.2,413.3L244.2,413.3z"/>
<circle class="st3" cx="480.6" cy="419.5" r="6.5"/>
<rect x="474.5" y="429.2" class="st3" width="12" height="33.1"/>
<path class="st4" d="M67.4,455.2c-4.9,0-8.8-4-8.8-8.8s4-8.8,8.8-8.8s8.8,4,8.8,8.8S72.2,455.2,67.4,455.2z"/>
</svg>
