<?xml version="1.0" encoding="utf-8"?>
<!-- Generator: Adobe Illustrator 25.0.1, SVG Export Plug-In . SVG Version: 6.00 Build 0)  -->
<svg version="1.1" id="レイヤー_1" xmlns="http://www.w3.org/2000/svg" xmlns:xlink="http://www.w3.org/1999/xlink" x="0px"
	 y="0px" viewBox="0 0 1184.8 195.8" style="enable-background:new 0 0 1184.8 195.8;" xml:space="preserve">
<style type="text/css">
	.st0{fill:#656561;}
	.st1{fill:none;stroke:#656561;stroke-width:2;stroke-miterlimit:10;}
</style>
<g>
	<g>
		<path class="st0" d="M52.3,119.8c-0.1,0-0.2-0.2-0.2-0.4c0-0.4,0.2-0.6,0.5-0.5c1.6,0.3,2.7,0.5,3.2,0.5c1.4,0,2.4-0.7,3.1-2.2
			c2.8-6,6.1-14.2,9.9-24.6c0-0.1,0.1-0.2,0.3-0.2c0.5,0,0.7,0.2,0.7,0.5c0,0,0,0,0,0.1c-2.7,9.5-5.4,18-7.9,25.5
			c-0.5,1.6-0.8,3.1-0.8,4.4c0,1,0.4,2.8,1.3,5.7c0.6,1.9,0.9,3.3,0.9,4.2c0,3.2-1,4.7-3.1,4.7c-1.6,0-2.5-1.2-2.5-3.5
			c0-0.3,0.1-1.4,0.2-3.4c0.1-1.2,0.1-2,0.1-2.4c0-3-0.4-5-1.1-6C56.2,121.2,54.6,120.4,52.3,119.8z M53.1,90.8
			c3.2,0.6,5.7,1.7,7.5,3.1c1.5,1.3,2.2,2.7,2.2,4.3c0,0.9-0.2,1.6-0.7,2.1c-0.4,0.5-0.9,0.7-1.5,0.7c-0.9,0-1.6-0.7-2.1-2
			c-1.2-3.2-3.1-5.6-5.7-7.4c-0.1-0.1-0.2-0.2-0.2-0.3C52.6,90.9,52.7,90.7,53.1,90.8z M57.5,73.2c3,0.6,5.5,1.7,7.3,3.2
			c1.6,1.4,2.4,2.8,2.4,4.4c0,0.9-0.2,1.6-0.7,2.2c-0.5,0.5-1,0.7-1.6,0.7c-1,0-1.7-0.8-2.2-2.4c-1-2.9-2.9-5.3-5.6-7.4
			c-0.1-0.1-0.1-0.2-0.1-0.3C56.9,73.3,57.1,73.2,57.5,73.2z M75.4,88.4h-2.9c-1.5,0-3,0.1-4.7,0.4L67.1,86c2,0.4,3.7,0.5,5.3,0.5
			h4.9v-7.8c0-2.2-0.1-4.4-0.4-6.5c3,0.3,5,0.7,6,1c0.7,0.2,1,0.6,1,1c0,0.6-0.8,1.2-2.4,1.9v10.5h4c1.7-2,2.7-3.1,3.1-3.1
			c0.4,0,1.5,0.8,3.3,2.4c0.9,0.8,1.4,1.4,1.4,1.8c0,0.4-0.3,0.6-1,0.6H79.7c0,4.1-0.2,8.1-0.5,12.1h5.9c1.4-1.5,2.2-2.2,2.5-2.2
			c0.3,0,1.2,0.7,2.7,2c0.8,0.7,1.2,1.3,1.2,1.6c0,0.4-0.6,0.9-1.7,1.6c-0.3,13-1.2,22.2-2.9,27.6c-0.7,2.4-1.7,4-3.2,4.9
			c-1.1,0.7-2.3,1-3.6,1c-0.7,0-1-0.3-1.1-1c-0.1-1.5-1.7-2.8-4.6-3.8c-0.2-0.1-0.3-0.2-0.3-0.5c0-0.4,0.1-0.5,0.4-0.5
			c2.8,0.4,4.8,0.6,6.1,0.6c0.8,0,1.5-0.3,1.9-0.8c0.4-0.5,0.7-1.4,1-2.7c1.4-6.4,2.2-15.1,2.4-26h-6.7c-0.7,7.3-1.9,13.3-3.6,17.9
			c-2.4,7.1-5.8,12.9-10,17.2c-0.1,0.1-0.2,0.1-0.2,0.1c-0.4,0-0.6-0.2-0.6-0.5c0-0.1,0-0.1,0-0.2c3.1-4.7,5.6-10.6,7.6-17.8
			C74.3,111.5,75.3,101.2,75.4,88.4z M100,83.9h11.7c1.9-2.1,3-3.2,3.5-3.2s1.5,0.8,3.4,2.5c0.9,0.9,1.4,1.5,1.4,1.9
			c0,0.4-0.3,0.6-1,0.6H99.1c-2.2,4.3-5.1,8-8.8,11.3c0,0.1-0.1,0.1-0.2,0.1c-0.4,0-0.6-0.1-0.6-0.4c0-0.1,0-0.1,0.1-0.2
			c3.4-4.7,6.1-10.5,8-17.6c0.6-2.4,1-4.6,1.2-6.7c2.8,0.7,4.6,1.2,5.4,1.6c0.7,0.3,1,0.7,1,1.1c0,0.6-0.9,1.1-2.6,1.4
			C101.9,79.1,101,81.7,100,83.9z M102.5,114.4h-6.2c-1.2,0-2.8,0.1-4.7,0.4l-0.7-2.8c2,0.4,3.8,0.5,5.4,0.5h6.2c0-4-0.1-7-0.4-9.2
			c1.7,0.2,3,0.3,3.8,0.5c1.7-2.1,3.2-4.5,4.4-7.1H99.8c-1.8,0-3.5,0.2-5,0.5L94,94.5c2.2,0.3,4,0.5,5.6,0.5h10.5
			c1.4-1.6,2.3-2.4,2.7-2.4c0.4,0,1.4,0.7,2.8,2.1c1,1,1.5,1.7,1.5,2.2c0,0.6-0.9,1.1-2.8,1.2c-2.2,2.4-4.4,4.4-6.8,6
			c1,0.2,1.5,0.6,1.5,1c0,0.5-0.8,1.1-2.5,1.7v5.6h5.5c1.8-2.1,2.9-3.2,3.3-3.2c0.5,0,1.6,0.8,3.6,2.5c1,0.9,1.5,1.5,1.5,1.9
			c0,0.4-0.3,0.6-1,0.6h-12.8v3.3l0.3,14.8c0,2.1-0.9,3.7-2.6,4.6c-1,0.5-2,0.7-3.1,0.7c-0.4,0-0.7-0.1-0.8-0.2
			c-0.1-0.1-0.2-0.3-0.2-0.7c-0.1-0.9-0.6-1.6-1.5-2.1c-0.9-0.6-2.4-1.2-4.6-1.7c-0.2,0-0.3-0.2-0.3-0.6s0.1-0.5,0.3-0.4
			c3.5,0.3,5.9,0.5,7.2,0.5c0.9,0,1.3-0.4,1.3-1.3V114.4z"/>
		<path class="st0" d="M147.3,115.4h-13v4.3c0,1.3-1,1.9-2.9,1.9c-1.2,0-1.8-0.5-1.8-1.5l0.3-24.3c0-9.8-0.1-16.5-0.4-19.9
			c2.6,1.1,4.4,2,5.4,2.7h11.7c1.5-1.6,2.3-2.4,2.7-2.4c0.4,0,1.3,0.6,2.9,1.8c0.8,0.7,1.2,1.2,1.2,1.6c0,0.5-0.6,1.2-1.8,2v11.5
			l0.2,25.7c0,1.3-0.9,1.9-2.6,1.9c-1.3,0-1.9-0.5-1.9-1.5V115.4z M147.3,95.4v-15h-13v15H147.3z M147.3,113.6V97.2h-13v16.4H147.3z
			 M164.4,111.6c-0.6,4.2-1.6,7.7-3.1,10.5c-3.2,6.1-8.5,11.3-15.8,15.7c0,0-0.1,0-0.1,0c-0.4,0-0.6-0.2-0.6-0.7
			c0-0.1,0-0.1,0.1-0.2c6-5.1,10.3-10.5,12.7-16.2c1.4-3.2,2.3-7.3,2.8-12.4c0.5-4.4,0.7-10.5,0.7-18.1c0-7.6-0.2-13-0.5-16.4
			c1.7,0.7,3.5,1.6,5.5,2.9h16.7c1.5-1.7,2.5-2.5,2.8-2.5c0.4,0,1.4,0.7,3.1,2.1c0.7,0.6,1.1,1.2,1.1,1.6c0,0.4-0.6,1-1.9,1.9v16.9
			l0.4,35.1c0,2.1-0.9,3.7-2.6,4.7c-1,0.7-2.2,1-3.6,1c-0.6,0-1-0.3-1.1-1c-0.2-1-0.8-1.8-1.9-2.4c-1.1-0.5-3.1-1.1-6-1.7
			c-0.2,0-0.3-0.2-0.3-0.5c0-0.3,0.1-0.5,0.4-0.5c3.6,0.3,6.6,0.4,9,0.4c0.9,0,1.3-0.5,1.3-1.4v-18.9H164.4z M165.5,95.2
			c-0.1,6.1-0.4,10.9-0.8,14.6h18.7V95.2H165.5z M183.3,93.3V78.6h-17.8v14.8H183.3z"/>
		<path class="st0" d="M218.1,112.6v9.4h6.5c1.7-2,2.8-3.1,3.2-3.1c0.3,0,1.5,0.8,3.6,2.5c0.9,0.7,1.3,1.2,1.3,1.7
			c0,0.5-0.3,0.7-1,0.7h-13.6v0.5l0.2,12.1c0,1.4-1,2-2.9,2c-1.3,0-2-0.6-2-1.7l0.3-10.9v-2h-10.1c-1.6,0-3.2,0.1-4.6,0.4l-0.7-2.7
			c1.6,0.3,3.4,0.4,5.4,0.4h10.1v-9.4h-6.6v0.7c0,1.2-0.9,1.9-2.6,1.9c-1.3,0-1.9-0.5-1.9-1.6l0.3-13.5c0-4.6-0.1-8.2-0.4-10.8
			c1.7,0.7,3.4,1.6,5,2.5h6.2v-8.5h-9.6c-1,0-2.5,0.1-4.3,0.4l-0.8-2.7c1.6,0.3,3.4,0.4,5.1,0.4h9.6v-2.4c0-2.8-0.1-5.4-0.3-7.7
			c3,0.3,5,0.7,6,1c0.7,0.2,1,0.5,1,0.9c0,0.5-0.8,1.2-2.4,1.8v6.4h8c1.6-2,2.7-3.1,3.1-3.1c0.4,0,1.6,0.9,3.6,2.6
			c0.9,0.7,1.3,1.2,1.3,1.7c0,0.4-0.3,0.6-1,0.6h-15.1v8.5h6.5c1.4-1.4,2.3-2.1,2.6-2.1c0.4,0,1.3,0.6,2.7,1.7
			c0.8,0.7,1.2,1.2,1.2,1.6c0,0.4-0.6,1-1.8,1.8v5.2l0.3,13.4c0,1.2-0.9,1.7-2.8,1.7c-1.1,0-1.7-0.5-1.7-1.4v-1.2H218.1z
			 M225.1,101.1v-7.5h-18v7.5H225.1z M225.1,110.8V103h-18v7.8H225.1z M240.8,112.2c-0.3,2.9-0.9,5.6-1.7,8.2
			c-2.1,6.7-6.1,12.5-12,17.5c-0.1,0-0.2,0.1-0.2,0.1c-0.4,0-0.6-0.2-0.6-0.5c0-0.1,0-0.1,0.1-0.2c4.7-5.7,7.7-11.6,9-17.8
			c1.4-6.1,2.1-15.4,2.1-27.9c0-9.2-0.1-15.1-0.4-17.6c2.1,1,3.9,2,5.4,2.9h13.7c1.4-1.6,2.3-2.4,2.7-2.4c0.4,0,1.3,0.6,2.9,1.8
			c0.8,0.7,1.2,1.3,1.2,1.8c0,0.4-0.6,1-1.9,1.9v16.9l0.4,34.9c0,2.1-0.9,3.7-2.6,4.7c-1,0.6-2.1,1-3.4,1c-0.5,0-0.8-0.1-0.9-0.2
			c-0.1-0.1-0.3-0.5-0.4-0.9c-0.2-1-0.8-1.7-1.9-2.2c-1.1-0.5-2.8-1-5.3-1.5c-0.2,0-0.3-0.2-0.3-0.5c0-0.4,0.1-0.5,0.4-0.5
			c4,0.3,6.8,0.5,8.5,0.5c0.8,0,1.2-0.4,1.2-1.3v-18.6H240.8z M241.8,95.1c-0.1,5.7-0.4,10.8-0.8,15.3h15.7V95.1H241.8z M256.7,93.3
			V78.6h-14.9v14.6H256.7z"/>
	</g>
	<g>
		<path class="st1" d="M52.3,119.8c-0.1,0-0.2-0.2-0.2-0.4c0-0.4,0.2-0.6,0.5-0.5c1.6,0.3,2.7,0.5,3.2,0.5c1.4,0,2.4-0.7,3.1-2.2
			c2.8-6,6.1-14.2,9.9-24.6c0-0.1,0.1-0.2,0.3-0.2c0.5,0,0.7,0.2,0.7,0.5c0,0,0,0,0,0.1c-2.7,9.5-5.4,18-7.9,25.5
			c-0.5,1.6-0.8,3.1-0.8,4.4c0,1,0.4,2.8,1.3,5.7c0.6,1.9,0.9,3.3,0.9,4.2c0,3.2-1,4.7-3.1,4.7c-1.6,0-2.5-1.2-2.5-3.5
			c0-0.3,0.1-1.4,0.2-3.4c0.1-1.2,0.1-2,0.1-2.4c0-3-0.4-5-1.1-6C56.2,121.2,54.6,120.4,52.3,119.8z M53.1,90.8
			c3.2,0.6,5.7,1.7,7.5,3.1c1.5,1.3,2.2,2.7,2.2,4.3c0,0.9-0.2,1.6-0.7,2.1c-0.4,0.5-0.9,0.7-1.5,0.7c-0.9,0-1.6-0.7-2.1-2
			c-1.2-3.2-3.1-5.6-5.7-7.4c-0.1-0.1-0.2-0.2-0.2-0.3C52.6,90.9,52.7,90.7,53.1,90.8z M57.5,73.2c3,0.6,5.5,1.7,7.3,3.2
			c1.6,1.4,2.4,2.8,2.4,4.4c0,0.9-0.2,1.6-0.7,2.2c-0.5,0.5-1,0.7-1.6,0.7c-1,0-1.7-0.8-2.2-2.4c-1-2.9-2.9-5.3-5.6-7.4
			c-0.1-0.1-0.1-0.2-0.1-0.3C56.9,73.3,57.1,73.2,57.5,73.2z M75.4,88.4h-2.9c-1.5,0-3,0.1-4.7,0.4L67.1,86c2,0.4,3.7,0.5,5.3,0.5
			h4.9v-7.8c0-2.2-0.1-4.4-0.4-6.5c3,0.3,5,0.7,6,1c0.7,0.2,1,0.6,1,1c0,0.6-0.8,1.2-2.4,1.9v10.5h4c1.7-2,2.7-3.1,3.1-3.1
			c0.4,0,1.5,0.8,3.3,2.4c0.9,0.8,1.4,1.4,1.4,1.8c0,0.4-0.3,0.6-1,0.6H79.7c0,4.1-0.2,8.1-0.5,12.1h5.9c1.4-1.5,2.2-2.2,2.5-2.2
			c0.3,0,1.2,0.7,2.7,2c0.8,0.7,1.2,1.3,1.2,1.6c0,0.4-0.6,0.9-1.7,1.6c-0.3,13-1.2,22.2-2.9,27.6c-0.7,2.4-1.7,4-3.2,4.9
			c-1.1,0.7-2.3,1-3.6,1c-0.7,0-1-0.3-1.1-1c-0.1-1.5-1.7-2.8-4.6-3.8c-0.2-0.1-0.3-0.2-0.3-0.5c0-0.4,0.1-0.5,0.4-0.5
			c2.8,0.4,4.8,0.6,6.1,0.6c0.8,0,1.5-0.3,1.9-0.8c0.4-0.5,0.7-1.4,1-2.7c1.4-6.4,2.2-15.1,2.4-26h-6.7c-0.7,7.3-1.9,13.3-3.6,17.9
			c-2.4,7.1-5.8,12.9-10,17.2c-0.1,0.1-0.2,0.1-0.2,0.1c-0.4,0-0.6-0.2-0.6-0.5c0-0.1,0-0.1,0-0.2c3.1-4.7,5.6-10.6,7.6-17.8
			C74.3,111.5,75.3,101.2,75.4,88.4z M100,83.9h11.7c1.9-2.1,3-3.2,3.5-3.2s1.5,0.8,3.4,2.5c0.9,0.9,1.4,1.5,1.4,1.9
			c0,0.4-0.3,0.6-1,0.6H99.1c-2.2,4.3-5.1,8-8.8,11.3c0,0.1-0.1,0.1-0.2,0.1c-0.4,0-0.6-0.1-0.6-0.4c0-0.1,0-0.1,0.1-0.2
			c3.4-4.7,6.1-10.5,8-17.6c0.6-2.4,1-4.6,1.2-6.7c2.8,0.7,4.6,1.2,5.4,1.6c0.7,0.3,1,0.7,1,1.1c0,0.6-0.9,1.1-2.6,1.4
			C101.9,79.1,101,81.7,100,83.9z M102.5,114.4h-6.2c-1.2,0-2.8,0.1-4.7,0.4l-0.7-2.8c2,0.4,3.8,0.5,5.4,0.5h6.2c0-4-0.1-7-0.4-9.2
			c1.7,0.2,3,0.3,3.8,0.5c1.7-2.1,3.2-4.5,4.4-7.1H99.8c-1.8,0-3.5,0.2-5,0.5L94,94.5c2.2,0.3,4,0.5,5.6,0.5h10.5
			c1.4-1.6,2.3-2.4,2.7-2.4c0.4,0,1.4,0.7,2.8,2.1c1,1,1.5,1.7,1.5,2.2c0,0.6-0.9,1.1-2.8,1.2c-2.2,2.4-4.4,4.4-6.8,6
			c1,0.2,1.5,0.6,1.5,1c0,0.5-0.8,1.1-2.5,1.7v5.6h5.5c1.8-2.1,2.9-3.2,3.3-3.2c0.5,0,1.6,0.8,3.6,2.5c1,0.9,1.5,1.5,1.5,1.9
			c0,0.4-0.3,0.6-1,0.6h-12.8v3.3l0.3,14.8c0,2.1-0.9,3.7-2.6,4.6c-1,0.5-2,0.7-3.1,0.7c-0.4,0-0.7-0.1-0.8-0.2
			c-0.1-0.1-0.2-0.3-0.2-0.7c-0.1-0.9-0.6-1.6-1.5-2.1c-0.9-0.6-2.4-1.2-4.6-1.7c-0.2,0-0.3-0.2-0.3-0.6s0.1-0.5,0.3-0.4
			c3.5,0.3,5.9,0.5,7.2,0.5c0.9,0,1.3-0.4,1.3-1.3V114.4z"/>
		<path class="st1" d="M147.3,115.4h-13v4.3c0,1.3-1,1.9-2.9,1.9c-1.2,0-1.8-0.5-1.8-1.5l0.3-24.3c0-9.8-0.1-16.5-0.4-19.9
			c2.6,1.1,4.4,2,5.4,2.7h11.7c1.5-1.6,2.3-2.4,2.7-2.4c0.4,0,1.3,0.6,2.9,1.8c0.8,0.7,1.2,1.2,1.2,1.6c0,0.5-0.6,1.2-1.8,2v11.5
			l0.2,25.7c0,1.3-0.9,1.9-2.6,1.9c-1.3,0-1.9-0.5-1.9-1.5V115.4z M147.3,95.4v-15h-13v15H147.3z M147.3,113.6V97.2h-13v16.4H147.3z
			 M164.4,111.6c-0.6,4.2-1.6,7.7-3.1,10.5c-3.2,6.1-8.5,11.3-15.8,15.7c0,0-0.1,0-0.1,0c-0.4,0-0.6-0.2-0.6-0.7
			c0-0.1,0-0.1,0.1-0.2c6-5.1,10.3-10.5,12.7-16.2c1.4-3.2,2.3-7.3,2.8-12.4c0.5-4.4,0.7-10.5,0.7-18.1c0-7.6-0.2-13-0.5-16.4
			c1.7,0.7,3.5,1.6,5.5,2.9h16.7c1.5-1.7,2.5-2.5,2.8-2.5c0.4,0,1.4,0.7,3.1,2.1c0.7,0.6,1.1,1.2,1.1,1.6c0,0.4-0.6,1-1.9,1.9v16.9
			l0.4,35.1c0,2.1-0.9,3.7-2.6,4.7c-1,0.7-2.2,1-3.6,1c-0.6,0-1-0.3-1.1-1c-0.2-1-0.8-1.8-1.9-2.4c-1.1-0.5-3.1-1.1-6-1.7
			c-0.2,0-0.3-0.2-0.3-0.5c0-0.3,0.1-0.5,0.4-0.5c3.6,0.3,6.6,0.4,9,0.4c0.9,0,1.3-0.5,1.3-1.4v-18.9H164.4z M165.5,95.2
			c-0.1,6.1-0.4,10.9-0.8,14.6h18.7V95.2H165.5z M183.3,93.3V78.6h-17.8v14.8H183.3z"/>
		<path class="st1" d="M218.1,112.6v9.4h6.5c1.7-2,2.8-3.1,3.2-3.1c0.3,0,1.5,0.8,3.6,2.5c0.9,0.7,1.3,1.2,1.3,1.7
			c0,0.5-0.3,0.7-1,0.7h-13.6v0.5l0.2,12.1c0,1.4-1,2-2.9,2c-1.3,0-2-0.6-2-1.7l0.3-10.9v-2h-10.1c-1.6,0-3.2,0.1-4.6,0.4l-0.7-2.7
			c1.6,0.3,3.4,0.4,5.4,0.4h10.1v-9.4h-6.6v0.7c0,1.2-0.9,1.9-2.6,1.9c-1.3,0-1.9-0.5-1.9-1.6l0.3-13.5c0-4.6-0.1-8.2-0.4-10.8
			c1.7,0.7,3.4,1.6,5,2.5h6.2v-8.5h-9.6c-1,0-2.5,0.1-4.3,0.4l-0.8-2.7c1.6,0.3,3.4,0.4,5.1,0.4h9.6v-2.4c0-2.8-0.1-5.4-0.3-7.7
			c3,0.3,5,0.7,6,1c0.7,0.2,1,0.5,1,0.9c0,0.5-0.8,1.2-2.4,1.8v6.4h8c1.6-2,2.7-3.1,3.1-3.1c0.4,0,1.6,0.9,3.6,2.6
			c0.9,0.7,1.3,1.2,1.3,1.7c0,0.4-0.3,0.6-1,0.6h-15.1v8.5h6.5c1.4-1.4,2.3-2.1,2.6-2.1c0.4,0,1.3,0.6,2.7,1.7
			c0.8,0.7,1.2,1.2,1.2,1.6c0,0.4-0.6,1-1.8,1.8v5.2l0.3,13.4c0,1.2-0.9,1.7-2.8,1.7c-1.1,0-1.7-0.5-1.7-1.4v-1.2H218.1z
			 M225.1,101.1v-7.5h-18v7.5H225.1z M225.1,110.8V103h-18v7.8H225.1z M240.8,112.2c-0.3,2.9-0.9,5.6-1.7,8.2
			c-2.1,6.7-6.1,12.5-12,17.5c-0.1,0-0.2,0.1-0.2,0.1c-0.4,0-0.6-0.2-0.6-0.5c0-0.1,0-0.1,0.1-0.2c4.7-5.7,7.7-11.6,9-17.8
			c1.4-6.1,2.1-15.4,2.1-27.9c0-9.2-0.1-15.1-0.4-17.6c2.1,1,3.9,2,5.4,2.9h13.7c1.4-1.6,2.3-2.4,2.7-2.4c0.4,0,1.3,0.6,2.9,1.8
			c0.8,0.7,1.2,1.3,1.2,1.8c0,0.4-0.6,1-1.9,1.9v16.9l0.4,34.9c0,2.1-0.9,3.7-2.6,4.7c-1,0.6-2.1,1-3.4,1c-0.5,0-0.8-0.1-0.9-0.2
			c-0.1-0.1-0.3-0.5-0.4-0.9c-0.2-1-0.8-1.7-1.9-2.2c-1.1-0.5-2.8-1-5.3-1.5c-0.2,0-0.3-0.2-0.3-0.5c0-0.4,0.1-0.5,0.4-0.5
			c4,0.3,6.8,0.5,8.5,0.5c0.8,0,1.2-0.4,1.2-1.3v-18.6H240.8z M241.8,95.1c-0.1,5.7-0.4,10.8-0.8,15.3h15.7V95.1H241.8z M256.7,93.3
			V78.6h-14.9v14.6H256.7z"/>
	</g>
</g>
<g>
	<g>
		<path class="st0" d="M392.1,77.1l0.6,13.7h-1.6c-0.3-2.4-0.7-4.1-1.3-5.2c-0.9-1.7-2.1-2.9-3.5-3.7c-1.5-0.8-3.4-1.2-5.8-1.2h-8.2
			v44.5c0,3.6,0.4,5.8,1.2,6.7c1.1,1.2,2.8,1.8,5,1.8h2v1.6h-24.7v-1.6h2.1c2.5,0,4.2-0.7,5.2-2.2c0.6-0.9,0.9-3,0.9-6.3V80.7h-7
			c-2.7,0-4.7,0.2-5.8,0.6c-1.5,0.5-2.8,1.6-3.8,3.1c-1.1,1.5-1.7,3.6-1.9,6.3h-1.6l0.7-13.7H392.1z"/>
		<path class="st0" d="M408.1,94.8v31.6c0,2.5,0.2,4.1,0.5,4.9c0.4,0.8,0.9,1.4,1.6,1.8c0.7,0.4,2,0.6,3.8,0.6v1.5H395v-1.5
			c1.9,0,3.2-0.2,3.9-0.6c0.7-0.4,1.2-1,1.6-1.8c0.4-0.9,0.6-2.5,0.6-4.9v-15.2c0-4.3-0.1-7-0.4-8.3c-0.2-0.9-0.5-1.6-0.9-1.9
			c-0.4-0.4-1-0.5-1.8-0.5c-0.8,0-1.8,0.2-2.9,0.6l-0.6-1.5l11.8-4.8H408.1z M404.6,74.2c1.2,0,2.2,0.4,3.1,1.3
			c0.8,0.8,1.3,1.9,1.3,3.1s-0.4,2.2-1.3,3.1c-0.8,0.9-1.9,1.3-3.1,1.3c-1.2,0-2.2-0.4-3.1-1.3s-1.3-1.9-1.3-3.1s0.4-2.2,1.3-3.1
			C402.3,74.7,403.4,74.2,404.6,74.2z"/>
		<path class="st0" d="M430.7,103.2c2.9-2.9,4.6-4.5,5.1-4.9c1.3-1.1,2.7-1.9,4.2-2.5c1.5-0.6,3-0.9,4.4-0.9c2.5,0,4.6,0.7,6.4,2.1
			c1.8,1.4,3,3.5,3.6,6.2c2.9-3.4,5.4-5.7,7.5-6.8c2-1.1,4.1-1.6,6.3-1.6c2.1,0,3.9,0.5,5.6,1.6c1.6,1.1,2.9,2.8,3.8,5.3
			c0.6,1.7,0.9,4.3,0.9,7.8v16.9c0,2.5,0.2,4.2,0.6,5.1c0.3,0.6,0.8,1.2,1.6,1.6c0.8,0.4,2,0.7,3.8,0.7v1.5h-19.4v-1.5h0.8
			c1.7,0,3-0.3,3.9-1c0.7-0.5,1.1-1.2,1.4-2.2c0.1-0.5,0.2-1.9,0.2-4.2v-16.9c0-3.2-0.4-5.5-1.2-6.8c-1.1-1.8-2.9-2.7-5.4-2.7
			c-1.5,0-3,0.4-4.6,1.1c-1.5,0.8-3.4,2.2-5.6,4.2l-0.1,0.5l0.1,1.8v18.8c0,2.7,0.2,4.4,0.5,5c0.3,0.7,0.9,1.2,1.7,1.7
			c0.8,0.4,2.2,0.7,4.2,0.7v1.5h-19.9v-1.5c2.2,0,3.7-0.3,4.5-0.8c0.8-0.5,1.4-1.3,1.7-2.3c0.1-0.5,0.2-1.9,0.2-4.3v-16.9
			c0-3.2-0.5-5.5-1.4-6.9c-1.3-1.8-3-2.7-5.3-2.7c-1.5,0-3.1,0.4-4.6,1.2c-2.4,1.3-4.2,2.7-5.5,4.3v21.1c0,2.6,0.2,4.3,0.5,5
			c0.4,0.8,0.9,1.4,1.6,1.7c0.7,0.4,2.1,0.6,4.3,0.6v1.5h-19.4v-1.5c1.8,0,3.1-0.2,3.8-0.6c0.7-0.4,1.3-1,1.6-1.8
			c0.4-0.8,0.6-2.5,0.6-4.9v-15c0-4.3-0.1-7.1-0.4-8.4c-0.2-0.9-0.5-1.6-0.9-2c-0.4-0.4-1-0.5-1.8-0.5c-0.8,0-1.8,0.2-2.9,0.6
			l-0.6-1.5l11.8-4.8h1.8V103.2z"/>
		<path class="st0" d="M494,110.8c0,5.8,1.4,10.4,4.2,13.7s6.2,5,10.1,5c2.6,0,4.8-0.7,6.7-2.1c1.9-1.4,3.5-3.8,4.8-7.3l1.3,0.9
			c-0.6,3.9-2.3,7.5-5.2,10.7c-2.9,3.2-6.5,4.8-10.9,4.8c-4.7,0-8.8-1.8-12.1-5.5c-3.4-3.7-5-8.6-5-14.8c0-6.7,1.7-12,5.2-15.7
			c3.4-3.8,7.8-5.6,13-5.6c4.4,0,8,1.5,10.9,4.4c2.8,2.9,4.2,6.8,4.2,11.7H494z M494,108.3h18.2c-0.1-2.5-0.4-4.3-0.9-5.3
			c-0.7-1.6-1.8-2.9-3.2-3.8c-1.4-0.9-2.9-1.4-4.4-1.4c-2.4,0-4.5,0.9-6.4,2.8C495.4,102.4,494.3,105,494,108.3z"/>
		<path class="st0" d="M551.8,94.8v13.4h-1.4c-1.1-4.2-2.5-7.1-4.2-8.6c-1.7-1.5-3.9-2.3-6.5-2.3c-2,0-3.6,0.5-4.9,1.6
			c-1.2,1.1-1.8,2.2-1.8,3.5c0,1.6,0.5,3,1.4,4.1c0.9,1.2,2.7,2.4,5.4,3.7l6.3,3c5.8,2.8,8.7,6.6,8.7,11.2c0,3.6-1.4,6.5-4.1,8.7
			s-5.7,3.3-9.1,3.3c-2.4,0-5.2-0.4-8.2-1.3c-0.9-0.3-1.7-0.4-2.3-0.4c-0.7,0-1.2,0.4-1.5,1.1h-1.4v-14h1.4c0.8,4,2.3,7,4.6,9.1
			c2.3,2,4.8,3,7.6,3c2,0,3.6-0.6,4.8-1.7c1.2-1.2,1.9-2.6,1.9-4.2c0-2-0.7-3.6-2.1-5c-1.4-1.3-4.2-3-8.3-5.1
			c-4.2-2.1-6.9-3.9-8.2-5.6c-1.3-1.6-1.9-3.7-1.9-6.2c0-3.2,1.1-5.9,3.3-8.1c2.2-2.2,5.1-3.3,8.6-3.3c1.5,0,3.4,0.3,5.6,1
			c1.5,0.4,2.4,0.6,2.9,0.6c0.5,0,0.8-0.1,1.1-0.3c0.3-0.2,0.6-0.6,0.9-1.3H551.8z"/>
		<path class="st0" d="M578.7,77.1h15.8l35.6,43.7V87.2c0-3.6-0.4-5.8-1.2-6.7c-1.1-1.2-2.7-1.8-5-1.8h-2v-1.6h20.3v1.6h-2.1
			c-2.5,0-4.2,0.7-5.2,2.2c-0.6,0.9-0.9,3-0.9,6.3v49.1h-1.5l-38.4-46.9v35.8c0,3.6,0.4,5.8,1.2,6.7c1.1,1.2,2.8,1.8,5,1.8h2.1v1.6
			h-20.3v-1.6h2c2.5,0,4.2-0.7,5.3-2.2c0.6-0.9,0.9-3,0.9-6.3V84.7c-1.7-2-3-3.3-3.8-3.9c-0.9-0.6-2.2-1.2-3.8-1.8
			c-0.8-0.3-2.1-0.4-3.8-0.4V77.1z"/>
		<path class="st0" d="M652.7,110.8c0,5.8,1.4,10.4,4.2,13.7s6.2,5,10.1,5c2.6,0,4.8-0.7,6.7-2.1c1.9-1.4,3.5-3.8,4.8-7.3l1.3,0.9
			c-0.6,3.9-2.3,7.5-5.2,10.7c-2.9,3.2-6.5,4.8-10.9,4.8c-4.7,0-8.8-1.8-12.1-5.5c-3.4-3.7-5-8.6-5-14.8c0-6.7,1.7-12,5.2-15.7
			c3.4-3.8,7.8-5.6,13-5.6c4.4,0,8,1.5,10.9,4.4c2.8,2.9,4.2,6.8,4.2,11.7H652.7z M652.7,108.3h18.2c-0.1-2.5-0.4-4.3-0.9-5.3
			c-0.7-1.6-1.8-2.9-3.2-3.8c-1.4-0.9-2.9-1.4-4.4-1.4c-2.4,0-4.5,0.9-6.4,2.8C654.1,102.4,653,105,652.7,108.3z"/>
		<path class="st0" d="M682.9,96h16.5v1.6c-1.5,0.1-2.5,0.4-3,0.8c-0.5,0.4-0.7,1-0.7,1.8c0,0.9,0.2,2,0.7,3.2l8.4,22.6l8.5-18.4
			l-2.2-5.8c-0.7-1.7-1.6-2.9-2.7-3.6c-0.6-0.4-1.8-0.6-3.5-0.7V96h18.7v1.6c-2.1,0.1-3.5,0.5-4.4,1.1c-0.6,0.5-0.9,1.2-0.9,2.2
			c0,0.6,0.1,1.2,0.3,1.8l8.9,22.6l8.3-21.8c0.6-1.5,0.9-2.8,0.9-3.7c0-0.5-0.3-1-0.8-1.5c-0.6-0.4-1.7-0.7-3.3-0.7V96h12.4v1.6
			c-2.5,0.4-4.3,2.1-5.5,5.1l-13.1,33.9h-1.8l-9.8-25.1l-11.5,25.1h-1.6l-12.6-33.1c-0.8-2.1-1.6-3.5-2.4-4.2
			c-0.8-0.7-2.1-1.3-3.8-1.7V96z"/>
		<path class="st0" d="M827.3,135.3h-15.5L792,108.1c-1.5,0.1-2.6,0.1-3.6,0.1c-0.4,0-0.8,0-1.2,0c-0.4,0-0.9,0-1.3-0.1V125
			c0,3.7,0.4,5.9,1.2,6.8c1.1,1.3,2.7,1.9,4.9,1.9h2.3v1.6h-24.9v-1.6h2.2c2.5,0,4.2-0.8,5.3-2.4c0.6-0.9,0.9-3,0.9-6.3V87.4
			c0-3.7-0.4-5.9-1.2-6.8c-1.1-1.3-2.8-1.9-5-1.9h-2.2v-1.6h21.2c6.2,0,10.7,0.5,13.7,1.4c2.9,0.9,5.4,2.6,7.5,5
			c2,2.4,3.1,5.3,3.1,8.7c0,3.6-1.2,6.7-3.5,9.3s-5.9,4.5-10.8,5.6l12,16.7c2.7,3.8,5.1,6.4,7.1,7.6c2,1.3,4.6,2.1,7.7,2.4V135.3z
			 M785.9,105.4c0.5,0,1,0,1.4,0c0.4,0,0.7,0,1,0c5.6,0,9.7-1.2,12.6-3.6c2.8-2.4,4.2-5.5,4.2-9.2c0-3.6-1.1-6.6-3.4-8.9
			c-2.3-2.3-5.3-3.4-9-3.4c-1.7,0-3.9,0.3-6.7,0.8V105.4z"/>
		<path class="st0" d="M848.5,94.8c6,0,10.7,2.3,14.3,6.8c3.1,3.9,4.6,8.3,4.6,13.3c0,3.5-0.8,7.1-2.5,10.7c-1.7,3.6-4,6.3-7,8.2
			c-3,1.8-6.3,2.7-9.9,2.7c-5.9,0-10.6-2.4-14.1-7.1c-2.9-4-4.4-8.4-4.4-13.4c0-3.6,0.9-7.2,2.7-10.8c1.8-3.6,4.1-6.2,7.1-7.9
			C842.1,95.7,845.2,94.8,848.5,94.8z M847.1,97.6c-1.5,0-3,0.5-4.6,1.4c-1.5,0.9-2.8,2.5-3.7,4.7c-0.9,2.3-1.4,5.2-1.4,8.7
			c0,5.7,1.1,10.7,3.4,14.8c2.3,4.2,5.3,6.2,9,6.2c2.8,0,5.1-1.1,6.9-3.4c1.8-2.3,2.7-6.2,2.7-11.8c0-7-1.5-12.5-4.5-16.5
			C852.9,99,850.3,97.6,847.1,97.6z"/>
		<path class="st0" d="M884.9,103.2c2.9-2.9,4.6-4.5,5.1-4.9c1.3-1.1,2.7-1.9,4.2-2.5c1.5-0.6,3-0.9,4.4-0.9c2.5,0,4.6,0.7,6.4,2.1
			c1.8,1.4,3,3.5,3.6,6.2c2.9-3.4,5.4-5.7,7.5-6.8c2-1.1,4.1-1.6,6.3-1.6c2.1,0,3.9,0.5,5.6,1.6c1.6,1.1,2.9,2.8,3.8,5.3
			c0.6,1.7,0.9,4.3,0.9,7.8v16.9c0,2.5,0.2,4.2,0.6,5.1c0.3,0.6,0.8,1.2,1.6,1.6c0.8,0.4,2,0.7,3.8,0.7v1.5h-19.4v-1.5h0.8
			c1.7,0,3-0.3,3.9-1c0.7-0.5,1.1-1.2,1.4-2.2c0.1-0.5,0.2-1.9,0.2-4.2v-16.9c0-3.2-0.4-5.5-1.2-6.8c-1.1-1.8-2.9-2.7-5.4-2.7
			c-1.5,0-3,0.4-4.6,1.1c-1.5,0.8-3.4,2.2-5.6,4.2l-0.1,0.5l0.1,1.8v18.8c0,2.7,0.2,4.4,0.5,5c0.3,0.7,0.9,1.2,1.7,1.7
			c0.8,0.4,2.2,0.7,4.2,0.7v1.5h-19.9v-1.5c2.2,0,3.7-0.3,4.5-0.8c0.8-0.5,1.4-1.3,1.7-2.3c0.1-0.5,0.2-1.9,0.2-4.3v-16.9
			c0-3.2-0.5-5.5-1.4-6.9c-1.3-1.8-3-2.7-5.3-2.7c-1.5,0-3.1,0.4-4.6,1.2c-2.4,1.3-4.2,2.7-5.5,4.3v21.1c0,2.6,0.2,4.3,0.5,5
			c0.4,0.8,0.9,1.4,1.6,1.7c0.7,0.4,2.1,0.6,4.3,0.6v1.5h-19.4v-1.5c1.8,0,3.1-0.2,3.8-0.6c0.7-0.4,1.3-1,1.6-1.8
			c0.4-0.8,0.6-2.5,0.6-4.9v-15c0-4.3-0.1-7.1-0.4-8.4c-0.2-0.9-0.5-1.6-0.9-2c-0.4-0.4-1-0.5-1.8-0.5c-0.8,0-1.8,0.2-2.9,0.6
			l-0.6-1.5l11.8-4.8h1.8V103.2z"/>
		<path class="st0" d="M963.9,129.6c-4,3.1-6.6,4.9-7.6,5.4c-1.5,0.7-3.2,1.1-4.9,1.1c-2.7,0-5-0.9-6.7-2.8
			c-1.8-1.9-2.6-4.3-2.6-7.3c0-1.9,0.4-3.6,1.3-5c1.2-1.9,3.2-3.8,6.1-5.5c2.9-1.7,7.7-3.8,14.5-6.3v-1.5c0-3.9-0.6-6.6-1.9-8.1
			c-1.2-1.5-3.1-2.2-5.4-2.2c-1.8,0-3.2,0.5-4.3,1.5c-1.1,1-1.6,2.1-1.6,3.3l0.1,2.5c0,1.3-0.3,2.3-1,3c-0.7,0.7-1.6,1.1-2.6,1.1
			c-1.1,0-1.9-0.4-2.6-1.1c-0.7-0.7-1-1.8-1-3c0-2.5,1.3-4.7,3.8-6.8c2.5-2.1,6.1-3.1,10.6-3.1c3.5,0,6.4,0.6,8.6,1.8
			c1.7,0.9,2.9,2.3,3.7,4.2c0.5,1.2,0.8,3.7,0.8,7.6v13.4c0,3.7,0.1,6,0.2,6.9c0.1,0.8,0.4,1.4,0.7,1.7c0.3,0.3,0.7,0.4,1.1,0.4
			c0.5,0,0.9-0.1,1.2-0.3c0.6-0.4,1.8-1.4,3.5-3.1v2.4c-3.2,4.3-6.3,6.4-9.2,6.4c-1.4,0-2.5-0.5-3.3-1.5
			C964.3,133.6,963.9,132,963.9,129.6z M963.9,126.8v-15c-4.3,1.7-7.1,2.9-8.4,3.6c-2.3,1.3-3.9,2.6-4.9,3.9s-1.5,2.9-1.5,4.5
			c0,2.1,0.6,3.8,1.8,5.1c1.2,1.4,2.6,2,4.3,2C957.5,131.1,960.3,129.7,963.9,126.8z"/>
		<path class="st0" d="M992.1,103.1c4.6-5.6,9-8.3,13.2-8.3c2.1,0,4,0.5,5.5,1.6c1.5,1.1,2.8,2.8,3.7,5.3c0.6,1.7,0.9,4.4,0.9,7.9
			v16.8c0,2.5,0.2,4.2,0.6,5.1c0.3,0.7,0.8,1.3,1.5,1.7c0.7,0.4,2,0.6,3.9,0.6v1.5H1002v-1.5h0.8c1.8,0,3.1-0.3,3.8-0.8
			c0.7-0.6,1.2-1.4,1.5-2.5c0.1-0.4,0.2-1.8,0.2-4v-16.1c0-3.6-0.5-6.2-1.4-7.8c-0.9-1.6-2.5-2.4-4.7-2.4c-3.4,0-6.8,1.9-10.2,5.6
			v20.7c0,2.7,0.2,4.3,0.5,4.9c0.4,0.8,1,1.4,1.7,1.8c0.7,0.4,2.1,0.6,4.3,0.6v1.5H979v-1.5h0.9c2,0,3.4-0.5,4.1-1.5
			c0.7-1,1.1-3,1.1-5.8v-14.6c0-4.7-0.1-7.6-0.3-8.6c-0.2-1-0.5-1.7-1-2.1c-0.4-0.4-1-0.6-1.8-0.6c-0.8,0-1.8,0.2-2.9,0.6l-0.6-1.5
			l11.8-4.8h1.8V103.1z"/>
	</g>
</g>
<rect x="302.5" y="69.2" class="st0" width="3" height="72"/>
</svg>
