<?xml version="1.0" encoding="utf-8"?>
<!-- Generator: Adobe Illustrator 24.2.3, SVG Export Plug-In . SVG Version: 6.00 Build 0)  -->
<svg version="1.1" id="レイヤー_1" xmlns="http://www.w3.org/2000/svg" xmlns:xlink="http://www.w3.org/1999/xlink" x="0px"
	 y="0px" viewBox="0 0 822 157.5" style="enable-background:new 0 0 822 157.5;" xml:space="preserve">
<style type="text/css">
	.st0{fill:#656561;}
	.st1{enable-background:new    ;}
	.st2{fill:#FFFFFF;}
</style>
<g>
	<rect x="91.2" y="59.4" class="st0" width="257.9" height="78.7"/>
	<g class="st1">
		<path class="st2" d="M149.5,91.8c2.2,1.3,4.3,2.9,6.2,4.8c0.1,0.1,0.1,0.2,0.1,0.2c0,0.1-0.1,0.2-0.3,0.5l-0.7,0.9
			c-0.1,0.1-0.2,0.2-0.3,0.2c-0.1,0-0.2-0.1-0.3-0.2c-1.9-2-3.9-3.6-6-4.8c-0.1-0.1-0.2-0.1-0.2-0.2c0-0.1,0.1-0.2,0.2-0.4l0.6-0.8
			c0.1-0.2,0.2-0.3,0.3-0.3C149.3,91.7,149.4,91.7,149.5,91.8z M148.9,117.8c0.8-0.9,1.5-2.2,2.2-3.7c1.3-2.8,2.5-6.2,3.7-10.2
			c0.3,0.4,0.6,0.7,1.1,1c0.3,0.2,0.5,0.4,0.5,0.6c0,0.1,0,0.3-0.1,0.5c-1.3,4-2.6,7.5-3.9,10.7c-0.5,1.3-0.8,2-0.8,2
			c-0.1,0.3-0.2,0.5-0.3,0.5c-0.1,0-0.3-0.1-0.6-0.2C150.2,118.7,149.6,118.3,148.9,117.8z M152.1,80.8c2.2,1.5,4.1,3.1,5.9,5
			c0.1,0.1,0.2,0.2,0.2,0.2c0,0.1-0.1,0.2-0.2,0.4l-0.7,0.8c-0.2,0.2-0.3,0.3-0.4,0.3c-0.1,0-0.1,0-0.2-0.1
			c-1.9-2.1-3.8-3.8-5.8-5.2c-0.1-0.1-0.2-0.1-0.2-0.2c0-0.1,0.1-0.2,0.3-0.5l0.5-0.6c0.2-0.2,0.4-0.3,0.5-0.3
			C152,80.8,152.1,80.8,152.1,80.8z M171.7,107.2h-6.9l-6.3,0.1c-0.2,0-0.3-0.1-0.3-0.3v-1.4c0-0.2,0.1-0.3,0.3-0.3l6.3,0.1h6.9
			c-0.1-1.7-0.2-2.9-0.3-3.6c0.4,0.1,1.1,0.2,2,0.4c2.3-1.3,4.6-2.8,6.8-4.5h-12.8l-5.8,0.1c-0.2,0-0.3-0.1-0.3-0.3v-1.3
			c0-0.2,0.1-0.3,0.3-0.3l5.8,0.1h12.8c0.3,0,0.6-0.1,0.9-0.2c0.3-0.1,0.4-0.1,0.5-0.1c0.2,0,0.6,0.3,1.1,0.8
			c0.5,0.5,0.8,0.9,0.8,1.1c0,0.2-0.2,0.3-0.5,0.5c-0.5,0.2-1.1,0.7-1.9,1.3c-2.1,1.6-4.5,3.1-7.2,4.6c-0.1,0.3-0.1,0.8-0.1,1.5h7.2
			l6.4-0.1c0.2,0,0.3,0.1,0.3,0.3v1.4c0,0.2-0.1,0.3-0.3,0.3l-6.4-0.1h-7.2v2.5l0,5.9c0,1.4-0.4,2.3-1.1,2.8
			c-0.5,0.4-1.6,0.5-3.5,0.5c-0.6,0-1.2,0-2,0c-0.4,0-0.6-0.1-0.7-0.2c-0.1-0.1-0.2-0.2-0.3-0.6c-0.2-0.7-0.4-1.2-0.8-1.6
			c1.6,0.2,3,0.3,4.4,0.3c0.8,0,1.3-0.1,1.5-0.4c0.2-0.2,0.4-0.7,0.4-1.3V107.2z M181.7,80c0.7,0.4,1.3,0.9,1.8,1.3
			c0.2,0.2,0.3,0.4,0.3,0.6c0,0.2-0.2,0.3-0.7,0.3s-1.2,0.2-2.3,0.5c-5.2,1.5-11.5,2.3-19,2.6c-0.2,0-0.3,0-0.3,0
			c-0.3,0-0.5-0.2-0.7-0.7c-0.2-0.4-0.5-0.8-0.8-1.2c7.2-0.1,13.3-0.8,18.4-2.2C179.8,81.1,180.9,80.6,181.7,80z M161.7,88.6
			c-0.1-0.1-0.1-0.2-0.1-0.2c0-0.1,0.1-0.2,0.4-0.3l0.9-0.4c0.1-0.1,0.2-0.1,0.3-0.1c0.1,0,0.2,0.1,0.3,0.2c1.2,1.6,2,3.3,2.6,5.1
			c0,0.1,0,0.1,0,0.2c0,0.1-0.1,0.2-0.3,0.3l-0.9,0.4c-0.2,0.1-0.3,0.2-0.4,0.2c-0.1,0-0.2-0.1-0.2-0.2
			C163.7,92,162.8,90.3,161.7,88.6z M170.8,86.8c0.2-0.1,0.3-0.1,0.4-0.1c0.1,0,0.1,0.1,0.2,0.2c0.9,1.4,1.6,3.2,2.2,5.3
			c0,0.1,0,0.1,0,0.2c0,0.1-0.1,0.2-0.4,0.3l-0.7,0.3c-0.3,0.1-0.4,0.2-0.5,0.2c-0.1,0-0.2-0.1-0.2-0.2c-0.5-2.2-1.2-4-2-5.4
			c0-0.1-0.1-0.2-0.1-0.2c0-0.1,0.2-0.2,0.5-0.3L170.8,86.8z M177.2,93.5c1.5-1.9,2.6-4,3.5-6.3c0.2-0.5,0.4-1.2,0.5-2
			c0.7,0.2,1.4,0.4,1.9,0.8c0.3,0.1,0.4,0.3,0.4,0.5c0,0.1-0.1,0.3-0.3,0.5c-0.3,0.2-0.6,0.6-0.8,1.2c-1.2,2.3-2.2,4.2-3.2,5.6
			c-0.2,0.3-0.3,0.4-0.5,0.4c-0.1,0-0.3-0.1-0.5-0.2C178,93.8,177.6,93.6,177.2,93.5z"/>
		<path class="st2" d="M240.7,115.5c-0.4,0.4-0.6,0.9-0.7,1.6c0,0.4-0.1,0.6-0.2,0.7c-0.1,0.1-0.3,0.1-0.7,0.1
			c-6.3,0.4-11.7,0.6-16,0.6c-5.6,0-9.4-0.5-11.4-1.5c-1.9-0.9-3.2-2.4-4.1-4.5c-1.2,1.3-2.7,2.9-4.6,4.6c-0.6,0.5-0.9,0.8-1,1
			c-0.1,0.3-0.3,0.4-0.5,0.4c-0.2,0-0.3-0.1-0.5-0.3c0,0-0.4-0.6-1.1-1.7c1-0.5,1.9-1.1,2.7-1.7c1.5-1.2,2.8-2.5,3.9-4V99.2h-3.3
			l-2.9,0.1c-0.2,0-0.3-0.1-0.3-0.3v-1.5c0-0.2,0.1-0.3,0.3-0.3l2.9,0.1h2l3-0.1c0.2,0,0.3,0.1,0.3,0.3l-0.1,4.1v9
			c0.5,1.3,1,2.3,1.6,3c0.6,0.6,1.3,1.2,2.3,1.7c1.6,0.8,4.8,1.2,9.4,1.2C227.9,116.4,234.1,116.1,240.7,115.5z M203.9,81.7
			c1.7,1.7,3.3,3.7,4.9,6.2c0,0.1,0.1,0.1,0.1,0.2c0,0.1-0.1,0.2-0.4,0.4l-0.6,0.4c-0.3,0.2-0.5,0.3-0.6,0.3c-0.1,0-0.2-0.1-0.3-0.2
			c-1.6-2.5-3.1-4.5-4.7-6.1c-0.1-0.1-0.1-0.2-0.1-0.2c0-0.1,0.1-0.3,0.4-0.5l0.6-0.4c0.2-0.2,0.4-0.3,0.5-0.3
			C203.7,81.6,203.8,81.6,203.9,81.7z M216.7,86.5v-2.4c0-1.9-0.1-3.3-0.3-4.2c0.8,0,1.6,0.1,2.2,0.2c0.3,0,0.5,0.2,0.5,0.3
			c0,0.1-0.1,0.4-0.3,0.8c-0.1,0.4-0.2,1.3-0.2,2.8v2.4h0.6l4.2-0.1c0.2,0,0.3,0.1,0.3,0.3V88c0,0.2-0.1,0.3-0.3,0.3l-4.3-0.1h-2.7
			l-0.1,5.5h3.7l2.6-0.1c0.2,0,0.3,0.1,0.3,0.3c-0.1,1.4-0.1,3-0.2,4.7c-0.2,4.7-0.6,8.1-1.1,10.2c-0.3,1.4-0.8,2.3-1.4,2.8
			c-0.6,0.4-1.3,0.6-2.3,0.6c-0.7,0-1.3,0-1.7,0c-0.3,0-0.6-0.1-0.6-0.2c0-0.1-0.1-0.3-0.1-0.6c-0.1-0.5-0.3-0.9-0.5-1.4
			c1.2,0.2,2.2,0.3,2.9,0.3c1.1,0,1.8-0.7,2.1-2.2c0.7-3.6,1-7.8,1.1-12.8h-4.8c-0.2,3.8-0.7,7-1.4,9.4c-0.7,2.4-1.7,4.5-3,6.4
			c-0.2,0.2-0.3,0.4-0.4,0.4s-0.3-0.1-0.5-0.4c-0.2-0.2-0.5-0.4-1.1-0.7c2.1-2.7,3.4-6,4.1-9.9c0.5-2.8,0.7-7,0.7-12.4l-4.1,0.1
			c-0.2,0-0.3-0.1-0.3-0.3v-1.3c0-0.2,0.1-0.3,0.3-0.3l4.3,0.1H216.7z M228.2,86.4h6.9l4.4-0.1c0.2,0,0.3,0.1,0.3,0.3V88
			c0,0.2-0.1,0.3-0.3,0.3l-4.4,0h-7.7c-0.9,1.6-1.6,2.8-2.2,3.6c-0.2,0.3-0.4,0.4-0.5,0.4c-0.1,0-0.3-0.1-0.6-0.3
			c-0.3-0.2-0.7-0.3-1.1-0.3c1.8-2.4,3.3-5.3,4.4-8.7c0.3-1,0.5-2,0.6-2.9c0.8,0.2,1.4,0.3,1.9,0.5c0.4,0.2,0.6,0.3,0.6,0.5
			c0,0.2-0.1,0.4-0.3,0.5c-0.2,0.2-0.5,0.6-0.7,1.2C229.1,84.2,228.6,85.4,228.2,86.4z M230.9,102h-1.4l-4.7,0.1
			c-0.2,0-0.3-0.1-0.3-0.3v-1.3c0-0.2,0.1-0.3,0.3-0.3l4.7,0.1h1.4v-0.6c0-1.3-0.1-2.3-0.2-3.1c0.6,0.1,1.1,0.2,1.5,0.3
			c1.5-1.3,2.6-2.5,3.4-3.5h-5.1l-3.9,0.1c-0.2,0-0.3-0.1-0.3-0.3V92c0-0.2,0.1-0.3,0.3-0.3l3.9,0.1h4.8c0.6,0,0.9,0,1.1-0.1
			c0.2-0.1,0.3-0.1,0.4-0.1c0.2,0,0.6,0.3,1,0.8c0.4,0.5,0.6,0.8,0.6,1c0,0.2-0.2,0.5-0.6,0.6c-0.2,0.1-0.6,0.4-1.1,0.9
			c-1.3,1.3-2.6,2.5-3.8,3.5c0,0.1,0,0.3,0,0.7v1.3h2.1l4.6-0.1c0.2,0,0.3,0.1,0.3,0.3v1.3c0,0.2-0.1,0.3-0.3,0.3l-4.6-0.1h-2.1v1.3
			l0,6.2c0,1.3-0.4,2.1-1.1,2.7c-0.5,0.4-1.7,0.5-3.6,0.5c-0.3,0-0.6,0-0.9,0c-0.4,0-0.6-0.1-0.7-0.2c-0.1-0.1-0.1-0.2-0.2-0.6
			c-0.1-0.5-0.4-1-0.6-1.4c1.3,0.2,2.5,0.3,3.4,0.3c0.7,0,1.2-0.1,1.5-0.4c0.2-0.2,0.3-0.7,0.3-1.3V102z"/>
		<path class="st2" d="M282.2,98.2c1.1-1.6,2-3.5,2.6-5.5c0.3-0.9,0.5-1.8,0.5-2.6c0.8,0.2,1.4,0.4,1.8,0.6c0.3,0.1,0.4,0.3,0.4,0.4
			c0,0.1-0.1,0.3-0.3,0.5c-0.1,0.2-0.3,0.6-0.6,1.2c-1.2,3.1-2.5,5.5-3.6,7.1c0.9,1.5,1.9,2.7,2.9,3.6c0.9,0.8,1.6,1.2,2.2,1.2
			c0.9,0,1.5-0.5,2-1.5c0.3-0.6,0.6-1.9,1-3.7c0.2,0.3,0.6,0.6,1,1c0.4,0.2,0.5,0.4,0.5,0.6c0,0.1,0,0.2-0.1,0.5
			c-0.5,1.9-1.1,3.3-1.8,4c-0.7,0.7-1.6,1.1-2.7,1.1c-1.9,0-4-1.7-6.1-5.2c-1.6,1.9-3.3,3.5-5.3,4.8c-0.3,0.2-0.5,0.3-0.6,0.3
			c-0.1,0-0.3-0.1-0.6-0.3c-0.3-0.2-0.6-0.4-1.1-0.6c2.7-1.7,4.9-3.6,6.7-5.8c-1.7-3.1-2.9-7.5-3.6-13.1h-17.7V91
			c0,1.1-0.1,2.7-0.3,4.7c-0.2,1.9-0.4,3.2-0.6,4c-0.8,3.1-2,5.7-3.4,7.6c-0.2,0.3-0.3,0.4-0.4,0.4c-0.1,0-0.3-0.1-0.5-0.3
			c-0.4-0.3-0.8-0.6-1.2-0.6c1.8-2.2,2.9-4.6,3.6-6.9c0.7-2.8,1-6.1,1-10.1l-0.1-4.6c0-0.2,0.1-0.3,0.3-0.3l6.4,0.1h12.9
			c-0.1-0.6-0.1-1.4-0.2-2.4c-0.1-1.1-0.2-2.1-0.4-2.8c0.6,0,1.3,0.1,2.2,0.2c0.3,0,0.4,0.2,0.4,0.4c0,0.2-0.1,0.4-0.2,0.7
			c-0.1,0.2-0.1,0.7-0.1,1.6c0,0.5,0,1.2,0.1,2.2h5.3l6.2-0.1c0.2,0,0.3,0.1,0.3,0.3v1.3c0,0.2-0.1,0.3-0.3,0.3l-6.2-0.1h-5.1
			c0.2,2.2,0.7,4.5,1.3,6.9C281.1,95.6,281.7,97.2,282.2,98.2z M260.6,109.6c-1.3,3.1-2.9,5.6-5,7.8c-0.1,0.1-0.2,0.2-0.3,0.2
			c-0.1,0-0.2-0.1-0.4-0.2l-0.6-0.5c-0.3-0.2-0.5-0.4-0.5-0.5c0-0.1,0-0.1,0.1-0.2c2.1-2,3.7-4.4,4.8-7.3c0.1-0.2,0.2-0.3,0.3-0.3
			c0.1,0,0.3,0.1,0.5,0.2l0.6,0.3c0.3,0.1,0.5,0.3,0.5,0.4C260.6,109.5,260.6,109.5,260.6,109.6z M261.8,91.6v-1.3
			c0-0.2,0.1-0.3,0.3-0.3l4.3,0.1h4.4l4.2-0.1c0.2,0,0.3,0.1,0.3,0.3v1.3c0,0.2-0.1,0.3-0.3,0.3l-4.2-0.1h-4.4L262,92
			C261.8,92,261.8,91.8,261.8,91.6z M270,103.5h-3.4l-3.8,0.1c-0.2,0-0.3-0.1-0.3-0.3l0.1-2.8v-2.4l-0.1-2.8c0-0.2,0.1-0.3,0.3-0.3
			l3.8,0.1h3.4l3.8-0.1c0.2,0,0.3,0.1,0.3,0.3l-0.1,2.8v2.4l0.1,2.8c0,0.2-0.1,0.3-0.3,0.3L270,103.5z M281.3,112
			c0.3,0.3,0.7,0.5,1.3,0.8c0.4,0.2,0.6,0.4,0.6,0.6c0,0.1,0,0.2-0.1,0.4c-0.3,2.2-1.1,3.6-2.4,4.2c-1.2,0.5-3.9,0.8-8.1,0.8
			c-3.1,0-5.2-0.1-6.3-0.3c-1.4-0.3-2-1.2-2-2.8v-4.4c0-1.6-0.1-2.8-0.2-3.4c0.9,0,1.6,0.1,2.1,0.3c0.3,0.1,0.4,0.2,0.4,0.4
			c0,0.1-0.1,0.2-0.2,0.5c-0.2,0.3-0.2,1-0.2,2.1v3.7c0,1.1,0.4,1.7,1.3,1.8c1.1,0.2,2.8,0.3,5.1,0.3c3.8,0,6.2-0.2,7.1-0.7
			C280.6,115.8,281.2,114.4,281.3,112z M264.2,101.9h8.1v-5.2h-8.1V101.9z M271.8,106.4c1.6,1.2,3.1,2.7,4.5,4.4
			c0,0.1,0.1,0.1,0.1,0.2c0,0.1-0.1,0.2-0.4,0.5l-0.5,0.4c-0.3,0.2-0.4,0.3-0.5,0.3c-0.1,0-0.2-0.1-0.2-0.2c-1.1-1.5-2.6-3-4.3-4.5
			c-0.1-0.1-0.2-0.2-0.2-0.2c0-0.1,0.1-0.2,0.3-0.4l0.6-0.4c0.2-0.1,0.3-0.2,0.4-0.2C271.6,106.3,271.7,106.3,271.8,106.4z
			 M282.8,79.8c1.4,0.8,2.9,1.8,4.5,3.3c0.1,0.1,0.1,0.2,0.1,0.2s-0.1,0.2-0.3,0.4l-0.5,0.5c-0.2,0.2-0.4,0.4-0.5,0.4
			c-0.1,0-0.1-0.1-0.2-0.2c-1.4-1.3-2.9-2.5-4.4-3.4c-0.1-0.1-0.2-0.2-0.2-0.2c0-0.1,0.1-0.2,0.3-0.4l0.5-0.5
			c0.1-0.1,0.2-0.2,0.3-0.2C282.7,79.7,282.7,79.7,282.8,79.8z M286.5,108.5c1.8,1.8,3.5,4.1,5.1,6.8c0.1,0.1,0.1,0.2,0.1,0.2
			c0,0.1-0.1,0.3-0.4,0.4l-0.8,0.4c-0.2,0.1-0.4,0.2-0.5,0.2c-0.1,0-0.2-0.1-0.3-0.2c-1.6-2.8-3.3-5.1-4.9-6.9
			c-0.1-0.1-0.1-0.2-0.1-0.2c0-0.1,0.2-0.2,0.5-0.4l0.6-0.4c0.2-0.1,0.4-0.2,0.4-0.2S286.4,108.4,286.5,108.5z"/>
	</g>
	<rect x="473" y="59.4" class="st0" width="257.9" height="78.7"/>
	<g class="st1">
		<path class="st2" d="M519,83.5c1.3,0.1,2.3,0.3,3.2,0.6c0.3,0.1,0.4,0.3,0.4,0.5c0,0.1,0,0.3-0.1,0.4c-0.3,0.5-0.5,2-0.5,4.4v7.3
			c0,2,0,3.9,0.1,6c0,0.4-0.2,0.6-0.5,0.6h-1.6c-0.3,0-0.5-0.2-0.5-0.5c0,0,0-0.1,0-0.2c0.1-2.8,0.1-4.8,0.1-6.1v-7.2
			C519.5,86.8,519.3,84.8,519,83.5z M521.2,116.1c4.5-1.3,7.8-3.3,10-5.8c2.5-3,3.8-7,3.8-12.2v-8.4c0-3.2-0.2-5.5-0.5-7
			c1.3,0.1,2.4,0.3,3.3,0.6c0.3,0.1,0.4,0.3,0.4,0.6c0,0.1,0,0.3-0.1,0.5c-0.3,0.6-0.5,2.4-0.5,5.3v8.1c0,5.9-1.3,10.5-4,13.6
			c-2.3,2.7-5.5,4.8-9.5,6.4c-0.2,0.1-0.3,0.1-0.4,0.1c-0.2,0-0.4-0.1-0.5-0.3C522.5,116.9,521.9,116.5,521.2,116.1z"/>
		<path class="st2" d="M577.2,100.6c5,3.7,9.3,7.4,12.8,11.2c0.2,0.2,0.3,0.3,0.3,0.5c0,0.1-0.1,0.2-0.2,0.4
			c-0.2,0.2-0.6,0.7-1.2,1.3c-0.1,0.1-0.2,0.2-0.3,0.2c-0.1,0-0.2-0.1-0.4-0.2c-3.6-4.2-7.8-8-12.5-11.4c-5.2,5.4-10.5,9.6-16,12.6
			c-0.2,0.1-0.3,0.2-0.5,0.2c-0.1,0-0.3-0.1-0.4-0.2c-0.5-0.5-1.1-0.9-1.9-1.3c6.3-3.2,11.7-7.3,16.4-12.2c3.3-3.5,6.1-7.6,8.5-12.2
			h-13.9c-2.6,0-4.7,0.1-6.2,0.2c0,0-0.1,0-0.1,0c-0.2,0-0.4-0.1-0.4-0.4c-0.1-0.7-0.2-1.4-0.2-2.2c1.4,0.1,3.7,0.1,6.7,0.1h13.1
			c1.1,0,1.9-0.1,2.3-0.4c0.1,0,0.2-0.1,0.3-0.1c0.2,0,0.4,0.1,0.6,0.2c0.4,0.3,0.9,0.7,1.4,1.3c0.1,0.1,0.2,0.3,0.2,0.5
			c0,0.3-0.1,0.4-0.3,0.6c-0.3,0.2-0.7,0.6-1.1,1.4C581.9,94.3,579.6,97.6,577.2,100.6z M584.5,82.3l1.3-0.9c0.1,0,0.1-0.1,0.2-0.1
			c0.1,0,0.1,0,0.2,0.1c1.7,1.2,3.4,3,5,5.4c0.1,0.1,0.1,0.1,0.1,0.2s0,0.1-0.1,0.2l-1.1,0.9c-0.1,0.1-0.1,0.1-0.2,0.1
			c-0.1,0-0.2-0.1-0.3-0.2C588.1,85.6,586.4,83.7,584.5,82.3z M588.2,79.6l1.2-0.9c0.1-0.1,0.2-0.1,0.2-0.1c0,0,0.1,0,0.2,0.1
			c2,1.5,3.7,3.2,5,5.1c0.1,0.1,0.1,0.2,0.1,0.2c0,0.1-0.1,0.2-0.2,0.3l-1,0.9c-0.1,0-0.1,0.1-0.2,0.1c-0.1,0-0.2-0.1-0.3-0.2
			C591.8,82.8,590.2,81,588.2,79.6z"/>
		<path class="st2" d="M622.6,83c1.4,0.3,2.5,0.8,3.3,1.3c0.2,0.1,0.3,0.3,0.3,0.5c0,0.2-0.1,0.4-0.3,0.7c-0.6,0.6-1.2,1.7-1.6,3.2
			c-2.5,7.7-5.3,15.1-8.5,22.2c7.3-0.5,14.1-1.2,20.1-2.2c-1.5-2.8-3.4-5.5-5.6-8c0.8-0.5,1.3-0.8,1.5-0.9c0.1-0.1,0.3-0.1,0.4-0.1
			c0.1,0,0.3,0.1,0.4,0.3c3,3.5,5.8,8,8.4,13.5c0.1,0.1,0.1,0.2,0.1,0.3c0,0.2-0.1,0.3-0.3,0.4c-0.4,0.3-1,0.6-1.5,0.8
			c-0.1,0-0.2,0.1-0.2,0.1c-0.2,0-0.3-0.1-0.5-0.4c-0.6-1.4-1.2-2.7-1.9-3.9c-6.6,1-14,1.9-22.2,2.7c-2.4,0.2-3.9,0.5-4.5,0.9
			c-0.2,0.1-0.4,0.2-0.6,0.2c-0.3,0-0.4-0.1-0.5-0.3c-0.3-0.7-0.6-1.8-0.9-3.1c0.7,0.1,1.4,0.1,2.2,0.1c0.8,0,1.8,0,2.9-0.1
			c3.4-7.9,6.2-15.3,8.4-22.3C622.2,86.5,622.5,84.6,622.6,83z"/>
		<path class="st2" d="M684.9,98.2c1.1-1.6,2-3.5,2.6-5.5c0.3-0.9,0.5-1.8,0.5-2.6c0.8,0.2,1.4,0.4,1.8,0.6c0.3,0.1,0.4,0.3,0.4,0.4
			c0,0.1-0.1,0.3-0.3,0.5c-0.1,0.2-0.3,0.6-0.6,1.2c-1.2,3.1-2.5,5.5-3.6,7.1c0.9,1.5,1.9,2.7,2.9,3.6c0.9,0.8,1.6,1.2,2.2,1.2
			c0.9,0,1.5-0.5,2-1.5c0.3-0.6,0.6-1.9,1-3.7c0.2,0.3,0.6,0.6,1,1c0.4,0.2,0.5,0.4,0.5,0.6c0,0.1,0,0.2-0.1,0.5
			c-0.5,1.9-1.1,3.3-1.8,4c-0.7,0.7-1.6,1.1-2.7,1.1c-1.9,0-4-1.7-6.1-5.2c-1.6,1.9-3.3,3.5-5.3,4.8c-0.3,0.2-0.5,0.3-0.6,0.3
			c-0.1,0-0.3-0.1-0.6-0.3c-0.3-0.2-0.6-0.4-1.1-0.6c2.7-1.7,4.9-3.6,6.7-5.8c-1.7-3.1-2.9-7.5-3.6-13.1h-17.7V91
			c0,1.1-0.1,2.7-0.3,4.7c-0.2,1.9-0.4,3.2-0.6,4c-0.8,3.1-2,5.7-3.4,7.6c-0.2,0.3-0.3,0.4-0.4,0.4c-0.1,0-0.3-0.1-0.5-0.3
			c-0.4-0.3-0.8-0.6-1.2-0.6c1.8-2.2,2.9-4.6,3.6-6.9c0.7-2.8,1-6.1,1-10.1l-0.1-4.6c0-0.2,0.1-0.3,0.3-0.3l6.4,0.1H680
			c-0.1-0.6-0.1-1.4-0.2-2.4c-0.1-1.1-0.2-2.1-0.4-2.8c0.6,0,1.3,0.1,2.2,0.2c0.3,0,0.4,0.2,0.4,0.4c0,0.2-0.1,0.4-0.2,0.7
			c-0.1,0.2-0.1,0.7-0.1,1.6c0,0.5,0,1.2,0.1,2.2h5.3l6.2-0.1c0.2,0,0.3,0.1,0.3,0.3v1.3c0,0.2-0.1,0.3-0.3,0.3l-6.2-0.1H682
			c0.2,2.2,0.7,4.5,1.3,6.9C683.9,95.6,684.4,97.2,684.9,98.2z M663.3,109.6c-1.3,3.1-2.9,5.6-5,7.8c-0.1,0.1-0.2,0.2-0.3,0.2
			c-0.1,0-0.2-0.1-0.4-0.2l-0.6-0.5c-0.3-0.2-0.5-0.4-0.5-0.5c0-0.1,0-0.1,0.1-0.2c2.1-2,3.7-4.4,4.8-7.3c0.1-0.2,0.2-0.3,0.3-0.3
			c0.1,0,0.3,0.1,0.5,0.2l0.6,0.3c0.3,0.1,0.5,0.3,0.5,0.4C663.4,109.5,663.4,109.5,663.3,109.6z M664.5,91.6v-1.3
			c0-0.2,0.1-0.3,0.3-0.3l4.3,0.1h4.4l4.2-0.1c0.2,0,0.3,0.1,0.3,0.3v1.3c0,0.2-0.1,0.3-0.3,0.3l-4.2-0.1H669l-4.3,0.1
			C664.6,92,664.5,91.8,664.5,91.6z M672.7,103.5h-3.5l-3.8,0.1c-0.2,0-0.3-0.1-0.3-0.3l0.1-2.8v-2.4l-0.1-2.8
			c0-0.2,0.1-0.3,0.3-0.3l3.8,0.1h3.5l3.8-0.1c0.2,0,0.3,0.1,0.3,0.3l-0.1,2.8v2.4l0.1,2.8c0,0.2-0.1,0.3-0.3,0.3L672.7,103.5z
			 M684,112c0.3,0.3,0.7,0.5,1.3,0.8c0.4,0.2,0.6,0.4,0.6,0.6c0,0.1,0,0.2-0.1,0.4c-0.3,2.2-1.1,3.6-2.4,4.2
			c-1.2,0.5-3.9,0.8-8.1,0.8c-3.1,0-5.2-0.1-6.3-0.3c-1.4-0.3-2-1.2-2-2.8v-4.4c0-1.6-0.1-2.8-0.2-3.4c0.9,0,1.6,0.1,2.1,0.3
			c0.3,0.1,0.4,0.2,0.4,0.4c0,0.1-0.1,0.2-0.2,0.5c-0.2,0.3-0.2,1-0.2,2.1v3.7c0,1.1,0.4,1.7,1.3,1.8c1.1,0.2,2.8,0.3,5.1,0.3
			c3.8,0,6.2-0.2,7.1-0.7C683.4,115.8,683.9,114.4,684,112z M666.9,101.9h8.1v-5.2h-8.1V101.9z M674.6,106.4
			c1.6,1.2,3.1,2.7,4.5,4.4c0,0.1,0.1,0.1,0.1,0.2c0,0.1-0.1,0.2-0.4,0.5l-0.5,0.4c-0.3,0.2-0.4,0.3-0.5,0.3c-0.1,0-0.2-0.1-0.2-0.2
			c-1.1-1.5-2.6-3-4.3-4.5c-0.1-0.1-0.2-0.2-0.2-0.2c0-0.1,0.1-0.2,0.3-0.4l0.6-0.4c0.2-0.1,0.3-0.2,0.4-0.2
			C674.4,106.3,674.5,106.3,674.6,106.4z M685.6,79.8c1.4,0.8,2.9,1.8,4.5,3.3c0.1,0.1,0.1,0.2,0.1,0.2s-0.1,0.2-0.3,0.4l-0.5,0.5
			c-0.2,0.2-0.4,0.4-0.5,0.4c-0.1,0-0.1-0.1-0.2-0.2c-1.4-1.3-2.9-2.5-4.4-3.4c-0.1-0.1-0.2-0.2-0.2-0.2c0-0.1,0.1-0.2,0.3-0.4
			l0.5-0.5c0.1-0.1,0.2-0.2,0.3-0.2C685.4,79.7,685.5,79.7,685.6,79.8z M689.3,108.5c1.8,1.8,3.5,4.1,5.1,6.8
			c0.1,0.1,0.1,0.2,0.1,0.2c0,0.1-0.1,0.3-0.4,0.4l-0.8,0.4c-0.2,0.1-0.4,0.2-0.5,0.2c-0.1,0-0.2-0.1-0.3-0.2
			c-1.6-2.8-3.3-5.1-4.9-6.9c-0.1-0.1-0.1-0.2-0.1-0.2c0-0.1,0.2-0.2,0.5-0.4l0.6-0.4c0.2-0.1,0.4-0.2,0.4-0.2
			C689.1,108.3,689.1,108.4,689.3,108.5z"/>
	</g>
	
		<rect x="409.1" y="74.8" transform="matrix(0.7071 -0.7071 0.7071 0.7071 50.5918 319.6237)" class="st0" width="4" height="47.9"/>
	
		<rect x="387.1" y="96.7" transform="matrix(0.7071 -0.7071 0.7071 0.7071 50.5918 319.6237)" class="st0" width="47.9" height="4"/>
</g>
</svg>
