<?xml version="1.0" encoding="utf-8"?>
<!-- Generator: Adobe Illustrator 24.2.3, SVG Export Plug-In . SVG Version: 6.00 Build 0)  -->
<svg version="1.1" id="レイヤー_1" xmlns="http://www.w3.org/2000/svg" xmlns:xlink="http://www.w3.org/1999/xlink" x="0px"
	 y="0px" viewBox="0 0 822 157.5" style="enable-background:new 0 0 822 157.5;" xml:space="preserve">
<style type="text/css">
	.st0{fill:#656561;}
</style>
<g>
	<g>
		<g>
			<path class="st0" d="M161.8,94.9h1.3l4.7-0.1c0.2,0,0.3,0.1,0.3,0.3v1.4c0,0.2-0.1,0.3-0.3,0.3l-4.7-0.1h-1.4l0,0.2
				c1.3,3.4,3.5,6.5,6.4,9.4c-0.4,0.2-0.8,0.5-1.1,0.9c-0.2,0.3-0.4,0.4-0.5,0.4c-0.1,0-0.2-0.1-0.5-0.4c-2.1-2.4-3.6-4.8-4.7-7.5
				c-1,5.4-3.3,10-7,13.9c-0.3,0.3-0.4,0.4-0.6,0.4s-0.3-0.1-0.5-0.4c-0.2-0.3-0.6-0.6-1.1-0.9c4-3.8,6.5-8.5,7.4-14.2
				c0.1-0.6,0.2-1.3,0.2-1.8h-2.3l-4.7,0.1c-0.2,0-0.3-0.1-0.3-0.3v-1.4c0-0.2,0.1-0.3,0.3-0.3l4.7,0.1h2.5c0.1-1.6,0.2-4,0.2-7.2
				h-1.9l-4.3,0.1c-0.2,0-0.3-0.1-0.3-0.3v-1.4c0-0.2,0.1-0.3,0.3-0.3l4.3,0.1h2v-3.6c0-1.9-0.1-3.5-0.3-4.6c0.9,0,1.7,0.1,2.2,0.2
				c0.3,0.1,0.5,0.2,0.5,0.4c0,0.2-0.1,0.4-0.2,0.8c-0.1,0.3-0.2,0.9-0.2,1.9c0,1.1-0.1,2.7-0.1,5h0.8l4.3-0.1
				c0.2,0,0.3,0.1,0.3,0.3v1.4c0,0.2-0.1,0.3-0.3,0.3l-4.3-0.1H162c0,0.5-0.1,1.3-0.1,2.4C161.9,92.3,161.8,93.9,161.8,94.9z
				 M175.4,79.1h6.7l5.1-0.1c0.2,0,0.3,0.1,0.3,0.3l-0.1,5.4v11.9l0.1,5.4c0,0.2-0.1,0.3-0.3,0.3l-4.9-0.1v9.3
				c0,0.6,0.1,1.1,0.2,1.3c0.1,0.3,0.4,0.4,0.7,0.5c0.5,0.1,1.3,0.2,2.5,0.2c1.4,0,2.3-0.2,2.9-0.7c0.5-0.4,0.9-1,1.1-1.9
				c0.1-0.6,0.2-1.6,0.3-3.1c0.3,0.3,0.8,0.6,1.3,0.8c0.4,0.2,0.5,0.4,0.5,0.6c0,0,0,0.2,0,0.3c-0.2,1.5-0.4,2.6-0.7,3.2
				c-0.2,0.6-0.6,1.1-1.1,1.4c-0.9,0.7-2.4,1.1-4.4,1.1c-1.6,0-2.8-0.1-3.7-0.3c-1.1-0.3-1.6-1.2-1.6-2.7v-10.2h-3.9
				c-0.6,7.2-4.4,11.8-11.4,13.8c-0.3,0.1-0.5,0.1-0.5,0.1c-0.2,0-0.4-0.2-0.6-0.5c-0.2-0.3-0.6-0.7-1.1-1
				c7.3-1.6,11.1-5.7,11.6-12.4l-4.2,0.1c-0.2,0-0.3-0.1-0.3-0.3l0.1-5.4V84.8l-0.1-5.4c0-0.2,0.1-0.3,0.3-0.3L175.4,79.1z
				 M185.5,81h-13.6v5.2h13.6V81z M185.5,87.9h-13.6v5.2h13.6V87.9z M185.5,94.8h-13.6v5.6h13.6V94.8z"/>
			<path class="st0" d="M200.5,114.8c2.6-1.8,4.6-3.9,5.9-6.3c0.3-0.6,0.6-1.2,0.6-1.6c0.7,0.3,1.3,0.6,1.8,0.9
				c0.2,0.2,0.3,0.3,0.3,0.5c0,0.1-0.1,0.3-0.3,0.5c-0.3,0.2-0.6,0.5-0.7,0.7c-1.5,2.6-3.3,4.7-5.4,6.3c-0.3,0.2-0.5,0.3-0.6,0.3
				c-0.1,0-0.3-0.1-0.5-0.3C201.4,115.2,201,114.9,200.5,114.8z M208.9,79.1h5.2l4.7-0.1c0.2,0,0.3,0.1,0.3,0.3l-0.1,5.8v14l0.1,5.9
				c0,0.2-0.1,0.3-0.3,0.3l-4.7-0.1h-5.2l-4.7,0.1c-0.2,0-0.3-0.1-0.3-0.3l0.1-5.9v-14l-0.1-5.8c0-0.2,0.1-0.3,0.3-0.3L208.9,79.1z
				 M205.9,87.1h11.2v-6.3h-11.2V87.1z M205.9,88.8v6.3h11.2v-6.3H205.9z M205.9,96.9v6.6h11.2v-6.6H205.9z M221.4,113.9
				c-0.5,0.3-0.9,0.6-1.2,0.9c-0.2,0.3-0.4,0.4-0.5,0.4c-0.1,0-0.3-0.1-0.5-0.4c-2-1.9-3.7-4.1-5.2-6.5c0-0.1-0.1-0.2-0.1-0.2
				c0-0.1,0.2-0.2,0.5-0.4l0.6-0.3c0.2-0.1,0.3-0.2,0.4-0.2c0.1,0,0.1,0.1,0.2,0.2C217.2,109.8,219.1,112,221.4,113.9z M224.9,81.2
				c0.7,0,1.4,0.1,2.2,0.2c0.3,0,0.4,0.2,0.4,0.3c0,0.1-0.1,0.4-0.2,0.6c-0.1,0.4-0.2,1.9-0.2,4.5V98l0.1,6.4c0,0.2-0.1,0.3-0.3,0.3
				h-1.6c-0.2,0-0.3-0.1-0.3-0.3l0.1-6.4V87C225.2,84.2,225.1,82.3,224.9,81.2z M228.3,113.2c1.2,0.1,2.6,0.2,4.1,0.2
				c1,0,1.6-0.2,1.9-0.5c0.3-0.3,0.5-0.9,0.5-1.8V83.1c0-2.4-0.1-4.1-0.3-5.1c0.8,0,1.6,0.1,2.4,0.2c0.3,0,0.5,0.2,0.5,0.3
				c0,0.2-0.1,0.5-0.2,0.8c-0.2,0.5-0.3,1.7-0.3,3.6v22.6l0,5.9c0,1.6-0.4,2.7-1.1,3.2c-0.5,0.3-1,0.5-1.6,0.6
				c-0.6,0.1-1.6,0.2-3.1,0.2c-0.2,0-0.6,0-1.1,0c-0.4,0-0.6,0-0.6-0.1c-0.1-0.1-0.2-0.3-0.3-0.6
				C228.9,114.2,228.7,113.7,228.3,113.2z"/>
			<path class="st0" d="M251.4,86.4l0.7,0.2c0.3,0.1,0.5,0.2,0.5,0.3c0,0,0,0.1,0,0.1c-0.3,3.5-1,6.5-2.1,8.8c0,0.1-0.1,0.2-0.2,0.2
				c-0.1,0-0.2,0-0.3-0.1l-0.7-0.3c-0.3-0.2-0.5-0.3-0.5-0.4c0-0.1,0-0.1,0.1-0.3c1-2.4,1.7-5.2,2-8.5c0-0.2,0.1-0.2,0.2-0.2
				C251,86.3,251.2,86.3,251.4,86.4z M254.3,76.8c0.8,0,1.5,0.1,2.3,0.2c0.3,0.1,0.5,0.2,0.5,0.4c0,0.1-0.1,0.3-0.2,0.8
				c-0.2,0.6-0.3,2-0.3,4.4v25.6l0.1,7.8c0,0.2-0.1,0.3-0.3,0.3h-1.5c-0.2,0-0.3-0.1-0.3-0.3l0.1-7.8V82.6
				C254.6,79.9,254.5,77.9,254.3,76.8z M258.2,86.5c0-0.1,0-0.2,0-0.2c0-0.1,0.2-0.2,0.5-0.3l0.5-0.2c0.2-0.1,0.3-0.1,0.3-0.1
				c0.1,0,0.2,0.1,0.2,0.2c0.8,1.9,1.4,4,1.8,6.2c0,0.1,0,0.1,0,0.1c0,0.1-0.2,0.2-0.5,0.4l-0.6,0.2c-0.3,0.1-0.4,0.2-0.5,0.2
				c-0.1,0-0.2-0.1-0.2-0.3C259.5,90.5,258.9,88.5,258.2,86.5z M267.1,87.6h6.7v-5c0-2.7-0.1-4.6-0.3-5.9c0.9,0,1.6,0.1,2.3,0.3
				c0.3,0.1,0.5,0.2,0.5,0.3c0,0.1-0.1,0.3-0.2,0.8c-0.2,0.8-0.3,2.3-0.3,4.4v5.1h5l5.7-0.1c0.2,0,0.3,0.1,0.3,0.3v1.4
				c0,0.2-0.1,0.3-0.3,0.3l-5.7-0.1h-5v9.8h3.6l5.7-0.1c0.2,0,0.3,0.1,0.3,0.3v1.4c0,0.2-0.1,0.3-0.3,0.3l-5.7-0.1h-3.6v11.3h6
				l6.2-0.1c0.2,0,0.3,0.1,0.3,0.3v1.4c0,0.2-0.1,0.3-0.3,0.3l-6.2-0.1h-14.7l-6.2,0.1c-0.2,0-0.3-0.1-0.3-0.3v-1.4
				c0-0.2,0.1-0.3,0.3-0.3l6.2,0.1h6.6V101h-3.6l-5.7,0.1c-0.2,0-0.3-0.1-0.3-0.3v-1.4c0-0.2,0.1-0.3,0.3-0.3l5.7,0.1h3.6v-9.8h-7.4
				c-1.1,2.6-2.2,4.8-3.4,6.6c-0.2,0.3-0.3,0.5-0.4,0.5c-0.1,0-0.2-0.1-0.5-0.2c-0.3-0.2-0.8-0.3-1.3-0.5c1.4-1.9,2.6-4.2,3.8-6.9
				c1-2.4,1.7-4.5,2.1-6.5c0.1-0.5,0.2-1.1,0.2-1.7c0-0.1,0-0.3,0-0.4c0.8,0.1,1.5,0.3,2.1,0.6c0.3,0.1,0.4,0.2,0.4,0.4
				c0,0.2-0.1,0.4-0.3,0.5c-0.2,0.2-0.4,0.6-0.5,1.3C268.2,84.3,267.8,85.8,267.1,87.6z"/>
		</g>
	</g>
	<g>
		<g>
			<path class="st0" d="M529.7,82.7h-13.1l-5.9,0.1c-0.2,0-0.3-0.1-0.3-0.3V81c0-0.2,0.1-0.3,0.3-0.3l5.9,0.1H542l5.9-0.1
				c0.2,0,0.3,0.1,0.3,0.3v1.5c0,0.2-0.1,0.3-0.3,0.3l-5.9-0.1H532c-0.7,1.4-1.5,2.8-2.3,4.3v22.1l0.1,6.4c0,0.2-0.1,0.3-0.3,0.3
				h-1.7c-0.2,0-0.3-0.1-0.3-0.3l0.1-6.4V90.2c-3.9,5.3-9.3,9.9-16.3,13.8c-0.3,0.1-0.4,0.2-0.5,0.2c-0.1,0-0.3-0.2-0.5-0.5
				c-0.3-0.4-0.7-0.8-1.1-1.1c3.3-1.7,6-3.4,8.2-5.1c4-3,7.3-6.4,10-10.3C528.1,86,528.9,84.5,529.7,82.7z M549.7,102.1
				c-0.4,0.4-0.8,0.8-1,1.2c-0.2,0.3-0.3,0.5-0.5,0.5c-0.1,0-0.3-0.1-0.6-0.2c-5.5-2.8-10.3-6.9-14.4-12.2c-0.1-0.1-0.1-0.1-0.1-0.2
				c0-0.1,0.2-0.3,0.5-0.5l0.6-0.4c0.2-0.1,0.3-0.2,0.4-0.2s0.2,0.1,0.3,0.2c2,2.7,4.5,5.2,7.5,7.4
				C544.8,99.5,547.2,101,549.7,102.1z"/>
			<path class="st0" d="M567.8,94.9h1.3l4.7-0.1c0.2,0,0.3,0.1,0.3,0.3v1.4c0,0.2-0.1,0.3-0.3,0.3l-4.7-0.1h-1.4l0,0.2
				c1.3,3.4,3.5,6.5,6.4,9.4c-0.4,0.2-0.8,0.5-1.1,0.9c-0.2,0.3-0.4,0.4-0.5,0.4c-0.1,0-0.2-0.1-0.5-0.4c-2.1-2.4-3.6-4.8-4.7-7.5
				c-1,5.4-3.3,10-7,13.9c-0.3,0.3-0.4,0.4-0.6,0.4c-0.1,0-0.3-0.1-0.5-0.4s-0.6-0.6-1.1-0.9c4-3.8,6.5-8.5,7.4-14.2
				c0.1-0.6,0.2-1.3,0.2-1.8h-2.3l-4.7,0.1c-0.2,0-0.3-0.1-0.3-0.3v-1.4c0-0.2,0.1-0.3,0.3-0.3l4.7,0.1h2.5c0.1-1.6,0.2-4,0.2-7.2
				h-1.9l-4.3,0.1c-0.2,0-0.3-0.1-0.3-0.3v-1.4c0-0.2,0.1-0.3,0.3-0.3l4.3,0.1h2v-3.6c0-1.9-0.1-3.5-0.3-4.6c0.9,0,1.7,0.1,2.2,0.2
				c0.3,0.1,0.5,0.2,0.5,0.4c0,0.2-0.1,0.4-0.2,0.8c-0.1,0.3-0.2,0.9-0.2,1.9c0,1.1-0.1,2.7-0.1,5h0.8l4.3-0.1
				c0.2,0,0.3,0.1,0.3,0.3v1.4c0,0.2-0.1,0.3-0.3,0.3l-4.3-0.1h-0.8c0,0.5-0.1,1.3-0.1,2.4C567.9,92.3,567.9,93.9,567.8,94.9z
				 M581.5,79.1h6.7l5.1-0.1c0.2,0,0.3,0.1,0.3,0.3l-0.1,5.4v11.9l0.1,5.4c0,0.2-0.1,0.3-0.3,0.3l-4.9-0.1v9.3
				c0,0.6,0.1,1.1,0.2,1.3c0.1,0.3,0.4,0.4,0.7,0.5c0.5,0.1,1.3,0.2,2.5,0.2c1.4,0,2.3-0.2,2.9-0.7c0.5-0.4,0.9-1,1.1-1.9
				c0.1-0.6,0.2-1.6,0.3-3.1c0.3,0.3,0.8,0.6,1.3,0.8c0.4,0.2,0.5,0.4,0.5,0.6c0,0,0,0.2,0,0.3c-0.2,1.5-0.4,2.6-0.7,3.2
				c-0.2,0.6-0.6,1.1-1.1,1.4c-0.9,0.7-2.4,1.1-4.4,1.1c-1.6,0-2.8-0.1-3.7-0.3c-1.1-0.3-1.6-1.2-1.6-2.7v-10.2h-3.9
				c-0.6,7.2-4.4,11.8-11.4,13.8c-0.3,0.1-0.5,0.1-0.5,0.1c-0.2,0-0.4-0.2-0.6-0.5c-0.2-0.3-0.6-0.7-1.1-1
				c7.3-1.6,11.1-5.7,11.6-12.4l-4.2,0.1c-0.2,0-0.3-0.1-0.3-0.3l0.1-5.4V84.8l-0.1-5.4c0-0.2,0.1-0.3,0.3-0.3L581.5,79.1z
				 M591.5,81H578v5.2h13.6V81z M591.5,87.9H578v5.2h13.6V87.9z M591.5,94.8H578v5.6h13.6V94.8z"/>
			<path class="st0" d="M606.6,114.8c2.6-1.8,4.6-3.9,5.9-6.3c0.3-0.6,0.6-1.2,0.6-1.6c0.7,0.3,1.3,0.6,1.8,0.9
				c0.2,0.2,0.3,0.3,0.3,0.5c0,0.1-0.1,0.3-0.3,0.5c-0.3,0.2-0.6,0.5-0.7,0.7c-1.5,2.6-3.3,4.7-5.4,6.3c-0.3,0.2-0.5,0.3-0.6,0.3
				c-0.1,0-0.3-0.1-0.5-0.3C607.4,115.2,607,114.9,606.6,114.8z M614.9,79.1h5.2l4.7-0.1c0.2,0,0.3,0.1,0.3,0.3l-0.1,5.8v14l0.1,5.9
				c0,0.2-0.1,0.3-0.3,0.3l-4.7-0.1h-5.2l-4.7,0.1c-0.2,0-0.3-0.1-0.3-0.3l0.1-5.9v-14l-0.1-5.8c0-0.2,0.1-0.3,0.3-0.3L614.9,79.1z
				 M611.9,87.1h11.2v-6.3h-11.2V87.1z M611.9,88.8v6.3h11.2v-6.3H611.9z M611.9,96.9v6.6h11.2v-6.6H611.9z M627.5,113.9
				c-0.5,0.3-0.9,0.6-1.2,0.9c-0.2,0.3-0.4,0.4-0.5,0.4c-0.1,0-0.3-0.1-0.5-0.4c-2-1.9-3.7-4.1-5.2-6.5c0-0.1-0.1-0.2-0.1-0.2
				c0-0.1,0.2-0.2,0.5-0.4l0.6-0.3c0.2-0.1,0.3-0.2,0.4-0.2c0.1,0,0.1,0.1,0.2,0.2C623.2,109.8,625.1,112,627.5,113.9z M631,81.2
				c0.7,0,1.4,0.1,2.2,0.2c0.3,0,0.4,0.2,0.4,0.3c0,0.1-0.1,0.4-0.2,0.6c-0.1,0.4-0.2,1.9-0.2,4.5V98l0.1,6.4c0,0.2-0.1,0.3-0.3,0.3
				h-1.6c-0.2,0-0.3-0.1-0.3-0.3l0.1-6.4V87C631.2,84.2,631.2,82.3,631,81.2z M634.4,113.2c1.2,0.1,2.6,0.2,4.1,0.2
				c1,0,1.6-0.2,1.9-0.5c0.3-0.3,0.5-0.9,0.5-1.8V83.1c0-2.4-0.1-4.1-0.3-5.1c0.8,0,1.6,0.1,2.4,0.2c0.3,0,0.5,0.2,0.5,0.3
				c0,0.2-0.1,0.5-0.2,0.8c-0.2,0.5-0.3,1.7-0.3,3.6v22.6l0,5.9c0,1.6-0.4,2.7-1.1,3.2c-0.5,0.3-1,0.5-1.6,0.6
				c-0.6,0.1-1.6,0.2-3.1,0.2c-0.2,0-0.6,0-1.1,0c-0.4,0-0.6,0-0.6-0.1c-0.1-0.1-0.2-0.3-0.3-0.6C635,114.2,634.7,113.7,634.4,113.2
				z"/>
			<path class="st0" d="M657.4,86.4l0.7,0.2c0.3,0.1,0.5,0.2,0.5,0.3c0,0,0,0.1,0,0.1c-0.3,3.5-1,6.5-2.1,8.8c0,0.1-0.1,0.2-0.2,0.2
				c-0.1,0-0.2,0-0.3-0.1l-0.7-0.3c-0.3-0.2-0.5-0.3-0.5-0.4c0-0.1,0-0.1,0.1-0.3c1-2.4,1.7-5.2,2-8.5c0-0.2,0.1-0.2,0.2-0.2
				C657.1,86.3,657.2,86.3,657.4,86.4z M660.3,76.8c0.8,0,1.5,0.1,2.3,0.2c0.3,0.1,0.5,0.2,0.5,0.4c0,0.1-0.1,0.3-0.2,0.8
				c-0.2,0.6-0.3,2-0.3,4.4v25.6l0.1,7.8c0,0.2-0.1,0.3-0.3,0.3h-1.5c-0.2,0-0.3-0.1-0.3-0.3l0.1-7.8V82.6
				C660.7,79.9,660.5,77.9,660.3,76.8z M664.3,86.5c0-0.1,0-0.2,0-0.2c0-0.1,0.2-0.2,0.5-0.3l0.5-0.2c0.2-0.1,0.3-0.1,0.3-0.1
				c0.1,0,0.2,0.1,0.2,0.2c0.8,1.9,1.4,4,1.8,6.2c0,0.1,0,0.1,0,0.1c0,0.1-0.2,0.2-0.5,0.4l-0.6,0.2c-0.3,0.1-0.4,0.2-0.5,0.2
				c-0.1,0-0.2-0.1-0.2-0.3C665.5,90.5,665,88.5,664.3,86.5z M673.2,87.6h6.7v-5c0-2.7-0.1-4.6-0.3-5.9c0.9,0,1.6,0.1,2.3,0.3
				c0.3,0.1,0.5,0.2,0.5,0.3c0,0.1-0.1,0.3-0.2,0.8c-0.2,0.8-0.3,2.3-0.3,4.4v5.1h5l5.7-0.1c0.2,0,0.3,0.1,0.3,0.3v1.4
				c0,0.2-0.1,0.3-0.3,0.3l-5.7-0.1h-5v9.8h3.6l5.7-0.1c0.2,0,0.3,0.1,0.3,0.3v1.4c0,0.2-0.1,0.3-0.3,0.3l-5.7-0.1h-3.6v11.3h6
				l6.2-0.1c0.2,0,0.3,0.1,0.3,0.3v1.4c0,0.2-0.1,0.3-0.3,0.3l-6.2-0.1h-14.7l-6.2,0.1c-0.2,0-0.3-0.1-0.3-0.3v-1.4
				c0-0.2,0.1-0.3,0.3-0.3l6.2,0.1h6.6V101h-3.6l-5.7,0.1c-0.2,0-0.3-0.1-0.3-0.3v-1.4c0-0.2,0.1-0.3,0.3-0.3l5.7,0.1h3.6v-9.8h-7.4
				c-1.1,2.6-2.2,4.8-3.4,6.6c-0.2,0.3-0.3,0.5-0.4,0.5c-0.1,0-0.2-0.1-0.5-0.2c-0.3-0.2-0.8-0.3-1.3-0.5c1.4-1.9,2.6-4.2,3.8-6.9
				c1-2.4,1.7-4.5,2.1-6.5c0.1-0.5,0.2-1.1,0.2-1.7c0-0.1,0-0.3,0-0.4c0.8,0.1,1.5,0.3,2.1,0.6c0.3,0.1,0.4,0.2,0.4,0.4
				c0,0.2-0.1,0.4-0.3,0.5c-0.2,0.2-0.4,0.6-0.5,1.3C674.3,84.3,673.8,85.8,673.2,87.6z"/>
		</g>
	</g>
	<path class="st0" d="M725.8,60.6v70H478.1v-70H725.8 M729.8,56.6H474.1v78h255.7V56.6L729.8,56.6z"/>
	<path class="st0" d="M343.9,60.6v70H96.3v-70H343.9 M347.9,56.6H92.3v78h255.7V56.6L347.9,56.6z"/>
	
		<rect x="408.5" y="71.2" transform="matrix(0.7071 -0.7071 0.7071 0.7071 53.0703 318.1181)" class="st0" width="4" height="47.5"/>
	<rect x="386.8" y="93" transform="matrix(0.7071 -0.7071 0.7071 0.7071 53.0703 318.1181)" class="st0" width="47.5" height="4"/>
</g>
</svg>
