<?xml version="1.0" encoding="utf-8"?>
<!-- Generator: Adobe Illustrator 25.0.1, SVG Export Plug-In . SVG Version: 6.00 Build 0)  -->
<svg version="1.1" id="レイヤー_1" xmlns="http://www.w3.org/2000/svg" xmlns:xlink="http://www.w3.org/1999/xlink" x="0px"
	 y="0px" viewBox="0 0 845.02 492.22" style="enable-background:new 0 0 845.02 492.22;" xml:space="preserve">
<style type="text/css">
	.st0{fill:#5D0512;}
	.st1{fill:#DBAAAF;}
	.st2{fill:#FFFFFF;}
	.st3{fill:#68C2BB;}
	.st4{fill:#871D29;}
	.st5{fill:#595757;}
</style>
<rect x="387.86" y="24.3" class="st0" width="108.1" height="443.61"/>
<rect x="496.37" y="24.6" class="st1" width="108.1" height="443.31"/>
<g>
	<rect x="604.47" y="24.6" class="st2" width="108.1" height="443.31"/>
</g>
<rect x="712.57" y="24.6" class="st3" width="108.1" height="443.31"/>
<rect x="24.35" y="24.3" class="st4" width="363.51" height="443.61"/>
<g>
	<g>
		<path class="st2" d="M42.06,98.84l-4.07-0.61v3.02l4.07,0.61v0.74l-4.07-0.61v2.17l-0.7-0.11v-2.17l-2.97-0.44v2.18l-0.7-0.11
			v-2.17l-3.85-0.59V100l3.85,0.59v-3.02l-3.85-0.59v-0.74l3.85,0.59v-2.17l0.7,0.11v2.17l2.97,0.44V95.2l0.7,0.11v2.17l4.07,0.61
			V98.84z M34.32,97.67v3.02l2.97,0.44v-3.02L34.32,97.67z"/>
		<path class="st2" d="M38.79,84.23c2.14,0,3.47,1.62,3.47,3.56c0,1.93-1.33,3.56-3.47,3.56c-1.34,0-2.62-0.7-3.11-2.01
			c-0.89,1.68-2.47,1.71-2.84,1.71c-1.86,0-3.24-1.42-3.24-3.26s1.38-3.26,3.24-3.26c0.37,0,1.95,0.04,2.84,1.71
			C36.18,84.93,37.45,84.23,38.79,84.23z M38.79,85.08c-1.62,0-2.76,1.12-2.76,2.71s1.14,2.71,2.76,2.71c1.51,0,2.73-1.05,2.73-2.71
			S40.31,85.08,38.79,85.08z M32.84,85.37c-1.46,0-2.51,1.07-2.51,2.41c0,1.34,1.05,2.41,2.51,2.41c1.46,0,2.49-1.11,2.49-2.41
			S34.3,85.37,32.84,85.37z"/>
		<path class="st2" d="M30.5,73.26v7.46h-0.74v-8.9l12.5,8.79l-0.46,0.61L30.5,73.26z"/>
		<path class="st2" d="M30.5,65.4v1.92l-0.74-0.37v-2.36h12.29v0.81H30.5z"/>
		<path class="st2" d="M28.62,51.75v-0.74h13.44v0.74h-1.35c1.16,0.76,1.55,1.95,1.55,2.91c0,1.9-1.36,3.69-4,3.69
			c-2.75,0-3.89-1.86-3.89-3.69c0-1.36,0.63-2.32,1.47-2.91H28.62z M38.24,57.58c2.19,0,3.32-1.44,3.32-2.95
			c0-1.49-1.12-2.91-3.32-2.91c-1.75,0-3.17,1.09-3.17,2.95C35.07,56.21,36.14,57.58,38.24,57.58z"/>
		<path class="st2" d="M42.06,47.47l-5.2-4.72c-0.48-0.42-1-0.9-1.66-1.34c-0.53-0.35-1.23-0.72-2.1-0.72
			c-1.55,0-2.76,1.16-2.76,2.86c0,0.66,0.17,1.48,0.9,2.12c0.41,0.37,1.11,0.72,2.01,0.72v0.81c-1.11,0-2.01-0.42-2.58-0.98
			c-0.55-0.53-1.07-1.4-1.07-2.73c0-2.12,1.51-3.65,3.5-3.65c1.05,0,1.86,0.41,2.53,0.88c0.39,0.28,0.94,0.74,1.33,1.09l4.37,3.94
			V39.9h0.74V47.47z"/>
		<path class="st2" d="M41.78,33.44l-3.89-2.73c0.24,0.57,0.33,1.13,0.33,1.68c0,2.43-1.79,4.28-4.29,4.28
			c-2.45,0-4.33-1.81-4.33-4.39c0-2.49,1.82-4.35,4.35-4.35c1.33,0,2.21,0.59,2.51,0.79l5.8,4.09L41.78,33.44z M33.91,35.82
			c2.1,0,3.57-1.51,3.57-3.52c0-2.05-1.53-3.52-3.57-3.52c-2.03,0-3.58,1.49-3.58,3.52S31.9,35.82,33.91,35.82z"/>
	</g>
</g>
<g>
	<g>
		<path class="st2" d="M406.89,98.13l-4.07-0.61v3.02l4.07,0.61v0.74l-4.07-0.61v2.17l-0.7-0.11v-2.17l-2.97-0.44v2.18l-0.7-0.11
			v-2.17l-3.85-0.59v-0.74l3.85,0.59v-3.02l-3.85-0.59v-0.74l3.85,0.59v-2.17l0.7,0.11v2.17l2.97,0.44V94.5l0.7,0.11v2.17l4.07,0.61
			V98.13z M399.15,96.97V100l2.97,0.44v-3.02L399.15,96.97z"/>
		<path class="st2" d="M395.33,83.48v4.13l3.32,1.03c-0.07-0.3-0.11-0.54-0.11-0.83c0-2.62,1.81-4.28,4.26-4.28
			c2.65,0,4.29,1.97,4.29,4.37c0,1.29-0.5,2.8-2.03,3.69l-0.29-0.72c1.01-0.68,1.58-1.75,1.58-2.99c0-2.03-1.48-3.5-3.54-3.5
			c-2.08,0-3.54,1.42-3.54,3.46c0,0.77,0.2,1.38,0.53,1.92l-5.22-1.58v-4.7H395.33z"/>
		<path class="st2" d="M393.45,73.48v-0.74h13.44v0.74h-1.35c1.16,0.76,1.55,1.95,1.55,2.91c0,1.9-1.36,3.69-4,3.69
			c-2.75,0-3.89-1.86-3.89-3.69c0-1.36,0.63-2.32,1.47-2.91H393.45z M403.07,79.3c2.19,0,3.32-1.44,3.32-2.95
			c0-1.49-1.12-2.91-3.32-2.91c-1.75,0-3.17,1.09-3.17,2.95C399.9,77.94,400.97,79.3,403.07,79.3z"/>
		<path class="st2" d="M395.92,62.36c1.14-0.96,2.8-1.57,4.83-1.57c2.03,0,3.69,0.61,4.83,1.57c1.05,0.88,1.51,1.95,1.51,2.89
			s-0.46,2.01-1.51,2.89c-1.14,0.96-2.8,1.57-4.83,1.57c-2.03,0-3.69-0.61-4.83-1.57c-1.2-0.99-1.49-2.1-1.49-2.89
			S394.72,63.35,395.92,62.36z M405.1,62.97c-0.98-0.79-2.4-1.33-4.35-1.33c-1.97,0-3.37,0.53-4.35,1.33
			c-0.55,0.44-1.24,1.2-1.24,2.29s0.68,1.84,1.24,2.29c0.98,0.79,2.38,1.33,4.35,1.33c1.95,0,3.37-0.53,4.35-1.33
			c1.12-0.9,1.25-1.86,1.25-2.29C406.35,64.83,406.23,63.87,405.1,62.97z"/>
		<path class="st2" d="M395.33,50.43v4.13l3.32,1.03c-0.07-0.3-0.11-0.54-0.11-0.83c0-2.62,1.81-4.28,4.26-4.28
			c2.65,0,4.29,1.97,4.29,4.37c0,1.29-0.5,2.8-2.03,3.69l-0.29-0.72c1.01-0.68,1.58-1.75,1.58-2.99c0-2.03-1.48-3.5-3.54-3.5
			c-2.08,0-3.54,1.42-3.54,3.46c0,0.77,0.2,1.38,0.53,1.92l-5.22-1.58v-4.7H395.33z"/>
		<path class="st2" d="M395.33,42.87v1.92l-0.74-0.37v-2.36h12.29v0.81H395.33z"/>
		<path class="st2" d="M406.89,35.56l-5.2-4.72c-0.48-0.42-1-0.9-1.66-1.34c-0.53-0.35-1.23-0.72-2.1-0.72
			c-1.55,0-2.76,1.16-2.76,2.86c0,0.66,0.17,1.48,0.9,2.12c0.41,0.37,1.11,0.72,2.01,0.72v0.81c-1.11,0-2.01-0.42-2.58-0.98
			c-0.55-0.53-1.07-1.4-1.07-2.73c0-2.12,1.51-3.65,3.5-3.65c1.05,0,1.86,0.41,2.53,0.88c0.39,0.28,0.94,0.74,1.33,1.09l4.37,3.94
			v-5.86h0.74V35.56z"/>
	</g>
</g>
<g>
	<g>
		<path class="st2" d="M514.81,90.98l-4.07-0.61v3.02l4.07,0.61v0.74l-4.07-0.61v2.17l-0.7-0.11v-2.17l-2.97-0.44v2.18l-0.7-0.11
			v-2.17l-3.85-0.59v-0.74l3.85,0.59V89.7l-3.85-0.59v-0.74l3.85,0.59v-2.17l0.7,0.11v2.17l2.97,0.44v-2.18l0.7,0.11v2.17l4.07,0.61
			V90.98z M507.07,89.82v3.02l2.97,0.44v-3.02L507.07,89.82z"/>
		<path class="st2" d="M501.38,77.53V76.8h13.44v0.74h-1.35c1.16,0.76,1.55,1.95,1.55,2.91c0,1.9-1.36,3.69-4,3.69
			c-2.75,0-3.89-1.86-3.89-3.69c0-1.36,0.63-2.32,1.47-2.91H501.38z M511,83.36c2.19,0,3.32-1.44,3.32-2.95
			c0-1.49-1.12-2.91-3.32-2.91c-1.75,0-3.17,1.09-3.17,2.95C507.83,81.99,508.9,83.36,511,83.36z"/>
		<path class="st2" d="M501.38,72.29h7.22c-0.98-0.72-1.47-1.75-1.47-2.95c0-2.27,1.7-3.65,3.87-3.65c2.21,0,4.02,1.4,4.02,3.69
			c0,1.86-1.18,2.69-1.55,2.91h1.35v0.74h-13.44V72.29z M511,66.47c-2.07,0-3.17,1.36-3.17,2.91c0,1.48,1.05,2.95,3.13,2.95
			c1.88,0,3.35-1.03,3.35-2.93S512.84,66.47,511,66.47z"/>
		<path class="st2" d="M507.29,56.29v-0.74h7.52v0.74h-1.35c1.16,0.76,1.55,1.95,1.55,2.93c0,1.97-1.49,3.67-3.96,3.67
			c-2.32,0-3.93-1.47-3.93-3.67c0-1.18,0.46-2.21,1.47-2.93H507.29z M511,62.12c1.7,0,3.32-1.05,3.32-2.95
			c0-1.88-1.58-2.91-3.32-2.91c-2.23,0-3.17,1.64-3.17,2.93C507.83,60.68,508.95,62.12,511,62.12z"/>
		<path class="st2" d="M507.29,45.67v-0.74h7.52v0.74h-1.35c1.16,0.76,1.55,1.95,1.55,2.93c0,1.97-1.49,3.67-3.96,3.67
			c-2.32,0-3.93-1.47-3.93-3.67c0-1.18,0.46-2.21,1.47-2.93H507.29z M511,51.49c1.7,0,3.32-1.05,3.32-2.95
			c0-1.88-1.58-2.91-3.32-2.91c-2.23,0-3.17,1.64-3.17,2.93C507.83,50.06,508.95,51.49,511,51.49z"/>
		<path class="st2" d="M507.29,35.05v-0.74h7.52v0.74h-1.35c1.16,0.76,1.55,1.95,1.55,2.93c0,1.97-1.49,3.67-3.96,3.67
			c-2.32,0-3.93-1.47-3.93-3.67c0-1.18,0.46-2.21,1.47-2.93H507.29z M511,40.87c1.7,0,3.32-1.05,3.32-2.95
			c0-1.88-1.58-2.91-3.32-2.91c-2.23,0-3.17,1.64-3.17,2.93C507.83,39.44,508.95,40.87,511,40.87z"/>
		<path class="st2" d="M507.99,29.81h6.82v0.74h-6.82v0.85h-0.7v-0.85h-3.57c-2.12,0-2.56-1.09-2.56-1.97
			c0-0.31,0.07-0.52,0.11-0.65h0.68c-0.07,0.18-0.09,0.35-0.09,0.57c0,0.64,0.28,1.31,2.01,1.31h3.43v-1.88h0.7V29.81z"/>
	</g>
</g>
<g>
	<g>
		<path class="st5" d="M622.32,63.14l-4.07-0.61v3.02l4.07,0.61v0.74l-4.07-0.61v2.17l-0.7-0.11v-2.17l-2.97-0.44v2.18l-0.7-0.11
			v-2.17l-3.85-0.59V64.3l3.85,0.59v-3.02l-3.85-0.59v-0.74l3.85,0.59v-2.17l0.7,0.11v2.17l2.97,0.44v-2.18l0.7,0.11v2.17l4.07,0.61
			V63.14z M614.58,61.98V65l2.97,0.44v-3.02L614.58,61.98z"/>
		<path class="st5" d="M615.5,55.08h6.82v0.74h-6.82v0.85h-0.7v-0.85h-3.57c-2.12,0-2.56-1.09-2.56-1.97c0-0.31,0.07-0.52,0.11-0.65
			h0.68c-0.07,0.18-0.09,0.35-0.09,0.57c0,0.64,0.28,1.31,2.01,1.31h3.43V53.2h0.7V55.08z"/>
		<path class="st5" d="M615.5,50.02h6.82v0.74h-6.82v0.85h-0.7v-0.85h-3.57c-2.12,0-2.56-1.09-2.56-1.97c0-0.31,0.07-0.52,0.11-0.65
			h0.68c-0.07,0.18-0.09,0.35-0.09,0.57c0,0.64,0.28,1.31,2.01,1.31h3.43v-1.88h0.7V50.02z"/>
		<path class="st5" d="M615.5,44.97h6.82v0.74h-6.82v0.85h-0.7v-0.85h-3.57c-2.12,0-2.56-1.09-2.56-1.97c0-0.31,0.07-0.52,0.11-0.65
			h0.68c-0.07,0.18-0.09,0.35-0.09,0.57c0,0.64,0.28,1.31,2.01,1.31h3.43v-1.88h0.7V44.97z"/>
		<path class="st5" d="M615.5,39.92h6.82v0.74h-6.82v0.85h-0.7v-0.85h-3.57c-2.12,0-2.56-1.09-2.56-1.97c0-0.31,0.07-0.52,0.11-0.65
			h0.68c-0.07,0.18-0.09,0.35-0.09,0.57c0,0.64,0.28,1.31,2.01,1.31h3.43v-1.88h0.7V39.92z"/>
		<path class="st5" d="M615.5,34.86h6.82v0.74h-6.82v0.85h-0.7V35.6h-3.57c-2.12,0-2.56-1.09-2.56-1.97c0-0.31,0.07-0.52,0.11-0.65
			h0.68c-0.07,0.18-0.09,0.35-0.09,0.57c0,0.64,0.28,1.31,2.01,1.31h3.43v-1.88h0.7V34.86z"/>
		<path class="st5" d="M615.5,29.81h6.82v0.74h-6.82v0.85h-0.7v-0.85h-3.57c-2.12,0-2.56-1.09-2.56-1.97c0-0.31,0.07-0.52,0.11-0.65
			h0.68c-0.07,0.18-0.09,0.35-0.09,0.57c0,0.64,0.28,1.31,2.01,1.31h3.43v-1.88h0.7V29.81z"/>
	</g>
</g>
<g>
	<g>
		<path class="st2" d="M730.26,96.11l-4.07-0.61v3.02l4.07,0.61v0.74l-4.07-0.61v2.17l-0.7-0.11v-2.17l-2.97-0.44v2.18l-0.7-0.11
			v-2.17l-3.85-0.59v-0.74l3.85,0.59v-3.02l-3.85-0.59v-0.74l3.85,0.59v-2.17l0.7,0.11v2.17l2.97,0.44v-2.18l0.7,0.11v2.17
			l4.07,0.61V96.11z M722.52,94.95v3.02l2.97,0.44v-3.02L722.52,94.95z"/>
		<path class="st2" d="M718.28,83.94l3.87,2.73c-0.24-0.57-0.33-1.12-0.33-1.68c0-2.43,1.79-4.28,4.3-4.28
			c2.47,0,4.35,1.82,4.35,4.39c0,2.49-1.81,4.35-4.37,4.35c-1.33,0-2.21-0.59-2.51-0.79l-5.79-4.09L718.28,83.94z M726.13,81.56
			c-2.1,0-3.58,1.49-3.58,3.52c0,2.05,1.53,3.52,3.58,3.52c2.07,0,3.59-1.51,3.59-3.52C729.72,83.05,728.15,81.56,726.13,81.56z"/>
		<path class="st2" d="M726.99,70.29c2.14,0,3.47,1.62,3.47,3.56c0,1.93-1.33,3.56-3.47,3.56c-1.34,0-2.62-0.7-3.11-2.01
			c-0.89,1.68-2.47,1.71-2.84,1.71c-1.86,0-3.24-1.42-3.24-3.26c0-1.84,1.38-3.26,3.24-3.26c0.37,0,1.95,0.04,2.84,1.71
			C724.38,70.99,725.65,70.29,726.99,70.29z M726.99,71.14c-1.62,0-2.76,1.12-2.76,2.71c0,1.58,1.14,2.71,2.76,2.71
			c1.51,0,2.73-1.05,2.73-2.71C729.72,72.19,728.5,71.14,726.99,71.14z M721.04,71.43c-1.46,0-2.51,1.07-2.51,2.41
			c0,1.34,1.05,2.41,2.51,2.41c1.46,0,2.49-1.11,2.49-2.41C723.53,72.54,722.5,71.43,721.04,71.43z"/>
		<path class="st2" d="M724.51,60.33c-0.57,0.5-1.24,1.36-1.24,2.6c0,1.84,1.42,3.13,3.26,3.13c2.16,0,3.23-1.64,3.23-3.1
			c0-1.2-0.7-2.14-1.34-2.73h0.99c0.44,0.5,1.05,1.42,1.05,2.75c0,2.27-1.68,3.85-3.91,3.85s-3.98-1.49-3.98-3.91
			c0-0.53,0.09-1.57,0.96-2.6H724.51z"/>
		<path class="st2" d="M730.26,57.32l-5.2-4.72c-0.48-0.42-1-0.9-1.66-1.34c-0.53-0.35-1.23-0.72-2.1-0.72
			c-1.55,0-2.76,1.16-2.76,2.86c0,0.66,0.17,1.48,0.9,2.12c0.41,0.37,1.11,0.72,2.01,0.72v0.81c-1.11,0-2.01-0.42-2.58-0.98
			c-0.55-0.53-1.07-1.4-1.07-2.73c0-2.12,1.51-3.65,3.5-3.65c1.05,0,1.86,0.41,2.53,0.88c0.39,0.28,0.94,0.74,1.33,1.09l4.37,3.94
			v-5.86h0.74V57.32z"/>
		<path class="st2" d="M716.82,45.15h7.22c-0.98-0.72-1.47-1.75-1.47-2.95c0-2.27,1.7-3.65,3.87-3.65c2.21,0,4.02,1.4,4.02,3.69
			c0,1.86-1.18,2.69-1.55,2.91h1.35v0.74h-13.44V45.15z M726.44,39.33c-2.07,0-3.17,1.36-3.17,2.91c0,1.48,1.05,2.95,3.13,2.95
			c1.88,0,3.35-1.03,3.35-2.93C729.76,40.36,728.28,39.33,726.44,39.33z"/>
		<path class="st2" d="M716.82,34.53h7.22c-0.98-0.72-1.47-1.75-1.47-2.95c0-2.27,1.7-3.65,3.87-3.65c2.21,0,4.02,1.4,4.02,3.69
			c0,1.86-1.18,2.69-1.55,2.91h1.35v0.74h-13.44V34.53z M726.44,28.7c-2.07,0-3.17,1.36-3.17,2.91c0,1.48,1.05,2.95,3.13,2.95
			c1.88,0,3.35-1.03,3.35-2.93S728.28,28.7,726.44,28.7z"/>
	</g>
</g>
</svg>
