<?xml version="1.0" encoding="utf-8"?>
<!-- Generator: Adobe Illustrator 25.0.1, SVG Export Plug-In . SVG Version: 6.00 Build 0)  -->
<svg version="1.1" id="レイヤー_1" xmlns="http://www.w3.org/2000/svg" xmlns:xlink="http://www.w3.org/1999/xlink" x="0px"
	 y="0px" viewBox="0 0 841.89 94.93" style="enable-background:new 0 0 841.89 94.93;" xml:space="preserve">
<style type="text/css">
	.st0{fill:#595757;}
	.st1{fill:#727171;}
	.st2{fill:#FFFFFF;}
	.st3{fill:#76242C;}
	.st4{fill:#DCDDDD;}
	.st5{fill:#A52226;}
</style>
<g>
	<g>
		<path class="st0" d="M812.67,65.7c-0.07,0.98-0.29,1.6-0.66,1.87c-0.28,0.19-0.61,0.32-0.99,0.39c-0.38,0.07-0.93,0.11-1.63,0.11
			c-0.79,0-1.36-0.04-1.7-0.11c-0.32-0.06-0.54-0.17-0.68-0.33c-0.13-0.17-0.22-0.37-0.26-0.6c-0.04-0.21-0.05-0.54-0.05-0.98v-3.79
			h-2.19c-0.05,1.68-0.46,3-1.24,3.94c-0.66,0.86-1.78,1.56-3.35,2.1c-0.15,0.04-0.23,0.06-0.24,0.06c-0.06,0-0.13-0.08-0.21-0.25
			c-0.12-0.19-0.29-0.38-0.5-0.56c1.68-0.47,2.84-1.08,3.49-1.85c0.68-0.82,1.03-1.96,1.06-3.44h-1.96l-2.12,0.03
			c-0.08,0-0.12-0.05-0.12-0.14v-0.67c0-0.08,0.04-0.12,0.12-0.12l2.12,0.03h8.53l2.12-0.03c0.08,0,0.12,0.04,0.12,0.12v0.67
			c0,0.09-0.04,0.14-0.12,0.14l-2.12-0.03h-2.42v3.56c0,0.6,0.05,0.96,0.15,1.08c0.12,0.16,0.73,0.24,1.83,0.24
			c0.84,0,1.38-0.09,1.64-0.27c0.18-0.12,0.3-0.33,0.37-0.64c0.05-0.25,0.08-0.64,0.1-1.19c0.14,0.12,0.35,0.22,0.63,0.31
			c0.13,0.04,0.2,0.06,0.23,0.08c0.03,0.03,0.05,0.07,0.05,0.14C812.68,65.6,812.68,65.64,812.67,65.7z M812.09,59.33
			c0,0.08-0.04,0.12-0.13,0.12h-0.72c-0.08,0-0.12-0.04-0.12-0.12v-2.3h-10.61v2.3c0,0.08-0.04,0.12-0.13,0.12h-0.72
			c-0.08,0-0.12-0.04-0.12-0.12l0.03-1.67v-0.52l-0.03-0.86c0-0.08,0.04-0.12,0.12-0.12l2.16,0.03h3.41v-0.22
			c0-0.77-0.04-1.31-0.11-1.61c0.38,0.02,0.72,0.05,1.02,0.1c0.13,0.01,0.19,0.06,0.19,0.12c0,0.04-0.03,0.13-0.1,0.28
			c-0.04,0.12-0.06,0.49-0.06,1.11v0.22h3.63l2.16-0.03c0.09,0,0.13,0.04,0.13,0.12l-0.03,0.76v0.63L812.09,59.33z M809.72,59.52
			c0,0.08-0.04,0.12-0.12,0.12l-2.03-0.03h-3.51l-2.03,0.03c-0.08,0-0.12-0.04-0.12-0.12v-0.65c0-0.09,0.04-0.14,0.12-0.14
			l2.03,0.03h3.51l2.03-0.03c0.08,0,0.12,0.05,0.12,0.14V59.52z"/>
		<path class="st0" d="M828.63,65.7c-0.16,1.63-0.67,2.44-1.51,2.44c-1,0-1.99-0.98-2.97-2.95c-0.96,1.17-2.08,2.14-3.36,2.9
			c-0.11,0.06-0.18,0.09-0.23,0.09c-0.06,0-0.15-0.07-0.27-0.22c-0.1-0.12-0.25-0.26-0.47-0.41c1.48-0.78,2.77-1.89,3.88-3.32
			c-0.69-1.68-1.12-3.77-1.28-6.28h-5.46v2.55h2.41l1.35-0.03c0.1,0,0.15,0.05,0.15,0.14l-0.1,1.64c-0.05,1.12-0.14,1.96-0.26,2.53
			c-0.19,0.89-0.72,1.33-1.58,1.33c-0.4,0-0.73-0.02-0.99-0.05c-0.13-0.02-0.21-0.04-0.24-0.08c-0.02-0.04-0.05-0.13-0.08-0.29
			c-0.08-0.32-0.17-0.54-0.25-0.66c0.6,0.09,1.08,0.14,1.44,0.14c0.24,0,0.42-0.05,0.54-0.16c0.13-0.13,0.23-0.34,0.29-0.63
			c0.1-0.42,0.18-1.43,0.24-3.02h-2.93c-0.02,1.1-0.09,2.08-0.22,2.94c-0.28,1.6-0.72,2.89-1.33,3.88
			c-0.09,0.14-0.14,0.21-0.18,0.21c-0.04,0-0.1-0.06-0.2-0.17c-0.16-0.17-0.35-0.32-0.57-0.44c0.68-0.98,1.13-2.26,1.35-3.83
			c0.14-1.01,0.21-2.22,0.21-3.63l-0.03-3.11c0-0.1,0.05-0.14,0.14-0.14l2.2,0.03h4.05l-0.01-0.75c-0.03-0.92-0.07-1.55-0.12-1.91
			c0.34,0.02,0.68,0.05,1.03,0.09c0.14,0.02,0.21,0.07,0.21,0.16c0,0.08-0.02,0.16-0.07,0.24c-0.06,0.16-0.09,0.51-0.09,1.05
			c0,0.1,0,0.2,0,0.32l0.02,0.79h2.63l2.18-0.03c0.08,0,0.12,0.05,0.12,0.14v0.68c0,0.08-0.04,0.12-0.12,0.12l-2.18-0.03h-2.58
			c0.12,2.07,0.46,3.86,1,5.38c0.48-0.74,0.89-1.51,1.22-2.3c0.23-0.55,0.37-1.01,0.42-1.41c0.36,0.1,0.66,0.2,0.88,0.32
			c0.13,0.07,0.19,0.13,0.19,0.21c0,0.05-0.06,0.15-0.19,0.3c-0.04,0.05-0.17,0.3-0.37,0.75c-0.47,1.11-1.05,2.16-1.74,3.13
			c0.38,0.88,0.81,1.57,1.29,2.09c0.39,0.42,0.73,0.63,1.01,0.63c0.44,0,0.69-0.75,0.75-2.24c0.11,0.12,0.29,0.26,0.54,0.41
			c0.19,0.1,0.28,0.2,0.28,0.31C828.65,65.57,828.64,65.62,828.63,65.7z M827.03,56c0.04,0.04,0.05,0.07,0.05,0.09
			c0,0.04-0.04,0.09-0.12,0.16l-0.33,0.27c-0.09,0.08-0.15,0.12-0.19,0.12c-0.04,0-0.07-0.02-0.11-0.07
			c-0.37-0.5-0.86-0.96-1.45-1.38c-0.06-0.04-0.08-0.08-0.08-0.11c0-0.04,0.04-0.08,0.11-0.15l0.31-0.24
			c0.08-0.06,0.13-0.08,0.15-0.08c0.03,0,0.06,0.01,0.1,0.04C826.04,55,826.55,55.45,827.03,56z"/>
	</g>
</g>
<g>
	<g>
		<g>
			<path class="st0" d="M158.02,42.97c0.74,0.07,1.6,0.11,2.57,0.11h5.55c0.36,0,0.62-0.04,0.76-0.11c0.1-0.05,0.17-0.08,0.22-0.08
				c0.06,0,0.12,0.03,0.2,0.09c0.25,0.19,0.44,0.37,0.58,0.55c0.07,0.1,0.11,0.17,0.11,0.23c0,0.06-0.04,0.12-0.14,0.19
				c-0.11,0.08-0.23,0.25-0.36,0.53c-0.75,1.68-1.67,3.1-2.78,4.25c-1.03,1.07-2.29,1.99-3.77,2.75c-0.09,0.04-0.16,0.07-0.22,0.07
				c-0.07,0-0.13-0.03-0.2-0.1c-0.23-0.2-0.52-0.36-0.87-0.48c3.36-1.62,5.61-3.91,6.75-6.9h-5.88c-0.92,0-1.65,0.03-2.19,0.08
				c-0.02,0-0.03,0-0.04,0c-0.1,0-0.17-0.07-0.2-0.2C158.07,43.64,158.04,43.32,158.02,42.97z M159.34,39.72
				c0.7,0.07,1.54,0.11,2.53,0.11h2.4c0.78,0,1.58-0.02,2.41-0.08c0.11,0,0.17,0.06,0.17,0.18c0.01,0.1,0.02,0.21,0.02,0.34
				c0,0.14-0.01,0.26-0.02,0.36c0,0.14-0.05,0.21-0.14,0.21c-0.02,0-0.04,0-0.05,0l-2.31-0.03h-2.53c-0.87,0-1.6,0.02-2.2,0.06
				c-0.02,0-0.03,0-0.04,0c-0.09,0-0.14-0.07-0.15-0.22C159.37,40.26,159.34,39.95,159.34,39.72z"/>
			<path class="st0" d="M173.59,40.86c0.85,0.08,1.84,0.12,2.98,0.12h5.49c0.35,0,0.61-0.05,0.78-0.14
				c0.06-0.04,0.12-0.05,0.18-0.05c0.08,0,0.15,0.02,0.22,0.07c0.26,0.18,0.49,0.39,0.7,0.64c0.06,0.08,0.08,0.15,0.08,0.22
				c0,0.1-0.04,0.18-0.13,0.26c-0.12,0.11-0.23,0.28-0.34,0.53c-0.73,1.92-1.74,3.61-3.04,5.08c-1.4,1.58-2.94,2.82-4.6,3.73
				c-0.09,0.06-0.18,0.09-0.26,0.09c-0.1,0-0.19-0.04-0.26-0.12c-0.21-0.21-0.48-0.39-0.81-0.53c1.19-0.59,2.21-1.23,3.06-1.92
				c0.64-0.52,1.29-1.16,1.95-1.91c1.33-1.49,2.3-3.15,2.92-4.95h-5.94c-0.9,0-1.77,0.03-2.6,0.1c-0.03,0-0.04,0-0.05,0
				c-0.13,0-0.2-0.08-0.23-0.25c0-0.04-0.01-0.21-0.04-0.5C173.61,41.11,173.6,40.96,173.59,40.86z"/>
			<path class="st0" d="M195.54,45.52c1.64,1.19,3.12,2.49,4.45,3.89c0.07,0.06,0.11,0.11,0.11,0.15s-0.03,0.1-0.09,0.17
				c-0.12,0.14-0.3,0.32-0.56,0.55c-0.05,0.05-0.09,0.07-0.13,0.07c-0.04,0-0.09-0.03-0.15-0.1c-1.23-1.4-2.65-2.71-4.28-3.93
				c-1.75,1.81-3.6,3.25-5.53,4.32c-0.09,0.05-0.16,0.08-0.2,0.08c-0.06,0-0.12-0.03-0.19-0.1c-0.14-0.17-0.41-0.36-0.8-0.56
				c2.16-1.07,4.06-2.47,5.71-4.2c1.11-1.18,2.09-2.57,2.95-4.16h-4.67c-0.56,0-1.3,0.03-2.23,0.09c-0.1,0-0.16-0.06-0.18-0.17
				c-0.06-0.29-0.09-0.62-0.09-0.99c0.5,0.04,1.3,0.06,2.4,0.06h4.5c0.45,0,0.74-0.04,0.89-0.13c0.03-0.02,0.07-0.03,0.11-0.03
				c0.06,0,0.13,0.03,0.2,0.08c0.23,0.18,0.44,0.39,0.64,0.63c0.04,0.05,0.05,0.1,0.05,0.14c0,0.07-0.04,0.14-0.13,0.21
				c-0.14,0.12-0.29,0.31-0.45,0.58C197.14,43.36,196.38,44.47,195.54,45.52z"/>
			<path class="st0" d="M211.95,43.28c-0.07,1.91-0.48,3.58-1.23,5c-0.71,1.27-1.71,2.33-3.02,3.19c-0.08,0.06-0.16,0.09-0.23,0.09
				c-0.06,0-0.12-0.02-0.18-0.06c-0.28-0.18-0.6-0.31-0.96-0.38c1.57-0.94,2.7-2.03,3.38-3.28c0.71-1.3,1.07-2.82,1.1-4.56h-3.79
				c-0.63,0.98-1.4,1.92-2.29,2.82c-0.06,0.06-0.13,0.09-0.2,0.09c-0.05,0-0.09-0.02-0.13-0.05c-0.27-0.17-0.55-0.28-0.83-0.33
				c1.51-1.44,2.7-3.08,3.55-4.93c0.39-0.87,0.6-1.56,0.64-2.08c0.45,0.12,0.85,0.28,1.2,0.48c0.08,0.05,0.11,0.1,0.11,0.17
				c0,0.07-0.04,0.15-0.13,0.23c-0.2,0.2-0.36,0.44-0.5,0.74c-0.41,0.9-0.71,1.52-0.91,1.86h5.57c0.56,0,1.47-0.02,2.76-0.07
				c0.02,0,0.04,0,0.05,0c0.11,0,0.17,0.06,0.17,0.19v0.74c0,0.12-0.07,0.18-0.2,0.18c-0.71-0.04-1.6-0.06-2.7-0.06H211.95z"/>
			<path class="st0" d="M221.13,43.77c0.29-0.16,0.52-0.29,0.7-0.37c0.05-0.02,0.08-0.03,0.11-0.03c0.06,0,0.11,0.04,0.17,0.11
				c0.54,0.69,0.96,1.41,1.27,2.17c0.03,0.07,0.04,0.11,0.04,0.14c0,0.05-0.04,0.09-0.11,0.14c-0.15,0.09-0.35,0.18-0.59,0.28
				c-0.04,0.02-0.07,0.02-0.1,0.02c-0.07,0-0.12-0.05-0.15-0.15C222.07,45.15,221.63,44.38,221.13,43.77z M228.96,42.94
				c0.54,0.15,0.92,0.31,1.15,0.48c0.08,0.06,0.11,0.12,0.11,0.19c0,0.06-0.03,0.12-0.1,0.18c-0.12,0.11-0.27,0.35-0.45,0.74
				c-0.73,1.67-1.49,3-2.28,3.99c-0.91,1.18-1.96,2.16-3.13,2.94c-0.07,0.05-0.14,0.08-0.2,0.08c-0.06,0-0.1-0.02-0.14-0.06
				c-0.24-0.18-0.51-0.31-0.81-0.38c1.44-0.94,2.6-1.97,3.48-3.09c0.88-1.12,1.58-2.39,2.1-3.81
				C228.81,43.88,228.9,43.45,228.96,42.94z M224.15,43.05c0.37-0.2,0.61-0.32,0.72-0.36c0.04-0.02,0.07-0.02,0.1-0.02
				c0.06,0,0.12,0.04,0.17,0.12c0.47,0.64,0.86,1.36,1.16,2.15c0.01,0.04,0.02,0.07,0.02,0.09c0,0.06-0.04,0.11-0.13,0.16
				c-0.21,0.12-0.42,0.21-0.62,0.29c-0.03,0.01-0.05,0.02-0.07,0.02c-0.06,0-0.11-0.05-0.15-0.16
				C224.99,44.4,224.59,43.64,224.15,43.05z"/>
			<path class="st0" d="M240.92,41.66c0.56,0.06,0.98,0.12,1.28,0.2c0.12,0.03,0.18,0.09,0.18,0.17c0,0.04-0.01,0.09-0.04,0.14
				c-0.06,0.11-0.09,0.25-0.11,0.43c-0.02,0.27-0.03,0.47-0.03,0.62l-0.02,1.01h2.07c0.99,0,1.97-0.03,2.93-0.08
				c0.01,0,0.02,0,0.05,0c0.08,0,0.12,0.06,0.12,0.19c0.01,0.1,0.02,0.22,0.02,0.36c0,0.13,0,0.24-0.02,0.33
				c0,0.1-0.01,0.16-0.03,0.19c-0.02,0.02-0.07,0.03-0.15,0.03c-0.99-0.03-1.97-0.05-2.95-0.05h-2.07c-0.08,1.36-0.31,2.45-0.7,3.28
				c-0.59,1.3-1.42,2.29-2.5,3c-0.07,0.05-0.13,0.08-0.17,0.08c-0.06,0-0.12-0.02-0.19-0.08c-0.29-0.21-0.61-0.35-0.95-0.41
				c0.76-0.44,1.37-0.93,1.83-1.46c0.35-0.41,0.66-0.9,0.93-1.47c0.39-0.83,0.61-1.81,0.64-2.94h-2.87c-0.86,0-1.73,0.03-2.59,0.09
				c-0.14,0-0.22-0.09-0.25-0.27c-0.05-0.35-0.08-0.64-0.09-0.88c0.87,0.06,1.86,0.09,2.98,0.09h2.85c0.01-0.19,0.02-0.42,0.02-0.7
				c0-0.25,0-0.48-0.02-0.68C241.07,42.4,241.01,42,240.92,41.66z M244.44,39.3c0.34,0.22,0.62,0.43,0.83,0.64
				c0.13,0.13,0.19,0.23,0.19,0.31c0,0.12-0.12,0.19-0.36,0.22c-0.08,0.02-0.37,0.1-0.89,0.25c-1.34,0.37-2.42,0.64-3.24,0.79
				c-1.31,0.26-2.66,0.45-4.04,0.58c-0.02,0-0.02,0-0.03,0c-0.12,0-0.2-0.07-0.25-0.2c-0.12-0.24-0.3-0.46-0.54-0.67
				c1.51-0.1,3.01-0.29,4.51-0.59c1.04-0.21,1.97-0.46,2.77-0.76C243.9,39.67,244.24,39.49,244.44,39.3z"/>
		</g>
	</g>
	<g>
		<path class="st1" d="M245.37,80c0-6.35-5-11.51-11.28-11.8v-0.03h-67.44v0.01c-6.47,0.08-11.69,5.34-11.69,11.82
			c0,6.49,5.22,11.75,11.69,11.82v0.01h67.44v-0.03C240.36,91.52,245.37,86.35,245.37,80z"/>
		<g>
			<g>
				<path class="st2" d="M178.26,83.39h2.08V76.3h-1.63v-0.67c0.8-0.14,1.39-0.34,1.87-0.63h0.78v8.4h1.89v0.86h-4.99V83.39z"/>
				<path class="st2" d="M185.43,77.26h1.02l1.04,3.93c0.15,0.63,0.27,1.22,0.4,1.83h0.05c0.16-0.61,0.29-1.2,0.47-1.83l1.07-3.93
					h1.01l1.08,3.93c0.16,0.63,0.31,1.22,0.47,1.83h0.05c0.15-0.61,0.27-1.2,0.43-1.83l1.02-3.93h0.96l-1.82,6.62h-1.21l-1.01-3.7
					c-0.18-0.64-0.31-1.24-0.47-1.92h-0.06c-0.15,0.68-0.28,1.3-0.48,1.93l-0.97,3.68h-1.18L185.43,77.26z"/>
				<path class="st2" d="M196.45,80.58c0-2.16,1.43-3.5,2.95-3.5c1.66,0,2.62,1.19,2.62,3.11c0,0.22-0.01,0.44-0.05,0.6h-4.53
					c0.06,1.48,0.95,2.46,2.27,2.46c0.65,0,1.19-0.21,1.68-0.54l0.37,0.66c-0.58,0.37-1.25,0.67-2.18,0.67
					C197.84,84.04,196.45,82.75,196.45,80.58z M201.14,80.06c0-1.42-0.64-2.17-1.72-2.17c-0.98,0-1.85,0.8-1.99,2.17H201.14z"/>
				<path class="st2" d="M204.19,80.58c0-2.16,1.43-3.5,2.95-3.5c1.66,0,2.62,1.19,2.62,3.11c0,0.22-0.01,0.44-0.05,0.6h-4.53
					c0.06,1.48,0.95,2.46,2.27,2.46c0.65,0,1.19-0.21,1.68-0.54l0.37,0.66c-0.58,0.37-1.25,0.67-2.18,0.67
					C205.59,84.04,204.19,82.75,204.19,80.58z M208.88,80.06c0-1.42-0.64-2.17-1.72-2.17c-0.98,0-1.85,0.8-1.99,2.17H208.88z"/>
				<path class="st2" d="M212.45,74.11h0.96v6.76h0.04l2.95-3.62h1.1l-2.21,2.65l2.52,3.98h-1.09l-2-3.28l-1.3,1.52v1.75h-0.96
					V74.11z"/>
				<path class="st2" d="M219.35,83.13l0.5-0.68c0.57,0.48,1.16,0.8,2,0.8c0.92,0,1.38-0.49,1.38-1.11c0-0.71-0.8-1.03-1.55-1.3
					c-0.95-0.34-2-0.79-2-1.92c0-1.03,0.82-1.85,2.24-1.85c0.79,0,1.51,0.33,2.01,0.74l-0.48,0.65c-0.45-0.33-0.93-0.59-1.54-0.59
					c-0.89,0-1.29,0.47-1.29,1.01c0,0.66,0.74,0.92,1.5,1.19c0.97,0.38,2.04,0.76,2.04,2.03c0,1.06-0.83,1.94-2.36,1.94
					C220.86,84.04,219.97,83.65,219.35,83.13z"/>
			</g>
		</g>
	</g>
</g>
<g>
	<g>
		<g>
			<path class="st0" d="M449.84,44.09c0,0.09-0.04,0.14-0.12,0.14l-2.09-0.03h-1.34v1.69h0.96l1.93-0.03c0.09,0,0.13,0.04,0.13,0.12
				l-0.04,1.55v0.51l0.02,1.72c0,0.44-0.11,0.76-0.33,0.94c-0.2,0.16-0.63,0.24-1.27,0.24c-0.16,0-0.25-0.02-0.28-0.05
				c-0.03-0.03-0.05-0.11-0.08-0.25c-0.05-0.2-0.13-0.41-0.27-0.61c0.33,0.03,0.62,0.05,0.86,0.05c0.31,0,0.46-0.16,0.46-0.47v-2.93
				h-2.09v2.54l0.03,2.91c0,0.08-0.04,0.12-0.13,0.12h-0.72c-0.08,0-0.12-0.04-0.12-0.12l0.03-2.9v-2.55h-2.06v2.51l0.03,1.64
				c0,0.07-0.04,0.11-0.13,0.11h-0.7c-0.08,0-0.12-0.04-0.12-0.11l0.03-1.66v-1.76l-0.03-1.44c0-0.08,0.04-0.12,0.12-0.12l1.93,0.03
				h0.94V44.2h-1.6l-2.09,0.03c-0.08,0-0.12-0.05-0.12-0.14v-0.63c0-0.08,0.04-0.12,0.12-0.12l2.09,0.03h1.6V41.5h-1.91
				c-0.22,0.47-0.46,0.9-0.73,1.28c-0.08,0.14-0.14,0.21-0.19,0.21c-0.03,0-0.09-0.04-0.21-0.11c-0.19-0.13-0.38-0.22-0.56-0.27
				c0.72-0.92,1.21-1.92,1.45-3.02c0.04-0.18,0.07-0.38,0.08-0.58c0.29,0.06,0.57,0.13,0.83,0.24c0.12,0.04,0.18,0.08,0.18,0.14
				c0,0.04-0.03,0.1-0.1,0.19c-0.06,0.07-0.11,0.19-0.17,0.36c-0.07,0.23-0.15,0.48-0.24,0.75h1.57v-0.85
				c0-0.58-0.04-1.05-0.12-1.41c0.37,0.02,0.71,0.05,1.02,0.09c0.12,0.02,0.18,0.06,0.18,0.13c0,0.07-0.03,0.16-0.08,0.27
				c-0.06,0.14-0.09,0.44-0.09,0.9v0.86h0.95l1.72-0.03c0.08,0,0.12,0.04,0.12,0.12v0.63c0,0.08-0.04,0.12-0.12,0.12l-1.72-0.03
				h-0.95v1.87h1.34l2.09-0.03c0.08,0,0.12,0.04,0.12,0.12V44.09z M451.84,39.89c0,0.04-0.01,0.09-0.04,0.15
				c-0.03,0.07-0.05,0.11-0.05,0.12c-0.04,0.13-0.06,0.67-0.06,1.61v4.26l0.03,2.02c0,0.09-0.04,0.13-0.13,0.13h-0.72
				c-0.08,0-0.12-0.04-0.12-0.13l0.03-2.02V41.8c0-0.99-0.04-1.7-0.12-2.11c0.27,0.01,0.6,0.04,1,0.08
				C451.79,39.78,451.84,39.82,451.84,39.89z M454.97,38.77c0,0.05-0.03,0.15-0.1,0.3c-0.05,0.14-0.08,0.6-0.08,1.36v7.69l0.02,2.36
				c0,0.64-0.15,1.06-0.44,1.27c-0.2,0.13-0.44,0.21-0.72,0.25c-0.27,0.04-0.72,0.05-1.36,0.05c-0.16,0-0.25-0.01-0.28-0.05
				c-0.03-0.03-0.05-0.12-0.08-0.27c-0.07-0.24-0.18-0.49-0.31-0.74c0.5,0.07,0.98,0.1,1.42,0.1c0.34,0,0.56-0.05,0.67-0.16
				c0.1-0.1,0.15-0.3,0.15-0.6v-9.89c0-0.86-0.04-1.49-0.11-1.9c0.38,0.02,0.72,0.05,1.04,0.1
				C454.91,38.66,454.97,38.7,454.97,38.77z"/>
			<path class="st0" d="M466.05,38.63c0,0.07-0.04,0.13-0.13,0.2c-0.1,0.08-0.2,0.28-0.31,0.6c-0.36,0.89-0.71,1.66-1.06,2.33v7.92
				l0.03,2.45c0,0.08-0.04,0.12-0.11,0.12h-0.76c-0.08,0-0.12-0.04-0.12-0.12l0.03-2.45v-4.07c0-0.5,0.01-1.27,0.03-2.32
				c-0.56,0.85-1.13,1.59-1.73,2.21c-0.09,0.09-0.15,0.14-0.18,0.14c-0.05,0-0.1-0.05-0.15-0.15c-0.14-0.29-0.28-0.49-0.44-0.63
				c1.59-1.58,2.77-3.49,3.54-5.7c0.12-0.31,0.2-0.65,0.24-1.05c0.42,0.12,0.74,0.23,0.96,0.33
				C465.99,38.49,466.05,38.56,466.05,38.63z M475.22,41.87c0,0.08-0.04,0.12-0.12,0.12l-1.99-0.03h-2.74v2.33h2.44l1.54-0.02
				c0.08,0,0.12,0.04,0.12,0.11v0.67c0,0.08-0.04,0.12-0.12,0.12l-1.54-0.03h-2.44v2.37h2.44l1.58-0.03c0.08,0,0.12,0.04,0.12,0.12
				v0.67c0,0.08-0.04,0.12-0.12,0.12l-1.58-0.03h-2.44v1.36l0.03,2.45c0,0.07-0.04,0.11-0.13,0.11h-0.75
				c-0.08,0-0.12-0.04-0.12-0.11l0.02-2.45v-7.76h-1.28c-0.61,1.17-1.25,2.16-1.94,2.99c-0.1,0.13-0.17,0.19-0.21,0.19
				c-0.04,0-0.09-0.06-0.18-0.19c-0.14-0.2-0.3-0.35-0.47-0.45c0.68-0.78,1.32-1.73,1.92-2.84c0.48-0.89,0.84-1.69,1.05-2.4
				c0.12-0.38,0.19-0.75,0.21-1.09c0.4,0.1,0.72,0.19,0.96,0.28c0.14,0.05,0.21,0.11,0.21,0.17c0,0.09-0.04,0.17-0.13,0.24
				c-0.1,0.08-0.21,0.3-0.33,0.64c-0.15,0.44-0.38,0.98-0.67,1.61h4.54l1.99-0.03c0.08,0,0.12,0.04,0.12,0.12V41.87z"/>
		</g>
	</g>
	<g>
		<path class="st1" d="M505.65,80c0-6.35-5-11.51-11.28-11.8v-0.03h-67.44v0.01c-6.47,0.08-11.69,5.34-11.69,11.82
			c0,6.49,5.22,11.75,11.69,11.82v0.01h67.44v-0.03C500.64,91.52,505.65,86.35,505.65,80z"/>
		<g>
			<g>
				<path class="st2" d="M437.99,83.64c2.96-2.58,4.28-4.45,4.28-6.06c0-1.09-0.57-1.91-1.76-1.91c-0.77,0-1.44,0.48-1.97,1.1
					l-0.61-0.58c0.75-0.81,1.54-1.35,2.69-1.35c1.65,0,2.66,1.06,2.66,2.71c0,1.87-1.47,3.78-3.73,5.9
					c0.49-0.05,1.05-0.08,1.52-0.08h2.66v0.89h-5.73V83.64z"/>
				<path class="st2" d="M445.7,77.26h1.02l1.04,3.93c0.15,0.63,0.27,1.22,0.41,1.83h0.05c0.16-0.61,0.29-1.2,0.47-1.83l1.07-3.93
					h1.01l1.08,3.93c0.16,0.63,0.31,1.22,0.47,1.83h0.05c0.15-0.61,0.27-1.2,0.43-1.83l1.02-3.93h0.96l-1.82,6.62h-1.21l-1.01-3.7
					c-0.18-0.64-0.31-1.24-0.47-1.92h-0.06c-0.15,0.68-0.28,1.3-0.48,1.93l-0.97,3.68h-1.18L445.7,77.26z"/>
				<path class="st2" d="M456.73,80.58c0-2.16,1.43-3.5,2.95-3.5c1.66,0,2.62,1.19,2.62,3.11c0,0.22-0.01,0.44-0.05,0.6h-4.54
					c0.06,1.48,0.95,2.46,2.27,2.46c0.65,0,1.19-0.21,1.68-0.54l0.37,0.66c-0.58,0.37-1.25,0.67-2.18,0.67
					C458.12,84.04,456.73,82.75,456.73,80.58z M461.42,80.06c0-1.42-0.64-2.17-1.72-2.17c-0.98,0-1.86,0.8-1.99,2.17H461.42z"/>
				<path class="st2" d="M464.47,80.58c0-2.16,1.43-3.5,2.95-3.5c1.66,0,2.62,1.19,2.62,3.11c0,0.22-0.01,0.44-0.05,0.6h-4.54
					c0.06,1.48,0.95,2.46,2.27,2.46c0.65,0,1.19-0.21,1.68-0.54l0.37,0.66c-0.58,0.37-1.25,0.67-2.18,0.67
					C465.87,84.04,464.47,82.75,464.47,80.58z M469.16,80.06c0-1.42-0.64-2.17-1.72-2.17c-0.98,0-1.86,0.8-1.99,2.17H469.16z"/>
				<path class="st2" d="M472.73,74.11h0.96v6.76h0.04l2.95-3.62h1.1l-2.21,2.65l2.52,3.98h-1.09l-2-3.28l-1.3,1.52v1.75h-0.96
					V74.11z"/>
				<path class="st2" d="M479.63,83.13l0.5-0.68c0.57,0.48,1.16,0.8,2,0.8c0.92,0,1.38-0.49,1.38-1.11c0-0.71-0.8-1.03-1.55-1.3
					c-0.95-0.34-2-0.79-2-1.92c0-1.03,0.82-1.85,2.24-1.85c0.79,0,1.51,0.33,2.01,0.74l-0.48,0.65c-0.45-0.33-0.93-0.59-1.54-0.59
					c-0.88,0-1.29,0.47-1.29,1.01c0,0.66,0.74,0.92,1.5,1.19c0.97,0.38,2.04,0.76,2.04,2.03c0,1.06-0.83,1.94-2.36,1.94
					C481.14,84.04,480.25,83.65,479.63,83.13z"/>
			</g>
		</g>
	</g>
</g>
<g>
	<g>
		<g>
			<path class="st0" d="M661.34,40.86c0.85,0.08,1.84,0.12,2.98,0.12h5.49c0.35,0,0.61-0.05,0.78-0.14
				c0.05-0.04,0.12-0.05,0.18-0.05c0.08,0,0.15,0.02,0.22,0.07c0.26,0.18,0.49,0.39,0.7,0.64c0.05,0.07,0.08,0.14,0.08,0.22
				c0,0.1-0.04,0.18-0.13,0.26c-0.12,0.11-0.23,0.28-0.34,0.53c-0.73,1.92-1.74,3.62-3.04,5.08c-1.4,1.58-2.94,2.82-4.6,3.73
				c-0.09,0.06-0.18,0.09-0.27,0.09c-0.1,0-0.19-0.04-0.26-0.12c-0.22-0.21-0.49-0.39-0.81-0.52c1.19-0.59,2.21-1.23,3.06-1.92
				c0.64-0.52,1.29-1.16,1.95-1.91c1.33-1.49,2.3-3.15,2.92-4.96h-5.94c-0.9,0-1.77,0.03-2.6,0.1c-0.03,0-0.04,0-0.05,0
				c-0.13,0-0.2-0.08-0.23-0.25c0-0.04-0.01-0.21-0.04-0.5C661.36,41.11,661.34,40.96,661.34,40.86z M670.73,39.3l0.54-0.4
				c0.03-0.03,0.06-0.04,0.09-0.04c0.03,0,0.06,0.01,0.09,0.04c0.64,0.45,1.22,1.08,1.75,1.88c0.02,0.03,0.03,0.05,0.03,0.08
				c0,0.04-0.02,0.07-0.05,0.1l-0.46,0.37c-0.03,0.03-0.06,0.04-0.09,0.04c-0.04,0-0.08-0.02-0.11-0.07
				C672.05,40.48,671.45,39.82,670.73,39.3z M672.1,38.26l0.5-0.39c0.04-0.03,0.07-0.05,0.1-0.05c0.02,0,0.05,0.01,0.07,0.03
				c0.74,0.57,1.33,1.18,1.77,1.82c0.01,0.03,0.02,0.05,0.02,0.08c0,0.03-0.02,0.07-0.07,0.11l-0.42,0.37
				c-0.03,0.03-0.05,0.05-0.08,0.05c-0.04,0-0.07-0.02-0.1-0.08C673.43,39.46,672.83,38.81,672.1,38.26z"/>
			<path class="st0" d="M677.58,42.97c0.74,0.07,1.6,0.11,2.57,0.11h5.55c0.36,0,0.62-0.04,0.76-0.11c0.1-0.05,0.17-0.08,0.22-0.08
				c0.06,0,0.12,0.03,0.2,0.09c0.25,0.19,0.44,0.37,0.58,0.55c0.07,0.1,0.11,0.17,0.11,0.23c0,0.06-0.04,0.12-0.14,0.19
				c-0.11,0.08-0.23,0.25-0.36,0.53c-0.75,1.68-1.67,3.1-2.78,4.25c-1.03,1.07-2.29,1.99-3.77,2.75c-0.09,0.04-0.16,0.07-0.22,0.07
				c-0.07,0-0.13-0.03-0.2-0.1c-0.23-0.2-0.52-0.36-0.87-0.48c3.36-1.62,5.61-3.91,6.75-6.9h-5.88c-0.92,0-1.65,0.03-2.19,0.08
				c-0.02,0-0.03,0-0.04,0c-0.1,0-0.17-0.07-0.2-0.2C677.63,43.64,677.59,43.31,677.58,42.97z M678.9,39.72
				c0.7,0.07,1.54,0.11,2.53,0.11h2.4c0.78,0,1.58-0.02,2.41-0.08c0.11,0,0.17,0.06,0.17,0.18c0.01,0.1,0.02,0.21,0.02,0.34
				c0,0.14,0,0.26-0.02,0.36c0,0.14-0.05,0.21-0.14,0.21c-0.02,0-0.04,0-0.05,0l-2.31-0.03h-2.53c-0.87,0-1.6,0.02-2.2,0.06
				c-0.02,0-0.03,0-0.04,0c-0.09,0-0.14-0.07-0.15-0.22C678.92,40.26,678.9,39.95,678.9,39.72z"/>
			<path class="st0" d="M693.71,43.77c0.29-0.16,0.52-0.29,0.7-0.37c0.04-0.02,0.08-0.03,0.11-0.03c0.06,0,0.11,0.04,0.17,0.11
				c0.54,0.69,0.96,1.41,1.27,2.17c0.03,0.07,0.04,0.11,0.04,0.14c0,0.05-0.04,0.09-0.11,0.14c-0.15,0.09-0.35,0.18-0.59,0.28
				c-0.04,0.02-0.07,0.02-0.1,0.02c-0.07,0-0.12-0.05-0.15-0.15C694.65,45.15,694.21,44.38,693.71,43.77z M701.54,42.94
				c0.54,0.15,0.92,0.31,1.15,0.48c0.08,0.06,0.11,0.12,0.11,0.19c0,0.06-0.03,0.12-0.1,0.18c-0.12,0.11-0.27,0.35-0.45,0.74
				c-0.73,1.67-1.49,3-2.28,3.99c-0.91,1.18-1.96,2.16-3.13,2.94c-0.07,0.05-0.14,0.08-0.2,0.08c-0.06,0-0.1-0.02-0.14-0.06
				c-0.24-0.18-0.51-0.31-0.81-0.38c1.44-0.94,2.6-1.97,3.48-3.09c0.88-1.12,1.58-2.39,2.1-3.81
				C701.39,43.88,701.48,43.45,701.54,42.94z M696.73,43.05c0.37-0.2,0.61-0.32,0.72-0.36c0.04-0.02,0.07-0.02,0.1-0.02
				c0.06,0,0.12,0.04,0.17,0.12c0.47,0.64,0.86,1.36,1.16,2.15c0.02,0.04,0.02,0.07,0.02,0.09c0,0.06-0.04,0.11-0.13,0.16
				c-0.21,0.12-0.42,0.21-0.62,0.29c-0.03,0.01-0.05,0.02-0.07,0.02c-0.06,0-0.11-0.05-0.15-0.16
				C697.57,44.4,697.17,43.64,696.73,43.05z"/>
			<path class="st0" d="M708.1,44.08c0.08-0.11,0.17-0.27,0.29-0.46c0.1-0.16,0.16-0.26,0.19-0.3c0.05-0.08,0.11-0.12,0.18-0.12
				c0.03,0,0.06,0.01,0.08,0.02c0.97,0.35,1.88,0.82,2.73,1.41c0.08,0.06,0.12,0.12,0.12,0.18c0,0.04-0.02,0.09-0.05,0.14
				c-0.13,0.26-0.26,0.48-0.4,0.67c-0.05,0.07-0.1,0.11-0.15,0.11c-0.04,0-0.09-0.03-0.14-0.08C710.15,45.02,709.2,44.5,708.1,44.08
				z M709.35,49.86c0.54-0.12,1.08-0.32,1.63-0.61c1.64-0.85,3.06-1.74,4.26-2.67c1.76-1.37,3.23-2.8,4.42-4.29
				c0.05,0.34,0.15,0.68,0.29,1.01c0.03,0.06,0.05,0.11,0.05,0.16c0,0.08-0.04,0.17-0.12,0.26c-1.11,1.3-2.47,2.56-4.09,3.8
				c-1.11,0.86-2.62,1.83-4.53,2.9c-0.35,0.19-0.6,0.36-0.75,0.52c-0.06,0.06-0.12,0.09-0.18,0.09c-0.09,0-0.17-0.05-0.25-0.14
				C709.89,50.68,709.65,50.34,709.35,49.86z M709.93,40.51c0.05-0.07,0.14-0.2,0.26-0.39c0.1-0.15,0.17-0.26,0.22-0.33
				c0.06-0.08,0.11-0.12,0.15-0.12c0.03,0,0.07,0.01,0.13,0.04c0.86,0.36,1.76,0.9,2.7,1.61c0.07,0.06,0.11,0.11,0.11,0.15
				c0,0.04-0.02,0.09-0.06,0.16c-0.22,0.35-0.37,0.58-0.45,0.67c-0.04,0.05-0.08,0.07-0.11,0.07c-0.04,0-0.09-0.03-0.17-0.1
				C711.94,41.57,711.01,40.98,709.93,40.51z"/>
			<path class="st0" d="M731.49,49.4h0.86l1.97-0.02c0.04,0,0.06-0.01,0.08-0.01c0.11,0,0.16,0.07,0.17,0.21v0.55
				c-0.01,0.1-0.03,0.15-0.05,0.17s-0.08,0.03-0.17,0.03c-0.97-0.02-1.67-0.03-2.09-0.03h-5.41c-0.77,0-1.43,0.03-1.98,0.08
				c-0.03,0-0.04,0-0.04,0c-0.1,0-0.16-0.08-0.17-0.23c-0.04-0.18-0.06-0.45-0.06-0.81c0.58,0.04,1.32,0.06,2.22,0.06h3.7l0.59-4.29
				h-2.62c-0.7,0-1.3,0.02-1.82,0.05c-0.02,0-0.04,0-0.06,0c-0.1,0-0.16-0.06-0.17-0.19c-0.04-0.21-0.06-0.49-0.08-0.86
				c0.7,0.06,1.42,0.09,2.17,0.09h2.26c0.27,0,0.47-0.04,0.62-0.12c0.06-0.03,0.11-0.05,0.16-0.05c0.05,0,0.11,0.02,0.17,0.06
				c0.24,0.18,0.43,0.36,0.57,0.56c0.05,0.07,0.08,0.13,0.08,0.18c0,0.07-0.03,0.13-0.1,0.19c-0.12,0.11-0.19,0.3-0.22,0.59
				L731.49,49.4z"/>
			<path class="st0" d="M739.43,40.28c0.74,0.07,1.8,0.11,3.19,0.11h6.45c0.59,0,0.97-0.03,1.16-0.09c0.1-0.04,0.18-0.06,0.24-0.06
				c0.07,0,0.14,0.04,0.23,0.11c0.23,0.2,0.42,0.4,0.57,0.61c0.06,0.07,0.08,0.13,0.08,0.2c0,0.1-0.05,0.18-0.16,0.24
				c-0.09,0.05-0.2,0.18-0.34,0.39c-0.73,1.1-1.72,2.12-2.96,3.05c-0.06,0.05-0.12,0.07-0.19,0.07c-0.08,0-0.15-0.03-0.21-0.08
				c-0.21-0.17-0.48-0.3-0.81-0.39c1.36-0.87,2.41-1.88,3.15-3.05h-7.09c-1.02,0-1.99,0.05-2.88,0.14c-0.02,0-0.04,0-0.05,0
				c-0.12,0-0.19-0.06-0.21-0.17C739.52,41.02,739.46,40.66,739.43,40.28z M740.57,50.99c1.56-0.82,2.63-1.83,3.21-3.04
				c0.51-1.07,0.77-2.35,0.77-3.81c0-0.44-0.05-0.86-0.14-1.28c0.53,0.04,0.93,0.11,1.23,0.21c0.14,0.06,0.21,0.14,0.21,0.25
				c0,0.06-0.02,0.12-0.06,0.2c-0.08,0.15-0.12,0.4-0.12,0.76c0,1.57-0.29,2.94-0.89,4.12c-0.6,1.19-1.56,2.21-2.91,3.06
				c-0.1,0.06-0.18,0.08-0.26,0.08c-0.08,0-0.15-0.03-0.21-0.08C741.19,51.27,740.91,51.11,740.57,50.99z"/>
			<path class="st0" d="M756.35,43.77c0.29-0.16,0.52-0.29,0.7-0.37c0.04-0.02,0.08-0.03,0.11-0.03c0.06,0,0.11,0.04,0.17,0.11
				c0.54,0.69,0.96,1.41,1.27,2.17c0.03,0.07,0.04,0.11,0.04,0.14c0,0.05-0.04,0.09-0.11,0.14c-0.15,0.09-0.35,0.18-0.59,0.28
				c-0.04,0.02-0.07,0.02-0.1,0.02c-0.07,0-0.12-0.05-0.15-0.15C757.29,45.15,756.84,44.38,756.35,43.77z M764.17,42.94
				c0.54,0.15,0.92,0.31,1.15,0.48c0.08,0.06,0.11,0.12,0.11,0.19c0,0.06-0.03,0.12-0.1,0.18c-0.12,0.11-0.27,0.35-0.45,0.74
				c-0.73,1.67-1.49,3-2.28,3.99c-0.91,1.18-1.96,2.16-3.13,2.94c-0.07,0.05-0.14,0.08-0.2,0.08c-0.06,0-0.1-0.02-0.14-0.06
				c-0.24-0.18-0.51-0.31-0.81-0.38c1.44-0.94,2.6-1.97,3.48-3.09c0.88-1.12,1.58-2.39,2.1-3.81
				C764.03,43.88,764.11,43.45,764.17,42.94z M759.37,43.05c0.37-0.2,0.61-0.32,0.72-0.36c0.04-0.02,0.07-0.02,0.1-0.02
				c0.06,0,0.12,0.04,0.17,0.12c0.47,0.64,0.86,1.36,1.16,2.15c0.02,0.04,0.02,0.07,0.02,0.09c0,0.06-0.04,0.11-0.13,0.16
				c-0.21,0.12-0.42,0.21-0.62,0.29c-0.03,0.01-0.05,0.02-0.07,0.02c-0.06,0-0.11-0.05-0.15-0.16
				C760.2,44.4,759.81,43.64,759.37,43.05z"/>
			<path class="st0" d="M771,40.86c0.85,0.08,1.85,0.12,2.98,0.12h5.49c0.35,0,0.61-0.05,0.78-0.14c0.06-0.04,0.12-0.05,0.18-0.05
				c0.08,0,0.15,0.02,0.22,0.07c0.26,0.18,0.49,0.39,0.7,0.64c0.06,0.07,0.08,0.14,0.08,0.22c0,0.1-0.04,0.18-0.13,0.26
				c-0.12,0.11-0.24,0.28-0.34,0.53c-0.73,1.92-1.74,3.62-3.04,5.08c-1.4,1.58-2.94,2.82-4.6,3.73c-0.09,0.06-0.18,0.09-0.26,0.09
				c-0.1,0-0.19-0.04-0.26-0.12c-0.22-0.21-0.49-0.39-0.81-0.52c1.19-0.59,2.21-1.23,3.06-1.92c0.64-0.52,1.29-1.16,1.95-1.91
				c1.33-1.49,2.3-3.15,2.92-4.96h-5.94c-0.9,0-1.77,0.03-2.6,0.1c-0.03,0-0.04,0-0.05,0c-0.13,0-0.2-0.08-0.23-0.25
				c0-0.04-0.01-0.21-0.04-0.5C771.02,41.11,771,40.96,771,40.86z M782.52,37.93c0.46,0,0.85,0.17,1.17,0.51
				c0.27,0.3,0.4,0.65,0.4,1.05c0,0.46-0.17,0.85-0.52,1.16c-0.3,0.27-0.65,0.4-1.05,0.4c-0.46,0-0.85-0.17-1.17-0.51
				c-0.27-0.3-0.4-0.65-0.4-1.05c0-0.46,0.17-0.85,0.51-1.16C781.77,38.06,782.12,37.93,782.52,37.93z M782.52,38.52
				c-0.29,0-0.54,0.11-0.73,0.32c-0.17,0.19-0.25,0.41-0.25,0.66c0,0.29,0.11,0.53,0.32,0.73c0.19,0.17,0.41,0.25,0.66,0.25
				c0.29,0,0.54-0.11,0.73-0.32c0.17-0.19,0.25-0.41,0.25-0.66c0-0.29-0.11-0.53-0.32-0.73C782.99,38.6,782.77,38.52,782.52,38.52z"
				/>
		</g>
	</g>
	<g>
		<path class="st1" d="M766.95,80c0-6.35-5-11.51-11.28-11.8v-0.03h-67.44v0.01c-6.47,0.08-11.69,5.34-11.69,11.82
			c0,6.49,5.22,11.75,11.69,11.82v0.01h67.44v-0.03C761.94,91.52,766.95,86.35,766.95,80z"/>
		<g>
			<g>
				<path class="st2" d="M699.29,83.64c2.96-2.58,4.28-4.45,4.28-6.06c0-1.09-0.57-1.91-1.76-1.91c-0.77,0-1.44,0.48-1.97,1.1
					l-0.61-0.58c0.75-0.81,1.54-1.35,2.69-1.35c1.65,0,2.66,1.06,2.66,2.71c0,1.87-1.47,3.78-3.73,5.9
					c0.49-0.05,1.05-0.08,1.52-0.08h2.66v0.89h-5.73V83.64z"/>
				<path class="st2" d="M707,77.26h1.02l1.04,3.93c0.15,0.63,0.27,1.22,0.41,1.83h0.05c0.16-0.61,0.29-1.2,0.47-1.83l1.07-3.93
					h1.01l1.08,3.93c0.16,0.63,0.31,1.22,0.47,1.83h0.05c0.15-0.61,0.27-1.2,0.43-1.83l1.02-3.93h0.96l-1.82,6.62h-1.21l-1.01-3.7
					c-0.18-0.64-0.31-1.24-0.47-1.92h-0.06c-0.15,0.68-0.28,1.3-0.48,1.93l-0.97,3.68h-1.18L707,77.26z"/>
				<path class="st2" d="M718.03,80.58c0-2.16,1.43-3.5,2.95-3.5c1.66,0,2.62,1.19,2.62,3.11c0,0.22-0.01,0.44-0.05,0.6h-4.54
					c0.06,1.48,0.95,2.46,2.27,2.46c0.65,0,1.19-0.21,1.68-0.54l0.37,0.66c-0.58,0.37-1.25,0.67-2.18,0.67
					C719.42,84.04,718.03,82.75,718.03,80.58z M722.72,80.06c0-1.42-0.64-2.17-1.72-2.17c-0.98,0-1.86,0.8-1.99,2.17H722.72z"/>
				<path class="st2" d="M725.77,80.58c0-2.16,1.43-3.5,2.95-3.5c1.66,0,2.62,1.19,2.62,3.11c0,0.22-0.01,0.44-0.05,0.6h-4.54
					c0.06,1.48,0.95,2.46,2.27,2.46c0.65,0,1.19-0.21,1.68-0.54l0.37,0.66c-0.58,0.37-1.25,0.67-2.18,0.67
					C727.17,84.04,725.77,82.75,725.77,80.58z M730.46,80.06c0-1.42-0.64-2.17-1.72-2.17c-0.98,0-1.86,0.8-1.99,2.17H730.46z"/>
				<path class="st2" d="M734.03,74.11h0.96v6.76h0.04l2.95-3.62h1.1l-2.21,2.65l2.52,3.98h-1.09l-2-3.28l-1.3,1.52v1.75h-0.96
					V74.11z"/>
				<path class="st2" d="M740.93,83.13l0.5-0.68c0.57,0.48,1.16,0.8,2,0.8c0.92,0,1.38-0.49,1.38-1.11c0-0.71-0.8-1.03-1.55-1.3
					c-0.95-0.34-2-0.79-2-1.92c0-1.03,0.82-1.85,2.24-1.85c0.79,0,1.51,0.33,2.01,0.74l-0.48,0.65c-0.45-0.33-0.93-0.59-1.54-0.59
					c-0.88,0-1.29,0.47-1.29,1.01c0,0.66,0.74,0.92,1.5,1.19c0.97,0.38,2.04,0.76,2.04,2.03c0,1.06-0.83,1.94-2.36,1.94
					C742.44,84.04,741.55,83.65,740.93,83.13z"/>
			</g>
		</g>
	</g>
</g>
<path class="st3" d="M813.58,21.16H11.97c-0.55,0-1-0.45-1-1s0.45-1,1-1h801.6c0.55,0,1,0.45,1,1S814.13,21.16,813.58,21.16z"/>
<path class="st3" d="M815.79,21.79c-0.26,0-0.51-0.1-0.71-0.29l-14.2-14.2c-0.39-0.39-0.39-1.02,0-1.41s1.02-0.39,1.41,0l14.2,14.2
	c0.39,0.39,0.39,1.02,0,1.41C816.3,21.69,816.04,21.79,815.79,21.79z"/>
<g>
	<path class="st4" d="M122.77,67.93L122.77,67.93l-99.26,0v0.03c-0.16-0.01-0.31-0.02-0.47-0.02c-6.53,0-11.83,5.3-11.83,11.83
		c0,6.53,5.3,11.83,11.83,11.83c0.16,0,0.31-0.02,0.47-0.02v0.02h99.22c0.01,0,0.02,0,0.04,0c6.53,0,11.83-5.3,11.83-11.83
		C134.6,73.23,129.3,67.93,122.77,67.93z"/>
	<g>
		<g>
			<path class="st5" d="M35.66,80.01c1.66-0.44,3.16-0.98,4.51-1.61c0.71-0.34,1.21-0.68,1.51-1.02c0.42,0.35,0.72,0.63,0.89,0.86
				c0.05,0.06,0.07,0.12,0.07,0.19c0,0.12-0.06,0.19-0.19,0.21c-0.23,0.05-0.7,0.24-1.43,0.58c-1.51,0.68-3.3,1.3-5.36,1.86v2.67
				c0,0.42,0.07,0.72,0.21,0.9c0.12,0.15,0.32,0.25,0.6,0.3c0.53,0.12,1.3,0.17,2.32,0.17c1.35,0,2.66-0.11,3.94-0.34
				c0.04,0,0.06-0.01,0.08-0.01c0.08,0,0.12,0.06,0.14,0.17c0.04,0.28,0.06,0.53,0.08,0.74c0,0.13-0.08,0.2-0.25,0.21
				c-1.23,0.18-2.63,0.27-4.2,0.27c-1.13,0-2.04-0.09-2.74-0.28c-0.82-0.23-1.23-0.87-1.23-1.92v-5.77c0-1.38-0.05-2.3-0.14-2.74
				c0.61,0.08,1.03,0.15,1.26,0.22c0.11,0.03,0.17,0.09,0.17,0.19c0,0.06-0.02,0.14-0.07,0.24c-0.12,0.24-0.17,0.86-0.17,1.86V80.01
				z"/>
			<path class="st5" d="M49.56,76c0.74,0.07,1.8,0.11,3.2,0.11h6.45c0.59,0,0.97-0.03,1.16-0.09c0.1-0.04,0.18-0.06,0.23-0.06
				c0.07,0,0.14,0.04,0.23,0.11c0.23,0.2,0.42,0.4,0.57,0.61c0.06,0.07,0.08,0.13,0.08,0.2c0,0.1-0.05,0.18-0.16,0.24
				c-0.09,0.05-0.2,0.18-0.34,0.39c-0.73,1.1-1.72,2.12-2.96,3.05c-0.06,0.04-0.12,0.07-0.19,0.07c-0.08,0-0.15-0.03-0.21-0.08
				c-0.21-0.17-0.48-0.3-0.81-0.39c1.36-0.87,2.41-1.88,3.15-3.05h-7.09c-1.02,0-1.99,0.05-2.88,0.14c-0.02,0-0.04,0-0.05,0
				c-0.12,0-0.19-0.06-0.21-0.17C49.65,76.75,49.6,76.39,49.56,76z M50.7,86.71c1.56-0.82,2.63-1.83,3.21-3.04
				c0.51-1.08,0.77-2.35,0.77-3.81c0-0.44-0.05-0.87-0.14-1.28c0.52,0.04,0.93,0.11,1.23,0.21c0.14,0.06,0.21,0.14,0.21,0.25
				c0,0.06-0.02,0.12-0.06,0.2c-0.08,0.15-0.12,0.4-0.12,0.76c0,1.57-0.3,2.94-0.89,4.12c-0.6,1.19-1.56,2.21-2.91,3.06
				c-0.1,0.06-0.18,0.08-0.26,0.08c-0.08,0-0.15-0.03-0.21-0.08C51.32,87,51.05,86.84,50.7,86.71z"/>
			<path class="st5" d="M68.82,75.17c0.47,0.06,0.89,0.14,1.26,0.25c0.12,0.04,0.17,0.11,0.17,0.22c0,0.05-0.01,0.1-0.03,0.15
				c-0.11,0.19-0.16,0.73-0.16,1.63v2.62c0,0.69,0.02,1.38,0.05,2.05c0,0.16-0.08,0.24-0.23,0.24h-0.73c-0.13,0-0.2-0.06-0.2-0.18
				c0-0.02,0-0.04,0-0.05c0.02-0.92,0.03-1.63,0.03-2.13v-2.56C68.99,76.5,68.94,75.76,68.82,75.17z M69.53,86.58
				c1.62-0.47,2.83-1.18,3.62-2.13c0.83-1.01,1.24-2.39,1.24-4.16v-2.67c0-1.3-0.06-2.2-0.17-2.72c0.52,0.06,0.96,0.14,1.32,0.25
				c0.11,0.04,0.16,0.1,0.16,0.2c0,0.06-0.02,0.12-0.05,0.18c-0.1,0.21-0.15,0.89-0.15,2.04v2.62c0,2.02-0.45,3.6-1.35,4.75
				c-0.81,0.99-1.95,1.75-3.4,2.28c-0.07,0.03-0.13,0.04-0.18,0.04c-0.08,0-0.16-0.04-0.25-0.11C70.1,86.94,69.85,86.75,69.53,86.58
				z"/>
			<path class="st5" d="M84.04,77.07c0.26-0.31,0.46-0.55,0.61-0.71c0.05-0.06,0.1-0.08,0.15-0.08c0.04,0,0.08,0.01,0.13,0.04
				c0.98,0.55,1.92,1.24,2.79,2.07c0.06,0.07,0.09,0.12,0.09,0.17c0,0.04-0.02,0.08-0.05,0.13c-0.19,0.28-0.36,0.5-0.53,0.67
				c-0.05,0.06-0.09,0.09-0.13,0.09c-0.03,0-0.07-0.03-0.12-0.08C86.06,78.46,85.08,77.69,84.04,77.07z M84.41,85.2
				c0.55-0.16,1.09-0.37,1.63-0.64c1.75-0.92,3.24-1.89,4.48-2.89c1.78-1.46,3.17-2.85,4.19-4.17c0.05,0.34,0.14,0.68,0.27,1.02
				c0.04,0.08,0.05,0.15,0.05,0.21c0,0.1-0.06,0.21-0.17,0.33c-0.94,1.11-2.19,2.3-3.76,3.57c-1.26,1-2.81,2.01-4.66,3.03
				c-0.34,0.2-0.63,0.4-0.85,0.6c-0.08,0.07-0.15,0.11-0.21,0.11c-0.07,0-0.13-0.04-0.2-0.12C84.9,85.98,84.65,85.62,84.41,85.2z"/>
			<path class="st5" d="M105.21,77.04l3.48-0.06c0.38-0.02,0.64-0.07,0.77-0.17c0.04-0.03,0.09-0.04,0.14-0.04
				c0.07,0,0.16,0.04,0.27,0.11c0.22,0.15,0.42,0.32,0.62,0.51c0.09,0.09,0.13,0.17,0.13,0.25c0,0.08-0.03,0.15-0.1,0.21
				c-0.17,0.15-0.31,0.33-0.41,0.54c-0.95,2.03-1.95,3.66-2.99,4.88c-1.45,1.65-3.06,2.99-4.84,4.01c-0.05,0.03-0.09,0.04-0.14,0.04
				c-0.07,0-0.13-0.03-0.2-0.09c-0.2-0.18-0.49-0.33-0.87-0.45c1.17-0.63,2.18-1.31,3.04-2.03c0.68-0.56,1.38-1.26,2.1-2.08
				c1.15-1.36,2.12-2.95,2.92-4.79l-4.47,0.13c-1.21,1.5-2.23,2.61-3.07,3.31c-0.09,0.08-0.18,0.12-0.26,0.12
				c-0.07,0-0.14-0.03-0.23-0.09c-0.22-0.16-0.48-0.26-0.79-0.33c1.69-1.35,3.04-2.86,4.05-4.51c0.45-0.77,0.72-1.43,0.79-1.98
				c0.52,0.16,0.91,0.34,1.17,0.55c0.08,0.06,0.12,0.12,0.12,0.2c0,0.08-0.04,0.15-0.12,0.2c-0.16,0.1-0.31,0.27-0.47,0.53
				C105.49,76.6,105.28,76.94,105.21,77.04z M109.85,75.22l0.55-0.4c0.03-0.03,0.06-0.04,0.09-0.04c0.03,0,0.05,0.01,0.08,0.04
				c0.64,0.44,1.22,1.07,1.75,1.88c0.02,0.02,0.03,0.04,0.03,0.07c0,0.04-0.02,0.07-0.06,0.1l-0.45,0.37
				c-0.04,0.03-0.07,0.04-0.1,0.04c-0.05,0-0.08-0.02-0.11-0.07C111.17,76.39,110.57,75.73,109.85,75.22z M111.21,74.18l0.49-0.39
				c0.04-0.03,0.07-0.04,0.1-0.04c0.02,0,0.05,0.01,0.08,0.03c0.74,0.57,1.33,1.17,1.77,1.81c0.02,0.03,0.02,0.06,0.02,0.08
				c0,0.04-0.03,0.07-0.08,0.11l-0.42,0.37c-0.03,0.03-0.06,0.04-0.08,0.04c-0.04,0-0.07-0.03-0.11-0.08
				C112.54,75.37,111.95,74.73,111.21,74.18z"/>
		</g>
	</g>
</g>
<g>
	<path class="st4" d="M379.66,67.93L379.66,67.93l-99.26,0v0.03c-0.16-0.01-0.31-0.02-0.47-0.02c-6.53,0-11.83,5.3-11.83,11.83
		c0,6.53,5.3,11.83,11.83,11.83c0.16,0,0.31-0.02,0.47-0.02v0.02h99.22c0.01,0,0.02,0,0.04,0c6.53,0,11.83-5.3,11.83-11.83
		C391.49,73.23,386.19,67.93,379.66,67.93z"/>
	<g>
		<g>
			<path class="st5" d="M292.55,80.01c1.66-0.44,3.16-0.98,4.51-1.61c0.71-0.34,1.21-0.68,1.51-1.02c0.42,0.35,0.72,0.63,0.89,0.86
				c0.05,0.06,0.07,0.12,0.07,0.19c0,0.12-0.06,0.19-0.19,0.21c-0.23,0.05-0.7,0.24-1.43,0.58c-1.51,0.68-3.3,1.3-5.36,1.86v2.67
				c0,0.42,0.07,0.72,0.21,0.9c0.12,0.15,0.32,0.25,0.6,0.3c0.53,0.12,1.3,0.17,2.32,0.17c1.35,0,2.66-0.11,3.94-0.34
				c0.04,0,0.06-0.01,0.08-0.01c0.08,0,0.12,0.06,0.14,0.17c0.04,0.28,0.06,0.53,0.08,0.74c0,0.13-0.08,0.2-0.25,0.21
				c-1.23,0.18-2.63,0.27-4.2,0.27c-1.13,0-2.04-0.09-2.74-0.28c-0.82-0.23-1.23-0.87-1.23-1.92v-5.77c0-1.38-0.05-2.3-0.14-2.74
				c0.61,0.08,1.03,0.15,1.26,0.22c0.11,0.03,0.17,0.09,0.17,0.19c0,0.06-0.02,0.14-0.07,0.24c-0.12,0.24-0.17,0.86-0.17,1.86V80.01
				z"/>
			<path class="st5" d="M306.46,76c0.74,0.07,1.8,0.11,3.2,0.11h6.45c0.59,0,0.97-0.03,1.16-0.09c0.1-0.04,0.18-0.06,0.23-0.06
				c0.07,0,0.14,0.04,0.23,0.11c0.23,0.2,0.42,0.4,0.57,0.61c0.06,0.07,0.08,0.13,0.08,0.2c0,0.1-0.05,0.18-0.16,0.24
				c-0.09,0.05-0.2,0.18-0.34,0.39c-0.73,1.1-1.72,2.12-2.96,3.05c-0.06,0.04-0.12,0.07-0.19,0.07c-0.08,0-0.15-0.03-0.21-0.08
				c-0.21-0.17-0.48-0.3-0.81-0.39c1.36-0.87,2.41-1.88,3.15-3.05h-7.09c-1.02,0-1.99,0.05-2.88,0.14c-0.02,0-0.04,0-0.05,0
				c-0.12,0-0.19-0.06-0.21-0.17C306.55,76.75,306.49,76.39,306.46,76z M307.59,86.71c1.56-0.82,2.63-1.83,3.21-3.04
				c0.51-1.08,0.77-2.35,0.77-3.81c0-0.44-0.05-0.87-0.14-1.28c0.52,0.04,0.93,0.11,1.23,0.21c0.14,0.06,0.21,0.14,0.21,0.25
				c0,0.06-0.02,0.12-0.06,0.2c-0.08,0.15-0.12,0.4-0.12,0.76c0,1.57-0.3,2.94-0.89,4.12c-0.6,1.19-1.56,2.21-2.91,3.06
				c-0.1,0.06-0.18,0.08-0.26,0.08c-0.08,0-0.15-0.03-0.21-0.08C308.22,87,307.94,86.84,307.59,86.71z"/>
			<path class="st5" d="M325.71,75.17c0.47,0.06,0.89,0.14,1.26,0.25c0.12,0.04,0.17,0.11,0.17,0.22c0,0.05-0.01,0.1-0.03,0.15
				c-0.11,0.19-0.16,0.73-0.16,1.63v2.62c0,0.69,0.02,1.38,0.05,2.05c0,0.16-0.08,0.24-0.23,0.24h-0.73c-0.13,0-0.2-0.06-0.2-0.18
				c0-0.02,0-0.04,0-0.05c0.02-0.92,0.03-1.63,0.03-2.13v-2.56C325.89,76.5,325.83,75.76,325.71,75.17z M326.43,86.58
				c1.62-0.47,2.83-1.18,3.62-2.13c0.83-1.01,1.24-2.39,1.24-4.16v-2.67c0-1.3-0.06-2.2-0.17-2.72c0.52,0.06,0.96,0.14,1.32,0.25
				c0.11,0.04,0.16,0.1,0.16,0.2c0,0.06-0.02,0.12-0.05,0.18c-0.1,0.21-0.15,0.89-0.15,2.04v2.62c0,2.02-0.45,3.6-1.35,4.75
				c-0.81,0.99-1.95,1.75-3.4,2.28c-0.07,0.03-0.13,0.04-0.18,0.04c-0.08,0-0.16-0.04-0.25-0.11
				C327,86.94,326.74,86.75,326.43,86.58z"/>
			<path class="st5" d="M340.93,77.07c0.26-0.31,0.46-0.55,0.61-0.71c0.05-0.06,0.1-0.08,0.15-0.08c0.04,0,0.08,0.01,0.13,0.04
				c0.98,0.55,1.92,1.24,2.79,2.07c0.06,0.07,0.09,0.12,0.09,0.17c0,0.04-0.02,0.08-0.05,0.13c-0.19,0.28-0.36,0.5-0.53,0.67
				c-0.05,0.06-0.09,0.09-0.13,0.09c-0.03,0-0.07-0.03-0.12-0.08C342.96,78.46,341.98,77.69,340.93,77.07z M341.3,85.2
				c0.55-0.16,1.09-0.37,1.63-0.64c1.75-0.92,3.24-1.89,4.48-2.89c1.78-1.46,3.17-2.85,4.19-4.17c0.05,0.34,0.14,0.68,0.27,1.02
				c0.04,0.08,0.05,0.15,0.05,0.21c0,0.1-0.06,0.21-0.17,0.33c-0.94,1.11-2.19,2.3-3.76,3.57c-1.26,1-2.81,2.01-4.66,3.03
				c-0.34,0.2-0.63,0.4-0.85,0.6c-0.08,0.07-0.15,0.11-0.21,0.11c-0.07,0-0.13-0.04-0.2-0.12C341.8,85.98,341.54,85.62,341.3,85.2z"
				/>
			<path class="st5" d="M362.11,77.04l3.48-0.06c0.38-0.02,0.64-0.07,0.77-0.17c0.04-0.03,0.09-0.04,0.14-0.04
				c0.07,0,0.16,0.04,0.27,0.11c0.22,0.15,0.42,0.32,0.62,0.51c0.09,0.09,0.13,0.17,0.13,0.25c0,0.08-0.03,0.15-0.1,0.21
				c-0.17,0.15-0.31,0.33-0.41,0.54c-0.95,2.03-1.95,3.66-2.99,4.88c-1.45,1.65-3.06,2.99-4.84,4.01c-0.05,0.03-0.09,0.04-0.14,0.04
				c-0.07,0-0.13-0.03-0.2-0.09c-0.2-0.18-0.49-0.33-0.87-0.45c1.17-0.63,2.18-1.31,3.04-2.03c0.68-0.56,1.38-1.26,2.1-2.08
				c1.15-1.36,2.12-2.95,2.92-4.79l-4.47,0.13c-1.21,1.5-2.23,2.61-3.07,3.31c-0.09,0.08-0.18,0.12-0.26,0.12
				c-0.07,0-0.14-0.03-0.23-0.09c-0.22-0.16-0.48-0.26-0.79-0.33c1.69-1.35,3.04-2.86,4.05-4.51c0.45-0.77,0.72-1.43,0.79-1.98
				c0.52,0.16,0.91,0.34,1.17,0.55c0.08,0.06,0.12,0.12,0.12,0.2c0,0.08-0.04,0.15-0.12,0.2c-0.16,0.1-0.31,0.27-0.47,0.53
				C362.38,76.6,362.17,76.94,362.11,77.04z M366.75,75.22l0.55-0.4c0.03-0.03,0.06-0.04,0.09-0.04c0.03,0,0.05,0.01,0.08,0.04
				c0.64,0.44,1.22,1.07,1.75,1.88c0.02,0.02,0.03,0.04,0.03,0.07c0,0.04-0.02,0.07-0.06,0.1l-0.45,0.37
				c-0.04,0.03-0.07,0.04-0.1,0.04c-0.05,0-0.08-0.02-0.11-0.07C368.06,76.39,367.46,75.73,366.75,75.22z M368.11,74.18l0.49-0.39
				c0.04-0.03,0.07-0.04,0.1-0.04c0.02,0,0.05,0.01,0.08,0.03c0.74,0.57,1.33,1.17,1.77,1.81c0.02,0.03,0.02,0.06,0.02,0.08
				c0,0.04-0.03,0.07-0.08,0.11l-0.42,0.37c-0.03,0.03-0.06,0.04-0.08,0.04c-0.04,0-0.07-0.03-0.11-0.08
				C369.43,75.37,368.84,74.73,368.11,74.18z"/>
		</g>
	</g>
</g>
<g>
	<path class="st4" d="M640.96,67.93L640.96,67.93l-99.26,0v0.03c-0.16-0.01-0.31-0.02-0.47-0.02c-6.53,0-11.83,5.3-11.83,11.83
		c0,6.53,5.3,11.83,11.83,11.83c0.16,0,0.31-0.02,0.47-0.02v0.02h99.22c0.01,0,0.02,0,0.04,0c6.53,0,11.83-5.3,11.83-11.83
		C652.79,73.23,647.49,67.93,640.96,67.93z"/>
	<g>
		<g>
			<path class="st5" d="M553.85,80.01c1.66-0.44,3.16-0.98,4.51-1.61c0.71-0.34,1.21-0.68,1.51-1.02c0.42,0.35,0.72,0.63,0.89,0.86
				c0.05,0.06,0.07,0.12,0.07,0.19c0,0.12-0.06,0.19-0.19,0.21c-0.23,0.05-0.7,0.24-1.43,0.58c-1.51,0.68-3.3,1.3-5.36,1.86v2.67
				c0,0.42,0.07,0.72,0.21,0.9c0.12,0.15,0.32,0.25,0.6,0.3c0.53,0.12,1.3,0.17,2.32,0.17c1.35,0,2.66-0.11,3.94-0.34
				c0.04,0,0.06-0.01,0.08-0.01c0.08,0,0.12,0.06,0.14,0.17c0.04,0.28,0.06,0.53,0.08,0.74c0,0.13-0.08,0.2-0.25,0.21
				c-1.23,0.18-2.63,0.27-4.2,0.27c-1.13,0-2.04-0.09-2.74-0.28c-0.82-0.23-1.23-0.87-1.23-1.92v-5.77c0-1.38-0.05-2.3-0.14-2.74
				c0.61,0.08,1.03,0.15,1.26,0.22c0.11,0.03,0.17,0.09,0.17,0.19c0,0.06-0.02,0.14-0.07,0.24c-0.12,0.24-0.17,0.86-0.17,1.86V80.01
				z"/>
			<path class="st5" d="M567.75,76c0.74,0.07,1.8,0.11,3.19,0.11h6.45c0.59,0,0.97-0.03,1.16-0.09c0.1-0.04,0.18-0.06,0.24-0.06
				c0.07,0,0.14,0.04,0.23,0.11c0.23,0.2,0.42,0.4,0.57,0.61c0.06,0.07,0.08,0.13,0.08,0.2c0,0.1-0.05,0.18-0.16,0.24
				c-0.09,0.05-0.2,0.18-0.34,0.39c-0.73,1.1-1.72,2.12-2.96,3.05c-0.06,0.04-0.12,0.07-0.19,0.07c-0.08,0-0.15-0.03-0.21-0.08
				c-0.21-0.17-0.48-0.3-0.81-0.39c1.36-0.87,2.41-1.88,3.15-3.05h-7.09c-1.02,0-1.99,0.05-2.88,0.14c-0.02,0-0.04,0-0.05,0
				c-0.12,0-0.19-0.06-0.21-0.17C567.85,76.75,567.79,76.39,567.75,76z M568.89,86.71c1.56-0.82,2.63-1.83,3.21-3.04
				c0.51-1.08,0.77-2.35,0.77-3.81c0-0.44-0.05-0.87-0.14-1.28c0.53,0.04,0.93,0.11,1.23,0.21c0.14,0.06,0.21,0.14,0.21,0.25
				c0,0.06-0.02,0.12-0.06,0.2c-0.08,0.15-0.12,0.4-0.12,0.76c0,1.57-0.29,2.94-0.89,4.12c-0.6,1.19-1.56,2.21-2.91,3.06
				c-0.1,0.06-0.18,0.08-0.26,0.08c-0.08,0-0.15-0.03-0.21-0.08C569.52,87,569.24,86.84,568.89,86.71z"/>
			<path class="st5" d="M587.01,75.17c0.47,0.06,0.89,0.14,1.26,0.25c0.12,0.04,0.17,0.11,0.17,0.22c0,0.05-0.01,0.1-0.03,0.15
				c-0.11,0.19-0.16,0.73-0.16,1.63v2.62c0,0.69,0.02,1.38,0.05,2.05c0,0.16-0.08,0.24-0.23,0.24h-0.73c-0.13,0-0.2-0.06-0.2-0.18
				c0-0.02,0-0.04,0-0.05c0.02-0.92,0.03-1.63,0.03-2.13v-2.56C587.19,76.5,587.13,75.76,587.01,75.17z M587.73,86.58
				c1.62-0.47,2.83-1.18,3.62-2.13c0.83-1.01,1.24-2.39,1.24-4.16v-2.67c0-1.3-0.06-2.2-0.17-2.72c0.52,0.06,0.96,0.14,1.32,0.25
				c0.11,0.04,0.16,0.1,0.16,0.2c0,0.06-0.02,0.12-0.05,0.18c-0.1,0.21-0.15,0.89-0.15,2.04v2.62c0,2.02-0.45,3.6-1.35,4.75
				c-0.81,0.99-1.95,1.75-3.4,2.28c-0.07,0.03-0.13,0.04-0.18,0.04c-0.08,0-0.16-0.04-0.25-0.11
				C588.3,86.94,588.04,86.75,587.73,86.58z"/>
			<path class="st5" d="M602.23,77.07c0.26-0.31,0.46-0.55,0.61-0.71c0.05-0.06,0.1-0.08,0.15-0.08c0.04,0,0.08,0.01,0.13,0.04
				c0.98,0.55,1.92,1.24,2.79,2.07c0.06,0.07,0.09,0.12,0.09,0.17c0,0.04-0.01,0.08-0.04,0.13c-0.19,0.28-0.36,0.5-0.53,0.67
				c-0.05,0.06-0.09,0.09-0.13,0.09c-0.03,0-0.07-0.03-0.12-0.08C604.26,78.46,603.27,77.69,602.23,77.07z M602.6,85.2
				c0.54-0.16,1.09-0.37,1.63-0.64c1.75-0.92,3.24-1.89,4.48-2.89c1.78-1.46,3.17-2.85,4.19-4.17c0.05,0.34,0.14,0.68,0.27,1.02
				c0.04,0.08,0.05,0.15,0.05,0.21c0,0.1-0.06,0.21-0.17,0.33c-0.94,1.11-2.19,2.3-3.76,3.57c-1.26,1-2.81,2.01-4.66,3.03
				c-0.34,0.2-0.63,0.4-0.85,0.6c-0.08,0.07-0.15,0.11-0.21,0.11c-0.07,0-0.13-0.04-0.21-0.12C603.1,85.98,602.84,85.62,602.6,85.2z
				"/>
			<path class="st5" d="M623.4,77.04l3.48-0.06c0.38-0.02,0.64-0.07,0.77-0.17c0.04-0.03,0.09-0.04,0.14-0.04
				c0.07,0,0.16,0.04,0.27,0.11c0.22,0.15,0.42,0.32,0.62,0.51c0.09,0.09,0.13,0.17,0.13,0.25c0,0.08-0.03,0.15-0.1,0.21
				c-0.17,0.15-0.31,0.33-0.41,0.54c-0.95,2.03-1.95,3.66-2.99,4.88c-1.45,1.65-3.06,2.99-4.84,4.01c-0.05,0.03-0.09,0.04-0.14,0.04
				c-0.07,0-0.13-0.03-0.2-0.09c-0.2-0.18-0.49-0.33-0.87-0.45c1.17-0.63,2.18-1.31,3.04-2.03c0.68-0.56,1.38-1.26,2.1-2.08
				c1.15-1.36,2.12-2.95,2.92-4.79l-4.47,0.13c-1.21,1.5-2.23,2.61-3.07,3.31c-0.09,0.08-0.18,0.12-0.26,0.12
				c-0.07,0-0.14-0.03-0.23-0.09c-0.22-0.16-0.48-0.26-0.79-0.33c1.69-1.35,3.04-2.86,4.05-4.51c0.45-0.77,0.72-1.43,0.79-1.98
				c0.52,0.16,0.91,0.34,1.17,0.55c0.08,0.06,0.12,0.12,0.12,0.2c0,0.08-0.04,0.15-0.12,0.2c-0.16,0.1-0.31,0.27-0.47,0.53
				C623.68,76.6,623.47,76.94,623.4,77.04z M628.04,75.22l0.55-0.4c0.03-0.03,0.06-0.04,0.09-0.04c0.03,0,0.05,0.01,0.08,0.04
				c0.64,0.44,1.22,1.07,1.75,1.88c0.02,0.02,0.03,0.04,0.03,0.07c0,0.04-0.02,0.07-0.06,0.1l-0.45,0.37
				c-0.04,0.03-0.07,0.04-0.1,0.04c-0.04,0-0.08-0.02-0.11-0.07C629.36,76.39,628.76,75.73,628.04,75.22z M629.41,74.18l0.49-0.39
				c0.04-0.03,0.07-0.04,0.1-0.04s0.05,0.01,0.08,0.03c0.74,0.57,1.33,1.17,1.77,1.81c0.01,0.03,0.02,0.06,0.02,0.08
				c0,0.04-0.02,0.07-0.08,0.11l-0.42,0.37c-0.03,0.03-0.06,0.04-0.08,0.04c-0.04,0-0.07-0.03-0.11-0.08
				C630.73,75.37,630.14,74.73,629.41,74.18z"/>
		</g>
	</g>
</g>
</svg>
