<?xml version="1.0" encoding="utf-8"?>
<!-- Generator: Adobe Illustrator 25.0.1, SVG Export Plug-In . SVG Version: 6.00 Build 0)  -->
<svg version="1.1" id="レイヤー_1" xmlns="http://www.w3.org/2000/svg" xmlns:xlink="http://www.w3.org/1999/xlink" x="0px"
	 y="0px" viewBox="0 0 595.28 108.22" style="enable-background:new 0 0 595.28 108.22;" xml:space="preserve">
<style type="text/css">
	.st0{fill:#FFFFFF;}
	.st1{fill:#727171;}
</style>
<g>
	<rect x="260.93" y="67.65" class="st0" width="63" height="21.67"/>
	<path class="st1" d="M324.43,89.81h-64V67.15h64V89.81z M261.43,88.81h62V68.15h-62V88.81z"/>
</g>
<g>
	<g>
		<path d="M267.1,77.43v0.61c0.38-0.45,0.76-0.68,1.13-0.68c0.26,0,0.47,0.08,0.62,0.25c0.13,0.15,0.2,0.34,0.2,0.57v2.28h-0.24
			v-2.14c0-0.5-0.2-0.75-0.61-0.75c-0.36,0-0.72,0.23-1.1,0.69v2.2h-0.24v-3.04H267.1z"/>
		<path d="M271.53,77.36c0.38,0,0.69,0.16,0.92,0.48c0.2,0.28,0.3,0.65,0.3,1.1c0,0.52-0.13,0.92-0.39,1.22
			c-0.22,0.25-0.5,0.38-0.83,0.38c-0.39,0-0.69-0.16-0.92-0.48c-0.2-0.28-0.3-0.65-0.3-1.1c0-0.52,0.13-0.92,0.39-1.21
			C270.92,77.48,271.19,77.36,271.53,77.36z M271.53,77.57c-0.32,0-0.56,0.14-0.74,0.41c-0.16,0.24-0.24,0.57-0.24,0.97
			c0,0.46,0.1,0.82,0.31,1.07c0.17,0.21,0.4,0.32,0.67,0.32c0.31,0,0.56-0.14,0.73-0.41c0.16-0.25,0.24-0.57,0.24-0.97
			c0-0.46-0.1-0.81-0.31-1.06C272.02,77.67,271.8,77.57,271.53,77.57z"/>
		<path d="M274.36,76.31v1.12h0.77v0.21h-0.77v2.14c0,0.38,0.16,0.56,0.48,0.56c0.14,0,0.27-0.01,0.39-0.04l-0.02,0.21
			c-0.13,0.03-0.25,0.04-0.38,0.04c-0.24,0-0.43-0.07-0.55-0.21c-0.11-0.13-0.17-0.3-0.17-0.53v-2.18h-0.53v-0.21h0.53v-1.06
			L274.36,76.31z"/>
		<path d="M278.42,78.92h-2.2c0,0.48,0.11,0.85,0.34,1.1c0.18,0.2,0.41,0.3,0.68,0.3c0.26,0,0.46-0.06,0.62-0.19
			c0.13-0.11,0.24-0.27,0.32-0.49l0.23,0.11c-0.23,0.52-0.61,0.78-1.16,0.78c-0.39,0-0.7-0.16-0.94-0.48
			c-0.21-0.29-0.31-0.65-0.31-1.1c0-0.51,0.13-0.92,0.4-1.21c0.22-0.25,0.5-0.38,0.83-0.38c0.38,0,0.68,0.16,0.91,0.46
			c0.2,0.27,0.3,0.62,0.3,1.03V78.92z M278.17,78.71c-0.03-0.39-0.15-0.69-0.34-0.89c-0.17-0.17-0.37-0.25-0.62-0.25
			c-0.28,0-0.52,0.11-0.7,0.34c-0.16,0.21-0.26,0.47-0.28,0.8H278.17z"/>
		<path d="M283.82,76.66c-0.05,0.54-0.16,1.07-0.34,1.6c-0.15,0.45-0.32,0.82-0.51,1.11c-0.14,0.23-0.28,0.38-0.42,0.47
			c-0.11,0.07-0.24,0.11-0.39,0.11c-0.23,0-0.42-0.12-0.56-0.37c-0.13-0.23-0.2-0.53-0.2-0.9c0-0.3,0.07-0.6,0.22-0.9
			c0.13-0.27,0.3-0.5,0.52-0.68c0.47-0.41,1.04-0.62,1.71-0.62c0.71,0,1.26,0.19,1.64,0.58c0.33,0.33,0.49,0.76,0.49,1.3
			c0,0.53-0.19,0.99-0.55,1.36c-0.36,0.37-0.87,0.61-1.51,0.73c-0.01,0-0.01,0-0.02,0c-0.03,0-0.05-0.01-0.06-0.04
			c-0.02-0.04-0.05-0.08-0.1-0.12c0.69-0.12,1.22-0.38,1.58-0.8c0.29-0.34,0.44-0.74,0.44-1.19c0-0.54-0.2-0.97-0.59-1.28
			c-0.32-0.25-0.71-0.37-1.16-0.37L283.82,76.66z M283.6,76.67c-0.52,0.04-0.95,0.23-1.31,0.55c-0.24,0.23-0.43,0.5-0.55,0.8
			c-0.09,0.23-0.14,0.45-0.14,0.67c0,0.37,0.07,0.64,0.22,0.83c0.1,0.13,0.22,0.2,0.35,0.2c0.24,0,0.46-0.17,0.65-0.5
			c0.21-0.35,0.38-0.76,0.52-1.24C283.48,77.53,283.57,77.09,283.6,76.67z"/>
		<path d="M287.86,76.35c0.23,0.02,0.55,0.02,0.94,0.02h2.85c0.3,0,0.47-0.01,0.52-0.04c0.02-0.01,0.04-0.01,0.05-0.01
			c0.01,0,0.03,0.01,0.06,0.03c0.05,0.05,0.1,0.09,0.13,0.13c0.01,0.02,0.01,0.04,0.01,0.05c0,0.03-0.01,0.05-0.04,0.07
			c-0.02,0.01-0.06,0.06-0.12,0.13c-0.33,0.49-0.75,0.9-1.26,1.23c-0.01,0.01-0.02,0.01-0.04,0.01c-0.02,0-0.03,0-0.04-0.01
			c-0.07-0.05-0.13-0.08-0.18-0.09c0.6-0.35,1.05-0.78,1.35-1.29h-3.29c-0.3,0-0.58,0.01-0.83,0.04c-0.01,0-0.02,0-0.03,0
			c-0.04,0-0.07-0.02-0.07-0.06c0-0.01,0-0.04-0.01-0.1C287.87,76.42,287.86,76.39,287.86,76.35z M288.37,80.47
			c0.3-0.15,0.56-0.35,0.79-0.59c0.2-0.2,0.36-0.42,0.46-0.64c0.22-0.45,0.33-0.98,0.33-1.58c0-0.18-0.01-0.33-0.04-0.46
			c0.11,0.02,0.2,0.05,0.27,0.07c0.04,0.01,0.06,0.04,0.06,0.07c0,0.02-0.01,0.04-0.02,0.06c-0.03,0.04-0.04,0.11-0.04,0.19
			c0,0.69-0.12,1.27-0.36,1.75c-0.24,0.48-0.63,0.89-1.19,1.23c-0.02,0.01-0.03,0.01-0.05,0.01c-0.02,0-0.03-0.01-0.05-0.02
			C288.51,80.53,288.45,80.5,288.37,80.47z"/>
		<path d="M296.27,77.25c0.03-0.22,0.04-0.4,0.05-0.53c0.01-0.2,0.02-0.35,0.02-0.44c0-0.13-0.01-0.25-0.02-0.36
			c0.11,0.02,0.21,0.04,0.28,0.07c0.04,0.02,0.06,0.05,0.06,0.09c0,0.02-0.01,0.05-0.03,0.07c-0.03,0.03-0.04,0.09-0.05,0.17
			c0,0.02-0.01,0.13-0.03,0.33c-0.03,0.28-0.05,0.48-0.06,0.6h1.13c0.15,0,0.39,0,0.72-0.01c0.03,0,0.05,0,0.06,0.01
			c0.01,0.01,0.01,0.03,0.01,0.05c0,0.06,0,0.15-0.01,0.28c0,0.1,0,0.18-0.01,0.23c-0.03,0.83-0.11,1.46-0.23,1.89
			c-0.06,0.22-0.13,0.38-0.2,0.48c-0.06,0.09-0.15,0.16-0.26,0.2c-0.13,0.05-0.34,0.08-0.64,0.08c-0.04,0-0.07-0.01-0.07-0.04
			c-0.01-0.07-0.05-0.13-0.11-0.2c0.09,0.01,0.18,0.01,0.25,0.01c0.22,0,0.39-0.02,0.5-0.07c0.09-0.04,0.16-0.1,0.2-0.19
			c0.04-0.07,0.08-0.2,0.12-0.36c0.13-0.52,0.21-1.23,0.23-2.16h-1.72c-0.09,0.68-0.27,1.27-0.56,1.77
			c-0.14,0.23-0.33,0.47-0.58,0.71c-0.23,0.22-0.48,0.41-0.73,0.56c-0.01,0.01-0.03,0.01-0.04,0.01c-0.01,0-0.02,0-0.03-0.01
			c-0.05-0.04-0.12-0.08-0.21-0.1c0.62-0.32,1.08-0.74,1.38-1.25c0.28-0.46,0.46-1.02,0.54-1.68h-0.82c-0.35,0-0.62,0-0.83,0.01
			c-0.04,0-0.07-0.02-0.07-0.06c0-0.03-0.01-0.09-0.01-0.17c0.32,0.01,0.62,0.02,0.9,0.02H296.27z"/>
		<path d="M303.04,76.88h1.07c0.34,0,0.54-0.01,0.58-0.02c0.03-0.01,0.05-0.02,0.07-0.02c0.03,0,0.05,0.01,0.07,0.03
			c0.04,0.04,0.08,0.08,0.12,0.12c0.01,0.02,0.02,0.03,0.02,0.05c0,0.02-0.01,0.04-0.03,0.06c-0.02,0.02-0.04,0.08-0.06,0.15
			c-0.15,0.68-0.4,1.3-0.72,1.85c-0.37,0.62-0.92,1.16-1.67,1.62c-0.02,0.01-0.03,0.02-0.04,0.02c-0.01,0-0.03-0.01-0.04-0.02
			c-0.04-0.04-0.1-0.08-0.17-0.11c0.79-0.44,1.36-0.97,1.72-1.6c0.37-0.66,0.62-1.3,0.74-1.93h-3.32v0.66
			c0,0.24,0.01,0.49,0.02,0.73c0,0.05-0.02,0.07-0.05,0.07h-0.15c-0.03,0-0.05-0.02-0.05-0.07c0.01-0.16,0.01-0.4,0.01-0.73v-0.39
			c0-0.21,0-0.36-0.01-0.45c0-0.01,0-0.01,0-0.02c0-0.03,0.01-0.04,0.04-0.04c0.01,0,0.01,0,0.02,0c0.22,0.02,0.47,0.03,0.77,0.03
			h0.86v-0.36c0-0.31-0.01-0.53-0.03-0.67c0.11,0.01,0.2,0.02,0.26,0.04c0.03,0.01,0.04,0.03,0.04,0.06c0,0.02-0.01,0.05-0.03,0.07
			c-0.02,0.03-0.04,0.2-0.04,0.5V76.88z"/>
		<path d="M307.68,76.54c0.39,0.24,0.75,0.5,1.06,0.79c0.02,0.01,0.03,0.03,0.03,0.05c0,0.01,0,0.02-0.01,0.03
			c-0.03,0.05-0.06,0.09-0.09,0.12c-0.01,0.01-0.02,0.02-0.03,0.02s-0.02,0-0.03-0.01c-0.36-0.34-0.73-0.62-1.1-0.84
			c0.06-0.08,0.1-0.13,0.1-0.13c0.02-0.02,0.03-0.03,0.04-0.03C307.65,76.52,307.66,76.52,307.68,76.54z M307.65,80.05
			c0.15-0.05,0.33-0.12,0.52-0.22c0.67-0.35,1.26-0.73,1.78-1.15c0.68-0.55,1.23-1.1,1.67-1.64c0,0.06,0.02,0.12,0.05,0.2
			c0.01,0.02,0.01,0.04,0.01,0.05c0,0.03-0.01,0.06-0.04,0.09c-0.36,0.44-0.88,0.94-1.56,1.49c-0.46,0.38-1.08,0.77-1.85,1.19
			c-0.16,0.08-0.26,0.15-0.3,0.21c-0.02,0.02-0.04,0.03-0.06,0.03c-0.02,0-0.03-0.01-0.05-0.03
			C307.75,80.22,307.7,80.14,307.65,80.05z"/>
		<path d="M315.56,77.66c0.67,0.18,1.35,0.47,2.06,0.87c0.02,0.01,0.04,0.02,0.04,0.04c0,0.01,0,0.02-0.01,0.02
			c-0.02,0.05-0.04,0.09-0.07,0.13c-0.02,0.02-0.03,0.03-0.04,0.03c-0.01,0-0.03-0.01-0.05-0.02c-0.55-0.36-1.19-0.64-1.93-0.85
			v1.69c0,0.36,0.01,0.72,0.02,1.09c0,0.05-0.02,0.07-0.06,0.07h-0.14c-0.04,0-0.06-0.03-0.06-0.08c0.01-0.36,0.02-0.72,0.02-1.08
			v-3.12c0-0.26-0.01-0.49-0.04-0.67c0.12,0.01,0.21,0.02,0.28,0.04c0.03,0.01,0.05,0.03,0.05,0.06c0,0.02-0.01,0.04-0.02,0.07
			c-0.03,0.05-0.05,0.21-0.05,0.47V77.66z"/>
	</g>
</g>
<g>
	<rect x="337.81" y="68.05" class="st0" width="63" height="21.67"/>
	<path class="st1" d="M401.31,90.22h-64V67.55h64V90.22z M338.31,89.22h62V68.55h-62V89.22z"/>
</g>
<g>
	<g>
		<path d="M351.98,72.95v4.46h-0.25v-4.46H351.98z"/>
		<path d="M353.76,74.37v0.61c0.38-0.45,0.76-0.68,1.13-0.68c0.26,0,0.47,0.08,0.62,0.25c0.13,0.15,0.2,0.34,0.2,0.57v2.28h-0.24
			v-2.14c0-0.5-0.2-0.75-0.61-0.75c-0.36,0-0.72,0.23-1.1,0.69v2.2h-0.24v-3.04H353.76z"/>
		<path d="M359.05,74.99l-0.23,0.1c-0.14-0.39-0.41-0.58-0.81-0.58c-0.26,0-0.46,0.06-0.6,0.17c-0.12,0.1-0.17,0.23-0.17,0.4
			c0,0.19,0.06,0.33,0.17,0.42c0.1,0.08,0.28,0.15,0.54,0.2l0.23,0.05c0.37,0.08,0.63,0.19,0.76,0.33c0.13,0.13,0.19,0.31,0.19,0.55
			c0,0.26-0.1,0.48-0.3,0.63c-0.2,0.15-0.46,0.23-0.79,0.23c-0.28,0-0.53-0.07-0.73-0.21c-0.18-0.13-0.32-0.3-0.4-0.51l0.23-0.1
			c0.15,0.42,0.45,0.63,0.91,0.63c0.31,0,0.53-0.07,0.68-0.22c0.11-0.11,0.17-0.25,0.17-0.42c0-0.21-0.06-0.37-0.17-0.46
			c-0.11-0.09-0.31-0.17-0.6-0.23l-0.23-0.05c-0.36-0.08-0.6-0.19-0.73-0.33c-0.1-0.12-0.16-0.28-0.16-0.48
			c0-0.24,0.09-0.44,0.28-0.58c0.18-0.14,0.42-0.2,0.73-0.2C358.51,74.3,358.86,74.53,359.05,74.99z"/>
		<path d="M360.75,73.25v1.12h0.77v0.21h-0.77v2.14c0,0.38,0.16,0.56,0.48,0.56c0.14,0,0.27-0.01,0.39-0.04l-0.02,0.21
			c-0.13,0.03-0.25,0.04-0.38,0.04c-0.24,0-0.43-0.07-0.55-0.21c-0.11-0.13-0.17-0.3-0.17-0.53v-2.18h-0.53v-0.21h0.53v-1.06
			L360.75,73.25z"/>
		<path d="M362.5,75.05c0.2-0.5,0.58-0.75,1.14-0.75c0.36,0,0.62,0.09,0.78,0.27c0.15,0.17,0.22,0.41,0.22,0.74v1
			c0,0.48,0.03,0.85,0.08,1.1h-0.23c-0.03-0.14-0.06-0.34-0.08-0.6c-0.3,0.44-0.67,0.66-1.12,0.66c-0.32,0-0.56-0.09-0.73-0.28
			c-0.14-0.15-0.21-0.35-0.21-0.58c0-0.55,0.34-0.88,1.01-0.99c0.26-0.04,0.6-0.08,1.04-0.1v-0.17c0-0.33-0.07-0.56-0.2-0.69
			c-0.12-0.11-0.31-0.17-0.56-0.17c-0.47,0-0.78,0.22-0.92,0.66L362.5,75.05z M364.4,75.72c-0.35,0.01-0.68,0.05-1,0.1
			c-0.54,0.1-0.81,0.36-0.81,0.79c0,0.22,0.07,0.39,0.21,0.5c0.12,0.1,0.29,0.16,0.49,0.16c0.43,0,0.8-0.24,1.1-0.72V75.72z"/>
		<path d="M368.44,74.03l-0.02,0.25c-0.16,0-0.29,0.02-0.4,0.07c-0.09,0.04-0.18,0.11-0.28,0.2c0.23,0.19,0.35,0.45,0.35,0.77
			c0,0.33-0.11,0.6-0.34,0.78c-0.19,0.16-0.42,0.23-0.7,0.23c-0.19,0-0.37-0.04-0.53-0.13c-0.22,0.13-0.32,0.25-0.32,0.36
			c0,0.1,0.05,0.16,0.14,0.2c0.1,0.05,0.3,0.08,0.59,0.12l0.52,0.06c0.41,0.05,0.68,0.13,0.83,0.27c0.11,0.1,0.17,0.25,0.17,0.45
			c0,0.25-0.13,0.45-0.38,0.6c-0.24,0.14-0.56,0.21-0.96,0.21c-0.43,0-0.77-0.08-1-0.23c-0.2-0.13-0.3-0.31-0.3-0.52
			c0-0.32,0.22-0.55,0.65-0.68c-0.32-0.05-0.49-0.19-0.49-0.42c0-0.18,0.13-0.35,0.39-0.52c-0.24-0.19-0.36-0.45-0.36-0.78
			c0-0.33,0.12-0.59,0.35-0.78c0.19-0.16,0.43-0.24,0.7-0.24c0.2,0,0.38,0.05,0.54,0.14C367.81,74.17,368.09,74.03,368.44,74.03z
			 M366.72,77.09c-0.45,0.13-0.68,0.33-0.68,0.6c0,0.21,0.11,0.36,0.34,0.47c0.19,0.09,0.43,0.13,0.72,0.13
			c0.37,0,0.65-0.07,0.86-0.2c0.17-0.11,0.25-0.25,0.25-0.41c0-0.16-0.06-0.27-0.18-0.34c-0.13-0.08-0.35-0.13-0.66-0.17
			L366.72,77.09z M367.05,74.5c-0.24,0-0.44,0.08-0.6,0.24c-0.14,0.15-0.22,0.34-0.22,0.58c0,0.27,0.09,0.48,0.28,0.64
			c0.15,0.12,0.32,0.18,0.53,0.18c0.24,0,0.44-0.08,0.59-0.24c0.14-0.15,0.21-0.34,0.21-0.58c0-0.27-0.09-0.48-0.27-0.63
			C367.44,74.56,367.26,74.5,367.05,74.5z"/>
		<path d="M370.85,74.3l-0.02,0.24c-0.23,0-0.44,0.1-0.63,0.3c-0.18,0.19-0.31,0.43-0.4,0.74v1.83h-0.24v-3.04h0.23v0.82
			c0.12-0.3,0.28-0.53,0.5-0.69C370.47,74.37,370.65,74.3,370.85,74.3z"/>
		<path d="M371.83,75.05c0.2-0.5,0.58-0.75,1.14-0.75c0.36,0,0.62,0.09,0.78,0.27c0.15,0.17,0.22,0.41,0.22,0.74v1
			c0,0.48,0.03,0.85,0.08,1.1h-0.23c-0.03-0.14-0.06-0.34-0.08-0.6c-0.3,0.44-0.67,0.66-1.12,0.66c-0.32,0-0.56-0.09-0.73-0.28
			c-0.14-0.15-0.21-0.35-0.21-0.58c0-0.55,0.34-0.88,1.01-0.99c0.26-0.04,0.6-0.08,1.04-0.1v-0.17c0-0.33-0.07-0.56-0.2-0.69
			c-0.12-0.11-0.31-0.17-0.56-0.17c-0.47,0-0.78,0.22-0.92,0.66L371.83,75.05z M373.73,75.72c-0.35,0.01-0.68,0.05-1,0.1
			c-0.54,0.1-0.81,0.36-0.81,0.79c0,0.22,0.07,0.39,0.21,0.5c0.12,0.1,0.29,0.16,0.49,0.16c0.43,0,0.8-0.24,1.1-0.72V75.72z"/>
		<path d="M375.66,74.37v0.61c0.34-0.45,0.69-0.68,1.04-0.68c0.22,0,0.41,0.07,0.55,0.2c0.13,0.12,0.21,0.28,0.22,0.46
			c0.34-0.45,0.69-0.67,1.04-0.67c0.26,0,0.46,0.08,0.61,0.25c0.13,0.15,0.19,0.34,0.19,0.57v2.28h-0.24v-2.14
			c0-0.5-0.2-0.75-0.6-0.75c-0.18,0-0.37,0.07-0.56,0.21c-0.16,0.12-0.31,0.28-0.44,0.48v2.2h-0.24v-2.14c0-0.5-0.19-0.75-0.58-0.75
			c-0.36,0-0.7,0.23-1.01,0.69v2.2h-0.24v-3.04H375.66z"/>
		<path d="M384.94,73.6c-0.05,0.54-0.16,1.07-0.34,1.6c-0.15,0.45-0.32,0.82-0.51,1.11c-0.14,0.23-0.28,0.38-0.42,0.47
			c-0.11,0.07-0.24,0.11-0.39,0.11c-0.23,0-0.42-0.12-0.56-0.37c-0.13-0.23-0.2-0.53-0.2-0.9c0-0.3,0.07-0.6,0.22-0.9
			c0.13-0.27,0.3-0.5,0.52-0.68c0.47-0.41,1.04-0.62,1.71-0.62c0.71,0,1.26,0.19,1.64,0.58c0.33,0.33,0.49,0.76,0.49,1.3
			c0,0.53-0.19,0.99-0.55,1.36c-0.36,0.37-0.87,0.61-1.51,0.73c-0.01,0-0.01,0-0.02,0c-0.03,0-0.05-0.01-0.06-0.04
			c-0.02-0.04-0.05-0.08-0.1-0.12c0.69-0.12,1.22-0.38,1.58-0.8c0.29-0.34,0.44-0.74,0.44-1.19c0-0.54-0.2-0.97-0.59-1.28
			c-0.32-0.25-0.71-0.37-1.16-0.37L384.94,73.6z M384.71,73.61c-0.52,0.04-0.95,0.23-1.31,0.55c-0.24,0.23-0.43,0.5-0.55,0.8
			c-0.09,0.23-0.14,0.45-0.14,0.67c0,0.37,0.07,0.64,0.22,0.83c0.1,0.13,0.22,0.2,0.35,0.2c0.24,0,0.46-0.17,0.65-0.5
			c0.21-0.35,0.38-0.76,0.52-1.24C384.6,74.47,384.68,74.03,384.71,73.61z"/>
		<path d="M354.36,81.72c0.23,0.02,0.55,0.02,0.94,0.02h2.85c0.3,0,0.47-0.01,0.52-0.04c0.02-0.01,0.04-0.01,0.05-0.01
			c0.01,0,0.03,0.01,0.06,0.03c0.05,0.05,0.1,0.09,0.13,0.13c0.01,0.02,0.01,0.04,0.01,0.05c0,0.03-0.01,0.05-0.04,0.07
			c-0.02,0.01-0.06,0.06-0.12,0.13c-0.33,0.49-0.75,0.9-1.26,1.23c-0.01,0.01-0.02,0.01-0.04,0.01c-0.02,0-0.03,0-0.04-0.01
			c-0.07-0.05-0.13-0.08-0.18-0.09c0.6-0.35,1.05-0.78,1.35-1.29h-3.29c-0.3,0-0.58,0.01-0.83,0.04c-0.01,0-0.02,0-0.03,0
			c-0.04,0-0.07-0.02-0.07-0.06c0-0.01,0-0.04-0.01-0.1C354.37,81.79,354.37,81.75,354.36,81.72z M354.87,85.83
			c0.3-0.15,0.56-0.35,0.79-0.59c0.2-0.2,0.36-0.42,0.46-0.64c0.22-0.45,0.33-0.98,0.33-1.58c0-0.18-0.01-0.33-0.04-0.46
			c0.11,0.02,0.2,0.05,0.27,0.07c0.04,0.01,0.06,0.04,0.06,0.07c0,0.02-0.01,0.04-0.02,0.06c-0.03,0.04-0.04,0.11-0.04,0.19
			c0,0.69-0.12,1.27-0.36,1.75c-0.24,0.48-0.63,0.89-1.19,1.23c-0.02,0.01-0.03,0.01-0.05,0.01c-0.02,0-0.03-0.01-0.05-0.02
			C355.01,85.89,354.95,85.86,354.87,85.83z"/>
		<path d="M362.77,82.61c0.03-0.22,0.04-0.4,0.05-0.53c0.01-0.2,0.02-0.35,0.02-0.44c0-0.13-0.01-0.25-0.02-0.36
			c0.11,0.02,0.21,0.04,0.28,0.07c0.04,0.02,0.06,0.05,0.06,0.09c0,0.02-0.01,0.05-0.03,0.07c-0.03,0.03-0.04,0.09-0.05,0.17
			c0,0.02-0.01,0.13-0.03,0.33c-0.03,0.28-0.05,0.48-0.06,0.6h1.13c0.15,0,0.39,0,0.72-0.01c0.03,0,0.05,0,0.06,0.01
			c0.01,0.01,0.01,0.03,0.01,0.05c0,0.06,0,0.15-0.01,0.28c0,0.1,0,0.18-0.01,0.23c-0.03,0.83-0.11,1.46-0.23,1.89
			c-0.06,0.22-0.13,0.38-0.2,0.48c-0.06,0.09-0.15,0.16-0.26,0.2c-0.13,0.05-0.34,0.08-0.64,0.08c-0.04,0-0.07-0.01-0.07-0.04
			c-0.01-0.07-0.05-0.13-0.11-0.2c0.09,0.01,0.18,0.01,0.25,0.01c0.22,0,0.39-0.02,0.5-0.07c0.09-0.04,0.16-0.1,0.2-0.19
			c0.04-0.07,0.08-0.2,0.12-0.36c0.13-0.52,0.21-1.23,0.23-2.16h-1.72c-0.09,0.68-0.27,1.27-0.56,1.77
			c-0.14,0.23-0.33,0.47-0.58,0.71c-0.23,0.22-0.48,0.41-0.73,0.56c-0.01,0.01-0.03,0.01-0.04,0.01c-0.01,0-0.02,0-0.03-0.01
			c-0.05-0.04-0.12-0.08-0.21-0.1c0.62-0.32,1.08-0.74,1.38-1.25c0.28-0.46,0.46-1.02,0.54-1.68h-0.82c-0.35,0-0.62,0-0.83,0.01
			c-0.04,0-0.07-0.02-0.07-0.06c0-0.03-0.01-0.09-0.01-0.17c0.32,0.01,0.62,0.02,0.9,0.02H362.77z"/>
		<path d="M369.54,82.24h1.07c0.34,0,0.54-0.01,0.58-0.02c0.03-0.01,0.05-0.02,0.07-0.02c0.03,0,0.05,0.01,0.07,0.03
			c0.04,0.04,0.08,0.08,0.12,0.12c0.01,0.02,0.02,0.03,0.02,0.05c0,0.02-0.01,0.04-0.03,0.06c-0.02,0.02-0.04,0.08-0.06,0.15
			c-0.15,0.68-0.4,1.3-0.72,1.85c-0.37,0.62-0.92,1.16-1.67,1.62c-0.02,0.01-0.03,0.02-0.04,0.02c-0.01,0-0.03-0.01-0.04-0.02
			c-0.04-0.04-0.1-0.08-0.17-0.11c0.79-0.44,1.36-0.97,1.72-1.6c0.37-0.66,0.62-1.3,0.74-1.93h-3.32v0.66
			c0,0.24,0.01,0.49,0.02,0.73c0,0.05-0.02,0.07-0.05,0.07h-0.15c-0.03,0-0.05-0.02-0.05-0.07c0.01-0.16,0.01-0.4,0.01-0.73v-0.39
			c0-0.21,0-0.36-0.01-0.45c0-0.01,0-0.01,0-0.02c0-0.03,0.01-0.04,0.04-0.04c0.01,0,0.01,0,0.02,0c0.22,0.02,0.47,0.03,0.77,0.03
			h0.86v-0.36c0-0.31-0.01-0.53-0.03-0.67c0.11,0.01,0.2,0.02,0.26,0.04c0.03,0.01,0.04,0.03,0.04,0.06c0,0.02-0.01,0.05-0.03,0.07
			c-0.02,0.03-0.04,0.2-0.04,0.5V82.24z"/>
		<path d="M374.18,81.9c0.39,0.24,0.75,0.5,1.06,0.79c0.02,0.01,0.03,0.03,0.03,0.05c0,0.01,0,0.02-0.01,0.03
			c-0.03,0.05-0.06,0.09-0.09,0.12c-0.01,0.01-0.02,0.02-0.03,0.02s-0.02,0-0.03-0.01c-0.36-0.34-0.73-0.62-1.1-0.84
			c0.06-0.08,0.1-0.13,0.1-0.13c0.02-0.02,0.03-0.03,0.04-0.03C374.15,81.88,374.16,81.89,374.18,81.9z M374.15,85.41
			c0.15-0.05,0.33-0.12,0.52-0.22c0.67-0.35,1.26-0.73,1.78-1.15c0.68-0.55,1.23-1.1,1.67-1.64c0,0.06,0.02,0.12,0.05,0.2
			c0.01,0.02,0.01,0.04,0.01,0.05c0,0.03-0.01,0.06-0.04,0.09c-0.36,0.44-0.88,0.94-1.56,1.49c-0.46,0.38-1.08,0.77-1.85,1.19
			c-0.16,0.08-0.26,0.15-0.3,0.21c-0.02,0.02-0.04,0.03-0.06,0.03c-0.02,0-0.03-0.01-0.05-0.03
			C374.25,85.58,374.2,85.5,374.15,85.41z"/>
		<path d="M382.06,83.02c0.67,0.18,1.35,0.47,2.06,0.87c0.02,0.01,0.04,0.02,0.04,0.04c0,0.01,0,0.02-0.01,0.02
			c-0.02,0.05-0.04,0.09-0.07,0.13c-0.02,0.02-0.03,0.03-0.04,0.03c-0.01,0-0.03-0.01-0.05-0.02c-0.55-0.36-1.19-0.64-1.93-0.85
			v1.69c0,0.36,0.01,0.72,0.02,1.09c0,0.05-0.02,0.07-0.06,0.07h-0.14c-0.04,0-0.06-0.03-0.06-0.08c0.01-0.36,0.02-0.72,0.02-1.08
			v-3.12c0-0.26-0.01-0.49-0.04-0.67c0.12,0.01,0.21,0.02,0.28,0.04c0.03,0.01,0.05,0.03,0.05,0.06c0,0.02-0.01,0.04-0.02,0.07
			c-0.03,0.05-0.05,0.21-0.05,0.47V83.02z"/>
	</g>
</g>
<g>
	<rect x="415.48" y="68.05" class="st0" width="63" height="21.67"/>
	<path class="st1" d="M478.98,90.22h-64V67.55h64V90.22z M415.98,89.22h62V68.55h-62V89.22z"/>
</g>
<g>
	<g>
		<path d="M436.46,72.95v0.22h-1.48v4.24h-0.25v-4.24h-1.48v-0.22H436.46z"/>
		<path d="M441.23,74.37l-0.94,3.04H440l-0.62-2.11c-0.06-0.2-0.12-0.44-0.17-0.75h-0.04c-0.06,0.3-0.13,0.54-0.18,0.75l-0.61,2.11
			h-0.29l-0.93-3.04h0.26l0.61,2.14c0.06,0.23,0.12,0.47,0.17,0.72h0.04c0.05-0.26,0.11-0.5,0.17-0.72l0.62-2.14h0.28l0.63,2.11
			c0.06,0.21,0.12,0.46,0.17,0.75h0.04c0.04-0.22,0.11-0.46,0.19-0.75l0.61-2.11H441.23z"/>
		<path d="M442.61,73.3v0.41h-0.38V73.3H442.61z M442.54,74.37v3.04h-0.24v-3.04H442.54z"/>
		<path d="M444.36,73.25v1.12h0.77v0.21h-0.77v2.14c0,0.38,0.16,0.56,0.48,0.56c0.14,0,0.27-0.01,0.39-0.04l-0.02,0.21
			c-0.13,0.03-0.25,0.04-0.38,0.04c-0.24,0-0.43-0.07-0.55-0.21c-0.11-0.13-0.17-0.3-0.17-0.53v-2.18h-0.53v-0.21h0.53v-1.06
			L444.36,73.25z"/>
		<path d="M446.52,73.25v1.12h0.77v0.21h-0.77v2.14c0,0.38,0.16,0.56,0.48,0.56c0.14,0,0.27-0.01,0.39-0.04l-0.02,0.21
			c-0.13,0.03-0.25,0.04-0.38,0.04c-0.24,0-0.43-0.07-0.55-0.21c-0.11-0.13-0.17-0.3-0.17-0.53v-2.18h-0.53v-0.21h0.53v-1.06
			L446.52,73.25z"/>
		<path d="M450.58,75.86h-2.2c0,0.48,0.11,0.85,0.34,1.1c0.18,0.2,0.41,0.3,0.68,0.3c0.26,0,0.46-0.06,0.62-0.19
			c0.13-0.11,0.24-0.27,0.32-0.49l0.23,0.11c-0.23,0.52-0.61,0.78-1.16,0.78c-0.39,0-0.7-0.16-0.94-0.48
			c-0.21-0.29-0.31-0.65-0.31-1.1c0-0.51,0.13-0.92,0.4-1.21c0.22-0.25,0.5-0.38,0.83-0.38c0.38,0,0.68,0.16,0.91,0.46
			c0.2,0.27,0.3,0.62,0.3,1.03V75.86z M450.34,75.66c-0.03-0.39-0.15-0.69-0.34-0.89c-0.17-0.17-0.37-0.25-0.62-0.25
			c-0.28,0-0.52,0.11-0.7,0.34c-0.16,0.21-0.26,0.47-0.28,0.8H450.34z"/>
		<path d="M453.12,74.3l-0.02,0.24c-0.23,0-0.44,0.1-0.63,0.3c-0.18,0.19-0.31,0.43-0.4,0.74v1.83h-0.24v-3.04h0.23v0.82
			c0.12-0.3,0.28-0.53,0.5-0.69C452.74,74.37,452.93,74.3,453.12,74.3z"/>
		<path d="M458.33,73.6c-0.05,0.54-0.16,1.07-0.34,1.6c-0.15,0.45-0.32,0.82-0.51,1.11c-0.14,0.23-0.28,0.38-0.42,0.47
			c-0.11,0.07-0.24,0.11-0.39,0.11c-0.23,0-0.42-0.12-0.56-0.37c-0.13-0.23-0.2-0.53-0.2-0.9c0-0.3,0.07-0.6,0.22-0.9
			c0.13-0.27,0.3-0.5,0.52-0.68c0.47-0.41,1.04-0.62,1.71-0.62c0.71,0,1.26,0.19,1.64,0.58c0.33,0.33,0.49,0.76,0.49,1.3
			c0,0.53-0.19,0.99-0.55,1.36c-0.36,0.37-0.87,0.61-1.51,0.73c-0.01,0-0.01,0-0.02,0c-0.03,0-0.05-0.01-0.06-0.04
			c-0.02-0.04-0.05-0.08-0.1-0.12c0.69-0.12,1.22-0.38,1.58-0.8c0.29-0.34,0.44-0.74,0.44-1.19c0-0.54-0.2-0.97-0.59-1.28
			c-0.32-0.25-0.71-0.37-1.16-0.37L458.33,73.6z M458.1,73.61c-0.52,0.04-0.95,0.23-1.31,0.55c-0.24,0.23-0.43,0.5-0.55,0.8
			c-0.09,0.23-0.14,0.45-0.14,0.67c0,0.37,0.07,0.64,0.22,0.83c0.1,0.13,0.22,0.2,0.35,0.2c0.24,0,0.46-0.17,0.65-0.5
			c0.21-0.35,0.38-0.76,0.52-1.24C457.99,74.47,458.08,74.03,458.1,73.61z"/>
		<path d="M426.59,81.42c0.11,0.02,0.21,0.04,0.28,0.07c0.03,0.01,0.04,0.03,0.04,0.07c0,0.02,0,0.04-0.01,0.05
			c-0.03,0.05-0.05,0.25-0.05,0.6v1c0,0.25,0.01,0.53,0.02,0.84c0,0.05-0.02,0.07-0.05,0.07h-0.14c-0.04,0-0.05-0.02-0.05-0.07
			c0.01-0.21,0.01-0.49,0.01-0.86v-0.99C426.64,81.87,426.63,81.61,426.59,81.42z M426.82,85.97c0.32-0.08,0.61-0.21,0.88-0.37
			c0.21-0.13,0.39-0.28,0.52-0.43c0.37-0.43,0.56-1,0.56-1.7v-1.28c0-0.42-0.02-0.7-0.06-0.85c0.12,0.01,0.21,0.03,0.3,0.06
			c0.03,0.01,0.04,0.03,0.04,0.07c0,0.02,0,0.04-0.01,0.06c-0.03,0.05-0.04,0.28-0.04,0.67v1.21c0,0.79-0.19,1.4-0.57,1.84
			c-0.32,0.38-0.77,0.67-1.34,0.87c-0.01,0-0.02,0.01-0.03,0.01c-0.02,0-0.05-0.01-0.06-0.03
			C426.95,86.05,426.89,86.01,426.82,85.97z"/>
		<path d="M432.12,82.16c0.07-0.05,0.12-0.08,0.15-0.1c0.01-0.01,0.02-0.01,0.03-0.01c0.02,0,0.03,0.01,0.05,0.03
			c0.21,0.25,0.42,0.6,0.63,1.06c0.01,0.02,0.01,0.03,0.01,0.04c0,0.02-0.01,0.03-0.03,0.04c-0.03,0.02-0.06,0.04-0.11,0.06
			c-0.02,0.01-0.03,0.01-0.04,0.01c-0.02,0-0.04-0.02-0.05-0.04C432.57,82.81,432.35,82.45,432.12,82.16z M436.12,81.84
			c0.1,0.04,0.19,0.09,0.27,0.15c0.02,0.02,0.03,0.04,0.03,0.06c0,0.02-0.01,0.04-0.02,0.06c-0.08,0.08-0.15,0.19-0.2,0.34
			c-0.29,0.74-0.65,1.39-1.07,1.94c-0.47,0.62-1.04,1.14-1.69,1.57c-0.02,0.02-0.04,0.02-0.05,0.02c-0.01,0-0.02,0-0.04-0.01
			c-0.06-0.04-0.13-0.07-0.22-0.08c0.71-0.43,1.32-0.98,1.82-1.64c0.41-0.54,0.75-1.16,1.01-1.85
			C436.03,82.23,436.08,82.04,436.12,81.84z M433.62,81.79c0.07-0.04,0.12-0.06,0.15-0.08c0.01-0.01,0.02-0.01,0.03-0.01
			c0.01,0,0.03,0.01,0.04,0.03c0.23,0.31,0.42,0.67,0.56,1.07c0.01,0.02,0.01,0.04,0.01,0.04c0,0.01-0.01,0.02-0.02,0.03
			c-0.05,0.03-0.09,0.05-0.13,0.06c-0.01,0-0.03,0.01-0.04,0.01c-0.02,0-0.03-0.01-0.04-0.04
			C434.07,82.53,433.88,82.15,433.62,81.79z"/>
		<path d="M441.06,82.7V85c0,0.34,0.01,0.67,0.02,0.99c0,0.04-0.01,0.06-0.04,0.06h-0.17c-0.03,0-0.04-0.02-0.04-0.06
			c0.01-0.32,0.02-0.65,0.02-0.98v-2.09c-0.51,0.49-1.22,1.01-2.11,1.55c-0.01,0.01-0.02,0.01-0.04,0.01
			c-0.02,0-0.03-0.01-0.05-0.02c-0.04-0.04-0.09-0.08-0.15-0.1c0.82-0.47,1.46-0.92,1.91-1.33c0.47-0.43,0.9-0.88,1.28-1.35
			c0.14-0.17,0.23-0.34,0.28-0.52c0.12,0.07,0.2,0.13,0.23,0.17c0.02,0.02,0.03,0.04,0.03,0.06c0,0.03-0.01,0.05-0.04,0.06
			c-0.05,0.02-0.15,0.14-0.31,0.34C441.63,82.11,441.36,82.41,441.06,82.7z"/>
		<path d="M444.83,83.54c0.3,0.02,0.69,0.03,1.18,0.03h2.05c0.55,0,0.98-0.01,1.3-0.02c0.05,0,0.08,0.02,0.08,0.06v0.12
			c0,0.05-0.03,0.07-0.08,0.07c-0.23-0.01-0.5-0.01-0.81-0.01h-0.48h-2.54l-0.58,0.04c-0.04,0-0.06-0.02-0.07-0.05
			C444.84,83.7,444.83,83.63,444.83,83.54z"/>
		<path d="M453.31,83.02c0.67,0.18,1.35,0.47,2.06,0.87c0.02,0.01,0.04,0.02,0.04,0.04c0,0.01,0,0.02-0.01,0.02
			c-0.02,0.05-0.04,0.09-0.07,0.13c-0.02,0.02-0.03,0.03-0.04,0.03c-0.01,0-0.03-0.01-0.05-0.02c-0.55-0.36-1.19-0.64-1.93-0.85
			v1.69c0,0.36,0.01,0.72,0.02,1.09c0,0.05-0.02,0.07-0.06,0.07h-0.14c-0.04,0-0.06-0.03-0.06-0.08c0.01-0.36,0.02-0.72,0.02-1.08
			v-3.12c0-0.26-0.01-0.49-0.04-0.67c0.12,0.01,0.21,0.02,0.28,0.04c0.03,0.01,0.05,0.03,0.05,0.06c0,0.02-0.01,0.04-0.02,0.07
			c-0.03,0.05-0.05,0.21-0.05,0.47V83.02z"/>
		<path d="M461.71,81.43h-1.67v0.94h0.55l0.8-0.01c0.02,0,0.04,0.01,0.04,0.04l-0.01,0.68v1.26l0.01,0.68
			c0,0.02-0.01,0.04-0.04,0.04l-0.8-0.01h-1.23l-0.79,0.01c-0.02,0-0.04-0.01-0.04-0.04l0.01-0.68v-1.26l-0.01-0.68
			c0-0.02,0.01-0.04,0.04-0.04l0.79,0.01h0.49v-0.94h-1.56l-0.83,0.01c-0.02,0-0.04-0.01-0.04-0.04v-0.13
			c0-0.02,0.01-0.04,0.04-0.04l0.83,0.01h3.42l0.83-0.01c0.02,0,0.04,0.01,0.04,0.04v0.13c0,0.02-0.01,0.04-0.04,0.04L461.71,81.43z
			 M462.24,85.76v-2.74c0-0.33-0.01-0.55-0.04-0.65c0.09,0.01,0.17,0.02,0.23,0.03c0.04,0.01,0.05,0.02,0.05,0.04
			c0,0.03-0.01,0.05-0.02,0.08c-0.02,0.05-0.04,0.22-0.04,0.5v2.11l0.01,1.15c0,0.02-0.01,0.04-0.04,0.04h-0.13
			c-0.02,0-0.04-0.01-0.04-0.04v-0.35h-4.48v0.35c0,0.02-0.01,0.04-0.04,0.04h-0.13c-0.02,0-0.04-0.01-0.04-0.04l0.01-1.13v-2.12
			c0-0.32-0.01-0.54-0.04-0.65c0.06,0,0.14,0.01,0.23,0.03c0.04,0.01,0.06,0.02,0.06,0.04c0,0.02-0.01,0.05-0.04,0.11
			c-0.02,0.05-0.03,0.21-0.03,0.47v2.73H462.24z M458.73,82.53v1.04h1.13v-1.04H458.73z M458.73,83.73v1.15h1.13v-1.15H458.73z
			 M461.23,82.53h-1.19v1.04h1.19V82.53z M461.23,84.88v-1.15h-1.19v1.15H461.23z"/>
		<path d="M468.2,81.46h-1.77c-0.09,0.37-0.23,0.74-0.42,1.09h1.85l0.88-0.01c0.02,0,0.04,0.01,0.04,0.04l-0.01,1.09v1.04l0.01,1.58
			c0,0.02-0.01,0.04-0.04,0.04h-0.14c-0.02,0-0.04-0.01-0.04-0.04v-0.35h-4.28v0.35c0,0.02-0.01,0.04-0.04,0.04h-0.14
			c-0.02,0-0.04-0.01-0.04-0.04l0.01-1.58v-0.94l-0.01-1.19c0-0.02,0.01-0.04,0.04-0.04l0.88,0.01h0.82
			c0.19-0.35,0.33-0.71,0.43-1.09h-1.6l-0.82,0.01c-0.02,0-0.04-0.01-0.04-0.04V81.3c0-0.02,0.01-0.04,0.04-0.04l0.82,0.01h3.56
			l0.82-0.01c0.02,0,0.04,0.01,0.04,0.04v0.13c0,0.02-0.01,0.04-0.04,0.04L468.2,81.46z M464.27,82.72v3.04h1.22v-3.04H464.27z
			 M465.68,82.72v0.89h1.45v-0.89H465.68z M465.68,83.78v0.9h1.45v-0.9H465.68z M465.68,84.84v0.92h1.45v-0.92H465.68z
			 M468.55,82.72h-1.24v3.04h1.24V82.72z"/>
	</g>
</g>
<rect x="72.91" y="27.41" class="st1" width="458.16" height="1"/>
<g>
	<path class="st0" d="M72.84,38.17H49.72c-5.98,0-10.83-4.85-10.83-10.83v0c0-5.98,4.85-10.83,10.83-10.83h23.12
		c5.98,0,10.83,4.85,10.83,10.83v0C83.67,33.32,78.82,38.17,72.84,38.17z"/>
	<path class="st1" d="M72.84,38.67H49.72c-6.25,0-11.33-5.08-11.33-11.33s5.08-11.33,11.33-11.33h23.12
		c6.25,0,11.33,5.08,11.33,11.33S79.09,38.67,72.84,38.67z M49.72,17.01c-5.7,0-10.33,4.64-10.33,10.33s4.64,10.33,10.33,10.33
		h23.12c5.7,0,10.33-4.64,10.33-10.33s-4.64-10.33-10.33-10.33H49.72z"/>
</g>
<g>
	<rect x="183.83" y="16.51" class="st0" width="63" height="21.67"/>
	<path class="st1" d="M247.33,38.67h-64V16.01h64V38.67z M184.33,37.67h62V17.01h-62V37.67z"/>
</g>
<g>
	<rect x="260.86" y="16.51" class="st0" width="63" height="21.67"/>
	<path class="st1" d="M324.36,38.67h-64V16.01h64V38.67z M261.36,37.67h62V17.01h-62V37.67z"/>
</g>
<g>
	<rect x="337.88" y="16.51" class="st0" width="63" height="21.67"/>
	<path class="st1" d="M401.38,38.67h-64V16.01h64V38.67z M338.38,37.67h62V17.01h-62V37.67z"/>
</g>
<g>
	<rect x="414.91" y="16.51" class="st0" width="63" height="21.67"/>
	<path class="st1" d="M478.41,38.67h-64V16.01h64V38.67z M415.41,37.67h62V17.01h-62V37.67z"/>
</g>
<g>
	<path class="st0" d="M534.99,38.17h-23.12c-5.98,0-10.83-4.85-10.83-10.83v0c0-5.98,4.85-10.83,10.83-10.83h23.12
		c5.98,0,10.83,4.85,10.83,10.83v0C545.82,33.32,540.97,38.17,534.99,38.17z"/>
	<path class="st1" d="M534.99,38.67h-23.12c-6.25,0-11.33-5.08-11.33-11.33s5.08-11.33,11.33-11.33h23.12
		c6.25,0,11.33,5.08,11.33,11.33S541.24,38.67,534.99,38.67z M511.87,17.01c-5.7,0-10.33,4.64-10.33,10.33s4.64,10.33,10.33,10.33
		h23.12c5.7,0,10.33-4.64,10.33-10.33s-4.64-10.33-10.33-10.33H511.87z"/>
</g>
<g>
	<path d="M50.61,24.96c0.1,0.03,0.18,0.06,0.25,0.11c0.03,0.02,0.04,0.04,0.04,0.06c0,0.01,0,0.03-0.01,0.04
		c-0.03,0.04-0.06,0.13-0.09,0.29c-0.19,1.01-0.29,1.77-0.29,2.29c0,0.47,0.03,0.89,0.08,1.24c0.06-0.15,0.14-0.34,0.23-0.56
		c0.1-0.25,0.17-0.42,0.22-0.52c0.01,0.03,0.04,0.09,0.1,0.17c0.01,0.02,0.02,0.03,0.02,0.05c0,0.01,0,0.03-0.01,0.05
		c-0.24,0.54-0.38,0.87-0.4,1.01c-0.01,0.06-0.01,0.1-0.01,0.15c0,0.03,0,0.06,0.01,0.09c0.01,0.02,0.01,0.04,0.01,0.05
		c0,0.01-0.01,0.02-0.02,0.03c-0.04,0.02-0.08,0.05-0.15,0.06c0,0-0.01,0-0.01,0c-0.01,0-0.03-0.01-0.04-0.04
		c-0.11-0.26-0.17-0.59-0.2-0.99c-0.01-0.17-0.02-0.42-0.02-0.76c0-0.46,0.09-1.23,0.27-2.3c0.02-0.14,0.03-0.27,0.03-0.38
		C50.62,25.05,50.62,25,50.61,24.96z M53.46,28.33c-0.04-0.82-0.05-1.46-0.05-1.93c-0.32,0.02-0.6,0.03-0.85,0.03
		c-0.2,0-0.4-0.01-0.6-0.02c-0.02,0-0.04-0.01-0.04-0.03c-0.01-0.07-0.01-0.13-0.01-0.17c0.21,0.02,0.42,0.03,0.63,0.03
		c0.27,0,0.56-0.02,0.88-0.04c0-0.33,0-0.59,0.01-0.76c0-0.21-0.01-0.38-0.04-0.51c0.11,0.02,0.2,0.05,0.27,0.07
		c0.02,0.01,0.04,0.03,0.04,0.05s-0.01,0.04-0.02,0.06c-0.02,0.03-0.03,0.15-0.04,0.35c0,0.16-0.01,0.4-0.01,0.72
		c0.33-0.03,0.68-0.09,1.05-0.16c0.01,0,0.01,0,0.01,0c0.01,0,0.02,0.01,0.02,0.03c0.01,0.04,0.01,0.08,0.01,0.13
		c0,0.03-0.01,0.05-0.03,0.05c-0.3,0.07-0.66,0.13-1.06,0.16c0.01,0.67,0.03,1.33,0.06,2.01c0.44,0.18,0.82,0.4,1.13,0.66
		c0.01,0.01,0.01,0.01,0.01,0.02c0,0,0,0.01,0,0.02c-0.02,0.05-0.04,0.1-0.09,0.14c-0.01,0.01-0.02,0.01-0.02,0.01
		s-0.01,0-0.03-0.01c-0.35-0.28-0.69-0.48-1.01-0.61c-0.01,0.31-0.1,0.53-0.27,0.66c-0.16,0.12-0.39,0.19-0.7,0.19
		c-0.27,0-0.49-0.06-0.64-0.17c-0.14-0.1-0.22-0.25-0.22-0.42c0-0.21,0.1-0.38,0.29-0.5c0.15-0.1,0.34-0.15,0.56-0.15
		C52.94,28.23,53.19,28.26,53.46,28.33z M53.45,28.54c-0.3-0.08-0.55-0.12-0.76-0.12c-0.22,0-0.38,0.05-0.51,0.14
		c-0.11,0.08-0.16,0.19-0.16,0.32c0,0.13,0.07,0.23,0.22,0.3c0.12,0.06,0.27,0.09,0.45,0.09c0.51,0,0.76-0.21,0.76-0.63V28.54z"/>
	<path d="M57.61,24.83c0.15,0.03,0.26,0.05,0.31,0.07c0.04,0.02,0.06,0.04,0.06,0.08c0,0-0.01,0.05-0.04,0.13
		c-0.02,0.06-0.04,0.24-0.05,0.55c-0.07,1.17-0.1,2.05-0.1,2.66c0,0.4,0.08,0.68,0.23,0.84c0.13,0.14,0.34,0.2,0.62,0.2
		c0.81,0,1.57-0.4,2.27-1.21c0.02,0.08,0.04,0.14,0.07,0.21c0.01,0.02,0.01,0.03,0.01,0.04c0,0.02-0.01,0.04-0.04,0.06
		c-0.73,0.75-1.53,1.12-2.38,1.12c-0.67,0-1.01-0.41-1.01-1.23c0-0.31,0.01-0.77,0.04-1.37c0.03-0.71,0.04-1.15,0.05-1.34
		c0.01-0.18,0.01-0.31,0.01-0.37C57.66,25.09,57.64,24.95,57.61,24.83z M59.74,25.43l0.15-0.1c0.01,0,0.02,0,0.02,0
		c0.01,0,0.01,0,0.02,0.01c0.21,0.15,0.42,0.38,0.63,0.7c0,0.01,0,0.01,0,0.02c0,0.01-0.01,0.02-0.02,0.03l-0.11,0.09
		c-0.01,0.01-0.02,0.01-0.03,0.01c-0.01,0-0.02-0.01-0.03-0.02C60.21,25.87,59.99,25.63,59.74,25.43z M60.2,25.11l0.12-0.1
		C60.33,25,60.33,25,60.34,25c0.01,0,0.02,0,0.03,0.01c0.27,0.21,0.48,0.45,0.64,0.71c0,0.01,0.01,0.02,0.01,0.02
		c0,0.01-0.01,0.02-0.02,0.04l-0.1,0.08c-0.01,0.01-0.01,0.01-0.02,0.01c-0.01,0-0.02,0-0.03-0.01
		C60.67,25.55,60.46,25.3,60.2,25.11z"/>
	<path d="M65.23,28.45c-0.02-0.45-0.03-0.84-0.04-1.16c-0.24,0.01-0.47,0.02-0.71,0.02c-0.3,0-0.58-0.01-0.82-0.03
		c-0.03,0-0.04-0.02-0.05-0.05c0-0.03-0.01-0.08-0.01-0.16c0.27,0.03,0.58,0.05,0.95,0.05c0.22,0,0.42-0.01,0.63-0.02
		c0-0.23-0.01-0.58-0.01-1.05c-0.25,0.01-0.48,0.02-0.7,0.02c-0.37,0-0.71-0.02-1.05-0.05c-0.02,0-0.03-0.02-0.04-0.04
		c-0.01-0.07-0.01-0.12-0.01-0.16c0.35,0.04,0.72,0.06,1.11,0.06c0.23,0,0.45-0.01,0.68-0.02v-0.71c0-0.18-0.01-0.31-0.04-0.4
		c0.13,0.01,0.23,0.03,0.28,0.06c0.04,0.01,0.06,0.04,0.06,0.07c0,0.01-0.01,0.03-0.02,0.04c-0.03,0.04-0.05,0.13-0.05,0.27
		c-0.01,0.25-0.02,0.47-0.02,0.65c0.47-0.03,1.01-0.1,1.6-0.21c0.01,0,0.01,0,0.02,0c0.02,0,0.02,0.01,0.02,0.02
		c0.01,0.07,0.01,0.12,0.01,0.17c0,0.02-0.01,0.03-0.03,0.03c-0.53,0.09-1.07,0.15-1.63,0.19c0,0.47,0,0.83,0.01,1.06
		c0.55-0.03,1.04-0.1,1.47-0.19c0.01,0,0.01,0,0.01,0c0.02,0,0.02,0.01,0.02,0.02v0.15c0,0.03-0.01,0.04-0.04,0.04
		c-0.44,0.09-0.94,0.15-1.47,0.18c0,0.21,0.02,0.61,0.04,1.21c0.46,0.12,1.01,0.4,1.64,0.84c0.02,0.02,0.04,0.04,0.04,0.06
		c0,0.01,0,0.02,0,0.02c-0.02,0.04-0.04,0.08-0.08,0.13c-0.01,0.01-0.02,0.02-0.03,0.02c-0.01,0-0.01,0-0.02-0.01
		c-0.55-0.41-1.06-0.69-1.54-0.83c0.01,0.37-0.09,0.64-0.28,0.79c-0.16,0.12-0.4,0.18-0.73,0.18c-0.65,0-0.98-0.21-0.98-0.64
		c0-0.19,0.1-0.35,0.31-0.48c0.2-0.12,0.45-0.18,0.75-0.18C64.69,28.38,64.92,28.41,65.23,28.45z M65.23,28.66
		c-0.27-0.06-0.51-0.09-0.72-0.09c-0.28,0-0.5,0.05-0.66,0.16c-0.12,0.08-0.19,0.18-0.19,0.3c0,0.3,0.25,0.45,0.74,0.45
		c0.34,0,0.57-0.07,0.69-0.2c0.1-0.12,0.15-0.28,0.15-0.5C65.24,28.74,65.23,28.7,65.23,28.66z"/>
	<path d="M70.62,24.82c0.1,0.03,0.19,0.06,0.25,0.1c0.04,0.02,0.06,0.04,0.06,0.07c0,0.02-0.01,0.04-0.02,0.06
		c-0.03,0.04-0.06,0.12-0.09,0.24c-0.15,0.68-0.22,1.21-0.22,1.59c0,0.3,0.02,0.54,0.05,0.71c0.09-0.2,0.25-0.52,0.49-0.96
		c0.03,0.06,0.05,0.11,0.07,0.15c0.01,0.02,0.02,0.04,0.02,0.06c0,0.01,0,0.03-0.01,0.04c-0.13,0.23-0.27,0.51-0.41,0.83
		c-0.03,0.08-0.05,0.13-0.05,0.17c0,0.01,0,0.02,0,0.04c0,0.01,0,0.02,0,0.03c0,0.02-0.01,0.04-0.03,0.05
		c-0.03,0.01-0.08,0.02-0.15,0.02c-0.02,0-0.04-0.02-0.05-0.05c-0.09-0.25-0.14-0.61-0.14-1.08c0-0.34,0.05-0.8,0.16-1.4
		c0.05-0.24,0.07-0.42,0.07-0.53C70.62,24.92,70.62,24.87,70.62,24.82z M72.54,24.88c0.1,0.01,0.18,0.02,0.25,0.03
		c0.05,0.01,0.07,0.03,0.07,0.07c0,0.01,0,0.01,0,0.02c-0.01,0.03-0.02,0.07-0.02,0.13c0,0.02,0,0.08,0.01,0.17
		c0.04,0.73,0.06,1.29,0.06,1.67c0,0.85-0.18,1.49-0.53,1.93c-0.26,0.34-0.61,0.61-1.02,0.83c-0.02,0.01-0.03,0.01-0.05,0.01
		s-0.03-0.01-0.05-0.02c-0.06-0.04-0.11-0.06-0.17-0.07c0.49-0.25,0.86-0.54,1.1-0.87c0.34-0.44,0.5-1.04,0.5-1.8
		c0-0.36-0.02-0.85-0.05-1.48C72.62,25.23,72.59,25.03,72.54,24.88z"/>
</g>
<g>
	<path d="M516.1,26.06v-0.53c0-0.27-0.01-0.48-0.04-0.63c0.15,0.02,0.26,0.03,0.3,0.05c0.02,0.01,0.04,0.03,0.04,0.07
		c0,0.02-0.01,0.05-0.02,0.07c-0.03,0.05-0.04,0.18-0.05,0.39c-0.01,0.23-0.01,0.41-0.01,0.55c0.34-0.06,0.68-0.15,1.01-0.28
		c0.02,0,0.03-0.01,0.03-0.01c0.02,0,0.03,0.01,0.03,0.04c0.01,0.05,0.01,0.09,0.01,0.13c0,0.03-0.02,0.05-0.06,0.06
		c-0.32,0.11-0.66,0.2-1.03,0.26v1.41c0.41-0.21,0.71-0.35,0.91-0.42c0.28-0.1,0.54-0.15,0.78-0.15c0.38,0,0.68,0.11,0.88,0.34
		c0.16,0.18,0.25,0.41,0.25,0.68c0,0.36-0.13,0.63-0.39,0.81c-0.21,0.15-0.5,0.22-0.85,0.22c-0.17,0-0.33-0.03-0.49-0.1
		c-0.03-0.01-0.05-0.03-0.05-0.07c0-0.06-0.01-0.12-0.04-0.19c0.19,0.1,0.39,0.16,0.59,0.16c0.33,0,0.58-0.08,0.76-0.24
		c0.17-0.15,0.25-0.34,0.25-0.6c0-0.27-0.09-0.49-0.28-0.64c-0.17-0.14-0.4-0.21-0.68-0.21c-0.36,0-0.9,0.2-1.63,0.6v0.57l0.01,0.9
		c0,0.08-0.02,0.12-0.05,0.13c-0.03,0.01-0.07,0.02-0.11,0.02c-0.01,0-0.02,0-0.03,0c-0.01,0-0.03-0.03-0.07-0.1
		c-0.04-0.07-0.11-0.14-0.2-0.2c-0.11-0.08-0.26-0.18-0.44-0.3c-0.23-0.16-0.38-0.26-0.44-0.3c-0.1,0.06-0.17,0.11-0.22,0.14
		c-0.03,0.02-0.05,0.03-0.08,0.03c-0.02,0-0.04-0.01-0.06-0.04c-0.04-0.08-0.08-0.16-0.09-0.23c0.15-0.04,0.35-0.11,0.59-0.23
		c0.17-0.07,0.49-0.25,0.97-0.52v-1.48c-0.4,0.05-0.74,0.07-1.02,0.07c-0.06,0-0.11,0-0.17,0c-0.06,0-0.09-0.02-0.09-0.07v-0.15
		c0.1,0.01,0.21,0.02,0.32,0.02C515.4,26.14,515.71,26.11,516.1,26.06z M516.1,27.98l-0.95,0.52c0.37,0.23,0.67,0.42,0.91,0.55
		c0.02,0.01,0.03,0.01,0.04,0.01c0.02,0,0.02-0.01,0.02-0.04c0-0.12,0-0.3-0.01-0.54C516.1,28.23,516.1,28.07,516.1,27.98z
		 M518.2,25.76c0.01-0.05,0.03-0.09,0.04-0.12c0.01-0.02,0.02-0.03,0.04-0.03c0,0,0.01,0,0.02,0c0.24,0.02,0.47,0.09,0.69,0.2
		c0.21,0.11,0.37,0.24,0.48,0.39c0.01,0.01,0.01,0.02,0.01,0.03s0,0.01-0.01,0.03l-0.09,0.1c-0.01,0.01-0.02,0.01-0.02,0.01
		c-0.01,0-0.01,0-0.02-0.01C519.1,26.02,518.72,25.82,518.2,25.76z"/>
	<path d="M522.33,24.68c0.17,0.02,0.28,0.04,0.32,0.06c0.02,0.01,0.02,0.02,0.02,0.04c0,0.02-0.01,0.04-0.02,0.07
		c-0.02,0.04-0.04,0.11-0.05,0.22c-0.03,0.45-0.05,0.77-0.05,0.96c0.06-0.02,0.1-0.04,0.12-0.06c0.02-0.02,0.04-0.03,0.06-0.03
		c0.03,0,0.06,0.01,0.08,0.04c0.04,0.04,0.06,0.07,0.06,0.09c0,0.02-0.02,0.05-0.05,0.1c-0.08,0.09-0.18,0.24-0.3,0.45
		c0,0.13-0.01,0.28-0.01,0.46c0.65-0.57,1.3-0.85,1.96-0.85c0.47,0,0.84,0.16,1.1,0.47c0.21,0.25,0.31,0.56,0.31,0.92
		c0,0.39-0.14,0.75-0.43,1.08c-0.29,0.34-0.69,0.57-1.2,0.7c-0.02,0.01-0.04,0.01-0.05,0.01c-0.03,0-0.05-0.01-0.07-0.03
		c-0.05-0.05-0.1-0.08-0.16-0.1c0.58-0.14,1.02-0.38,1.32-0.74c0.24-0.28,0.36-0.6,0.36-0.94c0-0.38-0.12-0.68-0.37-0.89
		c-0.21-0.19-0.49-0.28-0.84-0.28c-0.64,0-1.29,0.3-1.95,0.91c-0.01,0.28-0.01,0.58-0.01,0.9c0,0.42,0,0.91,0.02,1.45
		c0,0.03-0.01,0.04-0.03,0.04c-0.03,0-0.09,0.01-0.17,0.01c-0.02,0-0.03-0.01-0.03-0.03c0-0.34,0-0.76,0.01-1.28
		c0-0.56,0.01-0.97,0.01-1.21c-0.42,0.6-0.83,1.17-1.21,1.69c-0.01,0.02-0.03,0.03-0.04,0.03c-0.01,0-0.01,0-0.02-0.01
		c-0.06-0.05-0.1-0.09-0.12-0.12c0,0-0.01-0.01-0.01-0.01c0-0.01,0.01-0.03,0.02-0.04c0.46-0.57,0.92-1.2,1.39-1.86
		c0-0.04,0.01-0.15,0.01-0.34c0-0.11,0.01-0.2,0.01-0.27c-0.31,0.09-0.56,0.16-0.75,0.23c-0.1,0.04-0.2,0.08-0.28,0.12
		c-0.02,0.01-0.03,0.02-0.04,0.02c-0.02,0-0.04-0.01-0.06-0.04c-0.04-0.05-0.08-0.11-0.12-0.2c0.14-0.01,0.27-0.03,0.39-0.06
		c0.36-0.1,0.65-0.19,0.87-0.25c0.01-0.23,0.02-0.51,0.03-0.85c0-0.06,0-0.11,0-0.15C522.38,24.9,522.36,24.77,522.33,24.68z"/>
	<path d="M528.78,24.82c0.1,0.03,0.19,0.06,0.25,0.1c0.04,0.02,0.06,0.04,0.06,0.07c0,0.02-0.01,0.04-0.02,0.06
		c-0.03,0.04-0.06,0.12-0.09,0.24c-0.15,0.68-0.22,1.21-0.22,1.59c0,0.3,0.02,0.54,0.05,0.71c0.09-0.2,0.25-0.52,0.49-0.96
		c0.03,0.06,0.05,0.11,0.07,0.15c0.01,0.02,0.02,0.04,0.02,0.06c0,0.01,0,0.03-0.01,0.04c-0.13,0.23-0.27,0.51-0.41,0.83
		c-0.03,0.08-0.05,0.13-0.05,0.17c0,0.01,0,0.02,0,0.04c0,0.01,0,0.02,0,0.03c0,0.02-0.01,0.04-0.03,0.05
		c-0.03,0.01-0.08,0.02-0.15,0.02c-0.02,0-0.04-0.02-0.05-0.05c-0.09-0.25-0.14-0.61-0.14-1.08c0-0.34,0.05-0.8,0.16-1.4
		c0.05-0.24,0.07-0.42,0.07-0.53C528.78,24.92,528.78,24.87,528.78,24.82z M530.7,24.88c0.1,0.01,0.18,0.02,0.25,0.03
		c0.05,0.01,0.07,0.03,0.07,0.07c0,0.01,0,0.01,0,0.02c-0.01,0.03-0.02,0.07-0.02,0.13c0,0.02,0,0.08,0.01,0.17
		c0.04,0.73,0.06,1.29,0.06,1.67c0,0.85-0.18,1.49-0.53,1.93c-0.26,0.34-0.61,0.61-1.02,0.83c-0.02,0.01-0.03,0.01-0.05,0.01
		s-0.03-0.01-0.05-0.02c-0.06-0.04-0.11-0.06-0.17-0.07c0.49-0.25,0.86-0.54,1.1-0.87c0.34-0.44,0.5-1.04,0.5-1.8
		c0-0.36-0.02-0.85-0.05-1.48C530.78,25.23,530.75,25.03,530.7,24.88z"/>
</g>
<g>
	<g>
		<path d="M207.76,27.04c0.2-0.5,0.58-0.75,1.14-0.75c0.36,0,0.62,0.09,0.78,0.27c0.15,0.17,0.22,0.41,0.22,0.74v1
			c0,0.48,0.03,0.85,0.08,1.1h-0.23c-0.03-0.14-0.06-0.34-0.08-0.6c-0.3,0.44-0.67,0.66-1.12,0.66c-0.32,0-0.56-0.09-0.73-0.28
			c-0.14-0.15-0.21-0.35-0.21-0.58c0-0.55,0.34-0.88,1.01-0.99c0.26-0.04,0.6-0.08,1.04-0.1v-0.17c0-0.33-0.07-0.56-0.2-0.69
			c-0.12-0.11-0.31-0.17-0.56-0.17c-0.47,0-0.78,0.22-0.92,0.66L207.76,27.04z M209.66,27.71c-0.35,0.01-0.68,0.05-1,0.1
			c-0.54,0.1-0.81,0.36-0.81,0.79c0,0.22,0.07,0.39,0.21,0.5c0.12,0.1,0.29,0.16,0.49,0.16c0.43,0,0.8-0.24,1.1-0.72V27.71z"/>
		<path d="M211.6,24.85v2.02c0.13-0.2,0.28-0.35,0.46-0.45c0.16-0.09,0.32-0.13,0.48-0.13c0.38,0,0.67,0.16,0.89,0.48
			c0.2,0.29,0.3,0.65,0.3,1.1c0,0.51-0.13,0.92-0.39,1.21c-0.22,0.25-0.5,0.38-0.83,0.38c-0.37,0-0.67-0.19-0.92-0.58l-0.04,0.52
			h-0.2v-4.54H211.6z M211.6,27.16v1.47c0.15,0.24,0.3,0.41,0.46,0.5c0.13,0.08,0.28,0.12,0.45,0.12c0.31,0,0.55-0.14,0.73-0.41
			c0.17-0.25,0.25-0.57,0.25-0.97c0-0.45-0.1-0.81-0.3-1.05c-0.17-0.21-0.38-0.31-0.65-0.31C212.16,26.51,211.84,26.73,211.6,27.16z
			"/>
		<path d="M216.01,26.29c0.38,0,0.69,0.16,0.92,0.48c0.2,0.28,0.3,0.65,0.3,1.1c0,0.52-0.13,0.92-0.39,1.22
			c-0.22,0.25-0.5,0.38-0.83,0.38c-0.39,0-0.69-0.16-0.92-0.48c-0.2-0.28-0.3-0.65-0.3-1.1c0-0.52,0.13-0.92,0.39-1.21
			C215.4,26.42,215.68,26.29,216.01,26.29z M216.01,26.5c-0.32,0-0.56,0.14-0.74,0.41c-0.16,0.24-0.24,0.57-0.24,0.97
			c0,0.46,0.1,0.82,0.31,1.07c0.17,0.21,0.4,0.32,0.67,0.32c0.31,0,0.56-0.14,0.73-0.41c0.16-0.25,0.24-0.57,0.24-0.97
			c0-0.46-0.1-0.81-0.31-1.06C216.51,26.6,216.29,26.5,216.01,26.5z"/>
		<path d="M220.66,26.36v3.04h-0.23v-0.62c-0.15,0.22-0.33,0.4-0.56,0.52c-0.19,0.11-0.38,0.17-0.57,0.17
			c-0.26,0-0.46-0.08-0.61-0.24c-0.14-0.15-0.2-0.34-0.2-0.59v-2.28h0.24v2.19c0,0.46,0.21,0.69,0.63,0.69c0.2,0,0.4-0.07,0.61-0.22
			c0.18-0.13,0.34-0.29,0.46-0.48v-2.18H220.66z"/>
		<path d="M222.49,25.24v1.12h0.77v0.21h-0.77v2.14c0,0.38,0.16,0.56,0.48,0.56c0.14,0,0.27-0.01,0.39-0.04l-0.02,0.21
			c-0.13,0.03-0.25,0.04-0.38,0.04c-0.24,0-0.43-0.07-0.55-0.21c-0.11-0.13-0.17-0.3-0.17-0.53v-2.18h-0.53v-0.21h0.53V25.3
			L222.49,25.24z"/>
	</g>
</g>
<g>
	<g>
		<path d="M287.08,26.36v0.61c0.38-0.45,0.76-0.68,1.13-0.68c0.26,0,0.47,0.08,0.62,0.25c0.13,0.15,0.2,0.34,0.2,0.57v2.28h-0.24
			v-2.14c0-0.5-0.2-0.75-0.61-0.75c-0.36,0-0.72,0.23-1.1,0.69v2.2h-0.24v-3.04H287.08z"/>
		<path d="M291.5,26.29c0.38,0,0.69,0.16,0.92,0.48c0.2,0.28,0.3,0.65,0.3,1.1c0,0.52-0.13,0.92-0.39,1.22
			c-0.22,0.25-0.5,0.38-0.83,0.38c-0.39,0-0.69-0.16-0.92-0.48c-0.2-0.28-0.3-0.65-0.3-1.1c0-0.52,0.13-0.92,0.39-1.21
			C290.89,26.42,291.17,26.29,291.5,26.29z M291.5,26.5c-0.32,0-0.56,0.14-0.74,0.41c-0.16,0.24-0.24,0.57-0.24,0.97
			c0,0.46,0.1,0.82,0.31,1.07c0.17,0.21,0.4,0.32,0.67,0.32c0.31,0,0.56-0.14,0.73-0.41c0.16-0.25,0.24-0.57,0.24-0.97
			c0-0.46-0.1-0.81-0.31-1.06C292,26.6,291.77,26.5,291.5,26.5z"/>
		<path d="M294.33,25.24v1.12h0.77v0.21h-0.77v2.14c0,0.38,0.16,0.56,0.48,0.56c0.14,0,0.27-0.01,0.39-0.04l-0.02,0.21
			c-0.13,0.03-0.25,0.04-0.38,0.04c-0.24,0-0.43-0.07-0.55-0.21c-0.11-0.13-0.17-0.3-0.17-0.53v-2.18h-0.53v-0.21h0.53V25.3
			L294.33,25.24z"/>
		<path d="M298.39,27.85h-2.2c0,0.48,0.11,0.85,0.34,1.1c0.18,0.2,0.41,0.3,0.68,0.3c0.26,0,0.46-0.06,0.62-0.19
			c0.13-0.11,0.24-0.27,0.32-0.49l0.23,0.11c-0.23,0.52-0.61,0.78-1.16,0.78c-0.39,0-0.7-0.16-0.94-0.48
			c-0.21-0.29-0.31-0.65-0.31-1.1c0-0.51,0.13-0.92,0.4-1.21c0.22-0.25,0.5-0.38,0.83-0.38c0.38,0,0.68,0.16,0.91,0.46
			c0.2,0.27,0.3,0.62,0.3,1.03V27.85z M298.15,27.64c-0.03-0.39-0.15-0.69-0.34-0.89c-0.17-0.17-0.37-0.25-0.62-0.25
			c-0.28,0-0.52,0.11-0.7,0.34c-0.16,0.21-0.26,0.47-0.28,0.8H298.15z"/>
	</g>
</g>
<g>
	<g>
		<path d="M355.18,24.93v4.46h-0.25v-4.46H355.18z"/>
		<path d="M356.96,26.36v0.61c0.38-0.45,0.76-0.68,1.13-0.68c0.26,0,0.47,0.08,0.62,0.25c0.13,0.15,0.2,0.34,0.2,0.57v2.28h-0.24
			v-2.14c0-0.5-0.2-0.75-0.61-0.75c-0.36,0-0.72,0.23-1.1,0.69v2.2h-0.24v-3.04H356.96z"/>
		<path d="M362.25,26.98l-0.23,0.1c-0.14-0.39-0.41-0.58-0.81-0.58c-0.26,0-0.46,0.06-0.6,0.17c-0.12,0.1-0.17,0.23-0.17,0.4
			c0,0.19,0.06,0.33,0.17,0.42c0.1,0.08,0.28,0.15,0.54,0.2l0.23,0.05c0.37,0.08,0.63,0.19,0.76,0.33c0.13,0.13,0.19,0.31,0.19,0.55
			c0,0.26-0.1,0.48-0.3,0.63c-0.2,0.15-0.46,0.23-0.79,0.23c-0.28,0-0.53-0.07-0.73-0.21c-0.18-0.13-0.32-0.3-0.4-0.51l0.23-0.1
			c0.15,0.42,0.45,0.63,0.91,0.63c0.31,0,0.53-0.07,0.68-0.22c0.11-0.11,0.17-0.25,0.17-0.42c0-0.21-0.06-0.37-0.17-0.46
			c-0.11-0.09-0.31-0.17-0.6-0.23l-0.23-0.05c-0.36-0.08-0.6-0.19-0.73-0.33c-0.1-0.12-0.16-0.28-0.16-0.48
			c0-0.24,0.09-0.44,0.28-0.58c0.18-0.14,0.42-0.2,0.73-0.2C361.71,26.29,362.06,26.52,362.25,26.98z"/>
		<path d="M363.95,25.24v1.12h0.77v0.21h-0.77v2.14c0,0.38,0.16,0.56,0.48,0.56c0.14,0,0.27-0.01,0.39-0.04l-0.02,0.21
			c-0.13,0.03-0.25,0.04-0.38,0.04c-0.24,0-0.43-0.07-0.55-0.21c-0.11-0.13-0.17-0.3-0.17-0.53v-2.18h-0.53v-0.21h0.53V25.3
			L363.95,25.24z"/>
		<path d="M365.69,27.04c0.2-0.5,0.58-0.75,1.14-0.75c0.36,0,0.62,0.09,0.78,0.27c0.15,0.17,0.22,0.41,0.22,0.74v1
			c0,0.48,0.03,0.85,0.08,1.1h-0.23c-0.03-0.14-0.06-0.34-0.08-0.6c-0.3,0.44-0.67,0.66-1.12,0.66c-0.32,0-0.56-0.09-0.73-0.28
			c-0.14-0.15-0.21-0.35-0.21-0.58c0-0.55,0.34-0.88,1.01-0.99c0.26-0.04,0.6-0.08,1.04-0.1v-0.17c0-0.33-0.07-0.56-0.2-0.69
			c-0.12-0.11-0.31-0.17-0.56-0.17c-0.47,0-0.78,0.22-0.92,0.66L365.69,27.04z M367.6,27.71c-0.35,0.01-0.68,0.05-1,0.1
			c-0.54,0.1-0.81,0.36-0.81,0.79c0,0.22,0.07,0.39,0.21,0.5c0.12,0.1,0.29,0.16,0.49,0.16c0.43,0,0.8-0.24,1.1-0.72V27.71z"/>
		<path d="M371.64,26.02l-0.02,0.25c-0.16,0-0.29,0.02-0.4,0.07c-0.09,0.04-0.18,0.11-0.28,0.2c0.23,0.19,0.35,0.45,0.35,0.77
			c0,0.33-0.11,0.6-0.34,0.78c-0.19,0.16-0.42,0.23-0.7,0.23c-0.19,0-0.37-0.04-0.53-0.13c-0.22,0.13-0.32,0.25-0.32,0.36
			c0,0.1,0.05,0.16,0.14,0.2c0.1,0.05,0.3,0.08,0.59,0.12l0.52,0.06c0.41,0.05,0.68,0.13,0.83,0.27c0.11,0.1,0.17,0.25,0.17,0.45
			c0,0.25-0.13,0.45-0.38,0.6c-0.24,0.14-0.56,0.21-0.96,0.21c-0.43,0-0.77-0.08-1-0.23c-0.2-0.13-0.3-0.31-0.3-0.52
			c0-0.32,0.22-0.55,0.65-0.68c-0.32-0.05-0.49-0.19-0.49-0.42c0-0.18,0.13-0.35,0.39-0.52c-0.24-0.19-0.36-0.45-0.36-0.78
			c0-0.33,0.12-0.59,0.35-0.78c0.19-0.16,0.43-0.24,0.7-0.24c0.2,0,0.38,0.05,0.54,0.14C371.01,26.16,371.29,26.02,371.64,26.02z
			 M369.91,29.08c-0.45,0.13-0.68,0.33-0.68,0.6c0,0.21,0.11,0.36,0.34,0.47c0.19,0.09,0.43,0.13,0.72,0.13
			c0.37,0,0.65-0.07,0.86-0.2c0.17-0.11,0.25-0.25,0.25-0.41c0-0.16-0.06-0.27-0.18-0.34c-0.13-0.08-0.35-0.13-0.66-0.17
			L369.91,29.08z M370.25,26.49c-0.24,0-0.44,0.08-0.6,0.24c-0.14,0.15-0.22,0.34-0.22,0.58c0,0.27,0.09,0.48,0.28,0.64
			c0.15,0.12,0.32,0.18,0.53,0.18c0.24,0,0.44-0.08,0.59-0.24c0.14-0.15,0.21-0.34,0.21-0.58c0-0.27-0.09-0.48-0.27-0.63
			C370.64,26.55,370.46,26.49,370.25,26.49z"/>
		<path d="M374.05,26.29l-0.02,0.24c-0.23,0-0.44,0.1-0.63,0.3c-0.18,0.19-0.31,0.43-0.4,0.74v1.83h-0.24v-3.04h0.23v0.82
			c0.12-0.3,0.28-0.53,0.5-0.69C373.67,26.35,373.85,26.29,374.05,26.29z"/>
		<path d="M375.03,27.04c0.2-0.5,0.58-0.75,1.14-0.75c0.36,0,0.62,0.09,0.78,0.27c0.15,0.17,0.22,0.41,0.22,0.74v1
			c0,0.48,0.03,0.85,0.08,1.1h-0.23c-0.03-0.14-0.06-0.34-0.08-0.6c-0.3,0.44-0.67,0.66-1.12,0.66c-0.32,0-0.56-0.09-0.73-0.28
			c-0.14-0.15-0.21-0.35-0.21-0.58c0-0.55,0.34-0.88,1.01-0.99c0.26-0.04,0.6-0.08,1.04-0.1v-0.17c0-0.33-0.07-0.56-0.2-0.69
			c-0.12-0.11-0.31-0.17-0.56-0.17c-0.47,0-0.78,0.22-0.92,0.66L375.03,27.04z M376.93,27.71c-0.35,0.01-0.68,0.05-1,0.1
			c-0.54,0.1-0.81,0.36-0.81,0.79c0,0.22,0.07,0.39,0.21,0.5c0.12,0.1,0.29,0.16,0.49,0.16c0.43,0,0.8-0.24,1.1-0.72V27.71z"/>
		<path d="M378.86,26.36v0.61c0.34-0.45,0.69-0.68,1.04-0.68c0.22,0,0.41,0.07,0.55,0.2c0.13,0.12,0.21,0.28,0.22,0.46
			c0.34-0.45,0.69-0.67,1.04-0.67c0.26,0,0.46,0.08,0.61,0.25c0.13,0.15,0.19,0.34,0.19,0.57v2.28h-0.24v-2.14
			c0-0.5-0.2-0.75-0.6-0.75c-0.18,0-0.37,0.07-0.56,0.21c-0.16,0.12-0.31,0.28-0.44,0.48v2.2h-0.24v-2.14c0-0.5-0.19-0.75-0.58-0.75
			c-0.36,0-0.7,0.23-1.01,0.69v2.2h-0.24v-3.04H378.86z"/>
	</g>
</g>
<g>
	<g>
		<path d="M440.74,26.98l-0.23,0.1c-0.14-0.39-0.41-0.58-0.81-0.58c-0.26,0-0.46,0.06-0.6,0.17c-0.12,0.1-0.17,0.23-0.17,0.4
			c0,0.19,0.06,0.33,0.17,0.42c0.1,0.08,0.28,0.15,0.54,0.2l0.23,0.05c0.37,0.08,0.63,0.19,0.76,0.33c0.13,0.13,0.19,0.31,0.19,0.55
			c0,0.26-0.1,0.48-0.3,0.63c-0.2,0.15-0.46,0.23-0.79,0.23c-0.28,0-0.53-0.07-0.73-0.21c-0.18-0.13-0.32-0.3-0.4-0.51l0.23-0.1
			c0.15,0.42,0.45,0.63,0.91,0.63c0.31,0,0.53-0.07,0.68-0.22c0.11-0.11,0.17-0.25,0.17-0.42c0-0.21-0.06-0.37-0.17-0.46
			c-0.11-0.09-0.31-0.17-0.6-0.23l-0.23-0.05c-0.36-0.08-0.6-0.19-0.73-0.33c-0.1-0.12-0.16-0.28-0.16-0.48
			c0-0.24,0.09-0.44,0.28-0.58c0.18-0.14,0.42-0.2,0.73-0.2C440.2,26.29,440.54,26.52,440.74,26.98z"/>
		<path d="M442.33,24.85v2.11c0.38-0.45,0.76-0.67,1.13-0.67c0.26,0,0.47,0.08,0.62,0.25c0.13,0.15,0.2,0.34,0.2,0.57v2.28h-0.24
			v-2.14c0-0.5-0.2-0.75-0.61-0.75c-0.36,0-0.72,0.23-1.1,0.69v2.2h-0.24v-4.54H442.33z"/>
		<path d="M445.65,27.04c0.2-0.5,0.58-0.75,1.14-0.75c0.36,0,0.62,0.09,0.78,0.27c0.15,0.17,0.22,0.41,0.22,0.74v1
			c0,0.48,0.03,0.85,0.08,1.1h-0.23c-0.03-0.14-0.06-0.34-0.08-0.6c-0.3,0.44-0.67,0.66-1.12,0.66c-0.32,0-0.56-0.09-0.73-0.28
			c-0.14-0.15-0.21-0.35-0.21-0.58c0-0.55,0.34-0.88,1.01-0.99c0.26-0.04,0.6-0.08,1.04-0.1v-0.17c0-0.33-0.07-0.56-0.2-0.69
			c-0.12-0.11-0.31-0.17-0.56-0.17c-0.47,0-0.78,0.22-0.92,0.66L445.65,27.04z M447.56,27.71c-0.35,0.01-0.68,0.05-1,0.1
			c-0.54,0.1-0.81,0.36-0.81,0.79c0,0.22,0.07,0.39,0.21,0.5c0.12,0.1,0.29,0.16,0.49,0.16c0.43,0,0.8-0.24,1.1-0.72V27.71z"/>
		<path d="M450.54,26.29l-0.02,0.24c-0.23,0-0.44,0.1-0.63,0.3c-0.18,0.19-0.31,0.43-0.4,0.74v1.83h-0.24v-3.04h0.23v0.82
			c0.12-0.3,0.28-0.53,0.5-0.69C450.16,26.35,450.34,26.29,450.54,26.29z"/>
		<path d="M453.83,27.85h-2.2c0,0.48,0.11,0.85,0.34,1.1c0.18,0.2,0.41,0.3,0.68,0.3c0.26,0,0.46-0.06,0.62-0.19
			c0.13-0.11,0.24-0.27,0.32-0.49l0.23,0.11c-0.23,0.52-0.61,0.78-1.16,0.78c-0.39,0-0.7-0.16-0.94-0.48
			c-0.21-0.29-0.31-0.65-0.31-1.1c0-0.51,0.13-0.92,0.4-1.21c0.22-0.25,0.5-0.38,0.83-0.38c0.38,0,0.68,0.16,0.91,0.46
			c0.2,0.27,0.3,0.62,0.3,1.03V27.85z M453.59,27.64c-0.03-0.39-0.15-0.69-0.34-0.89c-0.17-0.17-0.37-0.25-0.62-0.25
			c-0.28,0-0.52,0.11-0.7,0.34c-0.16,0.21-0.26,0.47-0.28,0.8H453.59z"/>
	</g>
</g>
<g>
	<rect x="106.81" y="16.51" class="st0" width="63" height="21.67"/>
	<path class="st1" d="M170.31,38.67h-64V16.01h64V38.67z M107.31,37.67h62V17.01h-62V37.67z"/>
</g>
<g>
	<path d="M134.73,25.24v1.12h0.77v0.21h-0.77v2.14c0,0.38,0.16,0.56,0.48,0.56c0.14,0,0.27-0.01,0.39-0.04l-0.02,0.21
		c-0.13,0.03-0.25,0.04-0.38,0.04c-0.24,0-0.43-0.07-0.55-0.21c-0.11-0.13-0.17-0.3-0.17-0.53v-2.18h-0.53v-0.21h0.53V25.3
		L134.73,25.24z"/>
	<path d="M137.57,26.29c0.38,0,0.69,0.16,0.92,0.48c0.2,0.28,0.3,0.65,0.3,1.1c0,0.52-0.13,0.92-0.39,1.22
		c-0.22,0.25-0.5,0.38-0.83,0.38c-0.39,0-0.69-0.16-0.92-0.48c-0.2-0.28-0.3-0.65-0.3-1.1c0-0.52,0.13-0.92,0.39-1.21
		C136.96,26.42,137.24,26.29,137.57,26.29z M137.57,26.5c-0.32,0-0.56,0.14-0.74,0.41c-0.16,0.24-0.24,0.57-0.24,0.97
		c0,0.46,0.1,0.82,0.31,1.07c0.17,0.21,0.4,0.32,0.67,0.32c0.31,0,0.56-0.14,0.73-0.41c0.16-0.25,0.24-0.57,0.24-0.97
		c0-0.46-0.1-0.81-0.31-1.06C138.07,26.6,137.84,26.5,137.57,26.5z"/>
	<path d="M140.29,26.36v0.52c0.13-0.2,0.28-0.35,0.46-0.46c0.16-0.09,0.32-0.13,0.48-0.13c0.38,0,0.67,0.16,0.89,0.48
		c0.2,0.29,0.3,0.65,0.3,1.1c0,0.51-0.13,0.92-0.39,1.21c-0.22,0.25-0.5,0.38-0.83,0.38c-0.37,0-0.67-0.19-0.91-0.58v1.57h-0.24
		v-4.1H140.29z M140.3,27.16v1.47c0.15,0.24,0.3,0.41,0.46,0.5c0.13,0.08,0.28,0.12,0.45,0.12c0.31,0,0.55-0.14,0.73-0.41
		c0.17-0.25,0.25-0.57,0.25-0.97c0-0.45-0.1-0.81-0.3-1.05c-0.17-0.21-0.38-0.31-0.65-0.31C140.86,26.51,140.55,26.73,140.3,27.16z"
		/>
</g>
<rect x="292.28" y="38.17" class="st1" width="1" height="29.48"/>
<rect x="368.18" y="38.17" class="st1" width="1" height="29.48"/>
<rect x="445.73" y="38.17" class="st1" width="1" height="29.48"/>
</svg>
